<svg height="512" viewBox="0 0 60 60" width="512" xmlns="http://www.w3.org/2000/svg"><g id="Colour"><path d="m30.9 1.567 5.631 11.365a.011.011 0 0 0 .009.007l12.592 1.823a1 1 0 0 1 .558 1.713l-9.115 8.851 2.152 12.5a1.007 1.007 0 0 1 -1.463 1.058l-11.074-5.8a.416.416 0 0 0 -.388 0l-11.074 5.8a1.007 1.007 0 0 1 -1.463-1.058l2.152-12.5-9.115-8.851a1 1 0 0 1 .558-1.713l12.592-1.822a.021.021 0 0 0 .015-.011l5.633-11.362a1 1 0 0 1 1.8 0z" fill="#ffd62c"/><g fill="#e0af24"><path d="m9.362 44.224 2.252 4.486 5.036.719a.4.4 0 0 1 .224.676l-3.643 3.495.861 4.934a.4.4 0 0 1 -.585.418l-4.429-2.287a.166.166 0 0 0 -.156 0l-4.429 2.289a.4.4 0 0 1 -.585-.418l.861-4.936-3.647-3.492a.4.4 0 0 1 .224-.676l5.035-.719h.006l2.251-4.485a.4.4 0 0 1 .724-.004z"/><path d="m30.362 44.224 2.252 4.486 5.036.719a.4.4 0 0 1 .224.676l-3.643 3.495.861 4.934a.4.4 0 0 1 -.585.418l-4.429-2.289a.166.166 0 0 0 -.156 0l-4.429 2.289a.4.4 0 0 1 -.585-.418l.861-4.934-3.647-3.494a.4.4 0 0 1 .224-.676l5.035-.719h.006l2.251-4.485a.4.4 0 0 1 .724-.002z"/><path d="m51.362 44.224 2.252 4.486 5.036.719a.4.4 0 0 1 .224.676l-3.643 3.495.861 4.934a.4.4 0 0 1 -.585.418l-4.429-2.289a.166.166 0 0 0 -.156 0l-4.429 2.289a.4.4 0 0 1 -.585-.418l.861-4.934-3.647-3.494a.4.4 0 0 1 .224-.676l5.035-.719h.006l2.251-4.485a.4.4 0 0 1 .724-.002z"/></g></g><g id="Icons" fill="#262626"><path d="m18.346 25.676-2.062 11.977a2.008 2.008 0 0 0 2.916 2.116l10.8-5.658 10.805 5.659a2 2 0 0 0 2.117-.158 1.99 1.99 0 0 0 .794-1.959l-2.062-11.977 8.737-8.484a2 2 0 0 0 -1.112-3.42l-12.079-1.748-5.4-10.9a2 2 0 0 0 -3.6 0l-3.683 7.432a1 1 0 0 0 1.793.888l3.7-7.433 5.633 11.368a1.023 1.023 0 0 0 .76.55l12.597 1.828-9.115 8.851a1 1 0 0 0 -.289.887l2.135 12.505-11.07-5.8a1.409 1.409 0 0 0 -1.319 0l-11.087 5.8 2.151-12.5a1 1 0 0 0 -.289-.887l-9.109-8.857 12.592-1.826a1 1 0 0 0 -.287-1.98l-12.592 1.822a2 2 0 0 0 -1.112 3.42z"/><path d="m3.691 53.956-.768 4.407a1.387 1.387 0 0 0 .55 1.364 1.4 1.4 0 0 0 1.479.115l4.048-2.093 4.047 2.092a1.4 1.4 0 0 0 2.03-1.477l-.768-4.408 3.261-3.126a1.394 1.394 0 0 0 -.774-2.388l-4.522-.642-2.019-4.023a1.4 1.4 0 0 0 -2.51 0l-2.019 4.023-4.521.646a1.4 1.4 0 0 0 -1.138.954 1.38 1.38 0 0 0 .364 1.43zm2.831-4.256a1.013 1.013 0 0 0 .758-.546l1.72-3.422 1.72 3.425a1.011 1.011 0 0 0 .757.546l3.81.544-2.747 2.634a1 1 0 0 0 -.294.893l.652 3.739-3.373-1.743a1.157 1.157 0 0 0 -.525-.123 1.208 1.208 0 0 0 -.541.128l-3.359 1.738.652-3.739a1 1 0 0 0 -.294-.893l-2.745-2.634z"/><path d="m38.933 49.4a1.4 1.4 0 0 0 -1.137-.955l-4.522-.645-2.019-4.023a1.4 1.4 0 0 0 -2.51 0l-2.019 4.023-4.521.646a1.4 1.4 0 0 0 -1.138.955 1.38 1.38 0 0 0 .364 1.433l3.26 3.126-.768 4.407a1.387 1.387 0 0 0 .55 1.364 1.4 1.4 0 0 0 1.479.115l4.048-2.097 4.047 2.092a1.4 1.4 0 0 0 2.03-1.477l-.768-4.408 3.261-3.126a1.382 1.382 0 0 0 .363-1.43zm-5.393 3.481a1 1 0 0 0 -.294.893l.652 3.739-3.373-1.743a1.157 1.157 0 0 0 -.525-.123 1.208 1.208 0 0 0 -.541.128l-3.359 1.738.652-3.739a1 1 0 0 0 -.294-.893l-2.747-2.634 3.809-.544a1.013 1.013 0 0 0 .758-.546l1.722-3.425 1.72 3.425a1.011 1.011 0 0 0 .757.546l3.81.544z"/><path d="m58.8 48.442-4.526-.642-2.019-4.023a1.4 1.4 0 0 0 -2.51 0l-2.019 4.023-4.521.646a1.4 1.4 0 0 0 -1.138.955 1.38 1.38 0 0 0 .364 1.433l3.26 3.126-.768 4.407a1.387 1.387 0 0 0 .55 1.364 1.4 1.4 0 0 0 1.479.115l4.048-2.097 4.047 2.092a1.4 1.4 0 0 0 2.03-1.477l-.768-4.408 3.261-3.126a1.394 1.394 0 0 0 -.774-2.388zm-4.26 4.439a1 1 0 0 0 -.294.893l.652 3.739-3.373-1.743a1.157 1.157 0 0 0 -.525-.123 1.208 1.208 0 0 0 -.541.128l-3.359 1.738.652-3.739a1 1 0 0 0 -.294-.893l-2.747-2.634 3.809-.544a1.013 1.013 0 0 0 .758-.546l1.722-3.425 1.72 3.425a1.011 1.011 0 0 0 .757.546l3.81.544z"/></g></svg>