<svg width="532" height="381" viewBox="0 0 532 381" fill="none" xmlns="http://www.w3.org/2000/svg">
<rect width="532" height="381" fill="white"/>
<path d="M434.423 96.5029L442.354 105.379V118.257H431.513V152.817H416.234L410.122 144.523V118.257H406.557L400.445 110.545V96.5029H434.423ZM401.755 97.8126V109.235H411.432V143.359H423.291V109.235H433.987V97.8126H401.755Z" fill="#596EA3"/>
<path d="M374.248 96.5029C383.051 96.5029 389.599 97.8126 394.62 106.325C398.549 113.092 399.349 122.55 395.784 128.807C392.073 135.501 384.361 136.083 378.468 136.083V152.817H363.188L357.077 144.523V96.5029H374.248ZM358.386 143.359H370.246V126.625H373.52C376.067 126.625 385.161 127.352 388.363 121.895C390.764 117.748 390.036 106.98 387.708 103.051C384.361 97.1577 377.231 97.8126 373.447 97.8126H358.386V143.359ZM370.246 107.78C371.847 107.78 373.447 107.78 373.447 107.78C376.867 107.78 377.594 108.799 377.594 111.709V113.601C377.594 116.22 376.94 117.021 372.938 117.021C372.938 117.021 371.628 117.021 370.246 117.021V107.78Z" fill="#596EA3"/>
<path d="M351.912 120.949H342.963L335.105 114.474V127.861H344.2L352.13 137.102C351.767 142.267 350.748 147.651 344.564 151.144C339.107 154.272 329.939 152.963 325.065 149.543C314.588 142.049 313.278 135.646 313.278 123.423V115.856C313.278 108.799 314.442 101.159 321.718 97.4488C327.975 94.3202 336.415 95.1933 341.872 99.0494C349.802 104.652 352.567 113.31 351.912 120.949ZM338.525 98.6129C333.577 95.7754 325.574 96.2847 321.427 98.9767C315.752 102.542 314.588 109.527 314.588 115.493V122.186C314.588 130.481 314.733 138.12 321.427 142.995C325.283 145.832 335.396 146.415 339.834 142.922C344.127 139.575 343.691 132.445 343.691 129.171H335.105C334.814 131.426 334.669 133.027 332.631 133.9C331.176 134.555 329.867 134.337 328.775 133.682C326.447 132.372 326.738 130.19 326.738 125.242V116.511C326.738 112.437 326.593 109.454 328.412 108.071C329.43 107.271 331.395 107.271 332.631 107.708C334.232 108.362 335.032 110.181 335.032 112.655C335.032 112.655 342.818 112.655 343.472 112.655C343.472 108.581 343.254 101.45 338.525 98.6129Z" fill="#596EA3"/>
<path d="M308.552 107.489V152.817H293.273L287.161 144.523V96.5029H301.349L308.552 107.489ZM288.471 97.8126V143.359H300.331V97.8126H288.471Z" fill="#596EA3"/>
<path d="M207.364 49.4562H252.11L268.147 71.433L258.445 86.6782L270.127 102.517V132.216L282.798 149.045V178.743H270.127V201.116H228.351L209.938 178.545H186.179L166.38 152.213V127.266L207.364 49.4562ZM169.944 128.652V151.817H215.482V180.129H247.556V151.817H261.415V126.474C261.415 126.474 252.704 126.672 247.556 126.474V82.3224L215.482 112.417V126.474H197.465L249.536 53.02H209.344L169.944 128.652Z" fill="#596EA3"/>
<path d="M130.369 47.8723L152.346 77.7687V201.116H110.768L94.1374 178.545V74.6008L130.369 47.8723ZM97.8992 76.3827V175.377H129.973V52.624L97.8992 76.3827Z" fill="#596EA3"/>
<path d="M314.282 47.6246H324.331L328.683 52.6492V47.6246H338.266L344.741 57.0005V87.7183H334.174L329.512 82.6937V87.7183H318.633L314.282 81.8131V47.6246ZM315.215 80.9842H323.658V67.8269H329.615V80.9842H338.059V48.557H329.615V60.9892H323.658V48.557H315.215V80.9842Z" fill="#596EA3"/>
<path d="M305.307 47.6246L310.953 53.9443V63.113H303.235V87.7183H292.357L288.006 81.8131V63.113H285.468L281.116 57.6221V47.6246H305.307ZM282.049 48.557V56.6897H288.938V80.9842H297.382V56.6897H304.996V48.557H282.049Z" fill="#596EA3"/>
<path d="M449.835 318.611L446.306 327.774V333.131H442.086V327.774L438.185 318.611H442.543L445.509 325.616L448.156 318.611H449.835Z" fill="#596EA3"/>
<path d="M431.659 325.297H437.643V333.131H436.293L435.836 332.132C434.681 332.961 433.448 333.375 432.137 333.375C429.99 333.375 428.321 332.734 427.131 331.452C425.94 330.162 425.345 328.348 425.345 326.009C425.345 323.735 425.976 321.892 427.237 320.482C428.506 319.072 430.153 318.367 432.18 318.367C434.851 318.367 436.478 319.741 437.059 322.491L435.103 323.373V323.033L435.06 322.246C434.926 320.532 434.136 319.674 432.69 319.674C431.627 319.674 430.897 320.128 430.5 321.035C430.111 321.942 429.916 323.639 429.916 326.126C429.916 328.429 430.075 329.995 430.394 330.824C430.72 331.653 431.322 332.068 432.201 332.068C433.25 332.068 433.774 331.487 433.774 330.325V326.753H431.659V325.297Z" fill="#596EA3"/>
<path d="M417.788 318.367C422.011 318.367 424.123 320.872 424.123 325.882C424.123 330.878 421.976 333.375 417.681 333.375C413.366 333.375 411.208 330.821 411.208 325.712C411.208 320.815 413.401 318.367 417.788 318.367ZM417.681 319.525C416.881 319.525 416.339 319.965 416.055 320.843C415.772 321.722 415.63 323.402 415.63 325.882C415.63 328.348 415.772 330.02 416.055 330.899C416.339 331.778 416.881 332.217 417.681 332.217C418.461 332.217 418.992 331.778 419.276 330.899C419.559 330.02 419.701 328.348 419.701 325.882C419.701 323.402 419.559 321.722 419.276 320.843C418.992 319.965 418.461 319.525 417.681 319.525Z" fill="#596EA3"/>
<path d="M405.011 318.611V331.675H410.974V333.131H400.812V318.611H405.011Z" fill="#596EA3"/>
<path d="M392.596 318.367C396.819 318.367 398.931 320.872 398.931 325.882C398.931 330.878 396.784 333.375 392.49 333.375C388.174 333.375 386.016 330.821 386.016 325.712C386.016 320.815 388.21 318.367 392.596 318.367ZM392.49 319.525C391.689 319.525 391.147 319.965 390.863 320.843C390.58 321.722 390.438 323.402 390.438 325.882C390.438 328.348 390.58 330.02 390.863 330.899C391.147 331.778 391.689 332.217 392.49 332.217C393.269 332.217 393.801 331.778 394.084 330.899C394.368 330.02 394.509 328.348 394.509 325.882C394.509 323.402 394.368 321.722 394.084 320.843C393.801 319.965 393.269 319.525 392.49 319.525Z" fill="#596EA3"/>
<path d="M384.22 318.611V333.131H380.999L374.951 323.947V333.131H373.538V318.611H376.184L382.806 328.539V318.611H384.22Z" fill="#596EA3"/>
<path d="M363.45 325.903V333.131H359.252V318.611H363.45V324.468H366.894V318.611H371.114V333.131H366.894V325.903H363.45Z" fill="#596EA3"/>
<path d="M356.073 327.295L357.625 327.774C357.639 328.135 357.647 328.454 357.647 328.73C357.647 330.141 357.136 331.267 356.116 332.111C355.103 332.954 353.742 333.375 352.034 333.375C347.719 333.375 345.561 330.959 345.561 326.126C345.561 323.83 346.188 321.97 347.442 320.546C348.704 319.114 350.341 318.399 352.353 318.399C355.492 318.399 357.062 319.905 357.062 322.916L355.51 323.745C355.538 323.327 355.553 322.994 355.553 322.746C355.382 320.613 354.433 319.547 352.704 319.547C350.89 319.547 349.983 321.818 349.983 326.36C349.983 330.265 351 332.217 353.033 332.217C353.877 332.217 354.614 331.884 355.244 331.218C355.882 330.552 356.201 329.715 356.201 328.709C356.201 328.39 356.158 327.919 356.073 327.295Z" fill="#596EA3"/>
<path d="M343.988 318.611V320.067H338.79V324.468H343.169V325.924H338.79V331.675H344.881V333.131H334.591V318.611H343.988Z" fill="#596EA3"/>
<path d="M333.486 318.611V320.067H329.936V333.131H325.482V320.067H321.889V318.611H333.486Z" fill="#596EA3"/>
<path d="M316.904 318.611V320.067H313.354V333.131H308.9V320.067H305.307V318.611H316.904Z" fill="#596EA3"/>
<path d="M304.287 318.611V333.131H301.066L295.018 323.947V333.131H293.604V318.611H296.251L302.873 328.539V318.611H304.287Z" fill="#596EA3"/>
<path d="M291.457 318.611V320.067H286.26V324.468H290.639V325.924H286.26V331.675H292.35V333.131H282.061V318.611H291.457Z" fill="#596EA3"/>
<path d="M279.563 318.611V333.131H275.503V323.033L272.665 333.131H270.316L267.424 323.203V333.131H266.011V318.611H270.273L272.782 327.38L275.258 318.611H279.563Z" fill="#596EA3"/>
<path d="M263.863 318.611V320.067H258.666V324.468H263.045V325.924H258.666V331.675H264.756V333.131H254.467V318.611H263.863Z" fill="#596EA3"/>
<path d="M253.372 318.611L249.174 333.131H245.379L241.552 318.611H245.793L248.663 329.602L251.799 318.611H253.372Z" fill="#596EA3"/>
<path d="M237.715 318.611L241.765 333.131H237.545L236.673 329.974H232.294L231.38 333.131H229.732L234.016 318.611H237.715ZM232.709 328.539H236.28L234.558 322.098L232.709 328.539Z" fill="#596EA3"/>
<path d="M218.136 333.131V318.611H224.386C227.936 318.611 229.711 320.032 229.711 322.874C229.711 325.751 227.738 327.189 223.791 327.189H222.334V333.131H218.136ZM222.334 325.86H223.27C224.808 325.86 225.576 324.844 225.576 322.81C225.576 320.911 224.808 319.961 223.27 319.961H222.334V325.86Z" fill="#596EA3"/>
<path d="M198.557 333.131V318.611H204.562C208.828 318.611 210.961 321.035 210.961 325.882C210.961 330.715 208.75 333.131 204.328 333.131H198.557ZM202.755 331.93H203.861C204.881 331.93 205.583 331.494 205.965 330.622C206.348 329.744 206.539 328.163 206.539 325.882C206.539 323.586 206.348 322.006 205.965 321.141C205.583 320.269 204.881 319.834 203.861 319.834H202.755V331.93Z" fill="#596EA3"/>
<path d="M191.701 318.611V331.675H197.664V333.131H187.502V318.611H191.701Z" fill="#596EA3"/>
<path d="M185.27 318.611V320.067H180.072V324.468H184.451V325.924H180.072V331.675H186.163V333.131H175.873V318.611H185.27Z" fill="#596EA3"/>
<path d="M173.333 318.611V333.131H169.134V318.611H173.333Z" fill="#596EA3"/>
<path d="M167.699 318.611V320.067H162.427V324.925H166.913V326.36H162.427V333.131H158.229V318.611H167.699Z" fill="#596EA3"/>
<path d="M144.495 333.131V318.611H150.724C152.347 318.611 153.644 318.958 154.615 319.653C155.585 320.34 156.071 321.254 156.071 322.395C156.071 324.153 155.026 325.301 152.935 325.839C154.012 326.229 154.707 326.661 155.019 327.136C155.33 327.604 155.543 328.528 155.656 329.91C155.805 331.533 156.081 332.607 156.485 333.131H151.915C151.624 332.465 151.479 331.622 151.479 330.601L151.458 329.761L151.436 328.667C151.436 327.001 150.763 326.169 149.417 326.169H148.694V333.131H144.495ZM148.694 324.968H149.544C151.139 324.968 151.936 324.131 151.936 322.459C151.936 320.794 151.139 319.961 149.544 319.961H148.694V324.968Z" fill="#596EA3"/>
<path d="M141.934 318.611V333.131H137.735V318.611H141.934Z" fill="#596EA3"/>
<path d="M132.527 318.611L136.577 333.131H132.357L131.485 329.974H127.106L126.192 333.131H124.544L128.828 318.611H132.527ZM127.52 328.539H131.092L129.37 322.098L127.52 328.539Z" fill="#596EA3"/>
<path d="M106.378 333.131V318.611H112.384C116.65 318.611 118.783 321.035 118.783 325.882C118.783 330.715 116.572 333.131 112.15 333.131H106.378ZM110.577 331.93H111.682C112.703 331.93 113.404 331.494 113.787 330.622C114.17 329.744 114.361 328.163 114.361 325.882C114.361 323.586 114.17 322.006 113.787 321.141C113.404 320.269 112.703 319.834 111.682 319.834H110.577V331.93Z" fill="#596EA3"/>
<path d="M103.923 318.611V333.131H100.702L94.6542 323.947V333.131H93.2405V318.611H95.8872L102.509 328.539V318.611H103.923Z" fill="#596EA3"/>
<path d="M88.1171 318.611L92.1669 333.131H87.9471L87.0755 329.974H82.6961L81.782 333.131H80.1345L84.4181 318.611H88.1171ZM83.1107 328.539H86.6822L84.9602 322.098L83.1107 328.539Z" fill="#596EA3"/>
<path d="M439.461 308.131V293.611H445.467C449.733 293.611 451.866 296.035 451.866 300.882C451.866 305.715 449.655 308.131 445.233 308.131H439.461ZM443.66 306.93H444.765C445.785 306.93 446.487 306.494 446.87 305.622C447.252 304.744 447.444 303.163 447.444 300.882C447.444 298.586 447.252 297.006 446.87 296.141C446.487 295.269 445.785 294.834 444.765 294.834H443.66V306.93Z" fill="#596EA3"/>
<path d="M434.253 293.611L438.302 308.131H434.082L433.211 304.974H428.832L427.917 308.131H426.27L430.554 293.611H434.253ZM429.246 303.539H432.818L431.096 297.098L429.246 303.539Z" fill="#596EA3"/>
<path d="M419.467 293.367C423.691 293.367 425.802 295.872 425.802 300.882C425.802 305.878 423.655 308.375 419.361 308.375C415.045 308.375 412.888 305.821 412.888 300.712C412.888 295.815 415.081 293.367 419.467 293.367ZM419.361 294.525C418.56 294.525 418.018 294.965 417.735 295.843C417.451 296.722 417.309 298.402 417.309 300.882C417.309 303.348 417.451 305.02 417.735 305.899C418.018 306.778 418.56 307.217 419.361 307.217C420.14 307.217 420.672 306.778 420.955 305.899C421.239 305.02 421.38 303.348 421.38 300.882C421.38 298.402 421.239 296.722 420.955 295.843C420.672 294.965 420.14 294.525 419.361 294.525Z" fill="#596EA3"/>
<path d="M399.792 308.131V293.611H406.021C407.644 293.611 408.94 293.958 409.911 294.653C410.882 295.34 411.368 296.254 411.368 297.395C411.368 299.153 410.322 300.301 408.232 300.839C409.309 301.229 410.003 301.661 410.315 302.136C410.627 302.604 410.84 303.528 410.953 304.91C411.102 306.533 411.378 307.607 411.782 308.131H407.211C406.921 307.465 406.776 306.622 406.776 305.601L406.754 304.761L406.733 303.667C406.733 302.001 406.06 301.169 404.714 301.169H403.991V308.131H399.792ZM403.991 299.968H404.841C406.435 299.968 407.233 299.131 407.233 297.459C407.233 295.794 406.435 294.961 404.841 294.961H403.991V299.968Z" fill="#596EA3"/>
<path d="M392.043 293.611V308.131H388.823L382.774 298.947V308.131H381.361V293.611H384.007L390.63 303.539V293.611H392.043Z" fill="#596EA3"/>
<path d="M373.229 293.367C377.453 293.367 379.564 295.872 379.564 300.882C379.564 305.878 377.417 308.375 373.123 308.375C368.807 308.375 366.65 305.821 366.65 300.712C366.65 295.815 368.843 293.367 373.229 293.367ZM373.123 294.525C372.322 294.525 371.78 294.965 371.497 295.843C371.213 296.722 371.072 298.402 371.072 300.882C371.072 303.348 371.213 305.02 371.497 305.899C371.78 306.778 372.322 307.217 373.123 307.217C373.902 307.217 374.434 306.778 374.717 305.899C375.001 305.02 375.143 303.348 375.143 300.882C375.143 298.402 375.001 296.722 374.717 295.843C374.434 294.965 373.902 294.525 373.123 294.525Z" fill="#596EA3"/>
<path d="M359.783 293.611V295.067H354.585V299.468H358.965V300.924H354.585V306.675H360.676V308.131H350.387V293.611H359.783Z" fill="#596EA3"/>
<path d="M347.209 302.295L348.76 302.774C348.775 303.135 348.782 303.454 348.782 303.73C348.782 305.141 348.271 306.267 347.251 307.111C346.238 307.954 344.877 308.375 343.169 308.375C338.854 308.375 336.696 305.959 336.696 301.126C336.696 298.83 337.323 296.97 338.577 295.546C339.839 294.114 341.476 293.399 343.488 293.399C346.627 293.399 348.197 294.905 348.197 297.916L346.645 298.745C346.674 298.327 346.688 297.994 346.688 297.746C346.518 295.613 345.568 294.547 343.839 294.547C342.025 294.547 341.118 296.818 341.118 301.36C341.118 305.265 342.135 307.217 344.169 307.217C345.012 307.217 345.749 306.884 346.379 306.218C347.017 305.552 347.336 304.715 347.336 303.709C347.336 303.39 347.294 302.919 347.209 302.295Z" fill="#596EA3"/>
<path d="M334.9 293.611V308.131H331.679L325.631 298.947V308.131H324.217V293.611H326.864L333.486 303.539V293.611H334.9Z" fill="#596EA3"/>
<path d="M322.07 293.611V295.067H316.872V299.468H321.252V300.924H316.872V306.675H322.963V308.131H312.674V293.611H322.07Z" fill="#596EA3"/>
<path d="M298.94 308.131V293.611H305.169C306.792 293.611 308.089 293.958 309.06 294.653C310.03 295.34 310.516 296.254 310.516 297.395C310.516 299.153 309.471 300.301 307.38 300.839C308.457 301.229 309.152 301.661 309.464 302.136C309.775 302.604 309.988 303.528 310.101 304.91C310.25 306.533 310.526 307.607 310.93 308.131H306.36C306.069 307.465 305.924 306.622 305.924 305.601L305.903 304.761L305.881 303.667C305.881 302.001 305.208 301.169 303.862 301.169H303.139V308.131H298.94ZM303.139 299.968H303.989C305.584 299.968 306.381 299.131 306.381 297.459C306.381 295.794 305.584 294.961 303.989 294.961H303.139V299.968Z" fill="#596EA3"/>
<path d="M296.708 293.611V295.067H291.51V299.468H295.89V300.924H291.51V306.675H297.601V308.131H287.312V293.611H296.708Z" fill="#596EA3"/>
<path d="M285.898 293.611V295.067H280.626V299.925H285.112V301.36H280.626V308.131H276.427V293.611H285.898Z" fill="#596EA3"/>
<path d="M273.993 293.611V308.131H270.773L264.724 298.947V308.131H263.311V293.611H265.957L272.58 303.539V293.611H273.993Z" fill="#596EA3"/>
<path d="M255.179 293.367C259.403 293.367 261.514 295.872 261.514 300.882C261.514 305.878 259.367 308.375 255.073 308.375C250.757 308.375 248.6 305.821 248.6 300.712C248.6 295.815 250.793 293.367 255.179 293.367ZM255.073 294.525C254.272 294.525 253.73 294.965 253.447 295.843C253.163 296.722 253.021 298.402 253.021 300.882C253.021 303.348 253.163 305.02 253.447 305.899C253.73 306.778 254.272 307.217 255.073 307.217C255.852 307.217 256.384 306.778 256.667 305.899C256.951 305.02 257.093 303.348 257.093 300.882C257.093 298.402 256.951 296.722 256.667 295.843C256.384 294.965 255.852 294.525 255.073 294.525Z" fill="#596EA3"/>
<path d="M246.059 302.295L247.611 302.774C247.625 303.135 247.632 303.454 247.632 303.73C247.632 305.141 247.122 306.267 246.102 307.111C245.088 307.954 243.728 308.375 242.02 308.375C237.705 308.375 235.547 305.959 235.547 301.126C235.547 298.83 236.174 296.97 237.428 295.546C238.69 294.114 240.326 293.399 242.339 293.399C245.478 293.399 247.048 294.905 247.048 297.916L245.496 298.745C245.524 298.327 245.538 297.994 245.538 297.746C245.368 295.613 244.419 294.547 242.69 294.547C240.876 294.547 239.969 296.818 239.969 301.36C239.969 305.265 240.985 307.217 243.019 307.217C243.862 307.217 244.599 306.884 245.23 306.218C245.868 305.552 246.187 304.715 246.187 303.709C246.187 303.39 246.144 302.919 246.059 302.295Z" fill="#596EA3"/>
<path d="M224.056 293.611V306.675H230.019V308.131H219.858V293.611H224.056Z" fill="#596EA3"/>
<path d="M214.649 293.611L218.699 308.131H214.479L213.608 304.974H209.228L208.314 308.131H206.667L210.95 293.611H214.649ZM209.643 303.539H213.214L211.492 297.098L209.643 303.539Z" fill="#596EA3"/>
<path d="M205.625 293.611V308.131H202.404L196.356 298.947V308.131H194.943V293.611H197.589L204.211 303.539V293.611H205.625Z" fill="#596EA3"/>
<path d="M186.811 293.367C191.034 293.367 193.146 295.872 193.146 300.882C193.146 305.878 190.999 308.375 186.705 308.375C182.389 308.375 180.231 305.821 180.231 300.712C180.231 295.815 182.425 293.367 186.811 293.367ZM186.705 294.525C185.904 294.525 185.362 294.965 185.078 295.843C184.795 296.722 184.653 298.402 184.653 300.882C184.653 303.348 184.795 305.02 185.078 305.899C185.362 306.778 185.904 307.217 186.705 307.217C187.484 307.217 188.016 306.778 188.299 305.899C188.583 305.02 188.724 303.348 188.724 300.882C188.724 298.402 188.583 296.722 188.299 295.843C188.016 294.965 187.484 294.525 186.705 294.525Z" fill="#596EA3"/>
<path d="M178.329 293.611V308.131H174.13V293.611H178.329Z" fill="#596EA3"/>
<path d="M173.003 293.611V295.067H169.453V308.131H165V295.067H161.407V293.611H173.003Z" fill="#596EA3"/>
<path d="M157.633 293.611L161.683 308.131H157.463L156.592 304.974H152.212L151.298 308.131H149.651L153.934 293.611H157.633ZM152.627 303.539H156.198L154.476 297.098L152.627 303.539Z" fill="#596EA3"/>
<path d="M148.609 293.611V308.131H145.388L139.34 298.947V308.131H137.926V293.611H140.573L147.195 303.539V293.611H148.609Z" fill="#596EA3"/>
<path d="M124.257 308.131V293.611H130.486C132.109 293.611 133.405 293.958 134.376 294.653C135.347 295.34 135.832 296.254 135.832 297.395C135.832 299.153 134.787 300.301 132.697 300.839C133.774 301.229 134.468 301.661 134.78 302.136C135.092 302.604 135.305 303.528 135.418 304.91C135.567 306.533 135.843 307.607 136.247 308.131H131.676C131.386 307.465 131.241 306.622 131.241 305.601L131.219 304.761L131.198 303.667C131.198 302.001 130.525 301.169 129.178 301.169H128.456V308.131H124.257ZM128.456 299.968H129.306C130.9 299.968 131.698 299.131 131.698 297.459C131.698 295.794 130.9 294.961 129.306 294.961H128.456V299.968Z" fill="#596EA3"/>
<path d="M122.025 293.611V295.067H116.827V299.468H121.206V300.924H116.827V306.675H122.918V308.131H112.629V293.611H122.025Z" fill="#596EA3"/>
<path d="M111.523 293.611V295.067H107.973V308.131H103.519V295.067H99.9264V293.611H111.523Z" fill="#596EA3"/>
<path d="M98.906 293.611V308.131H95.6853L89.6371 298.947V308.131H88.2234V293.611H90.8701L97.4922 303.539V293.611H98.906Z" fill="#596EA3"/>
<path d="M85.7468 293.611V308.131H81.5482V293.611H85.7468Z" fill="#596EA3"/>
<path d="M84.7922 242.726C84.4895 243.668 83.598 250.988 82.4537 272.73L448.207 271.893V253.454C439.938 228.98 436.149 174.895 370.784 159.332C216.232 152.627 156.09 208.642 84.7922 242.726Z" fill="white"/>
<path fill-rule="evenodd" clip-rule="evenodd" d="M81.1161 256.672C81.037 258.25 80.9579 259.829 80.8158 261.406L80.8207 261.396C80.8207 262.057 80.8144 262.718 80.8081 263.379C80.7945 264.802 80.7809 266.226 80.8303 267.646C81.0664 274.265 81.1435 274.4 87.6971 274.4C94.549 274.402 101.401 274.373 108.253 274.344C114.831 274.317 121.409 274.289 127.987 274.289C135.816 274.291 143.644 274.322 151.473 274.352C159.628 274.383 167.784 274.414 175.939 274.414C183.221 274.414 190.504 274.494 197.785 274.574L197.786 274.574L197.789 274.574L197.792 274.574L197.795 274.574L197.799 274.574L197.802 274.574L197.805 274.574L197.808 274.574L197.811 274.574L197.814 274.574L197.817 274.574L197.82 274.575L197.823 274.575L197.826 274.575L197.829 274.575C202.771 274.629 207.712 274.683 212.653 274.712C217.134 274.738 221.616 274.665 226.099 274.592H226.099H226.1H226.1H226.1H226.1H226.1H226.1H226.1H226.1H226.1H226.1H226.1H226.1H226.1C234.302 274.458 242.505 274.325 250.702 274.794C253.618 274.963 254.75 273.938 255.246 271.263C255.902 267.737 257.251 264.461 259.097 261.324C261.669 256.951 264.401 252.674 267.13 248.401L267.13 248.401C269.529 244.645 271.925 240.893 274.208 237.083C278.516 229.891 283.109 223.147 288.458 216.696C296.115 207.459 304.504 199.069 313.959 191.767C323.47 184.42 333.723 178.189 343.976 171.957L343.977 171.957L343.978 171.956L343.978 171.956L343.978 171.956L343.978 171.956L343.978 171.956L343.979 171.956L343.979 171.956L343.979 171.956L343.979 171.956L343.979 171.955L343.979 171.955L343.979 171.955L343.98 171.955C346.972 170.137 349.964 168.318 352.938 166.472C358.561 162.979 364.623 161.488 371.191 161.44C373.88 161.421 376.16 162.287 378.367 163.581C380.742 164.976 381.19 166.621 378.704 168.343C375.798 170.356 375.349 173.434 374.901 176.512C374.876 176.685 374.85 176.858 374.825 177.031C374.699 177.888 374.555 179.086 375.682 179.254C377.004 179.453 377.063 178.496 377.117 177.617C377.128 177.432 377.139 177.251 377.162 177.084C377.233 176.566 377.272 176.042 377.31 175.518V175.518L377.31 175.518L377.31 175.518L377.31 175.517C377.37 174.7 377.43 173.885 377.615 173.096C377.976 171.557 378.95 170.287 380.636 170.224C382.448 170.157 383.128 171.562 383.503 173.116C383.533 173.238 383.562 173.36 383.592 173.483L383.594 173.494L383.595 173.494C383.842 174.524 384.09 175.556 384.438 176.55C384.554 176.882 385.089 177.31 385.383 177.277C385.874 177.224 385.831 176.647 385.797 176.214C385.007 166.669 379.085 157.125 368.04 158.804C361.73 159.765 355.548 159.333 349.342 158.899C348.155 158.816 346.967 158.733 345.777 158.659C344.59 158.586 343.404 158.481 342.218 158.376C340.283 158.205 338.348 158.033 336.409 158L336.08 157.995C324.697 157.794 313.324 157.594 301.969 158.881C299.412 159.171 296.849 159.423 294.287 159.674L294.287 159.674C287.507 160.34 280.727 161.005 274.045 162.388C270.471 163.129 266.881 163.793 263.292 164.457C259.85 165.093 256.41 165.729 252.986 166.434C250.285 166.989 247.561 167.448 244.836 167.908C239.319 168.84 233.801 169.772 228.459 171.494C227.17 171.91 225.881 172.322 224.593 172.735L224.592 172.735C217.519 174.999 210.45 177.261 203.493 179.947C199.782 181.38 196.058 182.781 192.334 184.183L192.334 184.183C180.711 188.557 169.092 192.929 157.873 198.271C155.055 199.612 152.199 200.875 149.343 202.139L149.343 202.139L149.343 202.139L149.343 202.139L149.343 202.139L149.342 202.139L149.342 202.139L149.342 202.139L149.342 202.139L149.342 202.139L149.342 202.139L149.342 202.139L149.342 202.139L149.342 202.139L149.342 202.139C142.938 204.971 136.532 207.805 130.541 211.524C128.31 212.909 126.111 214.351 123.913 215.792C120.752 217.864 117.594 219.935 114.345 221.833C104.823 227.399 95.3638 232.999 86.5888 239.705C84.0252 241.663 82.7626 244.136 82.1121 247.152C81.4353 250.302 81.2758 253.484 81.1161 256.672ZM241.551 272.52H241.551H241.551H241.551H241.551H241.551H241.55H241.55H241.55H241.55H241.55H241.55H241.55H241.55H241.55C240.447 272.515 239.344 272.509 238.241 272.509L238.236 272.514C213.358 271.574 188.474 271.641 163.589 271.708H163.589H163.589H163.588H163.588H163.588H163.588H163.587H163.587H163.587H163.586H163.586H163.586H163.586H163.585C155.608 271.73 147.631 271.751 139.653 271.739C124.864 271.72 110.071 271.73 95.2819 271.773C94.1182 271.777 92.9646 271.894 91.8086 272.011C89.8817 272.207 87.9477 272.404 85.9479 272.076C83.6927 271.706 82.7723 271.037 82.859 268.781C82.918 267.275 82.9101 265.767 82.9021 264.258V264.258V264.258V264.258V264.257V264.257V264.257V264.257V264.257V264.256V264.256V264.256V264.256V264.255V264.255C82.8952 262.93 82.8882 261.605 82.9265 260.28C83.0421 256.273 83.5626 255.652 87.6874 255.547C92.5542 255.421 97.426 255.442 102.295 255.462H102.296H102.296H102.296H102.297H102.297H102.298H102.298H102.298H102.299H102.299H102.3H102.3H102.3H102.301H102.301H102.301H102.302H102.302H102.302H102.303H102.303H102.303H102.304H102.304H102.304H102.304H102.305H102.305C106.964 255.481 111.62 255.501 116.268 255.393C128.488 255.109 140.709 254.825 152.929 254.883C157.148 254.902 161.366 255.007 165.584 255.112C171.947 255.27 178.308 255.428 184.666 255.292C186.768 255.247 188.874 255.147 190.98 255.048L190.981 255.048C195.427 254.838 199.875 254.627 204.293 254.931C215.665 255.714 227.029 255.609 238.395 255.505C241.207 255.479 244.02 255.453 246.833 255.441C251.483 255.422 252.35 256.302 252.664 260.771C252.736 261.786 252.842 262.799 252.949 263.813L252.949 263.813L252.949 263.813L252.949 263.814L252.949 263.814L252.949 263.814L252.949 263.814L252.949 263.815L252.949 263.815L252.949 263.815L252.949 263.815L252.949 263.816L252.949 263.816L252.949 263.816L252.949 263.816C253.092 265.172 253.234 266.527 253.295 267.886C253.459 271.566 252.664 272.418 248.996 272.495C246.518 272.545 244.034 272.532 241.551 272.52ZM194.276 230.364C193.703 230.365 193.129 230.366 192.564 230.42C191.351 230.42 190.139 230.425 188.926 230.429C185.841 230.44 182.756 230.45 179.673 230.392C179.315 230.385 178.922 230.42 178.522 230.456L178.522 230.457H178.522H178.522H178.521H178.521H178.521H178.521H178.521H178.521H178.521H178.521H178.521H178.521H178.521C177.186 230.577 175.765 230.705 175.25 229.314C174.701 227.826 175.902 227.154 177.044 226.515C177.416 226.307 177.781 226.102 178.078 225.874C180.081 224.333 182.112 222.826 184.143 221.319C187.951 218.493 191.757 215.667 195.378 212.621C199.123 209.472 203.222 209.776 207.315 210.08L207.315 210.08C208.599 210.175 209.883 210.27 211.155 210.259C212.875 210.244 212.465 211.938 211.665 212.962C207.55 218.225 203.425 223.474 199.228 228.674C197.87 230.355 196.086 230.359 194.276 230.364ZM97.8518 243.957C98.8582 243.957 99.8648 243.958 100.872 243.958L100.862 243.963L102.087 243.92C106.728 243.76 111.389 243.599 116.017 243.568C122.381 243.524 128.74 243.665 135.098 243.806C141.989 243.959 148.88 244.112 155.777 244.03C167.728 243.887 179.683 243.926 191.638 243.965C203.433 244.003 215.227 244.041 227.018 243.905C230.554 243.863 234.084 243.979 237.612 244.094H237.612H237.612H237.613H237.613H237.613H237.613H237.613H237.614H237.614H237.614H237.614H237.615H237.615H237.615H237.615H237.615H237.615H237.615H237.616H237.616H237.616H237.616H237.616H237.616H237.616H237.616H237.617H237.617C241.817 244.232 246.015 244.37 250.22 244.242C250.243 244.241 250.266 244.24 250.289 244.239L250.342 244.237L250.386 244.234L250.443 244.231C250.996 244.202 251.598 244.171 251.734 244.747C251.912 245.502 251.131 245.646 250.553 245.718C249.768 245.814 248.985 245.933 248.202 246.051H248.202H248.202H248.202H248.202H248.202H248.202H248.202H248.202H248.202H248.202H248.202H248.202H248.202H248.201C246.036 246.378 243.869 246.705 241.657 246.56C222.281 245.296 202.901 245.698 183.518 246.1H183.518C179.517 246.183 175.516 246.266 171.515 246.334C167.654 246.4 163.791 246.216 159.926 246.033H159.926H159.926H159.926H159.926H159.925H159.925H159.925H159.925H159.925H159.924H159.924H159.924H159.924H159.924C155.295 245.813 150.663 245.593 146.024 245.8C137.314 246.185 128.607 246.03 119.898 245.875C115.232 245.792 110.565 245.709 105.898 245.709C104.098 245.707 102.298 245.755 100.498 245.802H100.498H100.497H100.497H100.496H100.496H100.496H100.495H100.495H100.494H100.494H100.494H100.493H100.493H100.492C96.6373 245.903 92.7829 246.004 88.9307 245.627C88.7548 245.61 88.5514 245.62 88.3428 245.63C87.6311 245.665 86.8584 245.703 86.9068 244.665C86.9423 243.948 87.8911 243.956 88.6093 243.962C88.6719 243.962 88.7327 243.963 88.7909 243.963C91.8076 243.955 94.8216 243.956 97.8369 243.957H97.8373H97.8378H97.8382H97.8387H97.8392H97.8396H97.8401H97.8405H97.841H97.8415H97.8419H97.8424H97.8428H97.8518ZM257.905 240.068C257.289 240.72 256.662 241.384 255.617 241.682L255.613 241.687C255.537 241.628 255.441 241.569 255.34 241.508L255.34 241.508C255.108 241.367 254.849 241.21 254.755 240.985C254.437 240.21 254.818 239.455 255.348 238.955C256.909 237.48 258.162 235.754 259.413 234.03C260.526 232.497 261.637 230.966 262.961 229.617C276.733 215.584 290.944 202.013 306.591 190.054C318.676 180.817 331.475 172.639 344.992 165.621C345.17 165.528 345.363 165.402 345.563 165.272L345.563 165.272C346.315 164.78 347.162 164.228 347.695 165.163C348.209 166.064 347.306 166.531 346.503 166.946C346.297 167.052 346.098 167.155 345.931 167.261C342.891 169.194 339.829 171.095 336.767 172.996C327.553 178.716 318.338 184.436 309.723 191.04C304.671 194.912 299.841 199.08 295.016 203.244L295.014 203.245L295.013 203.246L295.011 203.248L295.01 203.249L295.008 203.25L295.007 203.251L295.005 203.253L295.004 203.254L295.002 203.255L295.001 203.256L295 203.258C293.966 204.149 292.933 205.041 291.898 205.929C283.156 213.428 275.269 221.781 267.381 230.136C264.339 233.358 261.297 236.58 258.205 239.753C258.104 239.857 258.005 239.962 257.905 240.068ZM235.001 186.273C240.441 183.213 245.902 180.141 252.601 180.293L252.596 180.298C253.365 180.578 254.345 180.518 255.292 180.46C256.829 180.365 258.277 180.276 258.581 181.664C258.901 183.127 257.362 183.707 255.788 184.3C255.011 184.593 254.226 184.889 253.651 185.296C251.84 186.581 250.023 187.952 248.544 189.587C246.317 192.041 243.744 192.94 240.544 192.402C239.364 192.202 238.165 192.148 236.966 192.095H236.966C235.19 192.015 233.414 191.936 231.697 191.382C229.654 190.723 229.191 189.414 231.177 188.375C232.46 187.703 233.73 186.989 235 186.274L235 186.274L235 186.274L235 186.274L235.001 186.274L235.001 186.274L235.001 186.274L235.001 186.274L235.001 186.274L235.001 186.274L235.001 186.274L235.001 186.274L235.001 186.274L235.001 186.274L235.001 186.273ZM254.483 258.676C254.487 258.385 254.49 258.098 254.49 257.817C253.897 255.07 254.678 252.694 256.326 250.654C261.178 244.66 266.098 238.719 271.033 232.787C271.554 232.16 272.218 231.642 272.876 231.13L272.876 231.13L272.876 231.13L272.876 231.13L272.876 231.13L272.876 231.129C273.045 230.998 273.214 230.866 273.38 230.733C273.417 230.703 273.456 230.672 273.495 230.639L273.496 230.638C273.903 230.305 274.39 229.907 274.864 230.459C275.085 230.714 275.09 231.349 274.936 231.7C274.469 232.778 273.977 233.875 273.307 234.832C267.342 243.342 261.858 252.146 256.919 261.286C256.9 261.321 256.881 261.356 256.862 261.391L256.818 261.473L256.818 261.474C256.493 262.087 256.137 262.757 255.386 262.657C254.551 262.546 254.53 261.773 254.513 261.103L254.513 261.102L254.513 261.102L254.513 261.101L254.51 261.028L254.509 260.963C254.507 260.927 254.506 260.892 254.504 260.858C254.467 260.122 254.475 259.386 254.483 258.676ZM291.686 169.979C290.636 170.802 289.349 171.278 287.937 171.186L287.932 171.191C287.162 171.034 286.39 170.882 285.618 170.73L285.618 170.73C283.916 170.396 282.213 170.062 280.526 169.661C279.297 169.373 278.454 168.238 279.837 167.55C285.277 164.846 290.857 162.349 297.18 162.893L297.293 162.902C298.231 162.976 299.464 163.073 299.705 164.302C299.944 165.516 298.968 165.898 298.108 166.235L298.108 166.235C298 166.277 297.893 166.319 297.792 166.361C295.58 167.285 293.575 168.502 291.686 169.979ZM361.023 273.757C365.682 273.771 369.737 273.783 372.685 273.625L372.676 273.64C384.62 273.394 395.257 273.546 405.236 273.689C415.42 273.834 424.917 273.97 434.419 273.664C437.067 273.578 439.719 273.601 442.373 273.624C443.752 273.636 445.13 273.648 446.509 273.644C448.798 273.635 450.215 272.793 450.027 270.186C449.878 268.091 449.887 265.991 449.896 263.891V263.891V263.891V263.891V263.891V263.891V263.891V263.891V263.89V263.89V263.89V263.89V263.89V263.89V263.89C449.91 260.483 449.924 257.075 449.265 253.68L449.189 253.287C448.199 248.174 448.19 248.13 442.562 248.167C439.824 248.185 437.085 248.211 434.347 248.238C430.363 248.276 426.379 248.314 422.396 248.326C422.364 248.326 422.331 248.326 422.297 248.327L422.254 248.328L422.179 248.33L422.083 248.333C421.314 248.36 420.324 248.394 420.43 247.253C420.486 246.652 421.267 246.614 421.949 246.581C422.092 246.574 422.231 246.567 422.357 246.555C429.335 245.925 436.327 245.776 443.324 246.171C446.668 246.358 447.338 245.55 446.046 242.779C442.693 235.577 438.264 228.934 433.344 222.848C420.695 207.209 403.824 198.203 384.38 193.527C374.008 191.031 363.495 190.126 352.936 189.217L352.936 189.217L352.935 189.217L352.935 189.217L352.934 189.217L352.934 189.217L352.933 189.217L352.933 189.217L352.932 189.217L352.932 189.217L352.931 189.217L352.931 189.217L352.93 189.217L352.93 189.217L352.929 189.217C351.747 189.115 350.565 189.013 349.382 188.909C342.775 188.327 337.706 190.136 333.007 194.22C330.097 196.755 330.275 198.155 333.643 199.719C346.032 205.467 350.066 215.171 344.64 227.327C341.257 234.909 335.903 240.759 327.678 243.549C327.029 243.768 326.199 243.724 325.397 243.682C323.941 243.605 322.573 243.533 322.526 245.04C322.5 245.992 324.994 245.904 327.123 245.828C327.695 245.808 328.241 245.789 328.704 245.791C334.499 245.818 340.294 245.815 346.088 245.811C351.641 245.808 357.193 245.806 362.744 245.829C362.919 245.83 363.125 245.807 363.34 245.782C364.188 245.687 365.195 245.573 365.149 246.835C365.125 247.485 364.144 247.512 363.31 247.535C363.126 247.54 362.95 247.545 362.792 247.556C362.593 247.572 362.394 247.563 362.195 247.553C362.095 247.548 361.995 247.543 361.896 247.542C356.922 247.444 351.946 247.468 346.97 247.491H346.969C337.918 247.533 328.865 247.575 319.823 246.892C317.876 246.743 316.488 247.368 316.455 249.471C316.355 256.081 316.328 262.691 316.301 269.3L316.296 270.469C316.291 272.471 317.351 273.519 319.351 273.5C322.779 273.47 326.213 273.624 329.643 273.777C333.98 273.97 338.311 274.163 342.616 273.986C349.04 273.722 355.462 273.741 361.023 273.757ZM425.753 271.616C423.32 271.62 420.887 271.624 418.454 271.624H418.444C413.841 271.618 409.231 271.485 404.625 271.353H404.625H404.624H404.624H404.624H404.624H404.623H404.623H404.623H404.623H404.622H404.622H404.622H404.621H404.621C398.331 271.172 392.047 270.992 385.792 271.133C372.254 271.439 358.718 271.501 345.181 271.562H345.18C338.717 271.592 332.253 271.621 325.789 271.677C325.314 271.681 324.868 271.687 324.451 271.693C321.472 271.733 319.908 271.754 319.034 270.988C318.067 270.141 317.943 268.331 317.683 264.52C317.658 264.146 317.631 263.753 317.602 263.34C317.557 262.698 317.662 262.049 317.767 261.399C317.854 260.86 317.942 260.321 317.944 259.785C317.963 256.701 319.756 255.821 322.517 255.494C326.232 255.054 329.928 255.268 333.624 255.482C336.118 255.627 338.612 255.771 341.112 255.715C350.297 255.513 359.486 255.425 368.675 255.337H368.675H368.675H368.675H368.676H368.676H368.676H368.677H368.677H368.677H368.677H368.678H368.678H368.678H368.678C373.522 255.291 378.366 255.244 383.209 255.181C395.555 255.019 407.907 255.292 420.259 255.565C425.919 255.69 431.579 255.815 437.238 255.898C438.736 255.919 440.236 255.87 441.735 255.821H441.736H441.736H441.736H441.736H441.736H441.736H441.737H441.737H441.737H441.737H441.737H441.738H441.738H441.738C442.326 255.802 442.914 255.783 443.502 255.768C446.393 255.696 448.013 256.98 448.119 259.968C448.128 260.225 448.137 260.482 448.146 260.738C448.222 262.864 448.298 264.991 448.47 267.112C448.745 270.416 447.189 271.677 443.994 271.648C437.917 271.596 431.839 271.606 425.759 271.616H425.759H425.759H425.758H425.758H425.758H425.757H425.757H425.757H425.756H425.756H425.756H425.755H425.755H425.753ZM393.098 243.9V243.746C392.414 243.746 391.73 243.75 391.047 243.753H391.047H391.046H391.046H391.045H391.045H391.045H391.044H391.044H391.043H391.043H391.043H391.042H391.042H391.041C389.502 243.762 387.964 243.77 386.428 243.736C384.014 243.683 382.935 242.717 384.583 240.451C384.762 240.205 384.942 239.96 385.122 239.714C386.958 237.211 388.786 234.717 389.835 231.729C390.269 230.488 391.238 230.074 392.64 230.089C399.786 230.17 403.482 233.754 403.718 240.941C403.786 243.101 402.523 243.837 400.668 243.886C398.908 243.929 397.151 243.919 395.393 243.909C394.628 243.904 393.863 243.9 393.098 243.9ZM394.352 220.192C393.643 220.088 392.95 219.987 392.428 220.26V220.255C391.897 220.262 391.366 220.322 390.847 220.379C389.238 220.558 387.746 220.724 386.737 219.284C386.17 218.474 385.547 217.698 384.925 216.922L384.925 216.922C383.511 215.159 382.098 213.397 381.335 211.235C380.921 210.066 381.957 209.379 382.983 208.984C385.315 208.089 387.59 208.022 389.787 209.422C391.666 210.624 393.517 211.909 394.881 213.65C395.104 213.936 395.354 214.225 395.608 214.519C396.75 215.839 397.981 217.262 397.319 219.029C396.754 220.542 395.53 220.363 394.352 220.192ZM378.993 203.659C377.673 204.443 376.198 204.525 374.434 204.525H374.43C372.537 204.836 370.787 204.015 369.007 203.18C368.531 202.957 368.052 202.732 367.568 202.528C366.7 202.162 365.997 201.561 366.098 200.556C366.194 199.584 366.999 199.088 367.837 198.728C370.435 197.602 377.172 198.906 379.234 200.859C380.39 201.956 380.347 202.85 378.993 203.659ZM394.476 248.133V248.109L394.471 248.114C393.35 248.114 392.229 248.118 391.108 248.122C388.051 248.132 384.994 248.143 381.937 248.076C381.803 248.073 381.658 248.074 381.507 248.075C380.447 248.084 379.083 248.095 379.176 246.685C379.253 245.559 380.548 245.766 381.486 245.915C381.61 245.935 381.728 245.954 381.836 245.969C390.467 247.147 399.097 246.729 407.737 246.224C407.812 246.219 407.889 246.213 407.968 246.207C408.645 246.153 409.422 246.091 409.491 247.017C409.568 247.989 408.629 248.114 407.906 248.119C404.548 248.141 401.191 248.138 397.833 248.135C396.714 248.134 395.595 248.133 394.476 248.133ZM371.907 245.723C372.748 245.712 373.646 245.702 373.909 246.81C373.635 247.898 372.801 248.061 371.885 248.052C370.979 248.042 369.905 247.864 369.876 246.849C369.843 245.733 370.945 245.728 371.791 245.724L371.847 245.723L371.907 245.723ZM290.171 252.34V252.341C290.176 254.125 290.18 255.91 290.144 257.692C290.134 258.072 289.845 258.698 289.566 258.775C288.751 258.996 288.583 258.236 288.564 257.687C288.511 256.381 288.506 255.072 288.5 253.764V253.764V253.761C288.497 253.139 288.494 252.517 288.486 251.895C288.48 251.4 288.474 250.905 288.469 250.409V250.409V250.409V250.409V250.409V250.409V250.409V250.408V250.408V250.408V250.408V250.408V250.408V250.408C288.451 248.824 288.433 247.239 288.371 245.656C288.313 244.145 288.144 242.519 286.506 241.908C284.92 241.316 284.179 242.427 283.485 243.468C283.35 243.67 283.217 243.87 283.08 244.054C278.598 250.072 276.444 256.937 275.794 264.341C275.587 266.707 275.336 269.069 275.047 271.427C274.975 271.999 274.671 272.663 273.914 272.418C273.606 272.317 273.254 271.754 273.249 271.398C273.23 269.767 273.211 268.122 273.399 266.505C274.459 257.423 276.194 248.566 282.482 241.365C282.617 241.21 282.752 241.051 282.887 240.891L282.888 240.89C284.008 239.564 285.188 238.167 287.243 238.738C289.477 239.357 289.741 241.5 289.963 243.3L289.98 243.443C290.183 245.08 290.137 246.75 290.092 248.418V248.418C290.072 249.133 290.053 249.847 290.053 250.558H290.168C290.168 251.151 290.17 251.745 290.171 252.338V252.339V252.339V252.34V252.34V252.34ZM308.678 229.757V229.757C308.565 232.256 308.455 234.673 308.123 236.934L308.118 236.929C308.118 237.691 308.102 238.335 308.089 238.899C308.062 239.983 308.043 240.772 308.157 241.538C308.217 241.936 308.186 242.432 308.154 242.931C308.08 244.113 308.005 245.313 309.14 245.276C310.188 245.241 310.052 243.983 309.92 242.76L309.92 242.76C309.867 242.274 309.815 241.794 309.839 241.398C309.947 239.591 310.019 237.78 310.09 235.968C310.334 229.764 310.578 223.56 312.335 217.528C314.826 208.989 320.083 202.191 326.314 196.048C326.466 195.898 326.652 195.745 326.843 195.587L326.843 195.587C327.547 195.006 328.32 194.367 327.74 193.633C326.815 192.46 325.812 193.46 325.062 194.208L325.062 194.209C324.973 194.298 324.887 194.383 324.806 194.461C318.575 200.407 313.708 207.324 310.807 215.44C309.114 220.169 308.89 225.104 308.678 229.757ZM365.014 169.921C366.257 169.811 367.37 170.143 368.343 170.917C368.427 170.984 368.517 171.051 368.609 171.119C369.14 171.515 369.732 171.956 369.539 172.625C369.208 173.766 368.323 173.422 367.613 173.145C367.515 173.107 367.421 173.07 367.332 173.039C364.411 172.019 361.621 172.87 359.13 174.054C354.051 176.469 348.967 178.898 344.476 182.434C341.996 184.387 339.345 186.118 336.694 187.85C335.492 188.636 334.29 189.421 333.104 190.227C333.051 190.262 332.998 190.299 332.945 190.336L332.945 190.337L332.944 190.337C332.371 190.735 331.729 191.18 331.195 190.415C330.656 189.64 331.383 189.015 331.952 188.601C332.996 187.841 334.036 187.074 335.077 186.308C338.34 183.904 341.606 181.5 344.982 179.264C349.565 176.233 354.408 173.616 359.424 171.34C361.202 170.532 363.081 170.104 365.018 169.916L365.014 169.921ZM370.098 178.523C370.175 179.086 370.406 179.629 371.172 179.567C372.073 178.985 371.895 178.128 371.693 177.301C371.562 176.757 371.283 175.954 370.657 176.247C369.819 176.639 369.954 177.549 370.07 178.334C370.08 178.398 370.089 178.461 370.098 178.523ZM169.38 260.55C170.638 260.925 170.898 261.868 170.681 262.96C170.513 263.821 170.175 264.783 169.101 264.745C167.785 264.697 167.491 263.638 167.544 262.551C167.602 261.43 168.118 260.608 169.38 260.55ZM94.4867 264.018C95.6866 263.879 96.236 263.051 96.3516 261.983C96.3323 261.06 95.9083 260.328 95.1035 260.377C93.7495 260.458 92.9785 261.368 93.0266 262.748C93.0556 263.585 93.6242 264.119 94.4867 264.018ZM128.271 263.956C129.317 263.946 129.948 264.326 129.886 265.221C129.808 266.419 128.888 267.006 127.842 267.256C126.956 267.468 126.382 266.977 126.493 266.044C126.628 264.918 127.293 264.182 128.266 263.951L128.271 263.956ZM207.998 265.832C209.068 265.779 209.343 264.889 209.531 263.802C209.496 263.71 209.465 263.611 209.432 263.509L209.432 263.509C209.235 262.895 209.007 262.181 207.998 262.243C206.919 262.311 206.553 263.162 206.543 264.076C206.533 264.99 206.871 265.885 207.998 265.832ZM237.634 261.555C237.672 262.359 237.349 263.013 236.569 263.196C235.542 263.431 234.94 262.84 234.8 261.853C234.685 261.055 235.051 260.386 235.832 260.208C236.863 259.968 237.417 260.593 237.634 261.56V261.555ZM187.683 261.018C187.619 261.08 187.555 261.142 187.494 261.19C187.528 261.262 187.557 261.344 187.585 261.426C187.649 261.611 187.713 261.793 187.836 261.853C188.005 261.93 188.434 261.81 188.521 261.651C188.747 261.228 188.583 260.829 188.087 260.757C187.967 260.74 187.824 260.879 187.683 261.018ZM425.788 263.985C425.721 264.769 425.316 265.375 424.598 265.611C423.745 265.89 423.22 265.375 423.099 264.572C422.979 263.768 423.413 263.138 424.179 262.96C424.955 262.782 425.547 263.176 425.788 263.98V263.985ZM400.282 262.858C400.221 262.948 400.164 263.033 400.109 263.095C400.215 263.749 400.533 264.139 400.986 264.042C401.323 263.965 401.786 263.566 401.844 263.249C401.964 262.575 401.502 262.147 400.827 262.325C400.602 262.386 400.43 262.64 400.282 262.858ZM378.689 266.674C378.039 266.674 377.697 266.366 377.822 265.914C377.914 265.582 378.294 265.197 378.622 265.101C379.089 264.961 379.46 265.346 379.34 265.817C379.278 266.063 379.074 266.273 378.891 266.459C378.817 266.536 378.745 266.609 378.689 266.679V266.674ZM334.467 261.786C334.357 262.248 334.482 262.642 334.935 262.883L334.94 262.888C335.479 262.984 335.841 262.681 335.846 262.214C335.85 261.839 335.658 261.267 335.383 261.132C334.944 260.915 334.578 261.315 334.467 261.786Z" fill="#596EA3"/>
</svg>
