<svg xmlns="http://www.w3.org/2000/svg" xmlns:xlink="http://www.w3.org/1999/xlink" viewBox="0 0 263.57 350.9"><defs><style>.cls-1{opacity:0.1;fill:url(#linear-gradient);}.cls-2{opacity:0.15;fill:url(#linear-gradient-2);}.cls-3{opacity:0.07;fill:url(#linear-gradient-3);}.cls-4,.cls-5,.cls-9{fill-rule:evenodd;}.cls-4{fill:url(#linear-gradient-4);}.cls-5{fill:url(#linear-gradient-5);}.cls-6{fill:#686aad;}.cls-7,.cls-9{fill:#f8ac1f;}.cls-8{fill:url(#linear-gradient-6);}.cls-10{fill:#5c181e;}.cls-11{fill:url(#linear-gradient-7);}.cls-12{fill:url(#linear-gradient-8);}.cls-13{fill:url(#linear-gradient-9);}.cls-14{fill:url(#linear-gradient-10);}</style><linearGradient id="linear-gradient" x1="176.56" y1="43.4" x2="79.36" y2="69.44" gradientUnits="userSpaceOnUse"><stop offset="0" stop-color="#fff"/><stop offset="0.52" stop-color="#8b4b44"/><stop offset="1" stop-color="#691018"/></linearGradient><linearGradient id="linear-gradient-2" x1="319.67" y1="-640.55" x2="393.02" y2="-640.55" gradientTransform="matrix(0.92, -0.4, 0.4, 0.92, 147.14, 766.46)" xlink:href="#linear-gradient"/><linearGradient id="linear-gradient-3" x1="208.32" y1="-273.97" x2="256.43" y2="-273.97" gradientTransform="matrix(0.98, -0.22, 0.22, 0.98, 40.29, 417.31)" xlink:href="#linear-gradient"/><linearGradient id="linear-gradient-4" x1="10.64" y1="252.91" x2="134.54" y2="236.53" gradientUnits="userSpaceOnUse"><stop offset="0.1" stop-color="#d3b8b1"/><stop offset="0.52" stop-color="#8b4b44"/><stop offset="1" stop-color="#691018"/></linearGradient><linearGradient id="linear-gradient-5" x1="193.78" y1="290.31" x2="225.83" y2="235.48" xlink:href="#linear-gradient-4"/><linearGradient id="linear-gradient-6" x1="4026.25" y1="78.82" x2="3941.07" y2="78.82" gradientTransform="matrix(-1, 0, 0, 1, 4154.41, 0)" xlink:href="#linear-gradient-4"/><linearGradient id="linear-gradient-7" x1="147.56" y1="283.77" x2="147.56" y2="311.87" xlink:href="#linear-gradient-4"/><linearGradient id="linear-gradient-8" x1="182.31" y1="283.77" x2="182.31" y2="311.87" xlink:href="#linear-gradient-4"/><linearGradient id="linear-gradient-9" x1="213.96" y1="283.77" x2="213.96" y2="311.87" xlink:href="#linear-gradient-4"/><linearGradient id="linear-gradient-10" x1="245.92" y1="283.77" x2="245.92" y2="311.87" xlink:href="#linear-gradient-4"/></defs><g id="Layer_2" data-name="Layer 2"><g id="Layer_1-2" data-name="Layer 1"><path class="cls-1" d="M91.68,36.38c1.83-2.65,2.17-3.09,4.06-5.72l-4.51-8.53a53.91,53.91,0,0,1,6.5-5.82l7.9,5.75c2.88-1.47,3.37-1.77,6.27-3.18l0-10a52.18,52.18,0,0,1,8.33-2l3.28,6.66.78,1.6c-1,3.55-1.69,6.28-1.41,9.33-.18,0-.35.05-.5.1a32.27,32.27,0,1,0,26,6.69c-.49-.41-1-.79-1.5-1.15l-1-.68c-.5-.35-1-.66-1.57-1-.17-.1-.34-.2-.51-.28A23.27,23.27,0,0,0,141.67,27a33.36,33.36,0,0,0-5.56-2c-1.56-.4-11.7-.49-13.26-.64-.86-2-.92-9.58,1.41-9.33,3.25.34,3.25.34,7.25.81h.16l1.08-2.08,1.38-2.65,2.22-4.25c1.43.25,2.81.55,4.21.91.94.25,1.91.53,2.85.82l1.21.4,0,1.43-.2,8.71c.24.15.47.26.69.37l2.31,1.27,2.47,1.32c.23.11.44.25.69.37l.61-.4,2.85-2,2.42-1.68,2.37-1.66a48.53,48.53,0,0,1,6.31,5.81l-4.82,8.76c1.8,2.62,2.14,3.13,3.92,5.81L173.88,36a48.55,48.55,0,0,1,2.89,8.25l-8,5.28c.35,3.21.4,3.75.78,7l8.67,3.28a47.31,47.31,0,0,1-1.35,8.83l-9,.87c-1.18,3-1.4,3.54-2.6,6.57l5.89,6.55A49.82,49.82,0,0,1,165.63,90l-8-3.25c-2.4,2.1-2.85,2.52-5.29,4.59l2,8.13a48,48,0,0,1-8.39,4.12l-5.32-6.26c-3.14.73-3.68.87-6.82,1.58l-1.92,7.87a49.07,49.07,0,0,1-9.45-.16l-1.74-7.84L113.91,97l-5.34,6a49,49,0,0,1-8.35-4.44l2.13-7.81c-2.4-2.14-2.83-2.53-5.22-4.7L89.47,89a48.07,48.07,0,0,1-5.35-7.67l5.71-6.14c-1.13-3-1.32-3.57-2.43-6.58l-8.55-1a47.92,47.92,0,0,1-1.19-9.09l8.28-2.89c.44-3.23.52-3.77,1-7l-7.54-5.15A53.41,53.41,0,0,1,82.47,35Z"/><path class="cls-2" d="M185.22,42.56c-.22-2.34-.25-2.75-.44-5.1l-6.52-2.61a38.38,38.38,0,0,1,.87-6.3l7.1-.53c.91-2.18,1.05-2.57,2-4.72l-4.73-5.56a37.58,37.58,0,0,1,3.67-5l5,2.15,1.18.53a17.67,17.67,0,0,0,3.62,5.85,2.82,2.82,0,0,0-.24.29A23.54,23.54,0,1,0,214.32,13a12.63,12.63,0,0,0-1.38.07l-.88.09c-.44,0-.89.12-1.34.19a3.15,3.15,0,0,0-.42.09,14.13,14.13,0,0,0-1.68.4,23.54,23.54,0,0,0-4,1.52c-1,.51-6.73,5.24-7.67,5.89-1.43-.72-5-4.89-3.62-5.85,2-1.35,2-1.35,4.42-3l.09-.07-.38-1.66L197,8.54l-.77-3.41c.91-.53,1.82-1,2.77-1.47.64-.31,1.31-.61,2-.89l.87-.35.65.81,4,4.93c.21,0,.39-.07.56-.11l1.89-.38,2-.44.56-.12.15-.51.64-2.45.56-2.07.54-2a35,35,0,0,1,6.24.26L221,7.44c2.24.61,2.67.73,4.92,1.38l4.8-5.23a36.11,36.11,0,0,1,5.5,3.22l-2,6.73c1.7,1.62,2,1.9,3.72,3.51l6.37-2.26a35.41,35.41,0,0,1,3.41,5.55l-4.62,4.74c.77,2.25.89,2.63,1.65,4.88l6.36.87a36.75,36.75,0,0,1,.46,6.67l-6,2c-.34,2.3-.39,2.74-.77,5l4.94,3.58a34.32,34.32,0,0,1-2.73,6.25l-5.9-1c-1.4,1.89-1.64,2.23-3,4.1l2.65,5.28a35.49,35.49,0,0,1-5.34,4.36l-4.66-3.54-4.6,2.23L226,71.65a36.34,36.34,0,0,1-6.73,1.47l-2.5-5.35-5.12-.15-2.89,5.23a36.2,36.2,0,0,1-6.59-1.75l.29-6.1c-2-1.13-2.42-1.37-4.46-2.52l-5.24,3.46a35,35,0,0,1-4.95-4.5l3.24-5.51c-1.27-2-1.48-2.34-2.76-4.34l-6.62.69a38.53,38.53,0,0,1-2.22-6.13Z"/><path class="cls-3" d="M187,99.07c.15-1.53.19-1.8.36-3.34l-3.87-2.5a24.86,24.86,0,0,1,1.36-4l4.63.56c.86-1.29,1-1.53,1.88-2.79L189,82.88a24.87,24.87,0,0,1,3-2.79l2.92,2,.7.49a11.54,11.54,0,0,0,1.59,4.22L197,87a15.42,15.42,0,1,0,12.42-3.28c-.3,0-.59-.1-.89-.12l-.58,0c-.29,0-.59,0-.89,0a1.31,1.31,0,0,0-.28,0,10.68,10.68,0,0,0-1.13,0,15.53,15.53,0,0,0-2.78.47c-.74.19-5,2.52-5.68,2.82-.83-.64-2.62-3.78-1.59-4.22C197,82,197,82,198.8,81.24l.08,0,0-1.12,0-1.42-.07-2.3c.66-.22,1.3-.42,2-.6l1.38-.32.6-.12.32.61L205,79.61h1.64l1.33,0h.38l.16-.31.72-1.49.62-1.27.6-1.24a22.76,22.76,0,0,1,4,1l0,4.78c1.36.68,1.63.81,3,1.51l3.75-2.76a24.82,24.82,0,0,1,3.13,2.77l-2.13,4.08c.9,1.26,1.05,1.48,2,2.73l4.39-.65a22.52,22.52,0,0,1,1.49,4l-3.57,2.47c.22,1.54.25,1.8.45,3.35l4,1.36a24,24,0,0,1-.55,4.35l-4.1.51c-.51,1.44-.6,1.72-1.14,3.15l2.73,2.93a23.16,23.16,0,0,1-2.54,3.68l-3.68-1.38c-1.14,1-1.33,1.23-2.48,2.25l1,3.74a23.76,23.76,0,0,1-4,2.13l-2.55-2.86-3.24.85-.83,3.75a23.63,23.63,0,0,1-4.52.1l-.94-3.76-3.27-.74-2.52,3a23.34,23.34,0,0,1-4-2l.95-3.89c-1.17-1-1.38-1.18-2.54-2.18l-3.81,1.56a21.9,21.9,0,0,1-2.62-3.52l2.78-3.13-1.23-3.15-4.35-.39a24.79,24.79,0,0,1-.65-4.22Z"/><path class="cls-4" d="M50,224.63s-21.4,29.85,26.52,28.26S253,195.5,253,195.5,123,270.12,66.68,270.21,36.36,229.28,50,224.63"/><polygon class="cls-5" points="251.39 206.2 222.76 270.3 188.19 270.3 251.39 206.2"/><path class="cls-6" d="M133.72,233h0a2.24,2.24,0,0,0,2.23-2.22c.88-52.41,32.68-51.4,41-53a2.2,2.2,0,0,0,1.78-2.36h0a2.23,2.23,0,0,0-2.67-2c-9.56,2-43.67,2.07-44.58,57.34A2.27,2.27,0,0,0,133.72,233Z"/><path class="cls-7" d="M167.35,168.06h0a2.27,2.27,0,0,0,3.32,0c4.21-4.51,14.77-17.58,15.14-35.57A47.16,47.16,0,0,0,184.4,120c-.37-1.48-.81-2.93-1.31-4.4a62.6,62.6,0,0,0-2.37-5.8c-.76-1.58-1.61-3.17-2.56-4.74a23.56,23.56,0,0,1-4.48,1.27c.89,1.47,1.72,3,2.46,4.46.21.44.44.85.64,1.29.69,1.5,1.34,3,1.87,4.47a44,44,0,0,1,2.67,15.76c-.33,16.4-10.22,28.64-14,32.69A2.21,2.21,0,0,0,167.35,168.06Z"/><path class="cls-7" d="M123,192h0a2.19,2.19,0,0,0,.19-2.95A21.38,21.38,0,0,1,120,166.74c3.42-8.2,11-13.49,19.35-13.49,18.13,0,26.32-20,28.61-26.92a2.22,2.22,0,0,0-1.59-2.85h0a2.25,2.25,0,0,0-2.7,1.44c-2,6.05-9.32,23.86-24.3,23.86-10.16,0-19.4,6.38-23.52,16.25a25.64,25.64,0,0,0,3.85,26.75A2.3,2.3,0,0,0,123,192Z"/><path class="cls-6" d="M61.07,243.71h.1a2.21,2.21,0,0,0,2.19-2.18c.9-51.86,33.85-62,42.51-63.79a2.2,2.2,0,0,0,1.77-2.39v-.06A2.18,2.18,0,0,0,105,173.4c-9.64,2.15-45.18,13.78-46.13,68.06A2.22,2.22,0,0,0,61.07,243.71Z"/><path class="cls-7" d="M73.47,243.83a2.26,2.26,0,0,0,1.61-.65c20.42-20.11,29.67-19.74,35.42-18.27,6.84,1.75,8.45,7.17,9,11.48a2.25,2.25,0,0,0,2.33,2h0A2.27,2.27,0,0,0,124,235.8c-.65-5.16-3.35-12.83-11.82-15.06C102.54,218.22,88.54,224.46,72,240a2.23,2.23,0,0,0,1.46,3.86Z"/><path class="cls-8" d="M165.2,112.7l.44,1.93.58,2.46.92,4c1.22.09,2.41.14,3.63.14.83,0,1.68,0,2.51-.07l1.08-.07.28-1.18,1.68-7.17.64-.17,2.17-.55,2.3-.55c.2-.05.41-.12.64-.16l.41.46,1.91,2.23,1.64,1.89,1.59,1.86a41.17,41.17,0,0,0,6.39-3.43l-2.09-8.19c2-1.77,2.41-2.12,4.44-3.93l7.66,3a41.66,41.66,0,0,0,4.12-6.14l-5.48-6c1-2.55,1.13-3,2.12-5.54l7.8-.85a40.73,40.73,0,0,0,.76-7.53l-7.22-2.62c-.33-2.74-.4-3.2-.74-5.94l6.21-4.12a41.67,41.67,0,0,0-2.9-7.2l-7.25,1c-1.51-2.24-1.79-2.67-3.35-4.88l3.35-6.24a39.88,39.88,0,0,0-6-5.15l-5.68,4c-2.42-1.26-2.83-1.49-5.25-2.74l.09-6.85a41.28,41.28,0,0,0-7.78-1.87l-3.08,6.06H167.8l-3.1-6.06a42,42,0,0,0-7.78,1.87l.09,6.85-5.27,2.74-5.66-4a41.42,41.42,0,0,0-6,5.15l3.38,6.24c-1.57,2.21-1.84,2.64-3.38,4.88l-7.23-1a40.89,40.89,0,0,0-2.9,7.2l6.17,4.12c-.32,2.74-.37,3.2-.69,5.94l-7.27,2.62a45.54,45.54,0,0,0,.78,7.53l7.82.85c1,2.55,1.13,3,2.12,5.54l-5.5,6a44.94,44.94,0,0,0,4.1,6.14l7.68-3c2.05,1.81,2.4,2.16,4.47,3.93l-2.14,8.19a43.08,43.08,0,0,0,6.39,3.43L158,113l.64-.76a22.69,22.69,0,0,1,1.15-8.33l-.39-.18a27.32,27.32,0,1,1,22.74,0,16,16,0,0,1-1.48.62l-1,.35c-.49.18-1,.32-1.5.48a4.15,4.15,0,0,1-.48.11,16.33,16.33,0,0,1-2,.44,27.42,27.42,0,0,1-5,.44,25.83,25.83,0,0,1-4.05-.3A10.37,10.37,0,0,0,165.2,112.7Z"/><path class="cls-6" d="M166.9,102.16a2.68,2.68,0,0,1,3.89.67l.9,1.38v0a4.18,4.18,0,0,0,.5,0,20.08,20.08,0,0,0,5-.73c-.74-1.29-1.56-2.6-2.42-3.87a7.4,7.4,0,0,0-6.14-3.29,7,7,0,0,0-2.28.37h0a14,14,0,0,0-4,3,12,12,0,0,0-1.15,1.43c-2.44,3.45-3.34,8.07-2.63,13.73A2.45,2.45,0,0,0,161,117l.28,0a2.48,2.48,0,0,0,2.14-2.74c-.09-.74-.16-1.43-.19-2.12a24.91,24.91,0,0,1,2.13-8.22A5.13,5.13,0,0,1,166.9,102.16Z"/><polygon class="cls-9" points="153.85 254.97 125.26 270.3 162.47 270.3 182.8 254.97 153.85 254.97"/><polygon class="cls-9" points="174.85 243.71 158.05 252.72 185.78 252.72 197.72 243.71 174.85 243.71"/><polygon class="cls-9" points="198.31 231.12 179.04 241.46 200.7 241.46 214.39 231.12 198.31 231.12"/><polygon class="cls-9" points="216.57 221.32 202.5 228.87 217.37 228.87 227.37 221.32 216.57 221.32"/><polygon class="cls-9" points="241.72 210.5 253.9 201.3 236.75 210.5 241.72 210.5"/><polygon class="cls-9" points="232.56 212.75 220.77 219.07 230.35 219.07 238.74 212.75 232.56 212.75"/><path class="cls-10" d="M210.6,187.19h-3.84v-29.8h-1.68v-.14l2.42-13.05h3.1Z"/><path class="cls-10" d="M234.5,176h-3.27v11.21h-3.6V176H215.49V174L225.9,144.2h3.6v.17l-9.89,28.37h8v-15.6h3.6v15.6h3.27Z"/><path class="cls-10" d="M243.52,157.22h-2.47a1.3,1.3,0,0,1-1.46-1.48V146h-1.53v-1.53h1.53v-4h1.71v4h2.22V146H241.3v9.65h2.22Z"/><path class="cls-10" d="M253,157.22H251.3V146.06l-3.82.11v11.05h-1.74V136.78h1.74v8.08l2.06-.26a17.52,17.52,0,0,1,2.05-.17,1.27,1.27,0,0,1,1.45,1.42Z"/><path class="cls-10" d="M11.06,282.54H22.55l-9.23,34.37H1.83Z"/><path class="cls-10" d="M20.59,302.57c0-9.38,7.22-20.77,22.05-20.77,7.42,0,12.67,3.93,14.09,10l-10.26,4.47a5.21,5.21,0,0,0-5.35-4.18c-5.16,0-8.5,4.72-8.5,9.43,0,3.78,2.36,5.9,5.4,5.9,2.65,0,4.82-1.28,6.68-3.59l8,6.29c-3.44,4.52-8.45,7.51-15.77,7.51C27.27,317.65,20.59,311.81,20.59,302.57Z"/><path class="cls-10" d="M62.09,282.54H73.63c6.34,0,10.22,1.23,12.77,3.78a9.5,9.5,0,0,1,2.7,6.92c0,8.6-6.48,14.34-17.38,14.34H66.86l-2.51,9.33H52.86Zm9,16.84c4.37,0,6.38-2,6.38-4.56a2.87,2.87,0,0,0-.83-2,5,5,0,0,0-3.44-1.08H71.08l-2,7.66Z"/><path class="cls-10" d="M100.45,292.26H90.34l2.6-9.72h31.72l-2.6,9.72H111.94l-6.62,24.65H93.82Z"/><path class="cls-11" d="M132.73,308.37l17.58-10.8c2.7-1.67,3-2.8,3-3.83,0-1.23-.73-2.12-2.4-2.12-2,0-4.82,1.72-7.42,4.28L137,289.07c3.83-4.13,8.54-7.12,15.32-7.12,7.81,0,12.38,4.22,12.38,10.16,0,4.23-2.11,8.06-9.92,12.38l-6.24,3.44h13l-2.41,9H130.42Z"/><path class="cls-12" d="M165.44,304.1c0-11.79,8.2-22.3,19.59-22.3,9.09,0,14.15,6.34,14.15,13.6,0,11.79-8.2,22.3-19.6,22.3C170.5,317.7,165.44,311.37,165.44,304.1Zm22.2-7.66c0-3.25-1.62-4.67-3.64-4.67-4.42,0-7,6.43-7,11.3,0,3.24,1.62,4.66,3.63,4.66C185,307.73,187.64,301.3,187.64,296.44Z"/><path class="cls-13" d="M199.13,308.37l17.58-10.8c2.71-1.67,3-2.8,3-3.83,0-1.23-.73-2.12-2.41-2.12-2,0-4.81,1.72-7.41,4.28l-6.48-6.83c3.83-4.13,8.54-7.12,15.32-7.12,7.81,0,12.37,4.22,12.37,10.16,0,4.23-2.11,8.06-9.91,12.38L215,307.93h13l-2.4,9H196.83Z"/><path class="cls-14" d="M228.26,311.61l6.68-6.73a11.77,11.77,0,0,0,8.3,3.49c3.24,0,5.11-1.72,5.11-4,0-1.67-1.28-3-3.93-3a8.55,8.55,0,0,0-5.06,1.76l-5.84-3.63,5.5-17h24.55l-2.45,9.08h-16l-1.18,3.64a14.41,14.41,0,0,1,5.25-.94c6.39,0,10.51,3.59,10.51,9.29,0,8.25-6.48,14-16.35,14A22.22,22.22,0,0,1,228.26,311.61Z"/><path class="cls-10" d="M2.15,327.25h.91l-2.15,8H0Z"/><path class="cls-10" d="M4.69,329.35h.88l-.25,1a4.08,4.08,0,0,1,.89-.77,2.14,2.14,0,0,1,1.17-.32,1.93,1.93,0,0,1,1.38.5,1.74,1.74,0,0,1,.52,1.34,2.5,2.5,0,0,1,0,.45c0,.16-.07.31-.11.47l-.88,3.3H7.37l.89-3.35a1.57,1.57,0,0,0,.07-.34,1.94,1.94,0,0,0,0-.33,1.16,1.16,0,0,0-.35-.91A1.42,1.42,0,0,0,7,330a1.89,1.89,0,0,0-.69.14,2.69,2.69,0,0,0-.62.39,2.8,2.8,0,0,0-.51.61,3.14,3.14,0,0,0-.33.77L4,335.28H3.11Z"/><path class="cls-10" d="M11.21,335.09a1,1,0,0,1-.4-.88,1.72,1.72,0,0,1,0-.32,2.27,2.27,0,0,1,.06-.3l.93-3.46H11l.21-.78H12l.49-1.79h.87l-.48,1.79h1.86l-.2.78H12.7l-.92,3.41a1.46,1.46,0,0,0,0,.22,1.62,1.62,0,0,0,0,.21.52.52,0,0,0,.21.46,1.07,1.07,0,0,0,.6.15,2.62,2.62,0,0,0,.86-.17l-.22.8a2.54,2.54,0,0,1-.45.13,2.49,2.49,0,0,1-.49,0A1.75,1.75,0,0,1,11.21,335.09Z"/><path class="cls-10" d="M16,332.74v.12a1.78,1.78,0,0,0,.48,1.3,1.76,1.76,0,0,0,1.3.49,2.35,2.35,0,0,0,1-.19,3.51,3.51,0,0,0,.83-.51l.45.58a4.52,4.52,0,0,1-1,.63,3.16,3.16,0,0,1-1.33.25,3,3,0,0,1-1.07-.18,2.14,2.14,0,0,1-.83-.52,2.31,2.31,0,0,1-.54-.79,2.82,2.82,0,0,1-.19-1,3.66,3.66,0,0,1,.26-1.33,3.86,3.86,0,0,1,.72-1.18,3.75,3.75,0,0,1,1.1-.83,2.92,2.92,0,0,1,1.37-.33,2.5,2.5,0,0,1,1,.19,2,2,0,0,1,.72.49,2.22,2.22,0,0,1,.44.72,2.57,2.57,0,0,1,.15.87,2.72,2.72,0,0,1-.06.58,4.94,4.94,0,0,1-.15.55H16A.49.49,0,0,0,16,332.74Zm3.94-.78a1.38,1.38,0,0,0,.06-.46,1.85,1.85,0,0,0-.09-.58,1.37,1.37,0,0,0-.27-.49,1.29,1.29,0,0,0-.46-.33,1.53,1.53,0,0,0-.66-.13,2,2,0,0,0-.82.16,2.37,2.37,0,0,0-.7.42,2.78,2.78,0,0,0-.53.64,3.12,3.12,0,0,0-.34.77Z"/><path class="cls-10" d="M23.06,329.35h.88l-.4,1.55a6,6,0,0,1,.58-.71,3.34,3.34,0,0,1,.66-.53,3.49,3.49,0,0,1,.74-.33,2.56,2.56,0,0,1,.84-.08l-.25.95h-.06a2.72,2.72,0,0,0-1,.18,3,3,0,0,0-.88.52,3.43,3.43,0,0,0-.72.86,4.51,4.51,0,0,0-.5,1.18l-.63,2.34h-.88Z"/><path class="cls-10" d="M27.67,329.35h.88l-.25,1a4.08,4.08,0,0,1,.89-.77,2.14,2.14,0,0,1,1.17-.32,1.93,1.93,0,0,1,1.38.5,1.74,1.74,0,0,1,.52,1.34,2.5,2.5,0,0,1,0,.45c0,.16-.07.31-.11.47l-.88,3.3h-.88l.89-3.35a1.57,1.57,0,0,0,.07-.34,1.94,1.94,0,0,0,0-.33,1.16,1.16,0,0,0-.35-.91,1.42,1.42,0,0,0-1-.32,1.89,1.89,0,0,0-.69.14,2.69,2.69,0,0,0-.62.39,2.8,2.8,0,0,0-.51.61,3.14,3.14,0,0,0-.33.77L27,335.28h-.88Z"/><path class="cls-10" d="M34.3,335.29a1.71,1.71,0,0,1-.6-.31,1.53,1.53,0,0,1-.57-1.22,2,2,0,0,1,.2-.89,1.9,1.9,0,0,1,.55-.68,2.76,2.76,0,0,1,.84-.42,3.51,3.51,0,0,1,1.05-.15,6,6,0,0,1,1.14.1c.35.06.68.14,1,.22l0-.14a1.07,1.07,0,0,0,.06-.27,1.37,1.37,0,0,0,0-.28,1.07,1.07,0,0,0-.39-.89,1.94,1.94,0,0,0-1.21-.31,4,4,0,0,0-.88.09,5.82,5.82,0,0,0-.79.22l-.15-.73a5.47,5.47,0,0,1,.9-.26,5,5,0,0,1,1.06-.1,2.63,2.63,0,0,1,1.72.49,1.62,1.62,0,0,1,.6,1.34,2.93,2.93,0,0,1,0,.41,3.38,3.38,0,0,1-.09.41l-.9,3.36H37l.26-.93a3.54,3.54,0,0,1-1,.77,2.66,2.66,0,0,1-1.26.28A2.07,2.07,0,0,1,34.3,335.29Zm1.73-.71a2.27,2.27,0,0,0,.69-.36,2.61,2.61,0,0,0,.55-.55,2.19,2.19,0,0,0,.35-.72l.11-.41a6.12,6.12,0,0,0-.88-.19,7,7,0,0,0-1.05-.08,2.31,2.31,0,0,0-.72.11,1.73,1.73,0,0,0-.56.28,1.51,1.51,0,0,0-.36.44,1.16,1.16,0,0,0-.13.56,1,1,0,0,0,.34.77,1.37,1.37,0,0,0,.92.28A2.1,2.1,0,0,0,36,334.58Z"/><path class="cls-10" d="M40.79,335.09a1,1,0,0,1-.4-.88c0-.11,0-.21,0-.32l.06-.3.93-3.46h-.82l.21-.78h.83l.48-1.79H43l-.48,1.79h1.86l-.2.78H42.28l-.92,3.41,0,.22a1.62,1.62,0,0,0,0,.21.51.51,0,0,0,.22.46,1,1,0,0,0,.59.15,2.62,2.62,0,0,0,.86-.17l-.22.8a2.54,2.54,0,0,1-.45.13,2.49,2.49,0,0,1-.49,0A1.77,1.77,0,0,1,40.79,335.09Z"/><path class="cls-10" d="M46,329.35h.89l-1.6,5.93h-.88Zm.55-2.27h1l-.26,1h-1Z"/><path class="cls-10" d="M49.29,335.21a2.36,2.36,0,0,1-1.4-1.39,2.87,2.87,0,0,1-.19-1.07,3.2,3.2,0,0,1,.28-1.32,3.68,3.68,0,0,1,.76-1.13,3.56,3.56,0,0,1,1.1-.78,3.1,3.1,0,0,1,1.35-.3,3,3,0,0,1,1.1.2,2.67,2.67,0,0,1,.86.56,2.51,2.51,0,0,1,.55.83,2.85,2.85,0,0,1,.19,1.06,3.24,3.24,0,0,1-.29,1.35,3.68,3.68,0,0,1-.76,1.13,3.64,3.64,0,0,1-1.12.78,3.17,3.17,0,0,1-1.33.28A2.8,2.8,0,0,1,49.29,335.21Zm2.11-.82a2.84,2.84,0,0,0,.82-.6,3,3,0,0,0,.56-.87,2.58,2.58,0,0,0,.2-1,1.74,1.74,0,0,0-1.85-1.9,2.09,2.09,0,0,0-1,.24,2.79,2.79,0,0,0-.8.61,3,3,0,0,0-.55.87,2.53,2.53,0,0,0-.2,1,1.73,1.73,0,0,0,1.85,1.88A2.1,2.1,0,0,0,51.4,334.39Z"/><path class="cls-10" d="M56.23,329.35h.88l-.25,1a4.32,4.32,0,0,1,.89-.77,2.14,2.14,0,0,1,1.17-.32,1.9,1.9,0,0,1,1.38.5,1.74,1.74,0,0,1,.52,1.34,2.5,2.5,0,0,1,0,.45c0,.16-.07.31-.11.47l-.88,3.3h-.88l.89-3.35a1.57,1.57,0,0,0,.07-.34,2,2,0,0,0,0-.33,1.17,1.17,0,0,0-.36-.91,1.42,1.42,0,0,0-1-.32,1.89,1.89,0,0,0-.69.14,2.69,2.69,0,0,0-.62.39,2.51,2.51,0,0,0-.5.61,2.82,2.82,0,0,0-.34.77l-.89,3.34h-.88Z"/><path class="cls-10" d="M62.86,335.29a1.8,1.8,0,0,1-.6-.31,1.49,1.49,0,0,1-.56-1.22,2,2,0,0,1,.19-.89,1.9,1.9,0,0,1,.55-.68,2.76,2.76,0,0,1,.84-.42,3.51,3.51,0,0,1,1-.15,6,6,0,0,1,1.14.1,9.41,9.41,0,0,1,1,.22l0-.14a1.86,1.86,0,0,0,0-.27,1.41,1.41,0,0,0,0-.28,1.08,1.08,0,0,0-.4-.89,1.93,1.93,0,0,0-1.21-.31,4,4,0,0,0-.88.09,5.82,5.82,0,0,0-.79.22l-.15-.73a5.47,5.47,0,0,1,.9-.26,5,5,0,0,1,1.06-.1,2.63,2.63,0,0,1,1.72.49,1.63,1.63,0,0,1,.61,1.34,3,3,0,0,1,0,.41,3.38,3.38,0,0,1-.09.41l-.89,3.36h-.86l.25-.93a3.54,3.54,0,0,1-1,.77,2.65,2.65,0,0,1-1.25.28A2.09,2.09,0,0,1,62.86,335.29Zm1.74-.71a2.34,2.34,0,0,0,.68-.36,2.61,2.61,0,0,0,.55-.55,2.19,2.19,0,0,0,.35-.72l.11-.41a6.12,6.12,0,0,0-.88-.19,7,7,0,0,0-1-.08,2.38,2.38,0,0,0-.73.11,1.84,1.84,0,0,0-.56.28,1.51,1.51,0,0,0-.36.44,1.16,1.16,0,0,0-.13.56,1,1,0,0,0,.34.77,1.37,1.37,0,0,0,.92.28A2.19,2.19,0,0,0,64.6,334.58Z"/><path class="cls-10" d="M70.6,326.91h.88l-2.24,8.37h-.89Z"/><path class="cls-10" d="M77.6,335.2a3.48,3.48,0,0,1-1.08-.66,3.14,3.14,0,0,1-.73-1.05,3.38,3.38,0,0,1-.27-1.39,4.63,4.63,0,0,1,.38-1.87,5.29,5.29,0,0,1,1-1.6,4.83,4.83,0,0,1,1.53-1.1,4.26,4.26,0,0,1,1.87-.41,3.24,3.24,0,0,1,3,1.72l-.78.48a3,3,0,0,0-.91-1,2.51,2.51,0,0,0-1.42-.37,3.25,3.25,0,0,0-1.47.35,4.24,4.24,0,0,0-1.2.91,4.69,4.69,0,0,0-.81,1.32,4.1,4.1,0,0,0-.3,1.54,2.69,2.69,0,0,0,.19,1.05,2.27,2.27,0,0,0,.52.79,2.47,2.47,0,0,0,.79.5,3,3,0,0,0,1,.17,3.1,3.1,0,0,0,1.39-.29,4.81,4.81,0,0,0,1.1-.8l.6.59a5.16,5.16,0,0,1-.6.53,5,5,0,0,1-.71.43,4,4,0,0,1-.83.28,4.51,4.51,0,0,1-1,.11A3.91,3.91,0,0,1,77.6,335.2Z"/><path class="cls-10" d="M85.12,335.21a2.54,2.54,0,0,1-.86-.55,2.47,2.47,0,0,1-.54-.84,2.87,2.87,0,0,1-.19-1.07,3.2,3.2,0,0,1,.28-1.32,3.68,3.68,0,0,1,.76-1.13,3.44,3.44,0,0,1,1.1-.78,3.09,3.09,0,0,1,1.34-.3,3,3,0,0,1,1.11.2A2.52,2.52,0,0,1,89,330a2.36,2.36,0,0,1,.55.83,2.86,2.86,0,0,1,.2,1.06,3.24,3.24,0,0,1-.29,1.35,3.71,3.71,0,0,1-.77,1.13,3.6,3.6,0,0,1-1.11.78,3.17,3.17,0,0,1-1.33.28A2.8,2.8,0,0,1,85.12,335.21Zm2.11-.82a2.84,2.84,0,0,0,.82-.6,3,3,0,0,0,.56-.87,2.76,2.76,0,0,0,.2-1A1.74,1.74,0,0,0,87,330a2.09,2.09,0,0,0-1,.24,2.79,2.79,0,0,0-.8.61,3,3,0,0,0-.55.87,2.54,2.54,0,0,0-.21,1,1.74,1.74,0,0,0,1.86,1.88A2.1,2.1,0,0,0,87.23,334.39Z"/><path class="cls-10" d="M92.06,329.35h.88l-.25,1a4.08,4.08,0,0,1,.89-.77,2.14,2.14,0,0,1,1.17-.32,1.93,1.93,0,0,1,1.38.5,1.74,1.74,0,0,1,.52,1.34,2.5,2.5,0,0,1,0,.45c0,.16-.07.31-.11.47l-.88,3.3h-.88l.89-3.35a1.57,1.57,0,0,0,.07-.34,1.94,1.94,0,0,0,0-.33,1.16,1.16,0,0,0-.35-.91,1.42,1.42,0,0,0-1-.32,1.89,1.89,0,0,0-.69.14,2.69,2.69,0,0,0-.62.39,2.8,2.8,0,0,0-.51.61,3.14,3.14,0,0,0-.33.77l-.89,3.34h-.88Z"/><path class="cls-10" d="M99.22,330.13h-.81l.2-.78h.82l.19-.71a2.48,2.48,0,0,1,.75-1.32,1.91,1.91,0,0,1,1.28-.43,2.48,2.48,0,0,1,1.18.25l-.21.76a2.27,2.27,0,0,0-.48-.19,1.88,1.88,0,0,0-.49-.06,1.06,1.06,0,0,0-.73.27,1.71,1.71,0,0,0-.46.86l-.15.57h1.94l-.22.78H100.1l-1.38,5.15h-.89Z"/><path class="cls-10" d="M103,332.74v.12a1.78,1.78,0,0,0,.48,1.3,1.76,1.76,0,0,0,1.3.49,2.35,2.35,0,0,0,1-.19,3.51,3.51,0,0,0,.83-.51l.46.58a4.84,4.84,0,0,1-1,.63,3.16,3.16,0,0,1-1.33.25,3,3,0,0,1-1.07-.18,2.21,2.21,0,0,1-.83-.52,2.31,2.31,0,0,1-.54-.79,2.82,2.82,0,0,1-.19-1,3.66,3.66,0,0,1,.26-1.33,3.86,3.86,0,0,1,.72-1.18,3.75,3.75,0,0,1,1.1-.83,2.92,2.92,0,0,1,1.37-.33,2.58,2.58,0,0,1,1,.19,2,2,0,0,1,.71.49,2.22,2.22,0,0,1,.44.72,2.57,2.57,0,0,1,.15.87,2.72,2.72,0,0,1-.06.58,4.94,4.94,0,0,1-.15.55h-4.64A.49.49,0,0,0,103,332.74ZM107,332a1.38,1.38,0,0,0,.06-.46,1.85,1.85,0,0,0-.09-.58,1.37,1.37,0,0,0-.27-.49,1.29,1.29,0,0,0-.46-.33,1.53,1.53,0,0,0-.66-.13,2,2,0,0,0-.82.16,2.2,2.2,0,0,0-.69.42,2.59,2.59,0,0,0-.54.64,3.12,3.12,0,0,0-.34.77Z"/><path class="cls-10" d="M110.13,329.35H111l-.4,1.55a7.12,7.12,0,0,1,.58-.71,3.34,3.34,0,0,1,.66-.53,3.57,3.57,0,0,1,.75-.33,2.47,2.47,0,0,1,.83-.08l-.25.95h-.06a2.62,2.62,0,0,0-1,.18,3,3,0,0,0-.89.52,3.43,3.43,0,0,0-.72.86,4.51,4.51,0,0,0-.5,1.18l-.63,2.34h-.88Z"/><path class="cls-10" d="M114.39,332.74v.12a1.79,1.79,0,0,0,.49,1.3,1.76,1.76,0,0,0,1.3.49,2.38,2.38,0,0,0,1-.19A3.27,3.27,0,0,0,118,334l.46.58a4.52,4.52,0,0,1-1,.63,3.51,3.51,0,0,1-2.41.07,2.31,2.31,0,0,1-1.36-1.31,2.82,2.82,0,0,1-.19-1,3.66,3.66,0,0,1,.26-1.33,3.86,3.86,0,0,1,.72-1.18,3.75,3.75,0,0,1,1.1-.83,2.92,2.92,0,0,1,1.37-.33,2.5,2.5,0,0,1,1,.19,2,2,0,0,1,.72.49,2.22,2.22,0,0,1,.44.72,2.83,2.83,0,0,1,.14.87,2.72,2.72,0,0,1,0,.58,4.94,4.94,0,0,1-.15.55h-4.64A.5.5,0,0,0,114.39,332.74Zm4-.78a1.42,1.42,0,0,0,0-.46,1.85,1.85,0,0,0-.08-.58,1.37,1.37,0,0,0-.27-.49,1.29,1.29,0,0,0-.46-.33,1.53,1.53,0,0,0-.66-.13,2,2,0,0,0-.82.16,2.37,2.37,0,0,0-.7.42,2.78,2.78,0,0,0-.53.64,3.12,3.12,0,0,0-.34.77Z"/><path class="cls-10" d="M121.49,329.35h.88l-.25,1a4.6,4.6,0,0,1,.89-.77,2.14,2.14,0,0,1,1.17-.32,1.9,1.9,0,0,1,1.38.5,1.75,1.75,0,0,1,.53,1.34,2.58,2.58,0,0,1,0,.45c0,.16-.07.31-.11.47l-.88,3.3h-.88l.9-3.35a1.59,1.59,0,0,0,.06-.34,2,2,0,0,0,0-.33,1.17,1.17,0,0,0-.36-.91,1.42,1.42,0,0,0-1-.32,1.8,1.8,0,0,0-.68.14,2.55,2.55,0,0,0-.63.39,2.51,2.51,0,0,0-.5.61,2.82,2.82,0,0,0-.34.77l-.89,3.34h-.88Z"/><path class="cls-10" d="M128.92,335.24a2.51,2.51,0,0,1-.83-.51,2.4,2.4,0,0,1-.58-.82,2.53,2.53,0,0,1-.22-1.09,3.36,3.36,0,0,1,.28-1.37,3.78,3.78,0,0,1,.76-1.15,3.44,3.44,0,0,1,1.1-.78,3.09,3.09,0,0,1,1.34-.3,2.75,2.75,0,0,1,.84.12,3,3,0,0,1,.67.3,2.39,2.39,0,0,1,.5.44,2.43,2.43,0,0,1,.35.53l-.71.45a3,3,0,0,0-.28-.41,2.82,2.82,0,0,0-.36-.33,1.71,1.71,0,0,0-.47-.23,1.78,1.78,0,0,0-.59-.09,2.2,2.2,0,0,0-1,.23,2.82,2.82,0,0,0-.8.62,3,3,0,0,0-.55.89,2.75,2.75,0,0,0-.21,1.06,1.94,1.94,0,0,0,.15.78,1.63,1.63,0,0,0,.95.93,1.93,1.93,0,0,0,.67.12,2.11,2.11,0,0,0,.95-.21,4,4,0,0,0,.8-.56l.52.57a4.16,4.16,0,0,1-1,.71,2.93,2.93,0,0,1-1.3.27A3,3,0,0,1,128.92,335.24Z"/><path class="cls-10" d="M134.61,332.74v.12a1.67,1.67,0,0,0,1.79,1.79,2.38,2.38,0,0,0,1-.19,3.27,3.27,0,0,0,.82-.51l.46.58a4.52,4.52,0,0,1-1,.63,3.21,3.21,0,0,1-1.34.25,3.12,3.12,0,0,1-1.07-.18,2.31,2.31,0,0,1-1.36-1.31,2.63,2.63,0,0,1-.19-1,3.66,3.66,0,0,1,.26-1.33,3.86,3.86,0,0,1,.72-1.18,3.71,3.71,0,0,1,1.09-.83,3,3,0,0,1,1.38-.33,2.53,2.53,0,0,1,1,.19,2,2,0,0,1,.72.49,2.19,2.19,0,0,1,.43.72,2.57,2.57,0,0,1,.15.87,3.58,3.58,0,0,1-.05.58,4.94,4.94,0,0,1-.15.55h-4.65S134.61,332.7,134.61,332.74Zm3.95-.78a1.78,1.78,0,0,0,.05-.46,2.2,2.2,0,0,0-.08-.58,1.37,1.37,0,0,0-.27-.49,1.25,1.25,0,0,0-.47-.33,1.47,1.47,0,0,0-.66-.13,2.07,2.07,0,0,0-.82.16,2.46,2.46,0,0,0-.69.42,2.78,2.78,0,0,0-.53.64,3.12,3.12,0,0,0-.34.77Z"/><path class="cls-10" d="M145.52,335.21a2.36,2.36,0,0,1-1.4-1.39,2.87,2.87,0,0,1-.19-1.07,3.2,3.2,0,0,1,.28-1.32,3.68,3.68,0,0,1,.76-1.13,3.56,3.56,0,0,1,1.1-.78,3.1,3.1,0,0,1,1.35-.3,3,3,0,0,1,1.1.2,2.49,2.49,0,0,1,1.41,1.39,2.85,2.85,0,0,1,.19,1.06,3.24,3.24,0,0,1-.29,1.35,3.68,3.68,0,0,1-.76,1.13,3.76,3.76,0,0,1-1.12.78,3.17,3.17,0,0,1-1.33.28A2.8,2.8,0,0,1,145.52,335.21Zm2.11-.82a2.84,2.84,0,0,0,.82-.6,3,3,0,0,0,.56-.87,2.58,2.58,0,0,0,.2-1,1.74,1.74,0,0,0-1.85-1.9,2.09,2.09,0,0,0-1,.24,2.79,2.79,0,0,0-.8.61,3,3,0,0,0-.55.87,2.54,2.54,0,0,0-.21,1,1.74,1.74,0,0,0,1.86,1.88A2.1,2.1,0,0,0,147.63,334.39Z"/><path class="cls-10" d="M152.46,329.35h.88l-.25,1a4.32,4.32,0,0,1,.89-.77,2.14,2.14,0,0,1,1.17-.32,1.93,1.93,0,0,1,1.38.5,1.74,1.74,0,0,1,.52,1.34,2.5,2.5,0,0,1,0,.45c0,.16-.07.31-.11.47l-.88,3.3h-.88l.89-3.35a1.57,1.57,0,0,0,.07-.34,2,2,0,0,0,0-.33,1.17,1.17,0,0,0-.36-.91,1.42,1.42,0,0,0-1-.32,1.89,1.89,0,0,0-.69.14,2.69,2.69,0,0,0-.62.39,2.8,2.8,0,0,0-.51.61,3.14,3.14,0,0,0-.33.77l-.89,3.34h-.88Z"/><path class="cls-10" d="M163.64,327.25h2.89a3.35,3.35,0,0,1,1.83.44,1.78,1.78,0,0,1,.8,1.25,2.31,2.31,0,0,1-.36,1.66,2.26,2.26,0,0,1-.91,1,4.14,4.14,0,0,1-1.51.51l1.65,3.21h-1l-1.58-3.12h-2.18l-.83,3.12h-.91Zm2,4.11a3.86,3.86,0,0,0,1.49-.26,1.87,1.87,0,0,0,.88-.7,1.66,1.66,0,0,0,.32-1.13,1.19,1.19,0,0,0-.5-.86,2.33,2.33,0,0,0-1.33-.32h-2.16l-.88,3.27Z"/><path class="cls-10" d="M171.51,335.21a2.6,2.6,0,0,1-.85-.55,2.5,2.5,0,0,1-.55-.84,3.08,3.08,0,0,1-.19-1.07,3.21,3.21,0,0,1,.29-1.32,3.66,3.66,0,0,1,.75-1.13,3.6,3.6,0,0,1,1.11-.78,3.16,3.16,0,0,1,2.45-.1,2.62,2.62,0,0,1,.85.56,2.36,2.36,0,0,1,.55.83,2.85,2.85,0,0,1,.19,1.06,3.23,3.23,0,0,1-.28,1.35,3.71,3.71,0,0,1-.77,1.13,3.6,3.6,0,0,1-1.11.78,3.21,3.21,0,0,1-1.33.28A2.82,2.82,0,0,1,171.51,335.21Zm2.12-.82a2.94,2.94,0,0,0,.81-.6,2.82,2.82,0,0,0,.56-.87,2.59,2.59,0,0,0,.21-1,1.76,1.76,0,0,0-1.86-1.9,2,2,0,0,0-1,.24,2.54,2.54,0,0,0-.8.61,2.8,2.8,0,0,0-.55.87,2.54,2.54,0,0,0-.21,1,1.84,1.84,0,0,0,.51,1.39,1.89,1.89,0,0,0,1.35.49A2.16,2.16,0,0,0,173.63,334.39Z"/><path class="cls-10" d="M178.06,335.29a1.71,1.71,0,0,1-.6-.31,1.53,1.53,0,0,1-.57-1.22,2,2,0,0,1,.2-.89,1.9,1.9,0,0,1,.55-.68,2.65,2.65,0,0,1,.84-.42,3.51,3.51,0,0,1,1.05-.15,5.8,5.8,0,0,1,1.13.1,9.63,9.63,0,0,1,1,.22l0-.14a1.81,1.81,0,0,0,.06-.27,1.37,1.37,0,0,0,0-.28,1.07,1.07,0,0,0-.39-.89,1.94,1.94,0,0,0-1.21-.31,4,4,0,0,0-.88.09,5.82,5.82,0,0,0-.79.22l-.15-.73a5.47,5.47,0,0,1,.9-.26,4.9,4.9,0,0,1,1.06-.1,2.63,2.63,0,0,1,1.72.49,1.62,1.62,0,0,1,.6,1.34,2.93,2.93,0,0,1,0,.41c0,.13-.06.27-.09.41l-.9,3.36h-.86l.26-.93a3.54,3.54,0,0,1-1,.77,2.66,2.66,0,0,1-1.26.28A2.07,2.07,0,0,1,178.06,335.29Zm1.73-.71a2.27,2.27,0,0,0,.69-.36,2.61,2.61,0,0,0,.55-.55,2.19,2.19,0,0,0,.35-.72l.11-.41a6.12,6.12,0,0,0-.88-.19,7,7,0,0,0-1.05-.08,2.31,2.31,0,0,0-.72.11,1.73,1.73,0,0,0-.56.28,1.51,1.51,0,0,0-.36.44,1.16,1.16,0,0,0-.13.56,1,1,0,0,0,.34.77,1.37,1.37,0,0,0,.92.28A2.1,2.1,0,0,0,179.79,334.58Z"/><path class="cls-10" d="M185.27,335.23a2.17,2.17,0,0,1-.75-.51,2.35,2.35,0,0,1-.49-.79,2.82,2.82,0,0,1-.18-1,3.72,3.72,0,0,1,.28-1.46,3.94,3.94,0,0,1,.73-1.16,3.43,3.43,0,0,1,1.06-.77,2.9,2.9,0,0,1,1.25-.29,2.57,2.57,0,0,1,.82.12,2.22,2.22,0,0,1,.63.33,1.87,1.87,0,0,1,.46.47,3.41,3.41,0,0,1,.32.55l1-3.78h.88l-2.24,8.37h-.88l.27-1a4.4,4.4,0,0,1-1,.81,2.43,2.43,0,0,1-1.27.33A2.34,2.34,0,0,1,185.27,335.23Zm2.15-.83a2.86,2.86,0,0,0,.84-.62,3,3,0,0,0,.6-.89,2.51,2.51,0,0,0,.23-1.05,2.09,2.09,0,0,0-.13-.72,1.67,1.67,0,0,0-.38-.58,1.61,1.61,0,0,0-.57-.39,1.87,1.87,0,0,0-.76-.15,2.21,2.21,0,0,0-1,.23,2.61,2.61,0,0,0-.78.62,2.66,2.66,0,0,0-.52.9,3,3,0,0,0-.19,1.07,2.19,2.19,0,0,0,.12.75,1.63,1.63,0,0,0,.34.57,1.58,1.58,0,0,0,.54.37,1.81,1.81,0,0,0,.67.12A2.13,2.13,0,0,0,187.42,334.4Z"/><path class="cls-10" d="M195.65,335.29a1.8,1.8,0,0,1-.6-.31,1.49,1.49,0,0,1-.56-1.22,2,2,0,0,1,.19-.89,1.9,1.9,0,0,1,.55-.68,2.76,2.76,0,0,1,.84-.42,3.51,3.51,0,0,1,1.05-.15,6,6,0,0,1,1.14.1,9.41,9.41,0,0,1,1,.22l0-.14a1.86,1.86,0,0,0,0-.27,1.41,1.41,0,0,0,0-.28,1.08,1.08,0,0,0-.4-.89,1.93,1.93,0,0,0-1.21-.31,4,4,0,0,0-.88.09,6.26,6.26,0,0,0-.79.22l-.15-.73a5.47,5.47,0,0,1,.9-.26,5,5,0,0,1,1.06-.1,2.63,2.63,0,0,1,1.72.49,1.63,1.63,0,0,1,.61,1.34,3,3,0,0,1,0,.41,3.38,3.38,0,0,1-.09.41l-.89,3.36h-.86l.25-.93a3.54,3.54,0,0,1-1,.77,2.65,2.65,0,0,1-1.25.28A2.13,2.13,0,0,1,195.65,335.29Zm1.74-.71a2.34,2.34,0,0,0,.68-.36,2.61,2.61,0,0,0,.55-.55A2.19,2.19,0,0,0,199,333l.11-.41a6.12,6.12,0,0,0-.88-.19,7,7,0,0,0-1-.08,2.38,2.38,0,0,0-.73.11,1.84,1.84,0,0,0-.56.28,1.51,1.51,0,0,0-.36.44,1.16,1.16,0,0,0-.13.56,1,1,0,0,0,.34.77,1.37,1.37,0,0,0,.92.28A2.19,2.19,0,0,0,197.39,334.58Z"/><path class="cls-10" d="M202.65,329.35h.88l-.25,1a4.08,4.08,0,0,1,.89-.77,2.14,2.14,0,0,1,1.17-.32,1.93,1.93,0,0,1,1.38.5,1.74,1.74,0,0,1,.52,1.34,2.5,2.5,0,0,1,0,.45c0,.16-.07.31-.11.47l-.88,3.3h-.88l.89-3.35a1.57,1.57,0,0,0,.07-.34,1.94,1.94,0,0,0,0-.33,1.16,1.16,0,0,0-.35-.91,1.42,1.42,0,0,0-1-.32,1.89,1.89,0,0,0-.69.14,2.69,2.69,0,0,0-.62.39,2.8,2.8,0,0,0-.51.61,3.14,3.14,0,0,0-.33.77l-.89,3.34h-.88Z"/><path class="cls-10" d="M209.88,335.23a2.23,2.23,0,0,1-.74-.51,2.35,2.35,0,0,1-.49-.79,2.82,2.82,0,0,1-.18-1,3.91,3.91,0,0,1,.27-1.46,4,4,0,0,1,.74-1.16,3.43,3.43,0,0,1,1.06-.77,2.9,2.9,0,0,1,1.25-.29,2.57,2.57,0,0,1,.82.12,2.36,2.36,0,0,1,.63.33,1.87,1.87,0,0,1,.46.47,3.41,3.41,0,0,1,.32.55l1-3.78h.89l-2.24,8.37h-.88l.26-1a4,4,0,0,1-1,.81,2.37,2.37,0,0,1-1.26.33A2.42,2.42,0,0,1,209.88,335.23Zm2.16-.83a2.86,2.86,0,0,0,.84-.62,3.24,3.24,0,0,0,.6-.89,2.51,2.51,0,0,0,.23-1.05,2.09,2.09,0,0,0-.13-.72,1.67,1.67,0,0,0-.38-.58,1.56,1.56,0,0,0-.58-.39,1.79,1.79,0,0,0-.75-.15,2.17,2.17,0,0,0-1,.23,2.61,2.61,0,0,0-.78.62,2.66,2.66,0,0,0-.52.9,3,3,0,0,0-.19,1.07,2.19,2.19,0,0,0,.12.75,1.56,1.56,0,0,0,.87.94,1.91,1.91,0,0,0,.68.12A2.13,2.13,0,0,0,212,334.4Z"/><path class="cls-10" d="M224.25,327.2h.87l1.49,8.08h-.93l-.36-2.12h-4.38l-1.51,2.12h-1Zm.92,5.15-.72-4.11-2.94,4.11Z"/><path class="cls-10" d="M229.48,329.35h.88l-1.59,5.93h-.89Zm.55-2.27h1l-.27,1h-1Z"/><path class="cls-10" d="M232.41,329.35h.88l-.4,1.55a7.12,7.12,0,0,1,.58-.71,3.34,3.34,0,0,1,.66-.53,3.57,3.57,0,0,1,.75-.33,2.5,2.5,0,0,1,.83-.08l-.25.95h-.06a2.62,2.62,0,0,0-1,.18,3,3,0,0,0-.89.52,3.43,3.43,0,0,0-.72.86,4.87,4.87,0,0,0-.5,1.18l-.63,2.34h-.88Z"/><path class="cls-10" d="M237.16,330.13h-.82l.21-.78h.81l.2-.71a2.48,2.48,0,0,1,.75-1.32,1.89,1.89,0,0,1,1.28-.43,2.51,2.51,0,0,1,1.18.25l-.21.76a2.57,2.57,0,0,0-.49-.19,1.86,1.86,0,0,0-.48-.06,1,1,0,0,0-.73.27,1.8,1.8,0,0,0-.47.86l-.14.57h1.93l-.22.78H238l-1.39,5.15h-.88Z"/><path class="cls-10" d="M241.41,329.35h.88l-1.59,5.93h-.88Zm.55-2.27h1l-.27,1h-1Z"/><path class="cls-10" d="M244,332.74v.12a1.67,1.67,0,0,0,1.79,1.79,2.33,2.33,0,0,0,1-.19,3.32,3.32,0,0,0,.83-.51l.46.58a4.52,4.52,0,0,1-1,.63,3.21,3.21,0,0,1-1.34.25,3,3,0,0,1-1.07-.18,2.29,2.29,0,0,1-.83-.52,2.16,2.16,0,0,1-.53-.79,2.63,2.63,0,0,1-.19-1,3.46,3.46,0,0,1,.26-1.33,3.86,3.86,0,0,1,.72-1.18,3.71,3.71,0,0,1,1.09-.83,2.93,2.93,0,0,1,1.38-.33,2.57,2.57,0,0,1,1,.19,2,2,0,0,1,.71.49,2.06,2.06,0,0,1,.44.72,2.57,2.57,0,0,1,.15.87,2.72,2.72,0,0,1-.06.58,4.94,4.94,0,0,1-.15.55H244A.49.49,0,0,0,244,332.74Zm3.94-.78a1.38,1.38,0,0,0,.06-.46,1.85,1.85,0,0,0-.09-.58,1.13,1.13,0,0,0-.27-.49,1.21,1.21,0,0,0-.46-.33,1.53,1.53,0,0,0-.66-.13,2.07,2.07,0,0,0-.82.16,2.32,2.32,0,0,0-.69.42,2.35,2.35,0,0,0-.53.64,2.78,2.78,0,0,0-.34.77Z"/><path class="cls-10" d="M251.84,326.91h.88l-2.24,8.37h-.89Z"/><path class="cls-10" d="M254.33,335.23a2.23,2.23,0,0,1-.74-.51,2.37,2.37,0,0,1-.5-.79,3,3,0,0,1-.17-1,3.91,3.91,0,0,1,.27-1.46,4,4,0,0,1,.74-1.16,3.32,3.32,0,0,1,1.06-.77,2.86,2.86,0,0,1,1.25-.29,2.47,2.47,0,0,1,.81.12,2.1,2.1,0,0,1,.63.33,1.91,1.91,0,0,1,.47.47,3.35,3.35,0,0,1,.31.55l1-3.78h.88l-2.23,8.37h-.88l.26-1a4,4,0,0,1-1,.81,2.37,2.37,0,0,1-1.26.33A2.42,2.42,0,0,1,254.33,335.23Zm2.16-.83a3.15,3.15,0,0,0,.84-.62,3.21,3.21,0,0,0,.59-.89,2.37,2.37,0,0,0,.23-1.05,1.88,1.88,0,0,0-.13-.72,1.65,1.65,0,0,0-.37-.58,1.56,1.56,0,0,0-.58-.39,1.79,1.79,0,0,0-.75-.15,2.17,2.17,0,0,0-1,.23,2.61,2.61,0,0,0-.78.62,2.68,2.68,0,0,0-.53.9,3.21,3.21,0,0,0-.19,1.07,2.19,2.19,0,0,0,.12.75,1.82,1.82,0,0,0,.35.57,1.64,1.64,0,0,0,.53.37,1.87,1.87,0,0,0,.68.12A2.13,2.13,0,0,0,256.49,334.4Z"/><path class="cls-10" d="M53,341h2.51a4.88,4.88,0,0,1,1.33.17,2.32,2.32,0,0,1,1,.57,2,2,0,0,1,.57,1.49,2.68,2.68,0,0,1-.28,1.25,2.85,2.85,0,0,1-.81.92A3.88,3.88,0,0,1,56,346a6.23,6.23,0,0,1-1.61.2h-1.9L51.75,349h-.91Zm1.48,4.36a3.91,3.91,0,0,0,2.2-.53,1.78,1.78,0,0,0,.76-1.54,1.29,1.29,0,0,0-.36-.95,2.18,2.18,0,0,0-1.6-.51h-1.8l-.94,3.53Z"/><path class="cls-10" d="M59.54,349.05a1.91,1.91,0,0,1-.6-.32,1.57,1.57,0,0,1-.41-.51,1.42,1.42,0,0,1-.16-.7,2,2,0,0,1,.2-.9,1.87,1.87,0,0,1,.55-.67,2.42,2.42,0,0,1,.83-.43,3.57,3.57,0,0,1,1.06-.15,6.88,6.88,0,0,1,1.13.1,9.51,9.51,0,0,1,1,.23l0-.14.06-.28c0-.1,0-.19,0-.27a1.09,1.09,0,0,0-.39-.9,2,2,0,0,0-1.21-.31,4,4,0,0,0-.88.09c-.26.06-.53.13-.8.22l-.15-.73a6.8,6.8,0,0,1,.91-.26,5.51,5.51,0,0,1,1-.1,2.72,2.72,0,0,1,1.73.49,1.66,1.66,0,0,1,.6,1.35,2.8,2.8,0,0,1,0,.4c0,.14-.06.27-.1.41L63.07,349h-.86l.25-.93a3.19,3.19,0,0,1-1,.77,2.69,2.69,0,0,1-1.26.29A2.35,2.35,0,0,1,59.54,349.05Zm1.73-.71A2.76,2.76,0,0,0,62,348a2.7,2.7,0,0,0,.56-.56,2.16,2.16,0,0,0,.34-.72l.12-.41a6.27,6.27,0,0,0-.89-.19,6.8,6.8,0,0,0-1-.07,2.39,2.39,0,0,0-.73.1,1.6,1.6,0,0,0-.55.29,1.36,1.36,0,0,0-.36.43,1.18,1.18,0,0,0-.13.56,1,1,0,0,0,.33.77,1.42,1.42,0,0,0,.93.29A2.35,2.35,0,0,0,61.27,348.34Z"/><path class="cls-10" d="M65.76,343.1h.93l.67,4.92,3.28-4.92h1l-4.13,6h-.78Z"/><path class="cls-10" d="M72.68,346.5v.11a1.77,1.77,0,0,0,.48,1.3,1.72,1.72,0,0,0,1.3.49,2.52,2.52,0,0,0,1-.18,3.93,3.93,0,0,0,.83-.52l.45.59a4.49,4.49,0,0,1-1,.62,3.15,3.15,0,0,1-1.33.26,2.83,2.83,0,0,1-1.07-.19,2.24,2.24,0,0,1-.83-.51,2.36,2.36,0,0,1-.54-.8,2.8,2.8,0,0,1-.19-1,3.82,3.82,0,0,1,1-2.51,3.62,3.62,0,0,1,1.1-.84,3,3,0,0,1,1.37-.32,2.5,2.5,0,0,1,1,.18,2,2,0,0,1,.72.5,2,2,0,0,1,.44.72,2.49,2.49,0,0,1,.15.87,2.78,2.78,0,0,1-.06.58,4.77,4.77,0,0,1-.15.54H72.69A.53.53,0,0,0,72.68,346.5Zm3.94-.78a1.47,1.47,0,0,0,.06-.46,1.87,1.87,0,0,0-.09-.59,1.37,1.37,0,0,0-.27-.49,1.43,1.43,0,0,0-.46-.33,1.69,1.69,0,0,0-.66-.13,2.22,2.22,0,0,0-.82.16,2.4,2.4,0,0,0-.7.43,3,3,0,0,0-.53.63,3,3,0,0,0-.34.78Z"/><path class="cls-10" d="M79.77,343.1h.88l-.25,1a4.47,4.47,0,0,1,.86-.78,1.93,1.93,0,0,1,1.11-.31,2,2,0,0,1,.67.11,1.84,1.84,0,0,1,.49.3,1.58,1.58,0,0,1,.34.43,2,2,0,0,1,.19.5,3.09,3.09,0,0,1,1-1,2.64,2.64,0,0,1,1.39-.36,1.9,1.9,0,0,1,.73.13,1.7,1.7,0,0,1,.57.37,1.75,1.75,0,0,1,.37.58,2,2,0,0,1,.13.75,2.48,2.48,0,0,1,0,.45c0,.16-.07.32-.11.47l-.87,3.3h-.88l.9-3.35a1.61,1.61,0,0,0,.06-.33,1.94,1.94,0,0,0,0-.33,1.24,1.24,0,0,0-.32-.91,1.19,1.19,0,0,0-.9-.33,1.7,1.7,0,0,0-.66.14,2.28,2.28,0,0,0-.59.4,2.92,2.92,0,0,0-.49.61,2.85,2.85,0,0,0-.32.76L83.15,349h-.88l.89-3.35a1.6,1.6,0,0,0,.07-.33,1.94,1.94,0,0,0,0-.33,1.2,1.2,0,0,0-.32-.91,1.22,1.22,0,0,0-.91-.33,1.62,1.62,0,0,0-.65.14,2.28,2.28,0,0,0-.59.4,3.28,3.28,0,0,0-.49.61,3.24,3.24,0,0,0-.33.76L79.07,349h-.88Z"/><path class="cls-10" d="M90.31,346.5v.11a1.77,1.77,0,0,0,.49,1.3,1.72,1.72,0,0,0,1.3.49,2.55,2.55,0,0,0,1-.18,3.64,3.64,0,0,0,.82-.52l.46.59a4.49,4.49,0,0,1-1,.62,3.15,3.15,0,0,1-1.33.26A2.92,2.92,0,0,1,91,349a2.41,2.41,0,0,1-.83-.51,2.33,2.33,0,0,1-.53-.8,2.8,2.8,0,0,1-.19-1,3.82,3.82,0,0,1,1-2.51,3.62,3.62,0,0,1,1.1-.84,3,3,0,0,1,1.37-.32,2.5,2.5,0,0,1,1,.18,2,2,0,0,1,.72.5,2,2,0,0,1,.44.72,2.74,2.74,0,0,1,.14.87,2.78,2.78,0,0,1,0,.58,4.77,4.77,0,0,1-.15.54H90.33A.51.51,0,0,0,90.31,346.5Zm4-.78a1.5,1.5,0,0,0,0-.46,1.87,1.87,0,0,0-.08-.59,1.37,1.37,0,0,0-.27-.49,1.43,1.43,0,0,0-.46-.33,1.69,1.69,0,0,0-.66-.13,2.22,2.22,0,0,0-.82.16,2.4,2.4,0,0,0-.7.43,3,3,0,0,0-.53.63,3,3,0,0,0-.34.78Z"/><path class="cls-10" d="M97.41,343.1h.88l-.25,1a4.09,4.09,0,0,1,.89-.78,2.13,2.13,0,0,1,1.17-.31,1.89,1.89,0,0,1,1.38.49,1.76,1.76,0,0,1,.53,1.34,2.48,2.48,0,0,1-.05.45c0,.16-.07.32-.11.47L101,349h-.88l.9-3.35a1.61,1.61,0,0,0,.06-.33,2,2,0,0,0,0-.33,1.15,1.15,0,0,0-.36-.91,1.37,1.37,0,0,0-1-.33,1.8,1.8,0,0,0-.68.14,2.32,2.32,0,0,0-.63.4,2.66,2.66,0,0,0-.5.6,2.82,2.82,0,0,0-.34.77L96.71,349h-.88Z"/><path class="cls-10" d="M103.93,348.84a1,1,0,0,1-.4-.88c0-.1,0-.21,0-.32l.06-.29.93-3.47h-.82l.21-.78h.83l.48-1.78h.87l-.48,1.78h1.87l-.21.78h-1.87l-.92,3.41,0,.22a1.7,1.7,0,0,0,0,.22.5.5,0,0,0,.22.45,1,1,0,0,0,.59.15,2.62,2.62,0,0,0,.86-.17l-.22.8a1.91,1.91,0,0,1-.45.13,2.49,2.49,0,0,1-.49,0A1.71,1.71,0,0,1,103.93,348.84Z"/><path class="cls-10" d="M114.86,341.84h-2.7l.23-.83h6.31l-.22.83h-2.71L113.84,349h-.9Z"/><path class="cls-10" d="M119.19,346.5v.11a1.77,1.77,0,0,0,.48,1.3,1.72,1.72,0,0,0,1.3.49,2.52,2.52,0,0,0,1-.18,3.93,3.93,0,0,0,.83-.52l.45.59a4.49,4.49,0,0,1-1,.62,3.15,3.15,0,0,1-1.33.26,2.83,2.83,0,0,1-1.07-.19,2.24,2.24,0,0,1-.83-.51,2.36,2.36,0,0,1-.54-.8,2.8,2.8,0,0,1-.19-1,3.82,3.82,0,0,1,1-2.51,3.62,3.62,0,0,1,1.1-.84,3,3,0,0,1,1.37-.32,2.5,2.5,0,0,1,1,.18,2,2,0,0,1,.72.5,2,2,0,0,1,.44.72,2.49,2.49,0,0,1,.15.87,2.78,2.78,0,0,1-.06.58,4.77,4.77,0,0,1-.15.54H119.2A.53.53,0,0,0,119.19,346.5Zm3.94-.78a1.47,1.47,0,0,0,.06-.46,1.87,1.87,0,0,0-.09-.59,1.37,1.37,0,0,0-.27-.49,1.43,1.43,0,0,0-.46-.33,1.69,1.69,0,0,0-.66-.13,2.22,2.22,0,0,0-.82.16,2.4,2.4,0,0,0-.7.43,3,3,0,0,0-.53.63,3,3,0,0,0-.34.78Z"/><path class="cls-10" d="M126.69,349a2.47,2.47,0,0,1-1.42-1.32,2.72,2.72,0,0,1-.22-1.09,3.62,3.62,0,0,1,.28-1.38,3.73,3.73,0,0,1,.76-1.14,3.81,3.81,0,0,1,1.11-.79,3.25,3.25,0,0,1,2.18-.18,2.75,2.75,0,0,1,.67.31,2.11,2.11,0,0,1,.5.44,2.56,2.56,0,0,1,.35.53l-.71.44a2.92,2.92,0,0,0-.29-.4,1.94,1.94,0,0,0-.36-.34,2,2,0,0,0-.46-.23,2.23,2.23,0,0,0-.6-.08,2,2,0,0,0-1,.23,2.51,2.51,0,0,0-.8.61,2.89,2.89,0,0,0-.55.89,2.82,2.82,0,0,0-.21,1.06,2.13,2.13,0,0,0,.14.78,1.74,1.74,0,0,0,.39.58,1.72,1.72,0,0,0,.57.36,1.88,1.88,0,0,0,.66.12,2.08,2.08,0,0,0,.95-.21,3.52,3.52,0,0,0,.81-.57l.51.57a3.93,3.93,0,0,1-1,.71,2.8,2.8,0,0,1-1.3.28A2.72,2.72,0,0,1,126.69,349Z"/><path class="cls-10" d="M133.39,340.66h.88l-.92,3.41a4.14,4.14,0,0,1,.9-.78,2.08,2.08,0,0,1,1.17-.31,1.93,1.93,0,0,1,1.38.49,1.79,1.79,0,0,1,.52,1.34,2.48,2.48,0,0,1,0,.45c0,.16-.06.32-.1.47l-.88,3.3h-.89l.9-3.35a2.72,2.72,0,0,0,.07-.33c0-.12,0-.23,0-.33a1.15,1.15,0,0,0-.36-.91,1.36,1.36,0,0,0-1-.33,1.8,1.8,0,0,0-.68.14,2.32,2.32,0,0,0-.63.4,2.66,2.66,0,0,0-.5.6,2.53,2.53,0,0,0-.33.77L132,349h-.88Z"/><path class="cls-10" d="M139.75,343.1h.88l-.25,1a4.09,4.09,0,0,1,.89-.78,2.13,2.13,0,0,1,1.17-.31,1.93,1.93,0,0,1,1.38.49,1.76,1.76,0,0,1,.52,1.34,2.42,2.42,0,0,1,0,.45c0,.16-.07.32-.11.47l-.88,3.3h-.88l.89-3.35a1.6,1.6,0,0,0,.07-.33,2,2,0,0,0,0-.33,1.15,1.15,0,0,0-.36-.91,1.37,1.37,0,0,0-1-.33,1.89,1.89,0,0,0-.69.14,2.43,2.43,0,0,0-.62.4,3,3,0,0,0-.51.6,3.14,3.14,0,0,0-.33.77l-.89,3.34h-.88Z"/><path class="cls-10" d="M147.15,349a2.56,2.56,0,0,1-.86-.56,2.33,2.33,0,0,1-.54-.84,2.85,2.85,0,0,1-.19-1.06,3.24,3.24,0,0,1,.28-1.33,3.76,3.76,0,0,1,1.86-1.91A3.23,3.23,0,0,1,149,343a3,3,0,0,1,1.11.2,2.5,2.5,0,0,1,.85.55,2.32,2.32,0,0,1,.55.84,2.78,2.78,0,0,1,.2,1.06,3.31,3.31,0,0,1-.29,1.35,3.84,3.84,0,0,1-.77,1.13,3.74,3.74,0,0,1-1.11.77,3.18,3.18,0,0,1-1.33.29A3,3,0,0,1,147.15,349Zm2.11-.83a2.67,2.67,0,0,0,.81-.6,2.85,2.85,0,0,0,.57-.87,2.67,2.67,0,0,0,.2-1,1.89,1.89,0,0,0-.51-1.41,1.86,1.86,0,0,0-1.34-.49,2.21,2.21,0,0,0-1,.23,3,3,0,0,0-.8.61,3.29,3.29,0,0,0-.55.87,2.58,2.58,0,0,0-.21,1,1.8,1.8,0,0,0,.52,1.39,1.85,1.85,0,0,0,1.34.5A2.14,2.14,0,0,0,149.26,348.14Z"/><path class="cls-10" d="M154.83,340.66h.88L153.47,349h-.89Z"/><path class="cls-10" d="M157.48,349a2.62,2.62,0,0,1-.85-.56,2.33,2.33,0,0,1-.54-.84,2.85,2.85,0,0,1-.19-1.06,3.24,3.24,0,0,1,.28-1.33,3.78,3.78,0,0,1,.75-1.13,4,4,0,0,1,1.11-.78,3.23,3.23,0,0,1,1.34-.29,3,3,0,0,1,1.11.2,2.6,2.6,0,0,1,.85.55,2.32,2.32,0,0,1,.55.84,2.78,2.78,0,0,1,.2,1.06,3.31,3.31,0,0,1-.29,1.35,3.84,3.84,0,0,1-.77,1.13,3.74,3.74,0,0,1-1.11.77,3.18,3.18,0,0,1-1.33.29A3.08,3.08,0,0,1,157.48,349Zm2.12-.83a2.8,2.8,0,0,0,.81-.6,2.65,2.65,0,0,0,.56-.87,2.5,2.5,0,0,0,.21-1,1.74,1.74,0,0,0-1.86-1.9,2.16,2.16,0,0,0-1,.23,2.83,2.83,0,0,0-.8.61,3.05,3.05,0,0,0-.55.87,2.58,2.58,0,0,0-.21,1,1.8,1.8,0,0,0,.52,1.39,1.85,1.85,0,0,0,1.34.5A2.14,2.14,0,0,0,159.6,348.14Z"/><path class="cls-10" d="M163.81,350.61a3.91,3.91,0,0,1-1.31-.75l.55-.62a4.22,4.22,0,0,0,1.06.64,3.18,3.18,0,0,0,1.28.25,2.4,2.4,0,0,0,1-.17,2,2,0,0,0,.69-.44,2.52,2.52,0,0,0,.45-.62,4.35,4.35,0,0,0,.29-.8l.16-.59a4.08,4.08,0,0,1-1,.76,2.6,2.6,0,0,1-1.28.3,2.74,2.74,0,0,1-.9-.15A2.38,2.38,0,0,1,164,348a2.08,2.08,0,0,1-.74-1.65,3.25,3.25,0,0,1,.28-1.36,3.69,3.69,0,0,1,.75-1.06,3.48,3.48,0,0,1,1.07-.7,3.27,3.27,0,0,1,1.22-.24,2.55,2.55,0,0,1,.83.12,2.07,2.07,0,0,1,.61.32,2.13,2.13,0,0,1,.44.46,5.39,5.39,0,0,1,.3.52l.34-1.3H170l-1.36,5.08a5.44,5.44,0,0,1-.41,1.12,3,3,0,0,1-.55.75,2.6,2.6,0,0,1-1,.62,3.58,3.58,0,0,1-1.32.22A4.75,4.75,0,0,1,163.81,350.61Zm3.09-3a3.18,3.18,0,0,0,.81-.54,2.43,2.43,0,0,0,.55-.76,2,2,0,0,0,.21-.89,1.5,1.5,0,0,0-.13-.62,1.42,1.42,0,0,0-.36-.54,1.61,1.61,0,0,0-.57-.37,1.87,1.87,0,0,0-.76-.14,2.34,2.34,0,0,0-.91.18,2.32,2.32,0,0,0-.78.52,2.56,2.56,0,0,0-.55.78,2.29,2.29,0,0,0-.2,1,1.54,1.54,0,0,0,.14.7,1.32,1.32,0,0,0,.38.49,1.83,1.83,0,0,0,.55.3,2.08,2.08,0,0,0,.66.11A2.46,2.46,0,0,0,166.9,347.62Z"/><path class="cls-10" d="M169.94,350.79a2.41,2.41,0,0,1-.6-.3l.48-.67a1.15,1.15,0,0,0,.43.21,1.45,1.45,0,0,0,.48.09,1.33,1.33,0,0,0,.74-.24,3.08,3.08,0,0,0,.8-.86l-1.07-5.92h.91l.83,4.94,3.19-4.94h1l-4.05,6.13a4.67,4.67,0,0,1-1.2,1.3,2.27,2.27,0,0,1-1.23.37A2.19,2.19,0,0,1,169.94,350.79Z"/><path class="cls-10" d="M180.15,348.32l4.59-3.48a5.56,5.56,0,0,0,1-.94,1.56,1.56,0,0,0,.34-1,1.12,1.12,0,0,0-.41-.88,1.65,1.65,0,0,0-1.12-.34,2.35,2.35,0,0,0-1.21.32,4.6,4.6,0,0,0-1,.78l-.6-.57a5,5,0,0,1,1.24-1,3.19,3.19,0,0,1,1.6-.39,3.1,3.1,0,0,1,1,.15,2.34,2.34,0,0,1,.77.4,2,2,0,0,1,.49.63,1.85,1.85,0,0,1,.17.82,2.07,2.07,0,0,1-.43,1.29,7.14,7.14,0,0,1-1.27,1.22l-3.71,2.81h4.29l-.22.82H180Z"/><path class="cls-10" d="M189.53,348.94a2.47,2.47,0,0,1-.88-.64,2.77,2.77,0,0,1-.55-1,4.15,4.15,0,0,1-.18-1.25,6.11,6.11,0,0,1,.3-1.88,5.81,5.81,0,0,1,.86-1.66,4.2,4.2,0,0,1,1.32-1.2,3.18,3.18,0,0,1,1.69-.46,3,3,0,0,1,1.19.23,2.51,2.51,0,0,1,.89.64,3.1,3.1,0,0,1,.54,1,3.79,3.79,0,0,1,.19,1.24,6.06,6.06,0,0,1-.3,1.88,5.87,5.87,0,0,1-.86,1.67,4.45,4.45,0,0,1-1.32,1.2,3.27,3.27,0,0,1-1.69.46A3,3,0,0,1,189.53,348.94Zm2.5-1a3.6,3.6,0,0,0,1-1,4.92,4.92,0,0,0,.68-1.4A5.06,5.06,0,0,0,194,344a2.88,2.88,0,0,0-.13-.9,1.89,1.89,0,0,0-.37-.72,1.76,1.76,0,0,0-.61-.47,1.86,1.86,0,0,0-.84-.17,2.16,2.16,0,0,0-1.23.39,3.72,3.72,0,0,0-1,1,5.25,5.25,0,0,0-.67,1.41,5,5,0,0,0-.25,1.57,3.28,3.28,0,0,0,.12.91,2.45,2.45,0,0,0,.37.72,1.67,1.67,0,0,0,.61.47,1.84,1.84,0,0,0,.83.17A2.2,2.2,0,0,0,192,348Z"/><path class="cls-10" d="M195.16,348.32l4.6-3.48a5.46,5.46,0,0,0,1-.94,1.5,1.5,0,0,0,.34-1,1.11,1.11,0,0,0-.4-.88,1.67,1.67,0,0,0-1.12-.34,2.36,2.36,0,0,0-1.22.32,4.6,4.6,0,0,0-1,.78l-.59-.57a5,5,0,0,1,1.24-1,3.18,3.18,0,0,1,1.59-.39,3.12,3.12,0,0,1,1,.15,2.29,2.29,0,0,1,.76.4,1.86,1.86,0,0,1,.67,1.45,2.08,2.08,0,0,1-.44,1.29,6.81,6.81,0,0,1-1.27,1.22l-3.7,2.81h4.28l-.21.82H195Z"/><path class="cls-10" d="M203.25,348.75a3.44,3.44,0,0,1-1.1-1l.7-.52a3,3,0,0,0,.91.84,2.42,2.42,0,0,0,1.24.3,2.59,2.59,0,0,0,.95-.17,2.25,2.25,0,0,0,.74-.43,2.08,2.08,0,0,0,.47-.64,1.7,1.7,0,0,0,.16-.74,1.41,1.41,0,0,0-.49-1.14,2,2,0,0,0-1.31-.4,3.29,3.29,0,0,0-.79.1,3.34,3.34,0,0,0-.84.33l-.52-.41,1.26-3.86h4.48l-.24.83h-3.66l-.84,2.51a2.92,2.92,0,0,1,.65-.21,3.43,3.43,0,0,1,.72-.1,3.11,3.11,0,0,1,1,.17,2.25,2.25,0,0,1,.8.45,1.93,1.93,0,0,1,.51.71,2.35,2.35,0,0,1,.18.94,2.58,2.58,0,0,1-.24,1.09,2.83,2.83,0,0,1-.67.91,3,3,0,0,1-1.06.63,4,4,0,0,1-1.37.23A3.17,3.17,0,0,1,203.25,348.75Z"/></g></g></svg>