<svg xmlns="http://www.w3.org/2000/svg" xmlns:xlink="http://www.w3.org/1999/xlink" viewBox="0 0 262.87 320.86"><defs><style>.cls-1{opacity:0.07;fill:url(#linear-gradient);}.cls-2{opacity:0.15;fill:url(#linear-gradient-2);}.cls-3{opacity:0.1;fill:url(#linear-gradient-3);}.cls-4,.cls-7{fill:#f8ac1f;}.cls-4,.cls-5{fill-rule:evenodd;}.cls-5{fill:url(#linear-gradient-4);}.cls-6{fill:#686aad;}.cls-8{fill:#5c181e;}.cls-9{fill:url(#linear-gradient-5);}.cls-10{fill:url(#linear-gradient-6);}.cls-11{fill:url(#linear-gradient-7);}.cls-12{fill:url(#linear-gradient-8);}.cls-13{fill:#fff;}</style><linearGradient id="linear-gradient" x1="2558.87" y1="483.08" x2="2642.14" y2="483.08" gradientTransform="matrix(-0.98, -0.22, -0.22, 0.98, 2723.57, 329.6)" gradientUnits="userSpaceOnUse"><stop offset="0" stop-color="#fff"/><stop offset="0.52" stop-color="#8b4b44"/><stop offset="1" stop-color="#691018"/></linearGradient><linearGradient id="linear-gradient-2" x1="2609.11" y1="627.74" x2="2710.54" y2="627.74" gradientTransform="matrix(-0.92, -0.4, -0.4, 0.92, 2758.49, 630.27)" xlink:href="#linear-gradient"/><linearGradient id="linear-gradient-3" x1="2476.06" y1="132" x2="2358.22" y2="163.57" gradientTransform="matrix(-0.86, -0.51, -0.51, 0.86, 2356.32, 1252.93)" xlink:href="#linear-gradient"/><linearGradient id="linear-gradient-4" x1="75.87" y1="248.87" x2="178.42" y2="164.29" gradientUnits="userSpaceOnUse"><stop offset="0.1" stop-color="#d3b8b1"/><stop offset="0.52" stop-color="#8b4b44"/><stop offset="1" stop-color="#691018"/></linearGradient><linearGradient id="linear-gradient-5" x1="136.04" y1="259.54" x2="136.04" y2="285.08" xlink:href="#linear-gradient-4"/><linearGradient id="linear-gradient-6" x1="167.64" y1="259.54" x2="167.64" y2="285.08" xlink:href="#linear-gradient-4"/><linearGradient id="linear-gradient-7" x1="196.42" y1="259.54" x2="196.42" y2="285.08" xlink:href="#linear-gradient-4"/><linearGradient id="linear-gradient-8" x1="225.47" y1="259.54" x2="225.47" y2="285.08" xlink:href="#linear-gradient-4"/></defs><g id="Layer_2" data-name="Layer 2"><g id="Layer_1-2" data-name="Layer 1"><path class="cls-1" d="M114.78,229.52c-.25-2.65-.32-3.11-.62-5.77l6.7-4.34a44.72,44.72,0,0,0-2.35-6.83l-8,1c-1.49-2.23-1.73-2.64-3.25-4.83l4.06-7.22a42.58,42.58,0,0,0-5.2-4.84L101,200.15l-1.2.84c-.69,3-1.32,5.23-2.76,7.32a3.19,3.19,0,0,1,.33.27,26.72,26.72,0,1,1-21.5-5.67c.51-.1,1-.17,1.54-.22l1-.09c.51,0,1-.06,1.54-.08a2.55,2.55,0,0,1,.48,0,16.05,16.05,0,0,1,2,.07,26.44,26.44,0,0,1,4.81.82c1.29.34,8.65,4.37,9.84,4.89,1.44-1.12,4.54-6.55,2.76-7.32l-5.57-2.34-.13-.05.07-1.94.06-2.47.12-4c-1.13-.39-2.25-.74-3.41-1-.78-.2-1.59-.39-2.39-.56l-1-.2-.55,1-3.37,6.38c-.24,0-.45,0-.65,0H80.79l-2.31,0h-.65l-.28-.54-1.25-2.59-1.08-2.19-1-2.15a40.58,40.58,0,0,0-6.9,1.65l0,8.27c-2.36,1.17-2.82,1.4-5.18,2.62l-6.5-4.78a40.93,40.93,0,0,0-5.42,4.79l3.68,7.07c-1.54,2.17-1.81,2.55-3.38,4.72l-7.59-1.13a39.33,39.33,0,0,0-2.58,6.93l6.18,4.27c-.38,2.67-.43,3.13-.78,5.8l-6.9,2.36a41.58,41.58,0,0,0,1,7.53l7.1.89c.88,2.48,1,3,2,5.44l-4.73,5.07a39.68,39.68,0,0,0,4.4,6.37l6.38-2.38c2,1.8,2.3,2.12,4.28,3.9l-1.79,6.46a40.19,40.19,0,0,0,6.89,3.69l4.42-4.95,5.62,1.47,1.44,6.5a41.79,41.79,0,0,0,7.82.17l1.61-6.52c2.6-.57,3.07-.68,5.67-1.28l4.36,5.2a40.33,40.33,0,0,0,7-3.39l-1.65-6.74c2-1.7,2.4-2,4.41-3.77l6.6,2.71a40.54,40.54,0,0,0,4.53-6.1l-4.81-5.43c1-2.51,1.14-2.93,2.13-5.44l7.53-.68a44,44,0,0,0,1.13-7.31Z"/><path class="cls-2" d="M112.41,140.08c.31-3.23.34-3.8.6-7.05l9-3.61a54.49,54.49,0,0,0-1.21-8.72L111,120c-1.25-3-1.44-3.56-2.75-6.53l6.55-7.68a50.92,50.92,0,0,0-5.09-7l-6.86,3-1.64.72c-1.52,3.41-2.8,5.94-5,8.1.11.15.24.27.33.4A32.55,32.55,0,1,1,72.17,99.16c.64,0,1.26,0,1.9.09l1.22.13c.61.06,1.23.17,1.85.26a4.93,4.93,0,0,1,.58.13,23.79,23.79,0,0,1,2.33.54,33.32,33.32,0,0,1,5.55,2.11c1.46.71,9.32,7.25,10.62,8.15,2-1,7-6.77,5-8.1-2.73-1.86-2.73-1.86-6.11-4.1a.6.6,0,0,0-.13-.09l.53-2.3L96.17,93l1.07-4.73c-1.26-.73-2.52-1.4-3.83-2-.89-.43-1.82-.85-2.73-1.23l-1.19-.48-.91,1.11-5.52,6.83a7.65,7.65,0,0,1-.78-.16l-2.6-.53c-.8-.17-1.58-.33-2.76-.6-.25-.06-.5-.09-.77-.16l-.21-.71L75.05,87l-.77-2.88-.74-2.82a49.62,49.62,0,0,0-8.64.36l-2,9.88c-3.09.85-3.69,1-6.81,1.91l-6.64-7.23a48.9,48.9,0,0,0-7.6,4.46l2.74,9.3c-2.36,2.24-2.76,2.63-5.14,4.85l-8.81-3.13a48.18,48.18,0,0,0-4.72,7.68l6.39,6.56c-1.07,3.1-1.24,3.63-2.29,6.75l-8.8,1.2a49.58,49.58,0,0,0-.62,9.22l8.27,2.73c.47,3.18.54,3.79,1.08,7l-6.84,4.95a48,48,0,0,0,3.77,8.64L35.05,155c1.94,2.61,2.26,3.08,4.21,5.66L35.6,168A49.35,49.35,0,0,0,43,174l6.45-4.89,6.36,3.08.2,8.1a49,49,0,0,0,9.31,2l3.45-7.4c3.24-.08,3.83-.1,7.08-.2l4,7.23a49.07,49.07,0,0,0,9.12-2.42l-.4-8.44c2.83-1.56,3.35-1.88,6.16-3.48l7.25,4.78a47.12,47.12,0,0,0,6.84-6.22l-4.47-7.61c1.76-2.77,2.05-3.24,3.82-6l9.15,1a53.13,53.13,0,0,0,3.07-8.47Z"/><path class="cls-3" d="M252.45,148c-.28-3.89-.36-4.56-.7-8.47l10-6.1a64.36,64.36,0,0,0-3.18-10.09l-11.79,1.11c-2.09-3.32-2.43-3.94-4.57-7.2l6.22-10.42A62.27,62.27,0,0,0,241,99.56l-7.54,4.91-1.79,1.19c-1.13,4.34-2.13,7.59-4.31,10.6.16.15.33.27.46.41a39.13,39.13,0,1,1-31.27-9.12c.76-.12,1.51-.22,2.28-.27l1.47-.09c.73-.06,1.49,0,2.25-.06a5.54,5.54,0,0,1,.71,0,27.45,27.45,0,0,1,2.86.18,39.46,39.46,0,0,1,7,1.39c1.86.54,12.5,6.72,14.22,7.53,2.14-1.57,6.88-9.42,4.31-10.6C228,104,228,104,223.58,102a1.51,1.51,0,0,0-.18-.09l.17-2.83.19-3.62.32-5.81c-1.64-.62-3.27-1.16-5-1.65-1.14-.33-2.32-.64-3.47-.9l-1.52-.34-.85,1.5-5.18,9.21c-.35,0-.65,0-1,0l-3.2-.1c-1,0-1.93-.08-3.39-.16-.3,0-.61,0-.95,0l-.38-.8-1.74-3.83L196,89.27l-1.44-3.2a59.09,59.09,0,0,0-10.17,2.16l-.4,12.11c-3.49,1.62-4.17,1.94-7.68,3.63L167,96.73a59.56,59.56,0,0,0-8.12,6.81L164,114c-2.35,3.13-2.75,3.67-5.13,6.79l-11.07-2a58.67,58.67,0,0,0-4.06,10l8.9,6.49c-.66,3.9-.74,4.56-1.36,8.47l-10.2,3.18a60.3,60.3,0,0,0,1.11,11.07l10.36,1.57c1.2,3.68,1.4,4.39,2.67,8.05L148.09,175a57.6,57.6,0,0,0,6.21,9.49l9.42-3.23c2.82,2.7,3.29,3.19,6.12,5.86L167,196.5a59.18,59.18,0,0,0,10,5.67l6.66-7.09,8.17,2.37,1.85,9.57a59.63,59.63,0,0,0,11.45.55l2.61-9.47c3.83-.75,4.52-.89,8.35-1.66l6.19,7.77a59.9,59.9,0,0,0,10.32-4.69l-2.16-9.93c3-2.42,3.59-2.91,6.61-5.36l9.55,4.22a58.38,58.38,0,0,0,6.87-8.75l-6.84-8.14,3.33-7.89,11.05-.7a65.21,65.21,0,0,0,1.93-10.67Z"/><path class="cls-4" d="M75.17,192.76c-.22-.73-.41-1.47-.59-2.2l-17.17-1.87a36.17,36.17,0,0,1,0-18.82L74.58,168a47.89,47.89,0,0,1,5.73-13.83L69.49,140.72a36.12,36.12,0,0,1,13.3-13.31l13.46,10.82a47.81,47.81,0,0,1,13.83-5.72L112,115.34a36.14,36.14,0,0,1,18.81,0l1.87,17.18a47.58,47.58,0,0,1,13.83,5.72l13.46-10.82a36.18,36.18,0,0,1,12.67,12.23,237.06,237.06,0,0,0-37.43,13.85,29.25,29.25,0,0,0-43,25.74q-8.65,6.38-16.94,13.53"/><path class="cls-5" d="M174,149.58c6.65-3.06,12.81-5.52,19.7-7.92a205.75,205.75,0,0,0-20.76,6.85Zm-24,12.68c5.34-3.23,10.87-6.24,16.4-9l-1.45-1.41c-6,2.6-11.52,5.33-17.27,8.48ZM120.18,183.6c6.46-5.28,14.35-11.09,21.21-15.65l-2.75-2.19a226.29,226.29,0,0,0-22,15.32ZM84.3,217.28c7.36-8,19.26-18.85,24.8-23.86l-3.46-2.57c-7.84,6.88-17.94,14.52-25.27,22.5Zm-8-20.93c46.54-40.57,99.68-60.91,156.77-61.82-45.54,6.44-87,33-115.7,73.73a29.23,29.23,0,0,0,33.06-31.64,206.43,206.43,0,0,1,48.42-31.29,158.91,158.91,0,0,0-29.84,22.78l16.24,1.76a36.18,36.18,0,0,1,0,18.82l-17.18,1.87a47.7,47.7,0,0,1-5.72,13.83l10.82,13.46a36.35,36.35,0,0,1-13.3,13.31l-13.47-10.83a47.89,47.89,0,0,1-13.83,5.73l-1.86,17.17a36.17,36.17,0,0,1-18.82,0l-1.87-17.17a48.12,48.12,0,0,1-13.83-5.73L82.8,231.15l-.1-.05-.08,0-.09-.05h0l-.09-.05-.09-.05-.08,0h0l-.09-.05-.08-.06-.08,0h0l-.09,0-.09-.06-.08,0h0l-.09-.06-.09-.06-.07,0h0l-.09-.06-.09-.05-.07,0,0,0-.09-.06-.08-.05L81,230l0,0-.09-.06-.08-.06-.06,0,0,0-.08-.06-.09-.06,0,0,0,0-.09-.05-.08-.06,0,0,0,0-.08-.06-.09-.06,0,0,0,0-.09-.06-.08-.06,0,0,0,0-.09-.06-.08-.06,0,0,0,0-.08-.06-.09-.06,0,0,0,0-.08-.06-.08-.07,0,0,0,0-.09-.06-.08-.06,0,0-.06,0-.08-.07-.08-.06,0,0-.06,0-.08-.07-.08-.06h0l-.07-.05-.08-.07-.08-.06h0l-.06-.05-.08-.07-.08-.06h0l-.07-.06-.08-.06-.07-.07h0l-.15-.12h0c-.11.07-.13,0-.07-.06a35.83,35.83,0,0,1-7.46-8.79l-.06-.09-.17-.29,0,0,0-.06-.06-.1-.06-.09h0L77.41,208l2.9-3.6A37.15,37.15,0,0,1,76.35,196.35Z"/><path class="cls-6" d="M152.51,60.94a6.9,6.9,0,0,0,5.62.7c3.58-.86,4.28-.75,4.28-.75a4.67,4.67,0,0,0-5-2.36C153.7,59,152.51,60.94,152.51,60.94Z"/><path class="cls-7" d="M214,41c.63,9.38-2,17.59-8.8,24.08-6.54,6.2-14.65,9.47-23.9,11.36,2.77,2.48,5.31,4.55,7.62,6.62C212.09,71.76,220.12,58.23,214,41Z"/><path class="cls-6" d="M188.89,83.07c-12.66,9.31-20.49,24.91-23.63,38a35.19,35.19,0,0,1,8,5.54c3-13.12,10.08-31.23,24.2-37Z"/><path class="cls-7" d="M141.07,41a51,51,0,0,0-9.25,2.72C120.59,48.15,116.27,56,116.27,56c-8.2,11.68-8.33,24.59-6,38.07C98,99.8,91.67,108.73,87.13,119.88l5.42,4c6.68-12.26,14.81-22,29-25.11a41.58,41.58,0,0,1-2.18-5.92c-1.52-7.66-1.11-12.3,0-19.25h0S118.68,51.73,141.07,41Z"/><path class="cls-6" d="M205.53,2.83C203.58.09,201-1.06,198,1.21s-3.25,5.76.11,8.33c10.6,8.09,4.09,32.63-7.87,39.48-4.78,2.77-9.46,1.83-14.06-.07s-9-4.32-13.61-6.13A37.74,37.74,0,0,0,141.07,41c-22.39,10.78-21.73,32.61-21.73,32.61h0v-.06a24.08,24.08,0,0,1,6.24-12.58c8.6-9.08,20.68-10.17,20.68-10.17,4.46-.73,9,.32,13.21,1.6,7.41,2.25,14.42,5.91,21.89,7.84a19.8,19.8,0,0,0,19.08-5.05C211.86,44.12,214.7,15.71,205.53,2.83Z"/><path class="cls-8" d="M194.63,225.49l-6.08,22.64h-5.23l5-18.43h-4.53l1.13-4.21Z"/><path class="cls-8" d="M214.5,243.37h-3.69l-1.27,4.76h-5.11l1.27-4.76H193.52l.94-3.52L209,225.49h5.49l-13.55,13.62H207l1.14-4.24h4.95L212,239.11h3.68Z"/><path class="cls-8" d="M225.7,227.31h-3.08l.49-1.82h8.39l-.49,1.82h-3.08l-2.1,7.81H223.6Z"/><path class="cls-8" d="M241.52,225.49l-2.58,9.63h-2.23l1.06-3.94H233.4l-1.06,3.94h-2.23l2.58-9.63h2.23l-1,3.8h4.38l1-3.8Z"/><path class="cls-8" d="M11.93,258.41H22.38L14,289.67H3.54Z"/><path class="cls-8" d="M20.6,276.63c0-8.53,6.56-18.89,20-18.89,6.74,0,11.52,3.58,12.81,9.11l-9.33,4.07a4.73,4.73,0,0,0-4.87-3.8c-4.69,0-7.72,4.29-7.72,8.57,0,3.44,2.14,5.36,4.91,5.36a7.62,7.62,0,0,0,6.07-3.26l7.23,5.72c-3.12,4.11-7.68,6.83-14.33,6.83C26.67,290.34,20.6,285,20.6,276.63Z"/><path class="cls-8" d="M58.33,258.41h10.5c5.76,0,9.28,1.12,11.61,3.44a8.66,8.66,0,0,1,2.45,6.3c0,7.81-5.89,13-15.81,13H62.67l-2.28,8.48H49.94Zm8.22,15.32c4,0,5.8-1.79,5.8-4.15a2.57,2.57,0,0,0-.76-1.83,4.49,4.49,0,0,0-3.12-1h-2l-1.84,7Z"/><path class="cls-8" d="M93.21,267.25H84l2.37-8.84h28.84l-2.36,8.84h-9.2l-6,22.42H87.18Z"/><path class="cls-9" d="M122.56,281.9l16-9.82c2.46-1.52,2.72-2.55,2.72-3.49,0-1.11-.67-1.92-2.18-1.92-1.79,0-4.38,1.57-6.75,3.89l-5.89-6.21c3.48-3.75,7.77-6.47,13.93-6.47,7.1,0,11.25,3.84,11.25,9.24,0,3.84-1.92,7.32-9,11.25l-5.68,3.13h11.79l-2.19,8.17H120.46Z"/><path class="cls-10" d="M152.3,278c0-10.72,7.46-20.28,17.81-20.28,8.27,0,12.86,5.76,12.86,12.37,0,10.72-7.45,20.27-17.81,20.27C156.9,290.38,152.3,284.62,152.3,278Zm20.18-7c0-2.95-1.47-4.24-3.3-4.24-4,0-6.39,5.85-6.39,10.27,0,2.95,1.48,4.24,3.31,4.24C170.11,281.32,172.48,275.47,172.48,271.05Z"/><path class="cls-11" d="M182.94,281.9l16-9.82c2.46-1.52,2.72-2.55,2.72-3.49,0-1.11-.67-1.92-2.18-1.92-1.79,0-4.38,1.57-6.75,3.89l-5.89-6.21c3.48-3.75,7.77-6.47,13.93-6.47,7.1,0,11.25,3.84,11.25,9.24,0,3.84-1.92,7.32-9,11.25l-5.67,3.13H209.1l-2.19,8.17H180.84Z"/><path class="cls-12" d="M209.42,284.85l6.07-6.12A10.71,10.71,0,0,0,223,281.9c3,0,4.64-1.56,4.64-3.62,0-1.51-1.16-2.72-3.57-2.72a7.78,7.78,0,0,0-4.6,1.61l-5.31-3.31,5-15.45h22.32l-2.23,8.26H224.73L223.66,270a13.19,13.19,0,0,1,4.78-.85c5.81,0,9.56,3.26,9.56,8.44,0,7.5-5.9,12.72-14.87,12.72A20.21,20.21,0,0,1,209.42,284.85Z"/><path class="cls-8" d="M2,298.84h.84l-2,7.47H0Z"/><path class="cls-8" d="M4.37,300.79h.82l-.24.9a3.57,3.57,0,0,1,.84-.72,1.94,1.94,0,0,1,1.09-.3,1.81,1.81,0,0,1,1.28.46,1.63,1.63,0,0,1,.49,1.25,2.18,2.18,0,0,1-.05.42c0,.15-.06.29-.09.44l-.82,3.07H6.87l.83-3.12a1.31,1.31,0,0,0,.06-.31,1.72,1.72,0,0,0,0-.31,1.08,1.08,0,0,0-.33-.84,1.26,1.26,0,0,0-.91-.31,1.77,1.77,0,0,0-.63.13,2.38,2.38,0,0,0-.58.37,2.54,2.54,0,0,0-.47.56,2.57,2.57,0,0,0-.31.72l-.83,3.11H2.89Z"/><path class="cls-8" d="M10.44,306.14a1,1,0,0,1-.37-.82,1.51,1.51,0,0,1,0-.3,2.33,2.33,0,0,1,.05-.28l.87-3.22h-.76l.19-.73h.77l.45-1.66h.81L12,300.79h1.74l-.19.73H11.83L11,304.69a1.3,1.3,0,0,0,0,.21c0,.07,0,.14,0,.2a.46.46,0,0,0,.21.42,1,1,0,0,0,.55.14,2.27,2.27,0,0,0,.8-.16l-.2.75a2.35,2.35,0,0,1-.88.16A1.61,1.61,0,0,1,10.44,306.14Z"/><path class="cls-8" d="M14.87,304v.11a1.55,1.55,0,0,0,1.67,1.66,2.27,2.27,0,0,0,.93-.17,3.06,3.06,0,0,0,.77-.48l.42.55a4.1,4.1,0,0,1-.92.58,3,3,0,0,1-1.24.24,2.87,2.87,0,0,1-1-.17,2.14,2.14,0,0,1-.78-.48,2.17,2.17,0,0,1-.49-.74,2.49,2.49,0,0,1-.18-1,3.37,3.37,0,0,1,.24-1.24A3.49,3.49,0,0,1,16,301a2.77,2.77,0,0,1,1.28-.3,2.27,2.27,0,0,1,.93.18,1.84,1.84,0,0,1,.66.45,2,2,0,0,1,.41.68,2.38,2.38,0,0,1,.14.81,3.29,3.29,0,0,1,0,.54c0,.17-.09.34-.14.5H14.88S14.87,303.91,14.87,304Zm3.67-.72a1.27,1.27,0,0,0,.06-.43,1.92,1.92,0,0,0-.08-.55,1.41,1.41,0,0,0-.25-.45,1.29,1.29,0,0,0-.44-.31,1.41,1.41,0,0,0-.61-.12,2.14,2.14,0,0,0-.76.14,2.28,2.28,0,0,0-.65.4,2.53,2.53,0,0,0-.49.59,2.8,2.8,0,0,0-.32.73Z"/><path class="cls-8" d="M21.48,300.79h.82l-.37,1.44a5,5,0,0,1,.54-.65,3.18,3.18,0,0,1,.61-.5,2.55,2.55,0,0,1,.7-.3,2.2,2.2,0,0,1,.78-.08l-.24.88h-.05a2.51,2.51,0,0,0-.89.17,2.89,2.89,0,0,0-.83.48,3.56,3.56,0,0,0-.67.8,4.38,4.38,0,0,0-.46,1.1l-.59,2.18H20Z"/><path class="cls-8" d="M25.77,300.79h.82l-.23.9a3.73,3.73,0,0,1,.83-.72,2,2,0,0,1,1.09-.3,1.83,1.83,0,0,1,1.29.46,1.66,1.66,0,0,1,.48,1.25,2.12,2.12,0,0,1,0,.42c0,.15-.06.29-.1.44l-.82,3.07h-.82l.83-3.12a2.05,2.05,0,0,0,.07-.31c0-.11,0-.22,0-.31a1.08,1.08,0,0,0-.33-.84,1.27,1.27,0,0,0-.91-.31,1.77,1.77,0,0,0-.63.13,2.43,2.43,0,0,0-.59.37,3.24,3.24,0,0,0-.47.56,2.9,2.9,0,0,0-.31.72l-.83,3.11H24.3Z"/><path class="cls-8" d="M32,306.33a1.77,1.77,0,0,1-.56-.3,1.36,1.36,0,0,1-.38-.47,1.39,1.39,0,0,1-.14-.66,1.9,1.9,0,0,1,.18-.83,1.73,1.73,0,0,1,.51-.63,2.61,2.61,0,0,1,.78-.4,3.37,3.37,0,0,1,1-.13,6.06,6.06,0,0,1,1.06.09c.33.06.64.13.91.2l0-.12a2,2,0,0,0,0-.26,1.18,1.18,0,0,0,0-.26,1,1,0,0,0-.37-.83,1.81,1.81,0,0,0-1.12-.29,4.15,4.15,0,0,0-.82.08l-.74.21-.14-.68a5.8,5.8,0,0,1,.84-.24,5,5,0,0,1,1-.09,2.5,2.5,0,0,1,1.6.45,1.51,1.51,0,0,1,.56,1.26,2.4,2.4,0,0,1,0,.37c0,.13,0,.26-.08.38l-.84,3.13h-.8l.24-.86a3.17,3.17,0,0,1-.89.71,2.46,2.46,0,0,1-1.17.27A2.09,2.09,0,0,1,32,306.33Zm1.62-.66a2.94,2.94,0,0,0,.63-.34,2.33,2.33,0,0,0,.52-.52,1.81,1.81,0,0,0,.32-.67l.11-.38a6.44,6.44,0,0,0-1.8-.25,2.3,2.3,0,0,0-.67.1,1.35,1.35,0,0,0-.52.27,1.17,1.17,0,0,0-.34.4,1.15,1.15,0,0,0-.12.53.88.88,0,0,0,.31.71,1.28,1.28,0,0,0,.86.27A2.1,2.1,0,0,0,33.57,305.67Z"/><path class="cls-8" d="M38,306.14a1,1,0,0,1-.38-.82,1.53,1.53,0,0,1,0-.3,2.33,2.33,0,0,1,.05-.28l.86-3.22h-.75l.19-.73h.77l.44-1.66H40l-.45,1.66h1.74l-.19.73H39.39l-.86,3.17,0,.21a1.41,1.41,0,0,0,0,.2.48.48,0,0,0,.2.42,1,1,0,0,0,.56.14,2.31,2.31,0,0,0,.8-.16l-.21.75a2.21,2.21,0,0,1-.42.12,2.15,2.15,0,0,1-.45,0A1.61,1.61,0,0,1,38,306.14Z"/><path class="cls-8" d="M42.83,300.79h.83l-1.49,5.52h-.82Zm.52-2.11h.94l-.25.91H43.1Z"/><path class="cls-8" d="M45.91,306.25a2.24,2.24,0,0,1-.79-.51,2.44,2.44,0,0,1-.51-.79,2.64,2.64,0,0,1-.18-1,3,3,0,0,1,.27-1.24,3.71,3.71,0,0,1,.7-1.05,3.54,3.54,0,0,1,1-.72,3,3,0,0,1,1.25-.28,2.82,2.82,0,0,1,1,.19,2.61,2.61,0,0,1,.8.51,2.29,2.29,0,0,1,.51.78,2.68,2.68,0,0,1,.18,1,3,3,0,0,1-.27,1.26,3.3,3.3,0,0,1-.71,1.05,3.24,3.24,0,0,1-1,.72,2.91,2.91,0,0,1-1.24.27A2.66,2.66,0,0,1,45.91,306.25Zm2-.77a2.43,2.43,0,0,0,.76-.55,2.67,2.67,0,0,0,.52-.81,2.42,2.42,0,0,0,.2-.95,1.74,1.74,0,0,0-.48-1.31,1.72,1.72,0,0,0-1.25-.46,1.91,1.91,0,0,0-.91.22,2.45,2.45,0,0,0-.75.57,2.79,2.79,0,0,0-.51.81,2.36,2.36,0,0,0-.19.94,1.68,1.68,0,0,0,.48,1.29,1.71,1.71,0,0,0,1.25.46A2,2,0,0,0,47.88,305.48Z"/><path class="cls-8" d="M52.38,300.79h.82l-.23.9a3.34,3.34,0,0,1,.83-.72,1.94,1.94,0,0,1,1.09-.3,1.81,1.81,0,0,1,1.28.46,1.63,1.63,0,0,1,.49,1.25,2.12,2.12,0,0,1,0,.42c0,.15-.07.29-.1.44l-.82,3.07h-.82l.83-3.12a1.31,1.31,0,0,0,.06-.31,1.72,1.72,0,0,0,0-.31,1.08,1.08,0,0,0-.33-.84,1.25,1.25,0,0,0-.9-.31,1.78,1.78,0,0,0-.64.13,2.38,2.38,0,0,0-.58.37,2.54,2.54,0,0,0-.47.56,2.57,2.57,0,0,0-.31.72l-.83,3.11H50.9Z"/><path class="cls-8" d="M58.55,306.33A1.72,1.72,0,0,1,58,306a1.26,1.26,0,0,1-.38-.47,1.4,1.4,0,0,1-.15-.66,1.9,1.9,0,0,1,.18-.83,1.66,1.66,0,0,1,.52-.63,2.67,2.67,0,0,1,.77-.4,3.44,3.44,0,0,1,1-.13,5.87,5.87,0,0,1,1,.09c.34.06.64.13.91.2l0-.12.06-.26a2.46,2.46,0,0,0,0-.26,1,1,0,0,0-.37-.83,1.84,1.84,0,0,0-1.13-.29,4,4,0,0,0-.81.08q-.37.09-.75.21l-.13-.68a5.8,5.8,0,0,1,.84-.24,4.88,4.88,0,0,1,1-.09,2.53,2.53,0,0,1,1.61.45,1.53,1.53,0,0,1,.56,1.26,2.4,2.4,0,0,1,0,.37,2.34,2.34,0,0,1-.09.38l-.83,3.13h-.8l.23-.86a2.91,2.91,0,0,1-.89.71,2.46,2.46,0,0,1-1.17.27A2.13,2.13,0,0,1,58.55,306.33Zm1.62-.66a3,3,0,0,0,.64-.34,2.56,2.56,0,0,0,.52-.52,2.18,2.18,0,0,0,.32-.67l.1-.38a6.79,6.79,0,0,0-.82-.18,7.5,7.5,0,0,0-1-.07,2.37,2.37,0,0,0-.68.1,1.51,1.51,0,0,0-.52.27,1.26,1.26,0,0,0-.33.4,1,1,0,0,0-.13.53.88.88,0,0,0,.32.71,1.28,1.28,0,0,0,.86.27A2.09,2.09,0,0,0,60.17,305.67Z"/><path class="cls-8" d="M65.77,298.52h.82l-2.09,7.79h-.83Z"/><path class="cls-8" d="M72.29,306.24a3.16,3.16,0,0,1-1-.62,2.7,2.7,0,0,1-.68-1,3.14,3.14,0,0,1-.25-1.3,4.36,4.36,0,0,1,.35-1.74,4.78,4.78,0,0,1,2.38-2.52,4.17,4.17,0,0,1,1.75-.38,3,3,0,0,1,2.82,1.6l-.73.45a2.81,2.81,0,0,0-.84-.93,2.29,2.29,0,0,0-1.32-.34,3.07,3.07,0,0,0-1.37.32,3.74,3.74,0,0,0-1.12.85,4.3,4.3,0,0,0-.76,1.23,3.91,3.91,0,0,0-.28,1.43,2.52,2.52,0,0,0,.18,1,2.36,2.36,0,0,0,.48.74,2.25,2.25,0,0,0,.74.46,2.61,2.61,0,0,0,.94.16,2.87,2.87,0,0,0,1.3-.27,4.13,4.13,0,0,0,1-.74l.56.55a5.45,5.45,0,0,1-.56.49,4.29,4.29,0,0,1-.66.4,3.76,3.76,0,0,1-.78.26,3.82,3.82,0,0,1-.92.1A3.59,3.59,0,0,1,72.29,306.24Z"/><path class="cls-8" d="M79.29,306.25a2.29,2.29,0,0,1-.8-.51A2.26,2.26,0,0,1,78,305a2.64,2.64,0,0,1-.18-1,3.17,3.17,0,0,1,.26-1.24,3.74,3.74,0,0,1,.71-1.05,3.29,3.29,0,0,1,1-.72,2.93,2.93,0,0,1,1.25-.28,2.86,2.86,0,0,1,1,.19,2.56,2.56,0,0,1,.79.51,2.29,2.29,0,0,1,.51.78,2.68,2.68,0,0,1,.18,1,3,3,0,0,1-.26,1.26,3.5,3.5,0,0,1-.72,1.05,3.2,3.2,0,0,1-1,.72,3,3,0,0,1-1.24.27A2.63,2.63,0,0,1,79.29,306.25Zm2-.77a2.68,2.68,0,0,0,.76-.55,2.88,2.88,0,0,0,.52-.81,2.41,2.41,0,0,0,.19-.95,1.74,1.74,0,0,0-.48-1.31A1.72,1.72,0,0,0,81,301.4a1.94,1.94,0,0,0-.91.22,2.41,2.41,0,0,0-.74.57,2.62,2.62,0,0,0-.52.81,2.54,2.54,0,0,0-.19.94,1.68,1.68,0,0,0,.48,1.29,1.72,1.72,0,0,0,1.25.46A2,2,0,0,0,81.26,305.48Z"/><path class="cls-8" d="M85.75,300.79h.82l-.23.9a3.73,3.73,0,0,1,.83-.72,2,2,0,0,1,1.09-.3,1.83,1.83,0,0,1,1.29.46,1.66,1.66,0,0,1,.48,1.25,2.12,2.12,0,0,1,0,.42c0,.15-.06.29-.1.44l-.82,3.07h-.82l.83-3.12a2.05,2.05,0,0,0,.07-.31c0-.11,0-.22,0-.31a1.08,1.08,0,0,0-.33-.84,1.27,1.27,0,0,0-.91-.31,1.77,1.77,0,0,0-.63.13,2.43,2.43,0,0,0-.59.37,3.24,3.24,0,0,0-.47.56,2.9,2.9,0,0,0-.31.72l-.83,3.11h-.82Z"/><path class="cls-8" d="M92.43,301.52h-.76l.19-.73h.76l.18-.66a2.29,2.29,0,0,1,.7-1.23,1.75,1.75,0,0,1,1.19-.4,2.32,2.32,0,0,1,1.1.23l-.19.71a2.19,2.19,0,0,0-.46-.17,1.63,1.63,0,0,0-.45-.06,1,1,0,0,0-.68.25,1.64,1.64,0,0,0-.43.8l-.14.53h1.8l-.2.73H93.25L92,306.31h-.83Z"/><path class="cls-8" d="M96,304v.11a1.55,1.55,0,0,0,1.67,1.66,2.27,2.27,0,0,0,.93-.17,3,3,0,0,0,.76-.48l.43.55a4.1,4.1,0,0,1-.92.58,3.21,3.21,0,0,1-2.25.07,2.1,2.1,0,0,1-.77-.48,2.36,2.36,0,0,1-.5-.74,2.69,2.69,0,0,1-.17-1,3.37,3.37,0,0,1,.24-1.24A3.49,3.49,0,0,1,97.09,301a2.77,2.77,0,0,1,1.28-.3,2.27,2.27,0,0,1,.93.18,1.84,1.84,0,0,1,.66.45,2,2,0,0,1,.41.68,2.38,2.38,0,0,1,.14.81,2.48,2.48,0,0,1-.06.54,4.07,4.07,0,0,1-.13.5H96A.49.49,0,0,0,96,304Zm3.67-.72a1.27,1.27,0,0,0,.06-.43,1.92,1.92,0,0,0-.08-.55,1.41,1.41,0,0,0-.25-.45,1.29,1.29,0,0,0-.44-.31,1.44,1.44,0,0,0-.61-.12,2.1,2.1,0,0,0-.76.14,2.28,2.28,0,0,0-.65.4,2.84,2.84,0,0,0-.5.59,2.77,2.77,0,0,0-.31.73Z"/><path class="cls-8" d="M102.59,300.79h.82l-.37,1.44a5,5,0,0,1,.54-.65,3.18,3.18,0,0,1,.61-.5,2.63,2.63,0,0,1,.69-.3,2.25,2.25,0,0,1,.78-.08l-.23.88h-.05a2.61,2.61,0,0,0-.9.17,3,3,0,0,0-.82.48,3.56,3.56,0,0,0-.67.8,4,4,0,0,0-.46,1.1l-.59,2.18h-.82Z"/><path class="cls-8" d="M106.56,304v.11a1.55,1.55,0,0,0,1.67,1.66,2.27,2.27,0,0,0,.93-.17,3,3,0,0,0,.76-.48l.43.55a4.1,4.1,0,0,1-.92.58,3,3,0,0,1-1.25.24,2.86,2.86,0,0,1-1-.17,2.06,2.06,0,0,1-.78-.48,2.36,2.36,0,0,1-.5-.74,2.69,2.69,0,0,1-.17-1,3.37,3.37,0,0,1,.24-1.24,3.49,3.49,0,0,1,1.69-1.88,2.77,2.77,0,0,1,1.28-.3,2.27,2.27,0,0,1,.93.18,1.84,1.84,0,0,1,.66.45,2,2,0,0,1,.41.68,2.38,2.38,0,0,1,.14.81,2.48,2.48,0,0,1-.06.54,4.07,4.07,0,0,1-.13.5h-4.33A.49.49,0,0,0,106.56,304Zm3.67-.72a1.27,1.27,0,0,0,.06-.43,1.92,1.92,0,0,0-.08-.55,1.41,1.41,0,0,0-.25-.45,1.29,1.29,0,0,0-.44-.31,1.44,1.44,0,0,0-.61-.12,2.1,2.1,0,0,0-.76.14,2.28,2.28,0,0,0-.65.4,2.84,2.84,0,0,0-.5.59,2.77,2.77,0,0,0-.31.73Z"/><path class="cls-8" d="M113.17,300.79H114l-.23.9a3.52,3.52,0,0,1,.83-.72,2,2,0,0,1,1.09-.3,1.81,1.81,0,0,1,1.28.46,1.63,1.63,0,0,1,.49,1.25,2.12,2.12,0,0,1,0,.42c0,.15-.06.29-.1.44l-.82,3.07h-.82l.83-3.12a1.31,1.31,0,0,0,.06-.31,1.8,1.8,0,0,0,0-.31,1.05,1.05,0,0,0-.34-.84,1.25,1.25,0,0,0-.9-.31,1.78,1.78,0,0,0-.64.13,2.38,2.38,0,0,0-.58.37,2.85,2.85,0,0,0-.47.56,2.9,2.9,0,0,0-.31.72l-.83,3.11h-.82Z"/><path class="cls-8" d="M120.09,306.27a2.39,2.39,0,0,1-.78-.47,2.49,2.49,0,0,1-.54-.76,2.53,2.53,0,0,1-.2-1,3.25,3.25,0,0,1,.26-1.28,3.45,3.45,0,0,1,.71-1.07,3.27,3.27,0,0,1,1-.73,3,3,0,0,1,1.25-.28,2.77,2.77,0,0,1,.78.11,2.71,2.71,0,0,1,.62.28,2.11,2.11,0,0,1,.47.42,2.63,2.63,0,0,1,.33.49l-.67.41a2.33,2.33,0,0,0-.26-.38,2,2,0,0,0-.34-.31,1.72,1.72,0,0,0-.43-.21,1.89,1.89,0,0,0-.56-.08,2,2,0,0,0-.89.21,2.52,2.52,0,0,0-.75.58,2.76,2.76,0,0,0-.51.83,2.53,2.53,0,0,0-.19,1,1.81,1.81,0,0,0,.13.72,1.6,1.6,0,0,0,.36.54,1.39,1.39,0,0,0,.53.33,1.66,1.66,0,0,0,.62.11,1.93,1.93,0,0,0,.88-.19,3.67,3.67,0,0,0,.75-.53l.48.53a3.8,3.8,0,0,1-.94.66,2.73,2.73,0,0,1-1.21.26A2.69,2.69,0,0,1,120.09,306.27Z"/><path class="cls-8" d="M125.39,304v.11a1.55,1.55,0,0,0,1.67,1.66,2.21,2.21,0,0,0,.93-.17,3.06,3.06,0,0,0,.77-.48l.42.55a3.89,3.89,0,0,1-.92.58,2.92,2.92,0,0,1-1.24.24,2.87,2.87,0,0,1-1-.17,2.22,2.22,0,0,1-.78-.48,2.33,2.33,0,0,1-.49-.74,2.49,2.49,0,0,1-.18-1,3.37,3.37,0,0,1,.24-1.24,3.73,3.73,0,0,1,.67-1.1,3.55,3.55,0,0,1,1-.78,2.81,2.81,0,0,1,1.29-.3,2.25,2.25,0,0,1,.92.18,1.88,1.88,0,0,1,.67.45,2.11,2.11,0,0,1,.4.68,2.38,2.38,0,0,1,.14.81,3.29,3.29,0,0,1,0,.54,4.1,4.1,0,0,1-.14.5H125.4S125.39,303.91,125.39,304Zm3.68-.72a1.63,1.63,0,0,0,.05-.43,1.92,1.92,0,0,0-.08-.55,1.2,1.2,0,0,0-.68-.76,1.49,1.49,0,0,0-.62-.12,2.14,2.14,0,0,0-.76.14,2.42,2.42,0,0,0-.65.4,2.8,2.8,0,0,0-.81,1.32Z"/><path class="cls-8" d="M135.55,306.25a2.24,2.24,0,0,1-.79-.51,2.44,2.44,0,0,1-.51-.79,2.64,2.64,0,0,1-.18-1,3,3,0,0,1,.27-1.24,3.4,3.4,0,0,1,1.73-1.77,3,3,0,0,1,1.25-.28,2.82,2.82,0,0,1,1,.19,2.74,2.74,0,0,1,.8.51,2.29,2.29,0,0,1,.51.78,2.68,2.68,0,0,1,.18,1,3,3,0,0,1-.27,1.26,3.47,3.47,0,0,1-.71,1.05,3.24,3.24,0,0,1-1,.72,2.91,2.91,0,0,1-1.24.27A2.66,2.66,0,0,1,135.55,306.25Zm2-.77a2.43,2.43,0,0,0,.76-.55,2.67,2.67,0,0,0,.52-.81,2.42,2.42,0,0,0,.2-.95,1.74,1.74,0,0,0-.48-1.31,1.72,1.72,0,0,0-1.25-.46,1.91,1.91,0,0,0-.91.22,2.33,2.33,0,0,0-.75.57,2.79,2.79,0,0,0-.51.81,2.36,2.36,0,0,0-.19.94,1.68,1.68,0,0,0,.48,1.29,1.71,1.71,0,0,0,1.25.46A2,2,0,0,0,137.52,305.48Z"/><path class="cls-8" d="M142,300.79h.82l-.24.9a3.57,3.57,0,0,1,.84-.72,1.94,1.94,0,0,1,1.09-.3,1.81,1.81,0,0,1,1.28.46,1.63,1.63,0,0,1,.49,1.25,3.29,3.29,0,0,1,0,.42c0,.15-.07.29-.1.44l-.82,3.07h-.82l.83-3.12a1.31,1.31,0,0,0,.06-.31,1.72,1.72,0,0,0,0-.31,1.08,1.08,0,0,0-.33-.84,1.25,1.25,0,0,0-.9-.31,1.78,1.78,0,0,0-.64.13,2.38,2.38,0,0,0-.58.37,2.54,2.54,0,0,0-.47.56,2.57,2.57,0,0,0-.31.72l-.83,3.11h-.83Z"/><path class="cls-8" d="M152.44,298.84h2.69a3.1,3.1,0,0,1,1.7.41,1.61,1.61,0,0,1,.74,1.16,2.58,2.58,0,0,1-1.18,2.44,3.79,3.79,0,0,1-1.4.47l1.54,3h-1l-1.48-2.9h-2l-.78,2.9h-.84Zm1.84,3.82a3.62,3.62,0,0,0,1.4-.24,1.64,1.64,0,0,0,.81-.65,1.51,1.51,0,0,0,.3-1,1.07,1.07,0,0,0-.47-.81,2.18,2.18,0,0,0-1.24-.29h-2l-.82,3Z"/><path class="cls-8" d="M159.77,306.25a2.29,2.29,0,0,1-.8-.51,2.44,2.44,0,0,1-.51-.79,2.86,2.86,0,0,1-.17-1,3.17,3.17,0,0,1,.26-1.24,3.71,3.71,0,0,1,.7-1.05,3.54,3.54,0,0,1,1-.72,3,3,0,0,1,1.25-.28,2.82,2.82,0,0,1,1,.19,2.61,2.61,0,0,1,.8.51,2.29,2.29,0,0,1,.51.78,2.68,2.68,0,0,1,.18,1,3.19,3.19,0,0,1-.26,1.26,3.5,3.5,0,0,1-.72,1.05,3.2,3.2,0,0,1-1,.72,3,3,0,0,1-1.24.27A2.63,2.63,0,0,1,159.77,306.25Zm2-.77a2.5,2.5,0,0,0,.75-.55,2.91,2.91,0,0,0,.53-.81,2.41,2.41,0,0,0,.19-.95,1.74,1.74,0,0,0-.48-1.31,1.72,1.72,0,0,0-1.25-.46,1.94,1.94,0,0,0-.91.22,2.41,2.41,0,0,0-.74.57,2.62,2.62,0,0,0-.52.81,2.36,2.36,0,0,0-.19.94,1.68,1.68,0,0,0,.48,1.29,1.72,1.72,0,0,0,1.25.46A2,2,0,0,0,161.74,305.48Z"/><path class="cls-8" d="M165.86,306.33a1.72,1.72,0,0,1-.55-.3,1.38,1.38,0,0,1-.39-.47,1.53,1.53,0,0,1-.14-.66,1.9,1.9,0,0,1,.18-.83,1.73,1.73,0,0,1,.51-.63,2.61,2.61,0,0,1,.78-.4,3.42,3.42,0,0,1,1-.13,6,6,0,0,1,1.06.09c.34.06.64.13.91.2l0-.12a2,2,0,0,0,.05-.26,1.22,1.22,0,0,0,0-.26,1,1,0,0,0-.37-.83,1.84,1.84,0,0,0-1.13-.29,4.15,4.15,0,0,0-.82.08l-.74.21-.14-.68a5.93,5.93,0,0,1,.85-.24,4.88,4.88,0,0,1,1-.09,2.53,2.53,0,0,1,1.61.45,1.53,1.53,0,0,1,.56,1.26,1.61,1.61,0,0,1,0,.37c0,.13,0,.26-.08.38l-.83,3.13h-.8l.23-.86a3,3,0,0,1-.89.71,2.46,2.46,0,0,1-1.17.27A2.09,2.09,0,0,1,165.86,306.33Zm1.62-.66a3,3,0,0,0,.64-.34,2.52,2.52,0,0,0,.51-.52,1.81,1.81,0,0,0,.32-.67l.11-.38a7.24,7.24,0,0,0-.82-.18,7.5,7.5,0,0,0-1-.07,2.37,2.37,0,0,0-.68.1,1.43,1.43,0,0,0-.52.27,1.45,1.45,0,0,0-.34.4,1.15,1.15,0,0,0-.12.53.88.88,0,0,0,.32.71,1.27,1.27,0,0,0,.86.27A2.09,2.09,0,0,0,167.48,305.67Z"/><path class="cls-8" d="M172.58,306.27a2,2,0,0,1-.7-.48,2.15,2.15,0,0,1-.45-.73,2.49,2.49,0,0,1-.17-1,3.58,3.58,0,0,1,.26-1.36,3.48,3.48,0,0,1,.68-1.08,3.15,3.15,0,0,1,1-.72,2.64,2.64,0,0,1,1.17-.27,2.19,2.19,0,0,1,.75.12,1.93,1.93,0,0,1,.59.3,1.76,1.76,0,0,1,.43.43,3,3,0,0,1,.3.52l.94-3.52h.82l-2.08,7.79h-.82l.24-.94a3.86,3.86,0,0,1-.9.76,2.19,2.19,0,0,1-1.18.31A2.29,2.29,0,0,1,172.58,306.27Zm2-.78a2.7,2.7,0,0,0,.78-.57,3.19,3.19,0,0,0,.56-.83,2.37,2.37,0,0,0,.21-1,1.81,1.81,0,0,0-.12-.67,1.68,1.68,0,0,0-.35-.54,1.58,1.58,0,0,0-.54-.37,1.94,1.94,0,0,0-.7-.13,2,2,0,0,0-.91.21,2.43,2.43,0,0,0-.73.58,2.53,2.53,0,0,0-.49.83,2.87,2.87,0,0,0-.18,1,1.92,1.92,0,0,0,.12.69,1.35,1.35,0,0,0,.32.53,1.42,1.42,0,0,0,.49.35,1.67,1.67,0,0,0,.63.11A2,2,0,0,0,174.59,305.49Z"/><path class="cls-8" d="M182.25,306.33a1.72,1.72,0,0,1-.55-.3,1.38,1.38,0,0,1-.39-.47,1.53,1.53,0,0,1-.14-.66,1.9,1.9,0,0,1,.18-.83,1.73,1.73,0,0,1,.51-.63,2.61,2.61,0,0,1,.78-.4,3.42,3.42,0,0,1,1-.13,6,6,0,0,1,1.06.09c.33.06.64.13.91.2l0-.12a2,2,0,0,0,0-.26,1.18,1.18,0,0,0,0-.26,1,1,0,0,0-.36-.83,1.84,1.84,0,0,0-1.13-.29,4.15,4.15,0,0,0-.82.08l-.74.21-.14-.68a5.58,5.58,0,0,1,.85-.24,4.81,4.81,0,0,1,1-.09,2.48,2.48,0,0,1,1.6.45,1.51,1.51,0,0,1,.57,1.26,2.46,2.46,0,0,1,0,.37c0,.13-.05.26-.08.38l-.84,3.13h-.8l.24-.86a3,3,0,0,1-.89.71,2.46,2.46,0,0,1-1.17.27A2.09,2.09,0,0,1,182.25,306.33Zm1.62-.66a2.72,2.72,0,0,0,.63-.34,2.33,2.33,0,0,0,.52-.52,1.81,1.81,0,0,0,.32-.67l.11-.38a7.24,7.24,0,0,0-.82-.18,7.5,7.5,0,0,0-1-.07,2.37,2.37,0,0,0-.68.1,1.35,1.35,0,0,0-.52.27,1.45,1.45,0,0,0-.34.4,1.15,1.15,0,0,0-.12.53.88.88,0,0,0,.32.71,1.26,1.26,0,0,0,.85.27A2.1,2.1,0,0,0,183.87,305.67Z"/><path class="cls-8" d="M188.77,300.79h.82l-.23.9a3.52,3.52,0,0,1,.83-.72,2,2,0,0,1,1.09-.3,1.81,1.81,0,0,1,1.28.46,1.63,1.63,0,0,1,.49,1.25,2.12,2.12,0,0,1,0,.42c0,.15-.06.29-.1.44l-.82,3.07h-.82l.83-3.12a1.31,1.31,0,0,0,.06-.31,1.8,1.8,0,0,0,0-.31,1.05,1.05,0,0,0-.34-.84,1.25,1.25,0,0,0-.9-.31,1.78,1.78,0,0,0-.64.13,2.38,2.38,0,0,0-.58.37,2.85,2.85,0,0,0-.47.56,2.57,2.57,0,0,0-.31.72l-.83,3.11h-.82Z"/><path class="cls-8" d="M195.51,306.27a1.87,1.87,0,0,1-.69-.48,2,2,0,0,1-.46-.73,2.69,2.69,0,0,1-.17-1,3.58,3.58,0,0,1,.26-1.36,3.33,3.33,0,0,1,.69-1.08,3.11,3.11,0,0,1,1-.72,2.67,2.67,0,0,1,1.17-.27,2.24,2.24,0,0,1,.76.12,1.88,1.88,0,0,1,.58.3,2,2,0,0,1,.44.43,3.81,3.81,0,0,1,.29.52l.94-3.52h.82L199,306.31h-.82l.24-.94a3.86,3.86,0,0,1-.9.76,2.19,2.19,0,0,1-1.18.31A2.29,2.29,0,0,1,195.51,306.27Zm2-.78a2.57,2.57,0,0,0,.78-.57,3,3,0,0,0,.56-.83,2.37,2.37,0,0,0,.21-1,1.81,1.81,0,0,0-.12-.67,1.53,1.53,0,0,0-.35-.54,1.58,1.58,0,0,0-.54-.37,1.94,1.94,0,0,0-.7-.13,2,2,0,0,0-.91.21,2.56,2.56,0,0,0-.73.58,2.53,2.53,0,0,0-.49.83,3.1,3.1,0,0,0-.17,1,1.92,1.92,0,0,0,.11.69,1.35,1.35,0,0,0,.32.53,1.37,1.37,0,0,0,.5.35,1.61,1.61,0,0,0,.63.11A2,2,0,0,0,197.52,305.49Z"/><path class="cls-8" d="M208.89,298.78h.82l1.38,7.53h-.86l-.34-2h-4.08l-1.41,2h-.93Zm.86,4.81-.67-3.83-2.74,3.83Z"/><path class="cls-8" d="M213.76,300.79h.82l-1.48,5.52h-.82Zm.52-2.11h.93l-.24.91H214Z"/><path class="cls-8" d="M216.5,300.79h.82l-.38,1.44a5,5,0,0,1,.54-.65,3.24,3.24,0,0,1,.62-.5,2.63,2.63,0,0,1,.69-.3,2.2,2.2,0,0,1,.78-.08l-.23.88h-.06a2.55,2.55,0,0,0-.89.17,2.84,2.84,0,0,0-.82.48,3.31,3.31,0,0,0-.67.8,4.39,4.39,0,0,0-.47,1.1l-.59,2.18H215Z"/><path class="cls-8" d="M220.92,301.52h-.76l.19-.73h.76l.18-.66a2.29,2.29,0,0,1,.7-1.23,1.77,1.77,0,0,1,1.19-.4,2.32,2.32,0,0,1,1.1.23l-.19.71a2.19,2.19,0,0,0-.46-.17,1.63,1.63,0,0,0-.45-.06,1,1,0,0,0-.68.25,1.64,1.64,0,0,0-.43.8l-.14.53h1.8l-.2.73h-1.79l-1.29,4.79h-.83Z"/><path class="cls-8" d="M224.88,300.79h.82l-1.49,5.52h-.82Zm.51-2.11h.94l-.25.91h-.94Z"/><path class="cls-8" d="M227.29,304v.11a1.55,1.55,0,0,0,1.67,1.66,2.19,2.19,0,0,0,.92-.17,2.89,2.89,0,0,0,.77-.48l.43.55a4.1,4.1,0,0,1-.92.58,3.21,3.21,0,0,1-2.25.07,2.1,2.1,0,0,1-.77-.48,2.36,2.36,0,0,1-.5-.74,2.69,2.69,0,0,1-.17-1,3.37,3.37,0,0,1,.24-1.24A3.49,3.49,0,0,1,228.4,301a2.77,2.77,0,0,1,1.28-.3,2.19,2.19,0,0,1,.92.18,1.88,1.88,0,0,1,.67.45,2.13,2.13,0,0,1,.41.68,2.38,2.38,0,0,1,.14.81,2.48,2.48,0,0,1-.06.54,2.85,2.85,0,0,1-.14.5H227.3A.49.49,0,0,0,227.29,304Zm3.67-.72a1.27,1.27,0,0,0,.06-.43,1.92,1.92,0,0,0-.08-.55,1.41,1.41,0,0,0-.25-.45,1.29,1.29,0,0,0-.44-.31,1.44,1.44,0,0,0-.61-.12,2.1,2.1,0,0,0-.76.14,2.28,2.28,0,0,0-.65.4,2.84,2.84,0,0,0-.5.59,2.77,2.77,0,0,0-.31.73Z"/><path class="cls-8" d="M234.59,298.52h.82l-2.09,7.79h-.82Z"/><path class="cls-8" d="M236.91,306.27a2,2,0,0,1-.69-.48,2,2,0,0,1-.46-.73,2.69,2.69,0,0,1-.16-1,3.58,3.58,0,0,1,.25-1.36,3.33,3.33,0,0,1,.69-1.08,3.15,3.15,0,0,1,1-.72,2.63,2.63,0,0,1,1.16-.27,2.2,2.2,0,0,1,.76.12,2,2,0,0,1,1,.73,2.44,2.44,0,0,1,.29.52l.94-3.52h.82l-2.08,7.79h-.82l.25-.94a4.13,4.13,0,0,1-.91.76,2.16,2.16,0,0,1-1.18.31A2.29,2.29,0,0,1,236.91,306.27Zm2-.78a2.61,2.61,0,0,0,.79-.57,3.16,3.16,0,0,0,.55-.83,2.38,2.38,0,0,0,.22-1,1.82,1.82,0,0,0-.13-.67,1.66,1.66,0,0,0-.34-.54,1.58,1.58,0,0,0-.54-.37,2,2,0,0,0-.7-.13,2.07,2.07,0,0,0-.92.21,2.56,2.56,0,0,0-.73.58,2.51,2.51,0,0,0-.48.83,2.87,2.87,0,0,0-.18,1,2.17,2.17,0,0,0,.11.69,1.49,1.49,0,0,0,.82.88,1.61,1.61,0,0,0,.63.11A1.93,1.93,0,0,0,238.92,305.49Z"/><path class="cls-8" d="M49.37,311.65h2.34a4.11,4.11,0,0,1,1.23.17,2.12,2.12,0,0,1,.9.52,1.88,1.88,0,0,1,.54,1.39,2.42,2.42,0,0,1-.27,1.16,2.57,2.57,0,0,1-.75.86,3.7,3.7,0,0,1-1.17.53,5.8,5.8,0,0,1-1.5.19H48.92l-.72,2.65h-.84Zm1.38,4.07a3.55,3.55,0,0,0,2-.5,1.66,1.66,0,0,0,.72-1.43,1.19,1.19,0,0,0-.34-.89,2.06,2.06,0,0,0-1.49-.47H50l-.88,3.29Z"/><path class="cls-8" d="M55.46,319.14a2,2,0,0,1-.56-.29,1.37,1.37,0,0,1-.38-.48,1.4,1.4,0,0,1-.15-.66,1.91,1.91,0,0,1,.19-.83,1.73,1.73,0,0,1,.51-.63,2.38,2.38,0,0,1,.78-.39,3.06,3.06,0,0,1,1-.14,6.06,6.06,0,0,1,1.06.09,8.59,8.59,0,0,1,.9.21l0-.13a1.72,1.72,0,0,0,.05-.26,2.5,2.5,0,0,0,0-.25,1,1,0,0,0-.37-.84,1.81,1.81,0,0,0-1.12-.28,3.51,3.51,0,0,0-.82.08,6.77,6.77,0,0,0-.74.2l-.14-.68a5.8,5.8,0,0,1,.84-.24,4.91,4.91,0,0,1,1-.09,2.5,2.5,0,0,1,1.6.45,1.52,1.52,0,0,1,.56,1.26,2.4,2.4,0,0,1,0,.37,2.74,2.74,0,0,1-.09.39l-.83,3.12H58l.24-.86a2.92,2.92,0,0,1-.9.71,2.39,2.39,0,0,1-1.16.27A2.09,2.09,0,0,1,55.46,319.14Zm1.62-.66a2.56,2.56,0,0,0,.63-.34,2.14,2.14,0,0,0,.52-.52,1.84,1.84,0,0,0,.32-.66l.11-.39a5.77,5.77,0,0,0-.83-.17,6,6,0,0,0-1-.07,2.43,2.43,0,0,0-.68.09,1.76,1.76,0,0,0-.51.27,1.16,1.16,0,0,0-.46.93.86.86,0,0,0,.31.71,1.28,1.28,0,0,0,.86.27A2.1,2.1,0,0,0,57.08,318.48Z"/><path class="cls-8" d="M61.26,313.6h.87l.62,4.58,3-4.58h.93l-3.86,5.57h-.72Z"/><path class="cls-8" d="M67.7,316.76v.11a1.63,1.63,0,0,0,.45,1.21,1.6,1.6,0,0,0,1.21.46,2.38,2.38,0,0,0,.93-.17,3.51,3.51,0,0,0,.77-.48l.43.54a4.1,4.1,0,0,1-.92.58,3,3,0,0,1-1.25.24,2.73,2.73,0,0,1-1-.17,2.1,2.1,0,0,1-.77-.48,2.25,2.25,0,0,1-.5-.74,2.69,2.69,0,0,1-.17-1,3.37,3.37,0,0,1,.24-1.24,3.53,3.53,0,0,1,.67-1.1,3.35,3.35,0,0,1,1-.77,2.77,2.77,0,0,1,1.28-.3,2.19,2.19,0,0,1,.92.17,1.78,1.78,0,0,1,.67.46,2,2,0,0,1,.41.67,2.46,2.46,0,0,1,.14.81,2.35,2.35,0,0,1-.06.54,3.23,3.23,0,0,1-.14.51H67.71A.37.37,0,0,0,67.7,316.76Zm3.67-.72a1.3,1.3,0,0,0,0-.43,1.67,1.67,0,0,0-.08-.55,1.11,1.11,0,0,0-.25-.45,1.16,1.16,0,0,0-.43-.31,1.44,1.44,0,0,0-.61-.12,2,2,0,0,0-.77.15,2.12,2.12,0,0,0-.64.39,2.84,2.84,0,0,0-.5.59,2.77,2.77,0,0,0-.31.73Z"/><path class="cls-8" d="M74.31,313.6h.82l-.23.9a4.17,4.17,0,0,1,.8-.72,1.74,1.74,0,0,1,1-.29,1.68,1.68,0,0,1,.62.1,1.62,1.62,0,0,1,.46.28,1.35,1.35,0,0,1,.31.4,1.43,1.43,0,0,1,.18.47,2.92,2.92,0,0,1,.93-.92,2.48,2.48,0,0,1,1.29-.33,1.83,1.83,0,0,1,.68.12,1.4,1.4,0,0,1,.53.35,1.53,1.53,0,0,1,.35.54,1.92,1.92,0,0,1,.12.69,2.18,2.18,0,0,1,0,.42c0,.15-.07.3-.1.44l-.81,3.07h-.83l.85-3.12a1.31,1.31,0,0,0,.06-.31c0-.11,0-.21,0-.31a1.06,1.06,0,0,0-1.14-1.15,1.47,1.47,0,0,0-.61.14,2,2,0,0,0-.55.37,2.81,2.81,0,0,0-.46.56,2.59,2.59,0,0,0-.29.71l-.82,3.11h-.82l.83-3.12a1.31,1.31,0,0,0,.06-.31,1.67,1.67,0,0,0,0-.31,1.14,1.14,0,0,0-.3-.84,1.16,1.16,0,0,0-.85-.31,1.39,1.39,0,0,0-.6.14,2,2,0,0,0-.55.37,3.2,3.2,0,0,0-.46.56,3,3,0,0,0-.3.71l-.83,3.11h-.83Z"/><path class="cls-8" d="M84.13,316.76v.11a1.63,1.63,0,0,0,.45,1.21,1.61,1.61,0,0,0,1.22.46,2.36,2.36,0,0,0,.92-.17,3.51,3.51,0,0,0,.77-.48l.43.54A4.1,4.1,0,0,1,87,319a3,3,0,0,1-1.25.24,2.73,2.73,0,0,1-1-.17,2.1,2.1,0,0,1-.77-.48,2.25,2.25,0,0,1-.5-.74,2.69,2.69,0,0,1-.17-1,3.37,3.37,0,0,1,.24-1.24,3.53,3.53,0,0,1,.67-1.1,3.35,3.35,0,0,1,1-.77,2.77,2.77,0,0,1,1.28-.3,2.27,2.27,0,0,1,.93.17,1.94,1.94,0,0,1,1.07,1.13,2.46,2.46,0,0,1,.14.81,2.35,2.35,0,0,1-.06.54,3.23,3.23,0,0,1-.14.51H84.14A.37.37,0,0,0,84.13,316.76ZM87.8,316a1.27,1.27,0,0,0,.06-.43,2,2,0,0,0-.08-.55,1.41,1.41,0,0,0-.25-.45,1.29,1.29,0,0,0-.44-.31,1.44,1.44,0,0,0-.61-.12,1.91,1.91,0,0,0-.76.15,2,2,0,0,0-.65.39,2.84,2.84,0,0,0-.5.59,2.77,2.77,0,0,0-.31.73Z"/><path class="cls-8" d="M90.74,313.6h.82l-.23.9a4.05,4.05,0,0,1,.83-.72,1.93,1.93,0,0,1,1.09-.29,1.76,1.76,0,0,1,1.28.46,1.6,1.6,0,0,1,.49,1.24,2.12,2.12,0,0,1,0,.42c0,.15-.06.3-.1.44l-.82,3.07h-.82l.83-3.12a1.31,1.31,0,0,0,.06-.31,1.71,1.71,0,0,0,0-.31,1.08,1.08,0,0,0-.34-.84,1.29,1.29,0,0,0-.9-.31,1.61,1.61,0,0,0-.64.14,2.34,2.34,0,0,0-.58.36,2.85,2.85,0,0,0-.47.56,2.57,2.57,0,0,0-.31.72l-.83,3.11h-.82Z"/><path class="cls-8" d="M96.81,319a1,1,0,0,1-.37-.82c0-.1,0-.2,0-.3s0-.19.05-.28l.87-3.22h-.76l.19-.73h.77l.45-1.66h.81l-.45,1.66h1.74l-.19.73H98.2l-.85,3.17a.76.76,0,0,0,0,.21,1.68,1.68,0,0,0,0,.2.46.46,0,0,0,.21.42.9.9,0,0,0,.55.14,2.27,2.27,0,0,0,.8-.16l-.2.75a1.66,1.66,0,0,1-.42.12,2.15,2.15,0,0,1-.45,0A1.65,1.65,0,0,1,96.81,319Z"/><path class="cls-8" d="M107,312.43h-2.52l.21-.78h5.89l-.22.78h-2.52l-1.79,6.69h-.84Z"/><path class="cls-8" d="M111,316.76v.11a1.57,1.57,0,0,0,1.67,1.67,2.41,2.41,0,0,0,.93-.17,3.76,3.76,0,0,0,.77-.48l.42.54a3.89,3.89,0,0,1-.92.58,2.92,2.92,0,0,1-1.24.24,2.66,2.66,0,0,1-1-.17,2.09,2.09,0,0,1-1.27-1.22,2.49,2.49,0,0,1-.18-1,3.37,3.37,0,0,1,.24-1.24,3.73,3.73,0,0,1,.67-1.1,3.35,3.35,0,0,1,1-.77,2.81,2.81,0,0,1,1.29-.3,2.25,2.25,0,0,1,.92.17,1.78,1.78,0,0,1,.67.46,2,2,0,0,1,.4.67,2.46,2.46,0,0,1,.14.81,3.1,3.1,0,0,1,0,.54,4.84,4.84,0,0,1-.14.51H111S111,316.72,111,316.76Zm3.68-.72a1.63,1.63,0,0,0,0-.43,2,2,0,0,0-.08-.55,1.2,1.2,0,0,0-.68-.76,1.49,1.49,0,0,0-.62-.12,1.94,1.94,0,0,0-.76.15,2.16,2.16,0,0,0-.65.39,2.8,2.8,0,0,0-.81,1.32Z"/><path class="cls-8" d="M118,319.09a2.42,2.42,0,0,1-.78-.48,2.34,2.34,0,0,1-.74-1.77,3.25,3.25,0,0,1,.26-1.28,3.57,3.57,0,0,1,.71-1.07,3.27,3.27,0,0,1,1-.73,2.93,2.93,0,0,1,1.25-.27,2.78,2.78,0,0,1,.78.1,2.36,2.36,0,0,1,.62.29,1.85,1.85,0,0,1,.47.41,2.63,2.63,0,0,1,.33.49l-.67.41a1.9,1.9,0,0,0-.26-.37,2,2,0,0,0-.34-.31,1.74,1.74,0,0,0-.43-.22,1.94,1.94,0,0,0-.56-.08,1.86,1.86,0,0,0-.89.22,2.33,2.33,0,0,0-.75.57,2.69,2.69,0,0,0-.51.83,2.61,2.61,0,0,0-.2,1,1.81,1.81,0,0,0,.14.72,1.5,1.5,0,0,0,.36.54,1.39,1.39,0,0,0,.53.33,1.63,1.63,0,0,0,.62.12,1.93,1.93,0,0,0,.88-.2,3.32,3.32,0,0,0,.75-.53l.48.53a4.13,4.13,0,0,1-.94.67,2.73,2.73,0,0,1-1.21.25A2.68,2.68,0,0,1,118,319.09Z"/><path class="cls-8" d="M124.25,311.33h.82l-.85,3.17a4.34,4.34,0,0,1,.83-.72,2,2,0,0,1,1.09-.29,1.79,1.79,0,0,1,1.29.46,1.63,1.63,0,0,1,.48,1.24,2.12,2.12,0,0,1,0,.42c0,.15-.06.3-.1.44l-.82,3.07h-.82L127,316a2.05,2.05,0,0,0,.07-.31c0-.11,0-.21,0-.31a1.08,1.08,0,0,0-.33-.84,1.3,1.3,0,0,0-.91-.31,1.6,1.6,0,0,0-.63.14,2.39,2.39,0,0,0-.59.36,3.24,3.24,0,0,0-.47.56,3.33,3.33,0,0,0-.31.72l-.83,3.11h-.82Z"/><path class="cls-8" d="M130.18,313.6H131l-.24.9a4.11,4.11,0,0,1,.84-.72,1.93,1.93,0,0,1,1.09-.29A1.76,1.76,0,0,1,134,314a1.6,1.6,0,0,1,.49,1.24,3.29,3.29,0,0,1,0,.42c0,.15-.07.3-.1.44l-.82,3.07h-.82l.83-3.12a1.31,1.31,0,0,0,.06-.31,1.67,1.67,0,0,0,0-.31,1.08,1.08,0,0,0-.33-.84,1.29,1.29,0,0,0-.9-.31,1.61,1.61,0,0,0-.64.14,2.34,2.34,0,0,0-.58.36,2.54,2.54,0,0,0-.47.56,2.57,2.57,0,0,0-.31.72l-.83,3.11h-.83Z"/><path class="cls-8" d="M137.07,319.07a2.46,2.46,0,0,1-.8-.52,2.09,2.09,0,0,1-.5-.79,2.63,2.63,0,0,1-.18-1,3.13,3.13,0,0,1,.26-1.24,3.65,3.65,0,0,1,.71-1.06,3.41,3.41,0,0,1,1-.72,3,3,0,0,1,1.25-.27,2.86,2.86,0,0,1,1,.18,2.41,2.41,0,0,1,.79.52,2.12,2.12,0,0,1,.51.78,2.45,2.45,0,0,1,.19,1,3,3,0,0,1-.27,1.26,3.5,3.5,0,0,1-.72,1.05,3.39,3.39,0,0,1-1,.73,3.1,3.1,0,0,1-1.24.26A2.82,2.82,0,0,1,137.07,319.07Zm2-.77a2.77,2.77,0,0,0,.76-.56,2.88,2.88,0,0,0,.52-.81,2.41,2.41,0,0,0,.19-.95,1.64,1.64,0,0,0-1.73-1.77,2,2,0,0,0-.9.22,2.66,2.66,0,0,0-.75.57,2.53,2.53,0,0,0-.51.81,2.41,2.41,0,0,0-.2.94,1.72,1.72,0,0,0,.48,1.3,1.76,1.76,0,0,0,1.25.45A2,2,0,0,0,139,318.3Z"/><path class="cls-8" d="M144.23,311.33h.82L143,319.12h-.82Z"/><path class="cls-8" d="M146.7,319.07a2.46,2.46,0,0,1-.8-.52,2.09,2.09,0,0,1-.5-.79,2.63,2.63,0,0,1-.18-1,3.13,3.13,0,0,1,.26-1.24,3.65,3.65,0,0,1,.71-1.06,3.41,3.41,0,0,1,1-.72,2.93,2.93,0,0,1,1.25-.27,2.86,2.86,0,0,1,1,.18,2.41,2.41,0,0,1,.79.52,2.12,2.12,0,0,1,.51.78,2.45,2.45,0,0,1,.19,1,3,3,0,0,1-.27,1.26,3.5,3.5,0,0,1-.72,1.05,3.39,3.39,0,0,1-1,.73,3.1,3.1,0,0,1-1.24.26A2.82,2.82,0,0,1,146.7,319.07Zm2-.77a2.77,2.77,0,0,0,.76-.56,2.88,2.88,0,0,0,.52-.81,2.41,2.41,0,0,0,.19-.95,1.64,1.64,0,0,0-1.73-1.77,2,2,0,0,0-.9.22,2.66,2.66,0,0,0-.75.57,2.53,2.53,0,0,0-.51.81,2.41,2.41,0,0,0-.2.94,1.72,1.72,0,0,0,.48,1.3,1.76,1.76,0,0,0,1.25.45A2,2,0,0,0,148.67,318.3Z"/><path class="cls-8" d="M152.59,320.6a3.77,3.77,0,0,1-1.22-.71l.51-.57a3.75,3.75,0,0,0,1,.6,3,3,0,0,0,1.18.23A2.31,2.31,0,0,0,155,320a1.9,1.9,0,0,0,.64-.41A2.06,2.06,0,0,0,156,319a4.35,4.35,0,0,0,.28-.75l.15-.56a3.66,3.66,0,0,1-.92.71,2.41,2.41,0,0,1-1.19.29,2.64,2.64,0,0,1-.84-.14,2.14,2.14,0,0,1-.72-.41,2,2,0,0,1-.5-.65,2.08,2.08,0,0,1-.18-.89,3.12,3.12,0,0,1,.26-1.26,3.35,3.35,0,0,1,.7-1,3,3,0,0,1,1-.64,2.82,2.82,0,0,1,1.13-.23,2.3,2.3,0,0,1,.78.11,1.77,1.77,0,0,1,.56.3,1.81,1.81,0,0,1,.41.42,4.08,4.08,0,0,1,.28.49l.32-1.21h.82l-1.26,4.73a4.69,4.69,0,0,1-.38,1,2.8,2.8,0,0,1-.51.7,2.65,2.65,0,0,1-.91.59,3.53,3.53,0,0,1-1.23.19A4.38,4.38,0,0,1,152.59,320.6Zm2.88-2.79a2.59,2.59,0,0,0,.75-.5,2.41,2.41,0,0,0,.52-.71,1.87,1.87,0,0,0,.19-.83,1.47,1.47,0,0,0-.12-.58,1.41,1.41,0,0,0-.33-.5,1.68,1.68,0,0,0-.54-.35,2,2,0,0,0-.71-.13,2.21,2.21,0,0,0-.84.17,2.44,2.44,0,0,0-.73.48,2.52,2.52,0,0,0-.51.73,2.2,2.2,0,0,0-.19.92,1.64,1.64,0,0,0,.13.65,1.37,1.37,0,0,0,.36.46,1.8,1.8,0,0,0,.51.28,2.1,2.1,0,0,0,.61.09A2.26,2.26,0,0,0,155.47,317.81Z"/><path class="cls-8" d="M158.3,320.76a2.26,2.26,0,0,1-.56-.28l.45-.62a1.35,1.35,0,0,0,.4.2,1.53,1.53,0,0,0,.45.08,1.19,1.19,0,0,0,.68-.22,3.18,3.18,0,0,0,.76-.81l-1-5.51h.86l.77,4.61,3-4.61H165l-3.78,5.71a4.16,4.16,0,0,1-1.11,1.21,2.06,2.06,0,0,1-1.15.34A2,2,0,0,1,158.3,320.76Z"/><path class="cls-8" d="M167.81,318.46l4.28-3.24a5.12,5.12,0,0,0,.94-.88,1.42,1.42,0,0,0,.31-.89,1,1,0,0,0-.37-.82,1.59,1.59,0,0,0-1.05-.32,2.15,2.15,0,0,0-1.13.3,4.54,4.54,0,0,0-.92.73l-.55-.54a4.77,4.77,0,0,1,1.15-.9,3,3,0,0,1,1.48-.36,2.91,2.91,0,0,1,.92.14,1.93,1.93,0,0,1,.71.38,1.7,1.7,0,0,1,.63,1.34,2,2,0,0,1-.41,1.21,6.47,6.47,0,0,1-1.18,1.13l-3.45,2.62h4l-.2.76h-5.32Z"/><path class="cls-8" d="M176.55,319a2.24,2.24,0,0,1-.82-.6,2.47,2.47,0,0,1-.51-.91,3.87,3.87,0,0,1-.17-1.16,5.62,5.62,0,0,1,1.08-3.31,4.2,4.2,0,0,1,1.23-1.11,3,3,0,0,1,1.58-.43,2.65,2.65,0,0,1,1.11.22,2.33,2.33,0,0,1,.82.59,2.74,2.74,0,0,1,.51.92,3.8,3.8,0,0,1,.17,1.15,5.58,5.58,0,0,1-.28,1.76,5.3,5.3,0,0,1-.8,1.55,4.15,4.15,0,0,1-1.22,1.11,3,3,0,0,1-1.58.43A2.8,2.8,0,0,1,176.55,319Zm2.33-.92a3.36,3.36,0,0,0,.94-.94,4.84,4.84,0,0,0,.64-1.31,4.91,4.91,0,0,0,.23-1.47,2.84,2.84,0,0,0-.12-.84,2,2,0,0,0-.35-.67,1.68,1.68,0,0,0-.57-.44,1.71,1.71,0,0,0-.77-.16,2.06,2.06,0,0,0-1.16.36,3.81,3.81,0,0,0-.94.94,5,5,0,0,0-.86,2.78,2.76,2.76,0,0,0,.11.84,2,2,0,0,0,.35.67,1.43,1.43,0,0,0,.56.44,1.73,1.73,0,0,0,.78.16A2.06,2.06,0,0,0,178.88,318.12Z"/><path class="cls-8" d="M181.8,318.46l4.28-3.24a5.36,5.36,0,0,0,.93-.88,1.43,1.43,0,0,0,.32-.89,1,1,0,0,0-.38-.82,1.54,1.54,0,0,0-1-.32,2.15,2.15,0,0,0-1.13.3,4.29,4.29,0,0,0-.92.73l-.56-.54a5,5,0,0,1,1.16-.9,3,3,0,0,1,1.48-.36,3,3,0,0,1,.92.14,2,2,0,0,1,.71.38,1.65,1.65,0,0,1,.62,1.34,2,2,0,0,1-.4,1.21,6.57,6.57,0,0,1-1.19,1.13l-3.45,2.62h4l-.21.76h-5.31Z"/><path class="cls-8" d="M189.33,318.87a3.2,3.2,0,0,1-1-.94l.65-.48a2.73,2.73,0,0,0,.85.78,2.3,2.3,0,0,0,1.15.27,2.52,2.52,0,0,0,.89-.15,2.07,2.07,0,0,0,.68-.4,1.79,1.79,0,0,0,.44-.59,1.71,1.71,0,0,0,.16-.7,1.28,1.28,0,0,0-.47-1.05,1.81,1.81,0,0,0-1.21-.38,3.32,3.32,0,0,0-.74.09,3.5,3.5,0,0,0-.79.31l-.48-.38,1.18-3.6h4.17l-.22.78h-3.41l-.79,2.34a2.86,2.86,0,0,1,.61-.21,3.47,3.47,0,0,1,.67-.08,3,3,0,0,1,1,.15,2.23,2.23,0,0,1,.74.42,1.72,1.72,0,0,1,.48.67,2.21,2.21,0,0,1,.17.87,2.36,2.36,0,0,1-.22,1,2.52,2.52,0,0,1-.63.85,2.92,2.92,0,0,1-1,.59,3.79,3.79,0,0,1-1.29.21A3.05,3.05,0,0,1,189.33,318.87Z"/><path class="cls-13" d="M11.5,5a6.68,6.68,0,0,0-1.37,1.39L8.59,5.23a11.81,11.81,0,0,1,.9-1.1,4.79,4.79,0,0,1,1-.82,4.63,4.63,0,0,1,1.18-.51,5.5,5.5,0,0,1,1.48-.18,4.92,4.92,0,0,1,1.67.27,3.45,3.45,0,0,1,2.11,1.93,3.84,3.84,0,0,1,.29,1.51A4.17,4.17,0,0,1,17,7.65a4.37,4.37,0,0,1-.59,1.13,8.33,8.33,0,0,1-1,1.11c-.41.38-.88.79-1.42,1.23l-2.54,2.12h5.87v1.91H8.42V13.44l4.25-3.61q.63-.53,1.08-1a6.16,6.16,0,0,0,.71-.82,3.29,3.29,0,0,0,.4-.76A2.52,2.52,0,0,0,15,6.5a1.8,1.8,0,0,0-.57-1.42A2.12,2.12,0,0,0,13,4.58,2.46,2.46,0,0,0,11.5,5Z"/></g></g></svg>