<svg xmlns="http://www.w3.org/2000/svg" xmlns:xlink="http://www.w3.org/1999/xlink" viewBox="0 0 452.72 280.43"><defs><style>.cls-1{opacity:0.1;fill:url(#linear-gradient);}.cls-2{opacity:0.15;fill:url(#linear-gradient-2);}.cls-3{opacity:0.07;fill:url(#linear-gradient-3);}.cls-4{fill:#686aad;}.cls-5{fill:#f8ac1f;}.cls-6{fill:url(#linear-gradient-4);}.cls-7{fill:#fff;}.cls-10,.cls-7,.cls-8,.cls-9{fill-rule:evenodd;}.cls-11,.cls-8{fill:#5c181e;}.cls-9{fill:url(#linear-gradient-5);}.cls-10{fill:url(#linear-gradient-6);}</style><linearGradient id="linear-gradient" x1="2864.26" y1="390.71" x2="2702.37" y2="434.09" gradientTransform="matrix(-0.98, -0.17, -0.17, 0.98, 3181.77, 241.32)" gradientUnits="userSpaceOnUse"><stop offset="0" stop-color="#fff"/><stop offset="0.52" stop-color="#8b4b44"/><stop offset="1" stop-color="#691018"/></linearGradient><linearGradient id="linear-gradient-2" x1="2345.73" y1="-1055.91" x2="2454.74" y2="-1055.91" gradientTransform="matrix(-0.45, 0.89, 0.89, 0.45, 2277.81, -1446.56)" xlink:href="#linear-gradient"/><linearGradient id="linear-gradient-3" x1="1818.65" y1="-1087.94" x2="1898.78" y2="-1087.94" gradientTransform="matrix(-0.27, 0.96, 0.96, 0.27, 1892.73, -1459.63)" xlink:href="#linear-gradient"/><linearGradient id="linear-gradient-4" x1="371.52" y1="51.88" x2="253.59" y2="167.08" gradientUnits="userSpaceOnUse"><stop offset="0.1" stop-color="#d3b8b1"/><stop offset="0.52" stop-color="#8b4b44"/><stop offset="1" stop-color="#691018"/></linearGradient><linearGradient id="linear-gradient-5" x1="215.14" y1="171.44" x2="377.29" y2="171.44" xlink:href="#linear-gradient-4"/><linearGradient id="linear-gradient-6" x1="233.27" y1="225.75" x2="367.83" y2="187.02" xlink:href="#linear-gradient-4"/></defs><g id="Layer_2" data-name="Layer 2"><g id="Layer_1-2" data-name="Layer 1"><path class="cls-1" d="M434.56,138.35c-2.24-4.87-2.67-5.7-5-10.56l9.88-12.66a89.43,89.43,0,0,0-9-11.44l-14.62,7.12c-4.3-3.25-5-3.88-9.36-7l3-16.4a85.15,85.15,0,0,0-13.07-5.76l-7.32,10L387.33,94c.66,6.13.94,10.79-.41,15.71.28.12.56.19.8.31a53.76,53.76,0,1,1-44.62,3.39c.91-.52,1.83-1,2.79-1.44l1.85-.82c.92-.44,1.89-.79,2.86-1.18a8.37,8.37,0,0,1,.93-.3,34.9,34.9,0,0,1,3.77-1.15,53.28,53.28,0,0,1,9.69-1.61c2.67-.21,19.33,2.6,21.93,2.8,2-3.06,4.3-15.44.41-15.71-5.44-.39-5.44-.39-12.13-.78a2.48,2.48,0,0,0-.27,0l-1.15-3.72-1.51-4.75-2.4-7.63c-2.41,0-4.76.1-7.16.28-1.62.13-3.29.3-4.91.52l-2.11.3-.37,2.34-2.21,14.35c-.44.17-.84.29-1.24.41-1.77.59-2.92,1-4.16,1.41s-2.52.83-4.43,1.43c-.4.12-.79.29-1.24.42l-.88-.84-4.09-4.09-3.49-3.46-3.4-3.42a81.54,81.54,0,0,0-12,7.7l5.35,15.76c-3.71,3.78-4.42,4.52-8.12,8.39l-15.5-4.8a80.75,80.75,0,0,0-7.15,12.68l11.66,11c-1.51,5.15-1.76,6-3.32,11.2l-15.18,2.85a80.15,80.15,0,0,0-.35,14.88l14.58,4.06c1,5.32,1.25,6.22,2.34,11.54l-11.57,9a82.76,82.76,0,0,0,6.78,13.7l14.08-3c3.32,4.15,3.93,5,7.33,9.07l-5.65,12.74A78.33,78.33,0,0,0,326,232.72L336.55,224c4.93,2.12,5.78,2.51,10.71,4.58l.85,13.47a81.24,81.24,0,0,0,15.55,2.49l5.14-12.35,11.65-.9,7,11.41a82.17,82.17,0,0,0,15-4.84l-1.22-13.44c4.55-2.8,5.38-3.32,9.93-6.17l11.71,7a81.32,81.32,0,0,0,11-11l-7.58-11.73c2.73-4.57,3.21-5.47,5.9-10.09l14.32.81a79.07,79.07,0,0,0,4.6-14.58l-12.72-7.15c.22-5.42.24-6.33.45-11.75l13.88-6.25A88.26,88.26,0,0,0,450,138.84Z"/><path class="cls-2" d="M269.11,182.25c-3.45-.51-4.05-.57-7.53-1l-3.4-9.88a57.58,57.58,0,0,0-9.42.84l-1.3,10.5c-3.3,1.18-3.9,1.36-7.16,2.6l-7.89-7.43a55,55,0,0,0-7.78,5.08l2.83,7.53.69,1.79c3.58,1.82,6.22,3.32,8.43,5.8.16-.11.3-.24.44-.32a35,35,0,1,1-14,25.53q.06-1,.21-2c.07-.43.14-.86.2-1.29.09-.66.25-1.31.38-2a4.37,4.37,0,0,1,.17-.62,24.5,24.5,0,0,1,.71-2.46,34.13,34.13,0,0,1,2.56-5.86c.83-1.52,8.27-9.61,9.31-11-1-2.17-6.9-7.82-8.43-5.8-2.14,2.83-2.14,2.83-4.73,6.34,0,0-.08.09-.11.14l-2.44-.69-3.12-.87-5-1.39c-.85,1.31-1.64,2.63-2.39,4-.5.93-1,1.9-1.46,2.86-.2.43-.4.85-.58,1.26l1.15,1,7,6.29c-.06.3-.14.56-.21.82-.31,1.18-.49,2-.71,2.77s-.44,1.67-.79,2.93c-.08.26-.13.53-.22.82l-.77.18-3.68.78-3.12.68-3.07.64a52.47,52.47,0,0,0-.07,9.29l10.49,2.68c.75,3.36.89,4,1.69,7.4L207.92,247a53.64,53.64,0,0,0,4.37,8.4l10.14-2.46c2.28,2.66,2.67,3.11,4.93,5.79L223.53,268a52.66,52.66,0,0,0,8,5.47l7.38-6.51c3.28,1.32,3.84,1.52,7.13,2.81l.81,9.51a54,54,0,0,0,9.88,1.17l3.36-8.74c3.44-.34,4.1-.38,7.54-.78l4.95,7.6a51.47,51.47,0,0,0,9.48-3.59l-1-8.84c2.9-1.94,3.41-2.26,6.29-4.21l7.65,4.31a53.16,53.16,0,0,0,6.87-7.6l-4.91-7.18,3.65-6.67,8.7.22a53,53,0,0,0,2.68-9.88L304.21,231c.09-3.47.1-4.11.16-7.6l8-3.9a53.47,53.47,0,0,0-2.1-9.91l-9.09,0c-1.52-3.12-1.84-3.69-3.4-6.8l5.52-7.52a51,51,0,0,0-6.32-7.68l-8.41,4.4-6.25-4.42,1.52-9.78a57.59,57.59,0,0,0-8.94-3.74Z"/><path class="cls-3" d="M348.48,6.78c-2.56.12-3,.16-5.58.32L339.05.46a42.41,42.41,0,0,0-6.68,1.93l.55,7.76c-2.21,1.32-2.62,1.53-4.8,2.89l-6.74-4.25a40.88,40.88,0,0,0-4.9,4.77l3.12,5,.75,1.19a19.54,19.54,0,0,1,6.89,3,2.74,2.74,0,0,1,.28-.3,25.71,25.71,0,1,1-6.47,20.39,14.93,14.93,0,0,1-.14-1.5c0-.32,0-.64,0-1,0-.49,0-1,0-1.48a3.73,3.73,0,0,1,0-.47,15.06,15.06,0,0,1,.16-1.88,25.21,25.21,0,0,1,1-4.58c.38-1.22,4.61-8.1,5.16-9.22-1-1.43-6.07-4.67-6.89-3-1.15,2.35-1.15,2.35-2.52,5.25l-.06.11L315.91,25l-2.37-.19-3.81-.29c-.43,1.06-.81,2.13-1.16,3.22-.23.74-.45,1.51-.65,2.27l-.24,1,1,.58,6,3.55a6.06,6.06,0,0,1,0,.62c-.05.89-.08,1.47-.12,2.1s-.08,1.27-.16,2.22c0,.2,0,.4,0,.62l-.53.24L311.19,42l-2.16.93-2.12.9a39.16,39.16,0,0,0,1.26,6.71l7.95.45c1,2.32,1.21,2.77,2.27,5.1l-4.9,6a38.7,38.7,0,0,0,4.34,5.43l7-3.2c2,1.59,2.36,1.86,4.37,3.48l-1.45,7.24a38.13,38.13,0,0,0,6.54,2.81l4.4-5.74c2.55.49,3,.56,5.54,1l1.93,6.74a39.07,39.07,0,0,0,7.29-.56l1.19-6.77c2.43-.73,2.9-.86,5.33-1.63l4.64,4.78a38,38,0,0,0,6.33-3.93l-2-6.23,3.95-3.93,6.12,2a38.59,38.59,0,0,0,3.88-6.45l-4.55-4.49L380,47.39l6.31-1.07a38.82,38.82,0,0,0,.54-7.5L380.68,37c-.43-2.52-.51-3-1-5.5l5.2-3.95A39.3,39.3,0,0,0,382,20.65l-6.56,1.27c-1.54-2-1.85-2.41-3.42-4.42l2.92-6.21a38,38,0,0,0-5.64-4.65L363.85,11,358.72,8.7l-.29-7.27a42.7,42.7,0,0,0-7-1.43Z"/><path class="cls-4" d="M328.07,131.12c-14.63,7-20.42,19.53-22.93,34.43.92.1,1.52.13,2.1.23,2.85.52,4.2-.56,4.55-3.53a28.6,28.6,0,0,1,1.9-7c3.58-9,8.5-16.71,19.1-18.89Z"/><path class="cls-4" d="M307.4,112.57a4.48,4.48,0,0,0,3.51,1.12,11.14,11.14,0,0,1,2.84,0,3.05,3.05,0,0,0-2.92-2.11A4.22,4.22,0,0,0,307.4,112.57Z"/><path class="cls-4" d="M342.3,96.64c-5.95-8.46-23.84-13.06-33.07-8.46-2,1-3,2.54-1.81,4.72s3.37,2.68,5.37.77c6.29-6,20.85-.72,24,7.69a6.3,6.3,0,0,1-3.85,8.09c-3.39,1.2-6.28,0-9-1.74s-5.24-3.85-8-5.56a24.64,24.64,0,0,0-13.54-3.78,24.09,24.09,0,0,0-17.85,18.3h0l0,0a15.6,15.6,0,0,1,5.51-7.32,23.39,23.39,0,0,1,14.48-4,19.39,19.39,0,0,1,8.28,2.61c4.48,2.34,8.53,5.52,13.09,7.66a13.11,13.11,0,0,0,16.13-4C345.71,106.91,345.77,101.57,342.3,96.64Z"/><path class="cls-5" d="M349.2,107.17c-.72,6.09-3.38,11-8.54,14.38-4.93,3.19-10.52,4.31-16.68,4.42,1.47,1.92,2.85,3.55,4.09,5.15C344.3,126.65,351.08,118.94,349.2,107.17Z"/><path class="cls-5" d="M302.46,98.37a32.74,32.74,0,0,0-6.25.64c-7.75,1.52-11.46,6-11.46,6-6.66,6.5-8.29,14.77-8.42,23.69a39.32,39.32,0,0,0-14.49,7,38.8,38.8,0,0,0,2.32,6.14c5.38-4.84,12.16-7.32,20-7.56-.26-1.47-.51-2.76-.69-4.05a28.26,28.26,0,0,1,1.17-13.58h0A24.09,24.09,0,0,1,302.46,98.37Z"/><path class="cls-6" d="M227.76,131.31l11.27.95a4.76,4.76,0,0,1,4.26,3.73l.23,1a66.08,66.08,0,0,0,8.87,21.38l.58.92a4.75,4.75,0,0,1-.38,5.64l-1.83,2.17c9-.77,18.41-1.37,28-1.78a52.23,52.23,0,1,1,59.95-.11c9.49.37,18.74.92,27.68,1.64L364.81,165a4.75,4.75,0,0,1-.38-5.65l.58-.9A66,66,0,0,0,373.87,137l.24-1a4.75,4.75,0,0,1,4.26-3.73l11.27-.95a4.85,4.85,0,0,0,4.42-4.81v-7.85a4.79,4.79,0,0,0-4.42-4.81l-11.27-1a4.75,4.75,0,0,1-4.26-3.73l-.24-1A65.83,65.83,0,0,0,365,86.73l-.58-.91a4.75,4.75,0,0,1,.38-5.65l7.3-8.65a4.86,4.86,0,0,0-.28-6.53l-5.55-5.55a4.8,4.8,0,0,0-6.53-.28l-8.65,7.31a4.73,4.73,0,0,1-5.65.37l-.9-.57a66,66,0,0,0-21.38-8.87l-1.06-.23a4.75,4.75,0,0,1-3.72-4.26l-1-11.28a4.79,4.79,0,0,0-4.8-4.41h-7.86A4.85,4.85,0,0,0,300,41.63L299,52.91a4.77,4.77,0,0,1-3.73,4.26l-1,.23a66.09,66.09,0,0,0-21.38,8.86l-.91.58a4.75,4.75,0,0,1-5.65-.37l-8.65-7.31a4.79,4.79,0,0,0-6.52.28L245.56,65a4.85,4.85,0,0,0-.27,6.53l7.3,8.65a4.77,4.77,0,0,1,.38,5.65l-.58.91a66.08,66.08,0,0,0-8.87,21.38l-.23,1a4.76,4.76,0,0,1-4.26,3.73l-11.27,1a4.85,4.85,0,0,0-4.42,4.81v7.85A4.85,4.85,0,0,0,227.76,131.31Z"/><path class="cls-7" d="M384.52,181.56s-15-16-66-11.05c0,0-47.88,4.6-82.87,19.1a122.91,122.91,0,0,0-11.7,5.54l4.81,9.39c6.8-2.88,13.49-5.47,20-7.78,67.41-23.76,118.57-18.42,118.57-18.42,14.3,1.68,17.68,5.51,15.84,9.85A9.87,9.87,0,0,0,384.52,181.56Z"/><path class="cls-8" d="M252.43,192.31l-2.18-4.4A122.93,122.93,0,0,1,267.32,182l1.09,4.63Z"/><path class="cls-8" d="M275.85,180.31a121.12,121.12,0,0,1,17.37-3.76l.53,4.65-16.27,3.65Z"/><path class="cls-8" d="M303.38,179.36l-1.14-4.21s1.56-.34,3.9-.75a94.18,94.18,0,0,1,12-1.42l.15,4.22-6.7,1Z"/><path class="cls-8" d="M324.36,172.72s1.65-.22,4-.43a73.56,73.56,0,0,1,9.21-.33l-.15,3.48-6.87.45-5.07.33-.44,0-.19-1Z"/><path class="cls-8" d="M372.52,177.63l.2-1.26a32.34,32.34,0,0,1,4.52,1.34l-.47,1.15Z"/><path class="cls-8" d="M359.88,175.5l.09-2.05a51.63,51.63,0,0,1,7.43,1.3l-.53,1.92Z"/><path class="cls-8" d="M343.75,174.64l-.21-2.81a71.59,71.59,0,0,1,10.37.6l-.43,2.7Z"/><path class="cls-9" d="M295.38,158.81s-44.94,5.28-76.67,17.6c-1.21.47-2.41,1-3.57,1.44,1.53,2.79,2.86,5.41,4,7.74,2.18-.84,4.36-1.64,6.53-2.42,43.17-15.37,84.41-18.69,84.41-18.69,40.22-4,58.73,1.65,67.24,7.5C377.29,172,354.07,151.69,295.38,158.81Z"/><path class="cls-8" d="M377.29,172c-8.51-5.85-27-11.5-67.24-7.5,0,0-41.24,3.32-84.41,18.69-2.17.78-4.35,1.58-6.53,2.42,0,.11.09.21.14.31l4.73,9.25a122.91,122.91,0,0,1,11.7-5.54c35-14.5,82.87-19.1,82.87-19.1,51-4.95,66,11.05,66,11.05S384.17,176.71,377.29,172Z"/><path class="cls-8" d="M227.59,202.2l16.31-6.81-1.41-4.77a126,126,0,0,0-17.24,7Z"/><path class="cls-8" d="M367.37,178.34S316.21,173,248.8,196.76c-6.52,2.31-13.21,4.9-20,7.78l4,7.83c6.94-2.83,17-6.75,28.78-10.86,38.37-13.35,95-28.51,121.64-13.32C385.05,183.85,381.67,180,367.37,178.34Z"/><path class="cls-10" d="M261.57,201.51c-11.79,4.11-21.84,8-28.78,10.86l7.21,14.1a349.91,349.91,0,0,1,46.54-20.95c39.9-14.55,68.65-16.78,68.65-16.78,30.15-3,0,18.84,0,18.84s24.38-10.73,28-19.39C356.55,173,299.94,188.16,261.57,201.51Z"/><path class="cls-11" d="M22.36,75.39h17.4l-14,52.05H8.38Z"/><path class="cls-11" d="M45.24,105.73c0-14.2,10.93-31.45,33.38-31.45,11.23,0,19.18,5.94,21.34,15.17L84.42,96.21a7.87,7.87,0,0,0-8.1-6.32c-7.81,0-12.87,7.14-12.87,14.28,0,5.72,3.57,8.92,8.18,8.92,4,0,7.29-1.93,10.12-5.43l12,9.52C88.58,124,81,128.55,69.92,128.55,55.35,128.55,45.24,119.71,45.24,105.73Z"/><path class="cls-11" d="M116.52,75.39H134c9.59,0,15.46,1.86,19.33,5.73a14.4,14.4,0,0,1,4.09,10.48c0,13-9.82,21.71-26.32,21.71h-7.36l-3.8,14.13h-17.4ZM130.2,100.9c6.62,0,9.67-3,9.67-6.92a4.37,4.37,0,0,0-1.26-3c-1.19-1.19-3.28-1.63-5.21-1.63h-3.27l-3,11.6Z"/><path class="cls-11" d="M181.93,90.11H166.61l3.94-14.72h48l-3.94,14.72H199.33l-10,37.33h-17.4Z"/><path class="cls-11" d="M3.52,180.62l26.8-16.47c4.12-2.55,4.56-4.27,4.56-5.84,0-1.87-1.12-3.22-3.66-3.22-3,0-7.34,2.62-11.31,6.51L10,151.2c5.84-6.29,13-10.86,23.36-10.86,11.9,0,18.86,6.44,18.86,15.5,0,6.44-3.22,12.28-15.12,18.86l-9.51,5.24H47.39l-3.67,13.7H0Z"/><path class="cls-11" d="M53.38,174.11c0-18,12.51-34,29.87-34,13.85,0,21.56,9.66,21.56,20.74,0,18-12.5,34-29.87,34C61.1,194.84,53.38,185.18,53.38,174.11Zm33.84-11.68c0-4.94-2.47-7.11-5.54-7.11-6.74,0-10.7,9.8-10.7,17.21,0,4.94,2.47,7.11,5.53,7.11C83.25,179.64,87.22,169.84,87.22,162.43Z"/><path class="cls-11" d="M104.75,180.62l26.79-16.47c4.12-2.55,4.57-4.27,4.57-5.84,0-1.87-1.12-3.22-3.67-3.22-3,0-7.33,2.62-11.3,6.51l-9.88-10.4c5.84-6.29,13-10.86,23.35-10.86,11.91,0,18.87,6.44,18.87,15.5,0,6.44-3.22,12.28-15.12,18.86l-9.51,5.24h19.76l-3.67,13.7H101.23Z"/><path class="cls-11" d="M149.15,185.56l10.18-10.26c3.74,3.45,7.71,5.32,12.65,5.32s7.79-2.62,7.79-6.07c0-2.54-2-4.56-6-4.56a13,13,0,0,0-7.71,2.69l-8.91-5.54,8.38-25.9H203l-3.74,13.85H174.82L173,160.63a22,22,0,0,1,8-1.42c9.73,0,16,5.46,16,14.15,0,12.57-9.88,21.33-24.93,21.33A33.82,33.82,0,0,1,149.15,185.56Z"/><path class="cls-11" d="M1.85,203.46h.67l-1.6,5.92H.26Z"/><path class="cls-11" d="M3.72,205h.65l-.19.71a3.27,3.27,0,0,1,.66-.58,1.64,1.64,0,0,1,.87-.23,1.41,1.41,0,0,1,1,.37,1.31,1.31,0,0,1,.38,1,2,2,0,0,1,0,.33,3.38,3.38,0,0,1-.08.34l-.65,2.44H5.7l.66-2.47a1.84,1.84,0,0,0,0-.25,2.32,2.32,0,0,0,0-.24.85.85,0,0,0-.27-.67,1,1,0,0,0-.71-.25,1.34,1.34,0,0,0-.51.11,1.7,1.7,0,0,0-.46.29,1.82,1.82,0,0,0-.37.45,2.1,2.1,0,0,0-.25.57l-.66,2.46H2.55Z"/><path class="cls-11" d="M8.53,209.24a.76.76,0,0,1-.29-.65,1.85,1.85,0,0,1,0-.23c0-.08,0-.16.05-.22L9,205.58h-.6l.15-.57h.61l.36-1.33h.64L9.79,205h1.38l-.16.57H9.63L9,208.1l0,.16c0,.06,0,.11,0,.16a.41.41,0,0,0,.16.34.82.82,0,0,0,.44.11,2,2,0,0,0,.64-.13l-.16.59a1.46,1.46,0,0,1-.34.1,2,2,0,0,1-.36,0A1.25,1.25,0,0,1,8.53,209.24Z"/><path class="cls-11" d="M12.05,207.51v.09a1.33,1.33,0,0,0,.35,1,1.31,1.31,0,0,0,1,.36,1.79,1.79,0,0,0,.73-.14,2.47,2.47,0,0,0,.61-.38l.34.43a3,3,0,0,1-.73.46,2.58,2.58,0,0,1-1.78.06,1.8,1.8,0,0,1-.61-.38,1.87,1.87,0,0,1-.4-.59,2.06,2.06,0,0,1-.13-.76,2.68,2.68,0,0,1,.19-1,2.63,2.63,0,0,1,.53-.86,2.73,2.73,0,0,1,.81-.62,2.18,2.18,0,0,1,1-.24,1.91,1.91,0,0,1,.74.14,1.51,1.51,0,0,1,.52.36,1.48,1.48,0,0,1,.33.54,1.91,1.91,0,0,1,.11.64,2,2,0,0,1-.05.43,2,2,0,0,1-.11.4H12.06A.28.28,0,0,0,12.05,207.51Zm2.91-.57a1.12,1.12,0,0,0,0-.35,1.54,1.54,0,0,0-.06-.43,1,1,0,0,0-.2-.36,1,1,0,0,0-.34-.24,1.07,1.07,0,0,0-.49-.1,1.58,1.58,0,0,0-.61.12,1.79,1.79,0,0,0-.51.31,2.22,2.22,0,0,0-.39.47,2,2,0,0,0-.25.58Z"/><path class="cls-11" d="M17.29,205h.65l-.3,1.14a4.57,4.57,0,0,1,.43-.52,2.32,2.32,0,0,1,.49-.4,2.48,2.48,0,0,1,.55-.24,2,2,0,0,1,.61-.06l-.18.7h0a2.17,2.17,0,0,0-.71.13,2.29,2.29,0,0,0-.65.39,2.8,2.8,0,0,0-.54.63,3.78,3.78,0,0,0-.36.87l-.47,1.73h-.65Z"/><path class="cls-11" d="M20.69,205h.65l-.18.71a2.81,2.81,0,0,1,.66-.58,1.6,1.6,0,0,1,.86-.23,1.41,1.41,0,0,1,1,.37,1.27,1.27,0,0,1,.38,1,2,2,0,0,1,0,.33,3.38,3.38,0,0,1-.08.34l-.65,2.44h-.65l.66-2.47a1.84,1.84,0,0,0,.05-.25,2.32,2.32,0,0,0,0-.24.87.87,0,0,0-.26-.67,1,1,0,0,0-.72-.25,1.34,1.34,0,0,0-.51.11,1.87,1.87,0,0,0-.46.29,2.07,2.07,0,0,0-.37.45,2.1,2.1,0,0,0-.25.57l-.66,2.46h-.65Z"/><path class="cls-11" d="M25.59,209.39a1.26,1.26,0,0,1-.75-.6,1.25,1.25,0,0,1-.11-.53,1.59,1.59,0,0,1,.14-.66,1.51,1.51,0,0,1,.41-.5,1.9,1.9,0,0,1,.62-.31,2.65,2.65,0,0,1,.77-.11,5.49,5.49,0,0,1,.84.07c.27.05.51.11.72.17l0-.1c0-.07,0-.13,0-.21a1.5,1.5,0,0,0,0-.2.77.77,0,0,0-.3-.66,1.44,1.44,0,0,0-.89-.23,2.64,2.64,0,0,0-.65.07,4.18,4.18,0,0,0-.58.16l-.12-.54a5.12,5.12,0,0,1,.67-.19,3.77,3.77,0,0,1,.78-.07,2,2,0,0,1,1.28.36,1.22,1.22,0,0,1,.44,1c0,.1,0,.2,0,.3s0,.2-.07.3l-.66,2.48h-.64l.19-.68a2.41,2.41,0,0,1-.71.56,2,2,0,0,1-.92.22A1.51,1.51,0,0,1,25.59,209.39Zm1.28-.52a1.86,1.86,0,0,0,.5-.27,1.77,1.77,0,0,0,.41-.41,1.46,1.46,0,0,0,.26-.53l.08-.3a4.89,4.89,0,0,0-.65-.14,4.72,4.72,0,0,0-.77-.06,1.8,1.8,0,0,0-.54.08,1.22,1.22,0,0,0-.41.21,1,1,0,0,0-.26.32.87.87,0,0,0-.1.42.71.71,0,0,0,.25.57,1,1,0,0,0,.68.21A1.78,1.78,0,0,0,26.87,208.87Z"/><path class="cls-11" d="M30.38,209.24a.74.74,0,0,1-.29-.65,1.85,1.85,0,0,1,0-.23c0-.08,0-.16,0-.22l.69-2.56h-.6l.15-.57H31l.36-1.33H32L31.63,205H33l-.15.57H31.48l-.68,2.52a.78.78,0,0,0,0,.16.92.92,0,0,0,0,.16.39.39,0,0,0,.16.34.82.82,0,0,0,.44.11,2,2,0,0,0,.64-.13l-.16.59a1.62,1.62,0,0,1-.34.1,2,2,0,0,1-.36,0A1.25,1.25,0,0,1,30.38,209.24Z"/><path class="cls-11" d="M34.22,205h.65l-1.18,4.37H33Zm.4-1.68h.75l-.2.72h-.74Z"/><path class="cls-11" d="M36.66,209.34a1.74,1.74,0,0,1-.63-.42,1.62,1.62,0,0,1-.4-.62,2,2,0,0,1-.14-.78,2.36,2.36,0,0,1,.2-1,2.87,2.87,0,0,1,.56-.84,2.75,2.75,0,0,1,.82-.57,2.24,2.24,0,0,1,1-.22,2.18,2.18,0,0,1,.82.15,1.91,1.91,0,0,1,.63.41,1.7,1.7,0,0,1,.4.61,2.06,2.06,0,0,1,.15.79,2.46,2.46,0,0,1-.21,1,3.22,3.22,0,0,1-.57.83,2.75,2.75,0,0,1-.82.57,2.38,2.38,0,0,1-1,.21A2.33,2.33,0,0,1,36.66,209.34Zm1.56-.61a1.89,1.89,0,0,0,.6-.45,2.15,2.15,0,0,0,.42-.64,1.93,1.93,0,0,0,.15-.75,1.29,1.29,0,0,0-1.37-1.4,1.59,1.59,0,0,0-.72.17,2.05,2.05,0,0,0-1,1.09,2,2,0,0,0-.15.75,1.34,1.34,0,0,0,.38,1,1.37,1.37,0,0,0,1,.36A1.59,1.59,0,0,0,38.22,208.73Z"/><path class="cls-11" d="M41.78,205h.66l-.19.71a3.27,3.27,0,0,1,.66-.58,1.6,1.6,0,0,1,.86-.23,1.38,1.38,0,0,1,1,.37,1.28,1.28,0,0,1,.39,1,1.35,1.35,0,0,1,0,.33,3.4,3.4,0,0,1-.07.34l-.65,2.44h-.66l.66-2.47a1.83,1.83,0,0,0,.06-.25,2.09,2.09,0,0,0,0-.24.87.87,0,0,0-.26-.67,1,1,0,0,0-.72-.25,1.25,1.25,0,0,0-.5.11,1.7,1.7,0,0,0-.46.29,1.85,1.85,0,0,0-.38.45,2.08,2.08,0,0,0-.24.57l-.66,2.46h-.65Z"/><path class="cls-11" d="M46.68,209.39a1.32,1.32,0,0,1-.44-.23,1.23,1.23,0,0,1-.31-.37,1.25,1.25,0,0,1-.11-.53,1.59,1.59,0,0,1,.14-.66,1.64,1.64,0,0,1,.41-.5,2,2,0,0,1,.62-.31,2.77,2.77,0,0,1,.78-.11,5.71,5.71,0,0,1,.84.07c.26.05.5.11.72.17l0-.1a1.3,1.3,0,0,0,0-.21,1.5,1.5,0,0,0,0-.2.79.79,0,0,0-.29-.66,1.47,1.47,0,0,0-.9-.23,2.56,2.56,0,0,0-.64.07,4.31,4.31,0,0,0-.59.16l-.11-.54a4.72,4.72,0,0,1,.67-.19,3.71,3.71,0,0,1,.78-.07,2,2,0,0,1,1.27.36,1.19,1.19,0,0,1,.44,1,1.51,1.51,0,0,1,0,.3c0,.1,0,.2-.07.3l-.66,2.48h-.63l.18-.68a2.51,2.51,0,0,1-.7.56,2,2,0,0,1-.93.22A1.55,1.55,0,0,1,46.68,209.39Zm1.28-.52a2.08,2.08,0,0,0,.51-.27,2,2,0,0,0,.41-.41,1.62,1.62,0,0,0,.25-.53l.09-.3a5.06,5.06,0,0,0-.66-.14,4.72,4.72,0,0,0-.77-.06,1.78,1.78,0,0,0-.53.08,1.13,1.13,0,0,0-.41.21.91.91,0,0,0-.27.32.87.87,0,0,0-.1.42.71.71,0,0,0,.25.57,1,1,0,0,0,.68.21A1.72,1.72,0,0,0,48,208.87Z"/><path class="cls-11" d="M52.4,203.2h.65l-1.66,6.18h-.65Z"/><path class="cls-11" d="M57.57,209.32a2.41,2.41,0,0,1-.8-.48,2.33,2.33,0,0,1-.54-.77,2.63,2.63,0,0,1-.2-1,3.52,3.52,0,0,1,.28-1.39,3.81,3.81,0,0,1,.76-1.17,3.69,3.69,0,0,1,1.13-.82,3.24,3.24,0,0,1,1.38-.31,2.43,2.43,0,0,1,2.24,1.27l-.58.36a2.27,2.27,0,0,0-.66-.74,1.86,1.86,0,0,0-1-.27,2.4,2.4,0,0,0-1.09.26,3.07,3.07,0,0,0-.89.67,3.49,3.49,0,0,0-.6,1,3.11,3.11,0,0,0-.22,1.13,2.13,2.13,0,0,0,.14.78,1.65,1.65,0,0,0,.39.58,1.75,1.75,0,0,0,.58.37,2.22,2.22,0,0,0,.75.13,2.26,2.26,0,0,0,1-.22,3,3,0,0,0,.81-.59l.45.44a3.31,3.31,0,0,1-.44.39,3.07,3.07,0,0,1-.53.31,3.47,3.47,0,0,1-.62.22,3.29,3.29,0,0,1-.73.07A2.62,2.62,0,0,1,57.57,209.32Z"/><path class="cls-11" d="M63.12,209.34a1.74,1.74,0,0,1-.63-.42,1.62,1.62,0,0,1-.4-.62,2,2,0,0,1-.14-.78,2.53,2.53,0,0,1,.2-1,2.87,2.87,0,0,1,.56-.84,2.75,2.75,0,0,1,.82-.57,2.24,2.24,0,0,1,1-.22,2.18,2.18,0,0,1,.82.15,1.91,1.91,0,0,1,.63.41,1.7,1.7,0,0,1,.4.61,2.06,2.06,0,0,1,.15.79,2.46,2.46,0,0,1-.21,1,3,3,0,0,1-.57.83,2.75,2.75,0,0,1-.82.57,2.43,2.43,0,0,1-1.8.07Zm1.56-.61a1.89,1.89,0,0,0,.6-.45,2.15,2.15,0,0,0,.42-.64,1.93,1.93,0,0,0,.15-.75,1.29,1.29,0,0,0-1.37-1.4,1.59,1.59,0,0,0-.72.17,2.05,2.05,0,0,0-.59.45,2.26,2.26,0,0,0-.41.64,2,2,0,0,0-.15.75,1.34,1.34,0,0,0,.38,1,1.37,1.37,0,0,0,1,.36A1.59,1.59,0,0,0,64.68,208.73Z"/><path class="cls-11" d="M68.24,205h.66l-.19.71a3.27,3.27,0,0,1,.66-.58,1.6,1.6,0,0,1,.86-.23,1.38,1.38,0,0,1,1,.37,1.28,1.28,0,0,1,.39,1,1.35,1.35,0,0,1,0,.33,3.4,3.4,0,0,1-.07.34l-.65,2.44h-.66l.67-2.47c0-.08,0-.16,0-.25a2.09,2.09,0,0,0,0-.24.84.84,0,0,0-.26-.67,1,1,0,0,0-.72-.25,1.25,1.25,0,0,0-.5.11,1.7,1.7,0,0,0-.46.29,1.85,1.85,0,0,0-.38.45,2.08,2.08,0,0,0-.24.57l-.66,2.46h-.65Z"/><path class="cls-11" d="M73.53,205.58h-.6l.16-.57h.6l.14-.53a1.83,1.83,0,0,1,.56-1,1.4,1.4,0,0,1,.94-.31,1.93,1.93,0,0,1,.87.18l-.15.56a2.4,2.4,0,0,0-.36-.14,2,2,0,0,0-.36,0,.8.8,0,0,0-.54.2,1.25,1.25,0,0,0-.34.63l-.11.43h1.43l-.16.57H74.19l-1,3.8h-.65Z"/><path class="cls-11" d="M76.35,207.51v.09a1.24,1.24,0,0,0,1.32,1.32,1.84,1.84,0,0,0,.74-.14,2.67,2.67,0,0,0,.61-.38l.34.43a3.22,3.22,0,0,1-.73.46,2.33,2.33,0,0,1-1,.19,2.22,2.22,0,0,1-.79-.13,1.65,1.65,0,0,1-1-1,2.06,2.06,0,0,1-.14-.76,2.68,2.68,0,0,1,.19-1,3,3,0,0,1,.53-.86,2.73,2.73,0,0,1,.81-.62,2.19,2.19,0,0,1,1-.24,1.83,1.83,0,0,1,.73.14,1.55,1.55,0,0,1,.53.36,1.46,1.46,0,0,1,.32.54,1.69,1.69,0,0,1,.11.64,2,2,0,0,1,0,.43c0,.13-.07.27-.11.4H76.36S76.35,207.48,76.35,207.51Zm2.91-.57a1.08,1.08,0,0,0,0-.35,1.25,1.25,0,0,0-.07-.43.86.86,0,0,0-.2-.36,1,1,0,0,0-.34-.24,1.06,1.06,0,0,0-.48-.1,1.54,1.54,0,0,0-.61.12,1.66,1.66,0,0,0-.51.31,2.26,2.26,0,0,0-.4.47,2.31,2.31,0,0,0-.25.58Z"/><path class="cls-11" d="M81.59,205h.65L82,206.15a3.72,3.72,0,0,1,.43-.52,2.55,2.55,0,0,1,.48-.4,3,3,0,0,1,.55-.24,2.08,2.08,0,0,1,.62-.06l-.19.7h0a2.11,2.11,0,0,0-.7.13,2.21,2.21,0,0,0-.66.39,2.76,2.76,0,0,0-.53.63,3.4,3.4,0,0,0-.37.87l-.46,1.73h-.66Z"/><path class="cls-11" d="M84.74,207.51v.09a1.3,1.3,0,0,0,.36,1,1.28,1.28,0,0,0,1,.36,1.88,1.88,0,0,0,.74-.14,2.67,2.67,0,0,0,.61-.38l.34.43a3.08,3.08,0,0,1-.74.46,2.26,2.26,0,0,1-1,.19,2.22,2.22,0,0,1-.79-.13,1.85,1.85,0,0,1-.62-.38,1.69,1.69,0,0,1-.39-.59,2.06,2.06,0,0,1-.14-.76,2.68,2.68,0,0,1,.19-1,2.81,2.81,0,0,1,.53-.86,2.73,2.73,0,0,1,.81-.62,2.19,2.19,0,0,1,1-.24,1.86,1.86,0,0,1,.73.14,1.55,1.55,0,0,1,.53.36,1.46,1.46,0,0,1,.32.54,1.91,1.91,0,0,1,.11.64,2,2,0,0,1,0,.43c0,.13-.07.27-.11.4H84.75A.28.28,0,0,0,84.74,207.51Zm2.91-.57a1.08,1.08,0,0,0,0-.35,1.55,1.55,0,0,0-.07-.43,1,1,0,0,0-.2-.36,1,1,0,0,0-.34-.24,1.07,1.07,0,0,0-.49-.1,1.53,1.53,0,0,0-.6.12,1.66,1.66,0,0,0-.51.31,2,2,0,0,0-.4.47,2.31,2.31,0,0,0-.25.58Z"/><path class="cls-11" d="M90,205h.65l-.18.71a2.81,2.81,0,0,1,.66-.58,1.6,1.6,0,0,1,.86-.23,1.41,1.41,0,0,1,1,.37,1.28,1.28,0,0,1,.39,1,2.11,2.11,0,0,1,0,.33,3.38,3.38,0,0,1-.08.34l-.65,2.44H92l.66-2.47a1.84,1.84,0,0,0,0-.25,2.32,2.32,0,0,0,0-.24.87.87,0,0,0-.26-.67,1,1,0,0,0-.72-.25,1.34,1.34,0,0,0-.51.11,1.87,1.87,0,0,0-.46.29,2.07,2.07,0,0,0-.37.45,1.81,1.81,0,0,0-.24.57l-.66,2.46h-.66Z"/><path class="cls-11" d="M95.47,209.35a2,2,0,0,1-.62-.37,1.9,1.9,0,0,1-.42-.61,1.85,1.85,0,0,1-.17-.8,2.55,2.55,0,0,1,.21-1,2.87,2.87,0,0,1,.56-.84,2.65,2.65,0,0,1,.82-.58,2.24,2.24,0,0,1,1-.22,2.06,2.06,0,0,1,.62.09,1.83,1.83,0,0,1,.49.22,1.31,1.31,0,0,1,.37.33,1.66,1.66,0,0,1,.26.39l-.52.33q-.11-.17-.21-.3a1.27,1.27,0,0,0-.27-.25,1.2,1.2,0,0,0-.34-.17,1.51,1.51,0,0,0-.44-.06,1.53,1.53,0,0,0-.72.17,2,2,0,0,0-.59.45,2.2,2.2,0,0,0-.4.66,1.91,1.91,0,0,0-.16.78,1.5,1.5,0,0,0,.11.58,1.3,1.3,0,0,0,.29.43,1.29,1.29,0,0,0,.42.26,1.33,1.33,0,0,0,.49.09,1.47,1.47,0,0,0,.7-.16,2.47,2.47,0,0,0,.59-.42l.38.43a3,3,0,0,1-.75.52,2.06,2.06,0,0,1-1,.2A2,2,0,0,1,95.47,209.35Z"/><path class="cls-11" d="M99.67,207.51v.09a1.24,1.24,0,0,0,1.32,1.32,1.84,1.84,0,0,0,.74-.14,2.67,2.67,0,0,0,.61-.38l.34.43a3.22,3.22,0,0,1-.73.46,2.33,2.33,0,0,1-1,.19,2.22,2.22,0,0,1-.79-.13,1.65,1.65,0,0,1-1-1,2.06,2.06,0,0,1-.14-.76,2.9,2.9,0,0,1,.19-1,2.84,2.84,0,0,1,.54-.86,2.57,2.57,0,0,1,.8-.62,2.19,2.19,0,0,1,1-.24,1.83,1.83,0,0,1,.73.14,1.55,1.55,0,0,1,.53.36,1.46,1.46,0,0,1,.32.54,1.69,1.69,0,0,1,.11.64,2,2,0,0,1,0,.43,3,3,0,0,1-.11.4H99.68S99.67,207.48,99.67,207.51Zm2.92-.57a1.53,1.53,0,0,0,0-.35,1.25,1.25,0,0,0-.07-.43,1,1,0,0,0-.19-.36,1,1,0,0,0-.35-.24,1.06,1.06,0,0,0-.48-.1,1.54,1.54,0,0,0-.61.12,1.66,1.66,0,0,0-.51.31,2.61,2.61,0,0,0-.4.47,2,2,0,0,0-.24.58Z"/><path class="cls-11" d="M107.73,209.34a1.74,1.74,0,0,1-.63-.42,1.62,1.62,0,0,1-.4-.62,2,2,0,0,1-.15-.78,2.37,2.37,0,0,1,.21-1,2.87,2.87,0,0,1,.56-.84,2.75,2.75,0,0,1,.82-.57,2.24,2.24,0,0,1,1-.22,2.18,2.18,0,0,1,.82.15,1.91,1.91,0,0,1,.63.41,1.7,1.7,0,0,1,.4.61,2.06,2.06,0,0,1,.15.79,2.31,2.31,0,0,1-.22,1,3,3,0,0,1-.56.83,2.75,2.75,0,0,1-.82.57,2.38,2.38,0,0,1-1,.21A2.33,2.33,0,0,1,107.73,209.34Zm1.56-.61a2,2,0,0,0,.6-.45,2,2,0,0,0,.41-.64,1.78,1.78,0,0,0,.16-.75,1.29,1.29,0,0,0-1.37-1.4,1.59,1.59,0,0,0-.72.17,2.05,2.05,0,0,0-1,1.09,2,2,0,0,0-.15.75,1.34,1.34,0,0,0,.38,1,1.37,1.37,0,0,0,1,.36A1.59,1.59,0,0,0,109.29,208.73Z"/><path class="cls-11" d="M112.85,205h.65l-.18.71a3.27,3.27,0,0,1,.66-.58,1.6,1.6,0,0,1,.86-.23,1.38,1.38,0,0,1,1,.37,1.28,1.28,0,0,1,.39,1,1.35,1.35,0,0,1,0,.33c0,.12,0,.23-.07.34l-.65,2.44h-.66l.66-2.47a1,1,0,0,0,.05-.25,1.06,1.06,0,0,0,0-.24.87.87,0,0,0-.26-.67,1,1,0,0,0-.72-.25,1.25,1.25,0,0,0-.5.11,1.93,1.93,0,0,0-.47.29,2.08,2.08,0,0,0-.61,1l-.66,2.46h-.66Z"/><path class="cls-11" d="M121.11,203.46h2.14a2.41,2.41,0,0,1,1.35.32,1.34,1.34,0,0,1,.59.92,1.71,1.71,0,0,1-.27,1.23,1.69,1.69,0,0,1-.67.71,3.23,3.23,0,0,1-1.11.37l1.22,2.37h-.77l-1.17-2.3h-1.61l-.62,2.3h-.67Zm1.47,3a3,3,0,0,0,1.1-.19,1.29,1.29,0,0,0,.65-.52,1.22,1.22,0,0,0,.24-.83.85.85,0,0,0-.37-.64,1.68,1.68,0,0,0-1-.24h-1.59l-.65,2.42Z"/><path class="cls-11" d="M126.93,209.34a1.82,1.82,0,0,1-1-1,2.21,2.21,0,0,1-.14-.78,2.37,2.37,0,0,1,.21-1,2.69,2.69,0,0,1,.56-.84,2.63,2.63,0,0,1,.82-.57,2.24,2.24,0,0,1,1-.22,2.09,2.09,0,0,1,.81.15,1.86,1.86,0,0,1,1,1,2.05,2.05,0,0,1,.14.79,2.46,2.46,0,0,1-.21,1,3,3,0,0,1-.56.83,2.79,2.79,0,0,1-.83.57,2.33,2.33,0,0,1-1,.21A2.29,2.29,0,0,1,126.93,209.34Zm1.56-.61a2.12,2.12,0,0,0,1-1.09,1.94,1.94,0,0,0,.16-.75,1.31,1.31,0,0,0-1.38-1.4,1.65,1.65,0,0,0-.72.17,2.37,2.37,0,0,0-.59.45,2.23,2.23,0,0,0-.4.64,1.81,1.81,0,0,0-.16.75,1.37,1.37,0,0,0,.38,1,1.4,1.4,0,0,0,1,.36A1.6,1.6,0,0,0,128.49,208.73Z"/><path class="cls-11" d="M131.76,209.39a1.32,1.32,0,0,1-.44-.23,1.23,1.23,0,0,1-.31-.37,1.25,1.25,0,0,1-.11-.53,1.59,1.59,0,0,1,.14-.66,1.51,1.51,0,0,1,.41-.5,1.9,1.9,0,0,1,.62-.31,2.67,2.67,0,0,1,.78-.11,5.46,5.46,0,0,1,.83.07c.27.05.51.11.72.17l0-.1a1.3,1.3,0,0,0,0-.21,1.5,1.5,0,0,0,0-.2.79.79,0,0,0-.29-.66,1.49,1.49,0,0,0-.9-.23,2.56,2.56,0,0,0-.64.07,4,4,0,0,0-.59.16l-.11-.54a4.37,4.37,0,0,1,.67-.19,3.71,3.71,0,0,1,.78-.07,2,2,0,0,1,1.27.36,1.19,1.19,0,0,1,.44,1,1.51,1.51,0,0,1,0,.3c0,.1,0,.2-.07.3l-.66,2.48h-.63l.18-.68a2.41,2.41,0,0,1-.71.56,1.92,1.92,0,0,1-.92.22A1.55,1.55,0,0,1,131.76,209.39Zm1.28-.52a1.86,1.86,0,0,0,.5-.27,1.81,1.81,0,0,0,.42-.41,1.62,1.62,0,0,0,.25-.53l.08-.3a4.89,4.89,0,0,0-.65-.14,4.72,4.72,0,0,0-.77-.06,1.8,1.8,0,0,0-.54.08,1.32,1.32,0,0,0-.41.21,1,1,0,0,0-.26.32.87.87,0,0,0-.1.42.71.71,0,0,0,.25.57,1,1,0,0,0,.68.21A1.72,1.72,0,0,0,133,208.87Z"/><path class="cls-11" d="M137.08,209.35a1.75,1.75,0,0,1-.55-.38,1.78,1.78,0,0,1-.36-.58,2.06,2.06,0,0,1-.13-.76,2.73,2.73,0,0,1,.2-1.08,2.82,2.82,0,0,1,.55-.86,2.57,2.57,0,0,1,.78-.57,2.1,2.1,0,0,1,.92-.21,1.8,1.8,0,0,1,.6.09,1.73,1.73,0,0,1,.47.24,1.41,1.41,0,0,1,.34.35,2.06,2.06,0,0,1,.23.41l.75-2.8h.65l-1.65,6.18h-.65l.19-.74a3.42,3.42,0,0,1-.71.6,1.8,1.8,0,0,1-.94.24A1.73,1.73,0,0,1,137.08,209.35Zm1.59-.62a2,2,0,0,0,.63-.45,2.54,2.54,0,0,0,.44-.66,1.92,1.92,0,0,0,.17-.78,1.51,1.51,0,0,0-.1-.53,1.39,1.39,0,0,0-.28-.43,1.37,1.37,0,0,0-.42-.29,1.61,1.61,0,0,0-1.28.07,1.71,1.71,0,0,0-.58.45,2.17,2.17,0,0,0-.39.66,2.4,2.4,0,0,0-.14.8,1.59,1.59,0,0,0,.09.55,1.19,1.19,0,0,0,.26.42,1.05,1.05,0,0,0,.39.27,1.18,1.18,0,0,0,.5.1A1.53,1.53,0,0,0,138.67,208.73Z"/><path class="cls-11" d="M144.75,209.39a1.42,1.42,0,0,1-.44-.23,1.07,1.07,0,0,1-.3-.37,1.12,1.12,0,0,1-.12-.53,1.45,1.45,0,0,1,.15-.66,1.48,1.48,0,0,1,.4-.5,2,2,0,0,1,.62-.31,2.77,2.77,0,0,1,.78-.11,5.71,5.71,0,0,1,.84.07c.26.05.5.11.72.17l0-.1a1.3,1.3,0,0,0,0-.21.71.71,0,0,0,0-.2.79.79,0,0,0-.29-.66,1.46,1.46,0,0,0-.89-.23,2.59,2.59,0,0,0-.65.07,4.31,4.31,0,0,0-.59.16l-.11-.54a5.12,5.12,0,0,1,.67-.19,3.71,3.71,0,0,1,.78-.07,2,2,0,0,1,1.27.36,1.2,1.2,0,0,1,.45,1,1.53,1.53,0,0,1,0,.3c0,.1,0,.2-.07.3l-.66,2.48h-.63l.18-.68a2.37,2.37,0,0,1-.7.56,2,2,0,0,1-.93.22A1.55,1.55,0,0,1,144.75,209.39Zm1.28-.52a2.08,2.08,0,0,0,.51-.27,2,2,0,0,0,.41-.41,1.44,1.44,0,0,0,.25-.53l.09-.3a4.89,4.89,0,0,0-.65-.14,4.81,4.81,0,0,0-.77-.06,1.8,1.8,0,0,0-.54.08,1.22,1.22,0,0,0-.41.21,1,1,0,0,0-.27.32,1,1,0,0,0-.1.42.74.74,0,0,0,.25.57,1,1,0,0,0,.68.21A1.72,1.72,0,0,0,146,208.87Z"/><path class="cls-11" d="M149.92,205h.65l-.18.71a2.81,2.81,0,0,1,.66-.58,1.6,1.6,0,0,1,.86-.23,1.41,1.41,0,0,1,1,.37,1.27,1.27,0,0,1,.38,1,2,2,0,0,1,0,.33,3.38,3.38,0,0,1-.08.34l-.65,2.44h-.65l.66-2.47a1.84,1.84,0,0,0,.05-.25,2.32,2.32,0,0,0,0-.24.87.87,0,0,0-.26-.67,1,1,0,0,0-.72-.25,1.34,1.34,0,0,0-.51.11,1.87,1.87,0,0,0-.46.29,2.07,2.07,0,0,0-.37.45,2.1,2.1,0,0,0-.25.57l-.66,2.46h-.65Z"/><path class="cls-11" d="M155.27,209.35a1.55,1.55,0,0,1-.55-.38,1.65,1.65,0,0,1-.37-.58,2.06,2.06,0,0,1-.13-.76,2.92,2.92,0,0,1,.2-1.08,2.82,2.82,0,0,1,.55-.86,2.7,2.7,0,0,1,.78-.57,2.13,2.13,0,0,1,.92-.21,1.91,1.91,0,0,1,.61.09,1.67,1.67,0,0,1,.46.24,1.26,1.26,0,0,1,.34.35,2.1,2.1,0,0,1,.24.41l.74-2.8h.65l-1.65,6.18h-.65l.2-.74a3.48,3.48,0,0,1-.72.6,1.79,1.79,0,0,1-.93.24A1.73,1.73,0,0,1,155.27,209.35Zm1.59-.62a2.1,2.1,0,0,0,.62-.45,2.31,2.31,0,0,0,.44-.66,1.92,1.92,0,0,0,.17-.78,1.32,1.32,0,0,0-.1-.53,1.36,1.36,0,0,0-.27-.43,1.42,1.42,0,0,0-.43-.29,1.43,1.43,0,0,0-.56-.1,1.47,1.47,0,0,0-.72.17,1.82,1.82,0,0,0-.58.45,2.15,2.15,0,0,0-.38.66,2.18,2.18,0,0,0-.14.8,1.87,1.87,0,0,0,.08.55,1.19,1.19,0,0,0,.26.42,1.05,1.05,0,0,0,.39.27,1.18,1.18,0,0,0,.5.1A1.6,1.6,0,0,0,156.86,208.73Z"/><path class="cls-11" d="M165.88,203.41h.64l1.1,6h-.69l-.27-1.56h-3.23l-1.12,1.56h-.73Zm.67,3.81-.53-3-2.17,3Z"/><path class="cls-11" d="M169.74,205h.65l-1.18,4.37h-.65Zm.4-1.68h.75l-.2.72H170Z"/><path class="cls-11" d="M171.9,205h.65l-.29,1.14a3.72,3.72,0,0,1,.43-.52,2.27,2.27,0,0,1,.48-.4,3,3,0,0,1,.55-.24,2.08,2.08,0,0,1,.62-.06l-.19.7h0a2.22,2.22,0,0,0-.71.13,2.29,2.29,0,0,0-.65.39,2.53,2.53,0,0,0-.53.63,3.4,3.4,0,0,0-.37.87l-.46,1.73h-.66Z"/><path class="cls-11" d="M175.41,205.58h-.6L175,205h.6l.14-.53a1.9,1.9,0,0,1,.56-1,1.4,1.4,0,0,1,.94-.31,1.87,1.87,0,0,1,.87.18l-.15.56a2.4,2.4,0,0,0-.36-.14,2,2,0,0,0-.36,0,.8.8,0,0,0-.54.2,1.25,1.25,0,0,0-.34.63l-.11.43h1.43l-.16.57h-1.42l-1,3.8h-.65Z"/><path class="cls-11" d="M178.55,205h.65L178,209.38h-.65Zm.4-1.68h.75l-.2.72h-.74Z"/><path class="cls-11" d="M180.46,207.51v.09a1.3,1.3,0,0,0,.36,1,1.27,1.27,0,0,0,1,.36,1.88,1.88,0,0,0,.74-.14,2.67,2.67,0,0,0,.61-.38l.34.43a3.08,3.08,0,0,1-.74.46,2.26,2.26,0,0,1-1,.19,2.22,2.22,0,0,1-.79-.13,1.85,1.85,0,0,1-.62-.38,1.69,1.69,0,0,1-.39-.59,1.87,1.87,0,0,1-.14-.76,2.68,2.68,0,0,1,.19-1,2.81,2.81,0,0,1,.53-.86,2.73,2.73,0,0,1,.81-.62,2.19,2.19,0,0,1,1-.24,1.86,1.86,0,0,1,.73.14,1.55,1.55,0,0,1,.53.36,1.46,1.46,0,0,1,.32.54,1.91,1.91,0,0,1,.11.64,2,2,0,0,1,0,.43c0,.13-.07.27-.11.4h-3.43A.28.28,0,0,0,180.46,207.51Zm2.91-.57a1.12,1.12,0,0,0,0-.35,1.54,1.54,0,0,0-.06-.43,1,1,0,0,0-.2-.36,1,1,0,0,0-.34-.24,1.07,1.07,0,0,0-.49-.1,1.53,1.53,0,0,0-.6.12,1.66,1.66,0,0,0-.51.31,2,2,0,0,0-.4.47,2.31,2.31,0,0,0-.25.58Z"/><path class="cls-11" d="M186.25,203.2h.65l-1.66,6.18h-.65Z"/><path class="cls-11" d="M188.09,209.35a1.75,1.75,0,0,1-.55-.38,1.63,1.63,0,0,1-.36-.58,2.06,2.06,0,0,1-.13-.76,2.73,2.73,0,0,1,.2-1.08,2.79,2.79,0,0,1,.54-.86,2.61,2.61,0,0,1,.79-.57,2.1,2.1,0,0,1,.92-.21,1.8,1.8,0,0,1,.6.09,1.73,1.73,0,0,1,.47.24,1.41,1.41,0,0,1,.34.35,2.06,2.06,0,0,1,.23.41l.75-2.8h.65l-1.65,6.18h-.65l.19-.74a3.7,3.7,0,0,1-.71.6,1.8,1.8,0,0,1-.94.24A1.73,1.73,0,0,1,188.09,209.35Zm1.59-.62a2,2,0,0,0,.62-.45,2.12,2.12,0,0,0,.44-.66,1.77,1.77,0,0,0,.17-.78,1.51,1.51,0,0,0-.09-.53,1.39,1.39,0,0,0-.28-.43,1.3,1.3,0,0,0-.43-.29,1.38,1.38,0,0,0-.55-.1,1.47,1.47,0,0,0-.72.17,1.71,1.71,0,0,0-.58.45,2,2,0,0,0-.39.66,2.4,2.4,0,0,0-.14.8,1.59,1.59,0,0,0,.09.55,1.17,1.17,0,0,0,.25.42,1.09,1.09,0,0,0,.4.27,1.18,1.18,0,0,0,.5.1A1.53,1.53,0,0,0,189.68,208.73Z"/><path class="cls-11" d="M39.4,213.61h1.85a3.22,3.22,0,0,1,1,.14,1.62,1.62,0,0,1,.71.41,1.48,1.48,0,0,1,.43,1.1,1.84,1.84,0,0,1-.22.92,1.93,1.93,0,0,1-.59.68,2.89,2.89,0,0,1-.92.43,4.92,4.92,0,0,1-1.19.14H39l-.57,2.11H37.8Zm1.09,3.23a2.75,2.75,0,0,0,1.62-.4,1.29,1.29,0,0,0,.57-1.13,1,1,0,0,0-.27-.71,1.65,1.65,0,0,0-1.18-.37H39.9l-.69,2.61Z"/><path class="cls-11" d="M44.23,219.55a1.23,1.23,0,0,1-.44-.23,1.15,1.15,0,0,1-.31-.38,1.08,1.08,0,0,1-.11-.52,1.45,1.45,0,0,1,.14-.66,1.41,1.41,0,0,1,.41-.5,2,2,0,0,1,.61-.31,2.77,2.77,0,0,1,.78-.11,4.46,4.46,0,0,1,.84.07,5.48,5.48,0,0,1,.72.17l0-.11c0-.06,0-.13,0-.2a1.5,1.5,0,0,0,0-.2.77.77,0,0,0-.3-.66,1.44,1.44,0,0,0-.89-.23,3.27,3.27,0,0,0-.65.06c-.19,0-.39.1-.59.17l-.11-.54a3.93,3.93,0,0,1,.67-.19,3.67,3.67,0,0,1,.78-.08,2,2,0,0,1,1.28.36,1.24,1.24,0,0,1,.44,1,1.5,1.5,0,0,1,0,.29,1.55,1.55,0,0,1-.06.31l-.66,2.48H46.2l.19-.69a2.41,2.41,0,0,1-.71.57,2,2,0,0,1-.93.21A1.49,1.49,0,0,1,44.23,219.55Zm1.28-.52a2.19,2.19,0,0,0,.5-.27,1.77,1.77,0,0,0,.41-.41,1.54,1.54,0,0,0,.26-.53l.08-.3a3.7,3.7,0,0,0-.65-.14,4.72,4.72,0,0,0-.77-.06,1.8,1.8,0,0,0-.54.08,1.22,1.22,0,0,0-.41.21,1.18,1.18,0,0,0-.27.32,1,1,0,0,0-.09.42.69.69,0,0,0,.25.56,1,1,0,0,0,.68.21A1.76,1.76,0,0,0,45.51,219Z"/><path class="cls-11" d="M48.83,215.16h.68l.49,3.63,2.42-3.63h.74l-3.06,4.41h-.57Z"/><path class="cls-11" d="M53.93,217.67v.08a1.3,1.3,0,0,0,.36,1,1.27,1.27,0,0,0,1,.36,1.88,1.88,0,0,0,.74-.13,2.67,2.67,0,0,0,.61-.38l.34.43a3.43,3.43,0,0,1-.74.46,2.26,2.26,0,0,1-1,.19,2.22,2.22,0,0,1-.79-.13,1.72,1.72,0,0,1-.62-.39,1.56,1.56,0,0,1-.39-.58,2.06,2.06,0,0,1-.14-.76,2.68,2.68,0,0,1,.19-1,3,3,0,0,1,.53-.87,2.88,2.88,0,0,1,.81-.61,2.19,2.19,0,0,1,1-.24,1.86,1.86,0,0,1,.73.14,1.55,1.55,0,0,1,.53.36,1.51,1.51,0,0,1,.32.53,2,2,0,0,1,.11.65,1.93,1.93,0,0,1,0,.42c0,.14-.07.28-.11.41H53.94A.22.22,0,0,0,53.93,217.67Zm2.91-.58a1.05,1.05,0,0,0,0-.34,1.49,1.49,0,0,0-.06-.43.91.91,0,0,0-.2-.36,1.11,1.11,0,0,0-.34-.25,1.22,1.22,0,0,0-.49-.09,1.53,1.53,0,0,0-.6.12,1.66,1.66,0,0,0-.51.31,1.81,1.81,0,0,0-.4.47,2.41,2.41,0,0,0-.25.57Z"/><path class="cls-11" d="M59.17,215.16h.65l-.18.71a3.39,3.39,0,0,1,.63-.57,1.46,1.46,0,0,1,.82-.23,1.44,1.44,0,0,1,.49.08,1.34,1.34,0,0,1,.37.22,1.54,1.54,0,0,1,.25.32,1.86,1.86,0,0,1,.14.37,2.18,2.18,0,0,1,.73-.72,2,2,0,0,1,1-.27,1.4,1.4,0,0,1,.54.1,1.17,1.17,0,0,1,.42.27,1.12,1.12,0,0,1,.27.43,1.63,1.63,0,0,1,.1.55,1.86,1.86,0,0,1,0,.33c0,.12,0,.24-.08.35l-.65,2.44H64l.67-2.48a1.44,1.44,0,0,0,0-.24,2.18,2.18,0,0,0,0-.25.92.92,0,0,0-.24-.67.89.89,0,0,0-.67-.24,1.2,1.2,0,0,0-.48.11,1.76,1.76,0,0,0-.44.29,2.73,2.73,0,0,0-.36.45,2.13,2.13,0,0,0-.23.56l-.65,2.47H61l.66-2.48a1.44,1.44,0,0,0,0-.24,2.18,2.18,0,0,0,0-.25.92.92,0,0,0-.24-.67.9.9,0,0,0-.67-.24,1.2,1.2,0,0,0-.48.11,1.71,1.71,0,0,0-.43.29,2,2,0,0,0-.36.45,2.18,2.18,0,0,0-.25.56l-.66,2.47H58Z"/><path class="cls-11" d="M67,217.67v.08a1.33,1.33,0,0,0,.35,1,1.31,1.31,0,0,0,1,.36,1.8,1.8,0,0,0,.73-.13,2.47,2.47,0,0,0,.61-.38L70,219a3.35,3.35,0,0,1-.73.46,2.58,2.58,0,0,1-1.78.06,1.68,1.68,0,0,1-.61-.39,1.56,1.56,0,0,1-.39-.58,1.87,1.87,0,0,1-.14-.76,2.68,2.68,0,0,1,.19-1,2.79,2.79,0,0,1,.53-.87,2.88,2.88,0,0,1,.81-.61,2.18,2.18,0,0,1,1-.24,1.91,1.91,0,0,1,.74.14,1.47,1.47,0,0,1,.85.89,2,2,0,0,1,.11.65,1.93,1.93,0,0,1,0,.42,1.91,1.91,0,0,1-.11.41H67A.22.22,0,0,0,67,217.67Zm2.91-.58a1.05,1.05,0,0,0,0-.34,1.49,1.49,0,0,0-.06-.43.91.91,0,0,0-.2-.36,1.11,1.11,0,0,0-.34-.25,1.22,1.22,0,0,0-.49-.09,1.58,1.58,0,0,0-.61.12,1.94,1.94,0,0,0-.51.31,2,2,0,0,0-.39.47,2.41,2.41,0,0,0-.25.57Z"/><path class="cls-11" d="M72.2,215.16h.65l-.19.71a3.56,3.56,0,0,1,.66-.57,1.64,1.64,0,0,1,.87-.23,1.44,1.44,0,0,1,1,.36,1.34,1.34,0,0,1,.38,1,1.84,1.84,0,0,1,0,.33c0,.12,0,.24-.08.35l-.65,2.44h-.65l.66-2.48a1.44,1.44,0,0,0,0-.24,2.29,2.29,0,0,0,0-.25.86.86,0,0,0-.27-.67,1,1,0,0,0-.72-.24,1.33,1.33,0,0,0-.5.11,1.7,1.7,0,0,0-.46.29,1.77,1.77,0,0,0-.37.44,2.1,2.1,0,0,0-.25.57l-.66,2.47H71Z"/><path class="cls-11" d="M77,219.4a.76.76,0,0,1-.29-.65,1.69,1.69,0,0,1,0-.23c0-.08,0-.16,0-.22l.68-2.56h-.6l.15-.58h.61l.36-1.32h.64l-.35,1.32h1.38l-.16.58H78.11l-.67,2.51,0,.17c0,.06,0,.11,0,.16a.38.38,0,0,0,.16.33A.74.74,0,0,0,78,219a1.94,1.94,0,0,0,.64-.12l-.16.59a2.19,2.19,0,0,1-.34.1,2,2,0,0,1-.36,0A1.32,1.32,0,0,1,77,219.4Z"/><path class="cls-11" d="M85.09,214.23h-2l.17-.62h4.66l-.16.62h-2l-1.42,5.31h-.67Z"/><path class="cls-11" d="M88.28,217.67v.08a1.3,1.3,0,0,0,.36,1,1.27,1.27,0,0,0,1,.36,1.88,1.88,0,0,0,.74-.13,2.67,2.67,0,0,0,.61-.38l.33.43a3.13,3.13,0,0,1-.73.46,2.26,2.26,0,0,1-1,.19,2.18,2.18,0,0,1-.79-.13,1.72,1.72,0,0,1-.62-.39,1.56,1.56,0,0,1-.39-.58,1.87,1.87,0,0,1-.14-.76,2.68,2.68,0,0,1,.19-1,3,3,0,0,1,.53-.87,2.88,2.88,0,0,1,.81-.61,2.19,2.19,0,0,1,1-.24,1.86,1.86,0,0,1,.73.14,1.55,1.55,0,0,1,.53.36,1.51,1.51,0,0,1,.32.53,2,2,0,0,1,.11.65,1.93,1.93,0,0,1,0,.42c0,.14-.07.28-.11.41H88.29A.22.22,0,0,0,88.28,217.67Zm2.91-.58a1.05,1.05,0,0,0,0-.34,1.49,1.49,0,0,0-.06-.43A.91.91,0,0,0,91,216a1.11,1.11,0,0,0-.34-.25,1.22,1.22,0,0,0-.49-.09,1.53,1.53,0,0,0-.6.12,1.66,1.66,0,0,0-.51.31,1.81,1.81,0,0,0-.4.47,2.41,2.41,0,0,0-.25.57Z"/><path class="cls-11" d="M93.82,219.51a1.89,1.89,0,0,1-.62-.38,1.63,1.63,0,0,1-.42-.6,1.85,1.85,0,0,1-.17-.8,2.52,2.52,0,0,1,.21-1,2.87,2.87,0,0,1,.56-.84,2.5,2.5,0,0,1,.82-.58,2.24,2.24,0,0,1,1-.22,2.45,2.45,0,0,1,.62.08,2.22,2.22,0,0,1,.49.23,1.64,1.64,0,0,1,.37.32,2.2,2.2,0,0,1,.26.39l-.52.33-.22-.3a1.31,1.31,0,0,0-.6-.41,1.51,1.51,0,0,0-.44-.06,1.64,1.64,0,0,0-.72.16,2.1,2.1,0,0,0-1,1.12,1.91,1.91,0,0,0-.16.78,1.5,1.5,0,0,0,.11.58,1.06,1.06,0,0,0,.29.42,1.17,1.17,0,0,0,.42.27,1.33,1.33,0,0,0,.49.09,1.53,1.53,0,0,0,.69-.16,3,3,0,0,0,.6-.42l.38.42a2.83,2.83,0,0,1-.75.53,2.19,2.19,0,0,1-1,.2A2,2,0,0,1,93.82,219.51Z"/><path class="cls-11" d="M98.77,213.36h.65l-.68,2.51a3.56,3.56,0,0,1,.66-.57,1.64,1.64,0,0,1,.87-.23,1.44,1.44,0,0,1,1,.36,1.34,1.34,0,0,1,.38,1,1.84,1.84,0,0,1,0,.33c0,.12,0,.24-.08.35l-.65,2.44h-.65l.66-2.48a1.44,1.44,0,0,0,0-.24,2.29,2.29,0,0,0,0-.25.86.86,0,0,0-.27-.67,1,1,0,0,0-.72-.24,1.29,1.29,0,0,0-.5.11,1.7,1.7,0,0,0-.46.29,1.77,1.77,0,0,0-.37.44,2.1,2.1,0,0,0-.25.57l-.66,2.47h-.65Z"/><path class="cls-11" d="M103.47,215.16h.65l-.19.71a3.56,3.56,0,0,1,.66-.57,1.6,1.6,0,0,1,.86-.23,1.41,1.41,0,0,1,1,.36,1.31,1.31,0,0,1,.39,1,1.84,1.84,0,0,1,0,.33c0,.12,0,.24-.08.35l-.65,2.44h-.65l.66-2.48a1.44,1.44,0,0,0,0-.24,2.18,2.18,0,0,0,0-.25.85.85,0,0,0-.26-.67,1,1,0,0,0-.72-.24,1.29,1.29,0,0,0-.5.11,1.7,1.7,0,0,0-.46.29,1.77,1.77,0,0,0-.37.44,2.1,2.1,0,0,0-.25.57l-.66,2.47h-.65Z"/><path class="cls-11" d="M108.93,219.49a1.72,1.72,0,0,1-.63-.41,1.62,1.62,0,0,1-.4-.62,2,2,0,0,1-.14-.78,2.53,2.53,0,0,1,.2-1,2.87,2.87,0,0,1,.56-.84,2.75,2.75,0,0,1,.82-.57,2.24,2.24,0,0,1,1-.22,2.18,2.18,0,0,1,.82.15,2.05,2.05,0,0,1,.63.4,1.84,1.84,0,0,1,.4.62,2,2,0,0,1,.15.79,2.38,2.38,0,0,1-.21,1,2.71,2.71,0,0,1-.57.84,2.75,2.75,0,0,1-.82.57,2.37,2.37,0,0,1-1,.21A2.18,2.18,0,0,1,108.93,219.49Zm1.56-.61a1.86,1.86,0,0,0,.6-.44,2.09,2.09,0,0,0,.42-.64,1.93,1.93,0,0,0,.15-.75,1.28,1.28,0,0,0-1.37-1.4,1.47,1.47,0,0,0-.72.17,1.85,1.85,0,0,0-.59.45,2.26,2.26,0,0,0-.41.64,1.93,1.93,0,0,0-.15.75,1.35,1.35,0,0,0,.38,1,1.37,1.37,0,0,0,1,.36A1.57,1.57,0,0,0,110.49,218.88Z"/><path class="cls-11" d="M114.61,213.36h.65l-1.66,6.18H113Z"/><path class="cls-11" d="M116.57,219.49a1.85,1.85,0,0,1-.64-.41,1.89,1.89,0,0,1-.4-.62,2.21,2.21,0,0,1-.14-.78,2.37,2.37,0,0,1,.21-1,2.69,2.69,0,0,1,.56-.84,2.63,2.63,0,0,1,.82-.57,2.24,2.24,0,0,1,1-.22,2.12,2.12,0,0,1,.81.15,1.84,1.84,0,0,1,.63.4,1.86,1.86,0,0,1,.41.62,2,2,0,0,1,.14.79,2.38,2.38,0,0,1-.21,1,2.71,2.71,0,0,1-.57.84,2.63,2.63,0,0,1-.82.57,2.33,2.33,0,0,1-1,.21A2.09,2.09,0,0,1,116.57,219.49Zm1.56-.61a2.11,2.11,0,0,0,.6-.44,2.26,2.26,0,0,0,.41-.64,1.93,1.93,0,0,0,.15-.75,1.28,1.28,0,0,0-1.37-1.4,1.53,1.53,0,0,0-.72.17,2,2,0,0,0-.59.45,2.23,2.23,0,0,0-.4.64,1.78,1.78,0,0,0-.16.75,1.28,1.28,0,0,0,1.37,1.39A1.61,1.61,0,0,0,118.13,218.88Z"/><path class="cls-11" d="M121.24,220.71a3,3,0,0,1-1-.56l.4-.46a3,3,0,0,0,.79.48,2.42,2.42,0,0,0,.94.18,1.94,1.94,0,0,0,.72-.12,1.5,1.5,0,0,0,.51-.33,1.87,1.87,0,0,0,.33-.45,3.45,3.45,0,0,0,.22-.6l.12-.44a3.12,3.12,0,0,1-.74.57,1.87,1.87,0,0,1-.94.22,2.08,2.08,0,0,1-.66-.11,1.78,1.78,0,0,1-.57-.32,1.48,1.48,0,0,1-.4-.52,1.54,1.54,0,0,1-.15-.7,2.25,2.25,0,0,1,.22-1,2.61,2.61,0,0,1,.55-.79,2.44,2.44,0,0,1,.79-.51,2.33,2.33,0,0,1,.9-.18,1.87,1.87,0,0,1,.61.09,1.61,1.61,0,0,1,.45.24,1.43,1.43,0,0,1,.32.33,4,4,0,0,1,.23.39l.25-1h.65l-1,3.75a4.09,4.09,0,0,1-.3.83,2.25,2.25,0,0,1-.41.55,1.82,1.82,0,0,1-.72.46,2.6,2.6,0,0,1-1,.16A3.51,3.51,0,0,1,121.24,220.71Zm2.28-2.22a2.14,2.14,0,0,0,.6-.39,2.07,2.07,0,0,0,.41-.56,1.52,1.52,0,0,0,.15-.66,1.06,1.06,0,0,0-.1-.46,1.31,1.31,0,0,0-.26-.4,1.26,1.26,0,0,0-.43-.27,1.4,1.4,0,0,0-.56-.1,1.74,1.74,0,0,0-.67.13,1.88,1.88,0,0,0-.58.38,2.14,2.14,0,0,0-.4.58,1.77,1.77,0,0,0-.15.73,1.14,1.14,0,0,0,.39.88,1.34,1.34,0,0,0,.41.22,1.51,1.51,0,0,0,.48.07A1.74,1.74,0,0,0,123.52,218.49Z"/><path class="cls-11" d="M125.77,220.84a1.6,1.6,0,0,1-.45-.23l.36-.49a.82.82,0,0,0,.31.16,1.23,1.23,0,0,0,.36.06,1,1,0,0,0,.54-.17,2.51,2.51,0,0,0,.6-.64l-.8-4.37h.68l.61,3.65,2.35-3.65h.74l-3,4.52a3.22,3.22,0,0,1-.88,1,1.58,1.58,0,0,1-.91.28A1.6,1.6,0,0,1,125.77,220.84Z"/><path class="cls-11" d="M133.3,219l3.4-2.57a4.24,4.24,0,0,0,.74-.69,1.18,1.18,0,0,0,.25-.71.82.82,0,0,0-.3-.65,1.23,1.23,0,0,0-.83-.25,1.67,1.67,0,0,0-.89.24,3.34,3.34,0,0,0-.73.57l-.44-.42a3.71,3.71,0,0,1,.91-.72,2.37,2.37,0,0,1,1.18-.28,2.15,2.15,0,0,1,.73.11,1.67,1.67,0,0,1,.56.3,1.23,1.23,0,0,1,.36.46,1.32,1.32,0,0,1,.13.6,1.5,1.5,0,0,1-.32,1,5.13,5.13,0,0,1-.94.9l-2.73,2.07h3.16l-.16.61h-4.21Z"/><path class="cls-11" d="M140.23,219.47a1.9,1.9,0,0,1-.65-.47,2.07,2.07,0,0,1-.4-.73,2.94,2.94,0,0,1-.14-.91,4.4,4.4,0,0,1,.23-1.39,4.2,4.2,0,0,1,.63-1.23,3.29,3.29,0,0,1,1-.89,2.47,2.47,0,0,1,1.25-.34,2.23,2.23,0,0,1,.88.17,1.76,1.76,0,0,1,.66.48,2.1,2.1,0,0,1,.4.72,3,3,0,0,1,.14.92,4.53,4.53,0,0,1-.86,2.62,3.25,3.25,0,0,1-1,.88,2.37,2.37,0,0,1-1.25.34A2.24,2.24,0,0,1,140.23,219.47Zm1.85-.73a2.78,2.78,0,0,0,.75-.74,4,4,0,0,0,.68-2.2,2.36,2.36,0,0,0-.09-.67,1.58,1.58,0,0,0-.28-.53,1.19,1.19,0,0,0-.45-.35,1.33,1.33,0,0,0-.61-.13,1.64,1.64,0,0,0-.92.29,2.93,2.93,0,0,0-.75.74,4,4,0,0,0-.5,1,4,4,0,0,0-.18,1.17,2.29,2.29,0,0,0,.09.66,1.47,1.47,0,0,0,.27.53,1.19,1.19,0,0,0,.45.35,1.35,1.35,0,0,0,.62.13A1.57,1.57,0,0,0,142.08,218.74Z"/><path class="cls-11" d="M144.39,219l3.4-2.57a4.64,4.64,0,0,0,.74-.69,1.18,1.18,0,0,0,.25-.71.82.82,0,0,0-.3-.65,1.23,1.23,0,0,0-.83-.25,1.73,1.73,0,0,0-.9.24,3.54,3.54,0,0,0-.72.57l-.44-.42a3.71,3.71,0,0,1,.91-.72,2.37,2.37,0,0,1,1.18-.28,2.09,2.09,0,0,1,.72.11,1.72,1.72,0,0,1,.57.3,1.23,1.23,0,0,1,.36.46,1.32,1.32,0,0,1,.13.6,1.5,1.5,0,0,1-.32,1,5.13,5.13,0,0,1-.94.9l-2.73,2.07h3.16l-.16.61h-4.21Z"/><path class="cls-11" d="M150.36,219.34a2.52,2.52,0,0,1-.8-.75l.51-.38a2.18,2.18,0,0,0,.67.62,1.77,1.77,0,0,0,.92.22,2,2,0,0,0,.7-.12,1.8,1.8,0,0,0,.54-.32,1.45,1.45,0,0,0,.35-.47,1.33,1.33,0,0,0,.12-.55,1,1,0,0,0-.36-.84,1.5,1.5,0,0,0-1-.3,2.52,2.52,0,0,0-.58.08,2.55,2.55,0,0,0-.63.24l-.38-.3.93-2.86h3.31l-.17.62h-2.7l-.63,1.86a1.89,1.89,0,0,1,.48-.17,2.78,2.78,0,0,1,.54-.06,2.29,2.29,0,0,1,.76.12,1.77,1.77,0,0,1,.59.33,1.56,1.56,0,0,1,.38.53,1.67,1.67,0,0,1,.14.69,1.84,1.84,0,0,1-.18.8,2.22,2.22,0,0,1-.5.68,2.4,2.4,0,0,1-.78.46,3,3,0,0,1-1,.17A2.45,2.45,0,0,1,150.36,219.34Z"/></g></g></svg>