<svg xmlns="http://www.w3.org/2000/svg" xmlns:xlink="http://www.w3.org/1999/xlink" viewBox="0 0 333.86 175.07"><defs><style>.cls-1{fill:url(#linear-gradient);}.cls-2{fill:url(#linear-gradient-2);}.cls-3{fill:url(#linear-gradient-3);}.cls-4{fill:url(#linear-gradient-4);}.cls-5{fill:url(#linear-gradient-5);}.cls-6{fill:#5c181e;}.cls-7{fill:url(#linear-gradient-6);}.cls-8{fill:#686aad;}.cls-9{fill:#f8ac1f;}.cls-10{fill:url(#linear-gradient-7);}.cls-11{fill:url(#linear-gradient-8);}.cls-12{fill:url(#linear-gradient-9);}.cls-13{fill:url(#linear-gradient-10);}.cls-14{fill:url(#linear-gradient-11);}.cls-15{fill:url(#linear-gradient-12);}.cls-16{fill:url(#linear-gradient-13);}.cls-17{fill:url(#linear-gradient-14);}.cls-18{fill:url(#linear-gradient-15);}</style><linearGradient id="linear-gradient" x1="24.93" y1="81" x2="24.93" y2="116.1" gradientUnits="userSpaceOnUse"><stop offset="0.1" stop-color="#d3b8b1"/><stop offset="0.52" stop-color="#8b4b44"/><stop offset="1" stop-color="#691018"/></linearGradient><linearGradient id="linear-gradient-2" x1="82.29" y1="81" x2="82.29" y2="116.1" xlink:href="#linear-gradient"/><linearGradient id="linear-gradient-3" x1="136.99" y1="81" x2="136.99" y2="116.1" xlink:href="#linear-gradient"/><linearGradient id="linear-gradient-4" x1="190.09" y1="81" x2="190.09" y2="116.1" xlink:href="#linear-gradient"/><linearGradient id="linear-gradient-5" x1="8.14" y1="69.41" x2="8.14" y2="36.15" xlink:href="#linear-gradient"/><linearGradient id="linear-gradient-6" x1="188.81" y1="69.41" x2="188.81" y2="36.15" xlink:href="#linear-gradient"/><linearGradient id="linear-gradient-7" x1="344.11" y1="4.78" x2="261.37" y2="88.99" xlink:href="#linear-gradient"/><linearGradient id="linear-gradient-8" x1="337.4" y1="-1.83" x2="254.45" y2="82.59" xlink:href="#linear-gradient"/><linearGradient id="linear-gradient-9" x1="326.1" y1="-12.86" x2="243.22" y2="71.48" xlink:href="#linear-gradient"/><linearGradient id="linear-gradient-10" x1="335.11" y1="-4.08" x2="252.18" y2="80.31" xlink:href="#linear-gradient"/><linearGradient id="linear-gradient-11" x1="333.11" y1="-6.09" x2="250.16" y2="78.33" xlink:href="#linear-gradient"/><linearGradient id="linear-gradient-12" x1="332.29" y1="-6.89" x2="249.39" y2="77.48" xlink:href="#linear-gradient"/><linearGradient id="linear-gradient-13" x1="333.71" y1="-5.51" x2="250.84" y2="78.83" xlink:href="#linear-gradient"/><linearGradient id="linear-gradient-14" x1="317.47" y1="-21.19" x2="234.63" y2="63.12" xlink:href="#linear-gradient"/><linearGradient id="linear-gradient-15" x1="354.91" y1="15.27" x2="272.11" y2="99.54" xlink:href="#linear-gradient"/></defs><g id="Layer_2" data-name="Layer 2"><g id="Layer_1-2" data-name="Layer 1"><path class="cls-1" d="M49.86,131.33v11.73h-47v-9.33l24-22.66A25.4,25.4,0,0,0,32,104.8a11.37,11.37,0,0,0,1.34-5.2,6.89,6.89,0,0,0-2.54-5.73c-1.68-1.33-4.16-2-7.42-2A17,17,0,0,0,16,93.43a14,14,0,0,0-5.51,4.66L0,91.34a24.72,24.72,0,0,1,10-8.49,33.64,33.64,0,0,1,14.67-3.06,30.18,30.18,0,0,1,12.13,2.26,18.71,18.71,0,0,1,8.08,6.4,16.54,16.54,0,0,1,2.89,9.73,21.7,21.7,0,0,1-2.13,9.51q-2.13,4.44-8.27,10.13l-14.3,13.51Z"/><path class="cls-2" d="M68.52,140.31a25.66,25.66,0,0,1-9.47-11.07A40.17,40.17,0,0,1,55.63,112a40.18,40.18,0,0,1,3.42-17.29,25.63,25.63,0,0,1,9.47-11.06,25.2,25.2,0,0,1,13.77-3.82,25.21,25.21,0,0,1,13.78,3.82,25.61,25.61,0,0,1,9.46,11.06A40.18,40.18,0,0,1,109,112a40.17,40.17,0,0,1-3.42,17.28,25.64,25.64,0,0,1-9.46,11.07,26.75,26.75,0,0,1-27.55,0Zm22.7-13.24q3.25-4.89,3.25-15.11T91.22,96.85a10.52,10.52,0,0,0-17.77,0q-3.24,4.89-3.24,15.11t3.24,15.11a10.53,10.53,0,0,0,17.77,0Z"/><path class="cls-3" d="M161.92,131.33v11.73h-47v-9.33l24-22.66a25.48,25.48,0,0,0,5.16-6.27,11.35,11.35,0,0,0,1.33-5.2,6.88,6.88,0,0,0-2.53-5.73c-1.69-1.33-4.17-2-7.42-2a17,17,0,0,0-7.38,1.56,14.09,14.09,0,0,0-5.51,4.66l-10.49-6.75a24.68,24.68,0,0,1,10-8.49,33.56,33.56,0,0,1,14.66-3.06,30.18,30.18,0,0,1,12.13,2.26,18.74,18.74,0,0,1,8.09,6.4,16.61,16.61,0,0,1,2.89,9.73,21.57,21.57,0,0,1-2.14,9.51q-2.13,4.44-8.26,10.13l-14.31,13.51Z"/><path class="cls-4" d="M208.62,109.47q6.27,5.23,6.27,14A19.46,19.46,0,0,1,212,133.86a19.86,19.86,0,0,1-8.66,7.47,33.07,33.07,0,0,1-14.35,2.8,49.2,49.2,0,0,1-12.94-1.73,33.26,33.26,0,0,1-10.79-4.94l5.68-11a27,27,0,0,0,8.18,4.13,31.18,31.18,0,0,0,9.51,1.47c3.61,0,6.46-.71,8.53-2.13a6.83,6.83,0,0,0,3.11-6,6.71,6.71,0,0,0-3.24-6q-3.25-2-11.24-2H169.92l3.2-35h37.95V92.41H185.12l-1,11.82h5.06Q202.36,104.23,208.62,109.47Z"/><path class="cls-5" d="M0,28.16V70.38H16.29V45.22A33.07,33.07,0,0,1,0,28.16Z"/><path class="cls-6" d="M30.36,29.56a14.08,14.08,0,0,1-14.07-14h0V0H0V15.49c0,.46,0,.92,0,1.39,0,.12,0,.25,0,.37,0,.39.05.77.08,1.15l0,.24c0,.45.1.89.17,1.33,0,.12,0,.24,0,.36.06.35.12.69.19,1,0,.11,0,.23.07.34.08.43.18.85.29,1.26L1,23.3c.08.33.17.65.27,1,0,.13.08.27.13.41q.18.59.39,1.17l.12.29q.16.46.36.93c.07.15.13.31.2.46l.36.8.21.45c.16.32.33.65.5,1s.18.34.28.51l.35.61.3.51c.19.31.39.61.59.91l.37.55.33.46.42.57.31.39c.27.34.55.68.83,1l.28.32c.17.2.35.39.54.59l.23.24c.37.4.76.78,1.15,1.15l.14.13.65.59.2.17c.7.61,1.43,1.18,2.19,1.73l.16.11c.78.55,1.59,1.07,2.42,1.54l.13.08.85.46h0a30.06,30.06,0,0,0,14.07,3.48Z"/><path class="cls-6" d="M40.44,65.86A34.51,34.51,0,0,1,26.77,53.32a33.67,33.67,0,0,1-5-18.13,33.67,33.67,0,0,1,5-18.13A34.36,34.36,0,0,1,40.44,4.52,41.83,41.83,0,0,1,60,0,42.33,42.33,0,0,1,76.54,3.11,33.23,33.23,0,0,1,89,12.05L78.5,21.39a22.8,22.8,0,0,0-17.7-8,24.1,24.1,0,0,0-11.66,2.78,20,20,0,0,0-8,7.72,22.16,22.16,0,0,0-2.87,11.28,22.16,22.16,0,0,0,2.87,11.28,20,20,0,0,0,8,7.72A24.09,24.09,0,0,0,60.8,57,22.68,22.68,0,0,0,78.5,48.9L89,58.23a32.58,32.58,0,0,1-12.46,9A42.68,42.68,0,0,1,59.9,70.38,41.59,41.59,0,0,1,40.44,65.86Z"/><path class="cls-7" d="M180.66,48.31V70.38H197V27.68A42.2,42.2,0,0,1,180.66,48.31Z"/><path class="cls-6" d="M158.14,0V13.27h22.52v.05h0a23.24,23.24,0,0,1-23.21,23.17H143.36L128,52.78h29.49a39.33,39.33,0,0,0,24.07-8.22l.23-.18c.48-.38,1-.77,1.43-1.17l.28-.25q.75-.66,1.47-1.35l.1-.1.72-.72.31-.33c.37-.39.74-.79,1.09-1.19l.37-.42c.28-.33.55-.66.82-1l.51-.65c.18-.23.35-.47.52-.7l.46-.65c.23-.32.45-.65.67-1s.31-.48.46-.73.27-.42.4-.63c.23-.38.45-.77.66-1.16.12-.2.22-.41.33-.61s.37-.7.54-1,.21-.43.31-.65.34-.72.49-1.08c.08-.18.15-.35.23-.52.19-.46.37-.92.55-1.39.06-.17.12-.33.17-.49.17-.47.34-.95.49-1.43l.09-.31c.15-.48.29-1,.41-1.44,0-.13.08-.27.11-.4.13-.53.26-1.06.37-1.6,0-.13,0-.25.08-.38.11-.57.21-1.13.3-1.7,0,0,0-.06,0-.08.09-.57.16-1.14.22-1.71,0-.11,0-.23,0-.34.05-.57.1-1.15.13-1.73,0-.11,0-.23,0-.34,0-.61,0-1.22,0-1.83h35.2V0Z"/><path class="cls-6" d="M142.11,3.12A24.11,24.11,0,0,1,152.71,12a24.39,24.39,0,0,1,3.72,13.58c0,5.16-1.24,11.54-3.72,15.39a23.75,23.75,0,0,1-10.6,8.85,39.78,39.78,0,0,1-16.24,3.06H111.69V70.38H95.4V0h30.47A39.11,39.11,0,0,1,142.11,3.12Zm-6,30.08a9.8,9.8,0,0,0,3.82-8.38,9.71,9.71,0,0,0-3.82-8.38q-3.81-3.17-11.16-3.17H111.69v23.1H125Q132.31,36.37,136.12,33.2Z"/><path class="cls-6" d="M208.09,18.86l0,12.82h-3l0-10.44h-2.56V18.86Z"/><path class="cls-6" d="M222.08,29H220v2.69h-2.89V29h-6.9V27l6-8.13h3.11l-5.58,7.71h3.44v-2.4H220v2.4h2.08Z"/><path class="cls-6" d="M225.54,19.64h-1.32v-.78h3.61v.78H226.5V23h-1Z"/><path class="cls-6" d="M232.14,18.86V23h-1v-1.7H229.3V23h-1V18.86h1V20.5h1.89V18.86Z"/><path class="cls-6" d="M1.75,154.2v6.61H1V154.2Z"/><path class="cls-6" d="M4.29,160.81H3.56v-4.88h.73v.85a2.15,2.15,0,0,1,.64-.67,1.7,1.7,0,0,1,1-.28,1.91,1.91,0,0,1,.78.14,1.62,1.62,0,0,1,.59.4,1.83,1.83,0,0,1,.37.62,2.47,2.47,0,0,1,.13.79v3H7.1V158a1.61,1.61,0,0,0-.35-1.08,1.27,1.27,0,0,0-1-.39,1.4,1.4,0,0,0-.58.11,1.25,1.25,0,0,0-.47.31,1.47,1.47,0,0,0-.31.48,1.81,1.81,0,0,0-.1.63Z"/><path class="cls-6" d="M10.36,159.42a.77.77,0,0,0,.22.64.93.93,0,0,0,.6.18,2,2,0,0,0,.35,0,2.28,2.28,0,0,0,.36-.13v.62a1.44,1.44,0,0,1-.41.15,1.73,1.73,0,0,1-.47.06,1.92,1.92,0,0,1-.55-.08,1.11,1.11,0,0,1-.44-.24,1.13,1.13,0,0,1-.29-.43,1.74,1.74,0,0,1-.1-.63v-3H9v-.64h.68v-1.47h.73v1.47H11.9v.64H10.36Z"/><path class="cls-6" d="M13.68,159.34a1.58,1.58,0,0,0,.39.52,1.56,1.56,0,0,0,.52.32,1.62,1.62,0,0,0,.62.11,1.8,1.8,0,0,0,.87-.19,2.44,2.44,0,0,0,.67-.5l.45.41a2.92,2.92,0,0,1-.84.66,2.71,2.71,0,0,1-2.11.07,2.18,2.18,0,0,1-.78-.52,2.42,2.42,0,0,1-.53-.81,2.66,2.66,0,0,1-.2-1,2.76,2.76,0,0,1,.66-1.81,2.25,2.25,0,0,1,.75-.54,2.09,2.09,0,0,1,.94-.2,2.13,2.13,0,0,1,1.68.75,2.59,2.59,0,0,1,.44.82,3.33,3.33,0,0,1,.15,1v.11a.49.49,0,0,1,0,.12H13.49A2.12,2.12,0,0,0,13.68,159.34Zm2.93-1.24a2.21,2.21,0,0,0-.13-.63,1.62,1.62,0,0,0-.3-.53,1.51,1.51,0,0,0-.47-.36,1.47,1.47,0,0,0-.64-.14,1.28,1.28,0,0,0-.59.13,1.3,1.3,0,0,0-.48.35,1.87,1.87,0,0,0-.34.52,2.29,2.29,0,0,0-.17.66Z"/><path class="cls-6" d="M19.36,160.81h-.72v-4.88h.72v1.27a2.77,2.77,0,0,1,.33-.55,2.13,2.13,0,0,1,.46-.44,1.91,1.91,0,0,1,.55-.28,2,2,0,0,1,.65-.08v.78H21.3a2,2,0,0,0-.75.14,1.69,1.69,0,0,0-.62.43,1.87,1.87,0,0,0-.42.7,2.86,2.86,0,0,0-.15,1Z"/><path class="cls-6" d="M23.19,160.81h-.73v-4.88h.73v.85a2.15,2.15,0,0,1,.64-.67,1.72,1.72,0,0,1,1-.28,2,2,0,0,1,.79.14,1.59,1.59,0,0,1,.58.4,1.83,1.83,0,0,1,.37.62,2.47,2.47,0,0,1,.13.79v3H26V158a1.61,1.61,0,0,0-.35-1.08,1.27,1.27,0,0,0-1-.39,1.4,1.4,0,0,0-.58.11,1.25,1.25,0,0,0-.47.31,1.47,1.47,0,0,0-.31.48,1.81,1.81,0,0,0-.1.63Z"/><path class="cls-6" d="M29.25,156.61a3.61,3.61,0,0,0-.69.26l-.22-.6a5.05,5.05,0,0,1,.82-.3,4,4,0,0,1,1-.11,2.17,2.17,0,0,1,1.53.5,1.9,1.9,0,0,1,.54,1.47v3h-.7v-.73a2.31,2.31,0,0,1-.68.58,2.11,2.11,0,0,1-1.08.25,2.52,2.52,0,0,1-.67-.09,1.76,1.76,0,0,1-.58-.29,1.56,1.56,0,0,1-.42-.47,1.44,1.44,0,0,1-.15-.67,1.52,1.52,0,0,1,.15-.69,1.27,1.27,0,0,1,.43-.49,1.84,1.84,0,0,1,.66-.31,3.12,3.12,0,0,1,.84-.1,4.83,4.83,0,0,1,.82.06,3.73,3.73,0,0,1,.68.15v-.17a1.25,1.25,0,0,0-.38-1,1.57,1.57,0,0,0-1.07-.33A2.8,2.8,0,0,0,29.25,156.61Zm-.23,2a.87.87,0,0,0-.37.75.92.92,0,0,0,.1.41,1.14,1.14,0,0,0,.27.31,1.18,1.18,0,0,0,.39.19,1.45,1.45,0,0,0,.47.07,1.89,1.89,0,0,0,.63-.1A2,2,0,0,0,31,160a1.4,1.4,0,0,0,.35-.42,1.18,1.18,0,0,0,.12-.53v-.47a6.3,6.3,0,0,0-.62-.15,5,5,0,0,0-.81-.06A1.73,1.73,0,0,0,29,158.61Z"/><path class="cls-6" d="M34.68,159.42a.77.77,0,0,0,.22.64.93.93,0,0,0,.6.18,2,2,0,0,0,.35,0,1.89,1.89,0,0,0,.35-.13v.62a1.38,1.38,0,0,1-.4.15,1.73,1.73,0,0,1-.47.06,1.92,1.92,0,0,1-.55-.08,1.11,1.11,0,0,1-.44-.24,1.13,1.13,0,0,1-.29-.43,1.74,1.74,0,0,1-.1-.63v-3h-.68v-.64H34v-1.47h.73v1.47h1.54v.64H34.68Z"/><path class="cls-6" d="M37.53,154.86v-.8h.83v.8Zm0,5.95v-4.88h.73v4.88Z"/><path class="cls-6" d="M44.58,159.35a2.5,2.5,0,0,1-2.36,1.57,2.4,2.4,0,0,1-1-.2,2.53,2.53,0,0,1-.81-.55,2.4,2.4,0,0,1-.52-.8,2.65,2.65,0,0,1,0-2,2.6,2.6,0,0,1,.52-.82,2.53,2.53,0,0,1,.81-.55,2.49,2.49,0,0,1,1-.2,2.43,2.43,0,0,1,1,.2,2.51,2.51,0,0,1,1.34,1.35,2.72,2.72,0,0,1,.19,1A2.53,2.53,0,0,1,44.58,159.35Zm-.69-1.71a1.83,1.83,0,0,0-1-1,1.75,1.75,0,0,0-.72-.15,1.73,1.73,0,0,0-.73.15,1.51,1.51,0,0,0-.56.4,1.81,1.81,0,0,0-.36.6,2,2,0,0,0-.14.74,2.12,2.12,0,0,0,.14.75,1.86,1.86,0,0,0,.38.6,1.78,1.78,0,0,0,.57.4,1.86,1.86,0,0,0,1.44,0,1.78,1.78,0,0,0,.57-.4,1.84,1.84,0,0,0,.37-.6,2.1,2.1,0,0,0,0-1.48Z"/><path class="cls-6" d="M46.82,160.81h-.73v-4.88h.73v.85a2.15,2.15,0,0,1,.64-.67,1.7,1.7,0,0,1,1-.28,1.91,1.91,0,0,1,.78.14,1.62,1.62,0,0,1,.59.4,1.83,1.83,0,0,1,.37.62,2.47,2.47,0,0,1,.13.79v3h-.73V158a1.61,1.61,0,0,0-.35-1.08,1.27,1.27,0,0,0-1-.39,1.4,1.4,0,0,0-.58.11,1.25,1.25,0,0,0-.47.31,1.47,1.47,0,0,0-.31.48,1.81,1.81,0,0,0-.1.63Z"/><path class="cls-6" d="M52.88,156.61a3.61,3.61,0,0,0-.69.26l-.22-.6a5.05,5.05,0,0,1,.82-.3,3.93,3.93,0,0,1,1-.11,2.19,2.19,0,0,1,1.54.5,1.9,1.9,0,0,1,.54,1.47v3h-.7v-.73a2.45,2.45,0,0,1-.68.58,2.11,2.11,0,0,1-1.08.25,2.52,2.52,0,0,1-.67-.09,1.76,1.76,0,0,1-.58-.29,1.56,1.56,0,0,1-.42-.47,1.44,1.44,0,0,1-.15-.67,1.52,1.52,0,0,1,.15-.69,1.27,1.27,0,0,1,.43-.49,1.84,1.84,0,0,1,.66-.31,3.12,3.12,0,0,1,.84-.1,4.83,4.83,0,0,1,.82.06,3.73,3.73,0,0,1,.68.15v-.17a1.25,1.25,0,0,0-.38-1,1.57,1.57,0,0,0-1.07-.33A2.8,2.8,0,0,0,52.88,156.61Zm-.23,2a.87.87,0,0,0-.37.75.8.8,0,0,0,.1.41,1.14,1.14,0,0,0,.27.31,1.18,1.18,0,0,0,.39.19,1.43,1.43,0,0,0,.46.07,1.91,1.91,0,0,0,.64-.1,2,2,0,0,0,.52-.27,1.57,1.57,0,0,0,.35-.42,1.18,1.18,0,0,0,.12-.53v-.47a6.3,6.3,0,0,0-.62-.15,5,5,0,0,0-.81-.06A1.73,1.73,0,0,0,52.65,158.61Z"/><path class="cls-6" d="M57.44,160.81v-6.89h.72v6.89Z"/><path class="cls-6" d="M67.94,160.24a3.67,3.67,0,0,1-.6.36,3.28,3.28,0,0,1-1.51.32,3.18,3.18,0,0,1-1.32-.26,3.38,3.38,0,0,1-1.05-.72,3.22,3.22,0,0,1-.69-1.08,3.55,3.55,0,0,1-.25-1.34,3.42,3.42,0,0,1,.25-1.33,3.27,3.27,0,0,1,3.09-2.1,4.89,4.89,0,0,1,.81.07,4.17,4.17,0,0,1,.68.22,2.66,2.66,0,0,1,.57.33,4.15,4.15,0,0,1,.51.43l-.51.55A3.84,3.84,0,0,0,67,155a2.57,2.57,0,0,0-3,.53,2.77,2.77,0,0,0-.54.87,2.87,2.87,0,0,0-.19,1.07,2.9,2.9,0,0,0,.19,1.07,2.56,2.56,0,0,0,.54.87,2.51,2.51,0,0,0,1.83.8A2.66,2.66,0,0,0,67,160a4.1,4.1,0,0,0,1-.71l.49.48A4.69,4.69,0,0,1,67.94,160.24Z"/><path class="cls-6" d="M74.15,159.35a2.69,2.69,0,0,1-.53.82,2.52,2.52,0,0,1-1.83.75,2.37,2.37,0,0,1-1-.2,2.53,2.53,0,0,1-.81-.55,2.6,2.6,0,0,1-.53-.8,2.79,2.79,0,0,1,0-2,2.82,2.82,0,0,1,.53-.82,2.53,2.53,0,0,1,.81-.55,2.7,2.7,0,0,1,2,0,2.53,2.53,0,0,1,.81.55,2.44,2.44,0,0,1,.71,1.79A2.52,2.52,0,0,1,74.15,159.35Zm-.69-1.71a1.8,1.8,0,0,0-.38-.61,1.85,1.85,0,0,0-.58-.41,1.71,1.71,0,0,0-.71-.15,1.73,1.73,0,0,0-.73.15,1.51,1.51,0,0,0-.56.4,1.84,1.84,0,0,0-.37.6,2.26,2.26,0,0,0-.13.74,2.12,2.12,0,0,0,.14.75,1.86,1.86,0,0,0,.38.6,1.78,1.78,0,0,0,.57.4,1.71,1.71,0,0,0,.71.15,1.73,1.73,0,0,0,.73-.14,1.78,1.78,0,0,0,.57-.4,1.84,1.84,0,0,0,.37-.6,2.26,2.26,0,0,0,.13-.74A2,2,0,0,0,73.46,157.64Z"/><path class="cls-6" d="M76.38,160.81h-.72v-4.88h.72v.85a2.3,2.3,0,0,1,.65-.67,1.69,1.69,0,0,1,1-.28,2,2,0,0,1,.79.14,1.62,1.62,0,0,1,.59.4,1.83,1.83,0,0,1,.37.62,2.47,2.47,0,0,1,.12.79v3H79.2V158a1.61,1.61,0,0,0-.35-1.08,1.29,1.29,0,0,0-1-.39,1.4,1.4,0,0,0-.58.11,1.25,1.25,0,0,0-.47.31,1.33,1.33,0,0,0-.31.48,1.81,1.81,0,0,0-.11.63Z"/><path class="cls-6" d="M84,156v.62H82.47v4.24h-.72v-4.24h-.67v-.63h.67v-.42a1.7,1.7,0,0,1,.38-1.22,1.39,1.39,0,0,1,1.09-.42,2.85,2.85,0,0,1,.44,0L84,154v.64l-.36-.09a1.87,1.87,0,0,0-.35,0c-.56,0-.85.35-.85,1v.4Z"/><path class="cls-6" d="M85.47,159.34a1.73,1.73,0,0,0,.39.52,1.71,1.71,0,0,0,.53.32,1.61,1.61,0,0,0,.61.11,1.87,1.87,0,0,0,.88-.19,2.4,2.4,0,0,0,.66-.5L89,160a2.92,2.92,0,0,1-.84.66,2.47,2.47,0,0,1-1.17.25,2.51,2.51,0,0,1-.95-.18,2.37,2.37,0,0,1-.78-.52,2.4,2.4,0,0,1-.52-.81,2.66,2.66,0,0,1-.2-1,3,3,0,0,1,.17-1,2.54,2.54,0,0,1,.49-.81,2.31,2.31,0,0,1,.74-.54,2.36,2.36,0,0,1,1.9,0,2,2,0,0,1,.72.55,2.61,2.61,0,0,1,.45.82,3.33,3.33,0,0,1,.15,1v.11s0,.08,0,.12H85.29A1.9,1.9,0,0,0,85.47,159.34Zm2.94-1.24a2.22,2.22,0,0,0-.14-.63,1.62,1.62,0,0,0-.3-.53,1.37,1.37,0,0,0-.46-.36,1.48,1.48,0,0,0-.65-.14,1.31,1.31,0,0,0-.59.13,1.48,1.48,0,0,0-.48.35,1.87,1.87,0,0,0-.34.52,2.28,2.28,0,0,0-.16.66Z"/><path class="cls-6" d="M91.16,160.81h-.73v-4.88h.73v1.27a2.77,2.77,0,0,1,.33-.55,2.08,2.08,0,0,1,.45-.44,1.89,1.89,0,0,1,1.21-.36v.78h-.06a2.12,2.12,0,0,0-.75.14,1.87,1.87,0,0,0-.62.43,2,2,0,0,0-.41.7,2.86,2.86,0,0,0-.15,1Z"/><path class="cls-6" d="M94.68,159.34a1.58,1.58,0,0,0,.39.52,1.51,1.51,0,0,0,.53.32,1.54,1.54,0,0,0,.61.11,1.8,1.8,0,0,0,.87-.19,2.44,2.44,0,0,0,.67-.5l.45.41a2.67,2.67,0,0,1-.84.66,2.41,2.41,0,0,1-1.17.25,2.46,2.46,0,0,1-.94-.18,2.18,2.18,0,0,1-.78-.52,2.42,2.42,0,0,1-.53-.81,2.66,2.66,0,0,1-.2-1,2.73,2.73,0,0,1,.18-1,2.54,2.54,0,0,1,.49-.81,2.12,2.12,0,0,1,.74-.54,2.09,2.09,0,0,1,.94-.2,2.13,2.13,0,0,1,1.68.75,2.59,2.59,0,0,1,.44.82,3.33,3.33,0,0,1,.15,1v.11a.49.49,0,0,1,0,.12H94.49A2.12,2.12,0,0,0,94.68,159.34Zm2.94-1.24a2.62,2.62,0,0,0-.14-.63,1.62,1.62,0,0,0-.3-.53,1.51,1.51,0,0,0-.47-.36,1.44,1.44,0,0,0-.64-.14,1.28,1.28,0,0,0-.59.13,1.3,1.3,0,0,0-.48.35,1.87,1.87,0,0,0-.34.52,2.29,2.29,0,0,0-.17.66Z"/><path class="cls-6" d="M100.36,160.81h-.72v-4.88h.72v.85a2.4,2.4,0,0,1,.64-.67,1.74,1.74,0,0,1,1-.28,2,2,0,0,1,.79.14,1.62,1.62,0,0,1,.59.4,1.83,1.83,0,0,1,.37.62,2.47,2.47,0,0,1,.12.79v3h-.72V158a1.61,1.61,0,0,0-.35-1.08,1.29,1.29,0,0,0-1-.39,1.36,1.36,0,0,0-.58.11,1.25,1.25,0,0,0-.47.31,1.33,1.33,0,0,0-.31.48,1.81,1.81,0,0,0-.11.63Z"/><path class="cls-6" d="M108.81,160.66a2.66,2.66,0,0,1-2.16.06,2.55,2.55,0,0,1-.79-.55,2.4,2.4,0,0,1-.52-.8,2.65,2.65,0,0,1,0-2,2.6,2.6,0,0,1,.52-.82,2.55,2.55,0,0,1,.79-.55,2.38,2.38,0,0,1,1-.2,3.06,3.06,0,0,1,.63.06,2.44,2.44,0,0,1,.52.19,2.52,2.52,0,0,1,.44.28,3.92,3.92,0,0,1,.37.34l-.49.5a3.06,3.06,0,0,0-.63-.51,1.54,1.54,0,0,0-.85-.22,1.65,1.65,0,0,0-.69.15,1.56,1.56,0,0,0-.55.4,1.84,1.84,0,0,0-.37.6,2,2,0,0,0-.14.74,2.12,2.12,0,0,0,.14.75,1.86,1.86,0,0,0,.38.6,1.66,1.66,0,0,0,.57.41,1.64,1.64,0,0,0,.71.14,1.73,1.73,0,0,0,.83-.2,2.81,2.81,0,0,0,.66-.52l.46.43A3.21,3.21,0,0,1,108.81,160.66Z"/><path class="cls-6" d="M111.33,159.34a1.58,1.58,0,0,0,.39.52,1.6,1.6,0,0,0,.53.32,1.57,1.57,0,0,0,.61.11,1.87,1.87,0,0,0,.88-.19,2.4,2.4,0,0,0,.66-.5l.45.41a2.67,2.67,0,0,1-.84.66,2.41,2.41,0,0,1-1.17.25,2.46,2.46,0,0,1-.94-.18,2.18,2.18,0,0,1-.78-.52,2.42,2.42,0,0,1-.53-.81,2.66,2.66,0,0,1-.19-1,3,3,0,0,1,.17-1,2.54,2.54,0,0,1,.49-.81,2.21,2.21,0,0,1,.74-.54,2.36,2.36,0,0,1,1.9,0,2.07,2.07,0,0,1,.72.55,2.59,2.59,0,0,1,.44.82,3.33,3.33,0,0,1,.15,1v.23h-3.87A2.12,2.12,0,0,0,111.33,159.34Zm2.94-1.24a2.62,2.62,0,0,0-.14-.63,1.62,1.62,0,0,0-.3-.53,1.4,1.4,0,0,0-.47-.36,1.44,1.44,0,0,0-.64-.14,1.31,1.31,0,0,0-.59.13,1.48,1.48,0,0,0-.48.35,1.87,1.87,0,0,0-.34.52,2.66,2.66,0,0,0-.17.66Z"/><path class="cls-6" d="M123.71,159.35a2.37,2.37,0,0,1-.53.82,2.52,2.52,0,0,1-1.83.75,2.48,2.48,0,0,1-1.81-.75,2.28,2.28,0,0,1-.53-.8,2.65,2.65,0,0,1,0-2,2.46,2.46,0,0,1,.53-.82,2.38,2.38,0,0,1,.8-.55,2.52,2.52,0,0,1,1-.2,2.43,2.43,0,0,1,1,.2,2.51,2.51,0,0,1,1.34,1.35,2.72,2.72,0,0,1,.19,1A2.53,2.53,0,0,1,123.71,159.35Zm-.68-1.71a1.82,1.82,0,0,0-.39-.61,1.81,1.81,0,0,0-.57-.41,1.83,1.83,0,0,0-1.45,0,1.51,1.51,0,0,0-.56.4,2,2,0,0,0-.36.6,2,2,0,0,0-.14.74,2.12,2.12,0,0,0,.14.75,1.86,1.86,0,0,0,.38.6,1.78,1.78,0,0,0,.57.4,1.86,1.86,0,0,0,1.44,0,1.68,1.68,0,0,0,.57-.4,1.84,1.84,0,0,0,.37-.6,2.17,2.17,0,0,0,0-1.48Z"/><path class="cls-6" d="M126,160.81h-.73v-4.88H126v.85a2.15,2.15,0,0,1,.64-.67,1.72,1.72,0,0,1,1-.28,2,2,0,0,1,.79.14,1.59,1.59,0,0,1,.58.4,1.83,1.83,0,0,1,.37.62,2.47,2.47,0,0,1,.13.79v3h-.73V158a1.61,1.61,0,0,0-.35-1.08,1.27,1.27,0,0,0-1-.39,1.4,1.4,0,0,0-.58.11,1.25,1.25,0,0,0-.47.31,1.31,1.31,0,0,0-.3.48,1.61,1.61,0,0,0-.11.63Z"/><path class="cls-6" d="M138.54,160.81l-1.92-2.57h-1.88v2.57H134V154.2h2.84a3.33,3.33,0,0,1,1,.14,2.26,2.26,0,0,1,.75.41,1.7,1.7,0,0,1,.48.62,1.92,1.92,0,0,1,.17.81,2,2,0,0,1-.13.74,1.59,1.59,0,0,1-.38.57,2.16,2.16,0,0,1-.57.4,2.79,2.79,0,0,1-.71.22l2,2.7Zm-.51-5.57a2,2,0,0,0-1.25-.35h-2v2.69h2a2.43,2.43,0,0,0,.68-.09,2,2,0,0,0,.54-.27,1.18,1.18,0,0,0,.48-1A1.14,1.14,0,0,0,138,155.24Z"/><path class="cls-6" d="M145.19,159.35a2.69,2.69,0,0,1-.53.82,2.52,2.52,0,0,1-1.83.75,2.37,2.37,0,0,1-1-.2,2.53,2.53,0,0,1-.81-.55,2.4,2.4,0,0,1-.52-.8,2.65,2.65,0,0,1,0-2,2.6,2.6,0,0,1,.52-.82,2.53,2.53,0,0,1,.81-.55,2.46,2.46,0,0,1,1-.2,2.43,2.43,0,0,1,1,.2,2.53,2.53,0,0,1,.81.55,2.44,2.44,0,0,1,.71,1.79A2.52,2.52,0,0,1,145.19,159.35Zm-.69-1.71a1.8,1.8,0,0,0-.38-.61,1.85,1.85,0,0,0-.58-.41,1.71,1.71,0,0,0-.71-.15,1.73,1.73,0,0,0-.73.15,1.51,1.51,0,0,0-.56.4,1.84,1.84,0,0,0-.37.6,2.26,2.26,0,0,0-.13.74,2.12,2.12,0,0,0,.14.75,1.86,1.86,0,0,0,.38.6,1.78,1.78,0,0,0,.57.4,1.86,1.86,0,0,0,1.44,0,1.78,1.78,0,0,0,.57-.4,1.84,1.84,0,0,0,.37-.6,2.1,2.1,0,0,0,0-1.48Z"/><path class="cls-6" d="M147.67,156.61a3.88,3.88,0,0,0-.69.26l-.22-.6a5.42,5.42,0,0,1,.82-.3,4,4,0,0,1,1-.11,2.19,2.19,0,0,1,1.54.5,1.9,1.9,0,0,1,.54,1.47v3h-.7v-.73a2.36,2.36,0,0,1-.69.58,2.06,2.06,0,0,1-1.08.25,2.39,2.39,0,0,1-.66-.09,1.71,1.71,0,0,1-.59-.29,1.53,1.53,0,0,1-.41-.47,1.33,1.33,0,0,1-.16-.67,1.52,1.52,0,0,1,.15-.69,1.27,1.27,0,0,1,.43-.49,2,2,0,0,1,.66-.31,3.25,3.25,0,0,1,.85-.1,5,5,0,0,1,.82.06,3.93,3.93,0,0,1,.68.15v-.17a1.26,1.26,0,0,0-.39-1,1.57,1.57,0,0,0-1.07-.33A2.8,2.8,0,0,0,147.67,156.61Zm-.23,2a.89.89,0,0,0-.37.75.92.92,0,0,0,.1.41,1.14,1.14,0,0,0,.27.31,1.18,1.18,0,0,0,.39.19,1.45,1.45,0,0,0,.47.07,1.85,1.85,0,0,0,.63-.1,2,2,0,0,0,.52-.27,1.4,1.4,0,0,0,.35-.42,1.19,1.19,0,0,0,.13-.53v-.47c-.19-.06-.39-.1-.63-.15a4.74,4.74,0,0,0-.8-.06A1.79,1.79,0,0,0,147.44,158.61Z"/><path class="cls-6" d="M156.08,160.81v-1a4.23,4.23,0,0,1-.33.41,2.24,2.24,0,0,1-.41.35,1.84,1.84,0,0,1-.51.24,2,2,0,0,1-.62.08,2.16,2.16,0,0,1-.86-.17,2.22,2.22,0,0,1-.74-.49,2.38,2.38,0,0,1-.53-.8,3,3,0,0,1,0-2.15,2.48,2.48,0,0,1,.53-.8,2.42,2.42,0,0,1,.74-.5,2.16,2.16,0,0,1,.86-.17,2.33,2.33,0,0,1,.62.08,2,2,0,0,1,.51.23,1.91,1.91,0,0,1,.42.33,2.44,2.44,0,0,1,.32.4v-3h.73v6.89ZM156,157.6a1.78,1.78,0,0,0-.39-.6,2,2,0,0,0-.57-.38,1.65,1.65,0,0,0-.66-.13,1.85,1.85,0,0,0-.67.12,1.68,1.68,0,0,0-.54.37,1.85,1.85,0,0,0-.37.59,2.24,2.24,0,0,0-.13.8,2.2,2.2,0,0,0,.13.78,1.71,1.71,0,0,0,.38.59,1.56,1.56,0,0,0,.54.38,1.74,1.74,0,0,0,1.32,0,2,2,0,0,0,.57-.38,1.69,1.69,0,0,0,.39-.6,1.92,1.92,0,0,0,.15-.77A1.89,1.89,0,0,0,156,157.6Z"/><path class="cls-6" d="M162.24,156.61a3.61,3.61,0,0,0-.69.26l-.22-.6a5.05,5.05,0,0,1,.82-.3,3.93,3.93,0,0,1,.95-.11,2.19,2.19,0,0,1,1.54.5,1.9,1.9,0,0,1,.54,1.47v3h-.7v-.73a2.45,2.45,0,0,1-.68.58,2.11,2.11,0,0,1-1.08.25,2.52,2.52,0,0,1-.67-.09,1.76,1.76,0,0,1-.58-.29,1.31,1.31,0,0,1-.57-1.14,1.52,1.52,0,0,1,.15-.69,1.27,1.27,0,0,1,.43-.49,1.84,1.84,0,0,1,.66-.31,3.12,3.12,0,0,1,.84-.1,4.83,4.83,0,0,1,.82.06,3.73,3.73,0,0,1,.68.15v-.17a1.25,1.25,0,0,0-.38-1,1.57,1.57,0,0,0-1.07-.33A2.8,2.8,0,0,0,162.24,156.61Zm-.23,2a.87.87,0,0,0-.37.75.8.8,0,0,0,.1.41,1.14,1.14,0,0,0,.27.31,1.18,1.18,0,0,0,.39.19,1.43,1.43,0,0,0,.46.07,1.91,1.91,0,0,0,.64-.1A2,2,0,0,0,164,160a1.57,1.57,0,0,0,.35-.42,1.18,1.18,0,0,0,.12-.53v-.47a6.3,6.3,0,0,0-.62-.15,5,5,0,0,0-.81-.06A1.73,1.73,0,0,0,162,158.61Z"/><path class="cls-6" d="M167.46,160.81h-.73v-4.88h.73v.85a2.15,2.15,0,0,1,.64-.67,1.72,1.72,0,0,1,1-.28,2,2,0,0,1,.79.14,1.59,1.59,0,0,1,.58.4,1.83,1.83,0,0,1,.37.62,2.47,2.47,0,0,1,.13.79v3h-.73V158a1.61,1.61,0,0,0-.35-1.08,1.27,1.27,0,0,0-1-.39,1.4,1.4,0,0,0-.58.11,1.25,1.25,0,0,0-.47.31,1.31,1.31,0,0,0-.3.48,1.61,1.61,0,0,0-.11.63Z"/><path class="cls-6" d="M176.46,160.81v-1a4.23,4.23,0,0,1-.33.41,2,2,0,0,1-.41.35,1.71,1.71,0,0,1-.51.24,2,2,0,0,1-.62.08,2.08,2.08,0,0,1-.85-.17,2.17,2.17,0,0,1-.75-.49,2.38,2.38,0,0,1-.53-.8,3,3,0,0,1,0-2.15,2.48,2.48,0,0,1,.53-.8,2.35,2.35,0,0,1,.75-.5,2.08,2.08,0,0,1,.85-.17,2.47,2.47,0,0,1,.63.08,2,2,0,0,1,.51.23,2.12,2.12,0,0,1,.41.33,2.44,2.44,0,0,1,.32.4v-3h.73v6.89Zm-.11-3.21a1.8,1.8,0,0,0-.4-.6,2,2,0,0,0-.57-.38,1.64,1.64,0,0,0-.65-.13,1.81,1.81,0,0,0-.67.12,1.72,1.72,0,0,0-.55.37,1.83,1.83,0,0,0-.36.59,2,2,0,0,0-.14.8,2,2,0,0,0,.14.78,1.69,1.69,0,0,0,.37.59,1.51,1.51,0,0,0,.55.38,1.59,1.59,0,0,0,.66.13,1.64,1.64,0,0,0,.65-.13,2,2,0,0,0,.57-.38,1.71,1.71,0,0,0,.4-.6,2.11,2.11,0,0,0,.14-.77A2.07,2.07,0,0,0,176.35,157.6Z"/><path class="cls-6" d="M187.92,160.81h-.8l-.77-1.74h-3.6l-.78,1.74h-.77l3-6.65h.7ZM184.55,155,183,158.4h3Z"/><path class="cls-6" d="M189.12,154.86v-.8H190v.8Zm0,5.95v-4.88h.73v4.88Z"/><path class="cls-6" d="M192.31,160.81h-.72v-4.88h.72v1.27a2.77,2.77,0,0,1,.33-.55,2.39,2.39,0,0,1,.46-.44,1.91,1.91,0,0,1,.55-.28,2,2,0,0,1,.66-.08v.78h-.06a2.08,2.08,0,0,0-.75.14,1.77,1.77,0,0,0-.62.43,2,2,0,0,0-.42.7,2.86,2.86,0,0,0-.15,1Z"/><path class="cls-6" d="M198,156v.62h-1.54v4.24h-.73v-4.24H195v-.63h.67v-.42a1.7,1.7,0,0,1,.39-1.22,1.38,1.38,0,0,1,1.09-.42,2.85,2.85,0,0,1,.44,0l.36.09v.64l-.36-.09a1.87,1.87,0,0,0-.35,0c-.57,0-.85.35-.85,1v.4Z"/><path class="cls-6" d="M198.89,154.86v-.8h.83v.8Zm.05,5.95v-4.88h.73v4.88Z"/><path class="cls-6" d="M202,159.34a1.58,1.58,0,0,0,.39.52,1.51,1.51,0,0,0,.53.32,1.57,1.57,0,0,0,.61.11,1.8,1.8,0,0,0,.87-.19,2.3,2.3,0,0,0,.67-.5l.45.41a2.67,2.67,0,0,1-.84.66,2.41,2.41,0,0,1-1.17.25,2.46,2.46,0,0,1-.94-.18,2.18,2.18,0,0,1-.78-.52,2.42,2.42,0,0,1-.53-.81,2.66,2.66,0,0,1-.19-1,2.73,2.73,0,0,1,.17-1,2.54,2.54,0,0,1,.49-.81,2.12,2.12,0,0,1,.74-.54,2.09,2.09,0,0,1,.94-.2,2.12,2.12,0,0,1,1,.2,2.16,2.16,0,0,1,.72.55,2.59,2.59,0,0,1,.44.82,3.33,3.33,0,0,1,.15,1v.11a.49.49,0,0,1,0,.12H201.8A2.12,2.12,0,0,0,202,159.34Zm2.94-1.24a2.62,2.62,0,0,0-.14-.63,1.62,1.62,0,0,0-.3-.53,1.4,1.4,0,0,0-.47-.36,1.44,1.44,0,0,0-.64-.14,1.31,1.31,0,0,0-.59.13,1.48,1.48,0,0,0-.48.35,1.87,1.87,0,0,0-.34.52,2.29,2.29,0,0,0-.17.66Z"/><path class="cls-6" d="M207,160.81v-6.89h.73v6.89Z"/><path class="cls-6" d="M213.35,160.81v-1a4.35,4.35,0,0,1-.34.41,2,2,0,0,1-.41.35,1.78,1.78,0,0,1-.5.24,2.07,2.07,0,0,1-.62.08,2.13,2.13,0,0,1-.86-.17,2.17,2.17,0,0,1-.75-.49,2.54,2.54,0,0,1-.53-.8,3.14,3.14,0,0,1,0-2.15,2.66,2.66,0,0,1,.53-.8,2.35,2.35,0,0,1,.75-.5,2.13,2.13,0,0,1,.86-.17,2.45,2.45,0,0,1,.62.08,2,2,0,0,1,.51.23,1.86,1.86,0,0,1,.41.33,3.19,3.19,0,0,1,.33.4v-3h.72v6.89Zm-.12-3.21a1.82,1.82,0,0,0-1-1,1.65,1.65,0,0,0-.66-.13,1.85,1.85,0,0,0-.67.12,1.58,1.58,0,0,0-.54.37,1.69,1.69,0,0,0-.37.59,2.24,2.24,0,0,0-.14.8,2.21,2.21,0,0,0,.14.78,1.69,1.69,0,0,0,.37.59,1.6,1.6,0,0,0,.55.38,1.74,1.74,0,0,0,1.32,0,1.79,1.79,0,0,0,.56-.38,1.71,1.71,0,0,0,.4-.6,1.92,1.92,0,0,0,.15-.77A1.89,1.89,0,0,0,213.23,157.6Z"/><path class="cls-6" d="M48.12,168.58a2.07,2.07,0,0,1-.56.68,2.48,2.48,0,0,1-.83.41,3.61,3.61,0,0,1-1,.14h-1.6v2.33h-.75v-6.61h2.47a3.31,3.31,0,0,1,1,.15,2.41,2.41,0,0,1,.78.41,1.81,1.81,0,0,1,.5.66,2.14,2.14,0,0,1,.18.89A2,2,0,0,1,48.12,168.58Zm-1-2a2.1,2.1,0,0,0-1.29-.36H44.13v2.91h1.63a3,3,0,0,0,.75-.1,1.72,1.72,0,0,0,.57-.3,1.34,1.34,0,0,0,.37-.46,1.32,1.32,0,0,0,.13-.6A1.28,1.28,0,0,0,47.09,166.58Z"/><path class="cls-6" d="M50.45,167.93a5.89,5.89,0,0,0-.7.26l-.22-.59a4.35,4.35,0,0,1,.83-.3,3.82,3.82,0,0,1,1-.11,2.19,2.19,0,0,1,1.54.5,1.9,1.9,0,0,1,.54,1.47v3h-.7v-.74A2.38,2.38,0,0,1,52,172a2.06,2.06,0,0,1-1.08.25,2.44,2.44,0,0,1-.66-.09,1.71,1.71,0,0,1-.59-.29,1.53,1.53,0,0,1-.41-.47,1.34,1.34,0,0,1-.16-.68,1.51,1.51,0,0,1,.15-.68,1.37,1.37,0,0,1,.43-.5,2.22,2.22,0,0,1,.66-.3,3.25,3.25,0,0,1,.85-.1,4.91,4.91,0,0,1,.82.06,3.93,3.93,0,0,1,.68.15v-.17a1.27,1.27,0,0,0-.38-1,1.62,1.62,0,0,0-1.08-.33A3.1,3.1,0,0,0,50.45,167.93Zm-.24,2a.88.88,0,0,0-.36.75.91.91,0,0,0,.09.41,1.14,1.14,0,0,0,.27.31,1.41,1.41,0,0,0,.39.19,1.49,1.49,0,0,0,.47.07,1.81,1.81,0,0,0,.63-.1,2,2,0,0,0,.52-.27,1.27,1.27,0,0,0,.35-.42,1.19,1.19,0,0,0,.13-.53v-.48l-.63-.14a4.74,4.74,0,0,0-.8-.06A1.79,1.79,0,0,0,50.21,169.94Z"/><path class="cls-6" d="M58.36,167.26h.79L57,172.18h-.64l-2.12-4.92h.81l1.64,4.05Z"/><path class="cls-6" d="M60.64,170.67a1.6,1.6,0,0,0,.91.84,1.84,1.84,0,0,0,.62.11,1.8,1.8,0,0,0,.87-.19,2.6,2.6,0,0,0,.67-.5l.45.41a2.92,2.92,0,0,1-.84.66,2.47,2.47,0,0,1-1.17.25,2.51,2.51,0,0,1-.95-.18,2.38,2.38,0,0,1-.77-.52,2.42,2.42,0,0,1-.53-.81,2.68,2.68,0,0,1-.2-1,2.72,2.72,0,0,1,.18-1,2.36,2.36,0,0,1,1.22-1.36,2.26,2.26,0,0,1,.94-.19,2.19,2.19,0,0,1,1,.2,2,2,0,0,1,.71.55,2.33,2.33,0,0,1,.45.82,3.33,3.33,0,0,1,.15,1v.11a.53.53,0,0,1,0,.12H60.45A1.9,1.9,0,0,0,60.64,170.67Zm2.93-1.24a2.61,2.61,0,0,0-.13-.63,2.09,2.09,0,0,0-.3-.53,1.51,1.51,0,0,0-.47-.36,1.48,1.48,0,0,0-.65-.14,1.31,1.31,0,0,0-.59.13,1.48,1.48,0,0,0-.48.35,1.71,1.71,0,0,0-.33.52,2,2,0,0,0-.17.66Z"/><path class="cls-6" d="M69.76,167.75a2.17,2.17,0,0,1,.37-.31,1.82,1.82,0,0,1,.47-.21,2.1,2.1,0,0,1,.58-.07,1.7,1.7,0,0,1,1.33.52,2.05,2.05,0,0,1,.48,1.44v3h-.72v-2.85a1.57,1.57,0,0,0-.34-1.09,1.14,1.14,0,0,0-.93-.38,1.34,1.34,0,0,0-.52.1,1.21,1.21,0,0,0-.43.29,1.43,1.43,0,0,0-.29.48,1.79,1.79,0,0,0-.11.64v2.81h-.71v-2.87a1.58,1.58,0,0,0-.34-1.07,1.14,1.14,0,0,0-.92-.38,1.22,1.22,0,0,0-.54.11,1.34,1.34,0,0,0-.43.32,1.59,1.59,0,0,0-.29.49,1.72,1.72,0,0,0-.1.62v2.78h-.73v-4.88h.73v.82a3,3,0,0,1,.27-.35,2.35,2.35,0,0,1,.33-.3,1.89,1.89,0,0,1,.43-.2,1.84,1.84,0,0,1,.55-.07,1.69,1.69,0,0,1,1,.27,1.78,1.78,0,0,1,.58.7A3.57,3.57,0,0,1,69.76,167.75Z"/><path class="cls-6" d="M75.2,170.67a1.58,1.58,0,0,0,.39.52,1.6,1.6,0,0,0,.53.32,1.78,1.78,0,0,0,.61.11,1.87,1.87,0,0,0,.88-.19,2.4,2.4,0,0,0,.66-.5l.45.41a2.67,2.67,0,0,1-.84.66,2.41,2.41,0,0,1-1.17.25,2.5,2.5,0,0,1-.94-.18,2.32,2.32,0,0,1-.78-.52,2.59,2.59,0,0,1-.53-.81,2.68,2.68,0,0,1-.19-1,2.94,2.94,0,0,1,.17-1,2.54,2.54,0,0,1,.49-.81,2.38,2.38,0,0,1,.74-.55,2.26,2.26,0,0,1,.94-.19,2.12,2.12,0,0,1,1,.2,2,2,0,0,1,.72.55,2.31,2.31,0,0,1,.44.82,3.34,3.34,0,0,1,.16,1v.11s0,.08,0,.12H75A2.12,2.12,0,0,0,75.2,170.67Zm2.94-1.24a2.22,2.22,0,0,0-.14-.63,1.62,1.62,0,0,0-.3-.53,1.43,1.43,0,0,0-1.11-.5,1.31,1.31,0,0,0-.59.13,1.48,1.48,0,0,0-.48.35,1.74,1.74,0,0,0-.34.52,2.66,2.66,0,0,0-.17.66Z"/><path class="cls-6" d="M80.89,172.14h-.73v-4.88h.73v.85a2.18,2.18,0,0,1,.64-.68,1.79,1.79,0,0,1,1-.27,2,2,0,0,1,.79.14,1.59,1.59,0,0,1,.58.4,1.83,1.83,0,0,1,.37.62,2.47,2.47,0,0,1,.13.79v3H83.7v-2.85a1.61,1.61,0,0,0-.35-1.08,1.27,1.27,0,0,0-1-.39,1.4,1.4,0,0,0-.58.11,1.25,1.25,0,0,0-.47.31,1.31,1.31,0,0,0-.3.48,1.61,1.61,0,0,0-.11.63Z"/><path class="cls-6" d="M87,170.75a.79.79,0,0,0,.22.64,1,1,0,0,0,.6.17,2,2,0,0,0,.35,0,1.65,1.65,0,0,0,.36-.14V172a1.49,1.49,0,0,1-.4.15,1.86,1.86,0,0,1-.48.06,1.92,1.92,0,0,1-.55-.08,1.11,1.11,0,0,1-.44-.24,1.13,1.13,0,0,1-.29-.43,1.74,1.74,0,0,1-.1-.63V167.9h-.68v-.64h.68v-1.47H87v1.47h1.55v.64H87Z"/><path class="cls-6" d="M95.24,172.14h-.75v-5.92H92.27v-.69h5.19v.69H95.24Z"/><path class="cls-6" d="M98.17,170.67a1.58,1.58,0,0,0,.39.52,1.6,1.6,0,0,0,.53.32,1.78,1.78,0,0,0,.61.11,1.87,1.87,0,0,0,.88-.19,2.4,2.4,0,0,0,.66-.5l.45.41a2.67,2.67,0,0,1-.84.66,2.41,2.41,0,0,1-1.17.25,2.46,2.46,0,0,1-.94-.18,2.32,2.32,0,0,1-.78-.52,2.42,2.42,0,0,1-.53-.81,2.68,2.68,0,0,1-.19-1,2.94,2.94,0,0,1,.17-1,2.54,2.54,0,0,1,.49-.81,2.38,2.38,0,0,1,.74-.55,2.26,2.26,0,0,1,.94-.19,2.12,2.12,0,0,1,1,.2,2.07,2.07,0,0,1,.72.55,2.49,2.49,0,0,1,.44.82,3.33,3.33,0,0,1,.15,1v.11a.53.53,0,0,1,0,.12H98A2.12,2.12,0,0,0,98.17,170.67Zm2.94-1.24a2.62,2.62,0,0,0-.14-.63,1.62,1.62,0,0,0-.3-.53,1.4,1.4,0,0,0-.47-.36,1.44,1.44,0,0,0-.64-.14,1.31,1.31,0,0,0-.59.13,1.48,1.48,0,0,0-.48.35,1.74,1.74,0,0,0-.34.52,2.66,2.66,0,0,0-.17.66Z"/><path class="cls-6" d="M106.49,172a2.42,2.42,0,0,1-1.16.26,2.38,2.38,0,0,1-1-.2,2.44,2.44,0,0,1-.79-.55,2.63,2.63,0,0,1,0-3.59,2.44,2.44,0,0,1,.79-.55,2.38,2.38,0,0,1,1-.2,3.06,3.06,0,0,1,.63.06,2.66,2.66,0,0,1,.52.19,2.62,2.62,0,0,1,.43.27,4.15,4.15,0,0,1,.37.34l-.48.51a3.55,3.55,0,0,0-.64-.52,1.59,1.59,0,0,0-.84-.21,1.74,1.74,0,0,0-.69.14,1.88,1.88,0,0,0-.56.41,2,2,0,0,0-.37.6,2.26,2.26,0,0,0-.13.74,2,2,0,0,0,.14.74,1.8,1.8,0,0,0,.38.61,1.64,1.64,0,0,0,1.28.55,1.73,1.73,0,0,0,.83-.2,3.29,3.29,0,0,0,.66-.52l.46.43A3.21,3.21,0,0,1,106.49,172Z"/><path class="cls-6" d="M109.25,172.14h-.73v-6.89h.73v2.86a2.18,2.18,0,0,1,.64-.68,1.79,1.79,0,0,1,1-.27,2,2,0,0,1,.79.14,1.59,1.59,0,0,1,.58.4,1.83,1.83,0,0,1,.37.62,2.47,2.47,0,0,1,.13.79v3h-.73v-2.85a1.61,1.61,0,0,0-.35-1.08,1.27,1.27,0,0,0-1-.39,1.4,1.4,0,0,0-.58.11,1.25,1.25,0,0,0-.47.31,1.31,1.31,0,0,0-.3.48,1.61,1.61,0,0,0-.11.63Z"/><path class="cls-6" d="M115.06,172.14h-.72v-4.88h.72v.85a2.44,2.44,0,0,1,.64-.68,1.81,1.81,0,0,1,1-.27,2,2,0,0,1,.79.14,1.62,1.62,0,0,1,.59.4,1.66,1.66,0,0,1,.36.62,2.22,2.22,0,0,1,.13.79v3h-.72v-2.85a1.61,1.61,0,0,0-.35-1.08,1.29,1.29,0,0,0-1-.39,1.44,1.44,0,0,0-.59.11,1.29,1.29,0,0,0-.46.31,1.33,1.33,0,0,0-.31.48,1.81,1.81,0,0,0-.11.63Z"/><path class="cls-6" d="M124.74,170.68a2.5,2.5,0,0,1-2.36,1.57A2.51,2.51,0,0,1,120,170.7a2.65,2.65,0,0,1,0-2,2.48,2.48,0,0,1,1.33-1.37,2.49,2.49,0,0,1,1-.2,2.43,2.43,0,0,1,1,.2,2.51,2.51,0,0,1,1.34,1.35,2.72,2.72,0,0,1,.19,1A2.53,2.53,0,0,1,124.74,170.68Zm-.69-1.71a1.66,1.66,0,0,0-.38-.61,1.81,1.81,0,0,0-.57-.41,1.72,1.72,0,0,0-.72-.15,1.9,1.9,0,0,0-.73.14,1.66,1.66,0,0,0-.56.41,1.81,1.81,0,0,0-.36.6,2,2,0,0,0,0,1.48,1.8,1.8,0,0,0,.38.61,1.78,1.78,0,0,0,.57.4,1.72,1.72,0,0,0,.72.15,1.89,1.89,0,0,0,.72-.14,1.78,1.78,0,0,0,.57-.4,1.84,1.84,0,0,0,.37-.6,2,2,0,0,0,.13-.74A1.84,1.84,0,0,0,124.05,169Z"/><path class="cls-6" d="M126.32,172.14v-6.89H127v6.89Z"/><path class="cls-6" d="M133.32,170.68a2.37,2.37,0,0,1-.53.82,2.42,2.42,0,0,1-.81.55,2.51,2.51,0,0,1-1,.2,2.51,2.51,0,0,1-2.34-1.55,2.65,2.65,0,0,1,0-2,2.48,2.48,0,0,1,1.33-1.37,2.52,2.52,0,0,1,1-.2,2.52,2.52,0,0,1,1.82.75,2.56,2.56,0,0,1,.52,2.77Zm-.68-1.71a1.82,1.82,0,0,0-.39-.61,1.81,1.81,0,0,0-.57-.41,1.72,1.72,0,0,0-.72-.15,1.94,1.94,0,0,0-.73.14,1.76,1.76,0,0,0-.56.41,2,2,0,0,0-.36.6,2.17,2.17,0,0,0,0,1.48,1.8,1.8,0,0,0,.38.61,1.78,1.78,0,0,0,.57.4,1.72,1.72,0,0,0,.72.15,1.94,1.94,0,0,0,.73-.14,1.74,1.74,0,0,0,.56-.4,1.84,1.84,0,0,0,.37-.6,2.17,2.17,0,0,0,0-1.48Z"/><path class="cls-6" d="M139.3,172.33a2,2,0,0,1-.5.74,2.16,2.16,0,0,1-.78.45,3.33,3.33,0,0,1-1,.15,4.09,4.09,0,0,1-1.17-.17,3.64,3.64,0,0,1-1-.51l.33-.57a3.81,3.81,0,0,0,.89.47,3.21,3.21,0,0,0,1,.16,1.88,1.88,0,0,0,1.3-.44,1.68,1.68,0,0,0,.48-1.3v-.58a3.06,3.06,0,0,1-.79.73,2,2,0,0,1-1.13.3,2.45,2.45,0,0,1-.85-.15,2.21,2.21,0,0,1-.73-.46,2.12,2.12,0,0,1-.52-.72,2.25,2.25,0,0,1-.19-1,2.33,2.33,0,0,1,.19-1,2.16,2.16,0,0,1,.52-.73,2.18,2.18,0,0,1,.73-.45,2.29,2.29,0,0,1,.85-.16,2.09,2.09,0,0,1,.63.08,2.18,2.18,0,0,1,.52.21,2.53,2.53,0,0,1,.42.31,4,4,0,0,1,.34.38v-.88h.73v4A2.76,2.76,0,0,1,139.3,172.33Zm-.67-3.55a1.64,1.64,0,0,0-.41-.53,1.61,1.61,0,0,0-.57-.33,1.85,1.85,0,0,0-.67-.12,2,2,0,0,0-.65.11,1.63,1.63,0,0,0-.54.33,1.39,1.39,0,0,0-.36.53,1.72,1.72,0,0,0,0,1.36,1.45,1.45,0,0,0,.37.53,1.5,1.5,0,0,0,.54.34,1.73,1.73,0,0,0,.64.12,1.85,1.85,0,0,0,.67-.12,1.78,1.78,0,0,0,.57-.33,1.64,1.64,0,0,0,.41-.53,1.62,1.62,0,0,0,0-1.36Z"/><path class="cls-6" d="M143.48,172.3a2.71,2.71,0,0,1-.7,1.07,1.39,1.39,0,0,1-.93.31,2.23,2.23,0,0,1-.54-.06,1.84,1.84,0,0,1-.49-.19l.24-.57a1.3,1.3,0,0,0,.36.13,1.58,1.58,0,0,0,.41,0,.81.81,0,0,0,.55-.2,2,2,0,0,0,.45-.72l-2.22-4.86h.8l1.78,4.07,1.56-4.07h.78Z"/><path class="cls-6" d="M150.62,166.39a3.61,3.61,0,0,0-.8.84l-.55-.4c.16-.22.31-.41.47-.59a2.64,2.64,0,0,1,.51-.44,2.16,2.16,0,0,1,.62-.27,3.1,3.1,0,0,1,.78-.09,2.41,2.41,0,0,1,.83.14,1.94,1.94,0,0,1,.65.39,1.81,1.81,0,0,1,.42.6,1.86,1.86,0,0,1,.15.75,2.09,2.09,0,0,1-.1.67,2.4,2.4,0,0,1-.3.6,6.54,6.54,0,0,1-.52.61q-.32.31-.75.69l-1.76,1.57h3.5v.68h-4.62v-.58l2.4-2.11c.25-.23.47-.44.64-.62a3.64,3.64,0,0,0,.43-.51,1.8,1.8,0,0,0,.24-.48,1.84,1.84,0,0,0,.07-.47,1.25,1.25,0,0,0-.11-.53,1.28,1.28,0,0,0-.29-.4,1.27,1.27,0,0,0-.42-.25,1.52,1.52,0,0,0-.51-.09A1.6,1.6,0,0,0,150.62,166.39Z"/><path class="cls-6" d="M160.32,170.15a3.51,3.51,0,0,1-.56,1.09,2.72,2.72,0,0,1-.88.74,2.48,2.48,0,0,1-1.16.27,2.44,2.44,0,0,1-1.15-.27,2.48,2.48,0,0,1-.88-.73,3.4,3.4,0,0,1-.56-1.09,4.32,4.32,0,0,1-.19-1.31,4.16,4.16,0,0,1,.2-1.33,3.51,3.51,0,0,1,.56-1.09,2.72,2.72,0,0,1,.88-.74,2.48,2.48,0,0,1,1.16-.27,2.44,2.44,0,0,1,1.15.27,2.69,2.69,0,0,1,.88.73,3.39,3.39,0,0,1,.55,1.09,4.34,4.34,0,0,1,.2,1.32A4.44,4.44,0,0,1,160.32,170.15Zm-.72-2.35a2.9,2.9,0,0,0-.4-.87,2.15,2.15,0,0,0-.64-.6,1.52,1.52,0,0,0-.84-.23,1.59,1.59,0,0,0-.83.22,2.09,2.09,0,0,0-.63.59,2.91,2.91,0,0,0-.41.87,4,4,0,0,0,0,2.09,2.86,2.86,0,0,0,.41.88,2.15,2.15,0,0,0,.64.6,1.71,1.71,0,0,0,1.68,0,2,2,0,0,0,.63-.59,2.9,2.9,0,0,0,.4-.87,4,4,0,0,0,.13-1A3.6,3.6,0,0,0,159.6,167.8Z"/><path class="cls-6" d="M162.93,166.39a3.61,3.61,0,0,0-.8.84l-.55-.4c.16-.22.31-.41.47-.59a2.64,2.64,0,0,1,.51-.44,2.22,2.22,0,0,1,.63-.27,3,3,0,0,1,.77-.09,2.41,2.41,0,0,1,.83.14,1.94,1.94,0,0,1,.65.39,1.81,1.81,0,0,1,.42.6,1.86,1.86,0,0,1,.15.75,2.09,2.09,0,0,1-.1.67,2.4,2.4,0,0,1-.3.6,5.31,5.31,0,0,1-.52.61q-.32.31-.75.69l-1.76,1.57h3.5v.68h-4.62v-.58l2.4-2.11c.25-.23.47-.44.64-.62a3.64,3.64,0,0,0,.43-.51,1.8,1.8,0,0,0,.24-.48,1.84,1.84,0,0,0,.07-.47,1.25,1.25,0,0,0-.11-.53,1.28,1.28,0,0,0-.29-.4,1.27,1.27,0,0,0-.42-.25,1.52,1.52,0,0,0-.51-.09A1.62,1.62,0,0,0,162.93,166.39Z"/><path class="cls-6" d="M167.79,165.53h3.8v.69h-3.15l-.14,2.12a4.19,4.19,0,0,1,.59-.22,2.9,2.9,0,0,1,.71-.08,2.93,2.93,0,0,1,.9.14,2.22,2.22,0,0,1,.72.41,1.66,1.66,0,0,1,.48.63,2,2,0,0,1,.18.85,2.11,2.11,0,0,1-.18.89,1.87,1.87,0,0,1-.48.69,2,2,0,0,1-.74.45,2.93,2.93,0,0,1-1,.15,2.85,2.85,0,0,1-1.3-.29,4.23,4.23,0,0,1-1.06-.75l.5-.54a3.64,3.64,0,0,0,.9.66,2.08,2.08,0,0,0,1,.24,1.93,1.93,0,0,0,.65-.1,1.62,1.62,0,0,0,.51-.31,1.56,1.56,0,0,0,.32-.47,1.41,1.41,0,0,0,.12-.59,1.32,1.32,0,0,0-.12-.57,1.37,1.37,0,0,0-.33-.43,1.55,1.55,0,0,0-.52-.29,2,2,0,0,0-.67-.11,2.49,2.49,0,0,0-.76.11,3,3,0,0,0-.63.27l-.5-.33Z"/><path class="cls-8" d="M303,120.93h0a1.65,1.65,0,0,0,2.4,0c3.06-3.22,10.72-12.56,11-25.42a32.93,32.93,0,0,0-1-8.91c-.27-1.06-.58-2.09-.95-3.14-.49-1.38-1.07-2.77-1.72-4.15-.55-1.13-1.17-2.27-1.85-3.38a18.21,18.21,0,0,1-3.26.9c.65,1,1.25,2.12,1.79,3.19.15.31.32.61.47.92.5,1.07,1,2.12,1.35,3.19A30.8,30.8,0,0,1,313.1,95.4c-.23,11.73-7.41,20.48-10.13,23.37A1.58,1.58,0,0,0,303,120.93Z"/><path class="cls-9" d="M278.59,167.32h0a1.63,1.63,0,0,0,1.62-1.59c.63-37.45,23.7-36.73,29.7-37.9a1.58,1.58,0,0,0,1.29-1.69h0a1.6,1.6,0,0,0-1.93-1.43c-6.94,1.39-31.67,1.48-32.34,41A1.65,1.65,0,0,0,278.59,167.32Z"/><path class="cls-8" d="M270.83,138h0a1.54,1.54,0,0,0,.14-2.1A15.1,15.1,0,0,1,268.61,120a15.4,15.4,0,0,1,14-9.64c13.15,0,19.08-14.3,20.74-19.24a1.58,1.58,0,0,0-1.15-2h0a1.65,1.65,0,0,0-2,1c-1.48,4.32-6.76,17-17.62,17a18.65,18.65,0,0,0-17.06,11.62,18.1,18.1,0,0,0,2.79,19.11A1.68,1.68,0,0,0,270.83,138Z"/><path class="cls-9" d="M225.89,175H226a1.59,1.59,0,0,0,1.59-1.56c.65-37.06,24.55-44.32,30.82-45.58a1.58,1.58,0,0,0,1.29-1.71v0a1.58,1.58,0,0,0-1.92-1.36c-7,1.54-32.77,9.85-33.46,48.64A1.61,1.61,0,0,0,225.89,175Z"/><path class="cls-8" d="M234.89,175.07a1.62,1.62,0,0,0,1.16-.46c14.81-14.37,21.52-14.11,25.7-13.06,5,1.26,6.12,5.13,6.51,8.21a1.63,1.63,0,0,0,1.69,1.4h0a1.63,1.63,0,0,0,1.57-1.83c-.47-3.68-2.43-9.17-8.57-10.76-7-1.8-17.13,2.66-29.12,13.75a1.58,1.58,0,0,0,1.06,2.75Z"/><path class="cls-10" d="M286.46,73.88a42.85,42.85,0,0,1-10.79-2.75.24.24,0,0,1-.1-.33h0C283.81,56.65,295,44,306.86,32.35a165.1,165.1,0,0,1,20.38-17.07.11.11,0,0,1,.14,0l.08.1h0c-12.26,12-22.4,24-30.59,38.25q-4.81,8.39-8.95,17Z"/><path class="cls-11" d="M320.76,15.21a2.83,2.83,0,0,1-2.23.2c-.13,0-.14-.09,0-.16a45,45,0,0,1,8.14-4.44.29.29,0,0,1,.22,0c.16.06.17.13,0,.23Q322.54,14.16,320.76,15.21Z"/><path class="cls-12" d="M262.14,38.86a469.7,469.7,0,0,1,45.94-23.25q3.21-1.41,6.53-2.56c.05,0,.07,0,.08,0v.18a.15.15,0,0,1-.09.14c-19.58,10-38.61,22.29-55,37.27-.11.1-.18.08-.22-.07a33.22,33.22,0,0,1-.65-8.76,1.76,1.76,0,0,1,.86-1.41Z"/><path class="cls-13" d="M302.22,25.77c3.26-2.4,6.87-4.6,10.25-6.86,2.32-1.54,3.19-2.41,5.55-2.17.14,0,.16.06,0,.15q-4.94,3.84-9.95,7.58a6.67,6.67,0,0,1-5.86,1.44.1.1,0,0,1-.07-.09A.1.1,0,0,1,302.22,25.77Z"/><path class="cls-14" d="M298.05,28.05c1.25-1,4.29-.7,5.77-.6a.12.12,0,0,1,.11.12.36.36,0,0,1,0,.09l-9.12,7.89a1.25,1.25,0,0,1-.83.3l-5.53,0c-.34,0-.37-.1-.1-.31Z"/><path class="cls-15" d="M279.9,50.85a.67.67,0,0,1-.33.1h-8.23a.19.19,0,0,1-.18-.19.18.18,0,0,1,0-.12q6.35-5.87,12.65-12a3.56,3.56,0,0,1,2.49-1.06h5.81a.15.15,0,0,1,.13.14.12.12,0,0,1,0,.08q-5.79,6.14-11.54,12.4A3.29,3.29,0,0,1,279.9,50.85Z"/><path class="cls-16" d="M270.18,65.66a34.87,34.87,0,0,1-2.74,3.73.76.76,0,0,1-.55.24l-11.18,0a.12.12,0,0,1-.12-.11.11.11,0,0,1,0-.08l12.46-15.56a.3.3,0,0,1,.27-.12l9.2.36a.12.12,0,0,1,.12.13.14.14,0,0,1,0,.06Q273.87,59.9,270.18,65.66Z"/><path class="cls-17" d="M307.51,13.13c1-.38,2.24-.84,3.69-1.36a31.38,31.38,0,0,0-4-2.31c-.35-.17-.47-.37-.28-.74s.15-.48.26-.71c.66-1.38.25-2.82.18-4.23,0-.17-.31-.4-.52-.47-1.9-.64-3.81-1.25-5.72-1.88A10.76,10.76,0,0,1,299.92,1a.67.67,0,0,0-.91.22c-.59.69-1.23,1.34-1.79,2a2.87,2.87,0,0,0-.37.92c-.19.54-.36,1.08-.5,1.53l-8.09-.59A7.24,7.24,0,0,1,288,4,6.25,6.25,0,0,0,286.61.82s-.08-.07-.09-.11c-.28-.85-.89-.76-1.61-.62-2.17.42-4.36.8-6.54,1.17-.42.08-.68.19-.75.68-.14.82-.46,1.61-.54,2.44a7.09,7.09,0,0,0,.24,1.86c.2,1.08.2.82-.76,1.19-1.69.66-3.35,1.39-5,2.12-.6.27-1.18.61-1.76.91-.53-.66-1-1.34-1.54-1.91A5.94,5.94,0,0,0,267,7.76c-.49-.26-1-.52-1.49-.74a.61.61,0,0,0-.53,0c-1.64,1.26-3.26,2.54-4.89,3.82l-.74.57-.68.67c.21.67.41,1.34.65,2a7.59,7.59,0,0,0,.68,1.54,16.18,16.18,0,0,0,1.16,1.46l-4.83,6.11A7.23,7.23,0,0,0,252,22.13a3.14,3.14,0,0,1-.81,0c-.41-.06-.58.14-.71.47s-.34.77-.51,1.16c-.84,1.85-1.67,3.71-2.52,5.55a.43.43,0,0,0,.1.58c.6.64,1.18,1.29,1.78,1.93a1.72,1.72,0,0,0,.51.33c.68.34,1.36.65,1.93.92-.39,2.25-.78,4.4-1.14,6.56-.11.67-.08.66-.78.7a7.24,7.24,0,0,0-2,.2,21,21,0,0,0-2.63,1.24.59.59,0,0,0-.24.42c.11,2.16.23,4.31.37,6.47,0,.5,0,1.12.24,1.45s.94.33,1.39.55a6,6,0,0,0,3.64.44l.49-.06a35.58,35.58,0,0,0,1.24,4.67c1-.87,2-1.72,2.9-2.54a34.84,34.84,0,0,1,9.23-34.5A36.18,36.18,0,0,1,307.51,13.13Z"/><path class="cls-18" d="M273,74.89a36.1,36.1,0,0,0,42-6.19,34.78,34.78,0,0,0,5.41-43.16c.6-.66,1.33-1.46,2.15-2.34a38.34,38.34,0,0,1,2,3.59,3.75,3.75,0,0,0,.26.41c.59-.2,1.16-.42,1.76-.59a2.94,2.94,0,0,1,1-.13c.81,0,1.63.14,2.44.19a.56.56,0,0,1,.59.47c.76,2.33,1.56,4.66,2.35,7a.6.6,0,0,1-.24.8c-.59.46-1.1,1-1.72,1.44a7.83,7.83,0,0,1-1.77.79c-1.08.39-1.12.37-1,1.47a36.68,36.68,0,0,1,.33,6.28c0,.29.09.43.4.45s.53.14.8.14a5.17,5.17,0,0,1,2.86,1.18,6.51,6.51,0,0,0,.92.59c.37.15.34.39.29.68-.45,2.48-.88,5-1.34,7.44a.45.45,0,0,1-.27.3,28.77,28.77,0,0,1-2.9.62,5.89,5.89,0,0,1-1.65-.21c-1-.18-.95-.17-1.36.74-.88,2-1.82,3.93-2.76,5.89-.13.26-.16.43.1.6.09.06.15.18.24.23,1.51.8,2.12,2.29,2.9,3.66a.5.5,0,0,1-.07.66c-.75.89-1.45,1.81-2.17,2.71-.85,1.06-1.71,2.12-2.55,3.19a.46.46,0,0,1-.57.19c-.86-.24-1.75-.41-2.58-.72a7.17,7.17,0,0,1-1.39-.9c-.06,0-.11-.11-.17-.17-.67-.61-.65-.57-1.34,0-1.15,1-2.33,1.88-3.51,2.79-.54.41-1.15.75-1.7,1.15a.46.46,0,0,0-.12.42,5.33,5.33,0,0,0,.43.94,5.42,5.42,0,0,1,.6,2.74c0,2.07.4,1.53-1.56,2.43s-3.77,1.7-5.64,2.56a.5.5,0,0,1-.64-.07,20.86,20.86,0,0,1-2.05-1.93,9.28,9.28,0,0,1-1.07-2c-.14-.3-.26-.38-.61-.31-2.18.47-4.36.92-6.6,1.38a10.1,10.1,0,0,0,0,1.37,5.55,5.55,0,0,1-.9,2.85c-.5,1.16-.52,1.16-1.81,1.11l-6.67-.24a.55.55,0,0,1-.61-.45,5.32,5.32,0,0,0-.52-1.26,5.29,5.29,0,0,1-.41-3.32c.06-.47-.38-.69-.58-.76,0,0-8.06-2.16-10.42-4.17Z"/><path class="cls-9" d="M309.38,73.21c-.66-.84-.32-.35-1-1.17a5.84,5.84,0,0,0-4.45-2.35,5.26,5.26,0,0,0-1.65.26h0a10.26,10.26,0,0,0-2.89,2.14,10,10,0,0,0-.83,1c-1.77,2.46-2.42,5.77-1.9,9.81a1.76,1.76,0,0,0,1.77,1.53h.2a1.78,1.78,0,0,0,1.55-2A13.59,13.59,0,0,1,300,81a17.54,17.54,0,0,1,1.54-5.88,3.67,3.67,0,0,1,1.11-1.26c.88-.71,3,.29,3.62,1.21A19.23,19.23,0,0,0,309.38,73.21Z"/></g></g></svg>