<svg xmlns="http://www.w3.org/2000/svg" xmlns:xlink="http://www.w3.org/1999/xlink" viewBox="0 0 214.54 314.41"><defs><style>.cls-1{fill:#686aad;}.cls-2{fill:#f8ac1f;}.cls-3{fill:url(#linear-gradient);}.cls-4{fill:url(#linear-gradient-2);}.cls-5{fill:url(#linear-gradient-3);}.cls-6{fill:url(#linear-gradient-4);}.cls-7{fill:url(#linear-gradient-5);}.cls-8{fill:url(#linear-gradient-6);}.cls-9{fill:url(#linear-gradient-7);}.cls-10{fill:url(#linear-gradient-8);}.cls-11{fill:url(#linear-gradient-9);}.cls-12{fill:#5c181e;}</style><linearGradient id="linear-gradient" x1="228.53" y1="6.83" x2="118.92" y2="118.39" gradientUnits="userSpaceOnUse"><stop offset="0.1" stop-color="#d3b8b1"/><stop offset="0.52" stop-color="#8b4b44"/><stop offset="1" stop-color="#691018"/></linearGradient><linearGradient id="linear-gradient-2" x1="219.29" y1="-2.25" x2="109.67" y2="109.31" xlink:href="#linear-gradient"/><linearGradient id="linear-gradient-3" x1="204.62" y1="-16.67" x2="95" y2="94.89" xlink:href="#linear-gradient"/><linearGradient id="linear-gradient-4" x1="216.36" y1="-5.13" x2="106.74" y2="106.43" xlink:href="#linear-gradient"/><linearGradient id="linear-gradient-5" x1="213.8" y1="-7.65" x2="104.18" y2="103.91" xlink:href="#linear-gradient"/><linearGradient id="linear-gradient-6" x1="212.92" y1="-8.52" x2="103.3" y2="103.04" xlink:href="#linear-gradient"/><linearGradient id="linear-gradient-7" x1="214.88" y1="-6.59" x2="105.26" y2="104.97" xlink:href="#linear-gradient"/><linearGradient id="linear-gradient-8" x1="193.23" y1="-27.86" x2="83.61" y2="83.69" xlink:href="#linear-gradient"/><linearGradient id="linear-gradient-9" x1="242.59" y1="20.64" x2="132.97" y2="132.2" xlink:href="#linear-gradient"/></defs><g id="Layer_2" data-name="Layer 2"><g id="Layer_1-2" data-name="Layer 1"><path class="cls-1" d="M149,168.48h0a2.15,2.15,0,0,0,3.16,0c4-4.3,14.08-16.76,14.43-33.92a44.46,44.46,0,0,0-1.36-11.89c-.35-1.41-.77-2.79-1.25-4.19A54.93,54.93,0,0,0,161.7,113a50.85,50.85,0,0,0-2.43-4.52,23.13,23.13,0,0,1-4.28,1.2c.85,1.41,1.64,2.83,2.35,4.26.19.42.41.81.61,1.23.66,1.43,1.27,2.83,1.78,4.26a41.7,41.7,0,0,1,2.54,15c-.3,15.65-9.74,27.32-13.31,31.18A2.09,2.09,0,0,0,149,168.48Z"/><path class="cls-2" d="M116.89,230.38h0a2.14,2.14,0,0,0,2.13-2.11c.83-50,31.15-49,39.05-50.57a2.11,2.11,0,0,0,1.7-2.25h0a2.13,2.13,0,0,0-2.54-1.92c-9.13,1.86-41.64,2-42.52,54.67A2.17,2.17,0,0,0,116.89,230.38Z"/><path class="cls-1" d="M106.7,191.29h0a2.09,2.09,0,0,0,.18-2.82,20.38,20.38,0,0,1-3.1-21.25c3.27-7.81,10.51-12.86,18.45-12.86,17.29,0,25.1-19.08,27.28-25.66A2.13,2.13,0,0,0,148,126h0a2.14,2.14,0,0,0-2.57,1.38c-1.94,5.76-8.89,22.74-23.17,22.74-9.69,0-18.49,6.08-22.43,15.5a24.48,24.48,0,0,0,3.67,25.5A2.2,2.2,0,0,0,106.7,191.29Z"/><path class="cls-2" d="M47.62,240.61h.09a2.11,2.11,0,0,0,2.1-2.07c.85-49.45,32.27-59.13,40.52-60.82A2.09,2.09,0,0,0,92,175.44v-.06a2.09,2.09,0,0,0-2.53-1.81c-9.19,2.06-43.08,13.15-44,64.91A2.12,2.12,0,0,0,47.62,240.61Z"/><path class="cls-1" d="M59.44,240.73a2.17,2.17,0,0,0,1.54-.62c19.47-19.18,28.29-18.82,33.78-17.42,6.51,1.67,8,6.84,8.56,10.95a2.15,2.15,0,0,0,2.22,1.87h0a2.17,2.17,0,0,0,2.06-2.44c-.61-4.92-3.19-12.23-11.27-14.35-9.17-2.41-22.51,3.54-38.28,18.33a2.13,2.13,0,0,0,1.39,3.68Z"/><path class="cls-3" d="M152.22,98.58C145.71,98.08,138,94.9,138,94.9a.32.32,0,0,1-.13-.43h0c10.83-18.88,25.51-35.78,41.13-51.3a218.89,218.89,0,0,1,26.8-22.77.12.12,0,0,1,.17,0l.11.13s0,0,0,0c-16.11,16-29.45,32-40.22,51q-6.32,11.18-11.76,22.73Z"/><path class="cls-4" d="M197.32,20.3a3.72,3.72,0,0,1-2.94.26c-.17,0-.18-.12,0-.22A59.41,59.41,0,0,1,205,14.42a.4.4,0,0,1,.3,0c.2.07.22.17,0,.3Q199.65,18.88,197.32,20.3Z"/><path class="cls-5" d="M120.25,51.85a618.52,618.52,0,0,1,60.39-31q4.23-1.87,8.6-3.41s.09,0,.09,0v.23a.2.2,0,0,1-.11.19c-25.74,13.35-50.76,29.74-72.33,49.73-.15.14-.25.11-.29-.09a44.39,44.39,0,0,1-.85-11.69,2.31,2.31,0,0,1,1.13-1.88Z"/><path class="cls-6" d="M172.94,34.38c4.28-3.2,9-6.13,13.48-9.14,3-2.07,4.19-3.22,7.29-2.91.19,0,.21.09.06.2q-6.5,5.13-13.09,10.12a8.7,8.7,0,0,1-7.7,1.93.12.12,0,0,1-.08-.13A.1.1,0,0,1,172.94,34.38Z"/><path class="cls-7" d="M167.46,37.42c1.65-1.27,5.64-.93,7.58-.8a.16.16,0,0,1,.15.17.24.24,0,0,1-.06.11l-12,10.53a1.57,1.57,0,0,1-1.08.4l-7.27,0c-.44,0-.49-.14-.14-.41Z"/><path class="cls-8" d="M143.59,67.85a.82.82,0,0,1-.43.12H132.34a.23.23,0,0,1-.23-.24.28.28,0,0,1,.07-.17q8.32-7.81,16.63-16a4.61,4.61,0,0,1,3.26-1.43l7.65,0a.16.16,0,0,1,.16.18.15.15,0,0,1,0,.11Q152.22,58.67,144.66,67A4.52,4.52,0,0,1,143.59,67.85Z"/><path class="cls-9" d="M130.82,87.6a46.81,46.81,0,0,1-3.61,5,1,1,0,0,1-.71.32l-14.7-.06a.16.16,0,0,1-.16-.16.21.21,0,0,1,0-.1l16.38-20.76a.42.42,0,0,1,.35-.16l12.1.48a.17.17,0,0,1,.16.17.16.16,0,0,1,0,.09Q135.68,79.93,130.82,87.6Z"/><path class="cls-10" d="M179.89,17.52c1.33-.51,3-1.13,4.86-1.81a40,40,0,0,0-5.3-3.09c-.46-.22-.62-.49-.37-1,.16-.29.2-.65.34-1,.87-1.85.33-3.76.24-5.65,0-.22-.41-.53-.68-.62-2.5-.86-5-1.68-7.53-2.51a14.9,14.9,0,0,1-1.54-.55.88.88,0,0,0-1.19.3c-.77.92-1.61,1.78-2.35,2.72a3.86,3.86,0,0,0-.49,1.22c-.24.72-.47,1.44-.66,2.05l-10.63-.79a9.44,9.44,0,0,1-.29-1.59c-.06-1.66-1.05-2.88-1.88-4.18,0-.05-.1-.09-.12-.14-.37-1.14-1.17-1-2.11-.83-2.86.57-5.73,1.07-8.61,1.57-.55.09-.88.25-1,.89-.17,1.1-.59,2.16-.69,3.26a8.83,8.83,0,0,0,.31,2.48c.26,1.45.25,1.1-1,1.6-2.22.88-4.4,1.85-6.58,2.82-.8.36-1.56.81-2.33,1.22a27.63,27.63,0,0,0-2-2.55,7.07,7.07,0,0,0-1.69-1.05c-.64-.36-1.29-.7-2-1a.85.85,0,0,0-.7.05c-2.15,1.68-4.29,3.39-6.43,5.09l-1,.76-.89.89c.28.9.53,1.8.85,2.68a10.68,10.68,0,0,0,.89,2.05,21,21,0,0,0,1.53,1.95L112.55,31a9.27,9.27,0,0,0-5.61-1.45,3.76,3.76,0,0,1-1.06,0c-.53-.08-.76.2-.93.63s-.45,1-.68,1.55c-1.1,2.47-2.19,4.95-3.31,7.41a.61.61,0,0,0,.13.78c.79.84,1.55,1.72,2.35,2.56a2.34,2.34,0,0,0,.66.45l2.55,1.22c-.52,3-1,5.88-1.5,8.76-.15.89-.11.87-1,.92a9.84,9.84,0,0,0-2.62.27,27.3,27.3,0,0,0-3.45,1.66.76.76,0,0,0-.32.56q.21,4.32.48,8.63c.05.67,0,1.5.32,1.93s1.23.45,1.83.75a7.83,7.83,0,0,0,4.79.58l.63-.08a50.36,50.36,0,0,0,1.63,6.23l3.82-3.4a47,47,0,0,1,68.66-53.41Z"/><path class="cls-11" d="M134.57,99.93c18,9.5,40.66,6.45,55.15-8.28a46.91,46.91,0,0,0,7.11-57.58c.78-.87,1.75-1.94,2.82-3.11a50.79,50.79,0,0,1,2.66,4.79c.08.16.2.31.34.54.77-.26,1.53-.56,2.31-.79a4.12,4.12,0,0,1,1.3-.17c1.07.05,2.13.19,3.21.26a.74.74,0,0,1,.78.62c1,3.11,2,6.22,3.09,9.31a.84.84,0,0,1-.32,1.07c-.78.62-1.45,1.38-2.26,1.92a10.68,10.68,0,0,1-2.33,1.06c-1.43.51-1.48.49-1.3,2a49.88,49.88,0,0,1,.45,8.37c0,.4.11.58.52.61s.7.18,1.05.18a6.81,6.81,0,0,1,3.76,1.58,7.79,7.79,0,0,0,1.21.78c.48.21.45.52.38.92-.59,3.31-1.16,6.62-1.76,9.92a.58.58,0,0,1-.36.4,35.39,35.39,0,0,1-3.81.82,7.1,7.1,0,0,1-2.17-.27c-1.33-.25-1.25-.23-1.78,1-1.16,2.64-2.4,5.25-3.64,7.86-.16.35-.2.58.13.8.12.09.2.24.32.31,2,1.07,2.79,3.06,3.81,4.88a.68.68,0,0,1-.09.89c-1,1.17-1.9,2.4-2.85,3.61-1.12,1.42-2.25,2.83-3.36,4.26a.61.61,0,0,1-.74.25c-1.14-.31-2.3-.55-3.4-1A9.59,9.59,0,0,1,193,96.51c-.08-.06-.15-.14-.23-.21-.88-.82-.85-.77-1.76,0-1.5,1.28-3.06,2.51-4.62,3.72-.71.55-1.5,1-2.22,1.53a.63.63,0,0,0-.16.56,7.11,7.11,0,0,0,.56,1.26,7.24,7.24,0,0,1,.79,3.65c0,2.77.53,2-2.05,3.25s-4.95,2.26-7.42,3.42a.65.65,0,0,1-.84-.1,28.59,28.59,0,0,1-2.69-2.58,12.37,12.37,0,0,1-1.41-2.73c-.19-.4-.34-.51-.8-.41-2.87.63-5.74,1.22-8.68,1.84a12.13,12.13,0,0,0,0,1.83c.15,1.45-.66,2.58-1.18,3.79-.66,1.55-.69,1.55-2.38,1.49-2.93-.1-5.85-.23-8.78-.32a.72.72,0,0,1-.8-.6,7.47,7.47,0,0,0-.68-1.69,7.1,7.1,0,0,1-.53-4.42,1,1,0,0,0-.77-1s-10.6-2.88-13.7-5.56Z"/><path class="cls-2" d="M157.81,105.36c-.88-1.12-.86-1-1.76-2.1a7.69,7.69,0,0,0-5.85-3.14,6.9,6.9,0,0,0-2.18.35h0a13.57,13.57,0,0,0-3.8,2.85,14.11,14.11,0,0,0-1.09,1.36c-2.33,3.3-3.18,7.71-2.5,13.1a2.32,2.32,0,0,0,2.32,2l.27,0a2.36,2.36,0,0,0,2-2.61c-.09-.7-.16-1.36-.18-2a23.74,23.74,0,0,1,2-7.84,4.93,4.93,0,0,1,1.46-1.68,2.29,2.29,0,0,1,3.5.37S156.23,105.66,157.81,105.36Z"/><path class="cls-12" d="M3.64,291.05H0V250.13H3.64Z"/><path class="cls-12" d="M26.86,288.15a2.78,2.78,0,0,1-.84,2.09,2.92,2.92,0,0,1-2.12.81H13.36a2.78,2.78,0,0,1-2.9-2.9V253a2.78,2.78,0,0,1,2.9-2.9H23.9a2.92,2.92,0,0,1,2.12.81,2.78,2.78,0,0,1,.84,2.09v9.52H23.2v-9.2H14.09v34.49H23.2V277.77h3.66Z"/><path class="cls-12" d="M49.42,271.88a2.81,2.81,0,0,1-2.93,2.93H36.84v16.24H33.21V250.13H46.49a2.9,2.9,0,0,1,2.11.81,2.8,2.8,0,0,1,.82,2.09Zm-3.63-.31V253.35H36.84v18.22Z"/><path class="cls-12" d="M69.27,253.35H62.94v37.7H59.3v-37.7H52.92v-3.22H69.27Z"/><path class="cls-12" d="M99.23,291.05H83v-1.93l12.52-26v-9.75H87.18v9.2H83.52V253a2.78,2.78,0,0,1,2.9-2.9h9.86a2.78,2.78,0,0,1,2.9,2.9v8.68a8.43,8.43,0,0,1-1,3.59L87.39,287.84H99.23Z"/><path class="cls-12" d="M121.62,288.15a2.78,2.78,0,0,1-.84,2.09,2.94,2.94,0,0,1-2.12.81H107.81a2.78,2.78,0,0,1-2.9-2.9V253a2.78,2.78,0,0,1,2.9-2.9h10.85a2.94,2.94,0,0,1,2.12.81,2.78,2.78,0,0,1,.84,2.09Zm-3.64-.31V253.35h-9.44v34.49Z"/><path class="cls-12" d="M143.37,291.05H127.13v-1.93l12.53-26v-9.75h-8.35v9.2h-3.66V253a2.79,2.79,0,0,1,2.91-2.9h9.86a2.78,2.78,0,0,1,2.9,2.9v8.68a8.57,8.57,0,0,1-1,3.59l-10.83,22.54h11.85Z"/><path class="cls-12" d="M164.78,288.15a2.78,2.78,0,0,1-2.9,2.9H151.82a2.78,2.78,0,0,1-2.08-.81,2.83,2.83,0,0,1-.8-2.09V277.77h3.63v10.07h8.58V268.56H149l.47-18.43h15v3.22h-11.4l-.44,12h9.25a2.78,2.78,0,0,1,2.9,2.9Z"/><path class="cls-12" d="M140.93,235.4h-2.16V218.65h-.94v-.08l1.36-7.33h1.74Z"/><path class="cls-12" d="M154.36,229.1h-1.83v6.3h-2v-6.3h-6.82V228l5.85-16.77h2v.09L146,227.28h4.5v-8.77h2v8.77h1.83Z"/><path class="cls-12" d="M159.43,218.56h-1.38a.74.74,0,0,1-.83-.83v-5.46h-.86v-.86h.86v-2.22h1v2.22h1.25v.86h-1.25v5.43h1.25Z"/><path class="cls-12" d="M164.78,218.56h-1v-6.27l-2.15.06v6.21h-1V207.07h1v4.54l1.16-.14a8.46,8.46,0,0,1,1.15-.1.71.71,0,0,1,.81.8Z"/><path class="cls-12" d="M1.44,299.48v5.06H.87v-5.06Z"/><path class="cls-12" d="M3.39,304.54H2.83V300.8h.56v.65a1.83,1.83,0,0,1,.49-.51,1.32,1.32,0,0,1,.79-.22,1.66,1.66,0,0,1,.61.11,1.39,1.39,0,0,1,.45.31,1.47,1.47,0,0,1,.28.47,2,2,0,0,1,.1.61v2.32H5.55v-2.18a1.22,1.22,0,0,0-.27-.83,1,1,0,0,0-.77-.3,1.27,1.27,0,0,0-.44.08,1.13,1.13,0,0,0-.36.24,1.18,1.18,0,0,0-.24.37,1.51,1.51,0,0,0-.08.48Z"/><path class="cls-12" d="M8.05,303.48a.6.6,0,0,0,.17.49.72.72,0,0,0,.46.13l.27,0a1.3,1.3,0,0,0,.27-.1v.48a1.66,1.66,0,0,1-.31.12,1.56,1.56,0,0,1-.78,0,.85.85,0,0,1-.34-.18.83.83,0,0,1-.22-.33,1.23,1.23,0,0,1-.08-.49v-2.26H7v-.49h.52v-1.13h.56v1.13H9.23v.49H8.05Z"/><path class="cls-12" d="M10.59,303.42a1.35,1.35,0,0,0,.3.4,1.14,1.14,0,0,0,.41.24,1.23,1.23,0,0,0,.47.09,1.41,1.41,0,0,0,.67-.15,2.25,2.25,0,0,0,.51-.38l.34.31a2.25,2.25,0,0,1-.64.51,1.87,1.87,0,0,1-.9.19,2,2,0,0,1-.72-.14,1.75,1.75,0,0,1-.6-.4,1.89,1.89,0,0,1-.4-.62,2,2,0,0,1-.15-.79,2.19,2.19,0,0,1,.13-.77,1.93,1.93,0,0,1,.37-.62,1.83,1.83,0,0,1,.57-.42,1.72,1.72,0,0,1,.72-.15,1.61,1.61,0,0,1,.74.16,1.52,1.52,0,0,1,.55.42,1.91,1.91,0,0,1,.34.63,2.45,2.45,0,0,1,.12.78v.08a.31.31,0,0,1,0,.09h-3A1.78,1.78,0,0,0,10.59,303.42Zm2.26-.95a2,2,0,0,0-.11-.49,1.13,1.13,0,0,0-.23-.4,1.09,1.09,0,0,0-.36-.28,1.07,1.07,0,0,0-.49-.11,1.19,1.19,0,0,0-.46.1,1.17,1.17,0,0,0-.36.27,1.38,1.38,0,0,0-.26.4,1.59,1.59,0,0,0-.13.51Z"/><path class="cls-12" d="M15,304.54h-.56V300.8H15v1a1.7,1.7,0,0,1,.26-.43,1.52,1.52,0,0,1,.34-.33,1.46,1.46,0,0,1,.43-.22,1.35,1.35,0,0,1,.5-.06v.6h0a1.4,1.4,0,0,0-.58.11,1.27,1.27,0,0,0-.47.32,1.61,1.61,0,0,0-.32.54,2.13,2.13,0,0,0-.12.74Z"/><path class="cls-12" d="M17.88,304.54h-.55V300.8h.55v.65a1.73,1.73,0,0,1,.5-.51,1.28,1.28,0,0,1,.79-.22,1.64,1.64,0,0,1,.6.11,1.21,1.21,0,0,1,.45.31,1.31,1.31,0,0,1,.28.47,1.74,1.74,0,0,1,.1.61v2.32H20v-2.18a1.22,1.22,0,0,0-.27-.83,1,1,0,0,0-.76-.3,1.33,1.33,0,0,0-.45.08,1.13,1.13,0,0,0-.36.24,1,1,0,0,0-.23.37,1.28,1.28,0,0,0-.09.48Z"/><path class="cls-12" d="M22.54,301.32a3.5,3.5,0,0,0-.54.2l-.16-.46a4.29,4.29,0,0,1,.63-.23,3.13,3.13,0,0,1,.73-.08,1.71,1.71,0,0,1,1.18.38,1.47,1.47,0,0,1,.41,1.13v2.28h-.54V304a1.78,1.78,0,0,1-.52.45,1.62,1.62,0,0,1-.83.19,1.79,1.79,0,0,1-.51-.07,1.35,1.35,0,0,1-.45-.22,1.22,1.22,0,0,1-.32-.36,1.19,1.19,0,0,1,0-1,1,1,0,0,1,.33-.38,1.33,1.33,0,0,1,.51-.23,2.16,2.16,0,0,1,.64-.08,3.77,3.77,0,0,1,.63,0l.52.11v-.13a1,1,0,0,0-.29-.76,1.2,1.2,0,0,0-.82-.26A2.23,2.23,0,0,0,22.54,301.32Zm-.18,1.54a.67.67,0,0,0-.28.57.62.62,0,0,0,.28.55.71.71,0,0,0,.3.15,1,1,0,0,0,.35.05,1.53,1.53,0,0,0,.49-.07,1.39,1.39,0,0,0,.4-.21,1,1,0,0,0,.26-.32.83.83,0,0,0,.1-.41v-.36a4.32,4.32,0,0,0-.48-.11,2.84,2.84,0,0,0-.61-.05A1.31,1.31,0,0,0,22.36,302.86Z"/><path class="cls-12" d="M26.69,303.48a.6.6,0,0,0,.18.49.71.71,0,0,0,.45.13,1.27,1.27,0,0,0,.28,0,1.3,1.3,0,0,0,.27-.1v.48a1.66,1.66,0,0,1-.31.12,1.4,1.4,0,0,1-.37,0,1.42,1.42,0,0,1-.42-.06.88.88,0,0,1-.33-.18.83.83,0,0,1-.22-.33,1.23,1.23,0,0,1-.08-.49v-2.26h-.52v-.49h.52v-1.13h.55v1.13h1.19v.49H26.69Z"/><path class="cls-12" d="M28.88,300v-.61h.64V300Zm0,4.56V300.8h.55v3.74Z"/><path class="cls-12" d="M34.29,303.43a2,2,0,0,1-1,1.05,2.1,2.1,0,0,1-1.56,0,2.21,2.21,0,0,1-.61-.42,2.16,2.16,0,0,1-.41-.62,2.11,2.11,0,0,1,0-1.51,2.08,2.08,0,0,1,.41-.63,1.79,1.79,0,0,1,.62-.42,2,2,0,0,1,1.56,0,1.79,1.79,0,0,1,.62.42,1.92,1.92,0,0,1,.41.62,2,2,0,0,1,.14.75A1.94,1.94,0,0,1,34.29,303.43Zm-.53-1.32a1.42,1.42,0,0,0-.29-.47,1.4,1.4,0,0,0-.44-.31,1.26,1.26,0,0,0-.55-.12,1.31,1.31,0,0,0-.56.12,1.1,1.1,0,0,0-.43.31,1.42,1.42,0,0,0-.28.46,1.52,1.52,0,0,0-.1.57,1.56,1.56,0,0,0,.11.57,1.38,1.38,0,0,0,.29.46,1.35,1.35,0,0,0,.43.31,1.29,1.29,0,0,0,.55.11,1.27,1.27,0,0,0,.56-.11,1.32,1.32,0,0,0,.44-.3,1.53,1.53,0,0,0,.28-.46,1.6,1.6,0,0,0,0-1.14Z"/><path class="cls-12" d="M36,304.54h-.55V300.8H36v.65a1.73,1.73,0,0,1,.5-.51,1.28,1.28,0,0,1,.79-.22,1.64,1.64,0,0,1,.6.11,1.21,1.21,0,0,1,.45.31,1.31,1.31,0,0,1,.28.47,1.74,1.74,0,0,1,.1.61v2.32h-.56v-2.18a1.22,1.22,0,0,0-.27-.83,1,1,0,0,0-.76-.3,1.33,1.33,0,0,0-.45.08,1.13,1.13,0,0,0-.36.24,1,1,0,0,0-.23.37,1.28,1.28,0,0,0-.09.48Z"/><path class="cls-12" d="M40.66,301.32a3.93,3.93,0,0,0-.54.2l-.16-.46a5.33,5.33,0,0,1,.63-.23,3.13,3.13,0,0,1,.73-.08,1.71,1.71,0,0,1,1.18.38,1.47,1.47,0,0,1,.41,1.13v2.28h-.53V304a1.83,1.83,0,0,1-.53.45,1.62,1.62,0,0,1-.83.19,1.79,1.79,0,0,1-.51-.07,1.45,1.45,0,0,1-.45-.22,1.22,1.22,0,0,1-.32-.36,1.19,1.19,0,0,1,0-1,1,1,0,0,1,.33-.38,1.33,1.33,0,0,1,.51-.23,2.16,2.16,0,0,1,.64-.08,3.77,3.77,0,0,1,.63,0l.53.11v-.13a1,1,0,0,0-.3-.76,1.2,1.2,0,0,0-.82-.26A2.23,2.23,0,0,0,40.66,301.32Zm-.18,1.54a.67.67,0,0,0-.28.57.62.62,0,0,0,.28.55.71.71,0,0,0,.3.15,1,1,0,0,0,.35.05,1.53,1.53,0,0,0,.49-.07,1.27,1.27,0,0,0,.4-.21,1.18,1.18,0,0,0,.27-.32,1,1,0,0,0,.09-.41v-.36a4.32,4.32,0,0,0-.48-.11,2.84,2.84,0,0,0-.61-.05A1.33,1.33,0,0,0,40.48,302.86Z"/><path class="cls-12" d="M44.15,304.54v-5.28h.56v5.28Z"/><path class="cls-12" d="M52.2,304.11a2.35,2.35,0,0,1-.46.28,3.66,3.66,0,0,1-.53.18,2.93,2.93,0,0,1-.63.06,2.6,2.6,0,0,1-1-.2,2.41,2.41,0,0,1-.8-.56,2.37,2.37,0,0,1-.53-.82,2.74,2.74,0,0,1-.2-1,2.69,2.69,0,0,1,.2-1,2.45,2.45,0,0,1,.53-.84,2.22,2.22,0,0,1,.81-.56,2.46,2.46,0,0,1,1-.21,2.9,2.9,0,0,1,.62.06,2.41,2.41,0,0,1,1,.41,3.09,3.09,0,0,1,.39.33l-.39.42a3.33,3.33,0,0,0-.7-.5,1.89,1.89,0,0,0-.89-.19,1.85,1.85,0,0,0-.78.16,1.71,1.71,0,0,0-.62.44,1.88,1.88,0,0,0-.41.66,2.34,2.34,0,0,0,0,1.65,1.8,1.8,0,0,0,.41.66,1.87,1.87,0,0,0,.62.45,1.85,1.85,0,0,0,.78.16,1.93,1.93,0,0,0,.9-.19,3.47,3.47,0,0,0,.74-.54l.37.37A2.86,2.86,0,0,1,52.2,304.11Z"/><path class="cls-12" d="M57,303.43a2.16,2.16,0,0,1-.41.62,1.92,1.92,0,0,1-1.41.58,1.92,1.92,0,0,1-.77-.15,2.26,2.26,0,0,1-.62-.42,2,2,0,0,1-.4-2.13,1.84,1.84,0,0,1,1-1.05,2,2,0,0,1,2.18.42,1.77,1.77,0,0,1,.41.62,1.86,1.86,0,0,1,.14.75A1.94,1.94,0,0,1,57,303.43Zm-.53-1.32a1.45,1.45,0,0,0-.3-.47,1.4,1.4,0,0,0-.44-.31,1.26,1.26,0,0,0-.55-.12,1.23,1.23,0,0,0-.55.12,1.14,1.14,0,0,0-.44.31,1.4,1.4,0,0,0-.27.46,1.52,1.52,0,0,0-.11.57,1.52,1.52,0,0,0,.4,1,1.4,1.4,0,0,0,.44.31,1.26,1.26,0,0,0,.55.11,1.37,1.37,0,0,0,1-.41,1.53,1.53,0,0,0,.28-.46,1.67,1.67,0,0,0,0-1.14Z"/><path class="cls-12" d="M58.68,304.54h-.56V300.8h.56v.65a1.7,1.7,0,0,1,.49-.51,1.3,1.3,0,0,1,.79-.22,1.57,1.57,0,0,1,.6.11,1.21,1.21,0,0,1,.45.31,1.33,1.33,0,0,1,.29.47,2,2,0,0,1,.09.61v2.32h-.55v-2.18a1.22,1.22,0,0,0-.27-.83,1,1,0,0,0-.77-.3,1.23,1.23,0,0,0-.44.08,1.13,1.13,0,0,0-.36.24,1.18,1.18,0,0,0-.24.37,1.51,1.51,0,0,0-.08.48Z"/><path class="cls-12" d="M64.53,300.82v.47H63.35v3.25h-.56v-3.25h-.51v-.48h.51v-.33a1.35,1.35,0,0,1,.29-.93,1.11,1.11,0,0,1,.84-.32l.34,0,.28.07v.49l-.28-.07a1.14,1.14,0,0,0-.27,0c-.43,0-.65.26-.65.79v.31Z"/><path class="cls-12" d="M65.65,303.42a1.35,1.35,0,0,0,.3.4,1.1,1.1,0,0,0,.4.24,1.27,1.27,0,0,0,.47.09,1.38,1.38,0,0,0,.67-.15,1.89,1.89,0,0,0,.51-.38l.35.31a2.4,2.4,0,0,1-.64.51,1.9,1.9,0,0,1-.9.19,2,2,0,0,1-.73-.14,1.81,1.81,0,0,1-.59-.4,1.92,1.92,0,0,1-.41-.62,2,2,0,0,1-.15-.79,2.19,2.19,0,0,1,.14-.77,1.93,1.93,0,0,1,.37-.62,1.83,1.83,0,0,1,.57-.42,1.72,1.72,0,0,1,.72-.15,1.64,1.64,0,0,1,.74.16,1.62,1.62,0,0,1,.55.42,1.91,1.91,0,0,1,.34.63,2.45,2.45,0,0,1,.11.78v.17h-3A1.35,1.35,0,0,0,65.65,303.42Zm2.25-.95a2,2,0,0,0-.1-.49,1.31,1.31,0,0,0-.23-.4,1.09,1.09,0,0,0-.36-.28,1.12,1.12,0,0,0-.5-.11,1.14,1.14,0,0,0-.45.1,1.22,1.22,0,0,0-.37.27,1.62,1.62,0,0,0-.26.4,1.59,1.59,0,0,0-.12.51Z"/><path class="cls-12" d="M70,304.54h-.56V300.8H70v1a2,2,0,0,1,.25-.43,1.56,1.56,0,0,1,.35-.33,1.4,1.4,0,0,1,.93-.28v.6h-.05a1.38,1.38,0,0,0-.57.11,1.39,1.39,0,0,0-.48.32,1.8,1.8,0,0,0-.32.54,2.4,2.4,0,0,0-.11.74Z"/><path class="cls-12" d="M72.71,303.42a1.2,1.2,0,0,0,.3.4,1.1,1.1,0,0,0,.4.24,1.27,1.27,0,0,0,.47.09,1.38,1.38,0,0,0,.67-.15,1.89,1.89,0,0,0,.51-.38l.35.31a2.29,2.29,0,0,1-.65.51,1.86,1.86,0,0,1-.89.19,2,2,0,0,1-.73-.14,1.81,1.81,0,0,1-.59-.4,1.92,1.92,0,0,1-.41-.62,2,2,0,0,1-.15-.79,2.19,2.19,0,0,1,.14-.77,1.93,1.93,0,0,1,.37-.62,1.83,1.83,0,0,1,.57-.42,1.72,1.72,0,0,1,.72-.15,1.64,1.64,0,0,1,.74.16,1.62,1.62,0,0,1,.55.42,1.91,1.91,0,0,1,.34.63,2.77,2.77,0,0,1,.11.78v.08a.31.31,0,0,1,0,.09h-3A1.54,1.54,0,0,0,72.71,303.42Zm2.25-.95a2,2,0,0,0-.1-.49,1.55,1.55,0,0,0-.23-.4,1.09,1.09,0,0,0-.36-.28,1.13,1.13,0,0,0-1,0,1.22,1.22,0,0,0-.37.27,1.62,1.62,0,0,0-.26.4,1.9,1.9,0,0,0-.13.51Z"/><path class="cls-12" d="M77.07,304.54h-.56V300.8h.56v.65a1.7,1.7,0,0,1,.49-.51,1.28,1.28,0,0,1,.79-.22,1.57,1.57,0,0,1,.6.11,1.21,1.21,0,0,1,.45.31,1.31,1.31,0,0,1,.28.47,1.74,1.74,0,0,1,.1.61v2.32h-.56v-2.18a1.27,1.27,0,0,0-.26-.83,1,1,0,0,0-.77-.3,1.33,1.33,0,0,0-.45.08,1.21,1.21,0,0,0-.35.24,1,1,0,0,0-.24.37,1.27,1.27,0,0,0-.08.48Z"/><path class="cls-12" d="M83.54,304.43a1.82,1.82,0,0,1-.88.2,2,2,0,0,1-.77-.15,2.37,2.37,0,0,1-.61-.42,2,2,0,0,1-.4-2.13,2.05,2.05,0,0,1,.4-.63,2,2,0,0,1,.61-.42,1.8,1.8,0,0,1,.77-.16,2.36,2.36,0,0,1,.48,0,2.08,2.08,0,0,1,.4.14,1.9,1.9,0,0,1,.33.22,2.33,2.33,0,0,1,.28.26l-.36.39a2.6,2.6,0,0,0-.49-.4,1.23,1.23,0,0,0-.65-.17,1.34,1.34,0,0,0-1,.43,1.42,1.42,0,0,0-.28.46,1.52,1.52,0,0,0-.1.57,1.45,1.45,0,0,0,.39,1,1.35,1.35,0,0,0,.44.31,1.26,1.26,0,0,0,.55.11,1.34,1.34,0,0,0,.64-.15,2.38,2.38,0,0,0,.5-.4l.35.33A2.51,2.51,0,0,1,83.54,304.43Z"/><path class="cls-12" d="M85.48,303.42a1.35,1.35,0,0,0,.3.4,1.1,1.1,0,0,0,.4.24,1.27,1.27,0,0,0,.47.09,1.38,1.38,0,0,0,.67-.15,1.89,1.89,0,0,0,.51-.38l.35.31a2.4,2.4,0,0,1-.64.51,1.93,1.93,0,0,1-.9.19,2,2,0,0,1-.73-.14,1.81,1.81,0,0,1-.59-.4,1.92,1.92,0,0,1-.41-.62,2,2,0,0,1-.15-.79,2.19,2.19,0,0,1,.14-.77,1.93,1.93,0,0,1,.37-.62,1.83,1.83,0,0,1,.57-.42,1.72,1.72,0,0,1,.72-.15,1.64,1.64,0,0,1,.74.16,1.62,1.62,0,0,1,.55.42,1.91,1.91,0,0,1,.34.63,2.77,2.77,0,0,1,.11.78v.17h-3A1.54,1.54,0,0,0,85.48,303.42Zm2.25-.95a2,2,0,0,0-.1-.49,1.55,1.55,0,0,0-.23-.4,1.09,1.09,0,0,0-.36-.28,1.13,1.13,0,0,0-1,0,1.22,1.22,0,0,0-.37.27,1.62,1.62,0,0,0-.26.4,1.9,1.9,0,0,0-.13.51Z"/><path class="cls-12" d="M95,303.43a1.81,1.81,0,0,1-.41.62,2,2,0,0,1-.62.43,2,2,0,0,1-.78.15,1.92,1.92,0,0,1-.77-.15,2.12,2.12,0,0,1-.62-.42,2.16,2.16,0,0,1-.41-.62,2.11,2.11,0,0,1,0-1.51,2.08,2.08,0,0,1,.41-.63,1.79,1.79,0,0,1,.62-.42,2,2,0,0,1,1.56,0,1.79,1.79,0,0,1,.62.42,1.77,1.77,0,0,1,.41.62,2,2,0,0,1,.14.75A1.94,1.94,0,0,1,95,303.43Zm-.52-1.32a1.45,1.45,0,0,0-.3-.47,1.4,1.4,0,0,0-.44-.31,1.26,1.26,0,0,0-.55-.12,1.31,1.31,0,0,0-.56.12,1.1,1.1,0,0,0-.43.31,1.42,1.42,0,0,0-.28.46,1.75,1.75,0,0,0-.1.57,1.56,1.56,0,0,0,.11.57,1.38,1.38,0,0,0,.29.46,1.48,1.48,0,0,0,.43.31,1.29,1.29,0,0,0,.55.11,1.27,1.27,0,0,0,.56-.11,1.23,1.23,0,0,0,.44-.3,1.53,1.53,0,0,0,.28-.46,1.67,1.67,0,0,0,0-1.14Z"/><path class="cls-12" d="M96.69,304.54h-.56V300.8h.56v.65a1.7,1.7,0,0,1,.49-.51,1.28,1.28,0,0,1,.79-.22,1.6,1.6,0,0,1,.6.11,1.21,1.21,0,0,1,.45.31,1.31,1.31,0,0,1,.28.47,1.74,1.74,0,0,1,.1.61v2.32h-.56v-2.18a1.27,1.27,0,0,0-.26-.83,1,1,0,0,0-.77-.3,1.33,1.33,0,0,0-.45.08,1.41,1.41,0,0,0-.36.24,1,1,0,0,0-.23.37,1.27,1.27,0,0,0-.08.48Z"/><path class="cls-12" d="M106.34,304.54l-1.47-2h-1.44v2h-.58v-5.06H105a2.29,2.29,0,0,1,.76.11,1.77,1.77,0,0,1,.58.3,1.51,1.51,0,0,1,.36.48,1.41,1.41,0,0,1,.13.62,1.48,1.48,0,0,1-.1.57,1.15,1.15,0,0,1-.28.43,1.52,1.52,0,0,1-.44.31,2.37,2.37,0,0,1-.55.18l1.56,2.06Zm-.39-4.27a1.52,1.52,0,0,0-1-.26h-1.56v2.06H105a2.18,2.18,0,0,0,.52-.07,1.22,1.22,0,0,0,.41-.21.86.86,0,0,0,.27-.33.92.92,0,0,0,.1-.44A.9.9,0,0,0,106,300.27Z"/><path class="cls-12" d="M111.44,303.43a2,2,0,0,1-1,1.05,2,2,0,0,1-.78.15,1.92,1.92,0,0,1-.77-.15,2.12,2.12,0,0,1-.62-.42,2.16,2.16,0,0,1-.41-.62,2.11,2.11,0,0,1,0-1.51,2.08,2.08,0,0,1,.41-.63,1.79,1.79,0,0,1,.62-.42,2,2,0,0,1,1.56,0,1.79,1.79,0,0,1,.62.42,1.77,1.77,0,0,1,.41.62,2,2,0,0,1,.14.75A1.94,1.94,0,0,1,111.44,303.43Zm-.52-1.32a1.45,1.45,0,0,0-.3-.47,1.4,1.4,0,0,0-.44-.31,1.26,1.26,0,0,0-.55-.12,1.31,1.31,0,0,0-.56.12,1.1,1.1,0,0,0-.43.31,1.42,1.42,0,0,0-.28.46,1.75,1.75,0,0,0-.1.57,1.56,1.56,0,0,0,.11.57,1.38,1.38,0,0,0,.29.46,1.48,1.48,0,0,0,.43.31,1.29,1.29,0,0,0,.55.11,1.27,1.27,0,0,0,.56-.11,1.23,1.23,0,0,0,.44-.3,1.53,1.53,0,0,0,.28-.46,1.56,1.56,0,0,0,.1-.57A1.8,1.8,0,0,0,110.92,302.11Z"/><path class="cls-12" d="M113.35,301.32a3.39,3.39,0,0,0-.53.2l-.17-.46a5.33,5.33,0,0,1,.63-.23,3.13,3.13,0,0,1,.73-.08,1.69,1.69,0,0,1,1.18.38,1.47,1.47,0,0,1,.41,1.13v2.28h-.53V304a1.83,1.83,0,0,1-.53.45,1.59,1.59,0,0,1-.83.19,1.79,1.79,0,0,1-.51-.07,1.57,1.57,0,0,1-.45-.22,1.19,1.19,0,0,1-.31-.36,1.23,1.23,0,0,1,0-1,1,1,0,0,1,.33-.38,1.33,1.33,0,0,1,.51-.23,2.18,2.18,0,0,1,.65-.08,3.92,3.92,0,0,1,.63,0l.52.11v-.13a1,1,0,0,0-.3-.76,1.2,1.2,0,0,0-.82-.26A2.23,2.23,0,0,0,113.35,301.32Zm-.18,1.54a.67.67,0,0,0-.28.57.62.62,0,0,0,.28.55.85.85,0,0,0,.3.15,1,1,0,0,0,.36.05,1.51,1.51,0,0,0,.48-.07,1.27,1.27,0,0,0,.4-.21,1.18,1.18,0,0,0,.27-.32,1,1,0,0,0,.09-.41v-.36a4.32,4.32,0,0,0-.48-.11,2.84,2.84,0,0,0-.61-.05A1.35,1.35,0,0,0,113.17,302.86Z"/><path class="cls-12" d="M119.79,304.54v-.75a2.51,2.51,0,0,1-.25.32,2.08,2.08,0,0,1-.32.27,1.21,1.21,0,0,1-.38.18,1.86,1.86,0,0,1-.48.06,1.65,1.65,0,0,1-.66-.13,1.63,1.63,0,0,1-.57-.38,1.75,1.75,0,0,1-.4-.61,1.94,1.94,0,0,1-.16-.82,2,2,0,0,1,.16-.83,1.85,1.85,0,0,1,.4-.61,1.63,1.63,0,0,1,.57-.38,1.66,1.66,0,0,1,.66-.14,1.51,1.51,0,0,1,.48.07,1.71,1.71,0,0,1,.39.17,1.54,1.54,0,0,1,.31.25,1.79,1.79,0,0,1,.25.31v-2.26h.56v5.28Zm-.09-2.46a1.31,1.31,0,0,0-.3-.46,1.55,1.55,0,0,0-.43-.29,1.29,1.29,0,0,0-.51-.1,1.25,1.25,0,0,0-.51.1,1.19,1.19,0,0,0-.42.28,1.28,1.28,0,0,0-.28.45,1.66,1.66,0,0,0-.1.61,1.64,1.64,0,0,0,.1.6,1.56,1.56,0,0,0,.29.46,1.37,1.37,0,0,0,.42.29,1.35,1.35,0,0,0,.5.1A1.3,1.3,0,0,0,119,304a1.36,1.36,0,0,0,.43-.29,1.23,1.23,0,0,0,.3-.46,1.51,1.51,0,0,0,0-1.18Z"/><path class="cls-12" d="M124.52,301.32a3.39,3.39,0,0,0-.53.2l-.17-.46a5.33,5.33,0,0,1,.63-.23,3.2,3.2,0,0,1,.73-.08,1.69,1.69,0,0,1,1.18.38,1.44,1.44,0,0,1,.41,1.13v2.28h-.53V304a1.83,1.83,0,0,1-.53.45,1.59,1.59,0,0,1-.83.19,1.79,1.79,0,0,1-.51-.07,1.57,1.57,0,0,1-.45-.22,1.19,1.19,0,0,1-.31-.36,1.23,1.23,0,0,1,0-1,1,1,0,0,1,.33-.38,1.33,1.33,0,0,1,.51-.23,2.18,2.18,0,0,1,.65-.08,3.92,3.92,0,0,1,.63,0l.52.11v-.13a1,1,0,0,0-.3-.76,1.2,1.2,0,0,0-.82-.26A2.23,2.23,0,0,0,124.52,301.32Zm-.18,1.54a.67.67,0,0,0-.28.57.62.62,0,0,0,.28.55.85.85,0,0,0,.3.15,1,1,0,0,0,.36.05,1.51,1.51,0,0,0,.48-.07,1.27,1.27,0,0,0,.4-.21,1.18,1.18,0,0,0,.27-.32,1,1,0,0,0,.09-.41v-.36a3.85,3.85,0,0,0-.48-.11,2.84,2.84,0,0,0-.61-.05A1.35,1.35,0,0,0,124.34,302.86Z"/><path class="cls-12" d="M128.52,304.54H128V300.8h.56v.65a1.7,1.7,0,0,1,.49-.51,1.3,1.3,0,0,1,.79-.22,1.57,1.57,0,0,1,.6.11,1.21,1.21,0,0,1,.45.31,1.33,1.33,0,0,1,.29.47,2,2,0,0,1,.09.61v2.32h-.55v-2.18a1.22,1.22,0,0,0-.27-.83,1,1,0,0,0-.77-.3,1.33,1.33,0,0,0-.45.08,1.21,1.21,0,0,0-.35.24,1.18,1.18,0,0,0-.24.37,1.51,1.51,0,0,0-.08.48Z"/><path class="cls-12" d="M135.42,304.54v-.75a2.51,2.51,0,0,1-.25.32,2.08,2.08,0,0,1-.32.27,1.21,1.21,0,0,1-.38.18,1.86,1.86,0,0,1-.48.06,1.65,1.65,0,0,1-.66-.13,1.63,1.63,0,0,1-.57-.38,1.75,1.75,0,0,1-.4-.61,1.94,1.94,0,0,1-.16-.82,2,2,0,0,1,.16-.83,1.85,1.85,0,0,1,.4-.61,1.63,1.63,0,0,1,.57-.38,1.66,1.66,0,0,1,.66-.14,1.51,1.51,0,0,1,.48.07,1.71,1.71,0,0,1,.39.17,1.54,1.54,0,0,1,.31.25,1.79,1.79,0,0,1,.25.31v-2.26H136v5.28Zm-.09-2.46a1.31,1.31,0,0,0-.3-.46,1.55,1.55,0,0,0-.43-.29,1.29,1.29,0,0,0-.51-.1,1.25,1.25,0,0,0-.51.1,1.19,1.19,0,0,0-.42.28,1.28,1.28,0,0,0-.28.45,1.72,1.72,0,0,0,0,1.21,1.31,1.31,0,0,0,.71.75,1.35,1.35,0,0,0,.5.1,1.3,1.3,0,0,0,.51-.11,1.36,1.36,0,0,0,.43-.29,1.23,1.23,0,0,0,.3-.46,1.51,1.51,0,0,0,0-1.18Z"/><path class="cls-12" d="M144.21,304.54h-.61l-.6-1.33h-2.75l-.61,1.33h-.58l2.31-5.1h.53Zm-2.58-4.43-1.16,2.59h2.31Z"/><path class="cls-12" d="M145.13,300v-.61h.64V300Zm0,4.56V300.8h.56v3.74Z"/><path class="cls-12" d="M147.58,304.54H147V300.8h.56v1a2,2,0,0,1,.25-.43,1.56,1.56,0,0,1,.35-.33,1.4,1.4,0,0,1,.93-.28v.6h-.05a1.38,1.38,0,0,0-.57.11,1.39,1.39,0,0,0-.48.32,1.59,1.59,0,0,0-.31.54,2.13,2.13,0,0,0-.12.74Z"/><path class="cls-12" d="M151.9,300.82v.47h-1.18v3.25h-.56v-3.25h-.51v-.48h.51v-.33a1.3,1.3,0,0,1,.3-.93,1.07,1.07,0,0,1,.83-.32l.34,0,.28.07v.49l-.28-.07a1.1,1.1,0,0,0-.26,0c-.44,0-.66.26-.66.79v.31Z"/><path class="cls-12" d="M152.63,300v-.61h.63V300Zm0,4.56V300.8h.56v3.74Z"/><path class="cls-12" d="M155,303.42a1.35,1.35,0,0,0,.3.4,1.1,1.1,0,0,0,.4.24,1.27,1.27,0,0,0,.47.09,1.38,1.38,0,0,0,.67-.15,1.89,1.89,0,0,0,.51-.38l.35.31a2.4,2.4,0,0,1-.64.51,1.9,1.9,0,0,1-.9.19,2,2,0,0,1-.73-.14,1.81,1.81,0,0,1-.59-.4,1.92,1.92,0,0,1-.41-.62,2,2,0,0,1-.15-.79,2.19,2.19,0,0,1,.14-.77,1.93,1.93,0,0,1,.37-.62,1.83,1.83,0,0,1,.57-.42,1.72,1.72,0,0,1,.72-.15,1.64,1.64,0,0,1,.74.16,1.62,1.62,0,0,1,.55.42,1.91,1.91,0,0,1,.34.63,2.77,2.77,0,0,1,.11.78v.17h-3A1.35,1.35,0,0,0,155,303.42Zm2.25-.95a2,2,0,0,0-.1-.49,1.31,1.31,0,0,0-.23-.4,1.09,1.09,0,0,0-.36-.28,1.12,1.12,0,0,0-.5-.11,1.14,1.14,0,0,0-.45.1,1.22,1.22,0,0,0-.37.27,1.62,1.62,0,0,0-.26.4,1.59,1.59,0,0,0-.12.51Z"/><path class="cls-12" d="M158.85,304.54v-5.28h.56v5.28Z"/><path class="cls-12" d="M163.71,304.54v-.75a2.6,2.6,0,0,1-.26.32,2,2,0,0,1-.31.27,1.38,1.38,0,0,1-.39.18,1.75,1.75,0,0,1-.48.06,1.64,1.64,0,0,1-.65-.13,1.58,1.58,0,0,1-.58-.38,1.9,1.9,0,0,1-.4-.61,2.1,2.1,0,0,1-.15-.82,2.16,2.16,0,0,1,.15-.83,2,2,0,0,1,.4-.61,1.58,1.58,0,0,1,.58-.38,1.65,1.65,0,0,1,.65-.14,1.43,1.43,0,0,1,.48.07,1.39,1.39,0,0,1,.39.17,2,2,0,0,1,.32.25,2.42,2.42,0,0,1,.25.31v-2.26h.56v5.28Zm-.09-2.46a1.49,1.49,0,0,0-.31-.46,1.42,1.42,0,0,0-.43-.29,1.24,1.24,0,0,0-.5-.1,1.27,1.27,0,0,0-.52.1,1.07,1.07,0,0,0-.41.28,1.29,1.29,0,0,0-.29.45,1.66,1.66,0,0,0-.1.61,1.64,1.64,0,0,0,.1.6,1.56,1.56,0,0,0,.29.46,1.37,1.37,0,0,0,.42.29,1.45,1.45,0,0,0,.51.1,1.38,1.38,0,0,0,.93-.4,1.38,1.38,0,0,0,.31-.46,1.64,1.64,0,0,0,0-1.18Z"/><path class="cls-12" d="M37,310.5a1.45,1.45,0,0,1-.43.52,1.87,1.87,0,0,1-.63.32,2.76,2.76,0,0,1-.77.1H33.94v1.79h-.57v-5.07h1.9a2.35,2.35,0,0,1,.77.12,1.69,1.69,0,0,1,.61.32,1.36,1.36,0,0,1,.38.5,1.65,1.65,0,0,1,.13.68A1.5,1.5,0,0,1,37,310.5ZM36.22,309a1.66,1.66,0,0,0-1-.28H33.94v2.23H35.2a1.79,1.79,0,0,0,.57-.08,1.23,1.23,0,0,0,.44-.23.87.87,0,0,0,.28-.35,1,1,0,0,0,.1-.46A1,1,0,0,0,36.22,309Z"/><path class="cls-12" d="M38.79,310a2.62,2.62,0,0,0-.53.2l-.17-.46a4,4,0,0,1,.63-.23,3.2,3.2,0,0,1,.73-.08,1.69,1.69,0,0,1,1.18.38,1.43,1.43,0,0,1,.41,1.12v2.29h-.53v-.56a1.83,1.83,0,0,1-.53.45,1.59,1.59,0,0,1-.83.19,1.79,1.79,0,0,1-.51-.07,1.57,1.57,0,0,1-.45-.22,1.12,1.12,0,0,1-.31-.37,1,1,0,0,1-.12-.51,1.14,1.14,0,0,1,.11-.53,1.19,1.19,0,0,1,.33-.38,1.71,1.71,0,0,1,.51-.23,2.57,2.57,0,0,1,.65-.08A3.83,3.83,0,0,1,40,311a3.21,3.21,0,0,1,.52.11V311a.94.94,0,0,0-.3-.76,1.2,1.2,0,0,0-.82-.26A2.23,2.23,0,0,0,38.79,310Zm-.18,1.54a.67.67,0,0,0-.28.57.68.68,0,0,0,.07.32.66.66,0,0,0,.21.23.85.85,0,0,0,.3.15,1.36,1.36,0,0,0,.36.05,1.51,1.51,0,0,0,.48-.08,1.27,1.27,0,0,0,.4-.21,1.14,1.14,0,0,0,.27-.31,1,1,0,0,0,.09-.41v-.37l-.48-.1a2.84,2.84,0,0,0-.61-.05A1.28,1.28,0,0,0,38.61,311.55Z"/><path class="cls-12" d="M44.86,309.49h.6l-1.63,3.77h-.49l-1.62-3.77h.61l1.26,3.11Z"/><path class="cls-12" d="M46.6,312.11a1.31,1.31,0,0,0,.3.39,1.33,1.33,0,0,0,.41.25,1.19,1.19,0,0,0,.47.08,1.41,1.41,0,0,0,.67-.14,2.6,2.6,0,0,0,.51-.38l.34.31a2.4,2.4,0,0,1-.64.51,2,2,0,0,1-.9.19,1.85,1.85,0,0,1-1.32-.54,1.89,1.89,0,0,1-.4-.62,2.07,2.07,0,0,1-.15-.8,2.13,2.13,0,0,1,.13-.76,1.83,1.83,0,0,1,.37-.62,1.69,1.69,0,0,1,.57-.42,1.72,1.72,0,0,1,.72-.15,1.61,1.61,0,0,1,.74.16A1.52,1.52,0,0,1,49,310a1.91,1.91,0,0,1,.34.63,2.43,2.43,0,0,1,.12.77v.08s0,.06,0,.1h-3A1.78,1.78,0,0,0,46.6,312.11Zm2.25-1a1.58,1.58,0,0,0-.1-.48,1.5,1.5,0,0,0-.23-.41,1.22,1.22,0,0,0-.36-.27,1.1,1.1,0,0,0-.49-.11,1,1,0,0,0-.46.1,1,1,0,0,0-.36.27,1.11,1.11,0,0,0-.26.4,1.6,1.6,0,0,0-.13.5Z"/><path class="cls-12" d="M53.6,309.87a1,1,0,0,1,.29-.24,1.25,1.25,0,0,1,.35-.16,1.63,1.63,0,0,1,.45-.06,1.32,1.32,0,0,1,1,.4,1.57,1.57,0,0,1,.37,1.11v2.31h-.56v-2.18a1.22,1.22,0,0,0-.25-.84.9.9,0,0,0-.72-.29,1.09,1.09,0,0,0-.4.07,1,1,0,0,0-.33.23,1.2,1.2,0,0,0-.3.85v2.16H53V311a1.2,1.2,0,0,0-.26-.82.88.88,0,0,0-.71-.29.94.94,0,0,0-.41.08,1.11,1.11,0,0,0-.33.25,1.25,1.25,0,0,0-.22.37,1.42,1.42,0,0,0-.08.48v2.13H50.4v-3.74H51v.63a2.47,2.47,0,0,1,.21-.27,1.37,1.37,0,0,1,.25-.23,1.66,1.66,0,0,1,.33-.15,1.33,1.33,0,0,1,.42-.06,1.26,1.26,0,0,1,.75.21,1.42,1.42,0,0,1,.45.53A3.11,3.11,0,0,1,53.6,309.87Z"/><path class="cls-12" d="M57.77,312.11a1.31,1.31,0,0,0,.3.39,1.33,1.33,0,0,0,.41.25,1.22,1.22,0,0,0,.47.08,1.41,1.41,0,0,0,.67-.14,2.6,2.6,0,0,0,.51-.38l.34.31a2.25,2.25,0,0,1-.64.51,2,2,0,0,1-.9.19,2,2,0,0,1-.72-.14,1.79,1.79,0,0,1-1-1,2.07,2.07,0,0,1-.15-.8,2.13,2.13,0,0,1,.13-.76,1.83,1.83,0,0,1,.37-.62,1.69,1.69,0,0,1,.57-.42,1.72,1.72,0,0,1,.72-.15,1.61,1.61,0,0,1,.74.16,1.52,1.52,0,0,1,.55.42,1.91,1.91,0,0,1,.34.63,2.43,2.43,0,0,1,.12.77v.08s0,.06,0,.1h-3A1.78,1.78,0,0,0,57.77,312.11Zm2.26-1a2,2,0,0,0-.11-.48,1.27,1.27,0,0,0-.23-.41,1.22,1.22,0,0,0-.36-.27,1.1,1.1,0,0,0-.49-.11,1,1,0,0,0-.46.1,1,1,0,0,0-.36.27,1.26,1.26,0,0,0-.26.4,1.6,1.6,0,0,0-.13.5Z"/><path class="cls-12" d="M62.13,313.23h-.56v-3.74h.56v.65a2,2,0,0,1,.49-.52,1.39,1.39,0,0,1,.79-.21,1.66,1.66,0,0,1,.61.11,1.25,1.25,0,0,1,.45.31,1.47,1.47,0,0,1,.28.47,2,2,0,0,1,.1.61v2.32h-.56v-2.18a1.2,1.2,0,0,0-.27-.83,1,1,0,0,0-.77-.3,1.08,1.08,0,0,0-.44.08,1,1,0,0,0-.36.24,1.18,1.18,0,0,0-.24.37,1.51,1.51,0,0,0-.08.48Z"/><path class="cls-12" d="M66.79,312.17a.56.56,0,0,0,.17.48.74.74,0,0,0,.46.14l.27,0a1.3,1.3,0,0,0,.27-.1v.48a1.66,1.66,0,0,1-.31.12,2,2,0,0,1-.36,0,1.42,1.42,0,0,1-.42-.06.81.81,0,0,1-.34-.19.83.83,0,0,1-.22-.32,1.44,1.44,0,0,1-.08-.49V310h-.52v-.49h.52v-1.13h.56v1.13H68V310H66.79Z"/><path class="cls-12" d="M73.14,313.23h-.58v-4.54h-1.7v-.53h4v.53h-1.7Z"/><path class="cls-12" d="M75.39,312.11a1.14,1.14,0,0,0,.29.39,1.33,1.33,0,0,0,.41.25,1.26,1.26,0,0,0,.47.08,1.41,1.41,0,0,0,.67-.14,2.12,2.12,0,0,0,.51-.38l.35.31a2.44,2.44,0,0,1-.65.51,2.08,2.08,0,0,1-1.62.05,1.87,1.87,0,0,1-.59-.4,1.92,1.92,0,0,1-.41-.62,2.07,2.07,0,0,1-.15-.8,2.13,2.13,0,0,1,.13-.76,1.85,1.85,0,0,1,.38-.62,1.69,1.69,0,0,1,1.29-.57,1.57,1.57,0,0,1,.73.16,1.52,1.52,0,0,1,.55.42,1.75,1.75,0,0,1,.34.63,2.43,2.43,0,0,1,.12.77v.08a.38.38,0,0,1,0,.1h-3A1.54,1.54,0,0,0,75.39,312.11Zm2.25-1a2,2,0,0,0-.11-.48,1.27,1.27,0,0,0-.23-.41,1,1,0,0,0-.36-.27,1.07,1.07,0,0,0-.49-.11,1,1,0,0,0-.45.1,1.07,1.07,0,0,0-.37.27,1.46,1.46,0,0,0-.26.4,1.6,1.6,0,0,0-.13.5Z"/><path class="cls-12" d="M81.76,313.11a1.71,1.71,0,0,1-.88.21,1.8,1.8,0,0,1-.77-.16,1.85,1.85,0,0,1-.61-.42,1.89,1.89,0,0,1-.4-.62,1.86,1.86,0,0,1-.14-.75,2,2,0,0,1,.14-.76,2.13,2.13,0,0,1,.4-.62,1.85,1.85,0,0,1,.61-.42,1.8,1.8,0,0,1,.77-.16,2.36,2.36,0,0,1,.48,0,1.72,1.72,0,0,1,.4.14,1.46,1.46,0,0,1,.33.22,1.73,1.73,0,0,1,.28.26l-.37.39a2.55,2.55,0,0,0-.48-.4,1.23,1.23,0,0,0-.65-.17,1.32,1.32,0,0,0-.53.11,1.35,1.35,0,0,0-.43.31,1.58,1.58,0,0,0-.28.47,1.47,1.47,0,0,0-.1.56,1.5,1.5,0,0,0,.39,1,1.35,1.35,0,0,0,.44.31,1.22,1.22,0,0,0,.54.11,1.19,1.19,0,0,0,.64-.16,2,2,0,0,0,.51-.4l.35.34A2.44,2.44,0,0,1,81.76,313.11Z"/><path class="cls-12" d="M83.88,313.23h-.56V308h.56v2.19a1.86,1.86,0,0,1,.49-.52,1.36,1.36,0,0,1,.79-.21,1.66,1.66,0,0,1,.61.11,1.14,1.14,0,0,1,.44.31,1.33,1.33,0,0,1,.29.47,2,2,0,0,1,.09.61v2.32H86v-2.18a1.2,1.2,0,0,0-.27-.83,1,1,0,0,0-.77-.3,1,1,0,0,0-.44.08,1,1,0,0,0-.36.24,1.18,1.18,0,0,0-.24.37,1.51,1.51,0,0,0-.08.48Z"/><path class="cls-12" d="M88.34,313.23h-.56v-3.74h.56v.65a1.86,1.86,0,0,1,.49-.52,1.36,1.36,0,0,1,.79-.21,1.57,1.57,0,0,1,.6.11,1.1,1.1,0,0,1,.45.31,1.33,1.33,0,0,1,.29.47,2,2,0,0,1,.09.61v2.32H90.5v-2.18a1.2,1.2,0,0,0-.27-.83,1,1,0,0,0-.77-.3A1,1,0,0,0,89,310a1,1,0,0,0-.36.24,1.18,1.18,0,0,0-.24.37,1.51,1.51,0,0,0-.08.48Z"/><path class="cls-12" d="M95.76,312.11a1.91,1.91,0,0,1-.41.63,1.79,1.79,0,0,1-.62.42,1.95,1.95,0,0,1-2.17-.42,1.92,1.92,0,0,1-.41-.62,2,2,0,0,1-.14-.75,1.9,1.9,0,0,1,.55-1.38,1.79,1.79,0,0,1,.62-.42,2,2,0,0,1,1.56,0,1.79,1.79,0,0,1,.62.42,2,2,0,0,1,.41.61,2.14,2.14,0,0,1,.14.76A1.93,1.93,0,0,1,95.76,312.11Zm-.53-1.31a1.33,1.33,0,0,0-.29-.47,1.39,1.39,0,0,0-1-.43,1.47,1.47,0,0,0-.56.11,1.35,1.35,0,0,0-.43.31,1.58,1.58,0,0,0-.28.47,1.47,1.47,0,0,0-.1.56,1.48,1.48,0,0,0,.11.57,1.33,1.33,0,0,0,.29.47,1.35,1.35,0,0,0,.43.31,1.46,1.46,0,0,0,.55.11,1.27,1.27,0,0,0,.56-.11,1.35,1.35,0,0,0,.44-.31,1.48,1.48,0,0,0,.28-.45,1.6,1.6,0,0,0,0-1.14Z"/><path class="cls-12" d="M97,313.23V308h.56v5.28Z"/><path class="cls-12" d="M102.34,312.11a1.91,1.91,0,0,1-.41.63,1.79,1.79,0,0,1-.62.42,1.85,1.85,0,0,1-.78.16,1.77,1.77,0,0,1-.77-.16,1.79,1.79,0,0,1-.62-.42,1.92,1.92,0,0,1-.41-.62,2,2,0,0,1-.14-.75,1.9,1.9,0,0,1,.55-1.38,1.79,1.79,0,0,1,.62-.42,2,2,0,0,1,1.56,0,1.79,1.79,0,0,1,.62.42,1.82,1.82,0,0,1,.41.61,2.14,2.14,0,0,1,.14.76A1.93,1.93,0,0,1,102.34,312.11Zm-.53-1.31a1.2,1.2,0,0,0-.29-.47,1.39,1.39,0,0,0-1-.43,1.47,1.47,0,0,0-.56.11,1.35,1.35,0,0,0-.43.31,1.58,1.58,0,0,0-.28.47,1.69,1.69,0,0,0-.1.56,1.48,1.48,0,0,0,.11.57,1.33,1.33,0,0,0,.29.47,1.48,1.48,0,0,0,.43.31,1.46,1.46,0,0,0,.55.11,1.27,1.27,0,0,0,.56-.11,1.25,1.25,0,0,0,.44-.31,1.48,1.48,0,0,0,.28-.45,1.6,1.6,0,0,0,0-1.14Z"/><path class="cls-12" d="M106.93,313.38a1.6,1.6,0,0,1-1,.91,2.37,2.37,0,0,1-.78.11,3.26,3.26,0,0,1-.9-.12,2.91,2.91,0,0,1-.81-.4l.26-.43a2.74,2.74,0,0,0,.68.35,2.13,2.13,0,0,0,.76.13,1.4,1.4,0,0,0,1-.34,1.26,1.26,0,0,0,.37-1v-.45a2.14,2.14,0,0,1-.6.56,1.61,1.61,0,0,1-.87.23,1.84,1.84,0,0,1-.66-.12,1.79,1.79,0,0,1-.56-.34,1.87,1.87,0,0,1-.39-.56,1.75,1.75,0,0,1-.15-.74,1.78,1.78,0,0,1,.15-.74,1.65,1.65,0,0,1,1-.91,1.82,1.82,0,0,1,.65-.12,1.86,1.86,0,0,1,.48.06,2.09,2.09,0,0,1,.4.16,1.57,1.57,0,0,1,.32.24,1.75,1.75,0,0,1,.26.29v-.67h.56v3.09A2.2,2.2,0,0,1,106.93,313.38Zm-.52-2.73a1.23,1.23,0,0,0-.31-.4,1.39,1.39,0,0,0-.44-.26,1.44,1.44,0,0,0-.51-.09,1.35,1.35,0,0,0-.5.09,1.16,1.16,0,0,0-.7.65,1.51,1.51,0,0,0-.1.53,1.24,1.24,0,0,0,.11.52,1.2,1.2,0,0,0,.28.41,1.36,1.36,0,0,0,.41.26,1.43,1.43,0,0,0,.5.09,1.44,1.44,0,0,0,.51-.09,1.39,1.39,0,0,0,.44-.26,1.23,1.23,0,0,0,.31-.4,1.13,1.13,0,0,0,.11-.52A1.14,1.14,0,0,0,106.41,310.65Z"/><path class="cls-12" d="M110.13,313.36a2.14,2.14,0,0,1-.53.81,1.12,1.12,0,0,1-.72.24,1.42,1.42,0,0,1-.42-.05,1.4,1.4,0,0,1-.37-.14l.19-.44a1,1,0,0,0,.27.11,1.42,1.42,0,0,0,.31,0,.64.64,0,0,0,.43-.15,1.49,1.49,0,0,0,.34-.55l-1.7-3.73h.61l1.37,3.12,1.2-3.12h.59Z"/><path class="cls-12" d="M115.61,308.82a2.78,2.78,0,0,0-.62.65l-.42-.31a4.43,4.43,0,0,1,.36-.45,1.76,1.76,0,0,1,.39-.34,2.06,2.06,0,0,1,.48-.21,2.74,2.74,0,0,1,.6-.07,1.81,1.81,0,0,1,.63.11,1.48,1.48,0,0,1,.5.3,1.23,1.23,0,0,1,.32.46,1.32,1.32,0,0,1,.12.57,1.72,1.72,0,0,1-.08.52,2.19,2.19,0,0,1-.23.46,4,4,0,0,1-.4.47c-.16.16-.35.34-.57.53l-1.36,1.2H118v.52h-3.54v-.44l1.84-1.62c.19-.18.36-.34.49-.48a2.64,2.64,0,0,0,.33-.39,1,1,0,0,0,.18-.36,1.15,1.15,0,0,0,.06-.37.87.87,0,0,0-.09-.4,1,1,0,0,0-.22-.31.94.94,0,0,0-.32-.19,1.07,1.07,0,0,0-.39-.07A1.25,1.25,0,0,0,115.61,308.82Z"/><path class="cls-12" d="M123,311.7a2.57,2.57,0,0,1-.43.84,2,2,0,0,1-.67.57,1.89,1.89,0,0,1-.89.21,1.84,1.84,0,0,1-.88-.21,1.93,1.93,0,0,1-.68-.56,2.82,2.82,0,0,1-.42-.83,3.51,3.51,0,0,1,0-2,2.42,2.42,0,0,1,.43-.83,2.07,2.07,0,0,1,.68-.57,1.86,1.86,0,0,1,.89-.21,2,2,0,0,1,.88.2,2,2,0,0,1,.67.57,2.52,2.52,0,0,1,.43.83,3.33,3.33,0,0,1,.15,1A3,3,0,0,1,123,311.7Zm-.55-1.79a2,2,0,0,0-.31-.67,1.47,1.47,0,0,0-.49-.47,1.25,1.25,0,0,0-.64-.17,1.28,1.28,0,0,0-.64.17,1.4,1.4,0,0,0-.48.46,2.23,2.23,0,0,0-.31.66,3,3,0,0,0,0,1.6,2.24,2.24,0,0,0,.31.68,1.78,1.78,0,0,0,.49.46,1.31,1.31,0,0,0,.65.17,1.28,1.28,0,0,0,.64-.17,1.62,1.62,0,0,0,.48-.46,2,2,0,0,0,.31-.66,3,3,0,0,0,.1-.8A2.62,2.62,0,0,0,122.49,309.91Z"/><path class="cls-12" d="M125.05,308.82a2.78,2.78,0,0,0-.62.65l-.42-.31a4.43,4.43,0,0,1,.36-.45,1.76,1.76,0,0,1,.39-.34,2.06,2.06,0,0,1,.48-.21,2.74,2.74,0,0,1,.6-.07,1.81,1.81,0,0,1,.63.11,1.48,1.48,0,0,1,.5.3,1.23,1.23,0,0,1,.32.46,1.32,1.32,0,0,1,.12.57,1.72,1.72,0,0,1-.08.52,1.8,1.8,0,0,1-.23.46,4,4,0,0,1-.4.47c-.16.16-.35.34-.57.53l-1.36,1.2h2.69v.52h-3.54v-.44l1.84-1.62c.19-.18.36-.34.49-.48a2.64,2.64,0,0,0,.33-.39,1,1,0,0,0,.18-.36,1.15,1.15,0,0,0,.06-.37.87.87,0,0,0-.09-.4,1,1,0,0,0-.22-.31.94.94,0,0,0-.32-.19,1.07,1.07,0,0,0-.39-.07A1.25,1.25,0,0,0,125.05,308.82Z"/><path class="cls-12" d="M128.77,308.16h2.91v.53h-2.41l-.11,1.62a4,4,0,0,1,.45-.16,2.26,2.26,0,0,1,.55-.06,2.17,2.17,0,0,1,.69.11,1.49,1.49,0,0,1,.55.31,1.24,1.24,0,0,1,.37.48,1.56,1.56,0,0,1,.14.66,1.65,1.65,0,0,1-.14.68,1.41,1.41,0,0,1-.37.53,1.47,1.47,0,0,1-.57.34,2.11,2.11,0,0,1-.73.12,2.26,2.26,0,0,1-1-.23,3,3,0,0,1-.81-.57l.38-.42a2.67,2.67,0,0,0,.69.51,1.55,1.55,0,0,0,.75.19,1.39,1.39,0,0,0,.5-.09,1,1,0,0,0,.38-.23,1,1,0,0,0,.25-.36,1.13,1.13,0,0,0,.09-.45,1,1,0,0,0-.09-.44.9.9,0,0,0-.25-.33,1.11,1.11,0,0,0-.4-.22,1.46,1.46,0,0,0-.52-.08,1.77,1.77,0,0,0-.58.08,2.58,2.58,0,0,0-.48.21l-.38-.26Z"/></g></g></svg>