<svg xmlns="http://www.w3.org/2000/svg" xmlns:xlink="http://www.w3.org/1999/xlink" viewBox="0 0 215.24 314.41"><defs><style>.cls-1{fill:#686aad;}.cls-2{fill:#f8ac1f;}.cls-3{fill:url(#linear-gradient);}.cls-4{fill:url(#linear-gradient-2);}.cls-5{fill:#5c181e;}</style><linearGradient id="linear-gradient" x1="181.33" y1="-11.51" x2="94.02" y2="67.07" gradientUnits="userSpaceOnUse"><stop offset="0.1" stop-color="#d3b8b1"/><stop offset="0.52" stop-color="#8b4b44"/><stop offset="1" stop-color="#691018"/></linearGradient><linearGradient id="linear-gradient-2" x1="227.58" y1="39.88" x2="140.27" y2="118.46" xlink:href="#linear-gradient"/></defs><g id="Layer_2" data-name="Layer 2"><g id="Layer_1-2" data-name="Layer 1"><path class="cls-1" d="M149.65,168.48h0a2.15,2.15,0,0,0,3.16,0c4-4.3,14.08-16.76,14.43-33.92a44.46,44.46,0,0,0-1.36-11.89c-.35-1.41-.77-2.79-1.25-4.19A54.93,54.93,0,0,0,162.4,113a50.85,50.85,0,0,0-2.43-4.52,23.13,23.13,0,0,1-4.28,1.2c.85,1.41,1.64,2.83,2.35,4.26.19.42.41.81.61,1.23.66,1.43,1.27,2.83,1.78,4.26a41.7,41.7,0,0,1,2.54,15c-.31,15.65-9.74,27.32-13.32,31.18A2.11,2.11,0,0,0,149.65,168.48Z"/><path class="cls-2" d="M117.59,230.38h0a2.14,2.14,0,0,0,2.13-2.11c.83-50,31.15-49,39.05-50.57a2.11,2.11,0,0,0,1.7-2.25h0a2.13,2.13,0,0,0-2.55-1.92c-9.12,1.86-41.63,2-42.51,54.67A2.17,2.17,0,0,0,117.59,230.38Z"/><path class="cls-1" d="M107.4,191.29h0a2.09,2.09,0,0,0,.18-2.82,20.38,20.38,0,0,1-3.1-21.25c3.27-7.81,10.51-12.86,18.45-12.86,17.29,0,25.1-19.08,27.28-25.66A2.13,2.13,0,0,0,148.7,126h0a2.14,2.14,0,0,0-2.57,1.38c-1.94,5.76-8.89,22.74-23.17,22.74-9.69,0-18.5,6.08-22.43,15.5a24.48,24.48,0,0,0,3.67,25.5A2.2,2.2,0,0,0,107.4,191.29Z"/><path class="cls-2" d="M48.32,240.61h.09a2.09,2.09,0,0,0,2.09-2.07c.86-49.45,32.28-59.13,40.53-60.82a2.09,2.09,0,0,0,1.69-2.28v-.06a2.09,2.09,0,0,0-2.53-1.81c-9.19,2.06-43.08,13.15-44,64.91A2.12,2.12,0,0,0,48.32,240.61Z"/><path class="cls-1" d="M60.14,240.73a2.13,2.13,0,0,0,1.53-.62c19.48-19.18,28.3-18.82,33.78-17.42,6.52,1.67,8.06,6.84,8.57,10.95a2.15,2.15,0,0,0,2.22,1.87h0a2.17,2.17,0,0,0,2.06-2.44c-.61-4.92-3.19-12.23-11.27-14.35-9.17-2.41-22.51,3.54-38.28,18.33a2.13,2.13,0,0,0,1.39,3.68Z"/><path class="cls-1" d="M172.89,73.62a73.1,73.1,0,0,0,2-11.57c.2-2.23,2.33-4.66,3.6-6.41.32-.44.47-.39.43.15l0,.43a.33.33,0,0,0,.31.35h14.86a.31.31,0,0,0,.32-.31v0A37,37,0,0,0,190.14,41a.18.18,0,0,1,0-.22l2.46-2.84a.14.14,0,0,1,.18,0l0,0c11.76,21.16,3.6,47.62-18.58,57.71-11.1,5-24.51,5.14-35.52-.75a.32.32,0,0,1-.13-.43h0c10.83-18.88,25.51-35.78,41.13-51.3a218.89,218.89,0,0,1,26.8-22.77.12.12,0,0,1,.17,0l.11.13s0,0,0,0c-16.11,16-29.45,32-40.22,51q-6.32,11.18-11.76,22.73a.27.27,0,0,0,.15.41,4.87,4.87,0,0,0,4.77-.56c6-3.52,9.84-10,11.88-16.46a.27.27,0,0,0-.24-.4L166,76.19c-.11,0-.14-.09-.08-.18l1.67-3a.31.31,0,0,1,.38-.18l4.59,1A.28.28,0,0,0,172.89,73.62Zm14,7.29a37.06,37.06,0,0,0,7.48-20.36c0-.23-.1-.34-.33-.34H179.17a.26.26,0,0,0-.3.28A76.89,76.89,0,0,1,176.54,75a.28.28,0,0,0,.2.37A32.7,32.7,0,0,1,186.45,81,.27.27,0,0,0,186.89,80.91ZM175.3,79.06c-2.12,5.82-4.86,11-9.35,15.18-.47.43-.4.57.22.41a37.3,37.3,0,0,0,17.89-10.4.3.3,0,0,0,0-.43l0,0a29.81,29.81,0,0,0-8.33-4.93A.27.27,0,0,0,175.3,79.06Z"/><path class="cls-2" d="M198,20.3a3.72,3.72,0,0,1-2.94.26c-.17,0-.18-.12,0-.22a59.41,59.41,0,0,1,10.7-5.92.4.4,0,0,1,.3,0c.2.07.22.17,0,.3Q200.35,18.88,198,20.3Z"/><path class="cls-2" d="M164.56,22l3.26,3a.15.15,0,0,1,0,.21.05.05,0,0,1,0,0l-3.15,1.59a.18.18,0,0,1-.2,0l-4.73-3.85a.27.27,0,0,0-.37,0,.23.23,0,0,0-.06.16v6.14a.22.22,0,0,1-.12.2l-3.65,1.83a.14.14,0,0,1-.19-.06.14.14,0,0,1,0-.07l0-8.45a.31.31,0,0,0-.3-.3.3.3,0,0,0-.16.05A31.15,31.15,0,0,0,142.3,37.81a.87.87,0,0,1-.44.48l-4.37,2.33a.76.76,0,0,1-.59.06,29.59,29.59,0,0,1-9.13-4.46.27.27,0,0,0-.43.07,37.66,37.66,0,0,0-6.61,15.4c0,.22,0,.27.22.16a618.52,618.52,0,0,1,60.39-31q4.23-1.87,8.6-3.41c.05,0,.09,0,.09,0v.23a.2.2,0,0,1-.11.19c-25.75,13.35-50.76,29.74-72.33,49.73-.15.14-.25.11-.29-.09-7.22-33.93,26.49-60.33,57.88-46a.16.16,0,0,1,.09.22.2.2,0,0,1-.09.09l-3.78,1.77a.81.81,0,0,1-.63,0,38,38,0,0,0-6.09-1.81C164.36,21.69,164.31,21.77,164.56,22Zm-16.08.09A36.85,36.85,0,0,0,130.08,33a.29.29,0,0,0,0,.4h0a27.37,27.37,0,0,0,8.07,3.89.21.21,0,0,0,.25-.12,37,37,0,0,1,10.21-14.74C149,22.07,149,22,148.48,22.08Z"/><path class="cls-2" d="M173.64,34.38c4.28-3.2,9-6.13,13.48-9.14,3-2.07,4.19-3.22,7.29-2.91.19,0,.21.09.06.2q-6.5,5.13-13.09,10.12a8.7,8.7,0,0,1-7.7,1.93.1.1,0,0,1-.08-.13A.1.1,0,0,1,173.64,34.38Z"/><path class="cls-2" d="M168.16,37.42c1.65-1.27,5.64-.93,7.58-.8a.16.16,0,0,1,.15.17.24.24,0,0,1-.06.11l-12,10.53a1.57,1.57,0,0,1-1.08.4l-7.27,0c-.45,0-.49-.14-.14-.41Z"/><path class="cls-2" d="M144.29,67.85a.82.82,0,0,1-.43.12H133a.23.23,0,0,1-.23-.24.28.28,0,0,1,.07-.17q8.33-7.81,16.63-16a4.61,4.61,0,0,1,3.26-1.43l7.65,0a.16.16,0,0,1,.16.18.15.15,0,0,1,0,.11Q152.92,58.67,145.36,67A4.52,4.52,0,0,1,144.29,67.85Z"/><path class="cls-2" d="M131.52,87.6a46.81,46.81,0,0,1-3.61,5,1,1,0,0,1-.71.32l-14.7-.06a.16.16,0,0,1-.16-.16.21.21,0,0,1,0-.1l16.38-20.76a.42.42,0,0,1,.35-.16l12.1.48a.17.17,0,0,1,.16.17.16.16,0,0,1,0,.09Q136.38,79.93,131.52,87.6Z"/><path class="cls-3" d="M180.59,17.52c1.33-.51,2.95-1.13,4.86-1.81a40,40,0,0,0-5.3-3.09c-.46-.22-.62-.49-.37-1,.16-.29.2-.65.34-1,.87-1.85.33-3.76.24-5.65,0-.22-.41-.53-.68-.62-2.5-.86-5-1.68-7.53-2.51a14.9,14.9,0,0,1-1.54-.55.88.88,0,0,0-1.19.3c-.77.92-1.61,1.78-2.36,2.72a4.09,4.09,0,0,0-.48,1.22c-.24.72-.47,1.44-.66,2.05l-10.64-.79A10.63,10.63,0,0,1,155,5.27c-.06-1.66-1.05-2.88-1.88-4.18C153.09,1,153,1,153,1c-.37-1.14-1.17-1-2.11-.83-2.86.57-5.73,1.07-8.61,1.57-.55.09-.88.25-1,.89-.17,1.1-.59,2.16-.7,3.26a9.63,9.63,0,0,0,.31,2.48c.27,1.45.26,1.1-1,1.6-2.22.88-4.4,1.85-6.58,2.82-.8.36-1.56.81-2.33,1.22a27.63,27.63,0,0,0-2-2.55,7.07,7.07,0,0,0-1.69-1.05c-.64-.36-1.29-.7-2-1a.85.85,0,0,0-.7.05c-2.15,1.68-4.29,3.39-6.43,5.09l-1,.76-.9.89c.29.9.54,1.8.86,2.68a10.68,10.68,0,0,0,.89,2.05,21,21,0,0,0,1.53,1.95L113.25,31a9.27,9.27,0,0,0-5.61-1.45,3.76,3.76,0,0,1-1.06,0c-.53-.08-.76.2-.93.63s-.45,1-.68,1.55c-1.1,2.47-2.19,4.95-3.31,7.41a.61.61,0,0,0,.13.78c.79.84,1.55,1.72,2.35,2.56a2.34,2.34,0,0,0,.66.45l2.55,1.22c-.52,3-1,5.88-1.5,8.76-.15.89-.11.87-1,.92a9.84,9.84,0,0,0-2.62.27,26.66,26.66,0,0,0-3.45,1.66.76.76,0,0,0-.32.56q.21,4.32.48,8.63c0,.67,0,1.5.32,1.93s1.23.45,1.83.75a7.83,7.83,0,0,0,4.79.58l.63-.08a50.36,50.36,0,0,0,1.63,6.23l3.82-3.4a47,47,0,0,1,68.66-53.41Z"/><path class="cls-4" d="M135.27,99.93c18,9.5,40.65,6.45,55.15-8.28a46.91,46.91,0,0,0,7.11-57.58c.78-.87,1.74-1.94,2.82-3.11A50.79,50.79,0,0,1,203,35.75c.08.16.2.31.34.54.77-.26,1.53-.56,2.31-.79a4.09,4.09,0,0,1,1.29-.17c1.08.05,2.14.19,3.22.26a.73.73,0,0,1,.77.62c1,3.11,2,6.22,3.09,9.31a.83.83,0,0,1-.31,1.07c-.78.62-1.45,1.38-2.26,1.92a10.68,10.68,0,0,1-2.33,1.06c-1.43.51-1.48.49-1.3,2a49.88,49.88,0,0,1,.45,8.37c0,.4.11.58.51.61s.71.18,1.06.18a6.81,6.81,0,0,1,3.76,1.58,7.79,7.79,0,0,0,1.21.78c.48.21.44.52.38.92-.59,3.31-1.16,6.62-1.76,9.92a.58.58,0,0,1-.36.4,35.39,35.39,0,0,1-3.81.82,7.2,7.2,0,0,1-2.18-.27c-1.32-.25-1.24-.23-1.77,1-1.16,2.64-2.4,5.25-3.64,7.86-.16.35-.2.58.13.8.12.09.2.24.32.31,2,1.07,2.79,3.06,3.81,4.88a.68.68,0,0,1-.09.89c-1,1.17-1.9,2.4-2.85,3.61-1.12,1.42-2.25,2.83-3.36,4.26a.61.61,0,0,1-.74.25c-1.14-.31-2.3-.55-3.4-1a9.59,9.59,0,0,1-1.82-1.21c-.08-.06-.15-.14-.23-.21-.88-.82-.85-.77-1.76,0-1.51,1.28-3.06,2.51-4.62,3.72-.71.55-1.5,1-2.22,1.53a.61.61,0,0,0-.16.56,6.45,6.45,0,0,0,.56,1.26A7.24,7.24,0,0,1,186,107c0,2.77.53,2-2,3.25s-5,2.26-7.42,3.42a.65.65,0,0,1-.84-.1A28.59,28.59,0,0,1,173,111a12.37,12.37,0,0,1-1.41-2.73c-.19-.4-.34-.51-.8-.41-2.87.63-5.74,1.22-8.68,1.84a13.47,13.47,0,0,0,0,1.83c.16,1.45-.65,2.58-1.17,3.79-.66,1.55-.69,1.55-2.38,1.49-2.93-.1-5.85-.23-8.78-.32a.72.72,0,0,1-.8-.6,7.47,7.47,0,0,0-.68-1.69,7.1,7.1,0,0,1-.53-4.42,1,1,0,0,0-.77-1s-10.6-2.88-13.7-5.56Z"/><path class="cls-2" d="M158.51,105.36c-.88-1.12-.86-1-1.76-2.1a7.69,7.69,0,0,0-5.85-3.14,6.9,6.9,0,0,0-2.18.35h0a13.57,13.57,0,0,0-3.8,2.85,14.11,14.11,0,0,0-1.09,1.36c-2.33,3.3-3.18,7.71-2.5,13.1a2.32,2.32,0,0,0,2.32,2l.27,0a2.36,2.36,0,0,0,2-2.61c-.09-.7-.16-1.36-.18-2a23.74,23.74,0,0,1,2-7.84,4.81,4.81,0,0,1,1.46-1.68,2.29,2.29,0,0,1,3.5.37S156.93,105.66,158.51,105.36Z"/><path class="cls-5" d="M3.64,291.05H0V250.13H3.64Z"/><path class="cls-5" d="M26.86,288.15a2.78,2.78,0,0,1-.84,2.09,2.92,2.92,0,0,1-2.12.81H13.36a2.78,2.78,0,0,1-2.9-2.9V253a2.78,2.78,0,0,1,2.9-2.9H23.9a2.92,2.92,0,0,1,2.12.81,2.78,2.78,0,0,1,.84,2.09v9.52H23.2v-9.2H14.09v34.49H23.2V277.77h3.66Z"/><path class="cls-5" d="M49.42,271.88a2.81,2.81,0,0,1-2.93,2.93H36.84v16.24H33.21V250.13H46.49a2.9,2.9,0,0,1,2.11.81,2.8,2.8,0,0,1,.82,2.09Zm-3.63-.31V253.35H36.84v18.22Z"/><path class="cls-5" d="M69.27,253.35H62.94v37.7H59.3v-37.7H52.92v-3.22H69.27Z"/><path class="cls-5" d="M99.23,291.05H83v-1.93l12.52-26v-9.75H87.18v9.2H83.52V253a2.78,2.78,0,0,1,2.9-2.9h9.86a2.78,2.78,0,0,1,2.9,2.9v8.68a8.43,8.43,0,0,1-1,3.59L87.39,287.84H99.23Z"/><path class="cls-5" d="M121.62,288.15a2.78,2.78,0,0,1-.84,2.09,2.94,2.94,0,0,1-2.12.81H107.81a2.78,2.78,0,0,1-2.9-2.9V253a2.78,2.78,0,0,1,2.9-2.9h10.85a2.94,2.94,0,0,1,2.12.81,2.78,2.78,0,0,1,.84,2.09Zm-3.64-.31V253.35h-9.44v34.49Z"/><path class="cls-5" d="M143.37,291.05H127.13v-1.93l12.53-26v-9.75h-8.35v9.2h-3.66V253a2.79,2.79,0,0,1,2.91-2.9h9.86a2.78,2.78,0,0,1,2.9,2.9v8.68a8.57,8.57,0,0,1-1,3.59l-10.83,22.54h11.85Z"/><path class="cls-5" d="M164.78,288.15a2.78,2.78,0,0,1-2.9,2.9H151.82a2.78,2.78,0,0,1-2.08-.81,2.83,2.83,0,0,1-.8-2.09V277.77h3.63v10.07h8.58V268.56H149l.47-18.43h15v3.22h-11.4l-.44,12h9.25a2.78,2.78,0,0,1,2.9,2.9Z"/><path class="cls-5" d="M140.93,235.4h-2.16V218.65h-.94v-.08l1.36-7.33h1.74Z"/><path class="cls-5" d="M154.36,229.1h-1.83v6.3h-2v-6.3h-6.82V228l5.85-16.77h2v.09L146,227.28h4.5v-8.77h2v8.77h1.83Z"/><path class="cls-5" d="M159.43,218.56h-1.38a.74.74,0,0,1-.83-.83v-5.46h-.86v-.86h.86v-2.22h1v2.22h1.25v.86h-1.25v5.43h1.25Z"/><path class="cls-5" d="M164.78,218.56h-1v-6.27l-2.15.06v6.21h-1V207.07h1v4.54l1.16-.14a8.46,8.46,0,0,1,1.15-.1.71.71,0,0,1,.81.8Z"/><path class="cls-5" d="M1.34,299.48v5.06H.77v-5.06Z"/><path class="cls-5" d="M3.29,304.54H2.73V300.8h.56v.65a1.7,1.7,0,0,1,.49-.51,1.28,1.28,0,0,1,.79-.22,1.6,1.6,0,0,1,.6.11,1.21,1.21,0,0,1,.45.31,1.31,1.31,0,0,1,.28.47,1.74,1.74,0,0,1,.1.61v2.32H5.44v-2.18a1.27,1.27,0,0,0-.26-.83,1,1,0,0,0-.77-.3,1.33,1.33,0,0,0-.45.08,1.41,1.41,0,0,0-.36.24,1.16,1.16,0,0,0-.23.37,1.27,1.27,0,0,0-.08.48Z"/><path class="cls-5" d="M7.94,303.48a.6.6,0,0,0,.18.49.69.69,0,0,0,.45.13,1.12,1.12,0,0,0,.27,0,1,1,0,0,0,.27-.1v.48a1.57,1.57,0,0,1-.3.12,1.4,1.4,0,0,1-.37,0,1.42,1.42,0,0,1-.42-.06,1,1,0,0,1-.34-.18,1.12,1.12,0,0,1-.22-.33,1.44,1.44,0,0,1-.08-.49v-2.26H6.86v-.49h.52v-1.13h.56v1.13H9.13v.49H7.94Z"/><path class="cls-5" d="M10.49,303.42a1.35,1.35,0,0,0,.3.4,1.1,1.1,0,0,0,.4.24,1.27,1.27,0,0,0,.47.09,1.38,1.38,0,0,0,.67-.15,1.89,1.89,0,0,0,.51-.38l.35.31a2.4,2.4,0,0,1-.64.51,1.9,1.9,0,0,1-.9.19,2,2,0,0,1-.73-.14,1.81,1.81,0,0,1-.59-.4,1.92,1.92,0,0,1-.41-.62,2,2,0,0,1-.15-.79,2.19,2.19,0,0,1,.14-.77,1.93,1.93,0,0,1,.37-.62,1.83,1.83,0,0,1,.57-.42,1.72,1.72,0,0,1,.72-.15,1.64,1.64,0,0,1,.74.16,1.62,1.62,0,0,1,.55.42,1.91,1.91,0,0,1,.34.63,2.77,2.77,0,0,1,.11.78v.17h-3A1.35,1.35,0,0,0,10.49,303.42Zm2.25-.95a2,2,0,0,0-.1-.49,1.31,1.31,0,0,0-.23-.4,1.09,1.09,0,0,0-.36-.28,1.12,1.12,0,0,0-.5-.11,1.14,1.14,0,0,0-.45.1,1.22,1.22,0,0,0-.37.27,1.62,1.62,0,0,0-.26.4,1.59,1.59,0,0,0-.12.51Z"/><path class="cls-5" d="M14.85,304.54h-.56V300.8h.56v1a2,2,0,0,1,.25-.43,1.56,1.56,0,0,1,.35-.33,1.4,1.4,0,0,1,.93-.28v.6h-.05a1.38,1.38,0,0,0-.57.11,1.39,1.39,0,0,0-.48.32,1.8,1.8,0,0,0-.32.54,2.4,2.4,0,0,0-.11.74Z"/><path class="cls-5" d="M17.78,304.54h-.56V300.8h.56v.65a1.83,1.83,0,0,1,.49-.51,1.3,1.3,0,0,1,.79-.22,1.66,1.66,0,0,1,.61.11,1.25,1.25,0,0,1,.44.31,1.33,1.33,0,0,1,.29.47,2,2,0,0,1,.09.61v2.32h-.55v-2.18a1.22,1.22,0,0,0-.27-.83,1,1,0,0,0-.77-.3,1.23,1.23,0,0,0-.44.08,1.13,1.13,0,0,0-.36.24,1.18,1.18,0,0,0-.24.37,1.51,1.51,0,0,0-.08.48Z"/><path class="cls-5" d="M22.43,301.32a3.39,3.39,0,0,0-.53.2l-.17-.46a5.33,5.33,0,0,1,.63-.23,3.26,3.26,0,0,1,.73-.08,1.67,1.67,0,0,1,1.18.38,1.44,1.44,0,0,1,.42,1.13v2.28h-.54V304a1.78,1.78,0,0,1-.52.45,1.62,1.62,0,0,1-.83.19,1.7,1.7,0,0,1-.51-.07,1.35,1.35,0,0,1-.45-.22,1.1,1.1,0,0,1-.32-.36,1.19,1.19,0,0,1,0-1,.87.87,0,0,1,.33-.38,1.35,1.35,0,0,1,.5-.23,2.23,2.23,0,0,1,.65-.08,3.92,3.92,0,0,1,.63,0l.52.11v-.13a1,1,0,0,0-.29-.76,1.22,1.22,0,0,0-.82-.26A2.25,2.25,0,0,0,22.43,301.32Zm-.18,1.54a.69.69,0,0,0-.28.57.66.66,0,0,0,.08.32.74.74,0,0,0,.2.23.85.85,0,0,0,.3.15,1.08,1.08,0,0,0,.36.05,1.61,1.61,0,0,0,.49-.07,1.22,1.22,0,0,0,.39-.21.91.91,0,0,0,.27-.32.83.83,0,0,0,.1-.41v-.36a4.32,4.32,0,0,0-.48-.11,2.94,2.94,0,0,0-.62-.05A1.35,1.35,0,0,0,22.25,302.86Z"/><path class="cls-5" d="M26.59,303.48a.63.63,0,0,0,.17.49.74.74,0,0,0,.46.13,1.12,1.12,0,0,0,.27,0,1,1,0,0,0,.27-.1v.48a1.57,1.57,0,0,1-.3.12,1.4,1.4,0,0,1-.37,0,1.42,1.42,0,0,1-.42-.06,1,1,0,0,1-.34-.18,1.12,1.12,0,0,1-.22-.33,1.44,1.44,0,0,1-.08-.49v-2.26h-.52v-.49H26v-1.13h.56v1.13h1.19v.49H26.59Z"/><path class="cls-5" d="M28.78,300v-.61h.63V300Zm0,4.56V300.8h.56v3.74Z"/><path class="cls-5" d="M34.19,303.43a2.16,2.16,0,0,1-.41.62,2,2,0,0,1-.62.43,2.06,2.06,0,0,1-.79.15,2,2,0,0,1-.77-.15,2.26,2.26,0,0,1-.62-.42,2.13,2.13,0,0,1-.4-.62,2,2,0,0,1,0-1.51,2.05,2.05,0,0,1,.4-.63,2,2,0,0,1,.62-.42,2,2,0,0,1,1.57,0,1.89,1.89,0,0,1,.62.42,1.74,1.74,0,0,1,.4.62,1.86,1.86,0,0,1,.15.75A1.94,1.94,0,0,1,34.19,303.43Zm-.53-1.32a1.61,1.61,0,0,0-.29-.47,1.67,1.67,0,0,0-.44-.31,1.31,1.31,0,0,0-.56-.12,1.26,1.26,0,0,0-.55.12,1,1,0,0,0-.43.31,1.42,1.42,0,0,0-.28.46,1.52,1.52,0,0,0-.1.57,1.45,1.45,0,0,0,.39,1,1.4,1.4,0,0,0,.44.31,1.26,1.26,0,0,0,.55.11A1.3,1.3,0,0,0,33,304a1.19,1.19,0,0,0,.43-.3,1.36,1.36,0,0,0,.28-.46,1.67,1.67,0,0,0,0-1.14Z"/><path class="cls-5" d="M35.9,304.54h-.56V300.8h.56v.65a1.83,1.83,0,0,1,.49-.51,1.32,1.32,0,0,1,.79-.22,1.66,1.66,0,0,1,.61.11,1.39,1.39,0,0,1,.45.31,1.47,1.47,0,0,1,.28.47,2,2,0,0,1,.1.61v2.32h-.56v-2.18a1.22,1.22,0,0,0-.27-.83,1,1,0,0,0-.77-.3,1.27,1.27,0,0,0-.44.08,1.13,1.13,0,0,0-.36.24,1.18,1.18,0,0,0-.24.37,1.51,1.51,0,0,0-.08.48Z"/><path class="cls-5" d="M40.55,301.32a3.39,3.39,0,0,0-.53.2l-.17-.46a5.33,5.33,0,0,1,.63-.23,3.26,3.26,0,0,1,.73-.08,1.67,1.67,0,0,1,1.18.38,1.44,1.44,0,0,1,.42,1.13v2.28h-.54V304a1.78,1.78,0,0,1-.52.45,1.62,1.62,0,0,1-.83.19,1.7,1.7,0,0,1-.51-.07,1.35,1.35,0,0,1-.45-.22,1.22,1.22,0,0,1-.32-.36,1.19,1.19,0,0,1,0-1,.87.87,0,0,1,.33-.38,1.35,1.35,0,0,1,.5-.23,2.23,2.23,0,0,1,.65-.08,3.92,3.92,0,0,1,.63,0l.52.11v-.13a1,1,0,0,0-.29-.76,1.22,1.22,0,0,0-.82-.26A2.25,2.25,0,0,0,40.55,301.32Zm-.18,1.54a.69.69,0,0,0-.28.57.66.66,0,0,0,.08.32.74.74,0,0,0,.2.23.85.85,0,0,0,.3.15,1.12,1.12,0,0,0,.36.05,1.57,1.57,0,0,0,.49-.07,1.22,1.22,0,0,0,.39-.21.91.91,0,0,0,.27-.32.83.83,0,0,0,.1-.41v-.36a4.32,4.32,0,0,0-.48-.11,2.94,2.94,0,0,0-.62-.05A1.35,1.35,0,0,0,40.37,302.86Z"/><path class="cls-5" d="M44,304.54v-5.28h.56v5.28Z"/><path class="cls-5" d="M52.1,304.11a2.69,2.69,0,0,1-.46.28,4.12,4.12,0,0,1-.53.18,3.06,3.06,0,0,1-.63.06,2.48,2.48,0,0,1-1.82-.76,2.69,2.69,0,0,1-.53-.82,2.73,2.73,0,0,1-.19-1,2.68,2.68,0,0,1,.19-1,2.79,2.79,0,0,1,.53-.84,2.4,2.4,0,0,1,.81-.56,2.53,2.53,0,0,1,1-.21,3.06,3.06,0,0,1,.63.06,2.86,2.86,0,0,1,.52.16,3.14,3.14,0,0,1,.44.25q.19.15.39.33l-.39.42a3.33,3.33,0,0,0-.7-.5,1.93,1.93,0,0,0-.9-.19,1.93,1.93,0,0,0-1.4.6,2.23,2.23,0,0,0-.41.66,2.34,2.34,0,0,0,0,1.65,2.1,2.1,0,0,0,.41.66,2,2,0,0,0,.63.45,1.83,1.83,0,0,0,.77.16,1.93,1.93,0,0,0,.9-.19,3.24,3.24,0,0,0,.74-.54l.38.37A3.51,3.51,0,0,1,52.1,304.11Z"/><path class="cls-5" d="M56.86,303.43a2,2,0,0,1-1,1.05,2.1,2.1,0,0,1-1.56,0,2.21,2.21,0,0,1-.61-.42,2.16,2.16,0,0,1-.41-.62,2.11,2.11,0,0,1,0-1.51,2.08,2.08,0,0,1,.41-.63,1.79,1.79,0,0,1,.62-.42,2,2,0,0,1,1.56,0,1.79,1.79,0,0,1,.62.42,1.92,1.92,0,0,1,.41.62,2,2,0,0,1,.14.75A1.94,1.94,0,0,1,56.86,303.43Zm-.53-1.32a1.42,1.42,0,0,0-.29-.47,1.52,1.52,0,0,0-.44-.31,1.26,1.26,0,0,0-.55-.12,1.31,1.31,0,0,0-.56.12,1.1,1.1,0,0,0-.43.31,1.42,1.42,0,0,0-.28.46,1.52,1.52,0,0,0-.1.57,1.56,1.56,0,0,0,.11.57,1.38,1.38,0,0,0,.29.46,1.35,1.35,0,0,0,.43.31,1.29,1.29,0,0,0,.55.11,1.27,1.27,0,0,0,.56-.11,1.19,1.19,0,0,0,.43-.3,1.38,1.38,0,0,0,.29-.46,1.6,1.6,0,0,0,0-1.14Z"/><path class="cls-5" d="M58.57,304.54H58V300.8h.55v.65a1.73,1.73,0,0,1,.5-.51,1.28,1.28,0,0,1,.79-.22,1.64,1.64,0,0,1,.6.11,1.21,1.21,0,0,1,.45.31,1.31,1.31,0,0,1,.28.47,1.74,1.74,0,0,1,.1.61v2.32h-.56v-2.18a1.22,1.22,0,0,0-.27-.83,1,1,0,0,0-.76-.3,1.33,1.33,0,0,0-.45.08,1.13,1.13,0,0,0-.36.24,1,1,0,0,0-.23.37,1.28,1.28,0,0,0-.09.48Z"/><path class="cls-5" d="M64.42,300.82v.47H63.24v3.25h-.55v-3.25h-.52v-.48h.52v-.33a1.3,1.3,0,0,1,.29-.93,1.09,1.09,0,0,1,.84-.32l.33,0,.28.07v.49l-.27-.07a1.23,1.23,0,0,0-.27,0c-.44,0-.65.26-.65.79v.31Z"/><path class="cls-5" d="M65.55,303.42a1.18,1.18,0,0,0,.29.4,1.14,1.14,0,0,0,.41.24,1.23,1.23,0,0,0,.47.09,1.41,1.41,0,0,0,.67-.15,2.25,2.25,0,0,0,.51-.38l.35.31a2.44,2.44,0,0,1-.65.51,1.87,1.87,0,0,1-.9.19,2,2,0,0,1-.72-.14,1.62,1.62,0,0,1-.59-.4,1.77,1.77,0,0,1-.41-.62,2,2,0,0,1-.15-.79,2.19,2.19,0,0,1,.13-.77,2,2,0,0,1,.38-.62,1.79,1.79,0,0,1,.56-.42,1.72,1.72,0,0,1,.72-.15,1.58,1.58,0,0,1,.74.16,1.52,1.52,0,0,1,.55.42,1.75,1.75,0,0,1,.34.63,2.45,2.45,0,0,1,.12.78v.08a.31.31,0,0,1,0,.09h-3A1.54,1.54,0,0,0,65.55,303.42Zm2.25-.95a2,2,0,0,0-.11-.49,1.13,1.13,0,0,0-.23-.4,1.09,1.09,0,0,0-.36-.28,1.07,1.07,0,0,0-.49-.11,1.14,1.14,0,0,0-.45.1,1.22,1.22,0,0,0-.37.27,1.38,1.38,0,0,0-.26.4,1.59,1.59,0,0,0-.13.51Z"/><path class="cls-5" d="M69.9,304.54h-.55V300.8h.55v1a2.05,2.05,0,0,1,.26-.43,1.52,1.52,0,0,1,.34-.33,1.59,1.59,0,0,1,.43-.22,1.38,1.38,0,0,1,.5-.06v.6h0a1.43,1.43,0,0,0-.58.11,1.27,1.27,0,0,0-.47.32,1.61,1.61,0,0,0-.32.54,2.13,2.13,0,0,0-.12.74Z"/><path class="cls-5" d="M72.6,303.42a1.35,1.35,0,0,0,.3.4,1.14,1.14,0,0,0,.41.24,1.23,1.23,0,0,0,.47.09,1.41,1.41,0,0,0,.67-.15,2.25,2.25,0,0,0,.51-.38l.34.31a2.25,2.25,0,0,1-.64.51,1.87,1.87,0,0,1-.9.19,2,2,0,0,1-.72-.14,1.75,1.75,0,0,1-.6-.4,1.89,1.89,0,0,1-.4-.62,2,2,0,0,1-.15-.79,2.19,2.19,0,0,1,.13-.77,2.13,2.13,0,0,1,.37-.62,1.83,1.83,0,0,1,.57-.42,1.72,1.72,0,0,1,.72-.15,1.61,1.61,0,0,1,.74.16,1.52,1.52,0,0,1,.55.42,1.91,1.91,0,0,1,.34.63,2.45,2.45,0,0,1,.12.78v.08a.31.31,0,0,1,0,.09h-3A1.78,1.78,0,0,0,72.6,303.42Zm2.26-.95a2,2,0,0,0-.11-.49,1.13,1.13,0,0,0-.23-.4,1.09,1.09,0,0,0-.36-.28,1.07,1.07,0,0,0-.49-.11,1.12,1.12,0,0,0-.82.37,1.38,1.38,0,0,0-.26.4,1.59,1.59,0,0,0-.13.51Z"/><path class="cls-5" d="M77,304.54h-.55V300.8H77v.65a1.83,1.83,0,0,1,.49-.51,1.32,1.32,0,0,1,.79-.22,1.66,1.66,0,0,1,.61.11,1.39,1.39,0,0,1,.45.31,1.47,1.47,0,0,1,.28.47,2,2,0,0,1,.1.61v2.32h-.56v-2.18a1.22,1.22,0,0,0-.27-.83,1,1,0,0,0-.77-.3,1.32,1.32,0,0,0-.44.08,1.13,1.13,0,0,0-.36.24,1,1,0,0,0-.23.37,1.28,1.28,0,0,0-.09.48Z"/><path class="cls-5" d="M83.44,304.43a1.86,1.86,0,0,1-.89.2,1.91,1.91,0,0,1-.76-.15,2.07,2.07,0,0,1-.61-.42,2,2,0,0,1-.4-2.13,1.88,1.88,0,0,1,.4-.63,1.93,1.93,0,0,1,1.37-.58,2.46,2.46,0,0,1,.49,0,2.7,2.7,0,0,1,.4.14,1.9,1.9,0,0,1,.33.22,3.45,3.45,0,0,1,.28.26l-.37.39a2.32,2.32,0,0,0-.49-.4,1.18,1.18,0,0,0-.65-.17,1.17,1.17,0,0,0-.52.12,1.1,1.1,0,0,0-.43.31,1.27,1.27,0,0,0-.28.46,1.52,1.52,0,0,0-.1.57,1.45,1.45,0,0,0,.39,1A1.31,1.31,0,0,0,82,304a1.26,1.26,0,0,0,.55.11,1.32,1.32,0,0,0,.64-.15,2,2,0,0,0,.5-.4l.36.33A2.7,2.7,0,0,1,83.44,304.43Z"/><path class="cls-5" d="M85.37,303.42a1.35,1.35,0,0,0,.3.4,1.14,1.14,0,0,0,.41.24,1.23,1.23,0,0,0,.47.09,1.41,1.41,0,0,0,.67-.15,2.25,2.25,0,0,0,.51-.38l.35.31a2.44,2.44,0,0,1-.65.51,1.87,1.87,0,0,1-.9.19,2,2,0,0,1-.72-.14,1.75,1.75,0,0,1-.6-.4,1.89,1.89,0,0,1-.4-.62,2,2,0,0,1-.15-.79,2.19,2.19,0,0,1,.13-.77,2,2,0,0,1,.38-.62,1.68,1.68,0,0,1,.56-.42,1.72,1.72,0,0,1,.72-.15,1.61,1.61,0,0,1,.74.16,1.52,1.52,0,0,1,.55.42,1.75,1.75,0,0,1,.34.63,2.45,2.45,0,0,1,.12.78v.08a.31.31,0,0,1,0,.09h-3A1.78,1.78,0,0,0,85.37,303.42Zm2.26-.95a2,2,0,0,0-.11-.49,1.13,1.13,0,0,0-.23-.4,1.09,1.09,0,0,0-.36-.28,1.07,1.07,0,0,0-.49-.11,1.12,1.12,0,0,0-.82.37,1.38,1.38,0,0,0-.26.4,1.59,1.59,0,0,0-.13.51Z"/><path class="cls-5" d="M94.87,303.43a2.16,2.16,0,0,1-.41.62,2,2,0,0,1-.62.43,2.1,2.1,0,0,1-1.56,0,2.07,2.07,0,0,1-.61-.42,2,2,0,0,1-.41-.62,2.11,2.11,0,0,1,0-1.51,1.91,1.91,0,0,1,.41-.63,1.85,1.85,0,0,1,.61-.42,1.89,1.89,0,0,1,.79-.16,1.85,1.85,0,0,1,.78.16,1.89,1.89,0,0,1,.62.42,1.74,1.74,0,0,1,.4.62,1.86,1.86,0,0,1,.15.75A1.94,1.94,0,0,1,94.87,303.43Zm-.53-1.32a1.61,1.61,0,0,0-.29-.47,1.52,1.52,0,0,0-.44-.31,1.3,1.3,0,0,0-.55-.12,1.28,1.28,0,0,0-.56.12,1.1,1.1,0,0,0-.43.31,1.42,1.42,0,0,0-.28.46,1.52,1.52,0,0,0-.1.57,1.45,1.45,0,0,0,.39,1,1.52,1.52,0,0,0,.44.31,1.26,1.26,0,0,0,.55.11,1.3,1.3,0,0,0,.56-.11,1.19,1.19,0,0,0,.43-.3,1.36,1.36,0,0,0,.28-.46,1.53,1.53,0,0,0,0-1.14Z"/><path class="cls-5" d="M96.58,304.54H96V300.8h.56v.65a1.83,1.83,0,0,1,.49-.51,1.32,1.32,0,0,1,.79-.22,1.66,1.66,0,0,1,.61.11,1.39,1.39,0,0,1,.45.31,1.47,1.47,0,0,1,.28.47,2,2,0,0,1,.1.61v2.32h-.56v-2.18a1.22,1.22,0,0,0-.27-.83,1,1,0,0,0-.77-.3,1.27,1.27,0,0,0-.44.08,1.13,1.13,0,0,0-.36.24,1.18,1.18,0,0,0-.24.37,1.51,1.51,0,0,0-.08.48Z"/><path class="cls-5" d="M106.24,304.54l-1.47-2h-1.45v2h-.57v-5.06h2.18a2.29,2.29,0,0,1,.76.11,1.72,1.72,0,0,1,.57.3,1.55,1.55,0,0,1,.37.48,1.41,1.41,0,0,1,.13.62,1.48,1.48,0,0,1-.1.57,1.17,1.17,0,0,1-.29.43,1.48,1.48,0,0,1-.43.31,2.53,2.53,0,0,1-.55.18l1.55,2.06Zm-.39-4.27a1.52,1.52,0,0,0-1-.26h-1.57v2.06h1.56a2.11,2.11,0,0,0,.52-.07,1.38,1.38,0,0,0,.42-.21,1,1,0,0,0,.27-.33,1,1,0,0,0-.24-1.19Z"/><path class="cls-5" d="M111.34,303.43a2.16,2.16,0,0,1-.41.62,2,2,0,0,1-.62.43,2.1,2.1,0,0,1-1.56,0,2.07,2.07,0,0,1-.61-.42,2,2,0,0,1-.41-.62,2.11,2.11,0,0,1,0-1.51,1.91,1.91,0,0,1,.41-.63,1.85,1.85,0,0,1,.61-.42,1.89,1.89,0,0,1,.79-.16,1.85,1.85,0,0,1,.78.16,1.89,1.89,0,0,1,.62.42,1.74,1.74,0,0,1,.4.62,1.86,1.86,0,0,1,.15.75A1.94,1.94,0,0,1,111.34,303.43Zm-.53-1.32a1.61,1.61,0,0,0-.29-.47,1.67,1.67,0,0,0-.44-.31,1.3,1.3,0,0,0-.55-.12,1.28,1.28,0,0,0-.56.12,1.1,1.1,0,0,0-.43.31,1.42,1.42,0,0,0-.28.46,1.52,1.52,0,0,0-.1.57,1.45,1.45,0,0,0,.39,1,1.52,1.52,0,0,0,.44.31,1.26,1.26,0,0,0,.55.11,1.3,1.3,0,0,0,.56-.11,1.19,1.19,0,0,0,.43-.3,1.36,1.36,0,0,0,.28-.46,1.53,1.53,0,0,0,0-1.14Z"/><path class="cls-5" d="M113.24,301.32a3.82,3.82,0,0,0-.53.2l-.17-.46a5.33,5.33,0,0,1,.63-.23,3.29,3.29,0,0,1,.74-.08,1.71,1.71,0,0,1,1.18.38,1.47,1.47,0,0,1,.41,1.13v2.28H115V304a1.78,1.78,0,0,1-.52.45,1.62,1.62,0,0,1-.83.19,1.75,1.75,0,0,1-.51-.07,1.35,1.35,0,0,1-.45-.22,1.22,1.22,0,0,1-.32-.36,1.19,1.19,0,0,1,0-1,.87.87,0,0,1,.33-.38,1.35,1.35,0,0,1,.5-.23,2.27,2.27,0,0,1,.65-.08,3.92,3.92,0,0,1,.63,0l.52.11v-.13a1,1,0,0,0-.29-.76,1.22,1.22,0,0,0-.82-.26A2.31,2.31,0,0,0,113.24,301.32Zm-.17,1.54a.68.68,0,0,0-.29.57.65.65,0,0,0,.29.55.73.73,0,0,0,.29.15,1.12,1.12,0,0,0,.36.05,1.57,1.57,0,0,0,.49-.07,1.39,1.39,0,0,0,.4-.21,1,1,0,0,0,.26-.32.83.83,0,0,0,.1-.41v-.36a4.32,4.32,0,0,0-.48-.11,2.94,2.94,0,0,0-.62-.05A1.29,1.29,0,0,0,113.07,302.86Z"/><path class="cls-5" d="M119.69,304.54v-.75a2.6,2.6,0,0,1-.26.32,2,2,0,0,1-.31.27,1.38,1.38,0,0,1-.39.18,1.73,1.73,0,0,1-.47.06,1.65,1.65,0,0,1-.66-.13,1.63,1.63,0,0,1-.57-.38,1.77,1.77,0,0,1-.41-.61,2.1,2.1,0,0,1-.15-.82,2.16,2.16,0,0,1,.15-.83,1.87,1.87,0,0,1,.41-.61,1.63,1.63,0,0,1,.57-.38,1.66,1.66,0,0,1,.66-.14,1.41,1.41,0,0,1,.47.07,1.61,1.61,0,0,1,.4.17,1.89,1.89,0,0,1,.31.25,2.42,2.42,0,0,1,.25.31v-2.26h.56v5.28Zm-.09-2.46a1.66,1.66,0,0,0-.3-.46,1.6,1.6,0,0,0-.44-.29,1.24,1.24,0,0,0-.5-.1,1.27,1.27,0,0,0-.52.1,1.15,1.15,0,0,0-.41.28,1.28,1.28,0,0,0-.28.45,1.72,1.72,0,0,0,0,1.21,1.53,1.53,0,0,0,.28.46,1.37,1.37,0,0,0,.42.29,1.45,1.45,0,0,0,.51.1,1.25,1.25,0,0,0,.5-.11,1.4,1.4,0,0,0,.44-.29,1.53,1.53,0,0,0,.3-.46,1.64,1.64,0,0,0,0-1.18Z"/><path class="cls-5" d="M124.41,301.32a3.82,3.82,0,0,0-.53.2l-.16-.46a4.29,4.29,0,0,1,.63-.23,3.13,3.13,0,0,1,.73-.08,1.71,1.71,0,0,1,1.18.38,1.47,1.47,0,0,1,.41,1.13v2.28h-.54V304a1.78,1.78,0,0,1-.52.45,1.62,1.62,0,0,1-.83.19,1.79,1.79,0,0,1-.51-.07,1.35,1.35,0,0,1-.45-.22,1.22,1.22,0,0,1-.32-.36,1.19,1.19,0,0,1,0-1,.93.93,0,0,1,.33-.38,1.35,1.35,0,0,1,.5-.23,2.27,2.27,0,0,1,.65-.08,3.92,3.92,0,0,1,.63,0l.52.11v-.13a1,1,0,0,0-.29-.76,1.22,1.22,0,0,0-.82-.26A2.31,2.31,0,0,0,124.41,301.32Zm-.17,1.54a.68.68,0,0,0-.29.57.65.65,0,0,0,.29.55.73.73,0,0,0,.29.15,1.12,1.12,0,0,0,.36.05,1.53,1.53,0,0,0,.49-.07,1.39,1.39,0,0,0,.4-.21,1,1,0,0,0,.26-.32.83.83,0,0,0,.1-.41v-.36a4.32,4.32,0,0,0-.48-.11,2.94,2.94,0,0,0-.62-.05A1.29,1.29,0,0,0,124.24,302.86Z"/><path class="cls-5" d="M128.41,304.54h-.55V300.8h.55v.65a1.73,1.73,0,0,1,.5-.51,1.28,1.28,0,0,1,.79-.22,1.64,1.64,0,0,1,.6.11,1.21,1.21,0,0,1,.45.31,1.31,1.31,0,0,1,.28.47,1.74,1.74,0,0,1,.1.61v2.32h-.56v-2.18a1.22,1.22,0,0,0-.27-.83,1,1,0,0,0-.76-.3,1.33,1.33,0,0,0-.45.08,1.13,1.13,0,0,0-.36.24,1,1,0,0,0-.23.37,1.28,1.28,0,0,0-.09.48Z"/><path class="cls-5" d="M135.32,304.54v-.75a2.6,2.6,0,0,1-.26.32,2,2,0,0,1-.31.27,1.38,1.38,0,0,1-.39.18,1.73,1.73,0,0,1-.47.06,1.65,1.65,0,0,1-.66-.13,1.63,1.63,0,0,1-.57-.38,1.77,1.77,0,0,1-.41-.61,2.1,2.1,0,0,1-.15-.82,2.16,2.16,0,0,1,.15-.83,1.87,1.87,0,0,1,.41-.61,1.63,1.63,0,0,1,.57-.38,1.66,1.66,0,0,1,.66-.14,1.41,1.41,0,0,1,.47.07,1.61,1.61,0,0,1,.4.17,1.89,1.89,0,0,1,.31.25,2.42,2.42,0,0,1,.25.31v-2.26h.56v5.28Zm-.09-2.46a1.66,1.66,0,0,0-.3-.46,1.6,1.6,0,0,0-.44-.29,1.24,1.24,0,0,0-.5-.1,1.27,1.27,0,0,0-.52.1,1.15,1.15,0,0,0-.41.28,1.28,1.28,0,0,0-.28.45,1.72,1.72,0,0,0,0,1.21,1.53,1.53,0,0,0,.28.46,1.37,1.37,0,0,0,.42.29,1.45,1.45,0,0,0,.51.1,1.25,1.25,0,0,0,.5-.11,1.4,1.4,0,0,0,.44-.29,1.53,1.53,0,0,0,.3-.46,1.64,1.64,0,0,0,0-1.18Z"/><path class="cls-5" d="M144.11,304.54h-.62l-.59-1.33h-2.76l-.6,1.33H139l2.31-5.1h.54Zm-2.59-4.43-1.15,2.59h2.31Z"/><path class="cls-5" d="M145,300v-.61h.63V300Zm0,4.56V300.8h.56v3.74Z"/><path class="cls-5" d="M147.48,304.54h-.56V300.8h.56v1a1.67,1.67,0,0,1,.25-.43,1.56,1.56,0,0,1,.35-.33,1.41,1.41,0,0,1,.42-.22,1.38,1.38,0,0,1,.5-.06v.6h0a1.43,1.43,0,0,0-.58.11,1.27,1.27,0,0,0-.47.32,1.61,1.61,0,0,0-.32.54,2.13,2.13,0,0,0-.11.74Z"/><path class="cls-5" d="M151.8,300.82v.47h-1.18v3.25h-.56v-3.25h-.51v-.48h.51v-.33a1.35,1.35,0,0,1,.29-.93,1.11,1.11,0,0,1,.84-.32l.34,0,.27.07v.49l-.27-.07a1.14,1.14,0,0,0-.27,0c-.43,0-.65.26-.65.79v.31Z"/><path class="cls-5" d="M152.52,300v-.61h.64V300Zm0,4.56V300.8h.55v3.74Z"/><path class="cls-5" d="M154.9,303.42a1.18,1.18,0,0,0,.29.4,1.14,1.14,0,0,0,.41.24,1.23,1.23,0,0,0,.47.09,1.41,1.41,0,0,0,.67-.15,2.25,2.25,0,0,0,.51-.38l.35.31a2.44,2.44,0,0,1-.65.51,1.87,1.87,0,0,1-.9.19,2,2,0,0,1-.72-.14,1.75,1.75,0,0,1-.6-.4,1.89,1.89,0,0,1-.4-.62,2,2,0,0,1-.15-.79,2.19,2.19,0,0,1,.13-.77,2,2,0,0,1,.38-.62,1.79,1.79,0,0,1,.56-.42,1.72,1.72,0,0,1,.72-.15,1.58,1.58,0,0,1,.74.16,1.52,1.52,0,0,1,.55.42,1.75,1.75,0,0,1,.34.63,2.45,2.45,0,0,1,.12.78v.08a.31.31,0,0,1,0,.09h-3A1.54,1.54,0,0,0,154.9,303.42Zm2.25-.95A2,2,0,0,0,157,302a1.13,1.13,0,0,0-.23-.4,1.09,1.09,0,0,0-.36-.28,1.07,1.07,0,0,0-.49-.11,1.14,1.14,0,0,0-.45.1,1.11,1.11,0,0,0-.37.27,1.38,1.38,0,0,0-.26.4,1.59,1.59,0,0,0-.13.51Z"/><path class="cls-5" d="M158.75,304.54v-5.28h.55v5.28Z"/><path class="cls-5" d="M163.6,304.54v-.75a2.51,2.51,0,0,1-.25.32,2.08,2.08,0,0,1-.32.27,1.21,1.21,0,0,1-.38.18,1.86,1.86,0,0,1-.48.06,1.65,1.65,0,0,1-.66-.13,1.63,1.63,0,0,1-.57-.38,1.92,1.92,0,0,1-.41-.61,2.1,2.1,0,0,1-.15-.82,2.16,2.16,0,0,1,.15-.83,2,2,0,0,1,.41-.61,1.63,1.63,0,0,1,.57-.38,1.66,1.66,0,0,1,.66-.14,1.51,1.51,0,0,1,.48.07,1.71,1.71,0,0,1,.39.17,1.54,1.54,0,0,1,.31.25,1.79,1.79,0,0,1,.25.31v-2.26h.56v5.28Zm-.09-2.46a1.31,1.31,0,0,0-.3-.46,1.55,1.55,0,0,0-.43-.29,1.29,1.29,0,0,0-.51-.1,1.25,1.25,0,0,0-.51.1,1.19,1.19,0,0,0-.42.28,1.28,1.28,0,0,0-.28.45,1.72,1.72,0,0,0,0,1.21,1.31,1.31,0,0,0,.71.75,1.35,1.35,0,0,0,.5.1,1.3,1.3,0,0,0,.51-.11,1.36,1.36,0,0,0,.43-.29,1.23,1.23,0,0,0,.3-.46,1.51,1.51,0,0,0,0-1.18Z"/><path class="cls-5" d="M36.9,310.5a1.56,1.56,0,0,1-.43.52,1.83,1.83,0,0,1-.64.32,2.68,2.68,0,0,1-.76.1H33.84v1.79h-.58v-5.07h1.9a2.37,2.37,0,0,1,.78.12,1.73,1.73,0,0,1,.6.32,1.17,1.17,0,0,1,.38.5,1.65,1.65,0,0,1,.14.68A1.5,1.5,0,0,1,36.9,310.5ZM36.11,309a1.66,1.66,0,0,0-1-.28H33.84v2.23h1.25a1.71,1.71,0,0,0,.57-.08,1.37,1.37,0,0,0,.45-.23,1,1,0,0,0,.28-.35,1.15,1.15,0,0,0,.1-.46A1,1,0,0,0,36.11,309Z"/><path class="cls-5" d="M38.68,310a2.86,2.86,0,0,0-.53.2l-.16-.46a3.38,3.38,0,0,1,.63-.23,3.13,3.13,0,0,1,.73-.08,1.71,1.71,0,0,1,1.18.38,1.47,1.47,0,0,1,.41,1.12v2.29H40.4v-.56a1.78,1.78,0,0,1-.52.45,1.62,1.62,0,0,1-.83.19,1.79,1.79,0,0,1-.51-.07,1.35,1.35,0,0,1-.45-.22,1.14,1.14,0,0,1-.32-.37,1,1,0,0,1-.12-.51,1.15,1.15,0,0,1,.12-.53,1.08,1.08,0,0,1,.33-.38,1.77,1.77,0,0,1,.5-.23,2.69,2.69,0,0,1,.65-.08,3.83,3.83,0,0,1,.63.05,3,3,0,0,1,.52.11V311a.93.93,0,0,0-.29-.76,1.22,1.22,0,0,0-.82-.26A2.31,2.31,0,0,0,38.68,310Zm-.17,1.54a.68.68,0,0,0-.29.57.69.69,0,0,0,.08.32.66.66,0,0,0,.21.23.73.73,0,0,0,.29.15,1.49,1.49,0,0,0,.36.05,1.53,1.53,0,0,0,.49-.08,1.39,1.39,0,0,0,.4-.21,1,1,0,0,0,.26-.31.83.83,0,0,0,.1-.41v-.37l-.48-.1a2.94,2.94,0,0,0-.62-.05A1.23,1.23,0,0,0,38.51,311.55Z"/><path class="cls-5" d="M44.75,309.49h.6l-1.62,3.77h-.5l-1.62-3.77h.62l1.26,3.11Z"/><path class="cls-5" d="M46.5,312.11a1.16,1.16,0,0,0,.3.39,1.28,1.28,0,0,0,.4.25,1.26,1.26,0,0,0,.47.08,1.38,1.38,0,0,0,.67-.14,2.12,2.12,0,0,0,.51-.38l.35.31a2.29,2.29,0,0,1-.65.51,1.91,1.91,0,0,1-2.21-.35,1.92,1.92,0,0,1-.41-.62,2.07,2.07,0,0,1-.15-.8,2.14,2.14,0,0,1,.14-.76,1.83,1.83,0,0,1,.37-.62,1.69,1.69,0,0,1,.57-.42,1.72,1.72,0,0,1,.72-.15,1.64,1.64,0,0,1,.74.16,1.62,1.62,0,0,1,.55.42,1.91,1.91,0,0,1,.34.63,2.76,2.76,0,0,1,.11.77v.08a.38.38,0,0,1,0,.1h-3A1.54,1.54,0,0,0,46.5,312.11Zm2.25-1a2,2,0,0,0-.1-.48,1.81,1.81,0,0,0-.23-.41,1.22,1.22,0,0,0-.36-.27,1.15,1.15,0,0,0-.5-.11,1,1,0,0,0-.45.1,1.07,1.07,0,0,0-.37.27,1.46,1.46,0,0,0-.26.4,1.93,1.93,0,0,0-.13.5Z"/><path class="cls-5" d="M53.5,309.87a1.05,1.05,0,0,1,.28-.24,1.46,1.46,0,0,1,.36-.16,1.53,1.53,0,0,1,.45-.06,1.32,1.32,0,0,1,1,.4,1.62,1.62,0,0,1,.37,1.11v2.31h-.56v-2.18a1.22,1.22,0,0,0-.26-.84.88.88,0,0,0-.71-.29,1.09,1.09,0,0,0-.4.07.86.86,0,0,0-.33.23,1.09,1.09,0,0,0-.22.36,1.3,1.3,0,0,0-.09.49v2.16h-.55V311a1.2,1.2,0,0,0-.25-.82.89.89,0,0,0-.71-.29.92.92,0,0,0-.74.33,1.07,1.07,0,0,0-.22.37,1.21,1.21,0,0,0-.08.48v2.13H50.3v-3.74h.56v.63l.2-.27a1.43,1.43,0,0,1,.26-.23,1.66,1.66,0,0,1,.33-.15,1.33,1.33,0,0,1,.42-.06,1.28,1.28,0,0,1,.75.21,1.42,1.42,0,0,1,.45.53A2,2,0,0,1,53.5,309.87Z"/><path class="cls-5" d="M57.67,312.11a1.31,1.31,0,0,0,.3.39,1.28,1.28,0,0,0,.4.25,1.26,1.26,0,0,0,.47.08,1.38,1.38,0,0,0,.67-.14,2.12,2.12,0,0,0,.51-.38l.35.31a2.4,2.4,0,0,1-.64.51,2.06,2.06,0,0,1-.9.19,1.8,1.8,0,0,1-1.32-.54,1.92,1.92,0,0,1-.41-.62,2.07,2.07,0,0,1-.15-.8,2.14,2.14,0,0,1,.14-.76,1.83,1.83,0,0,1,.37-.62,1.69,1.69,0,0,1,.57-.42,1.72,1.72,0,0,1,.72-.15,1.64,1.64,0,0,1,.74.16A1.62,1.62,0,0,1,60,310a1.91,1.91,0,0,1,.34.63,2.76,2.76,0,0,1,.11.77v.18h-3A1.54,1.54,0,0,0,57.67,312.11Zm2.25-1a2,2,0,0,0-.1-.48,1.81,1.81,0,0,0-.23-.41,1.22,1.22,0,0,0-.36-.27,1.15,1.15,0,0,0-.5-.11,1,1,0,0,0-.45.1,1.07,1.07,0,0,0-.37.27,1.46,1.46,0,0,0-.26.4,1.93,1.93,0,0,0-.13.5Z"/><path class="cls-5" d="M62,313.23h-.56v-3.74H62v.65a1.86,1.86,0,0,1,.49-.52,1.36,1.36,0,0,1,.79-.21,1.57,1.57,0,0,1,.6.11,1.1,1.1,0,0,1,.45.31,1.18,1.18,0,0,1,.28.47,1.7,1.7,0,0,1,.1.61v2.32h-.56v-2.18a1.2,1.2,0,0,0-.26-.83,1,1,0,0,0-.77-.3,1.12,1.12,0,0,0-.45.08,1,1,0,0,0-.35.24,1,1,0,0,0-.24.37,1.51,1.51,0,0,0-.08.48Z"/><path class="cls-5" d="M66.68,312.17a.56.56,0,0,0,.18.48.69.69,0,0,0,.45.14,1.12,1.12,0,0,0,.27,0,1.19,1.19,0,0,0,.28-.1v.48a1.66,1.66,0,0,1-.31.12,2,2,0,0,1-.37,0,1.42,1.42,0,0,1-.42-.06.78.78,0,0,1-.33-.19.85.85,0,0,1-.23-.32,1.44,1.44,0,0,1-.08-.49V310H65.6v-.49h.52v-1.13h.56v1.13h1.19V310H66.68Z"/><path class="cls-5" d="M73,313.23h-.57v-4.54h-1.7v-.53h4v.53H73Z"/><path class="cls-5" d="M75.28,312.11a1.31,1.31,0,0,0,.3.39,1.33,1.33,0,0,0,.41.25,1.19,1.19,0,0,0,.47.08,1.41,1.41,0,0,0,.67-.14,2.6,2.6,0,0,0,.51-.38l.34.31a2.4,2.4,0,0,1-.64.51,2,2,0,0,1-.9.19,1.85,1.85,0,0,1-1.32-.54,1.89,1.89,0,0,1-.4-.62,2.07,2.07,0,0,1-.15-.8,2.13,2.13,0,0,1,.13-.76,1.83,1.83,0,0,1,.37-.62,1.69,1.69,0,0,1,.57-.42,1.72,1.72,0,0,1,.72-.15,1.61,1.61,0,0,1,.74.16,1.52,1.52,0,0,1,.55.42,1.91,1.91,0,0,1,.34.63,2.43,2.43,0,0,1,.12.77v.08s0,.06,0,.1h-3A1.78,1.78,0,0,0,75.28,312.11Zm2.25-1a1.58,1.58,0,0,0-.1-.48,1.5,1.5,0,0,0-.23-.41,1.22,1.22,0,0,0-.36-.27,1.1,1.1,0,0,0-.49-.11,1,1,0,0,0-.46.1,1,1,0,0,0-.36.27,1.11,1.11,0,0,0-.26.4,1.6,1.6,0,0,0-.13.5Z"/><path class="cls-5" d="M81.66,313.11a1.91,1.91,0,0,1-2.66-1,1.86,1.86,0,0,1-.15-.75,2,2,0,0,1,.15-.76,1.94,1.94,0,0,1,.4-.62,1.93,1.93,0,0,1,1.37-.58,2.46,2.46,0,0,1,.49,0,1.64,1.64,0,0,1,.39.14,1.52,1.52,0,0,1,.34.22,2.27,2.27,0,0,1,.28.26l-.37.39a2.32,2.32,0,0,0-.49-.4,1.18,1.18,0,0,0-.65-.17,1.31,1.31,0,0,0-.52.11,1.35,1.35,0,0,0-.43.31,1.4,1.4,0,0,0-.28.47,1.51,1.51,0,0,0,0,1.13,1.49,1.49,0,0,0,.29.47,1.31,1.31,0,0,0,.43.31,1.26,1.26,0,0,0,.55.11,1.24,1.24,0,0,0,.64-.16,1.92,1.92,0,0,0,.5-.4l.36.34A2.44,2.44,0,0,1,81.66,313.11Z"/><path class="cls-5" d="M83.78,313.23h-.56V308h.56v2.19a1.72,1.72,0,0,1,.49-.52,1.34,1.34,0,0,1,.79-.21,1.64,1.64,0,0,1,.6.11,1.1,1.1,0,0,1,.45.31,1.31,1.31,0,0,1,.28.47,1.7,1.7,0,0,1,.1.61v2.32h-.56v-2.18a1.2,1.2,0,0,0-.27-.83,1,1,0,0,0-.76-.3,1.12,1.12,0,0,0-.45.08,1.08,1.08,0,0,0-.36.24,1,1,0,0,0-.23.37,1.27,1.27,0,0,0-.08.48Z"/><path class="cls-5" d="M88.23,313.23h-.55v-3.74h.55v.65a1.9,1.9,0,0,1,.5-.52,1.34,1.34,0,0,1,.79-.21,1.64,1.64,0,0,1,.6.11,1.1,1.1,0,0,1,.45.31,1.31,1.31,0,0,1,.28.47,1.7,1.7,0,0,1,.1.61v2.32h-.56v-2.18a1.2,1.2,0,0,0-.27-.83,1,1,0,0,0-.76-.3,1.12,1.12,0,0,0-.45.08,1,1,0,0,0-.36.24,1,1,0,0,0-.23.37,1.28,1.28,0,0,0-.09.48Z"/><path class="cls-5" d="M95.66,312.11a2.08,2.08,0,0,1-.41.63,1.79,1.79,0,0,1-.62.42,1.88,1.88,0,0,1-.78.16,1.85,1.85,0,0,1-.78-.16,1.86,1.86,0,0,1-1-1,1.86,1.86,0,0,1-.14-.75,2,2,0,0,1,.14-.76,2.13,2.13,0,0,1,.4-.62,2,2,0,0,1,.62-.42,2,2,0,0,1,1.57,0,1.89,1.89,0,0,1,.62.42,1.8,1.8,0,0,1,.4.61,2,2,0,0,1,0,1.51Zm-.53-1.31a1.49,1.49,0,0,0-.29-.47,1.47,1.47,0,0,0-.44-.31,1.3,1.3,0,0,0-.55-.12,1.43,1.43,0,0,0-.56.11,1.25,1.25,0,0,0-.43.31,1.58,1.58,0,0,0-.28.47,1.47,1.47,0,0,0-.1.56,1.5,1.5,0,0,0,.39,1,1.4,1.4,0,0,0,.44.31,1.42,1.42,0,0,0,.55.11,1.3,1.3,0,0,0,.56-.11,1.22,1.22,0,0,0,.43-.31,1.31,1.31,0,0,0,.28-.45,1.53,1.53,0,0,0,0-1.14Z"/><path class="cls-5" d="M96.86,313.23V308h.56v5.28Z"/><path class="cls-5" d="M102.24,312.11a2.08,2.08,0,0,1-.41.63,1.79,1.79,0,0,1-.62.42,2,2,0,0,1-1.56,0,1.95,1.95,0,0,1-1-1,1.86,1.86,0,0,1-.14-.75A1.9,1.9,0,0,1,99,310a1.85,1.85,0,0,1,.61-.42,1.89,1.89,0,0,1,.79-.16,1.85,1.85,0,0,1,.78.16,1.89,1.89,0,0,1,.62.42,1.8,1.8,0,0,1,.4.61,2,2,0,0,1,0,1.51Zm-.53-1.31a1.49,1.49,0,0,0-.29-.47A1.47,1.47,0,0,0,101,310a1.3,1.3,0,0,0-.55-.12,1.43,1.43,0,0,0-.56.11,1.35,1.35,0,0,0-.43.31,1.58,1.58,0,0,0-.28.47,1.47,1.47,0,0,0-.1.56,1.5,1.5,0,0,0,.39,1,1.52,1.52,0,0,0,.44.31,1.42,1.42,0,0,0,.55.11,1.3,1.3,0,0,0,.56-.11,1.22,1.22,0,0,0,.43-.31,1.31,1.31,0,0,0,.28-.45,1.53,1.53,0,0,0,0-1.14Z"/><path class="cls-5" d="M106.82,313.38a1.59,1.59,0,0,1-.38.56,1.64,1.64,0,0,1-.6.35,2.48,2.48,0,0,1-.79.11,3.37,3.37,0,0,1-.9-.12,2.86,2.86,0,0,1-.8-.4l.25-.43a2.93,2.93,0,0,0,.68.35,2.13,2.13,0,0,0,.76.13,1.41,1.41,0,0,0,1-.34,1.3,1.3,0,0,0,.37-1v-.45a2.33,2.33,0,0,1-.61.56,1.55,1.55,0,0,1-.86.23,1.84,1.84,0,0,1-.66-.12,1.68,1.68,0,0,1-.56-.34,1.71,1.71,0,0,1-.39-.56,1.75,1.75,0,0,1-.15-.74,1.78,1.78,0,0,1,.15-.74,1.67,1.67,0,0,1,1-.91,1.88,1.88,0,0,1,.66-.12,1.86,1.86,0,0,1,.48.06,2.38,2.38,0,0,1,.4.16,2.43,2.43,0,0,1,.32.24,3.58,3.58,0,0,1,.26.29v-.67H107v3.09A2.2,2.2,0,0,1,106.82,313.38Zm-.52-2.73a1.2,1.2,0,0,0-.3-.4,1.5,1.5,0,0,0-.44-.26,1.54,1.54,0,0,0-.52-.09,1.43,1.43,0,0,0-.5.09,1.22,1.22,0,0,0-.41.25,1.26,1.26,0,0,0-.28.4,1.32,1.32,0,0,0-.1.53,1.24,1.24,0,0,0,.1.52,1.22,1.22,0,0,0,.29.41,1.15,1.15,0,0,0,.41.26,1.37,1.37,0,0,0,.49.09,1.54,1.54,0,0,0,.52-.09,1.5,1.5,0,0,0,.44-.26,1.2,1.2,0,0,0,.3-.4,1.14,1.14,0,0,0,.12-.52A1.15,1.15,0,0,0,106.3,310.65Z"/><path class="cls-5" d="M110,313.36a2,2,0,0,1-.54.81,1.07,1.07,0,0,1-.71.24,1.42,1.42,0,0,1-.42-.05,1.46,1.46,0,0,1-.38-.14l.19-.44a1,1,0,0,0,.27.11,1.51,1.51,0,0,0,.32,0,.64.64,0,0,0,.43-.15,1.81,1.81,0,0,0,.34-.55l-1.71-3.73h.62l1.36,3.12,1.2-3.12h.6Z"/><path class="cls-5" d="M115.51,308.82a2.59,2.59,0,0,0-.62.65l-.42-.31a3.38,3.38,0,0,1,.36-.45,1.76,1.76,0,0,1,.39-.34,1.75,1.75,0,0,1,.48-.21,2.58,2.58,0,0,1,.59-.07,1.83,1.83,0,0,1,.64.11,1.44,1.44,0,0,1,.49.3,1.39,1.39,0,0,1,.33.46,1.32,1.32,0,0,1,.12.57,1.72,1.72,0,0,1-.08.52,1.85,1.85,0,0,1-.24.46,3.12,3.12,0,0,1-.39.47c-.16.16-.35.34-.58.53l-1.35,1.2h2.69v.52h-3.54v-.44l1.84-1.62.49-.48a4.92,4.92,0,0,0,.33-.39,1.18,1.18,0,0,0,.23-.73,1,1,0,0,0-.08-.4,1.16,1.16,0,0,0-.22-.31.89.89,0,0,0-.33-.19,1,1,0,0,0-.39-.07A1.2,1.2,0,0,0,115.51,308.82Z"/><path class="cls-5" d="M122.94,311.7a2.57,2.57,0,0,1-.43.84,2.07,2.07,0,0,1-.68.57,1.84,1.84,0,0,1-.88.21,1.89,1.89,0,0,1-.89-.21,2,2,0,0,1-.67-.56,2.62,2.62,0,0,1-.43-.83,3.38,3.38,0,0,1-.15-1,3.11,3.11,0,0,1,.16-1,2.42,2.42,0,0,1,.43-.83,2,2,0,0,1,.67-.57,2,2,0,0,1,1.77,0,2.07,2.07,0,0,1,.68.57,2.5,2.5,0,0,1,.42.83,3.33,3.33,0,0,1,.15,1A3.29,3.29,0,0,1,122.94,311.7Zm-.55-1.79a2.18,2.18,0,0,0-.31-.67,1.68,1.68,0,0,0-.49-.47,1.29,1.29,0,0,0-1.28,0,1.53,1.53,0,0,0-.49.46,2.22,2.22,0,0,0-.3.66,3,3,0,0,0,0,1.6,2,2,0,0,0,.31.68,1.65,1.65,0,0,0,.49.46,1.28,1.28,0,0,0,.64.17,1.25,1.25,0,0,0,.64-.17,1.54,1.54,0,0,0,.49-.46,2.22,2.22,0,0,0,.3-.66,3,3,0,0,0,.11-.8A3,3,0,0,0,122.39,309.91Z"/><path class="cls-5" d="M125,308.82a2.59,2.59,0,0,0-.62.65l-.42-.31a3.38,3.38,0,0,1,.36-.45,1.76,1.76,0,0,1,.39-.34,1.75,1.75,0,0,1,.48-.21,2.6,2.6,0,0,1,.6-.07,1.81,1.81,0,0,1,.63.11,1.44,1.44,0,0,1,.49.3,1.39,1.39,0,0,1,.33.46,1.32,1.32,0,0,1,.12.57,1.72,1.72,0,0,1-.08.52,1.85,1.85,0,0,1-.24.46,3.12,3.12,0,0,1-.39.47c-.16.16-.35.34-.58.53l-1.35,1.2h2.69v.52h-3.54v-.44l1.84-1.62.49-.48a4.92,4.92,0,0,0,.33-.39,1.18,1.18,0,0,0,.23-.73,1,1,0,0,0-.08-.4,1.16,1.16,0,0,0-.22-.31.89.89,0,0,0-.33-.19,1,1,0,0,0-.39-.07A1.2,1.2,0,0,0,125,308.82Z"/><path class="cls-5" d="M128.67,308.16h2.91v.53h-2.41l-.11,1.62a4,4,0,0,1,.45-.16,2.32,2.32,0,0,1,1.23.05,1.53,1.53,0,0,1,.56.31,1.35,1.35,0,0,1,.37.48,1.56,1.56,0,0,1,.13.66,1.65,1.65,0,0,1-.13.68,1.54,1.54,0,0,1-.37.53,1.63,1.63,0,0,1-.57.34,2.15,2.15,0,0,1-.73.12,2.23,2.23,0,0,1-1-.23,3,3,0,0,1-.81-.57l.38-.42a2.67,2.67,0,0,0,.69.51,1.55,1.55,0,0,0,.75.19,1.33,1.33,0,0,0,.49-.09,1.09,1.09,0,0,0,.39-.23,1,1,0,0,0,.25-.36,1.13,1.13,0,0,0,.09-.45,1,1,0,0,0-.09-.44.93.93,0,0,0-.26-.33,1,1,0,0,0-.4-.22,1.37,1.37,0,0,0-.51-.08,1.73,1.73,0,0,0-.58.08,2.58,2.58,0,0,0-.48.21l-.39-.26Z"/></g></g></svg>