<svg xmlns="http://www.w3.org/2000/svg" xmlns:xlink="http://www.w3.org/1999/xlink" viewBox="0 0 356.25 176.09"><defs><style>.cls-1{fill:url(#linear-gradient);}.cls-2{fill:url(#linear-gradient-2);}.cls-3{fill:url(#linear-gradient-3);}.cls-4{fill:url(#linear-gradient-4);}.cls-5{fill:url(#linear-gradient-5);}.cls-10,.cls-6{fill:#5c181e;}.cls-7{fill:url(#linear-gradient-6);}.cls-8,.cls-9{fill:#686aad;}.cls-10,.cls-11,.cls-12,.cls-13,.cls-14,.cls-8{fill-rule:evenodd;}.cls-11{fill:#fff;}.cls-12{fill:#010101;}.cls-13{fill:url(#linear-gradient-7);}.cls-14{fill:url(#linear-gradient-8);}</style><linearGradient id="linear-gradient" x1="24.93" y1="83.41" x2="24.93" y2="118.51" gradientUnits="userSpaceOnUse"><stop offset="0.1" stop-color="#d3b8b1"/><stop offset="0.52" stop-color="#8b4b44"/><stop offset="1" stop-color="#691018"/></linearGradient><linearGradient id="linear-gradient-2" x1="82.29" y1="83.41" x2="82.29" y2="118.51" xlink:href="#linear-gradient"/><linearGradient id="linear-gradient-3" x1="136.99" y1="83.41" x2="136.99" y2="118.51" xlink:href="#linear-gradient"/><linearGradient id="linear-gradient-4" x1="190.09" y1="83.41" x2="190.09" y2="118.51" xlink:href="#linear-gradient"/><linearGradient id="linear-gradient-5" x1="8.14" y1="71.81" x2="8.14" y2="38.56" xlink:href="#linear-gradient"/><linearGradient id="linear-gradient-6" x1="188.81" y1="71.81" x2="188.81" y2="38.56" xlink:href="#linear-gradient"/><linearGradient id="linear-gradient-7" x1="272.6" y1="139.35" x2="355.98" y2="139.35" xlink:href="#linear-gradient"/><linearGradient id="linear-gradient-8" x1="226.34" y1="112.7" x2="355.98" y2="112.7" xlink:href="#linear-gradient"/></defs><g id="Layer_2" data-name="Layer 2"><g id="Layer_1-2" data-name="Layer 1"><path class="cls-1" d="M49.86,133.74v11.73h-47v-9.33l24-22.66A25.4,25.4,0,0,0,32,107.21a11.4,11.4,0,0,0,1.34-5.2,6.86,6.86,0,0,0-2.54-5.73c-1.68-1.33-4.16-2-7.42-2A17,17,0,0,0,16,95.84a14,14,0,0,0-5.51,4.66L0,93.75a24.57,24.57,0,0,1,10-8.49,33.64,33.64,0,0,1,14.67-3.07,30.17,30.17,0,0,1,12.13,2.27,18.64,18.64,0,0,1,8.08,6.4,16.52,16.52,0,0,1,2.89,9.73,21.7,21.7,0,0,1-2.13,9.51q-2.13,4.44-8.27,10.13l-14.3,13.51Z"/><path class="cls-2" d="M68.52,142.72a25.66,25.66,0,0,1-9.47-11.07,40.17,40.17,0,0,1-3.42-17.28,40.18,40.18,0,0,1,3.42-17.29A25.58,25.58,0,0,1,68.52,86a26.69,26.69,0,0,1,27.55,0,25.56,25.56,0,0,1,9.46,11.06A40.18,40.18,0,0,1,109,114.37a40.17,40.17,0,0,1-3.42,17.28,25.64,25.64,0,0,1-9.46,11.07,26.75,26.75,0,0,1-27.55,0Zm22.7-13.25q3.25-4.87,3.25-15.1T91.22,99.26a10.52,10.52,0,0,0-17.77,0q-3.24,4.89-3.24,15.11t3.24,15.1a10.52,10.52,0,0,0,17.77,0Z"/><path class="cls-3" d="M161.92,133.74v11.73h-47v-9.33l24-22.66a25.48,25.48,0,0,0,5.16-6.27,11.38,11.38,0,0,0,1.33-5.2,6.86,6.86,0,0,0-2.53-5.73c-1.69-1.33-4.17-2-7.42-2a17,17,0,0,0-7.38,1.56,14.09,14.09,0,0,0-5.51,4.66l-10.49-6.75a24.53,24.53,0,0,1,10-8.49,33.56,33.56,0,0,1,14.66-3.07,30.17,30.17,0,0,1,12.13,2.27,18.67,18.67,0,0,1,8.09,6.4,16.59,16.59,0,0,1,2.89,9.73,21.57,21.57,0,0,1-2.14,9.51q-2.13,4.44-8.26,10.13l-14.31,13.51Z"/><path class="cls-4" d="M208.62,111.88q6.27,5.24,6.27,14A19.46,19.46,0,0,1,212,136.27a19.86,19.86,0,0,1-8.66,7.47,33.07,33.07,0,0,1-14.35,2.8,48.8,48.8,0,0,1-12.94-1.74,33.25,33.25,0,0,1-10.79-4.93l5.68-11a27,27,0,0,0,8.18,4.13,31.18,31.18,0,0,0,9.51,1.47c3.61,0,6.46-.71,8.53-2.13a6.83,6.83,0,0,0,3.11-6,6.69,6.69,0,0,0-3.24-6q-3.25-2-11.24-2H169.92l3.2-35h37.95V94.81H185.12l-1,11.82h5.06Q202.36,106.63,208.62,111.88Z"/><path class="cls-5" d="M0,30.57V72.79H16.29V47.63A33.14,33.14,0,0,1,0,30.57Z"/><path class="cls-6" d="M30.36,32a14.08,14.08,0,0,1-14.07-14h0V2.41H0V17.89c0,.47,0,.93,0,1.39,0,.13,0,.25,0,.38,0,.39.05.77.08,1.15l0,.24c0,.45.1.89.17,1.33,0,.12,0,.24,0,.36.06.34.12.69.19,1,0,.12,0,.23.07.35.08.42.18.84.29,1.26l.09.33q.12.48.27,1c0,.14.08.28.13.42.12.39.25.78.39,1.16l.12.3c.11.31.23.62.36.92l.2.47.36.8.21.45c.16.32.33.64.5,1s.18.34.28.51l.35.61.3.51.59.91c.12.18.25.36.37.55l.33.46.42.57.31.39c.27.34.55.67.83,1,.09.11.18.22.28.32s.35.4.54.6l.23.24c.37.39.76.78,1.15,1.15l.14.13.65.59.2.17c.7.61,1.43,1.18,2.19,1.72l.16.12c.78.55,1.59,1.07,2.42,1.54l.13.08.85.46h0a30.17,30.17,0,0,0,14.07,3.47Z"/><path class="cls-6" d="M40.44,68.27A34.51,34.51,0,0,1,26.77,55.73a33.67,33.67,0,0,1-5-18.13,33.64,33.64,0,0,1,5-18.13A34.36,34.36,0,0,1,40.44,6.93,41.71,41.71,0,0,1,60,2.41,42.33,42.33,0,0,1,76.54,5.52,33,33,0,0,1,89,14.46L78.5,23.79a22.82,22.82,0,0,0-17.7-8,24.2,24.2,0,0,0-11.66,2.77,20.08,20.08,0,0,0-8,7.73A22.16,22.16,0,0,0,38.28,37.6a22.1,22.1,0,0,0,2.87,11.27,20,20,0,0,0,8,7.73A24.09,24.09,0,0,0,60.8,59.37,22.69,22.69,0,0,0,78.5,51.3L89,60.63a32.5,32.5,0,0,1-12.46,9.05A42.68,42.68,0,0,1,59.9,72.79,41.59,41.59,0,0,1,40.44,68.27Z"/><path class="cls-7" d="M180.66,50.71V72.79H197V30.09A42.22,42.22,0,0,1,180.66,50.71Z"/><path class="cls-6" d="M158.14,2.41V15.68h22.52v.05h0A23.24,23.24,0,0,1,157.45,38.9H143.36L128,55.18h29.49A39.32,39.32,0,0,0,181.52,47l.23-.18c.48-.38,1-.77,1.43-1.18l.28-.24c.5-.44,1-.89,1.47-1.36l.1-.09.72-.72.31-.33c.37-.39.74-.79,1.09-1.19.13-.14.25-.28.37-.43.28-.32.55-.65.82-1l.51-.65c.18-.23.35-.47.52-.7l.46-.65.67-1c.16-.24.31-.48.46-.73s.27-.42.4-.63c.23-.39.45-.77.66-1.16.12-.21.22-.41.33-.61s.37-.7.54-1,.21-.43.31-.65.34-.72.49-1.09l.23-.51c.19-.46.37-.93.55-1.4.06-.16.12-.32.17-.48.17-.48.34-.95.49-1.44l.09-.3c.15-.48.29-1,.41-1.44,0-.14.08-.27.11-.4.13-.53.26-1.06.37-1.6,0-.13,0-.26.08-.39.11-.56.21-1.13.3-1.7,0,0,0-.05,0-.08.09-.56.16-1.13.22-1.7,0-.11,0-.23,0-.34.05-.58.1-1.15.13-1.73,0-.12,0-.23,0-.35,0-.6,0-1.21,0-1.82h35.2V2.41Z"/><path class="cls-6" d="M142.11,5.52a24.13,24.13,0,0,1,10.6,8.85A24.39,24.39,0,0,1,156.43,28c0,5.16-1.24,11.53-3.72,15.39a23.66,23.66,0,0,1-10.6,8.84,39.61,39.61,0,0,1-16.24,3.07H111.69V72.79H95.4V2.41h30.47A39.28,39.28,0,0,1,142.11,5.52Zm-6,30.09a9.81,9.81,0,0,0,3.82-8.38,9.71,9.71,0,0,0-3.82-8.38q-3.81-3.18-11.16-3.17H111.69V38.77H125Q132.31,38.77,136.12,35.61Z"/><path class="cls-6" d="M208.09,21.27l0,12.81h-3l0-10.43h-2.56V21.27Z"/><path class="cls-6" d="M222.08,31.39H220v2.69h-2.89V31.39h-6.9v-2l6-8.13h3.11L213.75,29h3.44v-2.4H220V29h2.08Z"/><path class="cls-6" d="M225.54,22.05h-1.32v-.78h3.61v.78H226.5v3.36h-1Z"/><path class="cls-6" d="M232.14,21.27v4.14h-1V23.72H229.3v1.69h-1V21.27h1V22.9h1.89V21.27Z"/><path class="cls-6" d="M1.75,156.61v6.61H1v-6.61Z"/><path class="cls-6" d="M4.29,163.22H3.56v-4.88h.73v.85a2.18,2.18,0,0,1,.64-.68,1.79,1.79,0,0,1,1-.28,2,2,0,0,1,.79.15,1.47,1.47,0,0,1,.58.4,1.83,1.83,0,0,1,.37.62,2.47,2.47,0,0,1,.13.79v3H7.1v-2.85a1.59,1.59,0,0,0-.35-1.08,1.28,1.28,0,0,0-1-.4,1.58,1.58,0,0,0-.58.11,1.4,1.4,0,0,0-.47.32,1.47,1.47,0,0,0-.31.48,1.79,1.79,0,0,0-.1.62Z"/><path class="cls-6" d="M10.36,161.83a.76.76,0,0,0,.22.63.93.93,0,0,0,.6.18,2,2,0,0,0,.35,0,1.65,1.65,0,0,0,.36-.14v.63a1.44,1.44,0,0,1-.41.15,1.74,1.74,0,0,1-.47.05,1.93,1.93,0,0,1-.55-.07A1.11,1.11,0,0,1,10,163a1.21,1.21,0,0,1-.29-.43,1.74,1.74,0,0,1-.1-.63v-3H9v-.64h.68v-1.47h.73v1.47H11.9V159H10.36Z"/><path class="cls-6" d="M13.68,161.75a1.58,1.58,0,0,0,.39.52,1.51,1.51,0,0,0,.53.32,1.74,1.74,0,0,0,.61.11,1.8,1.8,0,0,0,.87-.19,2.44,2.44,0,0,0,.67-.5l.45.41a2.82,2.82,0,0,1-.84.66,2.41,2.41,0,0,1-1.17.25,2.46,2.46,0,0,1-.94-.18,2.32,2.32,0,0,1-.78-.52,2.42,2.42,0,0,1-.53-.81,2.68,2.68,0,0,1-.2-1,2.72,2.72,0,0,1,.18-1,2.54,2.54,0,0,1,.49-.81,2.14,2.14,0,0,1,.74-.55,2.23,2.23,0,0,1,.94-.2,2.18,2.18,0,0,1,1.68.76,2.49,2.49,0,0,1,.44.82,3.33,3.33,0,0,1,.15,1v.11a.57.57,0,0,1,0,.12H13.49A2.12,2.12,0,0,0,13.68,161.75Zm2.94-1.24a2.62,2.62,0,0,0-.14-.63,1.62,1.62,0,0,0-.3-.53,1.71,1.71,0,0,0-.47-.37,1.47,1.47,0,0,0-.64-.13,1.28,1.28,0,0,0-.59.13,1.39,1.39,0,0,0-.48.34,1.93,1.93,0,0,0-.34.53,2.29,2.29,0,0,0-.17.66Z"/><path class="cls-6" d="M19.36,163.22h-.72v-4.88h.72v1.27a2.77,2.77,0,0,1,.33-.55,2.39,2.39,0,0,1,.46-.44,1.68,1.68,0,0,1,.55-.28,2.27,2.27,0,0,1,.65-.09V159H21.3a1.86,1.86,0,0,0-.75.14,1.55,1.55,0,0,0-.62.42,2,2,0,0,0-.42.71,2.85,2.85,0,0,0-.15,1Z"/><path class="cls-6" d="M23.19,163.22h-.73v-4.88h.73v.85a2.18,2.18,0,0,1,.64-.68,1.79,1.79,0,0,1,1-.28,2,2,0,0,1,.79.15,1.47,1.47,0,0,1,.58.4,1.83,1.83,0,0,1,.37.62,2.47,2.47,0,0,1,.13.79v3H26v-2.85a1.59,1.59,0,0,0-.35-1.08,1.28,1.28,0,0,0-1-.4,1.58,1.58,0,0,0-.58.11,1.4,1.4,0,0,0-.47.32,1.47,1.47,0,0,0-.31.48,1.79,1.79,0,0,0-.1.62Z"/><path class="cls-6" d="M29.25,159a5.74,5.74,0,0,0-.69.26l-.22-.59a4.52,4.52,0,0,1,.82-.3,4,4,0,0,1,1-.11,2.17,2.17,0,0,1,1.53.5,1.9,1.9,0,0,1,.54,1.47v3h-.7v-.74a2.34,2.34,0,0,1-.68.59,2.11,2.11,0,0,1-1.08.25,2.52,2.52,0,0,1-.67-.09,1.76,1.76,0,0,1-.58-.29,1.49,1.49,0,0,1-.42-.48,1.41,1.41,0,0,1-.15-.67,1.51,1.51,0,0,1,.15-.68,1.37,1.37,0,0,1,.43-.5,2,2,0,0,1,.66-.3,3.12,3.12,0,0,1,.84-.1,6.32,6.32,0,0,1,.82,0,4.82,4.82,0,0,1,.68.16v-.17a1.24,1.24,0,0,0-.38-1,1.58,1.58,0,0,0-1.07-.34A3.22,3.22,0,0,0,29.25,159ZM29,161a.87.87,0,0,0-.37.75.92.92,0,0,0,.1.41,1.14,1.14,0,0,0,.27.31,1.18,1.18,0,0,0,.39.19,1.78,1.78,0,0,0,.47.07,2.19,2.19,0,0,0,.63-.1,1.73,1.73,0,0,0,.52-.28,1.25,1.25,0,0,0,.35-.41,1.18,1.18,0,0,0,.12-.53V161l-.62-.14a5,5,0,0,0-.81-.06A1.75,1.75,0,0,0,29,161Z"/><path class="cls-6" d="M34.68,161.83a.76.76,0,0,0,.22.63.93.93,0,0,0,.6.18,2,2,0,0,0,.35,0,1.65,1.65,0,0,0,.36-.14v.63a1.44,1.44,0,0,1-.41.15,1.74,1.74,0,0,1-.47.05,1.93,1.93,0,0,1-.55-.07,1.11,1.11,0,0,1-.44-.24,1.21,1.21,0,0,1-.29-.43,1.74,1.74,0,0,1-.1-.63v-3h-.68v-.64H34v-1.47h.73v1.47h1.54V159H34.68Z"/><path class="cls-6" d="M37.53,157.27v-.8h.83v.8Zm0,5.95v-4.88h.73v4.88Z"/><path class="cls-6" d="M44.58,161.76a2.63,2.63,0,0,1-.53.82,2.7,2.7,0,0,1-.81.55,2.51,2.51,0,0,1-1,.2,2.4,2.4,0,0,1-1-.2,2.53,2.53,0,0,1-.8-.55,2.32,2.32,0,0,1-.53-.81,2.45,2.45,0,0,1-.19-1,2.52,2.52,0,0,1,.19-1,2.28,2.28,0,0,1,.53-.82,2.38,2.38,0,0,1,.8-.55,2.5,2.5,0,0,1,1-.21,2.44,2.44,0,0,1,1,.21,2.67,2.67,0,0,1,.81.54,2.58,2.58,0,0,1,.53.81,2.71,2.71,0,0,1,.19,1A2.54,2.54,0,0,1,44.58,161.76ZM43.89,160a1.71,1.71,0,0,0-.38-.6,1.66,1.66,0,0,0-.57-.41,1.72,1.72,0,0,0-.72-.15,1.9,1.9,0,0,0-.73.14,1.54,1.54,0,0,0-.56.41,1.81,1.81,0,0,0-.36.6,2,2,0,0,0,0,1.48,1.8,1.8,0,0,0,.38.61,1.78,1.78,0,0,0,.57.4,1.72,1.72,0,0,0,.72.15,1.89,1.89,0,0,0,.72-.14,1.78,1.78,0,0,0,.57-.4,1.84,1.84,0,0,0,.37-.6,2,2,0,0,0,.13-.74A2.08,2.08,0,0,0,43.89,160Z"/><path class="cls-6" d="M46.82,163.22h-.73v-4.88h.73v.85a2.18,2.18,0,0,1,.64-.68,1.77,1.77,0,0,1,1-.28,1.9,1.9,0,0,1,.78.15,1.51,1.51,0,0,1,.59.4,1.83,1.83,0,0,1,.37.62,2.47,2.47,0,0,1,.13.79v3h-.73v-2.85a1.59,1.59,0,0,0-.35-1.08,1.28,1.28,0,0,0-1-.4,1.58,1.58,0,0,0-.58.11,1.4,1.4,0,0,0-.47.32,1.47,1.47,0,0,0-.31.48,1.79,1.79,0,0,0-.1.62Z"/><path class="cls-6" d="M52.88,159a5.74,5.74,0,0,0-.69.26l-.22-.59a4.26,4.26,0,0,1,.82-.3,4,4,0,0,1,1-.11,2.17,2.17,0,0,1,1.53.5,1.9,1.9,0,0,1,.54,1.47v3h-.7v-.74a2.34,2.34,0,0,1-.68.59,2.11,2.11,0,0,1-1.08.25,2.52,2.52,0,0,1-.67-.09,1.76,1.76,0,0,1-.58-.29,1.49,1.49,0,0,1-.42-.48,1.41,1.41,0,0,1-.15-.67,1.51,1.51,0,0,1,.15-.68,1.37,1.37,0,0,1,.43-.5,2,2,0,0,1,.66-.3,3.12,3.12,0,0,1,.84-.1,6.32,6.32,0,0,1,.82,0,4.82,4.82,0,0,1,.68.16v-.17a1.24,1.24,0,0,0-.38-1,1.58,1.58,0,0,0-1.07-.34A3.22,3.22,0,0,0,52.88,159Zm-.23,2a.87.87,0,0,0-.37.75.8.8,0,0,0,.1.41,1.14,1.14,0,0,0,.27.31,1.18,1.18,0,0,0,.39.19,1.77,1.77,0,0,0,.46.07,2.2,2.2,0,0,0,.64-.1,1.73,1.73,0,0,0,.52-.28A1.25,1.25,0,0,0,55,162a1.18,1.18,0,0,0,.12-.53V161l-.62-.14a5,5,0,0,0-.81-.06A1.73,1.73,0,0,0,52.65,161Z"/><path class="cls-6" d="M57.44,163.22v-6.89h.72v6.89Z"/><path class="cls-6" d="M67.94,162.65a3.67,3.67,0,0,1-.6.36,3.5,3.5,0,0,1-.69.24,4.07,4.07,0,0,1-.82.08,3.34,3.34,0,0,1-1.32-.26,3.38,3.38,0,0,1-1.05-.72,3.22,3.22,0,0,1-.69-1.08,3.56,3.56,0,0,1-.25-1.35,3.5,3.5,0,0,1,.25-1.33,3.27,3.27,0,0,1,3.09-2.09,4,4,0,0,1,.81.07,2.85,2.85,0,0,1,.68.22,2.66,2.66,0,0,1,.57.33,3.42,3.42,0,0,1,.51.43l-.51.54a4.09,4.09,0,0,0-.91-.65,2.45,2.45,0,0,0-1.16-.25,2.61,2.61,0,0,0-1,.2A2.46,2.46,0,0,0,64,158a2.73,2.73,0,0,0-.54.86,3.14,3.14,0,0,0,0,2.15,2.66,2.66,0,0,0,.54.87,2.45,2.45,0,0,0,1.83.79,2.52,2.52,0,0,0,1.17-.25,3.78,3.78,0,0,0,1-.7l.49.48A4.69,4.69,0,0,1,67.94,162.65Z"/><path class="cls-6" d="M74.15,161.76a2.82,2.82,0,0,1-.53.82,2.7,2.7,0,0,1-.81.55,2.51,2.51,0,0,1-1,.2,2.37,2.37,0,0,1-1-.2,2.7,2.7,0,0,1-.81-.55,2.49,2.49,0,0,1-.71-1.79,2.7,2.7,0,0,1,.18-1A2.58,2.58,0,0,1,70,159a2.53,2.53,0,0,1,.81-.55,2.58,2.58,0,0,1,2,0,2.67,2.67,0,0,1,.81.54,2.77,2.77,0,0,1,.53.81,2.7,2.7,0,0,1,.18,1A2.53,2.53,0,0,1,74.15,161.76ZM73.46,160a1.86,1.86,0,0,0-.38-.6,1.78,1.78,0,0,0-1.29-.56,1.9,1.9,0,0,0-.73.14,1.54,1.54,0,0,0-.56.41,1.84,1.84,0,0,0-.37.6,2.26,2.26,0,0,0-.13.74,2,2,0,0,0,.14.74,1.8,1.8,0,0,0,.38.61,1.78,1.78,0,0,0,.57.4,1.71,1.71,0,0,0,.71.15,1.9,1.9,0,0,0,.73-.14,1.78,1.78,0,0,0,.57-.4,1.84,1.84,0,0,0,.37-.6,2.26,2.26,0,0,0,.13-.74A2.08,2.08,0,0,0,73.46,160Z"/><path class="cls-6" d="M76.38,163.22h-.72v-4.88h.72v.85a2.34,2.34,0,0,1,.65-.68,1.76,1.76,0,0,1,1-.28,2,2,0,0,1,.79.15,1.51,1.51,0,0,1,.59.4,1.83,1.83,0,0,1,.37.62,2.47,2.47,0,0,1,.12.79v3H79.2v-2.85a1.59,1.59,0,0,0-.35-1.08,1.29,1.29,0,0,0-1-.4,1.58,1.58,0,0,0-.58.11,1.4,1.4,0,0,0-.47.32,1.33,1.33,0,0,0-.31.48,1.8,1.8,0,0,0-.11.62Z"/><path class="cls-6" d="M84,158.36V159H82.47v4.24h-.72V159h-.67v-.63h.67v-.43a1.69,1.69,0,0,1,.38-1.21,1.39,1.39,0,0,1,1.09-.42,2.85,2.85,0,0,1,.44,0l.36.09v.64l-.36-.09a1.25,1.25,0,0,0-.35,0c-.56,0-.85.35-.85,1v.4Z"/><path class="cls-6" d="M85.48,161.75a1.6,1.6,0,0,0,.91.84,1.83,1.83,0,0,0,.61.11,1.84,1.84,0,0,0,.88-.19,2.4,2.4,0,0,0,.66-.5l.46.41a3.1,3.1,0,0,1-.84.66,2.47,2.47,0,0,1-1.17.25,2.51,2.51,0,0,1-.95-.18,2.38,2.38,0,0,1-.77-.52,2.28,2.28,0,0,1-.53-.81,2.68,2.68,0,0,1-.2-1,2.72,2.72,0,0,1,.18-1,2.36,2.36,0,0,1,1.22-1.36,2.26,2.26,0,0,1,.94-.2,2.12,2.12,0,0,1,1,.21,2,2,0,0,1,.72.55,2.33,2.33,0,0,1,.45.82,3.33,3.33,0,0,1,.15,1v.11s0,.07,0,.12H85.29A1.73,1.73,0,0,0,85.48,161.75Zm2.93-1.24a2.22,2.22,0,0,0-.14-.63,1.8,1.8,0,0,0-.29-.53,1.71,1.71,0,0,0-.47-.37,1.48,1.48,0,0,0-.65-.13,1.31,1.31,0,0,0-.59.13,1.61,1.61,0,0,0-.48.34,1.9,1.9,0,0,0-.33.53,2,2,0,0,0-.17.66Z"/><path class="cls-6" d="M91.16,163.22h-.73v-4.88h.73v1.27a2.77,2.77,0,0,1,.33-.55,2.08,2.08,0,0,1,.45-.44,1.73,1.73,0,0,1,.56-.28,2.27,2.27,0,0,1,.65-.09V159h-.06a1.92,1.92,0,0,0-.75.14,1.59,1.59,0,0,0-.61.42,2,2,0,0,0-.42.71,2.85,2.85,0,0,0-.15,1Z"/><path class="cls-6" d="M94.68,161.75a1.58,1.58,0,0,0,.39.52,1.51,1.51,0,0,0,.53.32,1.78,1.78,0,0,0,.61.11,1.8,1.8,0,0,0,.87-.19,2.44,2.44,0,0,0,.67-.5l.45.41a2.82,2.82,0,0,1-.84.66,2.41,2.41,0,0,1-1.17.25,2.46,2.46,0,0,1-.94-.18,2.32,2.32,0,0,1-.78-.52,2.42,2.42,0,0,1-.53-.81,2.68,2.68,0,0,1-.19-1,2.71,2.71,0,0,1,.17-1,2.54,2.54,0,0,1,.49-.81,2.14,2.14,0,0,1,.74-.55,2.23,2.23,0,0,1,.94-.2,2.12,2.12,0,0,1,1,.21,2.16,2.16,0,0,1,.72.55,2.49,2.49,0,0,1,.44.82,3.33,3.33,0,0,1,.15,1v.11a.57.57,0,0,1,0,.12H94.49A2.12,2.12,0,0,0,94.68,161.75Zm2.94-1.24a2.62,2.62,0,0,0-.14-.63,1.62,1.62,0,0,0-.3-.53,1.71,1.71,0,0,0-.47-.37,1.44,1.44,0,0,0-.64-.13,1.28,1.28,0,0,0-.59.13,1.5,1.5,0,0,0-.48.34,1.93,1.93,0,0,0-.34.53,2.29,2.29,0,0,0-.17.66Z"/><path class="cls-6" d="M100.36,163.22h-.72v-4.88h.72v.85a2.44,2.44,0,0,1,.64-.68,1.81,1.81,0,0,1,1-.28,2,2,0,0,1,.79.15,1.51,1.51,0,0,1,.59.4,1.83,1.83,0,0,1,.37.62,2.47,2.47,0,0,1,.12.79v3h-.72v-2.85a1.59,1.59,0,0,0-.35-1.08,1.29,1.29,0,0,0-1-.4,1.58,1.58,0,0,0-.58.11,1.4,1.4,0,0,0-.47.32,1.33,1.33,0,0,0-.31.48,1.8,1.8,0,0,0-.11.62Z"/><path class="cls-6" d="M108.81,163.06a2.59,2.59,0,0,1-2.15.07,2.65,2.65,0,0,1-.8-.55,2.6,2.6,0,0,1-.71-1.79,2.52,2.52,0,0,1,.19-1,2.39,2.39,0,0,1,.52-.82,2.48,2.48,0,0,1,.8-.55,2.31,2.31,0,0,1,1-.21,3,3,0,0,1,.63.07,3.16,3.16,0,0,1,.52.18,3.29,3.29,0,0,1,.44.28l.37.34-.49.51a3.49,3.49,0,0,0-.63-.52,1.6,1.6,0,0,0-.85-.21,1.81,1.81,0,0,0-.69.14,1.59,1.59,0,0,0-.55.41,1.84,1.84,0,0,0-.37.6,2,2,0,0,0,0,1.48,1.73,1.73,0,0,0,1.66,1.16,1.63,1.63,0,0,0,.83-.21,2.37,2.37,0,0,0,.66-.52l.46.44A3,3,0,0,1,108.81,163.06Z"/><path class="cls-6" d="M111.33,161.75a1.58,1.58,0,0,0,.39.52,1.6,1.6,0,0,0,.53.32,1.78,1.78,0,0,0,.61.11,1.87,1.87,0,0,0,.88-.19,2.4,2.4,0,0,0,.66-.5l.45.41a2.82,2.82,0,0,1-.84.66,2.41,2.41,0,0,1-1.17.25,2.5,2.5,0,0,1-.94-.18,2.32,2.32,0,0,1-.78-.52,2.59,2.59,0,0,1-.53-.81,2.68,2.68,0,0,1-.19-1,2.94,2.94,0,0,1,.17-1,2.54,2.54,0,0,1,.49-.81,2.24,2.24,0,0,1,.74-.55,2.26,2.26,0,0,1,.94-.2,2.12,2.12,0,0,1,1,.21,2,2,0,0,1,.72.55,2.31,2.31,0,0,1,.44.82,3.34,3.34,0,0,1,.16,1v.11s0,.07,0,.12h-3.87A2.12,2.12,0,0,0,111.33,161.75Zm2.94-1.24a2.22,2.22,0,0,0-.14-.63,1.62,1.62,0,0,0-.3-.53,1.57,1.57,0,0,0-.47-.37,1.44,1.44,0,0,0-.64-.13,1.31,1.31,0,0,0-.59.13,1.61,1.61,0,0,0-.48.34,1.93,1.93,0,0,0-.34.53,2.66,2.66,0,0,0-.17.66Z"/><path class="cls-6" d="M123.71,161.76a2.46,2.46,0,0,1-.53.82,2.7,2.7,0,0,1-.81.55,2.51,2.51,0,0,1-1,.2,2.4,2.4,0,0,1-1-.2,2.53,2.53,0,0,1-.8-.55,2.32,2.32,0,0,1-.53-.81,2.45,2.45,0,0,1-.19-1,2.52,2.52,0,0,1,.19-1,2.28,2.28,0,0,1,.53-.82,2.38,2.38,0,0,1,.8-.55,2.53,2.53,0,0,1,1-.21,2.44,2.44,0,0,1,1,.21,2.67,2.67,0,0,1,.81.54,2.58,2.58,0,0,1,.53.81,2.71,2.71,0,0,1,.19,1A2.54,2.54,0,0,1,123.71,161.76ZM123,160a1.88,1.88,0,0,0-.39-.6,1.66,1.66,0,0,0-.57-.41,1.72,1.72,0,0,0-.72-.15,1.9,1.9,0,0,0-.73.14,1.54,1.54,0,0,0-.56.41,2,2,0,0,0-.36.6,2,2,0,0,0,0,1.48,1.8,1.8,0,0,0,.38.61,1.78,1.78,0,0,0,.57.4,1.72,1.72,0,0,0,.72.15,2,2,0,0,0,.73-.14,1.74,1.74,0,0,0,.56-.4,1.84,1.84,0,0,0,.37-.6,2,2,0,0,0,.13-.74A2.08,2.08,0,0,0,123,160Z"/><path class="cls-6" d="M126,163.22h-.73v-4.88H126v.85a2.18,2.18,0,0,1,.64-.68,1.79,1.79,0,0,1,1-.28,2,2,0,0,1,.79.15,1.47,1.47,0,0,1,.58.4,1.83,1.83,0,0,1,.37.62,2.47,2.47,0,0,1,.13.79v3h-.73v-2.85a1.59,1.59,0,0,0-.35-1.08,1.28,1.28,0,0,0-1-.4,1.58,1.58,0,0,0-.58.11,1.4,1.4,0,0,0-.47.32,1.31,1.31,0,0,0-.3.48,1.59,1.59,0,0,0-.11.62Z"/><path class="cls-6" d="M138.54,163.22l-1.92-2.57h-1.88v2.57H134v-6.61h2.84a3.33,3.33,0,0,1,1,.14,2.44,2.44,0,0,1,.75.4,1.74,1.74,0,0,1,.48.63,1.91,1.91,0,0,1,.17.8,2,2,0,0,1-.13.75,1.76,1.76,0,0,1-.37.56,2.14,2.14,0,0,1-.58.4,2.46,2.46,0,0,1-.71.23l2,2.7Zm-.51-5.57a2,2,0,0,0-1.25-.35h-2V160h2a2.43,2.43,0,0,0,.68-.09,2,2,0,0,0,.54-.27,1.39,1.39,0,0,0,.36-.44,1.32,1.32,0,0,0,.12-.57A1.14,1.14,0,0,0,138,157.65Z"/><path class="cls-6" d="M145.19,161.76a2.63,2.63,0,0,1-.53.82,2.7,2.7,0,0,1-.81.55,2.51,2.51,0,0,1-1,.2,2.37,2.37,0,0,1-1-.2,2.7,2.7,0,0,1-.81-.55,2.6,2.6,0,0,1-.71-1.79,2.52,2.52,0,0,1,.19-1A2.39,2.39,0,0,1,141,159a2.53,2.53,0,0,1,.81-.55,2.46,2.46,0,0,1,1-.21,2.44,2.44,0,0,1,1,.21,2.67,2.67,0,0,1,.81.54,2.77,2.77,0,0,1,.53.81,2.71,2.71,0,0,1,.19,1A2.54,2.54,0,0,1,145.19,161.76ZM144.5,160a1.86,1.86,0,0,0-.38-.6,1.78,1.78,0,0,0-1.29-.56,1.9,1.9,0,0,0-.73.14,1.54,1.54,0,0,0-.56.41,1.84,1.84,0,0,0-.37.6,2.26,2.26,0,0,0-.13.74,2,2,0,0,0,.14.74,1.8,1.8,0,0,0,.38.61,1.78,1.78,0,0,0,.57.4,1.72,1.72,0,0,0,.72.15,1.89,1.89,0,0,0,.72-.14,1.78,1.78,0,0,0,.57-.4,1.84,1.84,0,0,0,.37-.6,2,2,0,0,0,.13-.74A2.08,2.08,0,0,0,144.5,160Z"/><path class="cls-6" d="M147.67,159a6.46,6.46,0,0,0-.69.26l-.22-.59a4.52,4.52,0,0,1,.82-.3,4,4,0,0,1,1-.11,2.19,2.19,0,0,1,1.54.5,1.9,1.9,0,0,1,.54,1.47v3h-.7v-.74a2.38,2.38,0,0,1-.69.59,2.06,2.06,0,0,1-1.08.25,2.39,2.39,0,0,1-.66-.09,1.71,1.71,0,0,1-.59-.29,1.46,1.46,0,0,1-.41-.48,1.3,1.3,0,0,1-.16-.67,1.51,1.51,0,0,1,.15-.68,1.37,1.37,0,0,1,.43-.5,2.22,2.22,0,0,1,.66-.3,3.25,3.25,0,0,1,.85-.1,6.56,6.56,0,0,1,.82,0,5.17,5.17,0,0,1,.68.16v-.17a1.25,1.25,0,0,0-.39-1,1.58,1.58,0,0,0-1.07-.34A3.22,3.22,0,0,0,147.67,159Zm-.23,2a.88.88,0,0,0-.36.75.91.91,0,0,0,.09.41,1.14,1.14,0,0,0,.27.31,1.29,1.29,0,0,0,.39.19,1.84,1.84,0,0,0,.47.07,2.13,2.13,0,0,0,.63-.1,1.73,1.73,0,0,0,.52-.28,1.25,1.25,0,0,0,.35-.41,1.19,1.19,0,0,0,.13-.53V161l-.63-.14a4.74,4.74,0,0,0-.8-.06A1.79,1.79,0,0,0,147.44,161Z"/><path class="cls-6" d="M156.08,163.22v-1a4.23,4.23,0,0,1-.33.41,2.71,2.71,0,0,1-.41.35,2.17,2.17,0,0,1-.51.24,2.39,2.39,0,0,1-.62.08,2.16,2.16,0,0,1-.86-.17,2.39,2.39,0,0,1-.74-.49,2.48,2.48,0,0,1-.53-.8,3,3,0,0,1,0-2.15,2.38,2.38,0,0,1,.53-.8,2.42,2.42,0,0,1,.74-.5,2.18,2.18,0,0,1,.86-.18,2,2,0,0,1,.62.09,2.22,2.22,0,0,1,.52.23,2.12,2.12,0,0,1,.41.33,2.37,2.37,0,0,1,.32.39v-2.94h.73v6.89ZM156,160a1.74,1.74,0,0,0-.39-.59A2,2,0,0,0,155,159a1.66,1.66,0,0,0-.66-.14,1.86,1.86,0,0,0-.67.13,1.79,1.79,0,0,0-.54.37,1.85,1.85,0,0,0-.37.59,2.22,2.22,0,0,0-.13.79,2.13,2.13,0,0,0,.13.78,1.76,1.76,0,0,0,.38.6,1.56,1.56,0,0,0,.54.38,1.74,1.74,0,0,0,1.32,0,2.18,2.18,0,0,0,.57-.38,1.88,1.88,0,0,0,.39-.6,2.08,2.08,0,0,0,0-1.55Z"/><path class="cls-6" d="M162.24,159a5.74,5.74,0,0,0-.69.26l-.22-.59a4.26,4.26,0,0,1,.82-.3,3.93,3.93,0,0,1,.95-.11,2.18,2.18,0,0,1,1.54.5,1.9,1.9,0,0,1,.54,1.47v3h-.7v-.74a2.48,2.48,0,0,1-.68.59,2.11,2.11,0,0,1-1.08.25,2.52,2.52,0,0,1-.67-.09,1.76,1.76,0,0,1-.58-.29,1.49,1.49,0,0,1-.42-.48,1.41,1.41,0,0,1-.15-.67,1.51,1.51,0,0,1,.15-.68,1.37,1.37,0,0,1,.43-.5,2,2,0,0,1,.66-.3,3.12,3.12,0,0,1,.84-.1,6.32,6.32,0,0,1,.82,0,4.82,4.82,0,0,1,.68.16v-.17a1.24,1.24,0,0,0-.38-1,1.58,1.58,0,0,0-1.07-.34A3.22,3.22,0,0,0,162.24,159Zm-.23,2a.87.87,0,0,0-.37.75.8.8,0,0,0,.1.41,1.14,1.14,0,0,0,.27.31,1.18,1.18,0,0,0,.39.19,1.77,1.77,0,0,0,.46.07,2.2,2.2,0,0,0,.64-.1,1.73,1.73,0,0,0,.52-.28,1.39,1.39,0,0,0,.35-.41,1.18,1.18,0,0,0,.12-.53V161l-.62-.14a5,5,0,0,0-.81-.06A1.73,1.73,0,0,0,162,161Z"/><path class="cls-6" d="M167.46,163.22h-.73v-4.88h.73v.85a2.18,2.18,0,0,1,.64-.68,1.79,1.79,0,0,1,1-.28,2,2,0,0,1,.79.15,1.47,1.47,0,0,1,.58.4,1.68,1.68,0,0,1,.37.62,2.22,2.22,0,0,1,.13.79v3h-.73v-2.85a1.59,1.59,0,0,0-.35-1.08,1.28,1.28,0,0,0-1-.4,1.58,1.58,0,0,0-.58.11,1.4,1.4,0,0,0-.47.32,1.31,1.31,0,0,0-.3.48,1.59,1.59,0,0,0-.11.62Z"/><path class="cls-6" d="M176.46,163.22v-1a4.23,4.23,0,0,1-.33.41,2.3,2.3,0,0,1-.41.35,2,2,0,0,1-.51.24,2.33,2.33,0,0,1-.62.08,2.08,2.08,0,0,1-.85-.17,2.32,2.32,0,0,1-.75-.49,2.48,2.48,0,0,1-.53-.8,3,3,0,0,1,0-2.15,2.38,2.38,0,0,1,.53-.8,2.35,2.35,0,0,1,.75-.5,2.16,2.16,0,0,1,1.48-.09,2,2,0,0,1,.51.23,1.86,1.86,0,0,1,.41.33,2.37,2.37,0,0,1,.32.39v-2.94h.73v6.89Zm-.11-3.22a1.76,1.76,0,0,0-.4-.59,2,2,0,0,0-.57-.38,1.65,1.65,0,0,0-.65-.14,1.82,1.82,0,0,0-.67.13,1.72,1.72,0,0,0-.55.37,1.83,1.83,0,0,0-.36.59,2,2,0,0,0-.14.79,1.94,1.94,0,0,0,.14.78,1.74,1.74,0,0,0,.37.6,1.65,1.65,0,0,0,1.21.51,1.64,1.64,0,0,0,.65-.13,2.18,2.18,0,0,0,.57-.38,1.91,1.91,0,0,0,.4-.6,2.22,2.22,0,0,0,0-1.55Z"/><path class="cls-6" d="M187.92,163.22h-.8l-.77-1.75h-3.6l-.78,1.75h-.77l3-6.66h.7Zm-3.37-5.78L183,160.81h3Z"/><path class="cls-6" d="M189.12,157.27v-.8H190v.8Zm0,5.95v-4.88h.73v4.88Z"/><path class="cls-6" d="M192.31,163.22h-.72v-4.88h.72v1.27a2.77,2.77,0,0,1,.33-.55,2.39,2.39,0,0,1,.46-.44,1.68,1.68,0,0,1,.55-.28,2.34,2.34,0,0,1,.66-.09V159h-.06a1.89,1.89,0,0,0-.75.14,1.63,1.63,0,0,0-.62.42,2,2,0,0,0-.41.71,2.61,2.61,0,0,0-.16,1Z"/><path class="cls-6" d="M198,158.36V159h-1.54v4.24h-.73V159H195v-.63h.67v-.43a1.69,1.69,0,0,1,.39-1.21,1.38,1.38,0,0,1,1.09-.42,2.85,2.85,0,0,1,.44,0l.36.09v.64l-.36-.09a1.29,1.29,0,0,0-.35,0c-.57,0-.85.35-.85,1v.4Z"/><path class="cls-6" d="M198.89,157.27v-.8h.84v.8Zm.05,5.95v-4.88h.73v4.88Z"/><path class="cls-6" d="M202,161.75a1.58,1.58,0,0,0,.39.52,1.6,1.6,0,0,0,.53.32,1.78,1.78,0,0,0,.61.11,1.8,1.8,0,0,0,.87-.19,2.3,2.3,0,0,0,.67-.5l.45.41a2.82,2.82,0,0,1-.84.66,2.41,2.41,0,0,1-1.17.25,2.46,2.46,0,0,1-.94-.18,2.32,2.32,0,0,1-.78-.52,2.42,2.42,0,0,1-.53-.81,2.68,2.68,0,0,1-.19-1,2.71,2.71,0,0,1,.17-1,2.54,2.54,0,0,1,.49-.81,2.14,2.14,0,0,1,.74-.55,2.23,2.23,0,0,1,.94-.2,2.12,2.12,0,0,1,1,.21,2.16,2.16,0,0,1,.72.55,2.49,2.49,0,0,1,.44.82,3.33,3.33,0,0,1,.15,1v.11a.57.57,0,0,1,0,.12H201.8A2.12,2.12,0,0,0,202,161.75Zm2.94-1.24a2.62,2.62,0,0,0-.14-.63,1.62,1.62,0,0,0-.3-.53A1.57,1.57,0,0,0,204,159a1.44,1.44,0,0,0-.64-.13,1.31,1.31,0,0,0-.59.13,1.61,1.61,0,0,0-.48.34,1.93,1.93,0,0,0-.34.53,2.29,2.29,0,0,0-.17.66Z"/><path class="cls-6" d="M207,163.22v-6.89h.73v6.89Z"/><path class="cls-6" d="M213.35,163.22v-1a3.21,3.21,0,0,1-.34.41,2.3,2.3,0,0,1-.41.35,2.1,2.1,0,0,1-.5.24,2.45,2.45,0,0,1-.62.08,2.13,2.13,0,0,1-.86-.17,2.32,2.32,0,0,1-.75-.49,2.66,2.66,0,0,1-.53-.8,3.14,3.14,0,0,1,0-2.15,2.54,2.54,0,0,1,.53-.8,2.35,2.35,0,0,1,.75-.5,2.14,2.14,0,0,1,.86-.18,2.06,2.06,0,0,1,.62.09,2,2,0,0,1,.51.23,1.86,1.86,0,0,1,.41.33,3.09,3.09,0,0,1,.33.39v-2.94h.72v6.89Zm-.12-3.22a1.76,1.76,0,0,0-.4-.59,1.79,1.79,0,0,0-.56-.38,1.66,1.66,0,0,0-.66-.14,1.86,1.86,0,0,0-.67.13,1.58,1.58,0,0,0-.54.37,1.69,1.69,0,0,0-.37.59,2.22,2.22,0,0,0-.14.79,2.13,2.13,0,0,0,.14.78,1.74,1.74,0,0,0,.37.6,1.6,1.6,0,0,0,.55.38,1.74,1.74,0,0,0,1.32,0,2,2,0,0,0,.56-.38,1.91,1.91,0,0,0,.4-.6,2.08,2.08,0,0,0,0-1.55Z"/><path class="cls-6" d="M48.12,171a2.07,2.07,0,0,1-.56.68,2.48,2.48,0,0,1-.83.41,3.61,3.61,0,0,1-1,.14h-1.6v2.33h-.75v-6.61h2.47a3.31,3.31,0,0,1,1,.15,2.23,2.23,0,0,1,.78.41,1.71,1.71,0,0,1,.5.66,2.11,2.11,0,0,1,.18.89A2,2,0,0,1,48.12,171Zm-1-2a2.1,2.1,0,0,0-1.29-.36H44.13v2.91h1.63a2.56,2.56,0,0,0,.75-.11,1.91,1.91,0,0,0,.57-.29,1.29,1.29,0,0,0,.37-.47,1.32,1.32,0,0,0,.13-.6A1.26,1.26,0,0,0,47.09,169Z"/><path class="cls-6" d="M50.45,170.34a5.89,5.89,0,0,0-.7.26l-.22-.59a4.61,4.61,0,0,1,.83-.3,3.82,3.82,0,0,1,1-.11,2.19,2.19,0,0,1,1.54.5,1.89,1.89,0,0,1,.54,1.46v3h-.7v-.74a2.38,2.38,0,0,1-.69.59,2.06,2.06,0,0,1-1.08.25,2.44,2.44,0,0,1-.66-.09,1.91,1.91,0,0,1-.59-.29,1.46,1.46,0,0,1-.41-.48,1.3,1.3,0,0,1-.16-.67,1.48,1.48,0,0,1,.15-.68,1.38,1.38,0,0,1,.43-.5,2.22,2.22,0,0,1,.66-.3,3.25,3.25,0,0,1,.85-.1,6.44,6.44,0,0,1,.82.05c.23,0,.46.09.68.15v-.17a1.25,1.25,0,0,0-.38-1,1.57,1.57,0,0,0-1.08-.34A3.08,3.08,0,0,0,50.45,170.34Zm-.24,2a.88.88,0,0,0-.36.74.82.82,0,0,0,.1.42,1,1,0,0,0,.26.31,1.41,1.41,0,0,0,.39.19,1.84,1.84,0,0,0,.47.07,2.08,2.08,0,0,0,.63-.1,1.73,1.73,0,0,0,.52-.28,1.15,1.15,0,0,0,.35-.41,1.2,1.2,0,0,0,.13-.54v-.47a6.07,6.07,0,0,0-.63-.14,4.67,4.67,0,0,0-.8-.07A1.78,1.78,0,0,0,50.21,172.35Z"/><path class="cls-6" d="M58.36,169.67h.79L57,174.59h-.64l-2.12-4.92h.81l1.64,4.05Z"/><path class="cls-6" d="M60.64,173.08a1.84,1.84,0,0,0,.38.52,1.71,1.71,0,0,0,.53.32,1.84,1.84,0,0,0,.62.11,1.8,1.8,0,0,0,.87-.19,2.85,2.85,0,0,0,.67-.5l.45.41a3.31,3.31,0,0,1-.84.66,2.47,2.47,0,0,1-1.17.25,2.51,2.51,0,0,1-.95-.18,2.4,2.4,0,0,1-1.3-1.33,2.68,2.68,0,0,1-.2-1,2.72,2.72,0,0,1,.18-1,2.42,2.42,0,0,1,.48-.81,2.2,2.2,0,0,1,.74-.55,2.26,2.26,0,0,1,.94-.2,2.19,2.19,0,0,1,1,.21,2,2,0,0,1,.71.55,2.33,2.33,0,0,1,.45.82,3.29,3.29,0,0,1,.15,1v.1a.62.62,0,0,1,0,.13H60.45A1.9,1.9,0,0,0,60.64,173.08Zm2.93-1.24a2.61,2.61,0,0,0-.13-.63,1.62,1.62,0,0,0-.3-.53,1.71,1.71,0,0,0-.47-.37,1.48,1.48,0,0,0-.65-.13,1.34,1.34,0,0,0-.59.13,1.45,1.45,0,0,0-.47.34,1.93,1.93,0,0,0-.34.53,2,2,0,0,0-.17.66Z"/><path class="cls-6" d="M69.76,170.16a1.79,1.79,0,0,1,.37-.31,1.82,1.82,0,0,1,.47-.21,2.08,2.08,0,0,1,.58-.08,1.71,1.71,0,0,1,1.33.53,2.06,2.06,0,0,1,.49,1.44v3h-.73V171.7a1.55,1.55,0,0,0-.34-1.09,1.15,1.15,0,0,0-.93-.39,1.55,1.55,0,0,0-.52.1,1.33,1.33,0,0,0-.72.77,1.87,1.87,0,0,0-.11.64v2.82h-.71v-2.87a1.58,1.58,0,0,0-.34-1.07,1.14,1.14,0,0,0-.92-.39,1.3,1.3,0,0,0-1,.44,1.66,1.66,0,0,0-.29.48,1.79,1.79,0,0,0-.1.62v2.79h-.73v-4.88h.73v.82a3,3,0,0,1,.27-.35,2.35,2.35,0,0,1,.33-.3,1.89,1.89,0,0,1,.43-.2,1.82,1.82,0,0,1,.55-.08,1.69,1.69,0,0,1,1,.28,1.78,1.78,0,0,1,.58.7A2.79,2.79,0,0,1,69.76,170.16Z"/><path class="cls-6" d="M75.2,173.08a1.69,1.69,0,0,0,.39.52,1.6,1.6,0,0,0,.53.32,1.78,1.78,0,0,0,.61.11,1.87,1.87,0,0,0,.88-.19,2.62,2.62,0,0,0,.66-.5l.46.41a3.19,3.19,0,0,1-.85.66,2.41,2.41,0,0,1-1.17.25,2.5,2.5,0,0,1-.94-.18A2.6,2.6,0,0,1,75,174a2.67,2.67,0,0,1-.72-1.85,2.94,2.94,0,0,1,.17-1,2.44,2.44,0,0,1,.49-.81,2.11,2.11,0,0,1,.74-.55,2.26,2.26,0,0,1,.94-.2,2.12,2.12,0,0,1,1,.21,2,2,0,0,1,.72.55,2.31,2.31,0,0,1,.44.82,3.29,3.29,0,0,1,.16,1v.1s0,.08,0,.13H75A2.12,2.12,0,0,0,75.2,173.08Zm2.94-1.24a2.22,2.22,0,0,0-.14-.63,1.62,1.62,0,0,0-.3-.53,1.46,1.46,0,0,0-.47-.37,1.41,1.41,0,0,0-.64-.13,1.31,1.31,0,0,0-.59.13,1.61,1.61,0,0,0-.48.34,1.93,1.93,0,0,0-.34.53,2.66,2.66,0,0,0-.17.66Z"/><path class="cls-6" d="M80.89,174.55h-.73v-4.88h.73v.85a2.18,2.18,0,0,1,.64-.68,1.79,1.79,0,0,1,1-.28,2,2,0,0,1,.79.15,1.47,1.47,0,0,1,.58.4,1.88,1.88,0,0,1,.37.61,2.53,2.53,0,0,1,.13.8v3H83.7V171.7a1.59,1.59,0,0,0-.35-1.08,1.28,1.28,0,0,0-1-.4,1.58,1.58,0,0,0-.58.11,1.54,1.54,0,0,0-.47.31,1.44,1.44,0,0,0-.3.49,1.59,1.59,0,0,0-.11.62Z"/><path class="cls-6" d="M87,173.16a.76.76,0,0,0,.22.63.93.93,0,0,0,.6.18,1.34,1.34,0,0,0,.35,0,1.22,1.22,0,0,0,.36-.13v.63a1.93,1.93,0,0,1-.4.15,1.86,1.86,0,0,1-.48,0,1.93,1.93,0,0,1-.55-.07,1.18,1.18,0,0,1-.44-.24,1.21,1.21,0,0,1-.29-.43,1.74,1.74,0,0,1-.1-.63v-2.95h-.68v-.64h.68v-1.48H87v1.48h1.55v.64H87Z"/><path class="cls-6" d="M95.24,174.55h-.75v-5.92H92.27v-.69h5.19v.69H95.24Z"/><path class="cls-6" d="M98.17,173.08a1.69,1.69,0,0,0,.39.52,1.6,1.6,0,0,0,.53.32,1.78,1.78,0,0,0,.61.11,1.87,1.87,0,0,0,.88-.19,2.62,2.62,0,0,0,.66-.5l.45.41a3,3,0,0,1-.84.66,2.41,2.41,0,0,1-1.17.25A2.39,2.39,0,0,1,98,174a2.53,2.53,0,0,1-.53-.81,2.68,2.68,0,0,1-.19-1,2.94,2.94,0,0,1,.17-1,2.44,2.44,0,0,1,.49-.81,2.11,2.11,0,0,1,.74-.55,2.26,2.26,0,0,1,.94-.2,2.12,2.12,0,0,1,1,.21,2.07,2.07,0,0,1,.72.55,2.31,2.31,0,0,1,.44.82,3.29,3.29,0,0,1,.15,1v.23H98A2.12,2.12,0,0,0,98.17,173.08Zm2.94-1.24a2.62,2.62,0,0,0-.14-.63,1.62,1.62,0,0,0-.3-.53,1.57,1.57,0,0,0-.47-.37,1.44,1.44,0,0,0-.64-.13,1.31,1.31,0,0,0-.59.13,1.61,1.61,0,0,0-.48.34,1.93,1.93,0,0,0-.34.53,2.66,2.66,0,0,0-.17.66Z"/><path class="cls-6" d="M106.49,174.39a2.31,2.31,0,0,1-1.16.27,2.55,2.55,0,0,1-1-.2,2.61,2.61,0,0,1-.79-.55,2.6,2.6,0,0,1-.71-1.79,2.52,2.52,0,0,1,.19-1,2.39,2.39,0,0,1,.52-.82,2.44,2.44,0,0,1,.79-.55,2.39,2.39,0,0,1,1-.21,3,3,0,0,1,.63.07,2.13,2.13,0,0,1,.52.18,2.65,2.65,0,0,1,.43.28,3,3,0,0,1,.37.34l-.48.51a3.55,3.55,0,0,0-.64-.52,1.78,1.78,0,0,0-1.53-.07,1.72,1.72,0,0,0-.56.41,1.81,1.81,0,0,0-.36.6,2,2,0,0,0-.14.74,2,2,0,0,0,.14.74,1.91,1.91,0,0,0,.38.61,1.69,1.69,0,0,0,.56.4,1.72,1.72,0,0,0,.72.15,1.63,1.63,0,0,0,.83-.21,3,3,0,0,0,.66-.52l.46.44A3.18,3.18,0,0,1,106.49,174.39Z"/><path class="cls-6" d="M109.25,174.55h-.73v-6.89h.73v2.86a2.18,2.18,0,0,1,.64-.68,1.79,1.79,0,0,1,1-.28,2,2,0,0,1,.79.15,1.47,1.47,0,0,1,.58.4,1.88,1.88,0,0,1,.37.61,2.53,2.53,0,0,1,.13.8v3h-.73V171.7a1.59,1.59,0,0,0-.35-1.08,1.28,1.28,0,0,0-1-.4,1.58,1.58,0,0,0-.58.11,1.54,1.54,0,0,0-.47.31,1.44,1.44,0,0,0-.3.49,1.59,1.59,0,0,0-.11.62Z"/><path class="cls-6" d="M115.06,174.55h-.72v-4.88h.72v.85a2.44,2.44,0,0,1,.64-.68,1.81,1.81,0,0,1,1-.28,2,2,0,0,1,.79.15,1.51,1.51,0,0,1,.59.4,1.88,1.88,0,0,1,.37.61,2.53,2.53,0,0,1,.12.8v3h-.72V171.7a1.59,1.59,0,0,0-.35-1.08,1.29,1.29,0,0,0-1-.4,1.42,1.42,0,0,0-1,.42,1.46,1.46,0,0,0-.31.49,1.8,1.8,0,0,0-.11.62Z"/><path class="cls-6" d="M124.74,173.09a2.63,2.63,0,0,1-.53.82,2.52,2.52,0,0,1-1.83.75,2.56,2.56,0,0,1-1-.2,2.53,2.53,0,0,1-.8-.55,2.32,2.32,0,0,1-.53-.81,2.45,2.45,0,0,1-.19-1,2.52,2.52,0,0,1,.19-1,2.28,2.28,0,0,1,.53-.82,2.38,2.38,0,0,1,.8-.55,2.5,2.5,0,0,1,1-.21,2.44,2.44,0,0,1,1,.21,2.5,2.5,0,0,1,.81.54,2.47,2.47,0,0,1,.53.81,2.71,2.71,0,0,1,.19,1A2.54,2.54,0,0,1,124.74,173.09Zm-.69-1.72a1.71,1.71,0,0,0-.38-.6,1.66,1.66,0,0,0-.57-.41,1.88,1.88,0,0,0-1.45,0,1.54,1.54,0,0,0-.56.41,1.81,1.81,0,0,0-.36.6,2,2,0,0,0-.14.74,2,2,0,0,0,.14.74,1.76,1.76,0,0,0,.38.6,1.81,1.81,0,0,0,.57.41,1.8,1.8,0,0,0,1.44,0,1.64,1.64,0,0,0,.57-.4,1.79,1.79,0,0,0,.37-.59,2,2,0,0,0,.13-.74A1.89,1.89,0,0,0,124.05,171.37Z"/><path class="cls-6" d="M126.32,174.55v-6.89H127v6.89Z"/><path class="cls-6" d="M133.33,173.09a2.66,2.66,0,0,1-.54.82,2.58,2.58,0,0,1-.81.55,2.65,2.65,0,0,1-1,.2,2.6,2.6,0,0,1-1-.2,2.53,2.53,0,0,1-.8-.55,2.32,2.32,0,0,1-.53-.81,2.45,2.45,0,0,1-.19-1,2.52,2.52,0,0,1,.19-1,2.28,2.28,0,0,1,.53-.82,2.33,2.33,0,0,1,.81-.55,2.56,2.56,0,0,1,2,0,2.4,2.4,0,0,1,.81.54,2.47,2.47,0,0,1,.53.81,2.52,2.52,0,0,1,.19,1A2.72,2.72,0,0,1,133.33,173.09Zm-.69-1.72a1.88,1.88,0,0,0-.39-.6,1.66,1.66,0,0,0-.57-.41,1.72,1.72,0,0,0-.72-.15,1.76,1.76,0,0,0-.73.14,1.62,1.62,0,0,0-.56.41,2,2,0,0,0-.49,1.34,2,2,0,0,0,.13.74,1.76,1.76,0,0,0,.38.6,1.81,1.81,0,0,0,.57.41,1.72,1.72,0,0,0,.72.15,1.77,1.77,0,0,0,.73-.15,1.51,1.51,0,0,0,.56-.4,1.79,1.79,0,0,0,.37-.59,2,2,0,0,0,.13-.74A2.08,2.08,0,0,0,132.64,171.37Z"/><path class="cls-6" d="M139.3,174.74a2,2,0,0,1-.5.74,2.16,2.16,0,0,1-.78.45,3.33,3.33,0,0,1-1,.15,4.09,4.09,0,0,1-1.17-.17,4.25,4.25,0,0,1-1-.51l.33-.57a3.43,3.43,0,0,0,.89.46,2.94,2.94,0,0,0,1,.16,1.87,1.87,0,0,0,1.3-.43,1.69,1.69,0,0,0,.48-1.3v-.58a3.06,3.06,0,0,1-.79.73,2,2,0,0,1-1.13.3A2.45,2.45,0,0,1,136,174a2.3,2.3,0,0,1-1.25-1.18,2.25,2.25,0,0,1-.19-1,2.33,2.33,0,0,1,.19-1,2.16,2.16,0,0,1,.52-.73,2.32,2.32,0,0,1,.73-.46,2.51,2.51,0,0,1,.85-.16,2.47,2.47,0,0,1,.63.08,2.71,2.71,0,0,1,.52.22,2.07,2.07,0,0,1,.42.31,3.07,3.07,0,0,1,.34.38v-.88h.73v4A2.76,2.76,0,0,1,139.3,174.74Zm-.67-3.56a1.72,1.72,0,0,0-.4-.52,1.77,1.77,0,0,0-.58-.34,1.85,1.85,0,0,0-.67-.11,1.74,1.74,0,0,0-.65.11,1.53,1.53,0,0,0-.9.85,1.74,1.74,0,0,0-.14.69,1.65,1.65,0,0,0,.14.68,1.54,1.54,0,0,0,.37.53,1.5,1.5,0,0,0,.54.34,1.73,1.73,0,0,0,.64.12,1.85,1.85,0,0,0,.67-.12,1.94,1.94,0,0,0,.58-.33,1.76,1.76,0,0,0,.4-.53,1.51,1.51,0,0,0,.15-.68A1.58,1.58,0,0,0,138.63,171.18Z"/><path class="cls-6" d="M143.48,174.71a2.71,2.71,0,0,1-.7,1.07,1.45,1.45,0,0,1-.93.31,2.23,2.23,0,0,1-.54-.06,2.92,2.92,0,0,1-.49-.19l.24-.57a1.89,1.89,0,0,0,.35.13,1.76,1.76,0,0,0,.42,0,.8.8,0,0,0,.55-.19,2.13,2.13,0,0,0,.45-.72l-2.22-4.86h.8l1.78,4.07,1.56-4.07h.78Z"/><path class="cls-6" d="M150.62,168.79a3.9,3.9,0,0,0-.8.85l-.55-.4a6.08,6.08,0,0,1,.47-.59,2.34,2.34,0,0,1,.51-.44,2.16,2.16,0,0,1,.62-.27,3.1,3.1,0,0,1,.78-.09,2.19,2.19,0,0,1,.83.14,1.94,1.94,0,0,1,.65.39,1.77,1.77,0,0,1,.42.59,1.86,1.86,0,0,1,.15.75,2,2,0,0,1-.1.67,2.11,2.11,0,0,1-.3.6,5.52,5.52,0,0,1-.52.62q-.32.31-.75.69l-1.76,1.57h3.5v.68h-4.62V174l2.4-2.12c.25-.22.47-.43.64-.61a3.68,3.68,0,0,0,.43-.52,1.74,1.74,0,0,0,.24-.47,1.85,1.85,0,0,0,.07-.48,1.24,1.24,0,0,0-.11-.52,1.18,1.18,0,0,0-.29-.4,1.27,1.27,0,0,0-.42-.25,1.52,1.52,0,0,0-.51-.09A1.66,1.66,0,0,0,150.62,168.79Z"/><path class="cls-6" d="M160.32,172.56a3.51,3.51,0,0,1-.56,1.09,2.72,2.72,0,0,1-.88.74,2.48,2.48,0,0,1-1.16.27,2.44,2.44,0,0,1-1.15-.27,2.59,2.59,0,0,1-.88-.73,3.63,3.63,0,0,1-.56-1.09,4.34,4.34,0,0,1-.19-1.32,4.14,4.14,0,0,1,.2-1.32,3.51,3.51,0,0,1,.56-1.09,2.72,2.72,0,0,1,.88-.74,2.48,2.48,0,0,1,1.16-.27,2.44,2.44,0,0,1,1.15.27,2.57,2.57,0,0,1,.88.73,3.29,3.29,0,0,1,.55,1.09,4.33,4.33,0,0,1,.2,1.31A4.46,4.46,0,0,1,160.32,172.56Zm-.72-2.35a2.9,2.9,0,0,0-.4-.87,2.18,2.18,0,0,0-.64-.61,1.69,1.69,0,0,0-1.67,0,2,2,0,0,0-.63.59,2.91,2.91,0,0,0-.41.87,4,4,0,0,0,0,2.09,2.86,2.86,0,0,0,.41.88,2.15,2.15,0,0,0,.64.6,1.71,1.71,0,0,0,1.68,0,2.09,2.09,0,0,0,.63-.59,2.9,2.9,0,0,0,.4-.87,4,4,0,0,0,.13-1.05A3.58,3.58,0,0,0,159.6,170.21Z"/><path class="cls-6" d="M162.93,168.79a3.9,3.9,0,0,0-.8.85l-.55-.4a6.08,6.08,0,0,1,.47-.59,2.59,2.59,0,0,1,.51-.44,2.22,2.22,0,0,1,.63-.27,3,3,0,0,1,.77-.09,2.19,2.19,0,0,1,.83.14,1.94,1.94,0,0,1,.65.39,1.77,1.77,0,0,1,.42.59,1.86,1.86,0,0,1,.15.75,2,2,0,0,1-.1.67,1.88,1.88,0,0,1-.3.6,4.62,4.62,0,0,1-.52.62q-.32.31-.75.69l-1.76,1.57h3.5v.68h-4.62V174l2.4-2.12c.25-.22.47-.43.64-.61a3.68,3.68,0,0,0,.43-.52,1.74,1.74,0,0,0,.24-.47,1.51,1.51,0,0,0,.07-.48,1.24,1.24,0,0,0-.11-.52,1.18,1.18,0,0,0-.29-.4,1.27,1.27,0,0,0-.42-.25,1.52,1.52,0,0,0-.51-.09A1.69,1.69,0,0,0,162.93,168.79Z"/><path class="cls-6" d="M167.79,167.94h3.8v.69h-3.15l-.14,2.11a4.14,4.14,0,0,1,.59-.21,2.9,2.9,0,0,1,.71-.08,2.93,2.93,0,0,1,.9.14,2.39,2.39,0,0,1,.72.4,1.77,1.77,0,0,1,.48.64,2,2,0,0,1,.18.85,2.11,2.11,0,0,1-.18.89,1.87,1.87,0,0,1-.48.69,2.19,2.19,0,0,1-.74.45,2.93,2.93,0,0,1-1,.15,2.86,2.86,0,0,1-1.3-.3,3.78,3.78,0,0,1-1.06-.75l.5-.53a3.84,3.84,0,0,0,.9.66,2.08,2.08,0,0,0,1,.24,1.71,1.71,0,0,0,.65-.11,1.44,1.44,0,0,0,.51-.3,1.7,1.7,0,0,0,.32-.47,1.45,1.45,0,0,0,.12-.59,1.32,1.32,0,0,0-.12-.57,1.41,1.41,0,0,0-.33-.44,1.53,1.53,0,0,0-.52-.28,2,2,0,0,0-.67-.11,2.49,2.49,0,0,0-.76.11,3,3,0,0,0-.63.27l-.5-.33Z"/><path class="cls-8" d="M256,85.28c2.49-1.85,2.52-5.43,1.1-7.77-1.25-2.06-.58.14-.6,1.31a4.36,4.36,0,0,1-1.32,3.35c.75-3.7-1-7.63-2.41-10.12-2.53-4.42-4.71-8.24,3.8-14.55,7.33-5.44,18-6.3,25.46-11q2.44,14,8.34,18.5,5.06,3.9,12.18,1c4.1-1.64,4.43-4,3.43-5.5q-8.66,5.74-13.64,1.91-5.38-4.16-7.51-19l0-.1q-2.26-11,12.94-8.18l1,.19.59-.88a12.21,12.21,0,0,1,3.92-3.5,29.36,29.36,0,0,1,6.79-2.81,18.66,18.66,0,0,1,7.24-.42A18.08,18.08,0,0,1,324,30.28l.38.17a11.06,11.06,0,0,0,12.86-5.29A13.43,13.43,0,0,0,317,8.29c-1.39,1.14-2.29-.24-1.27-1a19.18,19.18,0,0,1,24.72,29.29c-2.52,2.52-4.16,5.28-2.44,7l4.73-4.71h0A22.41,22.41,0,0,0,312.57,5.71c-.46.41-.34.22-.49.8a4.43,4.43,0,0,0,5.63,5.3l.64-.4a10.2,10.2,0,0,1,16.1,12.19h0a7.86,7.86,0,0,1-3.89,3.48,7.75,7.75,0,0,1-5,.31,21,21,0,0,0-7.74-2.8,21.62,21.62,0,0,0-8.5.48,32.81,32.81,0,0,0-7.67,3.17,16,16,0,0,0-4.29,3.61q-18.22-3-15.89,11.18c-6.95,5.05-18.5,5.7-26.81,11.87-10.81,8-8,13-4.68,18.73a38.48,38.48,0,0,1,2,3.78,9,9,0,0,1,1,3.45,10.91,10.91,0,0,1-.38,3.7c-.79,3,2.1,1.73,3.48.71"/><path class="cls-8" d="M306.8,88.84q-.72,2.3-1.43,4.59a25.35,25.35,0,0,1,.49-5.55l.94,1M245.71,114.9l13.53-.84v-2.35l1.23-7.95c.34,1.44.65,2,1.12,3.79l.41,2.33,11.78-.73-.27-2.34c-.43-2.44-.85-4.88-1.28-7.33a20,20,0,0,0,4.08-3.17A20.35,20.35,0,0,0,279.52,92,19.75,19.75,0,0,0,286,91c.54.7,1.11,1.4,1.7,2.08.59,2,1.29,4.19,2,6.33s1.39,4.28,2,6.28l.15,2.35,15.28-.94-.28-2.34c-.45-2.3-.79-4.31-1-6.11l9,4.32.73-1.36c2.4-4.49,3.35-8.49,4.69-12.82.17-.54.17-.33,0-.88a43.62,43.62,0,0,0-3.53-9,49.58,49.58,0,0,0-5.09-7.77c1.06-3.48.94-4.33,3.95-7.64a56.88,56.88,0,0,1,13.71-10.56c-1.69-2.94-5.31-.82-9.73,2.58a50.36,50.36,0,0,0-6.37,5.81c-3.61,4-3.41,4.89-4.75,9.17-1.13,3.63-2.18,6.36-3.09,8.72-3,7.73-4.5,11.67-1.77,25.79l-8.59.53c-1.22-4.43-2.93-9.07-4.23-13.63l-.35-.63A33.19,33.19,0,0,1,282.18,75c-3.33.6-2.32,5.37-.06,9.86A37.05,37.05,0,0,0,284,88.22c-3.84,1-8.19.39-12.43.19A26.54,26.54,0,0,0,274,83.7c1.42-3.75.4-5.71-1.79-6-1.11,8.06-6.24,14.07-13.25,18.71l-.53.35-.15.62c-.85,3.49-1.86,11.08-2.28,14.54l-7.14.44c.12-5.24.38-14.4.19-20l0-.32a55.52,55.52,0,0,1-.91-21.49c-1.39-.21-3.46,1-3.67,3.65a60.4,60.4,0,0,0-.15,7.36,58.53,58.53,0,0,0,1.55,11.1q.15,4.83.17,9.21c0,2.37-.33,8.62-.38,10.68Zm19.15-7.55-2.28-9.58a37.71,37.71,0,0,0,6.72-6.2l6.5.33a16.74,16.74,0,0,1-6.1,5.29l-1.07.54q.81,4.65,1.63,9.28Zm48.95-27A39.87,39.87,0,0,1,317,88.29c-.17.55-.34,1.14-.52,1.74a59.5,59.5,0,0,1-3.1,8.68c-2.16-1-4.18-2-5.41-2.61l1.47-4.69.18.18c2.28-1.5.63-3.83-2.72-7.31,1-3.09,2.3-6,3.51-9.47A45.28,45.28,0,0,1,313.81,80.35Z"/><path class="cls-8" d="M351.21,43.58c-5.51,5.86-18.55,6.58-28.78,6.36l.06-3.23c9.22.2,25.57-.3,27.9-7.92,1.73.53,2.46,3.06.82,4.79"/><path class="cls-9" d="M316.39,34.05a3.83,3.83,0,0,0,3,.93,9.1,9.1,0,0,1,2.4,0,2.57,2.57,0,0,0-2.48-1.78A3.58,3.58,0,0,0,316.39,34.05Z"/><path class="cls-10" d="M236.73,127.53C291.76,86,356,107.43,356,107.43s-46.74-1.2-83.38,54.95A109.5,109.5,0,0,0,257,141.77C251.29,136,244.52,130.77,236.73,127.53Z"/><path class="cls-11" d="M355.66,107.23a78.52,78.52,0,0,0-15.88-.77l0,.65a94.09,94.09,0,0,1,15.78.44Z"/><path class="cls-12" d="M355.94,107.31c-.16,0-54.67,16-78.68,63.79l.13.27c23.95-47.65,78.71-63.87,78.86-63.92Z"/><path class="cls-12" d="M356.25,107.45c-.19-.08-66.43-30.45-130,17.14l.39,0c63.47-47.49,129.13-17.18,129.32-17.09Z"/><path class="cls-11" d="M334.72,106.46a50.53,50.53,0,0,0-12,1.76l.38,1.24a48.78,48.78,0,0,1,11.68-1.7Z"/><path class="cls-11" d="M316.33,108.85a59.57,59.57,0,0,0-11.68,3.53l.77,1.79a57.3,57.3,0,0,1,11.26-3.41Z"/><path class="cls-11" d="M298,114a41.64,41.64,0,0,0-10.8,5.36l1.55,2.07a38,38,0,0,1,10-4.95Z"/><path class="cls-11" d="M280.37,121.9a127.3,127.3,0,0,0-11,8l2.06,2.5a125.7,125.7,0,0,1,10.71-7.82Z"/><path class="cls-11" d="M261.2,134.74s-1.61.95-6,5.27l3.78,3.86c4.72-4.7,5.29-5,5.31-5Z"/><path class="cls-13" d="M272.6,162.38C309.24,106.23,356,107.43,356,107.43s-54.66,16.13-78.64,63.84A95,95,0,0,0,272.6,162.38Z"/><path class="cls-14" d="M226.34,124.6a135.35,135.35,0,0,1,32.85-18.24c30.64-11.7,59-9.12,77-5.1A108.78,108.78,0,0,1,356,107.43S291.76,86,236.73,127.53A44.1,44.1,0,0,0,226.34,124.6Z"/></g></g></svg>