<svg xmlns="http://www.w3.org/2000/svg" xmlns:xlink="http://www.w3.org/1999/xlink" viewBox="0 0 273.89 331.21"><defs><style>.cls-1{fill:#fff;}.cls-2{opacity:0.1;fill:url(#linear-gradient);}.cls-3{opacity:0.15;fill:url(#linear-gradient-2);}.cls-4{opacity:0.07;fill:url(#linear-gradient-3);}.cls-10,.cls-5,.cls-6{fill-rule:evenodd;}.cls-5{fill:url(#linear-gradient-4);}.cls-6{fill:url(#linear-gradient-5);}.cls-7{fill:#686aac;}.cls-10,.cls-8{fill:#f7ab1f;}.cls-9{fill:url(#linear-gradient-6);}.cls-11{fill:#5c181e;}.cls-12{fill:url(#linear-gradient-7);}.cls-13{fill:url(#linear-gradient-8);}.cls-14{fill:url(#linear-gradient-9);}.cls-15{fill:url(#linear-gradient-10);}</style><linearGradient id="linear-gradient" x1="181.87" y1="47.33" x2="82.3" y2="74.01" gradientUnits="userSpaceOnUse"><stop offset="0" stop-color="#fff"/><stop offset="0.52" stop-color="#8a4b44"/><stop offset="1" stop-color="#690f18"/></linearGradient><linearGradient id="linear-gradient-2" x1="3188.47" y1="-410.67" x2="3263.6" y2="-410.67" gradientTransform="matrix(0.92, -0.4, 0.4, 0.92, -2565.22, 1717.37)" xlink:href="#linear-gradient"/><linearGradient id="linear-gradient-3" x1="1754.1" y1="-296.49" x2="1803.38" y2="-296.49" gradientTransform="matrix(0.98, -0.22, 0.22, 0.98, -1457.27, 784.42)" xlink:href="#linear-gradient"/><linearGradient id="linear-gradient-4" x1="11.9" y1="261.95" x2="138.83" y2="245.18" gradientUnits="userSpaceOnUse"><stop offset="0.1" stop-color="#d3b8b0"/><stop offset="0.52" stop-color="#8a4b44"/><stop offset="1" stop-color="#690f18"/></linearGradient><linearGradient id="linear-gradient-5" x1="199.52" y1="300.27" x2="232.34" y2="244.1" xlink:href="#linear-gradient-4"/><linearGradient id="linear-gradient-6" x1="5824.52" y1="83.62" x2="5737.26" y2="83.62" gradientTransform="matrix(-1, 0, 0, 1, 5956.81, 0)" xlink:href="#linear-gradient-4"/><linearGradient id="linear-gradient-7" x1="152.16" y1="293.57" x2="152.16" y2="322.35" xlink:href="#linear-gradient-4"/><linearGradient id="linear-gradient-8" x1="187.76" y1="293.57" x2="187.76" y2="322.35" xlink:href="#linear-gradient-4"/><linearGradient id="linear-gradient-9" x1="220.19" y1="293.57" x2="220.19" y2="322.35" xlink:href="#linear-gradient-4"/><linearGradient id="linear-gradient-10" x1="252.93" y1="293.57" x2="252.93" y2="322.35" xlink:href="#linear-gradient-4"/></defs><g id="Layer_2" data-name="Layer 2"><g id="Layer_1-2" data-name="Layer 1"><path class="cls-1" d="M81.44,74.93l7,.85.25.69c.34,1,.61,1.69,1,2.75l-4.64,5a2.88,2.88,0,0,0-.39,3.38,53.57,53.57,0,0,0,5.79,8.31,2.89,2.89,0,0,0,2.19,1,2.79,2.79,0,0,0,1-.19l6.2-2.36c1,1,1.69,1.53,2.73,2.46l-1.71,6.29a2.87,2.87,0,0,0,1.19,3.16,53.78,53.78,0,0,0,9,4.8,2.93,2.93,0,0,0,1.09.21,2.89,2.89,0,0,0,2.15-1l4.31-4.85,3.55.92,1.4,6.31a2.87,2.87,0,0,0,2.47,2.23,51.7,51.7,0,0,0,6,.35c1.39,0,2.82-.06,4.24-.17a2.85,2.85,0,0,0,2.57-2.18l.25-1,.43.54a2.86,2.86,0,0,0,2.25,1.08,2.76,2.76,0,0,0,1-.2l5.67-2.24a2.82,2.82,0,0,0,1.65.75c.26.24.53.47.84.74l-1.74,6.66a2.88,2.88,0,0,0,1.22,3.14,47.24,47.24,0,0,0,7,3.74,2.86,2.86,0,0,0,3.32-.76L162,124a5.39,5.39,0,0,0,3.93,1.68l.43,0,.24,0a5.48,5.48,0,0,0,2.17-.78l.43,1.86a5.14,5.14,0,0,0-3.32,3.26c-1.78,5.27-8.65,22.48-22.17,22.48-11.58,0-22.08,7.23-26.75,18.42a29,29,0,0,0,4.39,30.35,5.27,5.27,0,0,0,4.06,1.9,5.16,5.16,0,0,0,4-8.42,19.15,19.15,0,0,1-2.86-19.86c3.06-7.32,9.8-12,17.17-12,20.65,0,29.74-22.62,32-29.55a5.11,5.11,0,0,0,0-3.3H176c.91,0,1.82,0,2.74-.08l1.13-.07a2.89,2.89,0,0,0,2.6-2.21l.09-.38a41.34,41.34,0,0,1,1.36,11.24c-.31,16.09-10.44,28.25-13.52,31.57a5.11,5.11,0,0,0,0,7,2.2,2.2,0,0,0,.35.33,5.2,5.2,0,0,0,3.53,1.39,4.36,4.36,0,0,0,.51,0c-6.59,1.14-15.75,3.43-23.94,10.57-11.53,10.06-17.57,26.86-17.95,49.94a5.08,5.08,0,0,0,1.48,3.7,5.16,5.16,0,0,0,3.71,1.56h0a5.19,5.19,0,0,0,5.16-5.1c.34-20.07,5.26-34.39,14.62-42.54,7.6-6.62,16.58-7.83,22-8.55,1.18-.15,2.21-.29,3.07-.46a5.14,5.14,0,0,0,4.13-5.48,5.13,5.13,0,0,0-6.17-4.64c-.77.15-1.75.31-2.88.48l-2.52.4A5.17,5.17,0,0,0,178,177c4.76-5.1,15.89-19.05,16.28-38.34A50.91,50.91,0,0,0,193,126.33h.22a2.8,2.8,0,0,0,1.13-.24c1-.41,1.94-.87,2.88-1.35a2.87,2.87,0,0,0,1.31,3.08,27,27,0,0,0,4.62,2.25,2.85,2.85,0,0,0,1,.18,2.89,2.89,0,0,0,2.2-1l1.39-1.66.51,2a2.89,2.89,0,0,0,2.58,2.18c.67,0,1.35.07,2,.07a25.41,25.41,0,0,0,3.16-.19,2.86,2.86,0,0,0,2.46-2.23l.45-2L220.3,129a2.89,2.89,0,0,0,2.15,1,2.84,2.84,0,0,0,1.1-.22,26.94,26.94,0,0,0,4.57-2.45,2.88,2.88,0,0,0,1.18-3.16l-.56-2,2,.76A2.88,2.88,0,0,0,234,122a25.94,25.94,0,0,0,2.92-4.23,2.87,2.87,0,0,0-.41-3.36L235,112.76l2.35-.3a2.86,2.86,0,0,0,2.45-2.23,27.36,27.36,0,0,0,.63-5,2.86,2.86,0,0,0-1.94-2.82l-2.32-.79,2.14-1.48A2.88,2.88,0,0,0,239.4,97a27.21,27.21,0,0,0-1.72-4.6,2.89,2.89,0,0,0-2.59-1.62,3,3,0,0,0-.42,0l-2.66.4,1.32-2.53a2.88,2.88,0,0,0-.46-3.31,27.14,27.14,0,0,0-3.59-3.17,2.91,2.91,0,0,0-1.71-.56,2.86,2.86,0,0,0-1.7.56L223.53,84l0-3a2.89,2.89,0,0,0-2-2.71,26.09,26.09,0,0,0-3.29-.87l1.25-2.26,1.72,0L223,79a2.86,2.86,0,0,0,2.6,1.66,2.07,2.07,0,0,0,.35,0A39.44,39.44,0,0,0,233.42,79a2.88,2.88,0,0,0,2-2.67l.1-4.24,1.55-.75,3.37,2.56a3,3,0,0,0,1.74.58,2.85,2.85,0,0,0,1.59-.48,39.25,39.25,0,0,0,5.9-4.82,2.89,2.89,0,0,0,.55-3.33L248.3,62l1-1.37,4.32.71a3.89,3.89,0,0,0,.47,0,2.88,2.88,0,0,0,2.51-1.48,37.92,37.92,0,0,0,3-6.92,2.89,2.89,0,0,0-1.05-3.21L255,47.19c.1-.61.17-1.1.26-1.71L259.65,44a2.87,2.87,0,0,0,2-2.66,40.55,40.55,0,0,0-.5-7.36,2.87,2.87,0,0,0-2.45-2.39L253.93,31l-.56-1.65,3.5-3.59a2.88,2.88,0,0,0,.52-3.28,38.24,38.24,0,0,0-3.78-6.15,2.88,2.88,0,0,0-2.3-1.14,2.93,2.93,0,0,0-1,.16l-4.87,1.74-1.24-1.17,1.53-5.21a2.86,2.86,0,0,0-1.09-3.15A38.61,38.61,0,0,0,238.61,4a2.8,2.8,0,0,0-1.23-.28,2.9,2.9,0,0,0-2.12.93l-3.71,4.05-1.66-.47-1.13-5.58A2.88,2.88,0,0,0,226.31.33,39.31,39.31,0,0,0,221.22,0c-.6,0-1.21,0-1.81,0a2.87,2.87,0,0,0-2.65,2.15l-.54,2.07-.58,2.14-.35,1.32-.89.19-.78.16L210,3.54a2.88,2.88,0,0,0-3.31-.85l-.92.37c-.72.3-1.45.63-2.16,1-1,.5-2,1-3,1.61a2.87,2.87,0,0,0-1.36,3.12l1.23,5.46-1.68,1.12-4.85-2.11a2.87,2.87,0,0,0-1.14-.23,2.9,2.9,0,0,0-2.18,1,41.91,41.91,0,0,0-4.05,5.57,2.89,2.89,0,0,0,.27,3.36l3.69,4.32-.67,1.6-5.5.41a2.87,2.87,0,0,0-2.6,2.24,44.46,44.46,0,0,0-.89,5.91,2.85,2.85,0,0,0-1.68-.54l-.36,0-7.48.94a2.92,2.92,0,0,0-1-.41l-1.73-2.55,4.08-7.42a2.87,2.87,0,0,0-.39-3.33,53.68,53.68,0,0,0-6.83-6.29,2.88,2.88,0,0,0-3.41-.08l-2.41,1.69-2.5,1.73-2.07,1.45-1.68-.9-1.53-.84.19-8.64a2.87,2.87,0,0,0-2-2.79L148.78,9c-1-.32-2-.62-3.07-.88-1.49-.39-3-.71-4.51-1a2.92,2.92,0,0,0-.51,0,2.87,2.87,0,0,0-2.55,1.54l-3.89,7.45-4.07-.45-3.46-7A2.87,2.87,0,0,0,124.14,7a3.25,3.25,0,0,0-.44,0,56,56,0,0,0-9,2.2,2.87,2.87,0,0,0-2,2.73l0,8.46L110,21.82l-.55.29-6.66-4.85a2.87,2.87,0,0,0-3.42,0,58.54,58.54,0,0,0-7,6.28,2.86,2.86,0,0,0-.46,3.32l3.79,7.16,0,0c-.8,1.12-1.31,1.82-2.1,2.95l-7.67-1.12a3,3,0,0,0-.42,0,2.9,2.9,0,0,0-2.59,1.63,57.24,57.24,0,0,0-3.37,9,2.88,2.88,0,0,0,1.15,3.17L86.94,54l-.51,3.66L79.62,60a2.88,2.88,0,0,0-1.93,2.81A51.91,51.91,0,0,0,79,72.71,2.86,2.86,0,0,0,81.44,74.93Zm66.39-40.2c.32.19.63.39,1,.63l1,.69c.43.3.86.63,1.36,1a30.36,30.36,0,0,1,7.75,9.52v.81l-2.27,1.18-4.37-3.08a2.87,2.87,0,0,0-3.31,0,46,46,0,0,0-6.57,5.64,2.89,2.89,0,0,0-.46,3.37l2.62,4.82-1.24,1.79-.22.32-5.65-.76a2.42,2.42,0,0,0-.38,0,2.88,2.88,0,0,0-2.56,1.55,44.5,44.5,0,0,0-3.17,7.9,2.88,2.88,0,0,0,1.16,3.19l4.86,3.24-.3,2.57-5.77,2.08a2.86,2.86,0,0,0-1.9,2.78,50.32,50.32,0,0,0,.59,6.71,30.19,30.19,0,0,1-27.08-37.63,30.34,30.34,0,0,1,23.92-22.23l.15,0c.75,0,2,.08,4,.13,2.73.08,7.8.23,8.73.42A30.22,30.22,0,0,1,145,33.2c.71.32,1.33.64,1.89,1a2,2,0,0,0,.32.17l.13.07h0ZM178.72,89a2.86,2.86,0,0,0-.32-3.41l-4.84-5.38.16-.41c.43-1.09.74-1.85,1.2-3l7.5-.72a2.87,2.87,0,0,0,2.52-2.16,52.3,52.3,0,0,0,1.47-9.58,2.88,2.88,0,0,0-1.86-2.86l-7.25-2.74v-.1a25,25,0,0,1,14,5.2l-.35.6a2.88,2.88,0,0,0,.35,3.38,38.08,38.08,0,0,0,5.48,5,2.81,2.81,0,0,0,1.72.58l.33,0a24.91,24.91,0,0,1,2.23,10.32v.16l-1.76-1.21a2.86,2.86,0,0,0-1.63-.51,2.93,2.93,0,0,0-1.78.61,27.85,27.85,0,0,0-3.42,3.19,2.88,2.88,0,0,0-.39,3.35l1.49,2.64-2.9-.35-.35,0a2.88,2.88,0,0,0-2.63,1.72,29.17,29.17,0,0,0-1.54,4.48,2.87,2.87,0,0,0,1.22,3.13l2.39,1.55-2.51,1a2.88,2.88,0,0,0-1.85,2.86l.06.74-.36.13-.26.1c-.7-1.2-1.5-2.47-2.38-3.77a10.43,10.43,0,0,0-8.68-4.65,10.27,10.27,0,0,0-3,.44,2.77,2.77,0,0,0-.73.26,17.39,17.39,0,0,0-4.89,3.69,15.41,15.41,0,0,0-1.39,1.73c-.13.18-.26.37-.38.56-.49-.28-1-.58-1.43-.9a3.64,3.64,0,0,0-.07-.44l-1.63-6.6c1-.87,1.67-1.44,2.64-2.3L163,95l6.56,2.66a2.92,2.92,0,0,0,1.08.21,2.87,2.87,0,0,0,2.15-1A53.83,53.83,0,0,0,178.72,89Zm62.42-41.7a21.25,21.25,0,0,1-20,14.25,21.6,21.6,0,0,1-5.58-.74,21.37,21.37,0,0,1-7.14-3.48l1.5-2.78a2.88,2.88,0,0,0-.45-3.35,44.38,44.38,0,0,0-6.58-5.65,2.88,2.88,0,0,0-1.66-.52,2.94,2.94,0,0,0-.78.11,21.17,21.17,0,0,1,4.29-18.36l0,0c.45-.34,1.14-.89,2.21-1.75,1.51-1.2,4.32-3.45,4.9-3.79a22.11,22.11,0,0,1,3.66-1.39,12.28,12.28,0,0,1,1.42-.33,2.64,2.64,0,0,0,.3-.07l.51-.08c.25,0,.5-.08.81-.11l.89-.1c.35,0,.72-.05,1.18-.05h.46a21.37,21.37,0,0,1,19.13,12A21,21,0,0,1,241.14,47.26Zm-38.39,63.59,6.2,2.46a2.77,2.77,0,0,0,1.06.2,2.85,2.85,0,0,0,2.23-1.07,45.34,45.34,0,0,0,4.51-6.72,2.86,2.86,0,0,0-.4-3.31l-4.42-4.87c.33-.88.57-1.5.91-2.38l6.25-.69a2.8,2.8,0,0,0,1.49-.62,12.94,12.94,0,0,1-4.47,22.87,12.87,12.87,0,0,1-14-5.29Zm-41.36-42.7A29.79,29.79,0,0,1,150.85,84.3c0-.24,0-.47,0-.7a25,25,0,0,1,11.44-21A29.31,29.31,0,0,1,161.39,68.15Z"/><path class="cls-1" d="M69.13,282.56h.19c24.33,0,64.13-13,118.29-38.58,9.52-4.49,18.67-9,27.09-13.26l-7.61,4.08a2.84,2.84,0,0,0-1.45,2h-1.49a3,3,0,0,0-1.36.34l-19.73,10.59a2.85,2.85,0,0,0-1.46,2h-1.48a2.92,2.92,0,0,0-1.36.34l-17.21,9.24a2.86,2.86,0,0,0-1.45,2h-1.49a3,3,0,0,0-1.36.34L128,277.24a2.88,2.88,0,0,0,1.36,5.41h38.12a2.87,2.87,0,0,0,1.74-.58L190,266.36a2.82,2.82,0,0,0,1.07-1.73h.25a2.86,2.86,0,0,0,1.73-.58l12.23-9.23a2.89,2.89,0,0,0,1.08-1.72h.24a2.86,2.86,0,0,0,1.73-.58l14-10.59a2.89,2.89,0,0,0,1.08-1.72h.24a2.9,2.9,0,0,0,1.73-.58l10.25-7.74a2.89,2.89,0,0,0,1.08-1.72H237a2.82,2.82,0,0,0,1.73-.58l2-1.5-49,49.67a2.87,2.87,0,0,0,2,4.89H229.2a2.87,2.87,0,0,0,2.63-1.7l29.32-65.67a2.89,2.89,0,0,0-.1-2.55l1.79-1.35a2.86,2.86,0,0,0-2.32-5.1l1.13-.64a2.87,2.87,0,0,0-1.43-5.37,2.79,2.79,0,0,0-1.15.24c-1,.42-73.5,31.76-130.32,48.42a5.16,5.16,0,0,0,.91-.84,5.22,5.22,0,0,0,1.2-4c-.55-4.39-3-14.91-14.23-17.85a20.78,20.78,0,0,0-5.24-.65c-10.57,0-23.92,7.28-38.59,21a5.16,5.16,0,0,0,3.41,8.92h.1A5.18,5.18,0,0,0,79.93,254c12.65-12.46,22.36-18.51,29.67-18.51a15.17,15.17,0,0,1,3.89.53c4.27,1.09,6.39,3.89,7.07,9.33a5.18,5.18,0,0,0,4.86,4.51c-18.21,5.21-34.6,8.78-46.17,9.17-1.24,0-2.44.06-3.58.06-13.36,0-21.84-2.74-24.51-7.93-3.5-6.78,3.29-16.44,3.35-16.53a2.88,2.88,0,0,0-2.33-4.55,2.92,2.92,0,0,0-.93.15c-9.34,3.19-22.31,19.71-20.06,33.27C32.63,272.22,40.38,282.56,69.13,282.56ZM225,225.46a3,3,0,0,0-.6,1.26h-1.49a3.47,3.47,0,0,0-.45.06Zm15.78-7.52h-1.48l1.88-1A2.85,2.85,0,0,0,240.73,217.94Z"/><path class="cls-1" d="M63.56,255.4h.11a5.15,5.15,0,0,0,5.12-5.05c.87-50.4,31.79-60.64,41.24-62.58a5.15,5.15,0,0,0-1-10.2,5.27,5.27,0,0,0-1.12.13c-11.36,2.54-48.5,15.27-49.51,72.48a5.14,5.14,0,0,0,5.15,5.22Z"/><path class="cls-1" d="M234.19,197.51h3.69a2.88,2.88,0,0,0,2.88-2.88V186h.47a2.87,2.87,0,0,0,2.87-2.88v-3.32a2.86,2.86,0,0,0-2.87-2.87h-.47V163.85a2.88,2.88,0,0,0-2.88-2.88H235.6l3.22-9.26a2.73,2.73,0,0,0,.16-.94v-.17a2.87,2.87,0,0,0-2.87-2.88h-3.69a2.88,2.88,0,0,0-2.71,1.93l-10.09,28.89V150.6a2.87,2.87,0,0,0-2.87-2.88h-3.18a2.87,2.87,0,0,0-2.83,2.35l-2.47,13.37a2.29,2.29,0,0,0-.05.52v.14a2.88,2.88,0,0,0,1.71,2.64v27.89a2.88,2.88,0,0,0,2.88,2.88h3.94a2.87,2.87,0,0,0,2.87-2.88v-9.57a2.87,2.87,0,0,0,2.14,1h9.56v8.6A2.88,2.88,0,0,0,234.19,197.51ZM230,177l1.29-3.71V177Z"/><path class="cls-1" d="M257.4,148v-5a2.87,2.87,0,0,0-2.88-2.87h-1.78a2.86,2.86,0,0,0-2.87,2.87v1.54a2.89,2.89,0,0,0-1.68-.55h-1.75a2.88,2.88,0,0,0-2.88,2.88v1.49a2.88,2.88,0,0,0-1.56,2.56v1.57a2.88,2.88,0,0,0,1.56,2.56v7.38a4.19,4.19,0,0,0,4.38,4.38h2.53a2.82,2.82,0,0,0,1.13-.23,2.9,2.9,0,0,0,1.14.23h1.78a2.85,2.85,0,0,0,2-.77,2.85,2.85,0,0,0,2,.77h1.78a2.86,2.86,0,0,0,2.87-2.87V152.29a4.16,4.16,0,0,0-4.36-4.33C258.35,148,257.91,148,257.4,148Z"/><path class="cls-1" d="M2.88,330.4H14.65a2.88,2.88,0,0,0,2.78-2.13L20,318.59c2.29,7.7,9.26,12.56,18.78,12.56a22.75,22.75,0,0,0,13.53-4,2.85,2.85,0,0,0,.54,2.15,2.89,2.89,0,0,0,2.28,1.13H66.93a2.86,2.86,0,0,0,2.77-2.13l2-7.43h2.77c11.82,0,19.7-6.1,20.6-15.69h5.09l-5.82,21.63a2.89,2.89,0,0,0,2.78,3.62h11.77a2.88,2.88,0,0,0,2.78-2.13l6.22-23.12h8.16a2.87,2.87,0,0,0,2.77-2.14l2.67-10a2.89,2.89,0,0,0-2.78-3.62H96.21a2.87,2.87,0,0,0-2.77,2.13l-1,3.63a12.9,12.9,0,0,0-.92-1c-3.26-3.26-7.92-4.72-15.11-4.72H64.61a2.87,2.87,0,0,0-2.77,2.13l-1.48,5.49c-2.87-5.25-8.54-8.37-15.67-8.37-8.07,0-14.31,3-18.6,7.35l.79-3a2.85,2.85,0,0,0-.49-2.49,2.89,2.89,0,0,0-2.28-1.13H12.33a2.87,2.87,0,0,0-2.77,2.13L.1,326.78a2.87,2.87,0,0,0,2.78,3.62ZM55,317l-6.43-5.08a2.84,2.84,0,0,0-1.78-.62,2.88,2.88,0,0,0-2.24,1.06c-1.86,2.31-3.44,2.61-4.6,2.61-2.2,0-2.66-1.72-2.66-3.16,0-3.26,2.23-6.79,5.83-6.79a2.5,2.5,0,0,1,2.7,2.14A2.85,2.85,0,0,0,47.35,309a2.94,2.94,0,0,0,1.26.29,2.89,2.89,0,0,0,1.15-.24l8.36-3.64Zm20.51-10.41.52-2a2.73,2.73,0,0,1,1.49.3C77.53,305.89,76.63,306.36,75.52,306.56Z"/><path class="cls-1" d="M273.29,290.56a2.86,2.86,0,0,0-2.28-1.13H245.86a2.89,2.89,0,0,0-2.74,2l-2.7,8.36c-1.12-6.64-7-10.95-15.35-10.95-6.85,0-12.67,2.69-17.8,8.21a2.88,2.88,0,0,0-.73,1.48c-2.78-6.48-9.41-9.84-16-9.84-7.49,0-14.14,4-18.33,10.26-1.46-6.16-7.19-10.11-15.19-10.11-6.84,0-12.67,2.69-17.8,8.21a2.89,2.89,0,0,0,0,3.94l6.64,7a2.89,2.89,0,0,0,1.73.88l-12.16,7.47a2.83,2.83,0,0,0-1.27,1.7l-2.37,8.75a2.88,2.88,0,0,0,2.78,3.63H164a2.88,2.88,0,0,0,2.78-2.13l2-7.47c2.64,6.84,9.45,10.41,16.21,10.41a21.63,21.63,0,0,0,15.53-6.8l-.64,2.36a2.88,2.88,0,0,0,2.77,3.63H232a2.86,2.86,0,0,0,2.77-2.13l.54-2a25.79,25.79,0,0,0,15,4.85c11.55,0,19.62-7.07,19.62-17.21a11.71,11.71,0,0,0-4.26-9.4h2.85a2.87,2.87,0,0,0,2.77-2.12l2.52-9.31A2.87,2.87,0,0,0,273.29,290.56Zm-38.81,24.88h-2.4a24.06,24.06,0,0,0,5.44-4.75,2.88,2.88,0,0,0,1.18,1.47l1.23.76a3.47,3.47,0,0,0-.29.25l-3.12,3.15A2.85,2.85,0,0,0,234.48,315.44Zm13.58.21a5.81,5.81,0,0,1,3.33-1.15,2.57,2.57,0,0,1,1.15.2c0,1.14-2,1.2-2.36,1.2A9.25,9.25,0,0,1,248.06,315.65Zm-58.56-11c.25,0,.85,0,.85,1.91,0,4.22-2.22,8.69-4.32,8.69-.26,0-.85,0-.85-1.9C185.18,309.11,187.4,304.64,189.5,304.64Zm-23.05,10.8h-2.4a29.18,29.18,0,0,0,3.62-2.82q-.06.88-.06,1.77c0,.46,0,.89.06,1.33A2.8,2.8,0,0,0,166.45,315.44Zm41.47-9.95a18.55,18.55,0,0,0-.53-4.4l6.54,6.88a2.89,2.89,0,0,0,1.73.88l-9.19,5.65A28.64,28.64,0,0,0,207.92,305.49Z"/><path class="cls-2" d="M94.92,40.14c1.88-2.71,2.23-3.16,4.16-5.86l-4.62-8.73a54.92,54.92,0,0,1,6.66-6l8.09,5.88c3-1.51,3.46-1.81,6.42-3.26l0-10.25a53.61,53.61,0,0,1,8.53-2.08l3.36,6.83.79,1.63c-1,3.64-1.72,6.44-1.44,9.56-.18,0-.36.05-.51.1A33.07,33.07,0,1,0,153,34.86c-.49-.42-1-.81-1.53-1.18l-1-.7c-.51-.36-1.06-.67-1.61-1a5.36,5.36,0,0,0-.53-.28,23,23,0,0,0-2.16-1.1,33.16,33.16,0,0,0-5.69-2c-1.6-.41-12-.5-13.59-.66-.87-2.06-.94-9.81,1.44-9.56,3.34.35,3.34.35,7.44.83a.88.88,0,0,1,.16,0l1.1-2.13,1.42-2.72L140.69,10c1.46.26,2.87.57,4.3.94,1,.25,2,.54,2.92.84l1.25.41,0,1.46-.21,8.92c.25.15.48.27.71.39l2.37,1.3,2.53,1.34.7.39.63-.42,2.91-2,2.49-1.72,2.42-1.71a50.94,50.94,0,0,1,6.46,6l-4.93,9c1.84,2.69,2.19,3.21,4,5.95l9.91-1.24a51.25,51.25,0,0,1,3,8.45l-8.24,5.41c.36,3.29.41,3.85.8,7.14l8.89,3.36a48.72,48.72,0,0,1-1.39,9l-9.26.89c-1.21,3.11-1.43,3.63-2.66,6.73l6,6.71A51,51,0,0,1,170.68,95l-8.2-3.33c-2.46,2.16-2.91,2.59-5.42,4.7l2.05,8.33a47.63,47.63,0,0,1-8.6,4.22l-5.45-6.41c-3.21.75-3.77.89-7,1.62l-2,8.07a50.64,50.64,0,0,1-9.68-.17l-1.79-8-7-1.8-5.48,6.16a50.56,50.56,0,0,1-8.55-4.54l2.18-8c-2.45-2.19-2.9-2.59-5.34-4.81l-7.85,3a49.34,49.34,0,0,1-5.48-7.86L93,79.87c-1.16-3.06-1.35-3.65-2.49-6.74l-8.76-1a49.53,49.53,0,0,1-1.22-9.32l8.48-3c.45-3.31.54-3.86,1-7.17L82.3,47.35a54.6,54.6,0,0,1,3.19-8.58Z"/><path class="cls-3" d="M190.75,46.47c-.23-2.39-.26-2.81-.45-5.22l-6.69-2.68a40.39,40.39,0,0,1,.9-6.45l7.27-.54c.93-2.23,1.07-2.64,2-4.84L189,21.05a38.68,38.68,0,0,1,3.77-5.18l5.08,2.21,1.21.54a18.47,18.47,0,0,0,3.71,6,2,2,0,0,0-.24.29,24.1,24.1,0,1,0,18.05-8.75,13.45,13.45,0,0,0-1.41.07l-.9.1c-.45,0-.91.12-1.37.19-.15,0-.29.05-.43.09a17.19,17.19,0,0,0-1.72.41,24.73,24.73,0,0,0-4.12,1.56c-1.08.52-6.9,5.37-7.86,6-1.46-.74-5.15-5-3.71-6,2-1.38,2-1.38,4.53-3l.1-.07-.4-1.71-.49-2.17L202,8.13c.94-.54,1.87-1,2.84-1.51.66-.31,1.34-.62,2-.91l.89-.36.67.83,4.09,5.06c.21,0,.39-.08.57-.12l1.93-.39,2-.45c.19,0,.38-.06.58-.12l.15-.52.66-2.51L219,5l.55-2.09a37.83,37.83,0,0,1,6.4.27l1.48,7.31c2.29.63,2.73.76,5,1.42l4.92-5.35A35.87,35.87,0,0,1,243,9.86l-2,6.89c1.75,1.66,2,1.94,3.81,3.59L251.32,18a36.41,36.41,0,0,1,3.49,5.69l-4.73,4.86c.79,2.3.91,2.69,1.69,5l6.52.89a36.72,36.72,0,0,1,.46,6.83l-6.13,2c-.35,2.35-.4,2.81-.79,5.16l5.06,3.67a36,36,0,0,1-2.79,6.4l-6-1c-1.44,1.94-1.68,2.28-3.12,4.19l2.71,5.42a36.07,36.07,0,0,1-5.47,4.46L237.4,68l-4.72,2.28-.14,6a36.4,36.4,0,0,1-6.9,1.51l-2.56-5.48c-2.4-.06-2.83-.08-5.24-.16l-3,5.36a36.92,36.92,0,0,1-6.75-1.79l.29-6.25c-2.09-1.16-2.47-1.4-4.56-2.58l-5.37,3.54a36.59,36.59,0,0,1-5.07-4.6l3.32-5.65-2.83-4.45-6.78.71a38.72,38.72,0,0,1-2.27-6.28Z"/><path class="cls-4" d="M192.52,104.36c.15-1.57.19-1.84.37-3.41l-4-2.57a26,26,0,0,1,1.39-4l4.75.57c.88-1.32,1-1.56,1.92-2.86l-2.4-4.27a24.56,24.56,0,0,1,3.08-2.86l3,2.06.71.5A12,12,0,0,0,203,91.81c-.06.06-.14.1-.19.16a15.81,15.81,0,1,0,12.73-3.36c-.31,0-.61-.1-.92-.13l-.59,0c-.3,0-.6,0-.91-.05h-.29a11.24,11.24,0,0,0-1.16,0,16.21,16.21,0,0,0-2.84.48c-.76.2-5.12,2.59-5.83,2.9-.85-.66-2.68-3.88-1.63-4.33l3.3-1.39.07,0,0-1.14,0-1.47-.07-2.35c.67-.23,1.33-.43,2-.61.47-.12,1-.23,1.42-.33l.61-.12.33.62,2,3.77h1.67l1.37,0h.39l.16-.32.74-1.53.64-1.29.62-1.28a24,24,0,0,1,4.08,1l0,4.89c1.4.7,1.67.83,3.07,1.55l3.84-2.82a23.83,23.83,0,0,1,3.21,2.83l-2.18,4.18c.92,1.29,1.07,1.51,2,2.79l4.49-.67a23,23,0,0,1,1.53,4.11L233,100.33c.23,1.58.26,1.84.46,3.43l4.09,1.39a24.29,24.29,0,0,1-.57,4.46l-4.2.52c-.52,1.48-.61,1.76-1.16,3.23l2.8,3a23.68,23.68,0,0,1-2.61,3.77L228,118.72c-1.17,1.06-1.36,1.25-2.53,2.3l1.06,3.83a24.89,24.89,0,0,1-4.08,2.19l-2.62-2.94-3.32.87-.85,3.85a24.78,24.78,0,0,1-4.63.1l-1-3.86-3.35-.75-2.58,3.07a23.39,23.39,0,0,1-4.12-2l1-4c-1.2-1-1.41-1.21-2.61-2.24l-3.9,1.61a23.46,23.46,0,0,1-2.68-3.61l2.85-3.21c-.59-1.49-.68-1.74-1.26-3.22l-4.46-.4a26,26,0,0,1-.67-4.33Z"/><path class="cls-5" d="M52.18,233s-21.93,30.58,27.16,28.95,180.88-58.8,180.88-58.8S127,279.59,69.32,279.68,38.26,237.75,52.18,233"/><polygon class="cls-6" points="258.53 214.1 229.2 279.78 193.78 279.78 258.53 214.1"/><path class="cls-7" d="M138,241.54h0a2.31,2.31,0,0,0,2.29-2.28c.89-53.68,33.47-52.64,41.95-54.32a2.28,2.28,0,0,0,1.83-2.43h0a2.3,2.3,0,0,0-2.74-2.06c-9.8,2-44.73,2.13-45.67,58.75A2.33,2.33,0,0,0,138,241.54Z"/><path class="cls-8" d="M172.44,175h0a2.32,2.32,0,0,0,3.4,0c4.31-4.62,15.13-18,15.51-36.44a48.25,48.25,0,0,0-1.46-12.78c-.38-1.51-.83-3-1.35-4.5a61.84,61.84,0,0,0-2.43-5.94c-.77-1.63-1.65-3.25-2.61-4.86a24.07,24.07,0,0,1-4.6,1.3c.92,1.51,1.77,3,2.52,4.57.21.45.45.88.66,1.32.71,1.54,1.37,3,1.91,4.58a44.82,44.82,0,0,1,2.74,16.14c-.33,16.81-10.47,29.35-14.31,33.5A2.26,2.26,0,0,0,172.44,175Z"/><path class="cls-8" d="M127,199.53h0a2.24,2.24,0,0,0,.19-3,21.94,21.94,0,0,1-3.33-22.83c3.51-8.39,11.29-13.82,19.83-13.82,18.57,0,27-20.5,29.3-27.57a2.27,2.27,0,0,0-1.62-2.92h0a2.31,2.31,0,0,0-2.77,1.48c-2.09,6.19-9.55,24.43-24.89,24.43-10.42,0-19.87,6.54-24.1,16.66a26.27,26.27,0,0,0,3.94,27.39A2.36,2.36,0,0,0,127,199.53Z"/><path class="cls-7" d="M63.56,252.53h.11a2.25,2.25,0,0,0,2.24-2.23c.92-53.13,34.68-63.53,43.55-65.34a2.26,2.26,0,0,0,1.81-2.46v-.05a2.24,2.24,0,0,0-2.71-1.95c-9.88,2.21-46.29,14.13-47.26,69.73A2.28,2.28,0,0,0,63.56,252.53Z"/><path class="cls-8" d="M76.27,252.65a2.24,2.24,0,0,0,1.64-.66c20.93-20.6,30.4-20.23,36.3-18.72,7,1.8,8.65,7.35,9.2,11.77a2.3,2.3,0,0,0,2.39,2h0a2.32,2.32,0,0,0,2.21-2.61c-.66-5.29-3.43-13.15-12.11-15.43-9.85-2.58-24.19,3.81-41.13,19.71a2.28,2.28,0,0,0,1.5,3.94Z"/><path class="cls-9" d="M170.24,118.32l.45,2,.59,2.52.94,4.06c1.25.09,2.48.14,3.73.14.84,0,1.72,0,2.57-.07l1.1-.07.29-1.2,1.72-7.36a5.74,5.74,0,0,1,.66-.16l2.21-.57,2.36-.56c.21,0,.42-.12.66-.17l.42.47,2,2.29,1.67,1.93,1.63,1.91a42.76,42.76,0,0,0,6.55-3.51l-2.14-8.39c2.07-1.82,2.47-2.17,4.55-4l7.85,3.11a43,43,0,0,0,4.22-6.3l-5.61-6.17c1-2.62,1.15-3.07,2.16-5.68l8-.88a41.71,41.71,0,0,0,.77-7.7l-7.4-2.69c-.33-2.81-.4-3.28-.75-6.08l6.36-4.22a43.43,43.43,0,0,0-3-7.38l-7.42,1c-1.56-2.29-1.84-2.73-3.44-5l3.44-6.38a40.8,40.8,0,0,0-6.16-5.28L195.39,52c-2.47-1.3-2.9-1.53-5.37-2.81l.09-7a42.6,42.6,0,0,0-8-1.91L179,46.43H172.9l-3.18-6.2a43,43,0,0,0-8,1.91l.09,7L156.45,52l-5.8-4.1a42.25,42.25,0,0,0-6.15,5.28L148,59.53c-1.61,2.27-1.89,2.71-3.47,5l-7.4-1a41.09,41.09,0,0,0-3,7.38l6.32,4.22c-.33,2.8-.38,3.27-.71,6.08l-7.45,2.69a46.52,46.52,0,0,0,.8,7.7l8,.88c1,2.61,1.15,3.06,2.17,5.68l-5.64,6.17a46.32,46.32,0,0,0,4.2,6.3l7.87-3.11c2.1,1.86,2.45,2.21,4.57,4L152.09,120a45.76,45.76,0,0,0,6.55,3.51l4.2-4.88.66-.78a23.11,23.11,0,0,1,1.18-8.53c-.14-.07-.28-.12-.4-.19a28,28,0,1,1,23.29,0c-.5.23-1,.44-1.51.63l-1,.36c-.5.18-1,.32-1.53.49a4.54,4.54,0,0,1-.5.12,19.29,19.29,0,0,1-2,.45,28.83,28.83,0,0,1-5.09.44,27,27,0,0,1-4.15-.3A10.58,10.58,0,0,0,170.24,118.32Z"/><path class="cls-7" d="M172,107.53a2.74,2.74,0,0,1,4,.68c.31.47.62.94.92,1.41v0a4.61,4.61,0,0,0,.52,0,20.13,20.13,0,0,0,5.14-.75c-.75-1.32-1.6-2.67-2.47-4a7.58,7.58,0,0,0-6.3-3.37,7.27,7.27,0,0,0-2.33.37h-.05a14.49,14.49,0,0,0-4.08,3.07,15.06,15.06,0,0,0-1.18,1.46c-2.49,3.54-3.41,8.27-2.68,14.07a2.49,2.49,0,0,0,2.5,2.19l.28,0a2.52,2.52,0,0,0,2.19-2.8c-.09-.76-.16-1.47-.19-2.17a25.51,25.51,0,0,1,2.18-8.43A5.27,5.27,0,0,1,172,107.53Z"/><polygon class="cls-10" points="158.61 264.06 129.32 279.78 167.44 279.78 188.26 264.06 158.61 264.06"/><polygon class="cls-10" points="180.12 252.53 162.91 261.76 191.32 261.76 203.55 252.53 180.12 252.53"/><polygon class="cls-10" points="204.15 239.64 184.41 250.22 206.6 250.22 220.63 239.64 204.15 239.64"/><polygon class="cls-10" points="222.87 229.6 208.45 237.33 223.68 237.33 233.93 229.6 222.87 229.6"/><polygon class="cls-10" points="248.62 218.51 261.11 209.09 243.54 218.51 248.62 218.51"/><polygon class="cls-10" points="239.24 220.81 227.16 227.29 236.98 227.29 245.57 220.81 239.24 220.81"/><path class="cls-11" d="M216.75,194.63h-3.94V164.1h-1.72V164l2.48-13.36h3.18Z"/><path class="cls-11" d="M241.23,183.15h-3.35v11.48h-3.69V183.15H221.76v-2l10.66-30.55h3.69v.17L226,179.83h8.21v-16h3.69v16h3.35Z"/><path class="cls-11" d="M250.47,163.93h-2.53a1.33,1.33,0,0,1-1.5-1.51v-9.94h-1.57v-1.57h1.57v-4h1.75v4h2.28v1.57h-2.28v9.88h2.28Z"/><path class="cls-11" d="M260.22,163.93h-1.78V152.5l-3.92.11v11.32h-1.78V143h1.78v8.28l2.11-.26a17,17,0,0,1,2.1-.18,1.31,1.31,0,0,1,1.49,1.46Z"/><path class="cls-11" d="M12.33,292.31H24.11l-9.46,35.21H2.88Z"/><path class="cls-11" d="M22.1,312.83c0-9.6,7.39-21.28,22.59-21.28,7.59,0,13,4,14.43,10.27L48.61,306.4a5.33,5.33,0,0,0-5.48-4.28c-5.29,0-8.71,4.83-8.71,9.66,0,3.87,2.42,6,5.54,6,2.71,0,4.93-1.3,6.84-3.67L55,320.58c-3.52,4.63-8.66,7.7-16.15,7.7C28.94,328.28,22.1,322.29,22.1,312.83Z"/><path class="cls-11" d="M64.61,292.31H76.44c6.48,0,10.46,1.26,13.08,3.87a9.76,9.76,0,0,1,2.76,7.1c0,8.8-6.64,14.69-17.81,14.69h-5l-2.56,9.55H55.15Zm9.26,17.25c4.48,0,6.54-2,6.54-4.67a2.93,2.93,0,0,0-.86-2.07,5.11,5.11,0,0,0-3.52-1.1H73.82l-2.06,7.84Z"/><path class="cls-11" d="M103.91,302.27H93.55l2.66-10h32.5l-2.66,10H115.68l-6.79,25.25H97.12Z"/><path class="cls-12" d="M137,318.77l18-11.07c2.77-1.71,3.07-2.86,3.07-3.92,0-1.26-.75-2.16-2.46-2.16-2,0-4.93,1.76-7.6,4.37l-6.64-7c3.92-4.23,8.75-7.3,15.69-7.3,8,0,12.68,4.33,12.68,10.42,0,4.33-2.16,8.25-10.16,12.68l-6.39,3.52h13.28l-2.46,9.2H134.61Z"/><path class="cls-13" d="M170.48,314.39c0-12.07,8.41-22.84,20.08-22.84,9.3,0,14.48,6.49,14.48,13.94,0,12.07-8.4,22.84-20.07,22.84C175.67,328.33,170.48,321.84,170.48,314.39Zm22.74-7.84c0-3.32-1.66-4.78-3.72-4.78-4.53,0-7.19,6.59-7.19,11.57,0,3.32,1.65,4.78,3.72,4.78C190.56,318.12,193.22,311.53,193.22,306.55Z"/><path class="cls-14" d="M205,318.77l18-11.07c2.77-1.71,3.07-2.86,3.07-3.92,0-1.26-.75-2.16-2.47-2.16-2,0-4.93,1.76-7.59,4.37l-6.64-7c3.92-4.23,8.75-7.3,15.69-7.3,8,0,12.68,4.33,12.68,10.42,0,4.33-2.16,8.25-10.16,12.68l-6.39,3.52h13.28l-2.46,9.2H202.63Z"/><path class="cls-15" d="M234.84,322.09l6.84-6.89a12.07,12.07,0,0,0,8.5,3.57c3.32,0,5.24-1.76,5.24-4.07,0-1.71-1.31-3.07-4-3.07a8.73,8.73,0,0,0-5.18,1.81l-6-3.72,5.64-17.41H271l-2.51,9.31H252.09l-1.2,3.72a14.66,14.66,0,0,1,5.38-1c6.54,0,10.77,3.68,10.77,9.51,0,8.45-6.64,14.34-16.75,14.34A22.75,22.75,0,0,1,234.84,322.09Z"/></g></g></svg>