<?xml version="1.0" encoding="UTF-8"?>
<svg id="Layer_2" data-name="Layer 2" xmlns="http://www.w3.org/2000/svg" xmlns:xlink="http://www.w3.org/1999/xlink" viewBox="0 0 275.76 365.21">
  <defs>
    <style>
      .cls-1 {
        fill: url(#linear-gradient-6);
      }

      .cls-1, .cls-2, .cls-3, .cls-4, .cls-5, .cls-6, .cls-7, .cls-8, .cls-9, .cls-10, .cls-11, .cls-12, .cls-13, .cls-14, .cls-15 {
        stroke-width: 0px;
      }

      .cls-2 {
        fill: #686aac;
      }

      .cls-3 {
        fill: url(#linear-gradient);
        opacity: .1;
      }

      .cls-4 {
        fill: url(#linear-gradient-2);
        opacity: .15;
      }

      .cls-5, .cls-13 {
        fill: #f7ab1f;
      }

      .cls-6 {
        fill: #fff;
      }

      .cls-7 {
        fill: url(#linear-gradient-3);
        opacity: .07;
      }

      .cls-8 {
        fill: #5c181e;
      }

      .cls-9 {
        fill: url(#linear-gradient-7);
      }

      .cls-10 {
        fill: url(#linear-gradient-9);
      }

      .cls-11 {
        fill: url(#linear-gradient-5);
      }

      .cls-11, .cls-13, .cls-15 {
        fill-rule: evenodd;
      }

      .cls-12 {
        fill: url(#linear-gradient-8);
      }

      .cls-14 {
        fill: url(#linear-gradient-10);
      }

      .cls-15 {
        fill: url(#linear-gradient-4);
      }
    </style>
    <linearGradient id="linear-gradient" x1="183.74" y1="47.33" x2="84.17" y2="74.01" gradientUnits="userSpaceOnUse">
      <stop offset="0" stop-color="#fff"/>
      <stop offset=".52" stop-color="#8a4b44"/>
      <stop offset="1" stop-color="#690f18"/>
    </linearGradient>
    <linearGradient id="linear-gradient-2" x1="2956.74" y1="-335.43" x2="3031.87" y2="-335.43" gradientTransform="translate(-2381.66 1555.06) rotate(-23.79)" xlink:href="#linear-gradient"/>
    <linearGradient id="linear-gradient-3" x1="1635.14" y1="-244.2" x2="1684.42" y2="-244.2" gradientTransform="translate(-1350.84 707.27) rotate(-12.7)" xlink:href="#linear-gradient"/>
    <linearGradient id="linear-gradient-4" x1="13.77" y1="261.95" x2="140.7" y2="245.18" gradientUnits="userSpaceOnUse">
      <stop offset=".1" stop-color="#d3b8b0"/>
      <stop offset=".52" stop-color="#8a4b44"/>
      <stop offset="1" stop-color="#690f18"/>
    </linearGradient>
    <linearGradient id="linear-gradient-5" x1="201.39" y1="300.27" x2="234.21" y2="244.1" xlink:href="#linear-gradient-4"/>
    <linearGradient id="linear-gradient-6" x1="5235.59" y1="83.62" x2="5148.32" y2="83.62" gradientTransform="translate(5369.75) rotate(-180) scale(1 -1)" xlink:href="#linear-gradient-4"/>
    <linearGradient id="linear-gradient-7" x1="154.03" y1="293.57" x2="154.03" y2="322.35" xlink:href="#linear-gradient-4"/>
    <linearGradient id="linear-gradient-8" x1="189.63" y1="293.57" x2="189.63" y2="322.35" xlink:href="#linear-gradient-4"/>
    <linearGradient id="linear-gradient-9" x1="222.06" y1="293.57" x2="222.06" y2="322.35" xlink:href="#linear-gradient-4"/>
    <linearGradient id="linear-gradient-10" x1="254.8" y1="293.57" x2="254.8" y2="322.35" xlink:href="#linear-gradient-4"/>
  </defs>
  <g id="Layer_1-2" data-name="Layer 1">
    <g>
      <g>
        <path class="cls-6" d="M83.31,74.93l7.01.84.25.69c.34.95.61,1.69,1.01,2.75l-4.64,4.98c-.85.92-1.02,2.28-.4,3.38,1.68,2.98,3.63,5.77,5.79,8.31.56.65,1.36,1.01,2.19,1.01.34,0,.69-.06,1.02-.19l6.2-2.36c1.04.94,1.69,1.52,2.73,2.45l-1.72,6.29c-.33,1.2.15,2.47,1.19,3.16,2.89,1.91,5.94,3.52,9.04,4.8.35.15.73.22,1.09.22.8,0,1.59-.34,2.15-.96l4.31-4.84,3.55.92,1.4,6.31c.27,1.19,1.26,2.09,2.47,2.23,1.96.23,3.98.35,6,.35,1.4,0,2.82-.06,4.24-.17,1.24-.1,2.28-.98,2.57-2.19l.25-1.03c.14.18.28.36.42.54.56.7,1.39,1.09,2.25,1.09.35,0,.71-.07,1.06-.2l5.67-2.24c.46.43,1.04.68,1.65.75.26.23.53.47.84.74l-1.74,6.66c-.31,1.2.18,2.47,1.22,3.14,2.22,1.44,4.57,2.7,6.97,3.74.37.16.76.24,1.14.24.82,0,1.62-.35,2.18-1l1.19-1.39c.99,1.04,2.39,1.68,3.93,1.68.11,0,.26,0,.44-.03.08,0,.16-.01.24-.02.8-.11,1.53-.38,2.16-.78l.43,1.86c-1.53.49-2.79,1.68-3.32,3.26-1.78,5.27-8.64,22.48-22.17,22.48-11.58,0-22.08,7.23-26.75,18.42-4.38,10.48-2.74,21.82,4.39,30.35,1.01,1.21,2.49,1.91,4.06,1.91,1.37,0,2.66-.53,3.64-1.5,1.9-1.89,2.06-4.93.36-6.93-5.52-6.48-5.1-14.51-2.86-19.86,3.06-7.32,9.8-12.05,17.17-12.05,20.65,0,29.74-22.62,32.03-29.55.36-1.08.33-2.24-.04-3.3.08,0,.15,0,.23,0,.91,0,1.83-.03,2.75-.08l1.12-.07c1.26-.09,2.32-.98,2.61-2.21l.09-.38c.97,3.71,1.43,7.48,1.36,11.24-.32,16.09-10.45,28.25-13.52,31.57-1.85,1.95-1.87,4.95-.05,6.98.11.12.22.23.35.33.96.88,2.23,1.38,3.53,1.38.17,0,.34,0,.51-.03-6.59,1.15-15.75,3.43-23.94,10.58-11.53,10.05-17.57,26.85-17.95,49.93-.02,1.39.51,2.71,1.49,3.71.99,1,2.3,1.56,3.71,1.56h.01c2.8,0,5.12-2.29,5.17-5.1.33-20.08,5.25-34.39,14.61-42.55,7.6-6.62,16.58-7.82,21.95-8.54,1.18-.16,2.21-.3,3.07-.47,2.57-.51,4.35-2.87,4.13-5.48-.22-2.66-2.48-4.74-5.14-4.74-.35,0-.69.04-1.04.1-.77.16-1.75.31-2.88.48-.78.12-1.62.25-2.52.4.99-.23,1.89-.75,2.59-1.5,4.76-5.1,15.89-19.05,16.28-38.34.09-4.09-.34-8.24-1.27-12.35.07,0,.15,0,.22,0,.38,0,.77-.08,1.13-.23.97-.42,1.93-.87,2.88-1.36-.27,1.2.25,2.44,1.31,3.09,1.48.9,3.03,1.66,4.61,2.24.33.12.66.18,1,.18.83,0,1.65-.36,2.2-1.03l1.39-1.66.51,2.04c.3,1.21,1.34,2.08,2.58,2.18.67.05,1.35.07,2.02.07,1.06,0,2.13-.06,3.16-.19,1.21-.15,2.2-1.04,2.47-2.23l.45-2.04,1.38,1.55c.56.63,1.34.96,2.15.96.37,0,.74-.07,1.1-.22,1.56-.65,3.1-1.47,4.57-2.45,1.04-.69,1.51-1.96,1.18-3.16l-.56-2.02,2.03.76c.33.12.67.18,1,.18.83,0,1.64-.36,2.2-1.02,1.13-1.33,2.11-2.76,2.93-4.23.6-1.09.43-2.44-.41-3.35l-1.53-1.64,2.35-.29c1.21-.15,2.19-1.04,2.45-2.23.36-1.62.57-3.29.63-4.98.04-1.27-.75-2.41-1.95-2.82l-2.32-.79,2.14-1.48c1-.69,1.46-1.94,1.14-3.12-.44-1.6-1.02-3.15-1.72-4.6-.49-1-1.5-1.62-2.59-1.62-.14,0-.28.01-.42.03l-2.66.4,1.32-2.53c.57-1.09.38-2.42-.46-3.31-1.09-1.15-2.3-2.22-3.59-3.17-.51-.37-1.11-.56-1.71-.56s-1.2.19-1.7.56l-2.34,1.72-.02-3.04c0-1.23-.8-2.32-1.96-2.71-1.07-.36-2.17-.65-3.29-.87l1.25-2.26c.61.02,1.11.03,1.72.05l1.81,3.87c.48,1.02,1.5,1.66,2.61,1.66.11,0,.23,0,.35-.02,2.56-.31,5.06-.86,7.44-1.63,1.16-.38,1.96-1.45,1.99-2.67l.1-4.25,1.55-.75,3.37,2.56c.51.39,1.13.59,1.74.59.55,0,1.11-.16,1.59-.48,2.07-1.37,4.05-3,5.89-4.82.88-.87,1.11-2.22.55-3.33l-1.91-3.82c.36-.48,1.02-1.37,1.02-1.37l4.32.71c.16.03.31.04.47.04,1.03,0,2-.56,2.51-1.48,1.25-2.24,2.26-4.57,3.02-6.92.38-1.18-.04-2.48-1.05-3.21l-3.63-2.62c.1-.6.17-1.1.26-1.7l4.44-1.46c1.15-.38,1.95-1.44,1.98-2.66.06-2.44-.11-4.92-.5-7.36-.2-1.25-1.2-2.22-2.45-2.39l-4.75-.65c-.2-.59-.36-1.06-.56-1.65l3.5-3.59c.85-.87,1.06-2.19.52-3.28-1.08-2.19-2.35-4.25-3.78-6.14-.55-.74-1.41-1.14-2.3-1.14-.32,0-.65.05-.96.17l-4.88,1.73c-.44-.42-.8-.75-1.24-1.17l1.54-5.2c.35-1.18-.09-2.44-1.09-3.16-1.89-1.35-3.94-2.55-6.07-3.56-.39-.19-.81-.28-1.23-.28-.79,0-1.56.32-2.12.93l-3.72,4.05c-.59-.17-1.07-.3-1.66-.47l-1.13-5.58c-.24-1.2-1.23-2.12-2.45-2.28-1.68-.22-3.39-.33-5.09-.33-.6,0-1.21.01-1.81.04-1.26.06-2.33.93-2.65,2.15l-.54,2.07-.58,2.14-.35,1.32c-.14.03-.89.19-.89.19,0,0-.78.16-.78.16l-3.66-4.53c-.56-.69-1.39-1.06-2.23-1.06-.36,0-.73.07-1.08.21l-.91.37c-.73.3-1.45.63-2.16.97-1.03.5-2.02,1.03-3.03,1.61-1.09.63-1.64,1.89-1.36,3.12l1.23,5.46c-.69.46-1.1.73-1.68,1.13l-4.85-2.11c-.37-.16-.76-.24-1.15-.24-.82,0-1.62.35-2.18,1-1.49,1.73-2.85,3.6-4.05,5.57-.64,1.06-.53,2.41.27,3.36l3.69,4.32c-.24.57-.43,1.03-.67,1.6l-5.51.41c-1.26.09-2.31,1-2.59,2.24-.43,1.9-.73,3.88-.89,5.92-.48-.35-1.07-.55-1.69-.55-.12,0-.24,0-.36.02l-7.48.94c-.3-.19-.63-.33-.98-.4-.6-.9-1.06-1.58-1.73-2.56l4.08-7.42c.59-1.08.43-2.41-.39-3.32-2.07-2.28-4.37-4.4-6.83-6.3-.52-.4-1.14-.6-1.76-.6-.58,0-1.16.17-1.65.52l-2.41,1.69-2.5,1.73-2.07,1.45c-.42-.22-1.68-.9-1.68-.9,0,0-1.33-.73-1.53-.84l.2-8.64c.03-1.26-.77-2.39-1.97-2.79l-1.28-.42c-1.01-.32-2.04-.62-3.07-.88-1.49-.39-2.97-.71-4.51-.98-.17-.03-.34-.04-.51-.04-1.06,0-2.05.58-2.55,1.54l-3.89,7.45c-1.85-.22-2.56-.3-4.06-.46l-3.46-7.04c-.49-.99-1.5-1.61-2.58-1.61-.15,0-.3.01-.45.03-3.04.48-6.06,1.22-9,2.2-1.18.39-1.97,1.5-1.97,2.74l.02,8.46c-1.06.53-1.78.9-2.73,1.39-.18.09-.36.19-.55.29l-6.66-4.84c-.5-.37-1.1-.55-1.69-.55s-1.22.19-1.73.58c-2.43,1.83-4.79,3.95-7.01,6.27-.85.9-1.04,2.24-.46,3.33l3.79,7.16-.03.04c-.8,1.12-1.31,1.82-2.1,2.95l-7.67-1.11c-.14-.02-.28-.03-.41-.03-1.09,0-2.11.62-2.59,1.63-1.29,2.68-2.39,5.63-3.37,9.04-.34,1.19.12,2.47,1.14,3.17l6.26,4.27s-.41,2.94-.51,3.66l-6.81,2.38c-1.18.41-1.96,1.55-1.93,2.8.1,3.21.53,6.53,1.29,9.87.27,1.19,1.25,2.07,2.46,2.22ZM149.7,34.73c.32.2.64.39.99.63l1.02.69c.43.29.86.62,1.35,1.04,3.17,2.57,5.85,5.85,7.75,9.52v.81c-.82.43-1.42.74-2.26,1.18l-4.36-3.09c-.5-.35-1.08-.53-1.66-.53s-1.16.17-1.65.52c-2.33,1.64-4.54,3.53-6.57,5.64-.87.9-1.06,2.27-.46,3.37l2.61,4.82c-.46.66-.81,1.17-1.24,1.79l-.22.32-5.65-.76c-.13-.02-.26-.03-.38-.03-1.07,0-2.06.59-2.56,1.56-1.34,2.6-2.41,5.25-3.17,7.89-.35,1.2.12,2.5,1.16,3.19l4.86,3.24-.3,2.57-5.77,2.08c-1.17.42-1.93,1.54-1.9,2.78.07,2.43.26,4.64.59,6.71-1.81-.13-3.62-.43-5.39-.89-7.81-2.02-14.37-6.95-18.46-13.9-4.09-6.94-5.24-15.06-3.23-22.85,2.95-11.42,12.34-20.14,23.92-22.23.05,0,.1-.02.16-.03.75.05,2.03.08,3.99.14,2.73.08,7.8.22,8.72.41,1.84.48,3.59,1.1,5.23,1.85.71.32,1.33.64,1.89.96.11.07.21.11.32.16.07.03.13.07.13.07h0l.54.33ZM180.59,88.96c.66-1.08.53-2.47-.32-3.41l-4.84-5.38.16-.4c.44-1.09.74-1.86,1.2-3.04l7.5-.72c1.21-.12,2.22-.98,2.52-2.17.79-3.19,1.29-6.41,1.47-9.58.07-1.25-.68-2.41-1.85-2.85l-7.25-2.74s0-.07-.01-.1c5.11.27,9.97,2.08,14,5.21l-.35.59c-.64,1.08-.5,2.45.34,3.38,1.6,1.78,3.44,3.45,5.48,4.98.51.38,1.12.58,1.73.58.11,0,.22,0,.33-.02,1.46,3.23,2.23,6.75,2.23,10.32,0,.05,0,.11,0,.16l-1.76-1.21c-.49-.34-1.06-.51-1.63-.51-.63,0-1.26.21-1.78.61-1.22.96-2.37,2.03-3.43,3.18-.84.92-.99,2.27-.38,3.35l1.49,2.64-2.91-.35c-.12-.01-.23-.02-.34-.02-1.13,0-2.17.66-2.63,1.72-.62,1.41-1.14,2.92-1.54,4.48-.31,1.2.18,2.46,1.22,3.13l2.39,1.55-2.52.96c-1.17.45-1.92,1.61-1.84,2.86.01.24.03.49.06.73-.12.05-.24.1-.36.14l-.26.09c-.7-1.2-1.49-2.47-2.37-3.77-1.95-2.91-5.2-4.64-8.68-4.64-1.01,0-2.01.15-2.97.44-.25.05-.5.14-.73.26-1.91.99-3.56,2.23-4.89,3.69-.43.48-.94,1.07-1.39,1.73-.13.18-.26.37-.38.56-.48-.28-.96-.58-1.43-.9-.01-.15-.04-.29-.07-.44l-1.63-6.6c1.02-.87,1.67-1.44,2.64-2.3l.12-.11,6.56,2.66c.35.14.72.21,1.08.21.8,0,1.59-.34,2.15-.96,2.18-2.45,4.17-5.14,5.89-7.99ZM243.01,47.26c-1.86,5.36-5.7,9.67-10.81,12.13-2.91,1.4-6,2.12-9.21,2.12-1.88,0-3.75-.25-5.58-.75-2.58-.7-5.01-1.89-7.14-3.47l1.5-2.78c.59-1.1.41-2.45-.45-3.35-1.96-2.06-4.17-3.96-6.58-5.65-.5-.35-1.07-.52-1.65-.52-.27,0-.53.04-.79.11-1.51-6.4.02-13.18,4.29-18.36l.03-.03c.45-.34,1.14-.89,2.21-1.75,1.51-1.21,4.32-3.45,4.9-3.79,1.2-.58,2.43-1.05,3.66-1.39.52-.15.98-.26,1.42-.33.13-.02.17-.03.3-.07l.51-.08c.25-.04.5-.08.81-.11l.89-.1c.35-.04.72-.06,1.18-.06.16,0,.31,0,.47,0,8.09,0,15.6,4.72,19.13,12.03,2.46,5.09,2.79,10.85.93,16.2ZM204.62,110.85l6.2,2.46c.34.14.7.2,1.06.2.85,0,1.68-.38,2.24-1.07,1.7-2.11,3.22-4.37,4.5-6.72.59-1.08.43-2.41-.39-3.31l-4.43-4.87c.33-.88.57-1.5.91-2.38l6.25-.68c.56-.06,1.08-.28,1.5-.62,2.32,1.74,4.01,4.21,4.76,7.08.88,3.33.4,6.81-1.34,9.79-1.74,2.98-4.54,5.11-7.89,5.99-1.08.28-2.19.43-3.29.43-4.33,0-8.34-2.19-10.72-5.72.2-.18.41-.37.64-.57ZM163.26,68.15c-1.67,6.48-5.36,12.08-10.54,16.14,0-.23-.01-.46-.01-.69,0-8.62,4.38-16.48,11.44-21.05-.12,1.89-.42,3.77-.89,5.6Z"/>
        <path class="cls-6" d="M71,282.56h.19c24.33-.04,64.13-13.02,118.29-38.58,9.52-4.49,18.66-9,27.09-13.26l-7.61,4.08c-.77.41-1.28,1.15-1.45,1.96h-1.49c-.47,0-.94.12-1.36.34l-19.74,10.59c-.77.41-1.28,1.14-1.45,1.96h-1.49c-.47,0-.94.12-1.36.34l-17.21,9.23c-.77.41-1.28,1.14-1.45,1.96h-1.49c-.47,0-.94.12-1.36.34l-29.29,15.71c-1.16.62-1.75,1.96-1.43,3.23.32,1.28,1.47,2.18,2.79,2.18h38.12c.63,0,1.23-.2,1.73-.58l20.82-15.71c.57-.43.94-1.05,1.08-1.72h.24c.63,0,1.23-.2,1.73-.58l12.23-9.23c.57-.43.94-1.05,1.08-1.72h.24c.63,0,1.23-.2,1.73-.58l14.03-10.59c.57-.43.94-1.05,1.08-1.72h.24c.63,0,1.23-.2,1.73-.58l10.25-7.73c.57-.43.94-1.05,1.08-1.72h.24c.63,0,1.23-.2,1.73-.58l1.98-1.5-48.96,49.66c-.81.83-1.05,2.06-.6,3.13.45,1.07,1.49,1.77,2.65,1.77h35.42c1.13,0,2.16-.67,2.63-1.7l29.33-65.67c.38-.84.31-1.78-.11-2.54l1.79-1.35c1.2-.91,1.5-2.58.69-3.85-.55-.85-1.47-1.33-2.42-1.33-.2,0-.39.03-.59.07.7-.4,1.1-.62,1.13-.64,1.32-.76,1.82-2.42,1.14-3.78-.5-1-1.52-1.59-2.57-1.59-.38,0-.77.08-1.14.24-.98.42-73.5,31.76-130.33,48.43.33-.24.64-.52.92-.84.94-1.11,1.38-2.58,1.2-4.02-.55-4.39-3.03-14.91-14.23-17.85-1.65-.43-3.41-.65-5.24-.65-10.57,0-23.92,7.27-38.59,21.04-1.54,1.44-2.04,3.65-1.28,5.62.75,1.96,2.59,3.26,4.69,3.3.02,0,.08,0,.1,0,1.34,0,2.66-.54,3.62-1.49,12.65-12.46,22.35-18.51,29.67-18.51,1.61,0,2.92.28,3.89.53,4.27,1.09,6.38,3.89,7.07,9.33.31,2.48,2.38,4.36,4.86,4.5-18.21,5.21-34.6,8.79-46.17,9.17-1.24.04-2.43.06-3.58.06-13.36,0-21.84-2.74-24.51-7.93-3.5-6.78,3.29-16.44,3.35-16.53.73-1.02.72-2.39-.03-3.39-.55-.74-1.42-1.16-2.31-1.16-.31,0-.62.05-.93.15-9.34,3.19-22.31,19.71-20.06,33.27,1.44,8.68,9.19,19.02,37.94,19.02ZM226.82,225.46c-.3.37-.51.8-.6,1.26h-1.49c-.15,0-.3.03-.46.06.86-.44,1.71-.88,2.55-1.32ZM242.6,217.94h-1.47c.64-.34,1.26-.68,1.88-1.01-.2.31-.33.65-.41,1.01Z"/>
        <path class="cls-6" d="M65.43,255.4h.1c2.78,0,5.08-2.27,5.12-5.05.87-50.4,31.79-60.64,41.24-62.58,2.64-.54,4.4-2.94,4.09-5.65-.3-2.59-2.48-4.55-5.08-4.55-.38,0-.75.04-1.12.12-11.36,2.54-48.5,15.27-49.51,72.48-.02,1.38.5,2.68,1.47,3.68.98,1,2.29,1.55,3.68,1.55Z"/>
        <path class="cls-6" d="M236.06,197.51h3.69c1.59,0,2.88-1.29,2.88-2.88v-8.6h.47c1.59,0,2.88-1.29,2.88-2.88v-3.32c0-1.59-1.29-2.88-2.88-2.88h-.47v-13.11c0-1.59-1.29-2.88-2.88-2.88h-2.28l3.23-9.26c.11-.3.16-.62.16-.95v-.17c0-1.59-1.29-2.88-2.88-2.88h-3.69c-1.22,0-2.31.77-2.71,1.93l-10.08,28.89v-27.95c0-1.59-1.29-2.88-2.88-2.88h-3.18c-1.39,0-2.58.99-2.83,2.35l-2.48,13.36c-.03.17-.05.35-.05.52v.14c0,1.18.7,2.19,1.71,2.63v27.9c0,1.59,1.29,2.88,2.88,2.88h3.94c1.59,0,2.88-1.29,2.88-2.88v-9.57c.53.59,1.28.96,2.13.96h9.56v8.6c0,1.59,1.29,2.88,2.88,2.88ZM231.9,176.96l1.29-3.71v3.71h-1.29Z"/>
        <path class="cls-6" d="M259.27,148.03v-5.03c0-1.59-1.29-2.88-2.88-2.88h-1.78c-1.59,0-2.88,1.29-2.88,2.88v1.54c-.47-.34-1.05-.55-1.67-.55h-1.75c-1.59,0-2.88,1.29-2.88,2.88v1.49c-.93.48-1.57,1.44-1.57,2.56v1.57c0,1.12.64,2.08,1.57,2.56v7.38c0,2.58,1.8,4.39,4.37,4.39h2.53c.4,0,.79-.09,1.14-.24.35.15.73.24,1.14.24h1.78c.76,0,1.45-.29,1.96-.77.51.48,1.2.77,1.96.77h1.78c1.59,0,2.88-1.29,2.88-2.88v-11.64c0-2.55-1.79-4.33-4.36-4.33-.38,0-.83.02-1.34.07Z"/>
        <path class="cls-6" d="M4.75,330.4h11.77c1.3,0,2.44-.87,2.78-2.13l2.6-9.68c2.28,7.7,9.26,12.56,18.77,12.56,5.24,0,9.77-1.36,13.53-4.03-.11.76.07,1.54.55,2.15.54.71,1.39,1.13,2.28,1.13h11.77c1.3,0,2.44-.87,2.78-2.13l1.99-7.43h2.77c11.82,0,19.7-6.1,20.6-15.7h5.09l-5.82,21.63c-.23.86-.05,1.79.49,2.5s1.39,1.13,2.28,1.13h11.77c1.3,0,2.44-.87,2.78-2.13l6.22-23.13h8.16c1.3,0,2.44-.87,2.78-2.13l2.67-9.96c.23-.86.05-1.79-.5-2.49s-1.39-1.12-2.28-1.12h-32.5c-1.3,0-2.44.87-2.78,2.13l-.97,3.62c-.29-.36-.59-.71-.92-1.04-3.26-3.26-7.92-4.72-15.11-4.72h-11.82c-1.3,0-2.44.87-2.78,2.13l-1.47,5.49c-2.87-5.25-8.55-8.37-15.68-8.37-8.06,0-14.31,2.96-18.6,7.35l.8-2.97c.23-.86.05-1.79-.5-2.5-.54-.71-1.39-1.13-2.28-1.13h-11.77c-1.3,0-2.44.87-2.78,2.13l-9.46,35.22c-.23.86-.05,1.79.5,2.5.54.71,1.39,1.13,2.28,1.13ZM56.88,316.97l-6.43-5.08c-.53-.42-1.16-.62-1.78-.62-.84,0-1.67.37-2.24,1.07-1.87,2.31-3.44,2.61-4.61,2.61-2.2,0-2.66-1.72-2.66-3.16,0-3.26,2.23-6.78,5.83-6.78,1.48,0,2.31.66,2.7,2.13.21.81.77,1.49,1.53,1.86.4.19.83.29,1.26.29.39,0,.78-.08,1.15-.24l8.36-3.64-3.11,11.58ZM77.39,306.56l.52-1.97c.85,0,1.38.19,1.5.29,0,1.01-.91,1.48-2.01,1.68Z"/>
        <path class="cls-6" d="M275.16,290.56c-.54-.71-1.39-1.13-2.28-1.13h-25.15c-1.25,0-2.35.8-2.74,1.99l-2.7,8.35c-1.12-6.63-6.99-10.95-15.35-10.95-6.85,0-12.67,2.69-17.8,8.21-.4.43-.64.94-.73,1.48-2.79-6.48-9.41-9.84-15.99-9.84-7.48,0-14.14,4.04-18.33,10.26-1.45-6.16-7.18-10.11-15.18-10.11-6.85,0-12.67,2.69-17.8,8.21-1.03,1.11-1.02,2.84.02,3.94l6.64,6.99c.46.48,1.07.79,1.73.87l-12.16,7.48c-.62.38-1.08.99-1.27,1.7l-2.37,8.75c-.23.86-.05,1.79.49,2.5.54.71,1.39,1.13,2.28,1.13h29.38c1.3,0,2.44-.87,2.78-2.13l2-7.47c2.64,6.85,9.44,10.41,16.21,10.41,5.98,0,11.44-2.58,15.53-6.8l-.64,2.37c-.23.86-.05,1.79.49,2.5.54.71,1.39,1.13,2.28,1.13h29.38c1.3,0,2.44-.87,2.78-2.13l.54-2.02c3.6,2.6,8.84,4.85,14.95,4.85,11.56,0,19.63-7.08,19.63-17.21,0-3.96-1.56-7.22-4.26-9.4h2.85c1.3,0,2.44-.87,2.78-2.13l2.51-9.31c.23-.86.05-1.79-.49-2.5ZM236.35,315.44h-2.4c2.3-1.53,4.09-3.1,5.44-4.75.21.59.62,1.12,1.19,1.47l1.23.76c-.1.08-.2.16-.29.25l-3.12,3.15c-.54-.55-1.26-.87-2.04-.87ZM249.93,315.65c1.09-.76,2.21-1.14,3.33-1.14.66,0,1.02.13,1.15.2,0,1.14-1.96,1.19-2.36,1.19-.74,0-1.44-.08-2.12-.25ZM191.37,304.64c.25,0,.85,0,.85,1.9,0,4.23-2.22,8.7-4.32,8.7-.25,0-.85,0-.85-1.9,0-4.23,2.22-8.7,4.32-8.7ZM168.32,315.44h-2.4c1.38-.92,2.59-1.86,3.62-2.82-.04.59-.06,1.18-.06,1.77,0,.46.04.89.07,1.33-.38-.18-.79-.28-1.22-.28ZM209.79,305.49c0-1.58-.2-3.04-.53-4.4l6.54,6.89c.46.48,1.07.79,1.73.87l-9.19,5.65c.94-2.8,1.46-5.84,1.46-9.01Z"/>
        <path class="cls-6" d="M269.58,334.89h-.9c-1.3,0-2.44.88-2.78,2.13l-.07.25c-.15-.01-.31-.02-.46-.02-.26,0-.52.02-.77.06-.07-.47-.25-.92-.55-1.3-.54-.71-1.39-1.13-2.28-1.13h-.9c-1.3,0-2.44.87-2.78,2.13l-.22.81c-.09-.04-.17-.1-.26-.15-.65-.28-1.37-.42-2.14-.42-.3,0-.59.03-.88.07-.09-.41-.26-.8-.52-1.14-.54-.71-1.39-1.13-2.28-1.13h-1.03c-.22,0-.43.03-.64.08-.55-.18-1.15-.28-1.79-.28-1.2,0-2.29.39-3.16,1.12-.42.36-.76.81-1.05,1.3-.48,0-.95.07-1.39.19-.02,0-.05.01-.07.02-.09-.02-.18-.04-.27-.06-.08-.45-.26-.88-.54-1.25-.54-.71-1.39-1.13-2.28-1.13h-1.03c-1.09,0-2.05.61-2.54,1.55-.5-.86-1.44-1.43-2.48-1.43h-.89c-.92,0-1.79.44-2.33,1.19l-4.56,6.32,1.12-4.19c.23-.86.05-1.79-.5-2.49-.54-.71-1.39-1.12-2.28-1.12h-.9c-1.3,0-2.44.88-2.78,2.14l-.07.25c-.15-.01-.31-.02-.46-.02-.87,0-1.72.19-2.5.56-.33.16-.64.35-.94.56-.86-.72-1.94-1.12-3.17-1.12-.48,0-.93.06-1.37.17-.16-.03-.32-.04-.49-.04h-.91c-.7,0-1.35.26-1.86.69-.84-.51-1.85-.77-3.02-.77-.6,0-1.16.05-1.66.16-.46.1-.91.22-1.34.38-.37.14-.69.35-.96.6.21-.85.03-1.74-.51-2.44-.54-.71-1.39-1.12-2.28-1.12h-.9c-1.3,0-2.44.88-2.78,2.14l-.07.25c-.15-.01-.31-.02-.46-.02-.87,0-1.72.19-2.5.56-.36.17-.7.37-1.02.6-.93-.74-2.12-1.11-3.54-1.11-.6,0-1.16.05-1.66.16-.46.1-.91.22-1.34.38-.28.1-.52.25-.74.42-.34-.23-.7-.44-1.1-.6-.68-.27-1.42-.41-2.2-.41s-1.47.14-2.16.4c-.36-.59-.84-1.1-1.43-1.49-.93-.61-2.1-.92-3.45-.92h-2.96c-1.3,0-2.44.87-2.78,2.13l-1.12,4.18c-.12-1.47-.82-2.44-1.41-3-.89-.85-2.07-1.29-3.39-1.29-.48,0-.93.06-1.37.17-.16-.03-.32-.04-.49-.04h-.9c-.76,0-1.45.3-1.97.8-.31-.2-.64-.37-.99-.52-.68-.27-1.42-.41-2.2-.41-.9,0-1.77.19-2.59.57-.74.35-1.41.82-1.98,1.4-.4.41-.73.89-1.01,1.39,0,0,0-.02,0-.03-.23-.64-.58-1.22-1.04-1.71-.47-.51-1.05-.91-1.72-1.2-.65-.28-1.37-.42-2.14-.42-.96,0-1.88.22-2.72.64-.21.11-.39.24-.58.37-.05-.04-.1-.08-.16-.12-.42-.27-.89-.49-1.42-.65-.53-.16-1.09-.24-1.69-.24-.9,0-1.77.19-2.59.57-.34.16-.67.35-.98.57-.87-.73-1.96-1.13-3.19-1.13-.48,0-.93.06-1.37.17-.16-.03-.32-.04-.49-.04h-.9c-.69,0-1.32.25-1.82.66-.22-.13-.43-.27-.67-.37-.65-.28-1.37-.42-2.14-.42s-1.5.14-2.19.41c-.39-.22-.82-.36-1.27-.38-.11,0-.21,0-.32,0-.51,0-1.01.07-1.46.2-.02,0-.05.01-.07.02-.25-.07-.51-.11-.78-.11h-.9c-.68,0-1.32.25-1.82.66-.22-.13-.43-.27-.67-.37-.65-.28-1.37-.42-2.14-.42-.02,0-.04,0-.06,0-.2-.76-.71-1.43-1.44-1.81-.74-.39-1.6-.59-2.54-.59-1.2,0-2.29.39-3.16,1.12-.55.46-.99,1.05-1.32,1.75-.07.04-.12.09-.19.13-.71-.38-1.52-.6-2.4-.6-.48,0-.93.06-1.37.17-.16-.03-.32-.04-.49-.04h-.9c-.76,0-1.45.3-1.97.8-.31-.2-.64-.37-.99-.52-.68-.27-1.42-.41-2.2-.41-.61,0-1.2.09-1.78.27-.44-.57-.97-1.06-1.6-1.47-.99-.63-2.15-.95-3.47-.95-1.11,0-2.16.23-3.14.7-.93.44-1.75,1.03-2.44,1.76-.25.27-.48.56-.69.85.19-.84.01-1.72-.51-2.4-.54-.71-1.39-1.13-2.28-1.13h-.9c-1.3,0-2.44.87-2.78,2.13l-.23.85c-.76-.37-1.64-.56-2.64-.56-.6,0-1.16.05-1.66.16-.46.1-.91.22-1.34.38-.18.07-.35.15-.51.25-.8-.54-1.75-.84-2.81-.84-.48,0-.93.06-1.37.17-.16-.03-.32-.04-.49-.04h-.9c-.76,0-1.45.3-1.97.8-.31-.2-.64-.37-.99-.52-.68-.27-1.42-.41-2.2-.41-.31,0-.62.03-.93.08-.09-.41-.26-.8-.52-1.15-.54-.71-1.39-1.13-2.28-1.13h-1.03c-.83,0-1.6.36-2.13.95-.45-.28-.97-.46-1.52-.46h-.89c-1.3,0-2.44.87-2.78,2.13l-.03.11c-.06.03-.11.08-.16.12-.78-.4-1.69-.6-2.74-.6-.6,0-1.16.05-1.66.16-.46.1-.91.22-1.34.38-.18.07-.35.15-.51.25-.8-.54-1.75-.84-2.81-.84-.48,0-.93.06-1.37.17-.16-.03-.32-.04-.49-.04h-.9c-.16,0-.31.01-.47.04-.23-.07-.47-.13-.72-.14-.11,0-.21,0-.32,0-.51,0-1.01.07-1.47.2-.02,0-.05.01-.07.02-.25-.07-.51-.11-.78-.11h-.9c-.68,0-1.32.25-1.82.66-.22-.13-.43-.27-.67-.37-.65-.28-1.37-.42-2.14-.42-.85,0-1.67.18-2.42.52-.02-.01-.04-.03-.06-.04-.09-.38-.26-.74-.51-1.05-.54-.71-1.39-1.13-2.28-1.13h-.89c-1.3,0-2.44.87-2.78,2.13l-.03.11s-.05.04-.08.06c-.71-.38-1.5-.59-2.38-.59-.48,0-.93.06-1.37.17-.09-.02-.19-.02-.29-.02-.1-.37-.25-.73-.49-1.04-.54-.71-1.39-1.13-2.28-1.13h-.93c-1.3,0-2.44.87-2.78,2.13l-2.21,8.22c-.23.86-.05,1.79.5,2.5.54.71,1.39,1.13,2.28,1.13h.93c.4,0,.78-.09,1.13-.24.35.15.73.24,1.12.24h.9c.64,0,1.25-.21,1.73-.58.49.37,1.1.58,1.73.58h.9c.62,0,1.19-.2,1.67-.54.7.42,1.53.65,2.43.65.35,0,.68-.03,1.02-.09.34-.06.67-.16,1-.29.23-.09.45-.22.64-.36.26.15.53.29.82.4.66.25,1.37.37,2.11.37.92,0,1.75-.17,2.5-.5.42.23.88.36,1.37.36h.9c.73,0,1.4-.28,1.91-.74.52.47,1.19.74,1.91.74h.9c.64,0,1.25-.21,1.73-.58.49.37,1.1.58,1.73.58h.9c.55,0,1.07-.16,1.51-.44.24.12.49.23.75.32.51.16,1.06.25,1.61.25.51,0,1-.06,1.47-.18.18.03.36.05.54.05h.88c.62,0,1.19-.2,1.67-.54.7.42,1.53.65,2.43.65.35,0,.68-.03,1.02-.09.22-.04.44-.12.67-.19.3.1.61.17.93.17h.9c.77,0,1.48-.31,2.01-.83.32.22.67.41,1.03.55.68.28,1.43.41,2.21.41.89,0,1.75-.19,2.55-.55.07-.03.13-.08.19-.11.47.32,1.03.52,1.62.52h.9c.64,0,1.25-.21,1.73-.58.49.37,1.1.58,1.73.58h.9c.55,0,1.07-.16,1.51-.44.24.12.49.23.75.32.51.16,1.06.25,1.61.25.51,0,1-.06,1.47-.18.18.03.36.05.54.05h.88c.36,0,.7-.07,1.02-.19.31.12.64.19.99.19h.9c1.3,0,2.44-.87,2.78-2.13l.84-3.13c.08.61.22,1.18.46,1.71.34.78.82,1.46,1.43,2.03.59.55,1.29.97,2.06,1.26.74.27,1.54.41,2.36.41.58,0,1.13-.06,1.65-.18.51-.12,1-.29,1.47-.51.3-.15.59-.32.86-.5.39.3.81.57,1.28.75.68.27,1.43.41,2.21.41.89,0,1.75-.19,2.55-.55.07-.03.13-.08.19-.11.47.32,1.03.52,1.62.52h.9c.64,0,1.25-.21,1.73-.58.49.37,1.1.58,1.73.58h.9c.4,0,.79-.09,1.14-.24.35.15.73.24,1.13.24h.9c.98,0,1.87-.5,2.39-1.28.49.45,1.06.81,1.71,1.05.66.25,1.37.37,2.11.37.92,0,1.76-.17,2.5-.5.42.23.88.36,1.37.36h.9c1.16,0,2.18-.69,2.63-1.73.1.11.18.24.29.34.52.5,1.14.89,1.84,1.15.58.22,1.2.32,1.85.35h-3.58c-1.3,0-2.43.87-2.77,2.12l-.23.86s0,0,0,0c-.19-.19-.4-.36-.64-.49-.09-.38-.26-.74-.51-1.05-.54-.71-1.39-1.13-2.28-1.13h-.89c-1.3,0-2.44.87-2.78,2.13l-.03.11s-.05.04-.08.06c-.71-.38-1.5-.59-2.38-.59-.48,0-.93.06-1.36.17-.16-.03-.32-.04-.49-.04h-.9c-.69,0-1.32.25-1.82.66-.22-.13-.43-.27-.67-.37-.65-.28-1.37-.42-2.15-.42-.96,0-1.88.22-2.71.64-.28.14-.53.32-.79.5-.38-.33-.8-.61-1.28-.8-.56-.22-1.17-.34-1.81-.34-.78,0-1.52.14-2.19.42-.07-.03-.15-.07-.23-.1-.54-.21-1.12-.32-1.75-.32-.45,0-.89.06-1.31.16-.15-.02-.3-.04-.45-.04h-.9c-.69,0-1.32.25-1.82.66-.22-.13-.43-.27-.67-.37-.65-.28-1.37-.42-2.15-.42-.82,0-1.6.17-2.34.48-.41-.22-.88-.35-1.36-.35h-1.02c-.76,0-1.49.3-2.02.83-.52-.51-1.24-.83-2.02-.83h-.95c-.55,0-1.07.17-1.52.46-.75-.35-1.6-.54-2.57-.54-.55,0-1.06.05-1.54.14-.15-.21-.31-.42-.49-.6-.6-.6-1.32-1.03-2.17-1.29-.67-.21-1.41-.31-2.21-.31h-2.57c-1.3,0-2.44.87-2.78,2.13l-2.21,8.22c-.23.86-.05,1.79.5,2.5.54.71,1.39,1.13,2.28,1.13h.93c1.3,0,2.44-.87,2.78-2.13l.21-.8c.39,0,.77-.04,1.14-.1.07.21.15.42.25.62.29.57.69,1.07,1.19,1.47.45.36.96.63,1.53.81.51.17,1.06.25,1.62.25.51,0,1-.06,1.47-.18.18.03.36.05.54.05h.88c.69,0,1.33-.25,1.84-.67.51.45,1.17.72,1.9.72h.8c.94,0,1.83-.46,2.36-1.24l.43-.61c.12.14.22.29.35.42.52.5,1.13.89,1.84,1.15.66.25,1.37.37,2.11.37.92,0,1.75-.17,2.5-.5.42.23.88.36,1.37.36h.9c.6,0,1.17-.19,1.64-.51.48.33,1.05.51,1.64.51h.9c.6,0,1.16-.18,1.63-.5.47.32,1.04.5,1.63.5h.9c.71,0,1.37-.27,1.88-.71.3.19.63.35.98.48.66.25,1.37.37,2.11.37.92,0,1.75-.17,2.5-.5.42.23.88.36,1.37.36h.9c.64,0,1.25-.21,1.73-.58.49.37,1.1.58,1.73.58h.9c.62,0,1.19-.2,1.67-.54.7.42,1.51.65,2.43.65.35,0,.68-.03,1.02-.09.34-.06.67-.16,1-.29.84-.33,1.48-1.05,1.71-1.92l.22-.82c.23-.86.04-1.77-.5-2.47.81-.33,1.45-1.03,1.69-1.92l.2-.77c.31.3.67.52,1.07.66l-1.04,3.9c-.23.86-.05,1.79.5,2.49.54.71,1.39,1.13,2.28,1.13h.93c1.27,0,2.38-.84,2.75-2.05.17.23.35.46.56.67.52.5,1.14.89,1.84,1.15.66.25,1.37.37,2.11.37.95,0,1.82-.18,2.58-.53.35-.16.68-.36,1-.57.41.3.84.56,1.32.74.65.24,1.33.36,2.02.36.82,0,1.58-.15,2.27-.44.39.19.83.3,1.27.3h.9c.64,0,1.25-.21,1.73-.58.49.37,1.1.58,1.73.58h.9c.34,0,.68-.06.99-.18.3.11.61.18.94.18h.9c.64,0,1.25-.21,1.73-.58.49.37,1.1.58,1.73.58h.9c.73,0,1.41-.29,1.93-.75.29.19.6.35.93.48.68.27,1.42.41,2.21.41.89,0,1.75-.19,2.55-.55.08-.04.15-.09.23-.13.48.34,1.05.54,1.65.54h.9c.77,0,1.48-.31,2.01-.83.32.22.67.4,1.03.55.68.27,1.42.41,2.21.41.63,0,1.25-.1,1.85-.29.08.1.17.19.26.28.65.57,1.41,1.01,2.26,1.32.83.3,1.71.45,2.6.45s1.66-.14,2.37-.4c.18-.07.35-.15.52-.23.26.14.54.27.83.38.52.18,1.07.27,1.64.27,1,0,1.98-.29,2.84-.85.73-.47,1.39-1.18,2.05-2.15l2.03-3.06-.14.55c-.22.86-.03,1.78.51,2.48.54.7,1.38,1.11,2.27,1.11h5.85c.76,0,1.45-.3,1.97-.79.26.17.53.33.82.45.72.32,1.52.48,2.39.48.98,0,1.91-.23,2.76-.65.47.32,1.02.5,1.6.5h5.85c.58,0,1.11-.18,1.57-.48.83.4,1.75.62,2.77.62.85,0,1.66-.14,2.41-.41.77-.29,1.44-.69,2.01-1.21.58-.53,1.04-1.15,1.36-1.85.34-.73.51-1.52.51-2.33,0-.75-.14-1.46-.43-2.11-.03-.06-.06-.12-.09-.19.47-.37.84-.88,1.01-1.48l.25-.86c.25-.87.08-1.8-.47-2.53-.54-.72-1.39-1.15-2.3-1.15h-4.59c-.76,0-1.46.3-1.98.8-.39-.25-.81-.48-1.27-.63-.59-.19-1.23-.29-1.89-.29-1.11,0-2.13.25-3.03.76-.32.18-.62.39-.91.61-.41-.36-.87-.68-1.39-.91-.72-.31-1.52-.47-2.36-.47-1.16,0-2.24.29-3.21.88-.25.15-.49.32-.72.5-.04-.04-.07-.08-.11-.12-.5-.42-1.09-.73-1.74-.94-.29-.09-.59-.16-.9-.21.22.03.43.06.65.06.52,0,1.01-.06,1.48-.19.18.03.36.05.54.05h.9c1.3,0,2.44-.88,2.78-2.13l.19-.71c.06.15.12.3.19.45.29.57.69,1.06,1.19,1.46.45.36.96.63,1.53.82.51.16,1.06.25,1.61.25.51,0,1-.06,1.47-.18.18.03.36.05.54.05h.88c.34,0,.68-.06.98-.18.3.11.61.18.94.18h.9c.64,0,1.25-.21,1.73-.58.49.37,1.1.58,1.73.58h.9c.71,0,1.36-.26,1.87-.7.25.16.5.31.77.42.65.28,1.35.42,2.08.42.51,0,1.01-.06,1.48-.19.18.03.36.05.54.05h.9c1.01,0,1.92-.53,2.44-1.36.52.84,1.44,1.36,2.44,1.36h1.02c.93,0,1.8-.45,2.34-1.21l.69-.97h.59c.32,1.27,1.46,2.17,2.79,2.17h.95c.22,0,.44-.03.65-.08.21.05.43.08.66.08h.9c.38,0,.74-.08,1.07-.21.33.13.68.21,1.04.21h.9c.81,0,1.56-.34,2.09-.9.54.56,1.28.9,2.07.9h.9c.6,0,1.16-.19,1.63-.52.47.32,1.03.52,1.61.52h.9c.76,0,1.45-.3,1.97-.79.34.22.69.42,1.09.56.66.25,1.37.37,2.11.37.94,0,1.8-.18,2.55-.52.42.24.9.38,1.4.38h.9c.74,0,1.42-.29,1.94-.76.28.19.57.35.89.49.65.28,1.35.42,2.08.42.52,0,1.01-.06,1.48-.19.18.03.36.05.54.05h.9c1.3,0,2.44-.88,2.78-2.13l2.29-8.57c.23-.86.05-1.78-.5-2.49-.54-.71-1.39-1.12-2.28-1.12ZM147.79,345.74s.02.1.04.14c.28.7.68,1.33,1.2,1.84.52.52,1.14.93,1.84,1.21.68.27,1.43.41,2.21.41.89,0,1.75-.19,2.55-.55.07-.03.13-.08.19-.11.47.32,1.03.52,1.62.52h.9c.64,0,1.25-.21,1.73-.58.24.18.51.32.8.42-1.03.23-1.88,1-2.16,2.05l-.27,1.01c-.22-.13-.44-.26-.68-.35-.68-.27-1.42-.41-2.2-.41-.9,0-1.77.19-2.58.57-.35.16-.68.36-.99.57-.87-.74-1.96-1.14-3.19-1.14-.48,0-.93.06-1.36.17-.16-.03-.32-.04-.49-.04h-.9c-.66,0-1.28.23-1.77.61-.31-.19-.63-.35-.97-.47-.04-.54-.24-1.07-.58-1.52-.27-.35-.62-.63-1-.83.28.04.57.07.86.07.95,0,1.82-.18,2.58-.53.61-.28,1.17-.64,1.66-1.05.63-.53.95-1.27,1-2.03ZM84.19,342.54c.08-.2.18-.36.3-.5.11-.12.23-.22.38-.29.05-.02.09-.04.14-.05.04.06.08.12.12.18-.29.13-.56.32-.8.55-.05.05-.1.1-.15.14,0-.01,0-.02.01-.04ZM124.34,348.85c.42.23.88.36,1.37.36h.9c.64,0,1.25-.21,1.73-.58.49.37,1.1.58,1.73.58h.9c.73,0,1.4-.28,1.92-.75.33.21.67.39,1.04.53.65.24,1.33.36,2.02.36.95,0,1.83-.2,2.61-.58.25-.12.48-.27.71-.42.36.25.74.47,1.17.63h0s-.02,0-.03,0h-.9c-1.3,0-2.44.87-2.78,2.13l-.16.61c-.11-.04-.22-.09-.34-.13-.53-.16-1.1-.24-1.69-.24-.9,0-1.77.19-2.58.57-.36.17-.7.37-1.03.6-.36-.29-.75-.55-1.19-.74-.65-.28-1.37-.42-2.15-.42-.13,0-.26.01-.39.02-.1-.32-.24-.64-.45-.91-.54-.71-1.39-1.13-2.29-1.13h-2.16c.74-.05,1.42-.21,2.03-.48ZM185.82,357.3l.9-1.36c.11-.17.18-.35.25-.53.04.04.07.09.11.13l.46.45-1.73,1.31ZM191.98,349.21c-1.11,0-2.13.25-3.03.76-.72.4-1.38.92-1.96,1.53-.25.27-.43.57-.56.89-.54-.57-1.29-.91-2.1-.91h-1.02c-.78,0-1.52.32-2.05.86-.53-.54-1.26-.86-2.05-.86h-.94c-.21,0-.42.02-.62.07-.19-.04-.39-.07-.6-.07h-.9c-.3,0-.59.05-.86.13-.52-.17-1.1-.26-1.73-.26-.8,0-1.58.16-2.35.47-.51.21-.97.5-1.4.83-.43-.36-.91-.67-1.45-.89-.68-.27-1.42-.41-2.2-.41-.31,0-.62.03-.92.08-.07-.47-.25-.93-.55-1.32-.35-.46-.84-.78-1.38-.96,1.05-.22,1.91-1,2.19-2.07l.03-.1c.09.4.26.78.51,1.11.54.71,1.39,1.13,2.28,1.13h.93c.96,0,1.83-.47,2.35-1.22.53.76,1.41,1.22,2.35,1.22h1.07c.66,0,1.28-.24,1.78-.64.23.13.46.27.71.37.68.27,1.43.41,2.21.41.89,0,1.75-.19,2.55-.55.27-.12.51-.28.76-.43.41.31.87.55,1.38.72.51.16,1.06.25,1.61.25.51,0,1-.06,1.47-.18.18.03.36.05.54.05h.88c.71,0,1.36-.26,1.87-.7.25.16.5.31.77.42.42.18.87.28,1.33.35-.29-.04-.59-.07-.89-.07Z"/>
      </g>
      <g>
        <g>
          <path class="cls-3" d="M96.79,40.14c1.88-2.71,2.23-3.17,4.16-5.86l-4.62-8.73c2.09-2.19,4.3-4.18,6.66-5.96l8.09,5.89c2.95-1.51,3.46-1.81,6.42-3.26l-.03-10.25c2.77-.92,5.63-1.63,8.54-2.08l3.36,6.82.79,1.64c-1.06,3.64-1.73,6.44-1.44,9.56-.18.04-.36.05-.51.1-12.34,2.22-22.85,11.39-26.19,24.34-4.56,17.64,6.06,35.69,23.75,40.26s35.72-6.08,40.28-23.72c3.34-12.95-1.43-26.12-11.18-34.02-.5-.42-1-.81-1.54-1.17-.34-.23-.69-.46-1.03-.7-.51-.36-1.06-.68-1.61-1.02-.17-.1-.35-.21-.53-.28-.7-.41-1.41-.77-2.16-1.1-1.82-.85-3.72-1.51-5.69-2.02-1.59-.41-11.98-.5-13.58-.66-.88-2.07-.94-9.81,1.44-9.56q3.34.35,7.43.83c.06,0,.11,0,.17.01l1.1-2.13,1.42-2.71,2.28-4.36c1.46.26,2.87.57,4.3.94.97.25,1.96.54,2.92.84.42.14.85.28,1.25.41l-.03,1.46-.2,8.92c.25.15.48.27.71.38,1.01.55,1.66.92,2.37,1.3.73.39,1.44.77,2.53,1.34.23.12.45.26.71.38l.62-.41,2.91-2.04,2.49-1.72,2.43-1.7c2.35,1.82,4.51,3.81,6.46,5.96l-4.93,8.97c1.84,2.69,2.19,3.21,4.01,5.96l9.9-1.24c1.23,2.71,2.23,5.52,2.97,8.45l-8.24,5.41c.36,3.29.42,3.85.8,7.14l8.89,3.36c-.17,3.01-.64,6.05-1.39,9.05l-9.26.89c-1.21,3.11-1.43,3.63-2.66,6.74l6.04,6.71c-1.66,2.74-3.51,5.25-5.58,7.56l-8.2-3.33c-2.46,2.16-2.91,2.59-5.41,4.7l2.05,8.33c-2.71,1.69-5.61,3.1-8.6,4.22l-5.45-6.41c-3.22.75-3.77.9-6.98,1.62l-1.97,8.07c-3.17.25-6.41.21-9.68-.17l-1.78-8.03-6.96-1.8-5.47,6.15c-3.02-1.24-5.9-2.79-8.55-4.54l2.18-8.01c-2.46-2.19-2.9-2.59-5.35-4.8l-7.85,2.98c-2.08-2.44-3.9-5.06-5.48-7.86l5.85-6.29c-1.17-3.06-1.36-3.66-2.49-6.74l-8.76-1.05c-.69-3.03-1.12-6.13-1.22-9.32l8.48-2.96c.45-3.31.54-3.86.99-7.17l-7.73-5.28c.85-2.97,1.89-5.87,3.19-8.58l9.43,1.37Z"/>
          <path class="cls-4" d="M192.62,46.47c-.23-2.39-.25-2.81-.45-5.22l-6.69-2.68c.13-2.21.42-4.35.89-6.45l7.27-.54c.93-2.23,1.07-2.64,2.04-4.84l-4.85-5.69c1.11-1.82,2.36-3.56,3.77-5.18l5.08,2.21,1.21.54c1.13,2.52,2.07,4.39,3.71,6-.08.11-.18.2-.24.3-5.82,7.05-7.34,17.1-3.1,25.88,5.78,11.96,20.19,16.99,32.18,11.19s17-20.22,11.22-32.17c-4.24-8.78-13.1-13.85-22.25-13.65-.47,0-.94.02-1.41.07-.3.03-.6.06-.9.1-.45.04-.91.12-1.37.19-.15.03-.29.05-.43.09-.58.1-1.15.24-1.72.4-1.41.39-2.78.92-4.12,1.56-1.08.52-6.9,5.37-7.86,6.03-1.46-.74-5.15-5.01-3.71-6q2.02-1.38,4.53-3.04s.06-.05.1-.07l-.4-1.7-.49-2.18-.79-3.5c.93-.54,1.87-1.04,2.84-1.51.66-.32,1.34-.63,2.02-.91.3-.12.6-.25.89-.36l.67.83,4.09,5.06c.21-.03.39-.08.57-.12.82-.17,1.36-.27,1.93-.39.59-.13,1.17-.25,2.04-.45.18-.04.37-.07.57-.12l.15-.52.66-2.51.57-2.13.55-2.09c2.16-.1,4.3,0,6.4.27l1.48,7.31c2.29.63,2.73.75,5.04,1.42l4.92-5.36c1.96.93,3.84,2.02,5.63,3.3l-2.04,6.89c1.75,1.66,2.04,1.94,3.81,3.59l6.52-2.32c1.32,1.75,2.49,3.67,3.49,5.69l-4.73,4.86c.8,2.3.92,2.69,1.7,5l6.52.89c.37,2.3.52,4.58.46,6.84l-6.13,2.02c-.35,2.36-.4,2.81-.8,5.17l5.06,3.66c-.71,2.22-1.66,4.36-2.79,6.4l-6.05-1c-1.43,1.93-1.67,2.28-3.12,4.19l2.71,5.41c-1.65,1.63-3.47,3.14-5.46,4.47l-4.77-3.62-4.72,2.28-.14,6c-2.26.73-4.59,1.23-6.9,1.51l-2.56-5.48c-2.4-.06-2.83-.07-5.24-.15l-2.96,5.36c-2.3-.38-4.56-.98-6.75-1.79l.29-6.25c-2.09-1.15-2.48-1.4-4.56-2.58l-5.37,3.54c-1.81-1.36-3.51-2.88-5.07-4.61l3.32-5.64c-1.31-2.05-1.52-2.4-2.83-4.45l-6.78.71c-.93-2.06-1.72-4.16-2.27-6.28l5.89-3.68Z"/>
          <path class="cls-7" d="M194.39,104.36c.15-1.57.19-1.84.37-3.42l-3.97-2.57c.36-1.4.82-2.75,1.39-4.04l4.75.57c.88-1.32,1.02-1.56,1.92-2.86l-2.4-4.27c.94-1.03,1.97-1.99,3.08-2.86l2.99,2.06.71.5c.41,1.77.78,3.09,1.63,4.33-.07.06-.14.11-.19.16-4.63,3.81-6.88,10.08-5.26,16.27,2.21,8.43,10.85,13.48,19.3,11.27,8.45-2.22,13.49-10.87,11.28-19.29-1.62-6.18-6.69-10.57-12.6-11.59-.3-.06-.61-.1-.92-.13-.2-.02-.39-.03-.59-.05-.3-.03-.6-.03-.91-.05-.1,0-.19,0-.29,0-.39,0-.77,0-1.16.04-.96.07-1.91.24-2.85.49-.76.2-5.12,2.58-5.82,2.89-.85-.66-2.68-3.88-1.63-4.33q1.48-.63,3.3-1.39s.05-.03.07-.03l-.04-1.15-.04-1.46-.07-2.35c.67-.23,1.33-.43,2.02-.61.46-.12.94-.23,1.41-.33.21-.04.42-.08.62-.12l.33.62,2,3.77c.14,0,.26,0,.38,0,.55,0,.91,0,1.29,0,.4,0,.78-.01,1.37-.03.12,0,.25,0,.38,0l.16-.32.74-1.53.64-1.3.61-1.28c1.4.21,2.77.54,4.09.98l.03,4.89c1.39.69,1.66.83,3.06,1.55l3.84-2.83c1.14.84,2.22,1.79,3.21,2.83l-2.18,4.18c.92,1.29,1.07,1.51,2,2.79l4.49-.67c.63,1.29,1.14,2.67,1.53,4.1l-3.66,2.53c.22,1.58.25,1.85.46,3.43l4.08,1.39c-.05,1.53-.24,3.01-.56,4.46l-4.2.52c-.52,1.47-.61,1.76-1.16,3.23l2.8,3c-.74,1.34-1.62,2.6-2.6,3.77l-3.77-1.41c-1.17,1.06-1.36,1.25-2.53,2.3l1.06,3.83c-1.27.84-2.63,1.58-4.08,2.19l-2.62-2.94-3.32.87-.85,3.85c-1.55.19-3.11.21-4.63.1l-.96-3.85c-1.54-.34-1.81-.41-3.35-.76l-2.58,3.07c-1.43-.53-2.81-1.2-4.12-2l.98-3.99c-1.2-1.01-1.42-1.21-2.61-2.23l-3.9,1.6c-.99-1.1-1.9-2.3-2.68-3.61l2.85-3.21c-.58-1.49-.68-1.74-1.26-3.22l-4.46-.4c-.34-1.44-.58-2.89-.67-4.33l4.26-1.63Z"/>
          <g>
            <path class="cls-15" d="M54.05,232.99s-21.93,30.58,27.17,28.95c49.09-1.63,180.88-58.8,180.88-58.8,0,0-133.26,76.45-190.9,76.54-57.64.09-31.06-41.94-17.14-46.69"/>
            <polygon class="cls-11" points="260.4 214.1 231.07 279.78 195.65 279.78 260.4 214.1"/>
            <g>
              <g>
                <path class="cls-2" d="M139.86,241.54h.01c1.26,0,2.27-1.02,2.29-2.27.89-53.68,33.47-52.65,41.95-54.33,1.15-.23,1.92-1.27,1.83-2.42h0c-.11-1.36-1.39-2.33-2.73-2.06-9.8,2-44.74,2.13-45.67,58.74-.02,1.28,1.03,2.34,2.32,2.34Z"/>
                <path class="cls-5" d="M174.31,175.04h.02c.92.99,2.47,1.01,3.39.02,4.31-4.62,15.13-18.01,15.51-36.44.09-4.29-.4-8.53-1.46-12.78-.38-1.51-.82-2.99-1.34-4.5-.68-1.98-1.51-3.96-2.43-5.94-.78-1.63-1.65-3.25-2.62-4.86-1.46.57-2.99,1.01-4.6,1.3.92,1.51,1.77,3.04,2.52,4.57.21.45.45.87.66,1.32.71,1.53,1.37,3.04,1.91,4.57,1.93,5.35,2.83,10.75,2.73,16.15-.33,16.81-10.47,29.35-14.31,33.5-.83.87-.8,2.19,0,3.09Z"/>
                <path class="cls-5" d="M128.91,199.53h0c.82-.82.94-2.14.19-3.02-6.33-7.44-5.96-16.53-3.33-22.83,3.51-8.39,11.29-13.82,19.82-13.82,18.57,0,26.96-20.5,29.3-27.57.42-1.26-.33-2.59-1.62-2.92h-.02c-1.18-.31-2.38.33-2.76,1.47-2.09,6.19-9.56,24.44-24.89,24.44-10.41,0-19.87,6.54-24.1,16.65-3.97,9.5-2.43,19.77,3.94,27.39.89,1.06,2.48,1.19,3.47.21Z"/>
                <path class="cls-2" d="M65.43,252.53h.1c1.24,0,2.23-1,2.25-2.23.92-53.13,34.67-63.53,43.54-65.35,1.15-.24,1.95-1.29,1.81-2.45v-.06c-.16-1.32-1.41-2.24-2.72-1.94-9.87,2.21-46.28,14.12-47.26,69.73-.02,1.25,1.01,2.3,2.28,2.3Z"/>
                <path class="cls-5" d="M78.14,252.65c.61.01,1.21-.24,1.65-.66,20.92-20.6,30.4-20.23,36.29-18.71,7,1.79,8.65,7.35,9.21,11.76.15,1.19,1.19,2.05,2.38,2.01h0c1.37-.05,2.38-1.26,2.21-2.62-.66-5.29-3.43-13.14-12.11-15.42-9.85-2.59-24.19,3.81-41.13,19.7-1.49,1.39-.54,3.9,1.5,3.95h0Z"/>
              </g>
              <path class="cls-1" d="M172.11,118.32l.45,1.98.59,2.52.94,4.05c1.25.09,2.48.14,3.72.14.85,0,1.72-.02,2.57-.07.38-.02.75-.05,1.11-.07l.28-1.2,1.72-7.35c.24-.07.45-.12.66-.17.94-.24,1.56-.4,2.22-.57.68-.17,1.34-.33,2.36-.57.21-.05.42-.12.66-.17l.42.47,1.96,2.29,1.67,1.93,1.63,1.91c2.31-.99,4.5-2.17,6.55-3.51l-2.14-8.39c2.07-1.82,2.47-2.17,4.55-4.03l7.85,3.11c1.58-1.96,2.99-4.05,4.22-6.29l-5.61-6.18c.99-2.62,1.15-3.06,2.17-5.68l7.99-.87c.49-2.5.75-5.09.78-7.71l-7.4-2.69c-.33-2.81-.4-3.28-.75-6.08l6.36-4.22c-.78-2.59-1.77-5.04-2.97-7.38l-7.43.99c-1.56-2.29-1.84-2.73-3.44-5l3.44-6.39c-1.86-1.96-3.94-3.72-6.15-5.28l-5.82,4.1c-2.47-1.3-2.9-1.53-5.37-2.8l.09-7.02c-2.55-.87-5.21-1.53-7.97-1.91l-3.16,6.2h-6.08s-3.18-6.2-3.18-6.2c-2.73.38-5.42,1.04-7.97,1.91l.09,7.02c-2.47,1.27-2.92,1.51-5.4,2.8l-5.8-4.1c-2.22,1.56-4.27,3.32-6.15,5.28l3.47,6.39c-1.6,2.26-1.89,2.71-3.47,5l-7.4-.99c-1.2,2.33-2.22,4.78-2.97,7.38l6.32,4.22c-.33,2.8-.38,3.28-.71,6.08l-7.45,2.69c.07,2.62.31,5.21.8,7.71l8.01.87c.97,2.62,1.16,3.06,2.17,5.68l-5.63,6.18c1.25,2.24,2.64,4.34,4.2,6.29l7.87-3.11c2.1,1.86,2.45,2.22,4.57,4.03l-2.19,8.39c2.07,1.34,4.27,2.52,6.55,3.51l4.2-4.88.66-.78c-.09-3.21.28-6.03,1.18-8.53-.14-.07-.28-.12-.4-.19-9.64-4.43-16.31-14.17-16.31-25.48,0-15.42,12.52-27.96,27.98-27.96,15.46,0,27.98,12.54,27.98,27.96,0,11.31-6.69,21.1-16.36,25.5-.49.24-.99.45-1.51.64-.33.12-.66.24-.99.35-.49.19-1.01.33-1.53.49-.17.05-.33.09-.5.12-.66.19-1.32.33-2,.45-1.67.31-3.37.45-5.09.45-1.39,0-2.81-.09-4.15-.31,0,0-2.16,3.1-1.56,7.02Z"/>
              <path class="cls-2" d="M173.85,107.53c1.25-1.01,3.09-.64,3.98.68.31.47.61.94.92,1.41v.02c.16.02.35.02.52.02,1.79-.02,3.51-.31,5.14-.75-.75-1.32-1.6-2.66-2.47-3.96-1.44-2.14-3.82-3.37-6.29-3.37-.78,0-1.56.12-2.33.38h-.05c-1.41.73-2.85,1.72-4.08,3.06-.42.47-.82.94-1.18,1.46-2.5,3.54-3.42,8.27-2.69,14.07.14,1.25,1.23,2.19,2.5,2.19.07,0,.19-.02.28-.02,1.37-.19,2.36-1.41,2.19-2.8-.09-.75-.16-1.46-.19-2.17.2-4.25,2.18-8.42,2.18-8.42,0,0,.73-1.35,1.57-1.81Z"/>
            </g>
            <polygon class="cls-13" points="160.48 264.06 131.19 279.78 169.31 279.78 190.13 264.06 160.48 264.06"/>
            <polygon class="cls-13" points="181.99 252.53 164.78 261.76 193.19 261.76 205.42 252.53 181.99 252.53"/>
            <polygon class="cls-13" points="206.02 239.64 186.28 250.22 208.47 250.22 222.5 239.64 206.02 239.64"/>
            <polygon class="cls-13" points="224.74 229.6 210.32 237.33 225.55 237.33 235.8 229.6 224.74 229.6"/>
            <g>
              <polygon class="cls-13" points="250.49 218.51 262.98 209.09 245.41 218.51 250.49 218.51"/>
              <polygon class="cls-13" points="241.11 220.81 229.03 227.29 238.85 227.29 247.44 220.81 241.11 220.81"/>
            </g>
          </g>
        </g>
        <g>
          <path class="cls-8" d="M218.62,194.63h-3.94v-30.53h-1.72v-.14l2.47-13.36h3.18v44.03Z"/>
          <path class="cls-8" d="M243.1,183.15h-3.35v11.48h-3.69v-11.48h-12.44v-2l10.66-30.56h3.69v.17l-10.13,29.06h8.21v-15.98h3.69v15.98h3.35v3.32Z"/>
          <path class="cls-8" d="M252.34,163.93h-2.53c-1,0-1.5-.5-1.5-1.51v-9.94h-1.57v-1.57h1.57v-4.05h1.75v4.05h2.27v1.57h-2.27v9.89h2.27v1.57Z"/>
          <path class="cls-8" d="M262.09,163.93h-1.78v-11.42l-3.92.11v11.32h-1.78v-20.94h1.78v8.28c.7-.09,1.41-.18,2.11-.27.89-.12,1.59-.17,2.1-.17.99,0,1.48.49,1.48,1.46v11.64Z"/>
        </g>
        <g>
          <path class="cls-8" d="M14.2,292.31h11.77l-9.46,35.22H4.75l9.46-35.22Z"/>
          <path class="cls-8" d="M23.97,312.83c0-9.61,7.4-21.28,22.59-21.28,7.6,0,12.98,4.02,14.44,10.26l-10.51,4.58c-.75-2.87-2.82-4.28-5.48-4.28-5.28,0-8.7,4.83-8.7,9.66,0,3.87,2.41,6.04,5.53,6.04,2.72,0,4.93-1.31,6.84-3.67l8.15,6.44c-3.52,4.63-8.65,7.7-16.15,7.7-9.86,0-16.7-5.99-16.7-15.44Z"/>
          <path class="cls-8" d="M66.48,292.31h11.82c6.49,0,10.46,1.26,13.08,3.87,1.86,1.86,2.77,4.33,2.77,7.09,0,8.8-6.64,14.69-17.81,14.69h-4.98l-2.57,9.56h-11.77l9.46-35.22ZM75.74,309.56c4.48,0,6.54-2.01,6.54-4.68,0-.76-.3-1.51-.86-2.06-.81-.81-2.21-1.11-3.52-1.11h-2.21l-2.06,7.85h2.11Z"/>
          <path class="cls-8" d="M105.78,302.27h-10.36l2.67-9.96h32.5l-2.67,9.96h-10.36l-6.79,25.25h-11.77l6.79-25.25Z"/>
          <path class="cls-9" d="M138.84,318.77l18.01-11.07c2.77-1.71,3.07-2.87,3.07-3.92,0-1.26-.76-2.16-2.46-2.16-2.01,0-4.93,1.76-7.6,4.38l-6.64-6.99c3.92-4.23,8.75-7.3,15.7-7.3,8,0,12.68,4.33,12.68,10.41,0,4.33-2.16,8.25-10.16,12.68l-6.39,3.52h13.28l-2.46,9.21h-29.38l2.37-8.75Z"/>
          <path class="cls-12" d="M172.35,314.39c0-12.07,8.4-22.84,20.07-22.84,9.31,0,14.49,6.49,14.49,13.94,0,12.07-8.4,22.84-20.07,22.84-9.31,0-14.49-6.49-14.49-13.94ZM195.09,306.55c0-3.32-1.66-4.78-3.72-4.78-4.53,0-7.19,6.59-7.19,11.57,0,3.32,1.66,4.78,3.72,4.78,4.53,0,7.19-6.59,7.19-11.57Z"/>
          <path class="cls-10" d="M206.87,318.77l18.01-11.07c2.77-1.71,3.07-2.87,3.07-3.92,0-1.26-.75-2.16-2.46-2.16-2.01,0-4.93,1.76-7.6,4.38l-6.64-6.99c3.92-4.23,8.75-7.3,15.7-7.3,8,0,12.68,4.33,12.68,10.41,0,4.33-2.16,8.25-10.16,12.68l-6.39,3.52h13.28l-2.46,9.21h-29.38l2.37-8.75Z"/>
          <path class="cls-14" d="M236.71,322.09l6.84-6.89c2.51,2.31,5.18,3.57,8.5,3.57s5.23-1.76,5.23-4.08c0-1.71-1.31-3.07-4.03-3.07-1.91,0-3.67.7-5.18,1.81l-5.99-3.72,5.64-17.41h25.15l-2.51,9.31h-16.4l-1.21,3.72c1.71-.65,3.47-.96,5.38-.96,6.54,0,10.77,3.67,10.77,9.51,0,8.45-6.64,14.34-16.75,14.34-6.59,0-12.38-3.07-15.45-6.14Z"/>
        </g>
        <g>
          <path class="cls-8" d="M5.08,338.11h.93l-2.21,8.22h-.93l2.21-8.22Z"/>
          <path class="cls-8" d="M7.68,340.26h.9l-.26.99c.27-.31.58-.58.92-.79s.74-.32,1.2-.32c.59,0,1.06.17,1.41.51.36.34.53.79.53,1.37,0,.14-.02.29-.05.46-.03.16-.07.32-.11.48l-.9,3.38h-.9l.92-3.43c.03-.1.05-.22.07-.34.02-.13.02-.24.02-.34,0-.4-.12-.71-.36-.93-.24-.22-.58-.33-1-.33-.24,0-.47.05-.7.15-.23.1-.44.23-.64.4-.2.17-.37.38-.52.62s-.26.5-.34.79l-.92,3.42h-.9l1.62-6.07Z"/>
          <path class="cls-8" d="M14.36,346.14c-.27-.2-.41-.5-.41-.9,0-.11,0-.22.02-.33.02-.11.04-.21.06-.31l.95-3.55h-.83l.21-.8h.85l.49-1.83h.89l-.49,1.83h1.91l-.21.8h-1.91l-.94,3.49c-.02.07-.03.15-.04.23,0,.08-.01.15-.01.22,0,.21.07.37.22.47.15.1.35.15.61.15s.56-.06.88-.18l-.22.82c-.16.06-.31.11-.46.14-.15.03-.32.04-.5.04-.44,0-.79-.1-1.07-.3Z"/>
          <path class="cls-8" d="M19.23,343.74v.12c0,.56.16,1,.49,1.33.33.33.77.5,1.34.5.39,0,.73-.06,1.02-.19s.57-.3.85-.53l.47.6c-.3.25-.64.46-1.02.64-.38.18-.84.26-1.37.26-.4,0-.77-.06-1.1-.19s-.62-.3-.85-.53c-.24-.23-.42-.5-.55-.82s-.19-.67-.19-1.05c0-.46.09-.92.26-1.37.18-.45.42-.85.74-1.2.32-.35.69-.64,1.12-.86.43-.22.9-.33,1.41-.33.38,0,.72.06,1.02.19.29.13.54.29.73.51.2.21.34.46.45.74.1.28.15.58.15.89,0,.2-.02.4-.06.59-.04.19-.09.38-.15.56h-4.75s-.01.08-.01.13ZM23.27,342.94c.04-.12.06-.28.06-.47,0-.21-.03-.41-.09-.6-.06-.19-.15-.35-.28-.5-.13-.14-.28-.26-.48-.34-.19-.09-.42-.13-.68-.13-.3,0-.58.05-.84.16-.26.11-.5.25-.71.44-.21.19-.39.4-.55.65s-.27.51-.35.8h3.9Z"/>
          <path class="cls-8" d="M26.5,340.26h.9l-.41,1.59c.19-.27.39-.51.59-.72.21-.22.43-.4.67-.55.24-.15.5-.26.76-.33.27-.08.55-.1.86-.09l-.26.97h-.06c-.33,0-.66.06-.98.18-.33.12-.63.3-.9.53-.28.23-.52.53-.74.88-.22.35-.39.76-.51,1.21l-.65,2.39h-.9l1.62-6.07Z"/>
          <path class="cls-8" d="M31.22,340.26h.9l-.26.99c.27-.31.58-.58.92-.79s.74-.32,1.2-.32c.59,0,1.06.17,1.41.51.36.34.53.79.53,1.37,0,.14-.02.29-.05.46-.03.16-.07.32-.11.48l-.9,3.38h-.9l.92-3.43c.03-.1.05-.22.07-.34.02-.13.02-.24.02-.34,0-.4-.12-.71-.36-.93-.24-.22-.58-.33-1-.33-.24,0-.47.05-.7.15-.23.1-.44.23-.64.4-.2.17-.37.38-.52.62s-.26.5-.34.79l-.92,3.42h-.9l1.62-6.07Z"/>
          <path class="cls-8" d="M38.01,346.35c-.23-.08-.43-.18-.61-.32s-.32-.32-.42-.52c-.11-.21-.16-.45-.16-.72,0-.34.07-.64.2-.92.13-.27.32-.5.56-.69s.53-.33.86-.43c.33-.1.69-.15,1.08-.15s.79.03,1.16.1c.37.07.7.14,1,.23l.04-.14c.02-.09.04-.18.06-.28.02-.1.02-.2.02-.28,0-.4-.14-.7-.41-.92s-.68-.32-1.24-.32c-.33,0-.63.03-.9.09s-.54.14-.82.23l-.15-.75c.3-.11.61-.2.93-.26.32-.07.68-.1,1.08-.1.77,0,1.36.17,1.77.5.41.33.62.79.62,1.38,0,.13-.01.27-.04.41-.02.14-.06.28-.09.42l-.92,3.44h-.88l.26-.95c-.28.33-.61.59-.98.79-.37.2-.8.29-1.29.29-.26,0-.5-.04-.73-.11ZM39.79,345.62c.25-.09.48-.21.7-.37.22-.16.41-.35.57-.57.16-.22.28-.47.35-.73l.12-.42c-.27-.08-.57-.14-.9-.19s-.69-.08-1.07-.08c-.27,0-.52.04-.75.11-.22.07-.41.17-.57.29s-.28.27-.37.45-.14.36-.14.58c0,.33.12.59.35.79.23.2.55.29.95.29.26,0,.51-.05.76-.14Z"/>
          <path class="cls-8" d="M44.66,346.14c-.27-.2-.41-.5-.41-.9,0-.11,0-.22.02-.33.02-.11.04-.21.06-.31l.95-3.55h-.83l.21-.8h.85l.49-1.83h.89l-.49,1.83h1.91l-.21.8h-1.91l-.94,3.49c-.02.07-.03.15-.04.23,0,.08-.01.15-.01.22,0,.21.07.37.22.47.15.1.35.15.61.15s.56-.06.88-.18l-.22.82c-.16.06-.31.11-.46.14-.15.03-.32.04-.5.04-.44,0-.79-.1-1.07-.3Z"/>
          <path class="cls-8" d="M49.98,340.26h.9l-1.63,6.07h-.9l1.63-6.07ZM50.54,337.94h1.03l-.27,1h-1.03l.27-1Z"/>
          <path class="cls-8" d="M53.37,346.27c-.34-.14-.63-.33-.87-.57-.24-.24-.43-.53-.56-.86-.13-.33-.19-.7-.19-1.09,0-.47.1-.92.29-1.36.19-.44.45-.82.78-1.16.32-.33.7-.6,1.13-.8.43-.2.89-.3,1.37-.3.41,0,.79.07,1.13.21.34.14.63.33.87.56s.43.52.56.86c.13.33.2.69.2,1.09,0,.49-.1.95-.29,1.39s-.46.82-.79,1.16c-.33.33-.71.6-1.14.79-.43.2-.88.29-1.36.29-.41,0-.79-.07-1.13-.21ZM55.53,345.42c.31-.15.59-.36.83-.62.24-.26.43-.55.58-.89.14-.34.21-.68.21-1.04,0-.62-.18-1.1-.53-1.44-.35-.34-.81-.51-1.37-.51-.35,0-.69.08-1,.24s-.59.37-.82.63c-.23.26-.42.56-.56.89-.14.34-.21.68-.21,1.03,0,.62.18,1.09.53,1.43.35.34.81.5,1.37.5.34,0,.66-.08.97-.23Z"/>
          <path class="cls-8" d="M60.48,340.26h.9l-.26.99c.27-.31.58-.58.92-.79s.74-.32,1.2-.32c.59,0,1.06.17,1.41.51.36.34.53.79.53,1.37,0,.14-.02.29-.05.46-.03.16-.07.32-.11.48l-.9,3.38h-.9l.92-3.43c.03-.1.05-.22.07-.34.02-.13.02-.24.02-.34,0-.4-.12-.71-.36-.93-.24-.22-.58-.33-1-.33-.24,0-.47.05-.7.15-.23.1-.44.23-.64.4-.2.17-.37.38-.52.62s-.26.5-.34.79l-.92,3.42h-.9l1.62-6.07Z"/>
          <path class="cls-8" d="M67.27,346.35c-.23-.08-.43-.18-.61-.32s-.32-.32-.42-.52c-.11-.21-.16-.45-.16-.72,0-.34.07-.64.2-.92.13-.27.32-.5.56-.69s.53-.33.86-.43c.33-.1.69-.15,1.08-.15s.79.03,1.16.1c.37.07.7.14,1,.23l.04-.14c.02-.09.04-.18.06-.28.02-.1.02-.2.02-.28,0-.4-.14-.7-.41-.92s-.68-.32-1.24-.32c-.33,0-.63.03-.9.09s-.54.14-.82.23l-.15-.75c.3-.11.61-.2.93-.26.32-.07.68-.1,1.08-.1.77,0,1.36.17,1.77.5.41.33.62.79.62,1.38,0,.13-.01.27-.04.41-.02.14-.06.28-.09.42l-.92,3.44h-.88l.26-.95c-.28.33-.61.59-.98.79-.37.2-.8.29-1.29.29-.26,0-.5-.04-.73-.11ZM69.05,345.62c.25-.09.48-.21.7-.37.22-.16.41-.35.57-.57.16-.22.28-.47.35-.73l.12-.42c-.27-.08-.57-.14-.9-.19s-.69-.08-1.07-.08c-.27,0-.52.04-.75.11-.22.07-.41.17-.57.29s-.28.27-.37.45-.14.36-.14.58c0,.33.12.59.35.79.23.2.55.29.95.29.26,0,.51-.05.76-.14Z"/>
          <path class="cls-8" d="M75.2,337.76h.9l-2.3,8.57h-.9l2.3-8.57Z"/>
          <path class="cls-8" d="M82.37,346.25c-.42-.16-.79-.38-1.11-.68s-.57-.65-.75-1.07c-.18-.42-.28-.89-.28-1.43,0-.67.13-1.31.39-1.92.26-.61.61-1.16,1.06-1.63.45-.47.97-.85,1.57-1.13s1.24-.42,1.92-.42c.76,0,1.4.17,1.91.5.52.33.91.75,1.19,1.26l-.8.49c-.25-.43-.56-.77-.93-1.02-.37-.25-.85-.38-1.46-.38-.53,0-1.03.12-1.5.35-.47.24-.88.55-1.23.94-.35.39-.63.84-.83,1.35-.2.51-.31,1.03-.31,1.57,0,.4.07.76.19,1.07s.31.59.53.81.5.39.81.51.66.18,1.03.18c.56,0,1.03-.1,1.43-.3.4-.2.77-.47,1.12-.82l.62.61c-.19.19-.39.37-.62.53-.22.17-.47.32-.73.44-.26.13-.55.22-.86.29-.31.07-.65.11-1.02.11-.49,0-.94-.08-1.36-.24Z"/>
          <path class="cls-8" d="M90.07,346.27c-.34-.14-.63-.33-.87-.57-.24-.24-.43-.53-.56-.86-.13-.33-.19-.7-.19-1.09,0-.47.1-.92.29-1.36.19-.44.45-.82.78-1.16.32-.33.7-.6,1.13-.8.43-.2.89-.3,1.37-.3.41,0,.79.07,1.13.21.34.14.63.33.87.56s.43.52.56.86c.13.33.2.69.2,1.09,0,.49-.1.95-.29,1.39s-.46.82-.79,1.16c-.33.33-.71.6-1.14.79-.43.2-.88.29-1.36.29-.41,0-.79-.07-1.13-.21ZM92.24,345.42c.31-.15.59-.36.83-.62.24-.26.43-.55.58-.89.14-.34.21-.68.21-1.04,0-.62-.18-1.1-.53-1.44-.35-.34-.81-.51-1.37-.51-.35,0-.69.08-1,.24s-.59.37-.82.63c-.23.26-.42.56-.56.89-.14.34-.21.68-.21,1.03,0,.62.18,1.09.53,1.43.35.34.81.5,1.37.5.34,0,.66-.08.97-.23Z"/>
          <path class="cls-8" d="M97.18,340.26h.9l-.26.99c.27-.31.58-.58.92-.79s.74-.32,1.2-.32c.59,0,1.06.17,1.41.51.36.34.53.79.53,1.37,0,.14-.02.29-.05.46-.03.16-.07.32-.11.48l-.9,3.38h-.9l.92-3.43c.03-.1.05-.22.07-.34.02-.13.02-.24.02-.34,0-.4-.12-.71-.36-.93-.24-.22-.58-.33-1-.33-.24,0-.47.05-.7.15-.23.1-.44.23-.64.4-.2.17-.37.38-.52.62s-.26.5-.34.79l-.92,3.42h-.9l1.62-6.07Z"/>
          <path class="cls-8" d="M104.52,341.06h-.83l.21-.8h.83l.2-.73c.16-.61.42-1.06.77-1.36s.78-.44,1.31-.44c.48,0,.88.09,1.21.26l-.21.78c-.18-.09-.35-.15-.5-.19s-.32-.06-.5-.06c-.29,0-.54.09-.75.28-.21.18-.37.48-.48.87l-.15.59h1.98l-.22.8h-1.97l-1.42,5.27h-.9l1.42-5.27Z"/>
          <path class="cls-8" d="M108.43,343.74v.12c0,.56.16,1,.49,1.33.33.33.77.5,1.34.5.39,0,.73-.06,1.02-.19s.57-.3.85-.53l.47.6c-.3.25-.64.46-1.02.64-.38.18-.84.26-1.37.26-.4,0-.77-.06-1.1-.19s-.62-.3-.85-.53c-.24-.23-.42-.5-.55-.82s-.19-.67-.19-1.05c0-.46.09-.92.26-1.37.18-.45.42-.85.74-1.2.32-.35.69-.64,1.12-.86.43-.22.9-.33,1.41-.33.38,0,.72.06,1.02.19.29.13.54.29.73.51.2.21.34.46.45.74.1.28.15.58.15.89,0,.2-.02.4-.06.59-.04.19-.09.38-.15.56h-4.75s-.01.08-.01.13ZM112.47,342.94c.04-.12.06-.28.06-.47,0-.21-.03-.41-.09-.6-.06-.19-.15-.35-.28-.5-.13-.14-.28-.26-.48-.34-.19-.09-.42-.13-.68-.13-.3,0-.58.05-.84.16-.26.11-.5.25-.71.44-.21.19-.39.4-.55.65s-.27.51-.35.8h3.9Z"/>
          <path class="cls-8" d="M115.69,340.26h.9l-.41,1.59c.19-.27.39-.51.59-.72.21-.22.43-.4.67-.55.24-.15.5-.26.76-.33.27-.08.55-.1.86-.09l-.26.97h-.06c-.33,0-.66.06-.98.18-.33.12-.63.3-.9.53-.28.23-.52.53-.74.88-.22.35-.39.76-.51,1.21l-.65,2.39h-.9l1.62-6.07Z"/>
          <path class="cls-8" d="M120.06,343.74v.12c0,.56.16,1,.49,1.33.33.33.77.5,1.34.5.39,0,.73-.06,1.02-.19s.57-.3.85-.53l.47.6c-.3.25-.64.46-1.02.64-.38.18-.84.26-1.37.26-.4,0-.77-.06-1.1-.19s-.62-.3-.85-.53c-.24-.23-.42-.5-.55-.82s-.19-.67-.19-1.05c0-.46.09-.92.26-1.37.18-.45.42-.85.74-1.2.32-.35.69-.64,1.12-.86.43-.22.9-.33,1.41-.33.38,0,.72.06,1.02.19.29.13.54.29.73.51.2.21.34.46.45.74.1.28.15.58.15.89,0,.2-.02.4-.06.59-.04.19-.09.38-.15.56h-4.75s-.01.08-.01.13ZM124.1,342.94c.04-.12.06-.28.06-.47,0-.21-.03-.41-.09-.6-.06-.19-.15-.35-.28-.5-.13-.14-.28-.26-.48-.34-.19-.09-.42-.13-.68-.13-.3,0-.58.05-.84.16-.26.11-.5.25-.71.44-.21.19-.39.4-.55.65s-.27.51-.35.8h3.9Z"/>
          <path class="cls-8" d="M127.33,340.26h.9l-.26.99c.27-.31.58-.58.92-.79s.74-.32,1.2-.32c.59,0,1.06.17,1.41.51.36.34.53.79.53,1.37,0,.14-.02.29-.05.46-.03.16-.07.32-.11.48l-.9,3.38h-.9l.92-3.43c.03-.1.05-.22.07-.34.02-.13.02-.24.02-.34,0-.4-.12-.71-.36-.93-.24-.22-.58-.33-1-.33-.24,0-.47.05-.7.15-.23.1-.44.23-.64.4-.2.17-.37.38-.52.62s-.26.5-.34.79l-.92,3.42h-.9l1.62-6.07Z"/>
          <path class="cls-8" d="M134.94,346.29c-.33-.12-.61-.3-.86-.52s-.44-.51-.59-.83c-.15-.33-.22-.7-.22-1.12,0-.49.1-.96.29-1.41.19-.45.45-.84.77-1.17.32-.34.7-.6,1.13-.8.43-.2.89-.3,1.37-.3.31,0,.6.04.86.12.26.08.49.18.69.31.2.13.37.28.52.45.15.17.26.35.36.54l-.73.46c-.09-.15-.18-.29-.29-.42s-.23-.24-.37-.34c-.14-.1-.3-.18-.48-.24-.18-.06-.38-.09-.61-.09-.34,0-.67.08-.99.24s-.59.37-.82.63c-.23.26-.42.57-.56.92-.14.35-.21.71-.21,1.09,0,.3.05.56.15.8.1.24.23.43.4.59.17.16.36.28.58.36.22.08.45.12.68.12.36,0,.68-.07.97-.22.29-.15.56-.34.83-.58l.53.59c-.31.3-.66.54-1.04.73s-.82.28-1.33.28c-.35,0-.69-.06-1.02-.18Z"/>
          <path class="cls-8" d="M140.77,343.74v.12c0,.56.16,1,.49,1.33.33.33.77.5,1.34.5.39,0,.73-.06,1.02-.19s.57-.3.85-.53l.47.6c-.3.25-.64.46-1.02.64-.38.18-.84.26-1.37.26-.4,0-.77-.06-1.1-.19s-.62-.3-.85-.53c-.24-.23-.42-.5-.55-.82s-.19-.67-.19-1.05c0-.46.09-.92.26-1.37.18-.45.42-.85.74-1.2.32-.35.69-.64,1.12-.86.43-.22.9-.33,1.41-.33.38,0,.72.06,1.02.19.29.13.54.29.73.51.2.21.34.46.45.74.1.28.15.58.15.89,0,.2-.02.4-.06.59-.04.19-.09.38-.15.56h-4.75s-.01.08-.01.13ZM144.81,342.94c.04-.12.06-.28.06-.47,0-.21-.03-.41-.09-.6-.06-.19-.15-.35-.28-.5-.13-.14-.28-.26-.48-.34-.19-.09-.42-.13-.68-.13-.3,0-.58.05-.84.16-.26.11-.5.25-.71.44-.21.19-.39.4-.55.65s-.27.51-.35.8h3.9Z"/>
          <path class="cls-8" d="M151.94,346.27c-.34-.14-.63-.33-.87-.57-.24-.24-.43-.53-.56-.86-.13-.33-.19-.7-.19-1.09,0-.47.1-.92.29-1.36.19-.44.45-.82.78-1.16.32-.33.7-.6,1.13-.8.43-.2.89-.3,1.37-.3.41,0,.79.07,1.13.21.34.14.63.33.87.56s.43.52.56.86c.13.33.2.69.2,1.09,0,.49-.1.95-.29,1.39s-.46.82-.79,1.16c-.33.33-.71.6-1.14.79-.43.2-.88.29-1.36.29-.41,0-.79-.07-1.13-.21ZM154.11,345.42c.31-.15.59-.36.83-.62.24-.26.43-.55.58-.89.14-.34.21-.68.21-1.04,0-.62-.18-1.1-.53-1.44-.35-.34-.81-.51-1.37-.51-.35,0-.69.08-1,.24s-.59.37-.82.63c-.23.26-.42.56-.56.89-.14.34-.21.68-.21,1.03,0,.62.18,1.09.53,1.43.35.34.81.5,1.37.5.34,0,.66-.08.97-.23Z"/>
          <path class="cls-8" d="M159.05,340.26h.9l-.26.99c.27-.31.58-.58.92-.79s.74-.32,1.2-.32c.59,0,1.06.17,1.41.51.36.34.53.79.53,1.37,0,.14-.02.29-.05.46-.03.16-.07.32-.11.48l-.9,3.38h-.9l.92-3.43c.03-.1.05-.22.07-.34.02-.13.02-.24.02-.34,0-.4-.12-.71-.36-.93-.24-.22-.58-.33-1-.33-.24,0-.47.05-.7.15-.23.1-.44.23-.64.4-.2.17-.37.38-.52.62s-.26.5-.34.79l-.92,3.42h-.9l1.62-6.07Z"/>
          <path class="cls-8" d="M170.51,338.11h2.96c.79,0,1.42.15,1.87.45.46.3.73.73.82,1.27.09.62-.03,1.19-.36,1.7-.2.4-.51.73-.93.98-.43.25-.94.43-1.54.52l1.69,3.29h-1.07l-1.62-3.19h-2.23l-.86,3.19h-.93l2.21-8.22ZM172.54,342.32c.6,0,1.11-.09,1.53-.27s.72-.41.9-.71c.25-.34.36-.72.33-1.15-.04-.38-.21-.67-.52-.89-.31-.22-.76-.32-1.36-.32h-2.21l-.9,3.35h2.23Z"/>
          <path class="cls-8" d="M178.57,346.27c-.34-.14-.63-.33-.87-.57-.24-.24-.43-.53-.56-.86-.13-.33-.19-.7-.19-1.09,0-.47.1-.92.29-1.36.19-.44.45-.82.78-1.16.32-.33.7-.6,1.13-.8.43-.2.89-.3,1.37-.3.41,0,.79.07,1.13.21.34.14.63.33.87.56s.43.52.56.86c.13.33.2.69.2,1.09,0,.49-.1.95-.29,1.39s-.46.82-.79,1.16c-.33.33-.71.6-1.14.79-.43.2-.88.29-1.36.29-.41,0-.79-.07-1.13-.21ZM180.74,345.42c.31-.15.59-.36.83-.62.24-.26.43-.55.58-.89.14-.34.21-.68.21-1.04,0-.62-.18-1.1-.53-1.44-.35-.34-.81-.51-1.37-.51-.35,0-.69.08-1,.24s-.59.37-.82.63c-.23.26-.42.56-.56.89-.14.34-.21.68-.21,1.03,0,.62.18,1.09.53,1.43.35.34.81.5,1.37.5.34,0,.66-.08.97-.23Z"/>
          <path class="cls-8" d="M185.28,346.35c-.23-.08-.43-.18-.61-.32s-.32-.32-.42-.52c-.11-.21-.16-.45-.16-.72,0-.34.07-.64.2-.92.13-.27.32-.5.56-.69s.53-.33.86-.43c.33-.1.69-.15,1.08-.15s.79.03,1.16.1c.37.07.7.14,1,.23l.04-.14c.02-.09.04-.18.06-.28.02-.1.02-.2.02-.28,0-.4-.14-.7-.41-.92s-.68-.32-1.24-.32c-.33,0-.63.03-.9.09s-.54.14-.82.23l-.15-.75c.3-.11.61-.2.93-.26.32-.07.68-.1,1.08-.1.77,0,1.36.17,1.77.5.41.33.62.79.62,1.38,0,.13-.01.27-.04.41-.02.14-.06.28-.09.42l-.92,3.44h-.88l.26-.95c-.28.33-.61.59-.98.79-.37.2-.8.29-1.29.29-.26,0-.5-.04-.73-.11ZM187.06,345.62c.25-.09.48-.21.7-.37.22-.16.41-.35.57-.57.16-.22.28-.47.35-.73l.12-.42c-.27-.08-.57-.14-.9-.19s-.69-.08-1.07-.08c-.27,0-.52.04-.75.11-.22.07-.41.17-.57.29s-.28.27-.37.45-.14.36-.14.58c0,.33.12.59.35.79.23.2.55.29.95.29.26,0,.51-.05.76-.14Z"/>
          <path class="cls-8" d="M192.66,346.29c-.29-.13-.55-.3-.76-.52-.22-.22-.38-.49-.51-.81-.12-.32-.18-.67-.18-1.05,0-.54.09-1.04.28-1.5s.44-.86.76-1.19.68-.6,1.09-.79c.41-.19.83-.29,1.28-.29.31,0,.59.04.83.12s.46.19.65.33c.19.14.35.3.48.48s.24.37.32.57l1.03-3.87h.9l-2.29,8.57h-.9l.27-1.03c-.29.33-.62.61-.99.83-.37.23-.8.34-1.3.34-.34,0-.66-.06-.96-.19ZM194.87,345.44c.32-.16.61-.37.86-.63.25-.26.45-.57.61-.91s.24-.7.24-1.08c0-.27-.05-.51-.14-.74s-.22-.43-.38-.59-.36-.3-.59-.4c-.23-.1-.49-.15-.77-.15-.36,0-.69.08-1,.24s-.58.37-.8.63-.4.57-.53.92c-.13.35-.19.72-.19,1.1,0,.28.04.54.12.76.08.23.2.42.35.59s.33.29.55.38c.21.09.44.13.69.13.34,0,.67-.08.99-.24Z"/>
          <path class="cls-8" d="M203.3,346.35c-.23-.08-.43-.18-.61-.32s-.32-.32-.42-.52c-.11-.21-.16-.45-.16-.72,0-.34.07-.64.2-.92.13-.27.32-.5.56-.69s.53-.33.86-.43c.33-.1.69-.15,1.08-.15s.79.03,1.16.1c.37.07.7.14,1,.23l.04-.14c.02-.09.04-.18.06-.28.02-.1.02-.2.02-.28,0-.4-.14-.7-.41-.92s-.68-.32-1.24-.32c-.33,0-.63.03-.9.09s-.54.14-.82.23l-.15-.75c.3-.11.61-.2.93-.26.32-.07.68-.1,1.08-.1.77,0,1.36.17,1.77.5.41.33.62.79.62,1.38,0,.13-.01.27-.04.41-.02.14-.06.28-.09.42l-.92,3.44h-.88l.26-.95c-.28.33-.61.59-.98.79-.37.2-.8.29-1.29.29-.26,0-.5-.04-.73-.11ZM205.08,345.62c.25-.09.48-.21.7-.37.22-.16.41-.35.57-.57.16-.22.28-.47.35-.73l.12-.42c-.27-.08-.57-.14-.9-.19s-.69-.08-1.07-.08c-.27,0-.52.04-.75.11-.22.07-.41.17-.57.29s-.28.27-.37.45-.14.36-.14.58c0,.33.12.59.35.79.23.2.55.29.95.29.26,0,.51-.05.76-.14Z"/>
          <path class="cls-8" d="M210.47,340.26h.9l-.26.99c.27-.31.58-.58.92-.79s.74-.32,1.2-.32c.59,0,1.06.17,1.41.51.36.34.53.79.53,1.37,0,.14-.02.29-.05.46-.03.16-.07.32-.11.48l-.9,3.38h-.9l.92-3.43c.03-.1.05-.22.07-.34.02-.13.02-.24.02-.34,0-.4-.12-.71-.36-.93-.24-.22-.58-.33-1-.33-.24,0-.47.05-.7.15-.23.1-.44.23-.64.4-.2.17-.37.38-.52.62s-.26.5-.34.79l-.92,3.42h-.9l1.62-6.07Z"/>
          <path class="cls-8" d="M217.88,346.29c-.29-.13-.55-.3-.76-.52-.22-.22-.38-.49-.51-.81-.12-.32-.18-.67-.18-1.05,0-.54.09-1.04.28-1.5s.44-.86.76-1.19.68-.6,1.09-.79c.41-.19.83-.29,1.28-.29.31,0,.59.04.83.12s.46.19.65.33c.19.14.35.3.48.48s.24.37.32.57l1.03-3.87h.9l-2.29,8.57h-.9l.27-1.03c-.29.33-.62.61-.99.83-.37.23-.8.34-1.3.34-.34,0-.66-.06-.96-.19ZM220.09,345.44c.32-.16.61-.37.86-.63.25-.26.45-.57.61-.91s.24-.7.24-1.08c0-.27-.05-.51-.14-.74s-.22-.43-.38-.59-.36-.3-.59-.4c-.23-.1-.49-.15-.77-.15-.36,0-.69.08-1,.24s-.58.37-.8.63-.4.57-.53.92c-.13.35-.19.72-.19,1.1,0,.28.04.54.12.76.08.23.2.42.35.59s.33.29.55.38c.21.09.44.13.69.13.34,0,.67-.08.99-.24Z"/>
          <path class="cls-8" d="M232.6,338.06h.89l1.53,8.28h-.95l-.38-2.17h-4.48l-1.55,2.17h-1.02l5.96-8.28ZM233.54,343.34l-.74-4.21-3.01,4.21h3.75Z"/>
          <path class="cls-8" d="M237.95,340.26h.9l-1.63,6.07h-.9l1.63-6.07ZM238.52,337.94h1.03l-.27,1h-1.03l.27-1Z"/>
          <path class="cls-8" d="M240.96,340.26h.9l-.41,1.59c.19-.27.39-.51.59-.72.21-.22.43-.4.67-.55.24-.15.5-.26.76-.33.27-.08.55-.1.86-.09l-.26.97h-.06c-.33,0-.66.06-.98.18-.33.12-.63.3-.9.53-.28.23-.52.53-.74.88-.22.35-.39.76-.51,1.21l-.65,2.39h-.9l1.62-6.07Z"/>
          <path class="cls-8" d="M245.82,341.06h-.83l.21-.8h.83l.2-.73c.16-.61.42-1.06.77-1.36s.78-.44,1.31-.44c.48,0,.88.09,1.21.26l-.21.78c-.18-.09-.35-.15-.5-.19s-.32-.06-.5-.06c-.29,0-.54.09-.75.28-.21.18-.37.48-.48.87l-.15.59h1.98l-.22.8h-1.97l-1.42,5.27h-.9l1.42-5.27Z"/>
          <path class="cls-8" d="M250.18,340.26h.9l-1.63,6.07h-.9l1.63-6.07ZM250.74,337.94h1.03l-.27,1h-1.03l.27-1Z"/>
          <path class="cls-8" d="M252.83,343.74v.12c0,.56.16,1,.49,1.33.33.33.77.5,1.34.5.39,0,.73-.06,1.02-.19s.57-.3.85-.53l.47.6c-.3.25-.64.46-1.02.64-.38.18-.84.26-1.37.26-.4,0-.77-.06-1.1-.19s-.62-.3-.85-.53c-.24-.23-.42-.5-.55-.82s-.19-.67-.19-1.05c0-.46.09-.92.26-1.37.18-.45.42-.85.74-1.2.32-.35.69-.64,1.12-.86.43-.22.9-.33,1.41-.33.38,0,.72.06,1.02.19.29.13.54.29.73.51.2.21.34.46.45.74.1.28.15.58.15.89,0,.2-.02.4-.06.59-.04.19-.09.38-.15.56h-4.75s-.01.08-.01.13ZM256.87,342.94c.04-.12.06-.28.06-.47,0-.21-.03-.41-.09-.6-.06-.19-.15-.35-.28-.5-.13-.14-.28-.26-.48-.34-.19-.09-.42-.13-.68-.13-.3,0-.58.05-.84.16-.26.11-.5.25-.71.44-.21.19-.39.4-.55.65s-.27.51-.35.8h3.9Z"/>
          <path class="cls-8" d="M260.86,337.76h.9l-2.3,8.57h-.9l2.3-8.57Z"/>
          <path class="cls-8" d="M263.41,346.29c-.29-.13-.55-.3-.76-.52-.22-.22-.38-.49-.51-.81-.12-.32-.18-.67-.18-1.05,0-.54.09-1.04.28-1.5s.44-.86.76-1.19.68-.6,1.09-.79c.41-.19.83-.29,1.28-.29.31,0,.59.04.83.12s.46.19.65.33c.19.14.35.3.48.48s.24.37.32.57l1.03-3.87h.9l-2.29,8.57h-.9l.27-1.03c-.29.33-.62.61-.99.83-.37.23-.8.34-1.3.34-.34,0-.66-.06-.96-.19ZM265.62,345.44c.32-.16.61-.37.86-.63.25-.26.45-.57.61-.91s.24-.7.24-1.08c0-.27-.05-.51-.14-.74s-.22-.43-.38-.59-.36-.3-.59-.4c-.23-.1-.49-.15-.77-.15-.36,0-.69.08-1,.24s-.58.37-.8.63-.4.57-.53.92c-.13.35-.19.72-.19,1.1,0,.28.04.54.12.76.08.23.2.42.35.59s.33.29.55.38c.21.09.44.13.69.13.34,0,.67-.08.99-.24Z"/>
          <path class="cls-8" d="M57.17,352.2h2.57c.52,0,.97.06,1.36.18.39.12.72.32.99.58.39.39.59.9.59,1.53,0,.48-.1.9-.29,1.27-.2.37-.47.69-.83.95s-.78.45-1.28.59-1.05.2-1.65.2h-1.95l-.79,2.92h-.93l2.21-8.22ZM58.68,356.68c.98,0,1.73-.18,2.25-.55.52-.37.79-.89.79-1.57,0-.4-.13-.72-.38-.97-.34-.35-.89-.52-1.63-.52h-1.84l-.96,3.62h1.77Z"/>
          <path class="cls-8" d="M63.86,360.44c-.23-.08-.43-.18-.61-.32s-.32-.32-.42-.52c-.11-.21-.16-.45-.16-.72,0-.34.07-.64.2-.92.13-.27.32-.5.56-.69s.53-.33.86-.43c.33-.1.69-.15,1.08-.15s.79.03,1.16.1c.37.07.7.14,1,.23l.04-.14c.02-.09.04-.18.06-.28.02-.1.02-.2.02-.28,0-.4-.14-.7-.41-.92s-.68-.32-1.24-.32c-.33,0-.63.03-.9.09s-.54.14-.82.23l-.15-.75c.3-.11.61-.2.93-.26.32-.07.68-.1,1.08-.1.77,0,1.36.17,1.77.5.41.33.62.79.62,1.38,0,.13-.01.27-.04.41-.02.14-.06.28-.09.42l-.92,3.44h-.88l.26-.95c-.28.33-.61.59-.98.79-.37.2-.8.29-1.29.29-.26,0-.5-.04-.73-.11ZM65.64,359.71c.25-.09.48-.21.7-.37.22-.16.41-.35.57-.57.16-.22.28-.47.35-.73l.12-.42c-.27-.08-.57-.14-.9-.19s-.69-.08-1.07-.08c-.27,0-.52.04-.75.11-.22.07-.41.17-.57.29s-.28.27-.37.45-.14.36-.14.58c0,.33.12.59.35.79.23.2.55.29.95.29.26,0,.51-.05.76-.14Z"/>
          <path class="cls-8" d="M70.25,354.35h.95l.68,5.04,3.36-5.04h1.02l-4.24,6.12h-.8l-.97-6.12Z"/>
          <path class="cls-8" d="M77.32,357.83v.12c0,.56.16,1,.49,1.33.33.33.77.5,1.34.5.39,0,.73-.06,1.02-.19s.57-.3.85-.53l.47.6c-.3.25-.64.46-1.02.64-.38.18-.84.26-1.37.26-.4,0-.77-.06-1.1-.19s-.62-.3-.85-.53c-.24-.23-.42-.5-.55-.82s-.19-.67-.19-1.05c0-.46.09-.92.26-1.37.18-.45.42-.85.74-1.2.32-.35.69-.64,1.12-.86.43-.22.9-.33,1.41-.33.38,0,.72.06,1.02.19.29.13.54.29.73.51.2.21.34.46.45.74.1.28.15.58.15.89,0,.2-.02.4-.06.59-.04.19-.09.38-.15.56h-4.75s-.01.08-.01.13ZM81.36,357.03c.04-.12.06-.28.06-.47,0-.21-.03-.41-.09-.6-.06-.19-.15-.35-.28-.5-.13-.14-.28-.26-.48-.34-.19-.09-.42-.13-.68-.13-.3,0-.58.05-.84.16-.26.11-.5.25-.71.44-.21.19-.39.4-.55.65s-.27.51-.35.8h3.9Z"/>
          <path class="cls-8" d="M84.59,354.35h.9l-.26.99c.27-.31.57-.58.88-.79s.69-.32,1.14-.32c.26,0,.49.04.68.12.2.08.36.18.51.31.14.13.26.27.35.44s.15.34.19.51c.27-.42.61-.76,1.02-1,.41-.25.88-.37,1.42-.37.27,0,.52.05.75.14.23.09.42.22.58.38.16.17.29.36.38.59.09.23.13.49.13.77,0,.14-.02.29-.05.46-.04.16-.07.32-.11.48l-.89,3.38h-.9l.93-3.43c.03-.1.05-.22.07-.34.01-.13.02-.24.02-.34,0-.4-.11-.71-.33-.93-.22-.22-.53-.33-.93-.33-.23,0-.45.05-.67.15-.22.1-.42.23-.61.41-.19.18-.35.38-.5.62-.15.24-.25.5-.32.78l-.9,3.42h-.9l.92-3.43c.03-.1.06-.22.07-.34s.02-.24.02-.34c0-.4-.11-.71-.33-.93-.22-.22-.53-.33-.93-.33-.23,0-.45.05-.66.15-.22.1-.42.23-.6.41s-.35.38-.5.62c-.14.24-.26.5-.33.78l-.92,3.42h-.9l1.62-6.07Z"/>
          <path class="cls-8" d="M95.39,357.83v.12c0,.56.16,1,.49,1.33.33.33.77.5,1.34.5.39,0,.73-.06,1.02-.19s.57-.3.85-.53l.47.6c-.3.25-.64.46-1.02.64-.38.18-.84.26-1.37.26-.4,0-.77-.06-1.1-.19s-.62-.3-.85-.53c-.24-.23-.42-.5-.55-.82s-.19-.67-.19-1.05c0-.46.09-.92.26-1.37.18-.45.42-.85.74-1.2.32-.35.69-.64,1.12-.86.43-.22.9-.33,1.41-.33.38,0,.72.06,1.02.19.29.13.54.29.73.51.2.21.34.46.45.74.1.28.15.58.15.89,0,.2-.02.4-.06.59-.04.19-.09.38-.15.56h-4.75s-.01.08-.01.13ZM99.43,357.03c.04-.12.06-.28.06-.47,0-.21-.03-.41-.09-.6-.06-.19-.15-.35-.28-.5-.13-.14-.28-.26-.48-.34-.19-.09-.42-.13-.68-.13-.3,0-.58.05-.84.16-.26.11-.5.25-.71.44-.21.19-.39.4-.55.65s-.27.51-.35.8h3.9Z"/>
          <path class="cls-8" d="M102.66,354.35h.9l-.26.99c.27-.31.58-.58.92-.79s.74-.32,1.2-.32c.59,0,1.06.17,1.41.51.36.34.53.79.53,1.37,0,.14-.02.29-.05.46-.03.16-.07.32-.11.48l-.9,3.38h-.9l.92-3.43c.03-.1.05-.22.07-.34.02-.13.02-.24.02-.34,0-.4-.12-.71-.36-.93-.24-.22-.58-.33-1-.33-.24,0-.47.05-.7.15-.23.1-.44.23-.64.4-.2.17-.37.38-.52.62s-.26.5-.34.79l-.92,3.42h-.9l1.62-6.07Z"/>
          <path class="cls-8" d="M109.34,360.23c-.27-.2-.41-.5-.41-.9,0-.11,0-.22.02-.33.02-.11.04-.21.06-.31l.95-3.55h-.83l.21-.8h.85l.49-1.83h.89l-.49,1.83h1.91l-.21.8h-1.91l-.94,3.49c-.02.07-.03.15-.04.23,0,.08-.01.15-.01.22,0,.21.07.37.22.47.15.1.35.15.61.15s.56-.06.88-.18l-.22.82c-.16.06-.31.11-.46.14-.15.03-.32.04-.5.04-.44,0-.79-.1-1.07-.3Z"/>
          <path class="cls-8" d="M120.54,353.06h-2.77l.23-.86h6.47l-.24.86h-2.77l-1.97,7.36h-.93l1.97-7.36Z"/>
          <path class="cls-8" d="M124.97,357.83v.12c0,.56.16,1,.49,1.33.33.33.77.5,1.34.5.39,0,.73-.06,1.02-.19s.57-.3.85-.53l.47.6c-.3.25-.64.46-1.02.64-.38.18-.84.26-1.37.26-.4,0-.77-.06-1.1-.19s-.62-.3-.85-.53c-.24-.23-.42-.5-.55-.82s-.19-.67-.19-1.05c0-.46.09-.92.26-1.37.18-.45.42-.85.74-1.2.32-.35.69-.64,1.12-.86.43-.22.9-.33,1.41-.33.38,0,.72.06,1.02.19.29.13.54.29.73.51.2.21.34.46.45.74.1.28.15.58.15.89,0,.2-.02.4-.06.59-.04.19-.09.38-.15.56h-4.75s-.01.08-.01.13ZM129.01,357.03c.04-.12.06-.28.06-.47,0-.21-.03-.41-.09-.6-.06-.19-.15-.35-.28-.5-.13-.14-.28-.26-.48-.34-.19-.09-.42-.13-.68-.13-.3,0-.58.05-.84.16-.26.11-.5.25-.71.44-.21.19-.39.4-.55.65s-.27.51-.35.8h3.9Z"/>
          <path class="cls-8" d="M132.65,360.38c-.33-.12-.61-.3-.86-.52s-.44-.51-.59-.83c-.15-.33-.22-.7-.22-1.12,0-.49.1-.96.29-1.41.19-.45.45-.84.77-1.17.32-.34.7-.6,1.13-.8.43-.2.89-.3,1.37-.3.31,0,.6.04.86.12.26.08.49.18.69.31.2.13.37.28.52.45.15.17.26.35.36.54l-.73.46c-.09-.15-.18-.29-.29-.42s-.23-.24-.37-.34c-.14-.1-.3-.18-.48-.24-.18-.06-.38-.09-.61-.09-.34,0-.67.08-.99.24s-.59.37-.82.63c-.23.26-.42.57-.56.92-.14.35-.21.71-.21,1.09,0,.3.05.56.15.8.1.24.23.43.4.59.17.16.36.28.58.36.22.08.45.12.68.12.36,0,.68-.07.97-.22.29-.15.56-.34.83-.58l.53.59c-.31.3-.66.54-1.04.73s-.82.28-1.33.28c-.35,0-.69-.06-1.02-.18Z"/>
          <path class="cls-8" d="M139.52,351.85h.9l-.94,3.49c.27-.31.58-.58.92-.79s.74-.32,1.2-.32c.59,0,1.06.17,1.41.51.36.34.53.79.53,1.37,0,.14-.02.29-.05.46-.03.16-.07.32-.11.48l-.9,3.38h-.9l.92-3.43c.03-.1.05-.22.07-.34.02-.13.02-.24.02-.34,0-.4-.12-.71-.36-.93-.24-.22-.58-.33-1-.33-.24,0-.47.05-.7.15-.23.1-.44.23-.64.4-.2.17-.37.38-.52.62s-.26.5-.34.79l-.92,3.42h-.9l2.3-8.57Z"/>
          <path class="cls-8" d="M146.03,354.35h.9l-.26.99c.27-.31.58-.58.92-.79s.74-.32,1.2-.32c.59,0,1.06.17,1.41.51.36.34.53.79.53,1.37,0,.14-.02.29-.05.46-.03.16-.07.32-.11.48l-.9,3.38h-.9l.92-3.43c.03-.1.05-.22.07-.34.02-.13.02-.24.02-.34,0-.4-.12-.71-.36-.93-.24-.22-.58-.33-1-.33-.24,0-.47.05-.7.15-.23.1-.44.23-.64.4-.2.17-.37.38-.52.62s-.26.5-.34.79l-.92,3.42h-.9l1.62-6.07Z"/>
          <path class="cls-8" d="M153.61,360.36c-.34-.14-.63-.33-.87-.57-.24-.24-.43-.53-.56-.86-.13-.33-.19-.7-.19-1.09,0-.47.1-.92.29-1.36.19-.44.45-.82.78-1.16.32-.33.7-.6,1.13-.8.43-.2.89-.3,1.37-.3.41,0,.79.07,1.13.21.34.14.63.33.87.56s.43.52.56.86c.13.33.2.69.2,1.09,0,.49-.1.95-.29,1.39s-.46.82-.79,1.16c-.33.33-.71.6-1.14.79-.43.2-.88.29-1.36.29-.41,0-.79-.07-1.13-.21ZM155.78,359.51c.31-.15.59-.36.83-.62.24-.26.43-.55.58-.89.14-.34.21-.68.21-1.04,0-.62-.18-1.1-.53-1.44-.35-.34-.81-.51-1.37-.51-.35,0-.69.08-1,.24s-.59.37-.82.63c-.23.26-.42.56-.56.89-.14.34-.21.68-.21,1.03,0,.62.18,1.09.53,1.43.35.34.81.5,1.37.5.34,0,.66-.08.97-.23Z"/>
          <path class="cls-8" d="M161.48,351.85h.9l-2.3,8.57h-.9l2.3-8.57Z"/>
          <path class="cls-8" d="M164.2,360.36c-.34-.14-.63-.33-.87-.57-.24-.24-.43-.53-.56-.86-.13-.33-.19-.7-.19-1.09,0-.47.1-.92.29-1.36.19-.44.45-.82.78-1.16.32-.33.7-.6,1.13-.8.43-.2.89-.3,1.37-.3.41,0,.79.07,1.13.21.34.14.63.33.87.56s.43.52.56.86c.13.33.2.69.2,1.09,0,.49-.1.95-.29,1.39s-.46.82-.79,1.16c-.33.33-.71.6-1.14.79-.43.2-.88.29-1.36.29-.41,0-.79-.07-1.13-.21ZM166.37,359.51c.31-.15.59-.36.83-.62.24-.26.43-.55.58-.89.14-.34.21-.68.21-1.04,0-.62-.18-1.1-.53-1.44-.35-.34-.81-.51-1.37-.51-.35,0-.69.08-1,.24s-.59.37-.82.63c-.23.26-.42.56-.56.89-.14.34-.21.68-.21,1.03,0,.62.18,1.09.53,1.43.35.34.81.5,1.37.5.34,0,.66-.08.97-.23Z"/>
          <path class="cls-8" d="M170.68,362.04c-.52-.19-.97-.45-1.34-.78l.56-.63c.33.27.69.5,1.09.66.4.17.83.25,1.3.25.38,0,.72-.06,1-.17.28-.11.52-.27.7-.45.19-.19.34-.4.46-.63s.22-.51.31-.82l.16-.61c-.31.31-.64.57-1.02.78-.37.21-.81.31-1.31.31-.32,0-.63-.05-.92-.15s-.56-.25-.79-.45c-.23-.2-.42-.43-.55-.72-.14-.28-.21-.61-.21-.97,0-.5.1-.96.29-1.39.2-.42.45-.79.77-1.09.32-.31.68-.54,1.09-.71.41-.17.83-.25,1.25-.25.33,0,.61.04.85.12s.45.19.62.33.32.29.45.47.23.36.31.53l.35-1.33h.9l-1.39,5.2c-.13.47-.27.85-.42,1.15-.16.29-.34.55-.56.77-.28.28-.61.49-1,.64s-.83.22-1.35.22c-.56,0-1.11-.09-1.63-.28ZM173.85,358.97c.31-.14.59-.32.83-.55.24-.23.43-.49.57-.78.14-.29.21-.6.21-.91,0-.22-.04-.43-.13-.64s-.21-.39-.37-.55c-.16-.16-.36-.29-.59-.38s-.49-.14-.78-.14c-.32,0-.63.06-.93.19-.3.13-.57.3-.8.53-.23.23-.42.5-.56.8s-.21.64-.21,1c0,.27.05.51.15.72.1.2.23.37.39.51s.35.24.56.31c.21.07.43.11.67.11.34,0,.67-.07.99-.21Z"/>
          <path class="cls-8" d="M176.97,362.23c-.22-.08-.42-.18-.62-.31l.49-.68c.11.09.25.16.43.22s.34.09.49.09c.26,0,.51-.08.76-.24.25-.16.52-.46.83-.89l-1.1-6.06h.94l.85,5.06,3.26-5.06h1.02l-4.16,6.27c-.42.63-.83,1.08-1.22,1.33-.39.25-.81.38-1.27.38-.26,0-.5-.04-.71-.11Z"/>
          <path class="cls-8" d="M187.42,359.7l4.71-3.57c.45-.34.8-.67,1.03-.96.23-.3.35-.62.35-.97s-.14-.67-.41-.9c-.27-.24-.66-.35-1.15-.35-.46,0-.88.11-1.24.33s-.7.49-1.01.8l-.61-.59c.38-.4.8-.73,1.27-.99s1.01-.39,1.63-.39c.37,0,.7.05,1.01.15.31.1.57.24.78.42.22.18.38.4.5.65s.18.53.18.83c0,.49-.15.94-.45,1.33-.3.39-.73.81-1.3,1.24l-3.79,2.88h4.39l-.22.85h-5.85l.19-.73Z"/>
          <path class="cls-8" d="M197.03,360.33c-.36-.16-.66-.38-.9-.66s-.43-.62-.56-1c-.13-.39-.19-.81-.19-1.27,0-.65.1-1.29.31-1.93.21-.63.5-1.2.87-1.71.38-.5.83-.91,1.35-1.23.52-.31,1.1-.47,1.74-.47.45,0,.86.08,1.22.23.36.16.66.38.9.66.24.28.43.62.56,1,.13.39.19.81.19,1.27,0,.65-.1,1.29-.31,1.93-.21.63-.5,1.2-.87,1.71s-.83.91-1.35,1.23c-.52.31-1.1.47-1.74.47-.46,0-.87-.08-1.23-.24ZM199.59,359.32c.4-.27.74-.61,1.04-1.03.3-.42.53-.9.7-1.44s.25-1.07.25-1.61c0-.34-.04-.65-.13-.93-.09-.28-.21-.53-.38-.73-.17-.21-.38-.37-.62-.49-.25-.12-.53-.18-.86-.18-.45,0-.87.13-1.27.4-.4.27-.74.61-1.04,1.03-.3.42-.53.9-.7,1.44-.17.54-.25,1.07-.25,1.61,0,.34.04.65.13.93s.21.53.38.73c.17.21.37.37.62.49.25.12.53.18.86.18.46,0,.88-.13,1.28-.4Z"/>
          <path class="cls-8" d="M202.8,359.7l4.71-3.57c.45-.34.8-.67,1.03-.96.23-.3.35-.62.35-.97s-.14-.67-.41-.9c-.27-.24-.66-.35-1.15-.35-.46,0-.88.11-1.24.33s-.7.49-1.01.8l-.61-.59c.38-.4.8-.73,1.27-.99s1.01-.39,1.63-.39c.37,0,.7.05,1.01.15.31.1.57.24.78.42.22.18.38.4.5.65s.18.53.18.83c0,.49-.15.94-.45,1.33-.3.39-.73.81-1.3,1.24l-3.79,2.88h4.39l-.22.85h-5.85l.19-.73Z"/>
          <path class="cls-8" d="M211.08,360.14c-.47-.28-.85-.63-1.12-1.03l.72-.53c.27.37.58.65.93.86.35.2.77.31,1.27.31.36,0,.69-.06.98-.17.29-.11.54-.26.75-.45.21-.19.37-.4.48-.65.11-.24.17-.5.17-.77,0-.49-.17-.88-.51-1.16-.34-.28-.78-.42-1.33-.42-.25,0-.52.04-.82.11-.29.07-.58.18-.86.34l-.53-.42,1.29-3.96h4.59l-.25.86h-3.75l-.87,2.57c.17-.09.4-.16.67-.22.27-.06.52-.09.74-.09.39,0,.75.06,1.06.16.32.11.59.27.82.47s.4.44.53.73c.13.29.19.61.19.96,0,.39-.08.77-.25,1.12-.16.35-.4.67-.69.94-.3.27-.66.49-1.08.64-.42.16-.89.24-1.41.24-.67,0-1.25-.14-1.72-.42Z"/>
        </g>
      </g>
    </g>
  </g>
</svg>