<svg width="456" height="288" viewBox="0 0 456 288" fill="none" xmlns="http://www.w3.org/2000/svg">
<rect width="456" height="288" fill="white"/>
<path d="M65.9938 42.9396V91.2165H49.7207L43.2115 82.3825V31.2385H58.3222L65.9938 42.9396ZM44.6063 32.6334V81.1427H57.2374V32.6334H44.6063ZM112.175 57.2755H102.643L94.2744 50.3788V64.6371H103.961L112.407 74.4785C112.02 79.9803 110.935 85.7146 104.348 89.4342C98.5364 92.7663 88.7725 91.3715 83.5806 87.7294C72.4219 79.7478 71.0271 72.9286 71.0271 59.9102V51.8511C71.0271 44.3345 72.267 36.1979 80.0161 32.2459C86.6803 28.9138 95.6692 29.8437 101.481 33.9507C109.928 39.9175 112.872 49.1389 112.175 57.2755ZM97.9165 33.4858C92.6471 30.4636 84.1231 31.006 79.7061 33.8732C73.6618 37.6703 72.4219 45.1094 72.4219 51.4636V58.5928C72.4219 67.4268 72.5769 75.5633 79.7061 80.7552C83.8131 83.7774 94.5844 84.3973 99.3113 80.6777C103.883 77.1131 103.418 69.519 103.418 66.0319H94.2744C93.9644 68.4342 93.8094 70.139 91.6397 71.0689C90.0899 71.7663 88.695 71.5338 87.5327 70.8364C85.053 69.4415 85.3629 67.1168 85.3629 61.8474V52.5485C85.3629 48.209 85.2079 45.0319 87.1452 43.5596C88.2301 42.7072 90.3224 42.7072 91.6397 43.1721C93.3445 43.8695 94.1969 45.8068 94.1969 48.4415C94.1969 48.4415 102.488 48.4415 103.186 48.4415C103.186 44.102 102.953 36.5079 97.9165 33.4858ZM135.963 31.2385C145.34 31.2385 152.314 32.6334 157.661 41.6998C161.845 48.9064 162.698 58.9803 158.901 65.6445C154.949 72.7737 146.735 73.3936 140.458 73.3936V91.2165H124.185L117.675 82.3825V31.2385H135.963ZM119.07 81.1427H131.701V63.3198H135.188C137.901 63.3198 147.587 64.0947 150.997 58.2828C153.554 53.8659 152.779 42.3972 150.299 38.2127C146.735 31.9359 139.14 32.6334 135.111 32.6334H119.07V81.1427ZM131.701 43.2496C133.406 43.2496 135.111 43.2496 135.111 43.2496C138.753 43.2496 139.528 44.3345 139.528 47.4341V49.4489C139.528 52.2386 138.83 53.091 134.568 53.091C134.568 53.091 133.174 53.091 131.701 53.091V43.2496ZM200.054 31.2385L208.5 40.6924V54.4083H196.954V91.2165H180.681L174.172 82.3825V54.4083H170.375L163.865 46.1943V31.2385H200.054ZM165.26 32.6334V44.7994H175.567V81.1427H188.198V44.7994H199.589V32.6334H165.26Z" fill="#52679C"/>
<path d="M41.7311 221.864V236.384H37.5325V221.864H41.7311ZM54.8903 221.864V236.384H51.6696L45.6215 227.2V236.384H44.2077V221.864H46.8545L53.4766 231.792V221.864H54.8903ZM67.5074 221.864V223.32H63.9572V236.384H59.5034V223.32H55.9107V221.864H67.5074ZM78.0092 221.864V223.32H72.8114V227.721H77.1907V229.177H72.8114V234.928H78.9021V236.384H68.6128V221.864H78.0092ZM80.2414 236.384V221.864H86.4702C88.093 221.864 89.3897 222.211 90.3606 222.906C91.3314 223.593 91.8168 224.507 91.8168 225.648C91.8168 227.406 90.7716 228.554 88.6811 229.092C89.7582 229.482 90.4527 229.914 90.7645 230.389C91.0763 230.857 91.2889 231.781 91.4022 233.163C91.5511 234.786 91.8274 235.86 92.2313 236.384H87.6607C87.3702 235.718 87.2249 234.875 87.2249 233.854L87.2036 233.014L87.1824 231.92C87.1824 230.254 86.5092 229.422 85.1628 229.422H84.44V236.384H80.2414ZM84.44 228.221H85.2903C86.8847 228.221 87.682 227.384 87.682 225.712C87.682 224.047 86.8847 223.214 85.2903 223.214H84.44V228.221ZM104.593 221.864V236.384H101.373L95.3245 227.2V236.384H93.9108V221.864H96.5575L103.18 231.792V221.864H104.593ZM113.618 221.864L117.667 236.384H113.448L112.576 233.227H108.197L107.283 236.384H105.635L109.919 221.864H113.618ZM108.611 231.792H112.183L110.461 225.351L108.611 231.792ZM128.988 221.864V223.32H125.438V236.384H120.984V223.32H117.391V221.864H128.988ZM134.313 221.864V236.384H130.114V221.864H134.313ZM142.795 221.62C147.019 221.62 149.13 224.125 149.13 229.135C149.13 234.13 146.983 236.628 142.689 236.628C138.374 236.628 136.216 234.074 136.216 228.965C136.216 224.068 138.409 221.62 142.795 221.62ZM142.689 222.778C141.888 222.778 141.346 223.218 141.063 224.096C140.779 224.975 140.638 226.654 140.638 229.135C140.638 231.601 140.779 233.273 141.063 234.152C141.346 235.03 141.888 235.47 142.689 235.47C143.469 235.47 144 235.03 144.283 234.152C144.567 233.273 144.709 231.601 144.709 229.135C144.709 226.654 144.567 224.975 144.283 224.096C144 223.218 143.469 222.778 142.689 222.778ZM161.609 221.864V236.384H158.389L152.341 227.2V236.384H150.927V221.864H153.574L160.196 231.792V221.864H161.609ZM170.634 221.864L174.684 236.384H170.464L169.592 233.227H165.213L164.299 236.384H162.651L166.935 221.864H170.634ZM165.627 231.792H169.199L167.477 225.351L165.627 231.792ZM180.041 221.864V234.928H186.004V236.384H175.842V221.864H180.041ZM202.044 230.548L203.595 231.027C203.61 231.388 203.617 231.707 203.617 231.983C203.617 233.394 203.106 234.52 202.086 235.363C201.073 236.207 199.712 236.628 198.004 236.628C193.689 236.628 191.531 234.212 191.531 229.379C191.531 227.083 192.158 225.223 193.412 223.799C194.674 222.367 196.311 221.652 198.323 221.652C201.462 221.652 203.032 223.157 203.032 226.169L201.48 226.998C201.509 226.58 201.523 226.247 201.523 225.999C201.353 223.866 200.403 222.8 198.674 222.8C196.86 222.8 195.953 225.071 195.953 229.613C195.953 233.518 196.97 235.47 199.004 235.47C199.847 235.47 200.584 235.137 201.214 234.471C201.852 233.805 202.171 232.968 202.171 231.962C202.171 231.643 202.129 231.172 202.044 230.548ZM211.164 221.62C215.387 221.62 217.499 224.125 217.499 229.135C217.499 234.13 215.352 236.628 211.057 236.628C206.742 236.628 204.584 234.074 204.584 228.965C204.584 224.068 206.777 221.62 211.164 221.62ZM211.057 222.778C210.257 222.778 209.714 223.218 209.431 224.096C209.148 224.975 209.006 226.654 209.006 229.135C209.006 231.601 209.148 233.273 209.431 234.152C209.714 235.03 210.257 235.47 211.057 235.47C211.837 235.47 212.368 235.03 212.652 234.152C212.935 233.273 213.077 231.601 213.077 229.135C213.077 226.654 212.935 224.975 212.652 224.096C212.368 223.218 211.837 222.778 211.057 222.778ZM229.978 221.864V236.384H226.757L220.709 227.2V236.384H219.295V221.864H221.942L228.564 231.792V221.864H229.978ZM241.883 221.864V223.32H236.61V228.178H241.096V229.613H236.61V236.384H232.412V221.864H241.883ZM252.693 221.864V223.32H247.495V227.721H251.874V229.177H247.495V234.928H253.585V236.384H243.296V221.864H252.693ZM254.925 236.384V221.864H261.154C262.776 221.864 264.073 222.211 265.044 222.906C266.015 223.593 266.5 224.507 266.5 225.648C266.5 227.406 265.455 228.554 263.365 229.092C264.442 229.482 265.136 229.914 265.448 230.389C265.76 230.857 265.972 231.781 266.086 233.163C266.234 234.786 266.511 235.86 266.915 236.384H262.344C262.054 235.718 261.908 234.875 261.908 233.854L261.887 233.014L261.866 231.92C261.866 230.254 261.193 229.422 259.846 229.422H259.123V236.384H254.925ZM259.123 228.221H259.974C261.568 228.221 262.365 227.384 262.365 225.712C262.365 224.047 261.568 223.214 259.974 223.214H259.123V228.221ZM278.054 221.864V223.32H272.857V227.721H277.236V229.177H272.857V234.928H278.947V236.384H268.658V221.864H278.054ZM290.884 221.864V236.384H287.663L281.615 227.2V236.384H280.201V221.864H282.848L289.47 231.792V221.864H290.884ZM303.193 230.548L304.745 231.027C304.759 231.388 304.766 231.707 304.766 231.983C304.766 233.394 304.256 234.52 303.235 235.363C302.222 236.207 300.861 236.628 299.154 236.628C294.838 236.628 292.68 234.212 292.68 229.379C292.68 227.083 293.308 225.223 294.562 223.799C295.823 222.367 297.46 221.652 299.473 221.652C302.612 221.652 304.181 223.157 304.181 226.169L302.629 226.998C302.658 226.58 302.672 226.247 302.672 225.999C302.502 223.866 301.552 222.8 299.823 222.8C298.009 222.8 297.102 225.071 297.102 229.613C297.102 233.518 298.119 235.47 300.153 235.47C300.996 235.47 301.733 235.137 302.364 234.471C303.002 233.805 303.32 232.968 303.32 231.962C303.32 231.643 303.278 231.172 303.193 230.548ZM315.767 221.864V223.32H310.57V227.721H314.949V229.177H310.57V234.928H316.66V236.384H306.371V221.864H315.767ZM329.214 221.62C333.437 221.62 335.549 224.125 335.549 229.135C335.549 234.13 333.402 236.628 329.107 236.628C324.792 236.628 322.634 234.074 322.634 228.965C322.634 224.068 324.827 221.62 329.214 221.62ZM329.107 222.778C328.307 222.778 327.764 223.218 327.481 224.096C327.198 224.975 327.056 226.654 327.056 229.135C327.056 231.601 327.198 233.273 327.481 234.152C327.764 235.03 328.307 235.47 329.107 235.47C329.887 235.47 330.418 235.03 330.702 234.152C330.985 233.273 331.127 231.601 331.127 229.135C331.127 226.654 330.985 224.975 330.702 224.096C330.418 223.218 329.887 222.778 329.107 222.778ZM348.028 221.864V236.384H344.807L338.759 227.2V236.384H337.345V221.864H339.992L346.614 231.792V221.864H348.028ZM355.776 236.384V221.864H362.005C363.628 221.864 364.925 222.211 365.896 222.906C366.866 223.593 367.352 224.507 367.352 225.648C367.352 227.406 366.307 228.554 364.216 229.092C365.293 229.482 365.988 229.914 366.3 230.389C366.611 230.857 366.824 231.781 366.937 233.163C367.086 234.786 367.362 235.86 367.766 236.384H363.196C362.905 235.718 362.76 234.875 362.76 233.854L362.739 233.014L362.717 231.92C362.717 230.254 362.044 229.422 360.698 229.422H359.975V236.384H355.776ZM359.975 228.221H360.825C362.42 228.221 363.217 227.384 363.217 225.712C363.217 224.047 362.42 223.214 360.825 223.214H359.975V228.221ZM375.451 221.62C379.675 221.62 381.787 224.125 381.787 229.135C381.787 234.13 379.639 236.628 375.345 236.628C371.03 236.628 368.872 234.074 368.872 228.965C368.872 224.068 371.065 221.62 375.451 221.62ZM375.345 222.778C374.544 222.778 374.002 223.218 373.719 224.096C373.435 224.975 373.294 226.654 373.294 229.135C373.294 231.601 373.435 233.273 373.719 234.152C374.002 235.03 374.544 235.47 375.345 235.47C376.125 235.47 376.656 235.03 376.94 234.152C377.223 233.273 377.365 231.601 377.365 229.135C377.365 226.654 377.223 224.975 376.94 224.096C376.656 223.218 376.125 222.778 375.345 222.778ZM390.237 221.864L394.287 236.384H390.067L389.195 233.227H384.816L383.902 236.384H382.254L386.538 221.864H390.237ZM385.23 231.792H388.802L387.08 225.351L385.23 231.792ZM395.445 236.384V221.864H401.451C405.717 221.864 407.85 224.288 407.85 229.135C407.85 233.967 405.639 236.384 401.217 236.384H395.445ZM399.644 235.183H400.749C401.77 235.183 402.471 234.747 402.854 233.875C403.237 232.997 403.428 231.416 403.428 229.135C403.428 226.839 403.237 225.258 402.854 224.394C402.471 223.522 401.77 223.087 400.749 223.087H399.644V235.183ZM44.1015 246.864L48.1513 261.384H43.9314L43.0598 258.227H38.6805L37.7663 261.384H36.1188L40.4024 246.864H44.1015ZM39.095 256.792H42.6665L40.9445 250.351L39.095 256.792ZM59.9074 246.864V261.384H56.6867L50.6385 252.2V261.384H49.2248V246.864H51.8715L58.4936 256.792V246.864H59.9074ZM62.3627 261.384V246.864H68.3684C72.6343 246.864 74.7672 249.288 74.7672 254.135C74.7672 258.967 72.5563 261.384 68.1345 261.384H62.3627ZM66.5614 260.183H67.6668C68.6872 260.183 69.3888 259.747 69.7714 258.875C70.1541 257.997 70.3454 256.416 70.3454 254.135C70.3454 251.839 70.1541 250.258 69.7714 249.394C69.3888 248.522 68.6872 248.087 67.6668 248.087H66.5614V260.183ZM88.511 246.864L92.5608 261.384H88.341L87.4694 258.227H83.0901L82.1759 261.384H80.5284L84.812 246.864H88.511ZM83.5046 256.792H87.0761L85.3541 250.351L83.5046 256.792ZM97.9181 246.864V261.384H93.7194V246.864H97.9181ZM100.48 261.384V246.864H106.709C108.331 246.864 109.628 247.211 110.599 247.906C111.57 248.593 112.055 249.507 112.055 250.648C112.055 252.406 111.01 253.554 108.919 254.092C109.997 254.482 110.691 254.914 111.003 255.389C111.315 255.857 111.527 256.781 111.641 258.163C111.789 259.786 112.066 260.86 112.47 261.384H107.899C107.609 260.718 107.463 259.875 107.463 258.854L107.442 258.014L107.421 256.92C107.421 255.254 106.748 254.422 105.401 254.422H104.678V261.384H100.48ZM104.678 253.221H105.529C107.123 253.221 107.92 252.384 107.92 250.712C107.92 249.047 107.123 248.214 105.529 248.214H104.678V253.221ZM123.684 246.864V248.32H118.412V253.178H122.897V254.613H118.412V261.384H114.213V246.864H123.684ZM129.317 246.864V261.384H125.119V246.864H129.317ZM141.254 246.864V248.32H136.056V252.721H140.436V254.177H136.056V259.928H142.147V261.384H131.858V246.864H141.254ZM147.685 246.864V259.928H153.648V261.384H143.486V246.864H147.685ZM154.541 261.384V246.864H160.546C164.812 246.864 166.945 249.288 166.945 254.135C166.945 258.967 164.734 261.384 160.313 261.384H154.541ZM158.739 260.183H159.845C160.865 260.183 161.567 259.747 161.95 258.875C162.332 257.997 162.523 256.416 162.523 254.135C162.523 251.839 162.332 250.258 161.95 249.394C161.567 248.522 160.865 248.087 159.845 248.087H158.739V260.183ZM174.12 261.384V246.864H180.37C183.92 246.864 185.696 248.285 185.696 251.127C185.696 254.004 183.722 255.442 179.775 255.442H178.319V261.384H174.12ZM178.319 254.113H179.254C180.792 254.113 181.561 253.097 181.561 251.063C181.561 249.164 180.792 248.214 179.254 248.214H178.319V254.113ZM193.699 246.864L197.749 261.384H193.529L192.658 258.227H188.279L187.364 261.384H185.717L190 246.864H193.699ZM188.693 256.792H192.265L190.543 250.351L188.693 256.792ZM209.357 246.864L205.158 261.384H201.363L197.537 246.864H201.778L204.648 257.855L207.783 246.864H209.357ZM219.848 246.864V248.32H214.65V252.721H219.029V254.177H214.65V259.928H220.741V261.384H210.451V246.864H219.848ZM235.547 246.864V261.384H231.487V251.286L228.649 261.384H226.3L223.409 251.456V261.384H221.995V246.864H226.257L228.766 255.633L231.242 246.864H235.547ZM247.442 246.864V248.32H242.244V252.721H246.623V254.177H242.244V259.928H248.335V261.384H238.045V246.864H247.442ZM260.271 246.864V261.384H257.051L251.003 252.2V261.384H249.589V246.864H252.236L258.858 256.792V246.864H260.271ZM272.888 246.864V248.32H269.338V261.384H264.885V248.32H261.292V246.864H272.888ZM289.47 246.864V248.32H285.92V261.384H281.466V248.32H277.874V246.864H289.47ZM299.972 246.864V248.32H294.774V252.721H299.154V254.177H294.774V259.928H300.865V261.384H290.576V246.864H299.972ZM312.058 255.548L313.61 256.027C313.624 256.388 313.631 256.707 313.631 256.983C313.631 258.394 313.121 259.52 312.1 260.363C311.087 261.207 309.726 261.628 308.019 261.628C303.703 261.628 301.545 259.212 301.545 254.379C301.545 252.083 302.172 250.223 303.427 248.799C304.688 247.367 306.325 246.652 308.337 246.652C311.477 246.652 313.046 248.157 313.046 251.169L311.494 251.998C311.523 251.58 311.537 251.247 311.537 250.999C311.367 248.866 310.417 247.8 308.688 247.8C306.874 247.8 305.967 250.071 305.967 254.613C305.967 258.518 306.984 260.47 309.018 260.47C309.861 260.47 310.598 260.137 311.229 259.471C311.866 258.805 312.185 257.968 312.185 256.962C312.185 256.643 312.143 256.172 312.058 255.548ZM319.435 254.156V261.384H315.236V246.864H319.435V252.721H322.878V246.864H327.098V261.384H322.878V254.156H319.435ZM340.204 246.864V261.384H336.984L330.936 252.2V261.384H329.522V246.864H332.169L338.791 256.792V246.864H340.204ZM348.58 246.62C352.804 246.62 354.915 249.125 354.915 254.135C354.915 259.13 352.768 261.628 348.474 261.628C344.159 261.628 342.001 259.074 342.001 253.965C342.001 249.068 344.194 246.62 348.58 246.62ZM348.474 247.778C347.673 247.778 347.131 248.218 346.848 249.096C346.564 249.975 346.423 251.654 346.423 254.135C346.423 256.601 346.564 258.273 346.848 259.152C347.131 260.03 347.673 260.47 348.474 260.47C349.254 260.47 349.785 260.03 350.068 259.152C350.352 258.273 350.494 256.601 350.494 254.135C350.494 251.654 350.352 249.975 350.068 249.096C349.785 248.218 349.254 247.778 348.474 247.778ZM360.995 246.864V259.928H366.959V261.384H356.797V246.864H360.995ZM373.772 246.62C377.995 246.62 380.107 249.125 380.107 254.135C380.107 259.13 377.96 261.628 373.666 261.628C369.35 261.628 367.192 259.074 367.192 253.965C367.192 249.068 369.386 246.62 373.772 246.62ZM373.666 247.778C372.865 247.778 372.323 248.218 372.039 249.096C371.756 249.975 371.614 251.654 371.614 254.135C371.614 256.601 371.756 258.273 372.039 259.152C372.323 260.03 372.865 260.47 373.666 260.47C374.445 260.47 374.977 260.03 375.26 259.152C375.544 258.273 375.685 256.601 375.685 254.135C375.685 251.654 375.544 249.975 375.26 249.096C374.977 248.218 374.445 247.778 373.666 247.778ZM387.643 253.55H393.628V261.384H392.278L391.821 260.385C390.666 261.214 389.433 261.628 388.122 261.628C385.975 261.628 384.306 260.987 383.115 259.704C381.925 258.415 381.329 256.601 381.329 254.262C381.329 251.988 381.96 250.145 383.222 248.735C384.49 247.325 386.138 246.62 388.164 246.62C390.836 246.62 392.462 247.994 393.043 250.744L391.087 251.626V251.286L391.045 250.499C390.91 248.785 390.12 247.927 388.674 247.927C387.611 247.927 386.882 248.381 386.485 249.288C386.095 250.195 385.9 251.892 385.9 254.379C385.9 256.682 386.06 258.248 386.378 259.077C386.704 259.906 387.307 260.321 388.185 260.321C389.234 260.321 389.759 259.74 389.759 258.578V255.006H387.643V253.55ZM405.82 246.864L402.291 256.027V261.384H398.071V256.027L394.17 246.864H398.528L401.493 253.869L404.14 246.864H405.82Z" fill="#596EA3"/>
<path fill-rule="evenodd" clip-rule="evenodd" d="M37.1004 184.925C37.0213 186.503 36.9422 188.082 36.8001 189.659L36.8049 189.649C36.8049 190.31 36.7986 190.971 36.7924 191.632C36.7788 193.055 36.7652 194.479 36.8146 195.899C37.0507 202.518 37.1278 202.653 43.6814 202.653C50.5335 202.655 57.3856 202.626 64.2377 202.598C70.8156 202.57 77.3934 202.542 83.9713 202.542C91.8003 202.544 99.6293 202.575 107.458 202.605C115.613 202.636 123.768 202.667 131.923 202.667C139.206 202.667 146.489 202.747 153.771 202.827L153.774 202.827L153.777 202.827L153.78 202.827L153.783 202.827L153.786 202.827L153.789 202.827L153.792 202.827L153.795 202.827L153.798 202.827L153.801 202.828L153.804 202.828L153.807 202.828L153.81 202.828L153.813 202.828C158.755 202.882 163.697 202.936 168.637 202.965C173.118 202.991 177.601 202.918 182.084 202.845C190.285 202.711 198.489 202.578 206.687 203.047C209.602 203.216 210.734 202.191 211.231 199.516C211.886 195.99 213.235 192.714 215.081 189.577C217.653 185.204 220.385 180.927 223.114 176.654C225.513 172.898 227.909 169.146 230.193 165.336C234.501 158.144 239.093 151.4 244.442 144.949C252.099 135.712 260.488 127.322 269.943 120.02C279.454 112.673 289.707 106.442 299.96 100.21C302.954 98.3912 305.947 96.572 308.922 94.725C314.546 91.2325 320.608 89.7412 327.176 89.693C329.865 89.6738 332.144 90.5397 334.351 91.8338C336.727 93.2289 337.175 94.8742 334.688 96.5964C331.782 98.6094 331.334 101.688 330.885 104.765C330.86 104.938 330.835 105.112 330.809 105.284C330.684 106.141 330.539 107.339 331.667 107.507C332.989 107.706 333.047 106.749 333.101 105.87C333.112 105.685 333.124 105.504 333.146 105.337C333.218 104.819 333.256 104.294 333.295 103.77C333.354 102.953 333.414 102.138 333.599 101.349C333.96 99.8099 334.934 98.5399 336.62 98.4774C338.432 98.41 339.112 99.8147 339.488 101.369L339.528 101.537L339.579 101.747C339.826 102.776 340.075 103.809 340.423 104.803C340.538 105.135 341.073 105.563 341.367 105.53C341.859 105.477 341.815 104.9 341.781 104.467C340.991 94.9223 335.069 85.3779 324.024 87.0568C317.714 88.0179 311.533 87.5858 305.326 87.1519L305.326 87.1518C304.139 87.0689 302.951 86.9858 301.761 86.9125C300.575 86.8393 299.389 86.7342 298.203 86.6291L298.202 86.6291C296.267 86.4577 294.332 86.2862 292.394 86.2534L292.065 86.2476C280.682 86.0474 269.308 85.8473 257.954 87.1338C255.396 87.4241 252.833 87.6756 250.271 87.9272C243.491 88.5928 236.712 89.2583 230.029 90.6408C226.455 91.3823 222.865 92.0461 219.276 92.7097C215.834 93.3461 212.394 93.9823 208.971 94.6865C206.269 95.2416 203.545 95.7015 200.82 96.1614L200.82 96.1615C195.304 97.0928 189.785 98.0245 184.443 99.7474C183.154 100.163 181.865 100.575 180.576 100.988L180.576 100.988C173.503 103.252 166.435 105.514 159.477 108.2C155.766 109.633 152.042 111.034 148.319 112.436L148.318 112.436C136.696 116.81 125.076 121.182 113.857 126.524C111.039 127.865 108.183 129.129 105.326 130.392C98.9227 133.224 92.5166 136.058 86.5252 139.777C84.2951 141.161 82.0973 142.602 79.9007 144.043L79.9005 144.043L79.9003 144.043L79.9 144.043L79.8998 144.043L79.8996 144.043L79.8993 144.044L79.8991 144.044L79.8989 144.044L79.8986 144.044L79.8984 144.044L79.8982 144.044L79.898 144.044L79.8977 144.045L79.8975 144.045C76.7367 146.117 73.5782 148.188 70.3293 150.086C60.8073 155.652 51.3481 161.252 42.573 167.958C40.0094 169.916 38.7469 172.389 38.0964 175.405C37.4195 178.555 37.2601 181.737 37.1004 184.925ZM197.535 200.773C196.432 200.768 195.328 200.762 194.225 200.762L194.22 200.767C169.341 199.827 144.456 199.894 119.57 199.961L119.565 199.961C111.589 199.983 103.613 200.004 95.6376 199.992C80.8487 199.973 66.055 199.983 51.2661 200.026C50.1024 200.03 48.9489 200.147 47.7929 200.264C45.866 200.46 43.932 200.657 41.9321 200.329C39.6769 199.959 38.7566 199.29 38.8433 197.034C38.9023 195.527 38.8944 194.018 38.8864 192.508C38.8794 191.183 38.8725 189.858 38.9108 188.533C39.0264 184.526 39.5468 183.906 43.6717 183.8C48.5385 183.674 53.4103 183.695 58.2795 183.715H58.2799H58.2803H58.2807H58.2811H58.2815H58.2819H58.2823H58.2827H58.2831H58.2835H58.2839H58.2843H58.2847H58.2851H58.2854H58.2857H58.286H58.2863H58.2866H58.2869H58.2871H58.2874H58.2877H58.288H58.2883H58.2886H58.2889H58.2891C62.9481 183.734 67.6047 183.754 72.252 183.646C84.4724 183.362 96.6929 183.078 108.913 183.136C113.132 183.155 117.35 183.26 121.568 183.365H121.569H121.569H121.569H121.569H121.57H121.57H121.57H121.57H121.571H121.571H121.571H121.571H121.572H121.572C127.933 183.523 134.293 183.681 140.65 183.545C142.752 183.5 144.859 183.4 146.966 183.301C151.412 183.091 155.86 182.88 160.277 183.184C171.649 183.967 183.013 183.862 194.379 183.758C197.192 183.732 200.004 183.706 202.817 183.694C207.467 183.675 208.335 184.555 208.648 189.024C208.72 190.035 208.826 191.045 208.932 192.056L208.932 192.057L208.932 192.058L208.932 192.059L208.933 192.06L208.933 192.061L208.933 192.062L208.933 192.063L208.933 192.064L208.933 192.064L208.933 192.065L208.933 192.066L208.933 192.067L208.933 192.068L208.933 192.069C209.076 193.425 209.219 194.78 209.279 196.139C209.443 199.819 208.648 200.671 204.981 200.748C202.502 200.798 200.019 200.785 197.535 200.773ZM150.26 158.617H150.26C149.688 158.618 149.113 158.619 148.548 158.673C147.335 158.673 146.123 158.678 144.911 158.682H144.91H144.91H144.91H144.909H144.909H144.909H144.908H144.908H144.908H144.907H144.907H144.907H144.906H144.906C141.822 158.693 138.739 158.703 135.658 158.645C135.299 158.638 134.906 158.673 134.505 158.71C133.17 158.83 131.749 158.958 131.234 157.567C130.685 156.079 131.886 155.407 133.029 154.768C133.4 154.56 133.766 154.355 134.063 154.127C136.063 152.588 138.092 151.082 140.121 149.576L140.121 149.576L140.122 149.576L140.122 149.575L140.123 149.575L140.123 149.575L140.124 149.574L140.124 149.574L140.125 149.574L140.125 149.573L140.126 149.573L140.126 149.573L140.126 149.572L140.127 149.572L140.127 149.572C143.935 146.746 147.742 143.92 151.362 140.874C155.107 137.725 159.206 138.029 163.299 138.333L163.299 138.333C164.584 138.428 165.867 138.523 167.139 138.512C168.859 138.497 168.449 140.191 167.65 141.215C163.534 146.478 159.409 151.727 155.212 156.927C153.854 158.609 152.07 158.613 150.26 158.617ZM53.8337 172.21C54.8409 172.21 55.8483 172.211 56.8559 172.211L56.8463 172.216L58.0709 172.173C62.7121 172.013 67.373 171.852 72.0014 171.821C78.3641 171.777 84.7213 171.918 91.0782 172.06H91.0785H91.0788H91.0791H91.0794H91.0797H91.08H91.0803H91.0806H91.0809H91.0812H91.0815H91.0818H91.0821H91.0824C97.9733 172.212 104.864 172.365 111.761 172.283C123.713 172.14 135.668 172.179 147.623 172.218C159.417 172.256 171.211 172.294 183.002 172.158C186.54 172.116 190.07 172.232 193.599 172.347H193.6H193.6H193.6H193.6H193.6H193.6H193.6H193.601H193.601H193.601H193.601H193.601H193.601H193.601C197.802 172.485 202 172.623 206.205 172.495C206.277 172.492 206.351 172.488 206.426 172.484L206.427 172.484C206.98 172.455 207.582 172.424 207.718 173C207.896 173.755 207.115 173.899 206.537 173.971C205.753 174.067 204.97 174.186 204.187 174.304C202.021 174.631 199.854 174.958 197.642 174.813C178.265 173.549 158.885 173.951 139.502 174.353C135.501 174.436 131.5 174.519 127.499 174.587C123.638 174.653 119.776 174.469 115.911 174.286H115.911H115.911H115.91H115.91H115.91H115.91H115.91H115.909H115.909H115.909H115.909H115.909H115.908H115.908C111.28 174.066 106.647 173.846 102.008 174.053C93.2991 174.438 84.5923 174.283 75.8848 174.128H75.8846H75.8845H75.8843H75.8841H75.884H75.8838H75.8837H75.8835H75.8833H75.8832H75.883H75.8829H75.8827H75.8825C71.216 174.045 66.5493 173.962 61.8819 173.962C60.0801 173.96 58.2783 174.008 56.4766 174.055C52.6215 174.156 48.7671 174.257 44.915 173.88C44.7391 173.863 44.5357 173.873 44.3271 173.883C43.6154 173.918 42.8426 173.956 42.8911 172.918C42.9265 172.201 43.8754 172.209 44.5936 172.215C44.6562 172.215 44.7169 172.216 44.7752 172.216C47.794 172.208 50.81 172.209 53.8274 172.21H53.8278H53.8283H53.8287H53.8292H53.8296H53.8301H53.8305H53.831H53.8314H53.8319H53.8323H53.8328H53.8332H53.8337ZM213.889 168.321C213.274 168.973 212.646 169.637 211.602 169.935L211.597 169.94C211.521 169.881 211.425 169.822 211.325 169.761C211.092 169.62 210.833 169.463 210.739 169.238C210.421 168.463 210.802 167.708 211.332 167.208C212.893 165.733 214.146 164.007 215.398 162.283C216.51 160.75 217.621 159.22 218.946 157.87C232.718 143.837 246.928 130.266 262.575 118.307C274.66 109.07 287.459 100.892 300.976 93.8735C301.155 93.7808 301.348 93.6549 301.547 93.5247C302.3 93.0335 303.146 92.4811 303.679 93.4165C304.193 94.3166 303.29 94.7837 302.487 95.1989C302.281 95.3052 302.082 95.4081 301.916 95.514C298.876 97.4471 295.814 99.3479 292.752 101.249L292.751 101.249C283.537 106.969 274.322 112.689 265.707 119.293C260.655 123.165 255.825 127.333 251 131.497L250.994 131.502L250.991 131.505L250.99 131.505L250.99 131.506L250.989 131.507L250.988 131.507C249.953 132.4 248.919 133.293 247.882 134.182C239.14 141.681 231.253 150.034 223.365 158.388L223.365 158.389C220.323 161.611 217.281 164.833 214.189 168.006C214.088 168.11 213.989 168.215 213.889 168.321ZM190.985 114.527C196.425 111.466 201.886 108.394 208.585 108.546L208.58 108.551C209.35 108.831 210.33 108.771 211.276 108.713C212.814 108.618 214.261 108.529 214.565 109.917C214.885 111.38 213.346 111.96 211.772 112.553C210.996 112.846 210.21 113.142 209.636 113.549C207.824 114.834 206.007 116.205 204.528 117.84C202.302 120.294 199.728 121.193 196.529 120.655C195.348 120.455 194.149 120.401 192.95 120.348C191.175 120.268 189.399 120.189 187.681 119.635C185.638 118.976 185.176 117.667 187.161 116.628C188.445 115.956 189.715 115.241 190.985 114.527ZM210.468 186.929C210.471 186.638 210.474 186.351 210.474 186.07C209.881 183.323 210.662 180.947 212.31 178.907C217.163 172.913 222.083 166.972 227.017 161.04C227.538 160.413 228.203 159.895 228.86 159.383L228.861 159.382L228.863 159.381L228.864 159.38L228.865 159.379L228.866 159.378C229.033 159.247 229.2 159.117 229.364 158.986C229.386 158.968 229.409 158.95 229.431 158.932L229.48 158.891C229.888 158.558 230.374 158.16 230.848 158.712C231.07 158.967 231.075 159.602 230.92 159.953C230.453 161.031 229.961 162.128 229.292 163.085C223.326 171.595 217.842 180.399 212.903 189.539C212.869 189.6 212.836 189.663 212.802 189.727C212.477 190.34 212.121 191.01 211.37 190.91C210.535 190.799 210.515 190.026 210.497 189.356L210.495 189.289C210.494 189.26 210.493 189.23 210.492 189.201L210.49 189.145L210.489 189.111C210.451 188.375 210.459 187.639 210.468 186.929ZM247.67 98.232C246.62 99.0546 245.333 99.5309 243.921 99.4395L243.917 99.4443C243.146 99.2866 242.374 99.1351 241.602 98.9834L241.602 98.9834L241.602 98.9833C239.9 98.6492 238.197 98.3149 236.51 97.9145C235.281 97.6259 234.438 96.4905 235.821 95.8026C241.261 93.099 246.842 90.6023 253.164 91.1459L253.278 91.1549C254.216 91.2289 255.448 91.3261 255.689 92.5554C255.929 93.7687 254.952 94.1511 254.093 94.4877C253.984 94.5301 253.878 94.5718 253.776 94.6144C251.564 95.538 249.559 96.7551 247.67 98.232ZM317.007 202.01C321.666 202.024 325.722 202.036 328.669 201.878L328.66 201.893C340.604 201.647 351.241 201.799 361.221 201.942C371.404 202.087 380.902 202.223 390.403 201.917C393.049 201.831 395.7 201.854 398.352 201.877H398.352H398.353H398.353H398.354H398.354H398.354H398.355H398.355H398.355H398.356H398.356H398.356H398.357H398.357H398.358H398.36H398.361H398.362H398.363H398.364H398.366H398.367H398.368H398.369H398.37H398.371H398.373C399.746 201.889 401.12 201.901 402.493 201.897C404.782 201.888 406.199 201.046 406.011 198.439C405.862 196.343 405.871 194.244 405.88 192.144V192.144C405.894 188.737 405.908 185.329 405.25 181.933L405.174 181.54C404.183 176.427 404.174 176.383 398.547 176.42C395.809 176.438 393.072 176.464 390.335 176.491H390.334H390.334H390.334H390.334H390.333H390.333H390.333H390.333H390.332H390.332H390.332H390.331H390.331H390.331C386.347 176.529 382.364 176.567 378.38 176.579C378.283 176.579 378.178 176.582 378.067 176.586C377.299 176.613 376.309 176.647 376.414 175.506C376.47 174.905 377.251 174.867 377.934 174.834C378.076 174.827 378.215 174.82 378.342 174.808C385.319 174.178 392.311 174.029 399.308 174.424C402.652 174.611 403.322 173.803 402.031 171.032C398.677 163.831 394.248 157.187 389.328 151.101C376.679 135.462 359.809 126.456 340.365 121.78C329.992 119.285 319.479 118.379 308.92 117.47L308.917 117.47C307.734 117.368 306.55 117.266 305.366 117.162C298.759 116.58 293.69 118.389 288.992 122.473C286.081 125.008 286.259 126.408 289.628 127.972C302.017 133.72 306.05 143.424 300.624 155.58C297.241 163.162 291.888 169.012 283.662 171.802C283.013 172.021 282.184 171.977 281.381 171.935C279.925 171.858 278.557 171.786 278.511 173.293C278.484 174.245 280.978 174.157 283.107 174.081C283.679 174.061 284.225 174.042 284.688 174.044C290.483 174.071 296.278 174.068 302.072 174.064C307.625 174.061 313.177 174.059 318.728 174.082C318.903 174.083 319.109 174.06 319.325 174.035C320.172 173.94 321.179 173.826 321.133 175.088C321.109 175.738 320.128 175.765 319.294 175.788C319.111 175.793 318.934 175.798 318.777 175.809C318.577 175.825 318.378 175.816 318.179 175.806L318.178 175.806C318.079 175.801 317.98 175.796 317.88 175.795C312.906 175.697 307.93 175.721 302.954 175.744C293.902 175.786 284.85 175.828 275.807 175.145C273.861 174.996 272.473 175.622 272.439 177.724C272.339 184.333 272.312 190.942 272.285 197.551V197.555L272.28 198.722C272.275 200.724 273.335 201.772 275.335 201.753C278.763 201.723 282.197 201.877 285.627 202.03H285.627H285.627H285.627H285.627H285.628H285.628H285.628H285.628H285.628H285.628H285.628H285.629H285.629H285.629C289.965 202.223 294.296 202.416 298.6 202.239C305.025 201.975 311.446 201.994 317.007 202.01ZM381.737 199.869C379.304 199.873 376.871 199.877 374.438 199.877H374.429C369.825 199.871 365.216 199.738 360.61 199.606L360.609 199.606C354.318 199.425 348.033 199.245 341.777 199.386C328.238 199.692 314.702 199.754 301.165 199.815H301.164C294.701 199.845 288.237 199.874 281.773 199.93C281.298 199.934 280.853 199.94 280.435 199.946C277.457 199.986 275.893 200.007 275.018 199.241C274.051 198.394 273.928 196.585 273.667 192.773L273.667 192.77L273.649 192.501L273.618 192.056C273.608 191.904 273.597 191.75 273.586 191.593C273.541 190.951 273.646 190.302 273.751 189.652V189.652V189.652V189.652V189.651V189.651V189.651V189.651V189.651V189.651V189.651V189.651V189.65V189.65V189.65C273.839 189.112 273.926 188.574 273.928 188.038C273.947 184.954 275.74 184.074 278.501 183.747C282.216 183.307 285.912 183.521 289.608 183.735C292.102 183.88 294.596 184.024 297.097 183.968C306.281 183.766 315.47 183.678 324.659 183.59C329.504 183.544 334.349 183.497 339.194 183.434C351.539 183.272 363.892 183.545 376.243 183.818C381.903 183.943 387.563 184.068 393.222 184.151C394.721 184.172 396.222 184.123 397.722 184.074C398.311 184.055 398.899 184.036 399.486 184.021C402.378 183.949 403.997 185.233 404.103 188.221C404.112 188.478 404.121 188.735 404.131 188.993C404.207 191.118 404.283 193.245 404.455 195.365C404.729 198.67 403.173 199.93 399.978 199.901C393.902 199.85 387.823 199.859 381.744 199.869H381.744H381.743H381.743H381.743H381.742H381.742H381.742H381.741H381.741H381.74H381.74H381.74H381.739H381.737ZM349.082 172.153V171.999C348.398 171.999 347.715 172.003 347.031 172.006H347.031H347.03H347.03H347.03H347.029H347.029H347.028H347.028H347.027H347.027H347.026H347.026H347.025H347.025C345.486 172.015 343.948 172.023 342.413 171.989C339.998 171.937 338.919 170.97 340.567 168.704C340.746 168.458 340.926 168.213 341.106 167.967L341.106 167.967C342.942 165.463 344.771 162.97 345.82 159.982C346.253 158.741 347.222 158.327 348.624 158.342C355.77 158.423 359.466 162.007 359.702 169.194C359.77 171.354 358.507 172.09 356.652 172.139C354.893 172.182 353.135 172.172 351.377 172.162C350.612 172.157 349.847 172.153 349.082 172.153ZM350.337 148.445C349.627 148.341 348.934 148.24 348.412 148.513V148.508C347.881 148.516 347.35 148.575 346.831 148.632C345.222 148.811 343.73 148.977 342.721 147.537C342.154 146.727 341.532 145.951 340.91 145.176L340.91 145.175L340.909 145.175C339.496 143.412 338.082 141.65 337.319 139.488C336.905 138.319 337.941 137.632 338.967 137.237C341.3 136.342 343.574 136.275 345.771 137.675C347.651 138.877 349.501 140.162 350.865 141.903C351.088 142.189 351.338 142.478 351.592 142.771L351.592 142.772C352.734 144.092 353.965 145.515 353.303 147.282C352.738 148.795 351.514 148.616 350.337 148.445ZM334.977 131.912C333.657 132.696 332.182 132.778 330.419 132.778H330.414C328.521 133.089 326.772 132.268 324.992 131.433L324.991 131.433C324.515 131.21 324.036 130.985 323.552 130.781C322.685 130.415 321.981 129.814 322.082 128.809C322.179 127.837 322.983 127.341 323.822 126.981C326.419 125.855 333.156 127.159 335.218 129.112C336.375 130.209 336.331 131.103 334.977 131.912ZM350.46 176.386V176.362L350.455 176.367C349.334 176.367 348.213 176.371 347.093 176.375C344.036 176.385 340.979 176.396 337.922 176.329C337.788 176.326 337.642 176.327 337.491 176.328C336.432 176.337 335.068 176.348 335.16 174.938C335.237 173.812 336.532 174.019 337.471 174.168C337.537 174.179 337.601 174.189 337.664 174.199L337.716 174.207C337.752 174.212 337.787 174.217 337.82 174.222C346.451 175.4 355.081 174.982 363.721 174.477C363.766 174.474 363.812 174.471 363.858 174.467L363.952 174.46C364.629 174.406 365.406 174.344 365.475 175.27C365.552 176.242 364.613 176.367 363.89 176.372C360.533 176.394 357.175 176.391 353.818 176.388C352.698 176.387 351.579 176.386 350.46 176.386ZM327.891 173.976C328.732 173.965 329.63 173.955 329.893 175.063C329.619 176.151 328.785 176.314 327.87 176.305C326.964 176.295 325.889 176.117 325.86 175.102C325.827 173.986 326.929 173.981 327.776 173.977L327.831 173.976L327.891 173.976ZM246.156 180.594V180.594C246.16 182.378 246.165 184.163 246.128 185.945C246.119 186.325 245.83 186.951 245.55 187.028C244.736 187.249 244.567 186.489 244.548 185.94C244.496 184.635 244.49 183.328 244.484 182.022V182.021V182.021V182.021V182.021V182.02V182.02V182.02V182.019V182.019V182.019V182.019V182.018V182.017C244.481 181.394 244.479 180.771 244.471 180.148C244.464 179.653 244.458 179.157 244.453 178.662V178.661V178.661V178.661V178.661V178.661V178.661V178.661V178.661V178.66V178.66V178.66V178.66V178.66C244.435 177.076 244.417 175.491 244.355 173.909C244.297 172.398 244.129 170.772 242.49 170.161C240.904 169.569 240.163 170.68 239.469 171.721C239.334 171.923 239.201 172.123 239.064 172.307C234.583 178.325 232.429 185.19 231.778 192.594C231.571 194.96 231.32 197.322 231.031 199.68C230.959 200.252 230.655 200.916 229.899 200.671C229.59 200.57 229.239 200.007 229.234 199.651C229.214 198.02 229.195 196.375 229.383 194.758C230.443 185.676 232.178 176.819 238.467 169.618C238.602 169.463 238.736 169.304 238.872 169.143C239.992 167.817 241.173 166.42 243.227 166.991C245.462 167.61 245.725 169.753 245.947 171.553L245.965 171.696C246.167 173.333 246.121 175.003 246.076 176.671L246.076 176.672C246.056 177.386 246.037 178.1 246.037 178.811H246.152C246.152 179.405 246.154 179.999 246.156 180.594ZM264.663 158.01C264.549 160.509 264.439 162.926 264.107 165.187L264.102 165.182C264.102 165.944 264.087 166.588 264.073 167.152C264.046 168.236 264.027 169.025 264.141 169.791C264.201 170.189 264.17 170.685 264.139 171.184C264.064 172.366 263.989 173.566 265.124 173.529C266.172 173.494 266.036 172.236 265.904 171.013V171.013V171.013V171.013V171.013V171.012V171.012L265.904 171.012L265.904 171.011C265.851 170.526 265.8 170.046 265.823 169.651C265.932 167.844 266.003 166.033 266.074 164.221V164.221C266.318 158.017 266.562 151.813 268.319 145.781C270.81 137.242 276.068 130.444 282.298 124.301C282.45 124.151 282.636 123.998 282.827 123.84L282.827 123.84C283.531 123.259 284.305 122.62 283.725 121.886C282.799 120.713 281.796 121.713 281.047 122.461C280.957 122.55 280.872 122.636 280.79 122.714C274.559 128.66 269.692 135.577 266.791 143.693C265.098 148.422 264.874 153.357 264.663 158.01ZM320.998 98.1743C322.241 98.0636 323.354 98.3956 324.328 99.1701C324.411 99.2365 324.501 99.3033 324.592 99.3714L324.593 99.3718C325.124 99.7678 325.716 100.209 325.523 100.878C325.192 102.019 324.308 101.675 323.598 101.398C323.5 101.36 323.405 101.323 323.316 101.292C320.396 100.272 317.606 101.123 315.114 102.307C310.035 104.722 304.951 107.151 300.46 110.687C297.981 112.639 295.33 114.371 292.68 116.102L292.679 116.103L292.679 116.103C291.477 116.889 290.274 117.674 289.088 118.48C289.062 118.498 289.035 118.516 289.008 118.535L288.929 118.59C288.355 118.988 287.713 119.433 287.18 118.668C286.64 117.893 287.368 117.268 287.936 116.854C288.977 116.096 290.014 115.332 291.052 114.568L291.053 114.567L291.053 114.567L291.054 114.566L291.054 114.566L291.055 114.565L291.056 114.565L291.056 114.565L291.057 114.564L291.057 114.564L291.058 114.563L291.061 114.561L291.061 114.561L291.062 114.561L291.063 114.56C294.326 112.157 297.591 109.752 300.966 107.517C305.549 104.486 310.392 101.869 315.408 99.5934C317.186 98.7852 319.066 98.3571 321.003 98.1695L320.998 98.1743ZM326.082 106.776C326.159 107.339 326.39 107.882 327.156 107.82C328.057 107.238 327.879 106.381 327.677 105.554C327.547 105.01 327.267 104.207 326.641 104.5C325.803 104.892 325.938 105.802 326.054 106.587C326.064 106.651 326.073 106.714 326.082 106.776ZM125.365 188.803C126.622 189.178 126.883 190.121 126.666 191.213C126.497 192.074 126.16 193.036 125.085 192.998C123.77 192.95 123.476 191.891 123.529 190.804C123.587 189.683 124.102 188.861 125.365 188.803ZM50.471 192.271C51.6709 192.132 52.2202 191.304 52.3359 190.236C52.3166 189.313 51.8926 188.581 51.0878 188.63C49.7337 188.711 48.9627 189.621 49.0109 191.001C49.0398 191.838 49.6085 192.372 50.471 192.271ZM84.2556 192.209C85.3012 192.199 85.9325 192.579 85.8699 193.474C85.7928 194.672 84.8724 195.259 83.8267 195.509C82.94 195.721 82.3666 195.23 82.4774 194.297C82.6124 193.171 83.2773 192.435 84.2507 192.204L84.2556 192.209ZM163.982 194.085C165.052 194.032 165.327 193.142 165.515 192.055C165.481 191.963 165.449 191.863 165.416 191.762C165.22 191.148 164.991 190.434 163.982 190.496C162.903 190.564 162.537 191.415 162.527 192.329C162.518 193.243 162.855 194.138 163.982 194.085ZM193.618 189.808C193.657 190.612 193.334 191.266 192.553 191.449C191.527 191.684 190.924 191.093 190.785 190.106C190.669 189.308 191.035 188.639 191.816 188.461C192.847 188.221 193.401 188.846 193.618 189.813V189.808ZM143.667 189.271L143.667 189.271C143.603 189.333 143.54 189.395 143.479 189.443C143.512 189.515 143.541 189.597 143.569 189.679L143.569 189.679L143.569 189.679L143.569 189.679C143.634 189.864 143.697 190.046 143.821 190.107C143.989 190.183 144.418 190.063 144.505 189.904C144.731 189.481 144.568 189.082 144.071 189.01C143.951 188.993 143.809 189.132 143.667 189.271L143.667 189.271ZM381.773 192.238C381.705 193.022 381.3 193.628 380.582 193.864C379.729 194.143 379.204 193.628 379.084 192.825C378.963 192.021 379.397 191.391 380.163 191.213C380.939 191.035 381.532 191.429 381.773 192.233V192.238ZM356.267 191.111C356.205 191.201 356.148 191.286 356.093 191.348C356.199 192.002 356.517 192.392 356.97 192.295C357.308 192.218 357.77 191.819 357.828 191.502C357.948 190.828 357.486 190.4 356.811 190.578C356.586 190.639 356.414 190.893 356.267 191.111ZM334.674 194.927C334.023 194.927 333.681 194.619 333.806 194.167C333.898 193.835 334.279 193.45 334.606 193.354C335.074 193.214 335.445 193.599 335.324 194.07C335.263 194.316 335.058 194.526 334.876 194.712L334.875 194.713C334.801 194.789 334.73 194.862 334.674 194.932V194.927ZM290.452 190.039C290.341 190.501 290.466 190.895 290.919 191.136L290.924 191.141C291.464 191.237 291.825 190.934 291.83 190.467C291.835 190.092 291.642 189.52 291.367 189.385C290.929 189.168 290.562 189.568 290.452 190.039Z" fill="#596EA3"/>
</svg>
