<svg id="Layer_1" height="512" viewBox="0 0 512 512" width="512" xmlns="http://www.w3.org/2000/svg" data-name="Layer 1"><g fill-rule="evenodd"><path d="m112.606 31.881h286.818a9.03 9.03 0 0 1 9 9.006v428.973a9.03 9.03 0 0 1 -9 9h-286.818a9.036 9.036 0 0 1 -9.035-9v-428.973a9.036 9.036 0 0 1 9.035-9.006z" fill="#e6f1fa"/><path d="m375.294 453.453v-396.159a9.837 9.837 0 0 1 9.821-9.792h13.493a9.838 9.838 0 0 1 9.821 9.792v396.159a9.838 9.838 0 0 1 -9.821 9.792h-13.493a9.837 9.837 0 0 1 -9.821-9.792z" fill="#00b9da"/><path d="m103.571 453.453v-396.159a9.838 9.838 0 0 1 9.821-9.792h13.493a9.837 9.837 0 0 1 9.821 9.792v396.159a9.837 9.837 0 0 1 -9.821 9.792h-13.493a9.838 9.838 0 0 1 -9.821-9.792z" fill="#00b9da"/><path d="m78.247 0h352.708a10.192 10.192 0 0 1 10.145 10.171v78.829a10.192 10.192 0 0 1 -10.142 10.171h-349.913a10.192 10.192 0 0 1 -10.145-10.171v-81.656a7.369 7.369 0 0 1 7.347-7.344z" fill="#f54756"/><path d="m175.932 130.12h160.136a4.416 4.416 0 0 1 4.4 4.4v81.656a4.416 4.416 0 0 1 -4.4 4.4h-160.136a4.416 4.416 0 0 1 -4.4-4.4v-81.655a4.416 4.416 0 0 1 4.4-4.4z" fill="#fea832"/></g><path d="m317.155 265.515a7.2 7.2 0 0 1 0-14.4h.408a7.2 7.2 0 1 1 0 14.4zm22.906 0a7.2 7.2 0 0 1 0-14.4h.408a7.2 7.2 0 0 1 0 14.4zm0 55.778a7.2 7.2 0 0 1 0-14.4h.408a7.2 7.2 0 0 1 0 14.4zm-68.718 0a7.2 7.2 0 0 1 0-14.4h.408a7.2 7.2 0 1 1 0 14.4zm22.906 0a7.2 7.2 0 0 1 0-14.4h.408a7.2 7.2 0 1 1 0 14.4zm22.906 0a7.2 7.2 0 0 1 0-14.4h.408a7.2 7.2 0 1 1 0 14.4zm22.906-27.893a7.2 7.2 0 0 1 0-14.4h.408a7.2 7.2 0 0 1 0 14.4zm-68.718 0a7.2 7.2 0 0 1 0-14.4h.408a7.2 7.2 0 1 1 0 14.4zm22.906 0a7.2 7.2 0 0 1 0-14.4h.408a7.2 7.2 0 0 1 0 14.4zm22.906 0a7.2 7.2 0 1 1 0-14.4h.408a7.2 7.2 0 1 1 0 14.4zm-45.812-27.889a7.2 7.2 0 0 1 0-14.4h.408a7.2 7.2 0 1 1 0 14.4zm22.906 0a7.2 7.2 0 0 1 0-14.4h.408a7.2 7.2 0 1 1 0 14.4z" fill="#00a7c4"/><path d="m171.531 265.515a7.2 7.2 0 0 1 0-14.4h61.49a7.2 7.2 0 1 1 0 14.4z" fill="#0076a4"/><path d="m206.385 374.157h99.23c10.229 0 18.592 10.375 18.592 23.052v81.656h-136.414v-81.656c0-12.677 8.363-23.052 18.592-23.052z" fill="#00b9da" fill-rule="evenodd"/><path d="m274.52 16.611a7.2 7.2 0 1 1 0 14.4h-18.593v44.351a7.2 7.2 0 1 1 -14.4 0v-44.355h-18.589a7.2 7.2 0 1 1 0-14.4zm36.807 58.751a7.2 7.2 0 0 1 -14.4 0v-51.553a7.2 7.2 0 0 1 13.085-4.138l24.363 30.657 24.654-31.007a7.183 7.183 0 0 1 12.794 4.488h.029v51.553a7.2 7.2 0 0 1 -14.4 0v-30.95l-17.362 21.828a7.185 7.185 0 0 1 -11.336.117l-17.427-21.945zm-157.806 3.643a7.165 7.165 0 1 1 -12.356-7.257l30.25-51.582a7.21 7.21 0 0 1 9.821-2.564 7.371 7.371 0 0 1 2.622 2.652l30.192 51.494a7.165 7.165 0 1 1 -12.357 7.257l-4.808-8.189h-38.555zm24.1-41.033-10.84 18.476h21.682z" fill="#eaf6ff"/><path d="m222.647 400.327h66.706a2.171 2.171 0 0 1 2.157 2.156v14.917a2.152 2.152 0 0 1 -2.157 2.157h-66.706a2.152 2.152 0 0 1 -2.157-2.157v-14.917a2.171 2.171 0 0 1 2.157-2.156z" fill="#e6f1fa" fill-rule="evenodd"/><path d="m203.413 149.15a7.2 7.2 0 1 1 14.4 0v1.311a16.231 16.231 0 0 1 2.943 1.428 17 17 0 0 1 7.111 7.985 7.177 7.177 0 0 1 -13.231 5.567 2.657 2.657 0 0 0 -1.165-1.195 5.836 5.836 0 0 0 -2.856-.7 5.378 5.378 0 0 0 -3.381 1.049 1.784 1.784 0 0 0 -.728 1.253 1.843 1.843 0 0 0 .728 1.254 5.378 5.378 0 0 0 3.381 1.049 19.477 19.477 0 0 1 12.589 4.517 15.529 15.529 0 0 1 0 24.392 18.164 18.164 0 0 1 -5.391 3.176v1.312a7.2 7.2 0 0 1 -14.4 0v-1.282a21.225 21.225 0 0 1 -2.944-1.429 17.3 17.3 0 0 1 -7.11-7.985 7.177 7.177 0 0 1 13.23-5.566 2.707 2.707 0 0 0 1.195 1.166 5.362 5.362 0 0 0 2.827.729 5.206 5.206 0 0 0 3.38-1.079 1.416 1.416 0 0 0 0-2.477 5.212 5.212 0 0 0 -3.38-1.078 19.617 19.617 0 0 1 -12.59-4.488 15.608 15.608 0 0 1 0-24.421 19.489 19.489 0 0 1 5.392-3.177zm90.778 0a7.2 7.2 0 1 1 14.4 0v1.311a16.272 16.272 0 0 1 2.944 1.428 17.008 17.008 0 0 1 7.11 7.985 7.177 7.177 0 0 1 -13.23 5.567 2.665 2.665 0 0 0 -1.166-1.195 5.836 5.836 0 0 0 -2.856-.7 5.378 5.378 0 0 0 -3.381 1.049 1.784 1.784 0 0 0 -.728 1.253 1.843 1.843 0 0 0 .728 1.254 5.378 5.378 0 0 0 3.381 1.049 19.479 19.479 0 0 1 12.59 4.517 15.578 15.578 0 0 1 0 24.392 18.182 18.182 0 0 1 -5.392 3.176v1.312a7.2 7.2 0 1 1 -14.4 0v-1.282a21.158 21.158 0 0 1 -2.943-1.429 17.293 17.293 0 0 1 -7.111-7.985 7.177 7.177 0 0 1 13.23-5.566 2.707 2.707 0 0 0 1.195 1.166 5.362 5.362 0 0 0 2.827.729 5.211 5.211 0 0 0 3.381-1.079 1.417 1.417 0 0 0 0-2.477 5.217 5.217 0 0 0 -3.381-1.078 19.612 19.612 0 0 1 -12.589-4.488 15.607 15.607 0 0 1 0-24.421 19.469 19.469 0 0 1 5.391-3.177zm-45.375 0a7.184 7.184 0 1 1 14.367 0v1.311a17.512 17.512 0 0 1 2.973 1.428 17.1 17.1 0 0 1 7.082 7.985 7.164 7.164 0 0 1 -13.2 5.567 2.749 2.749 0 0 0 -1.195-1.195 5.714 5.714 0 0 0 -2.826-.7 5.319 5.319 0 0 0 -3.381 1.049 1.689 1.689 0 0 0 -.729 1.253 1.74 1.74 0 0 0 .729 1.254 5.319 5.319 0 0 0 3.381 1.049 19.594 19.594 0 0 1 12.589 4.517 15.577 15.577 0 0 1 0 24.392 18.331 18.331 0 0 1 -5.421 3.176v1.312a7.184 7.184 0 1 1 -14.367 0v-1.282a20.018 20.018 0 0 1 -2.972-1.429 17.23 17.23 0 0 1 -7.082-7.985 7.164 7.164 0 0 1 13.2-5.566 2.873 2.873 0 0 0 1.195 1.166 5.464 5.464 0 0 0 2.856.729 5.126 5.126 0 0 0 3.351-1.079 1.416 1.416 0 0 0 0-2.477 5.131 5.131 0 0 0 -3.351-1.078 19.754 19.754 0 0 1 -12.619-4.488 15.607 15.607 0 0 1 0-24.421 19.66 19.66 0 0 1 5.42-3.177z" fill="#e6f1fa"/><path d="m167.189 289.12h70.145a2.885 2.885 0 0 1 2.885 2.856v26.461a2.885 2.885 0 0 1 -2.885 2.856h-70.145a2.86 2.86 0 0 1 -2.856-2.856v-26.461a2.86 2.86 0 0 1 2.856-2.856z" fill="#0076a4" fill-rule="evenodd"/><path d="m80.724 445.731h350.581a9.837 9.837 0 0 1 9.792 9.821v13.521a9.813 9.813 0 0 1 -9.792 9.792h-350.581a9.819 9.819 0 0 1 -9.821-9.792v-13.521a9.843 9.843 0 0 1 9.821-9.821z" fill="#f54756" fill-rule="evenodd"/><path d="m80.724 445.731h22.847v33.134h-22.847a9.819 9.819 0 0 1 -9.821-9.792v-13.521a9.843 9.843 0 0 1 9.821-9.821z" fill="#dd404d" fill-rule="evenodd"/><path d="m34.067 478.865h443.866a9.82 9.82 0 0 1 9.792 9.821v13.493a9.839 9.839 0 0 1 -9.792 9.821h-443.866a9.839 9.839 0 0 1 -9.792-9.821v-13.493a9.82 9.82 0 0 1 9.792-9.821z" fill="#0076a4" fill-rule="evenodd"/><path d="m34.067 478.865h69.5v33.135h-69.5a9.839 9.839 0 0 1 -9.792-9.821v-13.493a9.82 9.82 0 0 1 9.792-9.821z" fill="#006a94" fill-rule="evenodd"/><path d="m103.571 99.171h16.582v346.56h-16.582z" fill="#00a7c4"/><path d="m375.294 99.171h16.582v346.56h-16.582z" fill="#00a7c4"/><path d="m103.571 40.887v-40.887h-25.324a7.369 7.369 0 0 0 -7.347 7.344v81.656a10.192 10.192 0 0 0 10.145 10.171h22.526z" fill="#dd404d" fill-rule="evenodd"/><path d="m183.858 216.177v-81.656a4.422 4.422 0 0 1 4.43-4.4h-12.356a4.416 4.416 0 0 0 -4.4 4.4v81.656a4.416 4.416 0 0 0 4.4 4.4h12.356a4.422 4.422 0 0 1 -4.43-4.4z" fill="#e5972d" fill-rule="evenodd"/><path d="m136.706 99.171h13.872v346.56h-13.872z" fill="#cfd9e1"/><path d="m207.056 397.209c0-12.677 8.392-23.052 18.622-23.052h-19.293c-10.229 0-18.592 10.375-18.592 23.052v48.522h19.263z" fill="#00a7c4" fill-rule="evenodd"/><path d="m164.333 258.317a7.214 7.214 0 0 0 7.2 7.2h9.063a7.2 7.2 0 0 1 0-14.4h-9.063a7.2 7.2 0 0 0 -7.2 7.2zm9.063 60.12v-26.461a2.861 2.861 0 0 1 2.856-2.856h-9.063a2.86 2.86 0 0 0 -2.856 2.856v26.461a2.86 2.86 0 0 0 2.856 2.856h9.063a2.861 2.861 0 0 1 -2.856-2.856z" fill="#006a94" fill-rule="evenodd"/><path d="m318.962 265.369a7.206 7.206 0 0 1 0-14.134 7.206 7.206 0 0 1 0 14.134zm22.906-14.134a7.206 7.206 0 0 1 0 14.134 7.205 7.205 0 0 1 0-14.134zm0 55.808a7.188 7.188 0 1 1 -5.8 7.052 7.193 7.193 0 0 1 5.8-7.052zm-68.718 0a7.188 7.188 0 0 1 0 14.105 7.181 7.181 0 0 1 0-14.105zm22.906 0a7.188 7.188 0 1 1 -5.8 7.052 7.193 7.193 0 0 1 5.8-7.052zm22.906 0a7.188 7.188 0 1 1 -5.8 7.052 7.193 7.193 0 0 1 5.8-7.052zm22.906-27.89a7.188 7.188 0 1 1 -5.8 7.053 7.2 7.2 0 0 1 5.8-7.053zm-68.718 0a7.188 7.188 0 0 1 0 14.1 7.181 7.181 0 0 1 0-14.1zm22.906 0a7.188 7.188 0 1 1 -5.8 7.053 7.2 7.2 0 0 1 5.8-7.053zm22.906 0a7.188 7.188 0 1 1 -5.8 7.053 7.2 7.2 0 0 1 5.8-7.053zm-45.812-27.918a7.206 7.206 0 0 1 0 14.134 7.2 7.2 0 0 1 0-14.134zm22.906 0a7.206 7.206 0 0 1 0 14.134 7.206 7.206 0 0 1 0-14.134z" fill="#00b9da"/></svg>