<?xml version="1.0" encoding="iso-8859-1"?>
<!-- Generator: Adobe Illustrator 19.0.0, SVG Export Plug-In . SVG Version: 6.00 Build 0)  -->
<svg version="1.1" id="Capa_1" xmlns="http://www.w3.org/2000/svg" xmlns:xlink="http://www.w3.org/1999/xlink" x="0px" y="0px"
	 viewBox="0 0 512 512" style="enable-background:new 0 0 512 512;" xml:space="preserve">
<path style="fill:#EFE7E4;" d="M472.816,58.185h-54.345c-4.161,0-7.534,3.372-7.534,7.534v24.15c0,8.176-6.652,14.827-14.826,14.827
	c-8.176,0-14.826-6.652-14.826-14.827v-24.15c0-4.162-3.373-7.534-7.534-7.534H107.118c-4.161,0-7.534,3.372-7.534,7.534v24.15
	c0,8.176-6.652,14.827-14.826,14.827s-14.826-6.652-14.826-14.827v-24.15c0-4.162-3.373-7.534-7.534-7.534H7.534
	C3.373,58.185,0,61.557,0,65.718v364.129c0,4.162,3.373,7.534,7.534,7.534h252.333c2.583,0,4.984-1.322,6.365-3.505
	c1.38-2.182,1.549-4.918,0.443-7.253c-7.678-16.217-11.572-33.6-11.572-51.67c0-66.672,54.242-120.915,120.915-120.915
	c34.92,0,68.133,15.104,91.121,41.439c2.065,2.366,5.382,3.203,8.321,2.099c2.94-1.103,4.888-3.914,4.888-7.054V65.718
	C480.349,61.558,476.976,58.185,472.816,58.185z"/>
<rect y="122.146" style="fill:#D8D1D0;" width="480.347" height="56.063"/>
<g>
	<path style="fill:#465A65;" d="M131.288,190.432h-48.54c-4.161,0-7.534,3.372-7.534,7.534v48.539c0,4.162,3.373,7.534,7.534,7.534
		h48.54c4.161,0,7.534-3.372,7.534-7.534v-48.539C138.822,193.805,135.449,190.432,131.288,190.432z"/>
	<path style="fill:#465A65;" d="M220.232,190.432h-48.54c-4.161,0-7.534,3.372-7.534,7.534v48.539c0,4.162,3.373,7.534,7.534,7.534
		h48.54c4.161,0,7.534-3.372,7.534-7.534v-48.539C227.765,193.805,224.393,190.432,220.232,190.432z"/>
	<path style="fill:#465A65;" d="M309.176,190.432h-48.54c-4.161,0-7.534,3.372-7.534,7.534v48.539c0,4.162,3.373,7.534,7.534,7.534
		h48.54c4.161,0,7.534-3.372,7.534-7.534v-48.539C316.71,193.805,313.337,190.432,309.176,190.432z"/>
	<path style="fill:#465A65;" d="M398.12,190.432h-48.54c-4.161,0-7.534,3.372-7.534,7.534v48.539c0,4.162,3.373,7.534,7.534,7.534
		h48.54c4.161,0,7.534-3.372,7.534-7.534v-48.539C405.654,193.805,402.28,190.432,398.12,190.432z"/>
	<path style="fill:#465A65;" d="M131.288,294.639h-48.54c-4.161,0-7.534,3.372-7.534,7.534v48.54c0,4.162,3.373,7.534,7.534,7.534
		h48.54c4.161,0,7.534-3.372,7.534-7.534v-48.54C138.822,298.011,135.449,294.639,131.288,294.639z"/>
	<path style="fill:#465A65;" d="M220.232,294.639h-48.54c-4.161,0-7.534,3.372-7.534,7.534v48.54c0,4.162,3.373,7.534,7.534,7.534
		h48.54c4.161,0,7.534-3.372,7.534-7.534v-48.54C227.765,298.011,224.393,294.639,220.232,294.639z"/>
</g>
<path style="fill:#E93234;" d="M473.075,58.185h-54.604c-4.161,0-7.534,3.372-7.534,7.534v24.15c0,8.176-6.652,14.827-14.826,14.827
	c-8.176,0-14.826-6.652-14.826-14.827v-24.15c0-4.162-3.373-7.534-7.534-7.534H107.118c-4.161,0-7.534,3.372-7.534,7.534v24.15
	c0,8.176-6.652,14.827-14.826,14.827s-14.826-6.652-14.826-14.827v-24.15c0-4.162-3.373-7.534-7.534-7.534H7.793
	c-4.161,0-7.534,3.372-7.534,7.534v81.545c0,4.162,3.373,7.534,7.534,7.534h465.282c4.161,0,7.534-3.372,7.534-7.534V65.718
	C480.609,61.558,477.236,58.185,473.075,58.185z"/>
<path style="fill:#B32425;" d="M0.259,122.15v25.112c0,4.162,3.373,7.534,7.534,7.534h465.282c4.161,0,7.534-3.372,7.534-7.534
	V122.15C480.609,122.15,0.259,122.15,0.259,122.15z"/>
<path style="fill:#FFD039;" d="M376.018,238.972c-74.98,0-135.982,61.002-135.982,135.982s61.002,135.981,135.982,135.981
	c74.981,0,135.982-61.002,135.982-135.981C512,299.973,450.999,238.972,376.018,238.972z"/>
<path style="fill:#FFAE47;" d="M376.018,238.972c-5.309,0-10.544,0.316-15.696,0.911c67.613,7.807,120.286,65.398,120.286,135.071
	c0,69.671-52.672,127.263-120.286,135.07c5.152,0.595,10.387,0.911,15.696,0.911c74.981,0,135.982-61.002,135.982-135.981
	C512,299.973,450.999,238.972,376.018,238.972z"/>
<path style="fill:#00B76C;" d="M356.52,429.342c-4.547,0-8.909-1.807-12.124-5.021l-38.997-38.998
	c-6.696-6.696-6.696-17.553,0-24.249s17.552-6.696,24.248,0l26.874,26.874l65.871-65.871c6.696-6.696,17.552-6.697,24.248-0.001
	c6.696,6.696,6.696,17.552,0,24.249l-77.996,77.995C365.429,427.535,361.067,429.342,356.52,429.342z"/>
<path style="fill:#FFD039;" d="M84.757,1.065c-16.484,0-29.894,13.411-29.894,29.895v58.909c0,16.484,13.41,29.895,29.894,29.895
	s29.894-13.411,29.894-29.895V30.96C114.652,14.475,101.241,1.065,84.757,1.065z"/>
<path style="fill:#F4B008;" d="M84.757,1.065c-5.003,0-9.719,1.242-13.868,3.423c9.518,5.006,16.026,14.99,16.026,26.47v58.909
	c0,11.48-6.508,21.464-16.026,26.47c4.148,2.182,8.865,3.424,13.868,3.424c16.484,0,29.894-13.411,29.894-29.895V30.96
	C114.652,14.475,101.241,1.065,84.757,1.065z"/>
<path style="fill:#FFD039;" d="M396.11,1.065c-16.484,0-29.894,13.411-29.894,29.895v58.909c0,16.484,13.411,29.895,29.894,29.895
	c16.484,0,29.894-13.411,29.894-29.895V30.96C426.005,14.475,412.594,1.065,396.11,1.065z"/>
<path style="fill:#F4B008;" d="M396.11,1.065c-5.003,0-9.719,1.242-13.868,3.423c9.518,5.006,16.026,14.99,16.026,26.47v58.909
	c0,11.48-6.508,21.464-16.026,26.47c4.148,2.182,8.865,3.424,13.868,3.424c16.484,0,29.894-13.411,29.894-29.895V30.96
	C426.005,14.475,412.594,1.065,396.11,1.065z"/>
<g>
</g>
<g>
</g>
<g>
</g>
<g>
</g>
<g>
</g>
<g>
</g>
<g>
</g>
<g>
</g>
<g>
</g>
<g>
</g>
<g>
</g>
<g>
</g>
<g>
</g>
<g>
</g>
<g>
</g>
</svg>
