<svg id="Layer_1" enable-background="new 0 0 511.746 511.746" height="512" viewBox="0 0 511.746 511.746" width="512" xmlns="http://www.w3.org/2000/svg"><g><g><g><path d="m450.591 324.027c18.876-20.173 21.849-60.339 21.849-94.082 0-2.209-.431-6.65-.431-6.65-1.686-14.4-4.784-28.368-9.156-41.762l-19.763-.482-21.742 12.975c5.712 17.156 8.813 35.505 8.813 54.581 0 24.379-5.063 47.573-14.178 68.602l17.54 10.808z" fill="#d75950"/><path d="m472.01 223.293c.066 2.193.109 4.392.109 6.602 0 33.743-7.738 65.677-21.528 94.132l4.159 10.76 3.827-7.172c9.623-24.471 14.91-51.123 14.91-79.01 0-8.564-.505-17.009-1.477-25.312z" fill="#ca4844"/><g fill="#d75950"><path d="m192.042 436.39s41.691 18.624 63.958 18.624c22.269 0 63.963-18.626 63.963-18.626l6.506-21.931-8.915-3.927c-18.705 6.94-38.937 10.739-60.057 10.739-22.269 0-43.553-4.218-63.098-11.895l-8.868 5.083z"/><path d="m194.109 87.949c19.625-7.749 41.009-12.008 63.388-12.008 21.286 0 41.668 3.861 60.496 10.906l13.763-21.561.253-19.47c-23.227-8.537-48.325-13.201-74.513-13.201-27.104 0-53.035 5.007-76.938 14.123l-.212 18.853z"/><path d="m84.834 248.606c0-19.019 3.083-37.315 8.763-54.428l-21.9-12.327-20.008 1.078c-6.604 20.712-10.181 42.776-10.181 65.677 0 3.209.077 6.4.215 9.575 3.049 23.324 7.318 49.254 19.686 65.848l18.589 5.208 19.016-12.023c-9.116-21.031-14.18-44.227-14.18-68.608z"/></g><path d="m41.724 258.18c1.047 23.954 5.997 46.894 14.227 68.204l3.743 1.982 1.716-4.338c-9.873-20.369-16.638-42.524-19.686-65.848z" fill="#ca4844"/><path d="m256 446.015c-22.267 0-43.746-3.371-63.958-9.624l-11.278 8.211 5.949 8.113c22.177 7.69 45.99 11.881 70.784 11.881 23.825 0 46.745-3.868 68.178-10.993l5.765-8.396-11.477-8.818c-20.213 6.254-41.694 9.626-63.963 9.626z" fill="#ca4844"/></g><path d="m.444 405.167c0 54.707 46.237 96.975 96.821 96.975s96.821-41.567 96.821-96.975c-4.678-49.359-46.237-87.975-96.821-87.975-50.583 0-92.143 38.615-96.821 87.975z" fill="#f5de8e"/><g><ellipse cx="256" cy="255.723" fill="#aadefd" rx="92.181" ry="92.181" transform="matrix(.707 -.707 .707 .707 -105.843 255.919)"/></g><path d="m97.265 493.142c-50.584 0-92.143-38.616-96.821-87.975-.29 3.058-.444 6.156-.444 9.29 0 53.718 43.547 97.265 97.265 97.265s97.266-43.547 97.266-97.265c0-3.134-.154-6.232-.444-9.291-4.678 49.36-46.238 87.976-96.822 87.976z" fill="#edd17a"/><path d="m.444 87.998c0 54.707 46.237 96.975 96.821 96.975s96.821-41.567 96.821-96.975c-4.678-49.36-46.237-87.975-96.821-87.975-50.583 0-92.143 38.616-96.821 87.975z" fill="#f5de8e"/><path d="m97.265 175.973c-50.584 0-92.143-38.616-96.821-87.975-.29 3.059-.444 6.156-.444 9.291 0 53.718 43.547 97.265 97.265 97.265s97.266-43.547 97.266-97.265c0-3.134-.154-6.232-.444-9.291-4.678 49.36-46.238 87.975-96.822 87.975z" fill="#edd17a"/><path d="m317.659 405.167c0 54.707 46.237 96.975 96.821 96.975s96.821-41.567 96.821-96.975c-4.678-49.359-46.237-87.975-96.821-87.975-50.583 0-92.143 38.615-96.821 87.975z" fill="#f5de8e"/><path d="m414.48 493.142c-50.584 0-92.143-38.616-96.821-87.975-.29 3.058-.444 6.156-.444 9.291 0 53.718 43.547 97.265 97.265 97.265s97.266-43.547 97.266-97.265c0-3.134-.154-6.232-.444-9.291-4.678 49.359-46.237 87.975-96.822 87.975z" fill="#edd17a"/><path d="m317.659 87.998c0 54.707 46.237 96.975 96.821 96.975s96.821-41.567 96.821-96.975c-4.678-49.36-46.237-87.975-96.821-87.975-50.583 0-92.143 38.616-96.821 87.975z" fill="#f5de8e"/><path d="m414.48 175.973c-50.584 0-92.143-38.616-96.821-87.975-.29 3.058-.444 6.156-.444 9.291 0 53.718 43.547 97.265 97.265 97.265s97.266-43.547 97.266-97.265c0-3.134-.154-6.232-.444-9.291-4.678 49.36-46.237 87.975-96.822 87.975z" fill="#edd17a"/></g><g><g fill="#e5a84c"><path d="m117.56 371.548c4.285 0 7.757-3.473 7.757-7.757s-3.472-7.757-7.757-7.757c-17.52 0-30.147 3.381-39.736 10.638-7.641 5.783-12.95 13.945-15.9 24.368h-8.144c-4.285 0-7.757 3.473-7.757 7.757 0 4.285 3.472 7.757 7.757 7.757h5.605c-.136 2.099-.22 4.245-.22 6.469 0 2.225.084 4.371.22 6.47h-5.605c-4.285 0-7.757 3.472-7.757 7.757s3.472 7.757 7.757 7.757h8.144c2.951 10.423 8.259 18.584 15.9 24.367 9.589 7.258 22.216 10.639 39.736 10.639 4.285 0 7.757-3.473 7.757-7.757 0-4.285-3.472-7.757-7.757-7.757-21.297 0-33.766-5.886-39.346-19.492h27.392c4.285 0 7.757-3.473 7.757-7.757s-3.473-7.757-7.757-7.757h-30.694c-.149-2.06-.232-4.207-.232-6.47s.083-4.41.232-6.469h30.694c4.285 0 7.757-3.473 7.757-7.757s-3.473-7.757-7.757-7.757h-27.392c5.58-13.606 18.05-19.492 39.346-19.492z"/><path d="m380.16 102.69h14.527l.109.939c1.132 10.135.538 13.913-7.56 24.79l-8.14 10.233c-4.059 4.776-.263 12.735 6.003 12.586l63.633.563h.07c4.252 0 7.718-3.428 7.756-7.688.037-4.284-3.405-7.787-7.688-7.826l-47.858-.423c8.614-11.99 10.683-19.608 9.279-33.174h14.559c4.285 0 7.757-3.472 7.757-7.757s-3.472-7.757-7.757-7.757h-18.32c-3.104-4.635-8.509-14.378-8.474-22.403 0-.01-.001-.021-.001-.031s.001-.02.001-.031c-.019-5.206 2.25-9.023 6.937-11.669 7.092-4.002 18.116-4.065 24.572-.14 5.047 3.068 8.865 7.381 9.965 11.257 1.17 4.121 5.458 6.516 9.58 5.344 4.121-1.17 6.514-5.458 5.344-9.58-2.189-7.715-8.324-15.106-16.829-20.277-11.289-6.865-28.221-6.91-40.26-.113-9.562 5.399-14.819 14.314-14.82 25.112 0 .021-.003.04-.003.061 0 .009.001.019.001.028 0 .011-.001.022-.001.034 0 .032.005.062.005.094.004 8.124 2.978 16.16 6.06 22.314h-8.447c-4.284 0-7.757 3.472-7.757 7.757 0 4.284 3.472 7.757 7.757 7.757z"/><path d="m451.273 358.452c-3.573-2.367-8.386-1.386-10.75 2.187l-25.314 38.247-25.562-38.51c-2.371-3.571-7.185-4.542-10.753-2.174-3.569 2.37-4.542 7.184-2.174 10.753l27.03 40.721h-20.501c-4.285 0-7.757 3.473-7.757 7.757 0 4.285 3.473 7.757 7.757 7.757h24.179l-.025 10.89h-24.154c-4.285 0-7.757 3.473-7.757 7.757s3.473 7.757 7.757 7.757h24.118l-.031 13.344c-.01 4.285 3.455 7.765 7.739 7.775h.018c4.276 0 7.747-3.461 7.757-7.739l.031-13.38h24.043c4.285 0 7.757-3.472 7.757-7.757s-3.473-7.757-7.757-7.757h-24.008l.025-10.89h23.983c4.285 0 7.757-3.473 7.757-7.757 0-4.285-3.473-7.757-7.757-7.757h-20.253l26.787-40.474c2.367-3.573 1.388-8.386-2.185-10.75z"/><path d="m104.147 153.93v-6.192c13.596-3.303 22.316-14.85 24.231-26.236 2.479-14.745-5.224-27.561-19.623-32.651-1.516-.536-3.062-1.093-4.608-1.67v-26.886c3.278 1.122 5.195 2.741 5.345 2.872 1.397 1.353 3.299 2.189 5.397 2.189 4.288 0 7.763-3.476 7.763-7.763 0-2.362-1.056-4.476-2.72-5.9-.361-.333-6.201-5.592-15.786-7.393v-4.875c0-4.285-3.473-7.757-7.757-7.757s-7.757 3.473-7.757 7.757v5.42c-.602.151-1.21.319-1.825.504-9.543 2.875-16.672 11.026-18.602 21.272-1.77 9.39 1.271 18.47 7.933 23.694 3.227 2.531 7.177 4.852 12.494 7.272v35.284c-3.989-.494-6.907-1.753-11.536-4.781-3.583-2.344-8.393-1.34-10.738 2.245s-1.34 8.392 2.245 10.738c7.828 5.121 13.316 6.857 20.028 7.389v5.467c0 4.285 3.473 7.757 7.757 7.757s7.759-3.471 7.759-7.756zm0-50.237c9.996 3.861 9.373 12.606 8.931 15.236-.798 4.746-3.829 9.751-8.931 12.375zm-15.514-23.584c-1.063-.652-2.05-1.318-2.92-2-2.055-1.613-2.944-4.994-2.261-8.614.531-2.818 2.161-6.104 5.181-8.06z"/></g><path d="m256 155.604c-55.206 0-100.119 44.913-100.119 100.119s44.913 100.119 100.119 100.119 100.119-44.913 100.119-100.119-44.913-100.119-100.119-100.119zm75.276 61.575h-28.973c-2.205-11.016-5.358-21.183-9.386-29.991-1.643-3.593-3.406-6.894-5.271-9.906 18.878 7.643 34.38 21.904 43.63 39.897zm-40.799 38.544c0 8.107-.487 15.806-1.362 23.03h-66.229c-.875-7.224-1.362-14.923-1.362-23.03s.487-15.806 1.362-23.03h66.229c.874 7.224 1.362 14.922 1.362 23.03zm-34.477-84.605c11.651 0 24.25 17.746 30.496 46.061h-60.991c6.246-28.315 18.844-46.061 30.495-46.061zm-31.646 6.164c-1.866 3.012-3.629 6.313-5.272 9.906-4.028 8.808-7.181 18.975-9.386 29.991h-28.973c9.251-17.993 24.753-32.254 43.631-39.897zm-52.959 78.441c0-7.984 1.136-15.702 3.212-23.03h32.677c-.839 7.461-1.275 15.178-1.275 23.03s.437 15.569 1.275 23.03h-32.677c-2.076-7.328-3.212-15.047-3.212-23.03zm9.329 38.544h28.973c2.205 11.016 5.357 21.183 9.386 29.991 1.643 3.593 3.406 6.894 5.272 9.906-18.879-7.644-34.381-21.904-43.631-39.897zm75.276 46.061c-11.651 0-24.249-17.746-30.496-46.061h60.991c-6.245 28.315-18.844 46.061-30.495 46.061zm31.641-6.162c1.867-3.014 3.633-6.313 5.277-9.908 4.028-8.808 7.18-18.975 9.386-29.991h28.973c-9.252 17.995-24.756 32.256-43.636 39.899zm17.075-55.413c.838-7.461 1.275-15.178 1.275-23.03s-.437-15.569-1.275-23.03h32.677c2.076 7.328 3.212 15.046 3.212 23.03s-1.136 15.702-3.212 23.03z" fill="#4a80aa"/></g></g></svg>