<svg id="Layer_1" enable-background="new 0 0 512 512" height="512" viewBox="0 0 512 512" width="512" xmlns="http://www.w3.org/2000/svg"><g><g><g><g><path d="m255.503.145c-98.468 0-159.125 55.542-159.292 55.635 0 0-2.522 3.148-2.993 5.24-40.682 158.01 91.762 314.078 253.078 312.278 54.416.002 114.96-26.079 155.48-57.438.906-.701 3.782-5.415 3.782-5.415 36.697-152.523-88.293-313.317-250.055-310.3z" fill="#3b69af"/></g></g><g><g><g><path d="m505.558 310.446c-187.076 148.275-459.479-19.4-409.347-254.664-.006.005.006-.005 0 0-187.276 149.167-83.5 455.091 159.295 456.115 121.583 0 224.883-85.271 250.052-201.451z" fill="#00558c"/></g></g></g></g><g><g><g><g><path d="m389.067 101.593c-64.497-58.234-167.052-63.91-235.335-22.849-20.982 15.701-33.766 40.477-33.635 66.709 1.182 169.171 199.544 265.52 331.916 158.317.724-.56 3.018-4.321 3.018-4.321.06-.366.891-3.749 1.833-9.377z" fill="#0096f2"/></g></g><g><g><path d="m327.931 343.839c-85.219 0-158.242-52.21-188.832-126.387-29.731-14.958-65.728 2.689-71.679 35.434-10.643 58.56 9.708 120.435 57.783 160.33.96.797 1.928 1.585 2.903 2.364 51.872 43.354 133.956 57.283 198.631 31.817l72.317-46.194c27.523-27.195 47.415-62.234 55.977-101.754-34.877 27.78-79.046 44.39-127.1 44.39z" fill="#4278c3"/></g></g></g><g><g><path d="m223.339 272.715h12.999c5.017 0 8.854 4.12 8.955 9.136.097 4.861 4.068 8.772 8.953 8.772 16.23 0 29.386 13.156 29.386 29.386v18.995l72.47 19.508 60.557-33.688c0-18.889 15.312-34.201 34.201-34.201 2.052 0 4.053-.204 6.005-.553 12.868-68.164-16.362-146.13-67.796-188.478h-58.179c-11.335 0-20.502 9.257-20.395 20.556.058 7.522-5.826 13.727-13.348 13.727h-2.906c-4.698 0-8.887 3.108-10.186 7.398-.191.643-.312 1.301-.384 1.969.456 6.446-4.519 12.039-11.069 11.784-15.124.247-27.309 12.576-27.309 27.758v35.631c0 12.266-9.843 22.646-22.107 22.453-8.679-.137-15.694 7.134-15.134 15.902.489 7.688 7.586 13.945 15.287 13.945z" fill="#aad540"/></g></g><g><g><path d="m399.485 394.532c1.179-3.525 4.574-5.984 8.542-6.064 1.281-.025 2.493-.332 3.583-.849 1.635-1.937 3.233-3.906 4.796-5.905.158-.66.251-1.346.251-2.054v-54.836c0-.42.017-.836.032-1.252-26.839 12.981-56.946 20.266-88.759 20.266-15.215 0-30.036-1.678-44.301-4.835v28.973c0 11.351 9.288 20.414 20.639 20.493 11.25.078 20.347 9.223 20.347 20.492v26.09c0 4.327.757 8.473 2.116 12.334 27.296-10.17 51.904-26.021 72.315-46.19-.007-.734-.014-1.381-.019-1.938.001.002.043-2.743.458-4.725z" fill="#8bc852"/></g></g><g><g><path d="m195.5 121.802c-.846-11.293-10.805-19.622-22.014-18.526-3.005.294-5.731-1.814-6.01-4.821-.821-8.849-6.279-16.138-13.742-19.707-16.354 9.31-25.279 17.465-25.335 17.497-22.555 17.968-25.396 57.183-24.051 85.72.892 18.942 15.831 34.204 34.751 35.485 14.828-.732 27.079-12.21 28.43-27.048l3.963-42.03c.25-2.816 2.629-4.935 5.431-5.012 10.955-1.07 19.399-10.58 18.577-21.558z" fill="#aad540"/></g></g><g><g><path d="m155.869 353.293c5.312-.562 9.304-5.063 8.783-10.381l-2.366-24.177c-.528-5.395-5.363-9.088-10.768-8.668-5.238.407-9.862-3.452-10.376-8.705l-4.464-45.627c-.641-6.554-6.431-11.623-12.974-10.88-6.698.761-12.697-4.11-13.352-10.795l-.165-1.683c-.648-6.621 4.193-12.513 10.814-13.16l18.108-1.772c-15.451-36.54-19.603-81.669-10.714-121.204-102.046 78.945-102.163 240.24-.282 319.329l-2.476-25.314c-.521-5.318 3.369-10.051 8.687-10.571l4.716-.462c5.318-.521 9.208-5.253 8.687-10.571l-.469-4.796c-.039-.687-.179-4.39 2.63-7.437 2.29-2.486 5.128-3.003 5.981-3.126z" fill="#8bc852"/></g></g></g><g><g><path d="m427.155 17.529c-9.053-6.399-21.574-4.246-27.972 4.803l-128.651 182.005c12.997 3.182 25.63 11.308 33.066 22.758l128.361-181.594c6.398-9.051 4.248-21.574-4.804-27.972z" fill="#d82e3d"/></g></g><g><g><path d="m416.69 236.019h-108.643c4.787 13.039 5.806 27.007-.025 40.137h108.668c26.627-1.06 26.606-39.088 0-40.137z" fill="#ffe65a"/></g></g><g><path d="m231.542 302.193c-2.3-1.345-4.009-3.2-5.155-5.321l-107.79 175.343c3.386 2.148 6.823 4.221 10.315 6.213l107.328-174.59c-1.66-.271-3.264-.807-4.698-1.645z" fill="#c10a54"/></g><g><path d="m263.656 259.24-10.258-6.306-28.509 46.375c3.16 2.462 6.59 4.591 10.248 6.321z" fill="#fa2d14"/></g><g><path d="m238.458 256.087c0 11.084 8.985 20.069 20.069 20.069h50.968c5.042-12.294 5.042-27.845.002-40.137h-50.97c-11.083 0-20.069 8.984-20.069 20.068z" fill="#fac855"/></g><g><path d="m271.561 202.879-29.423 41.623c-6.398 9.051-4.247 21.575 4.803 27.972 8.949 6.353 21.536 4.309 27.972-4.803l29.419-41.618c-7.493-11.406-19.127-19.842-32.771-23.174z" fill="#c10a54"/></g><g><g><path d="m226.951 36.843-2.91 1.806c-6.473 3.909-10.387-7.571-4.515-10.738l13.246-8.027c3.341-1.931 9.839.285 9.834 4.214v63.822c0 6.423-15.655 6.422-15.655 0z" fill="#fff"/></g><g><path d="m273.911 19.382c11.641 0 23.382 7.325 23.382 20.772 0 21.777-31.008 28.901-31.008 38.032v.903h26.292c2.509 0 4.716 3.111 4.716 6.723s-2.208 6.924-4.716 6.924h-35.725c-2.809 0-6.823-1.907-6.823-4.816v-9.732c0-15.755 31.609-24.786 31.609-37.53 0-3.211-2.007-7.124-7.627-7.124-4.014 0-7.526 2.007-7.526 7.526 0 2.91-3.112 5.72-8.228 5.72-4.015 0-7.025-1.806-7.025-8.129.001-12.244 11.24-19.269 22.679-19.269z" fill="#fff"/></g></g><g><g><path d="m279.032 469.851v.903c0 17.26-10.737 23.683-24.585 23.683s-24.686-6.422-24.686-23.683v-26.592c0-17.26 11.139-23.683 25.589-23.683 16.959 0 23.683 10.536 23.683 18.866 0 4.816-2.308 6.322-7.325 6.322-4.316 0-8.129-1.104-8.129-5.72 0-3.813-4.015-5.82-8.731-5.82-5.92 0-9.432 3.111-9.432 10.034v9.031c3.211-3.512 7.726-4.415 12.544-4.415 11.438 0 21.072 5.018 21.072 21.074zm-33.617 2.007c0 6.924 3.412 9.934 9.032 9.934s8.931-3.01 8.931-9.934v-.903c0-7.326-3.311-10.136-9.032-10.136-5.419 0-8.931 2.609-8.931 9.232z" fill="#fff"/></g></g><g><g><path d="m479.515 271.292v-1.907c0-6.724-4.115-8.027-9.634-8.027-3.412 0-4.516-3.01-4.516-6.022 0-3.01 1.105-6.021 4.516-6.021 3.813 0 7.827-.502 7.827-8.631 0-5.82-3.311-7.225-7.425-7.225-4.917 0-7.425 1.204-7.425 5.118 0 3.412-1.505 5.721-7.325 5.721-7.226 0-8.129-1.505-8.129-6.322 0-7.828 5.619-17.962 22.879-17.962 12.745 0 22.379 4.616 22.379 18.163 0 7.325-2.709 14.149-7.726 16.457 5.919 2.208 10.235 6.624 10.235 14.751v1.906c0 16.457-11.34 22.68-25.389 22.68-17.26 0-23.884-10.536-23.884-18.966 0-4.515 1.906-5.72 7.426-5.72 6.422 0 8.027 1.405 8.027 5.218 0 4.716 4.415 5.82 8.931 5.82 6.825 0 9.233-2.508 9.233-9.031z" fill="#fff"/></g></g><g><g><path d="m13.977 243.596v-.903c0-17.26 10.738-23.683 24.586-23.683s24.686 6.422 24.686 23.683v26.592c0 17.26-11.139 23.683-25.59 23.683-16.958 0-23.683-10.536-23.683-18.866 0-4.816 2.309-6.322 7.326-6.322 4.316 0 8.129 1.104 8.129 5.72 0 3.813 4.014 5.82 8.73 5.82 5.92 0 9.433-3.111 9.433-10.034v-9.031c-3.212 3.512-7.727 4.415-12.544 4.415-11.439 0-21.073-5.018-21.073-21.074zm33.618-2.007c0-6.924-3.412-9.935-9.032-9.935s-8.931 3.01-8.931 9.935v.903c0 7.326 3.311 10.136 9.031 10.136 5.419 0 8.932-2.609 8.932-9.232z" fill="#fff"/></g></g><g><g><path d="m258.527 222.925c-18.494 0-33.161 15.011-33.161 33.161 1.754 44.001 64.586 43.963 66.324 0-.001-18.313-14.849-33.161-33.163-33.161z" fill="#fff"/></g></g></g></svg>