<?xml version="1.0" encoding="UTF-8"?>
<svg xmlns="http://www.w3.org/2000/svg" id="Layer_3" data-name="Layer 3" viewBox="0 0 64 64" width="512" height="512"><polygon points="41 63 55 63 54.315 60 41 60 41 63" style="fill:#cf8b76"/><path d="M30,18l.63-.788A15.371,15.371,0,0,0,34,7.606h0A6.737,6.737,0,0,0,31,2h0a5.447,5.447,0,0,1-4.1,3.62l-.471.094A14.708,14.708,0,0,1,23.543,6h0a15.009,15.009,0,0,1-6.712-1.585h0A3.923,3.923,0,0,0,15.071,4h0a3.933,3.933,0,0,0-3.816,2.979L11,8h-.566A8.434,8.434,0,0,0,2,16.434H2a8.453,8.453,0,0,0,.562,3.028l3.313,8.612L12.254,40.5Z" style="fill:#212121"/><path d="M30.227,3.479A5.438,5.438,0,0,1,26.9,5.62l-.471.094A14.708,14.708,0,0,1,23.543,6a15.009,15.009,0,0,1-6.712-1.585h0A3.923,3.923,0,0,0,15.071,4h0a3.933,3.933,0,0,0-3.816,2.979L11,8h-.566A8.435,8.435,0,0,0,2.562,19.462l3.313,8.612L10.76,37.59,27,17l.63-.788A15.371,15.371,0,0,0,31,6.606,6.737,6.737,0,0,0,30.227,3.479Z" style="fill:#383838"/><path d="M32,33.77a22.689,22.689,0,0,1-.44,4.42l-.97,4.87A3.662,3.662,0,0,1,27,46h-.19a21.111,21.111,0,0,1-4.9-.57v.01a7.76,7.76,0,0,0,2.63,2.89v.01a15.328,15.328,0,0,1-3.8,1.89,14.974,14.974,0,0,1-9.48,0,15.328,15.328,0,0,1-3.8-1.89v-.01A7.839,7.839,0,0,0,11,41.78a7.96,7.96,0,0,0-.15-1.54L10,36a2.015,2.015,0,0,1-2,2,1.643,1.643,0,0,1-1.45-.89L4.68,33.37A6.471,6.471,0,0,1,4,30.47a2.506,2.506,0,0,1,.72-1.75,2.579,2.579,0,0,1,1.15-.65,2.9,2.9,0,0,1,.6-.07,2.466,2.466,0,0,1,2.21,1.37L10,32V25.57a43.117,43.117,0,0,1,.59-7.09,2.9,2.9,0,0,1,1-1.78,3.014,3.014,0,0,1,2.87-.55A35.79,35.79,0,0,0,25.84,18H30l.51,3.04A36.038,36.038,0,0,1,31,27l.33,1.31A22.862,22.862,0,0,1,32,33.77Z" style="fill:#cf8b76"/><path d="M24.54,48.34v-.01a7.76,7.76,0,0,1-2.63-2.89v-.01a21.111,21.111,0,0,0,4.9.57H27a3.645,3.645,0,0,0,.546-.048,3.636,3.636,0,0,0,1.045-1.9l.969-4.863A22.689,22.689,0,0,0,30,34.77a22.862,22.862,0,0,0-.67-5.46L29,28a36.038,36.038,0,0,0-.49-5.96A3.642,3.642,0,0,0,24.918,19H23.84a35.79,35.79,0,0,1-11.38-1.85,3.029,3.029,0,0,0-.94-.15c-.085,0-.167.015-.25.022a2.892,2.892,0,0,0-.68,1.458A43.117,43.117,0,0,0,10,25.57V32L8.68,29.37A2.466,2.466,0,0,0,6.47,28a2.9,2.9,0,0,0-.6.07,2.579,2.579,0,0,0-1.15.65A2.506,2.506,0,0,0,4,30.47a6.471,6.471,0,0,0,.68,2.9l1.87,3.74A1.643,1.643,0,0,0,8,38a2.015,2.015,0,0,0,2-2l.85,4.24A7.96,7.96,0,0,1,11,41.78a7.839,7.839,0,0,1-3.54,6.55v.01a15.328,15.328,0,0,0,3.8,1.89,14.974,14.974,0,0,0,9.48,0,15.556,15.556,0,0,0,1.83-.751l-.03-.149c.03.042.06.08.09.122A15.1,15.1,0,0,0,24.54,48.34Z" style="fill:#f1b79d"/><path d="M21.68,46.409a22.682,22.682,0,0,1-9.321-4.641l1.282-1.536a20.669,20.669,0,0,0,8.494,4.23Z" style="fill:#cf8b76"/><path d="M31,27a36.155,36.155,0,0,0-.429-5.54A5.524,5.524,0,0,0,28.41,21,2.414,2.414,0,0,0,26.7,25.117l4.423,4.424.515,1.534c.074.225.167.442.255.662a23.2,23.2,0,0,0-.566-3.427Z" style="fill:#cf8b76"/><path d="M62,21.72a2.155,2.155,0,0,1-1.12,1.89L51,29v3a5.962,5.962,0,0,1-2.05,4.51v.01L55,63H41V53h1.8L38,37a10.787,10.787,0,0,1-5.41-6.24L32,29l-4.59-4.59a1.414,1.414,0,0,1,1-2.41,4.534,4.534,0,0,1,2.83.99l3.15,2.52A2.219,2.219,0,0,0,38,23.78V10a2.015,2.015,0,0,1,2-2,2.006,2.006,0,0,1,2,2v9L45.6,8.19a1.745,1.745,0,0,1,3.4.55,12.229,12.229,0,0,1-.25,2.49L47,20l6.4-8.22A2,2,0,0,1,54.99,11,2.014,2.014,0,0,1,57,13.01a3.216,3.216,0,0,1-.55,1.81L51,23l8.74-2.91a1.611,1.611,0,0,1,.54-.09A1.72,1.72,0,0,1,62,21.72Z" style="fill:#f1b79d"/><path d="M41,63V53L25,48h0a15,15,0,0,1-9,3h0a15,15,0,0,1-9-3H7L1,50V63Z" style="fill:#0056bf"/><path d="M16,51h0a15,15,0,0,1-9-3l-2.839.946A12.993,12.993,0,0,0,17,60H41V53L25,48A15,15,0,0,1,16,51Z" style="fill:#0068dc"/><path d="M45,37v2A6.95,6.95,0,0,0,49.2,37.6L48.95,36.52v-.01h0l-.663-.749A4.949,4.949,0,0,1,45,37Z" style="fill:#cf8b76"/><path d="M41.811,22.143,41.2,22.02,40.8,23.98l.614.124a8.086,8.086,0,0,1,5.687,4.343l1.79-.894A10.075,10.075,0,0,0,41.811,22.143Z" style="fill:#cf8b76"/><path d="M44.528,30.058a14.241,14.241,0,0,0-1.568,1.9,10.346,10.346,0,0,0-3.405-3.792l-1.11,1.664A8.334,8.334,0,0,1,41.7,34.079a14.29,14.29,0,0,0-.65,1.6l1.9.632a12.427,12.427,0,0,1,2.993-4.844l.765-.764-1.414-1.416Z" style="fill:#cf8b76"/><polygon points="43.042 57.288 44.958 56.712 43.758 52.712 42.8 53 42.8 53 42.8 53 41.842 53.288 43.042 57.288" style="fill:#cf8b76"/><path d="M7.433,47.1a1,1,0,0,0-.749-.053l-6,2,.632,1.9L6.83,49.111A16,16,0,0,0,25.18,49.1L40,53.735V63h2V54h.056l.986,3.287,1.916-.574-6-20a1.006,1.006,0,0,0-.511-.608,9.728,9.728,0,0,1-4.912-5.664l-.586-1.757a1.013,1.013,0,0,0-.242-.391l-4.586-4.586A.414.414,0,0,1,28.414,23a3.539,3.539,0,0,1,2.2.771l3.153,2.523A3.221,3.221,0,0,0,39,23.779V10a1,1,0,0,1,2,0v9a1,1,0,0,0,.84.987,1.01,1.01,0,0,0,1.109-.671l3.6-10.808A.744.744,0,0,1,48,8.744a11.758,11.758,0,0,1-.227,2.292L46.02,19.8a1,1,0,0,0,1.77.81l6.394-8.222A1.015,1.015,0,0,1,56,13.015a2.251,2.251,0,0,1-.378,1.25l-5.454,8.18a1,1,0,0,0,1.148,1.5l8.735-2.912a.736.736,0,0,1,.949.684,1.156,1.156,0,0,1-.6,1.014l-9.877,5.387A1,1,0,0,0,50,29v3a5.006,5.006,0,0,1-5,5v2a6.947,6.947,0,0,0,3.3-.83l5.725,25.053,1.95-.446L50.047,36.838A6.968,6.968,0,0,0,52,32V29.594l9.356-5.1A3.156,3.156,0,0,0,63,21.721a2.721,2.721,0,0,0-3.582-2.581l-5.969,1.99,3.837-5.755A4.248,4.248,0,0,0,58,13.015a3.015,3.015,0,0,0-5.4-1.851l-3.793,4.878.922-4.613A13.688,13.688,0,0,0,50,8.744a2.744,2.744,0,0,0-5.346-.869L43,12.837V10a3,3,0,0,0-6,0V23.779a1.221,1.221,0,0,1-1.984.953L31.863,22.21c-.062-.05-.133-.085-.2-.132-.054-.4-.106-.8-.173-1.2l-.433-2.6.351-.439A16.441,16.441,0,0,0,35,7.605a7.722,7.722,0,0,0-3.445-6.437,1,1,0,0,0-1.5.516A4.458,4.458,0,0,1,26.7,4.64l-.47.094a14.05,14.05,0,0,1-8.954-1.213,4.935,4.935,0,0,0-6.994,3.215L10.219,7A9.433,9.433,0,0,0,1.629,19.82L4.6,27.555A3.466,3.466,0,0,0,3,30.472a7.5,7.5,0,0,0,.789,3.342l1.869,3.738A2.6,2.6,0,0,0,8,39a2.982,2.982,0,0,0,1.5-.4l.367,1.838A6.759,6.759,0,0,1,10,41.776,6.806,6.806,0,0,1,7.433,47.1Zm29.73-9.414L41.456,52h-.3L25.3,47.045a.992.992,0,0,0-.709.074c-.115-.091-.226-.185-.335-.283A22.444,22.444,0,0,0,26.81,47H27a4.672,4.672,0,0,0,4.569-3.746l.974-4.873A23.529,23.529,0,0,0,33,33.858,11.692,11.692,0,0,0,37.163,37.69ZM3,16.434A7.443,7.443,0,0,1,10.434,9H11a1,1,0,0,0,.97-.757l.256-1.022A2.933,2.933,0,0,1,16.384,5.31,16.077,16.077,0,0,0,26.625,6.7L27.1,6.6a6.464,6.464,0,0,0,4.267-3.01A5.722,5.722,0,0,1,33,7.605a14.431,14.431,0,0,1-3.151,8.983L29.52,17H25.842a34.937,34.937,0,0,1-11.068-1.8A3.971,3.971,0,0,0,9.6,18.319,44.19,44.19,0,0,0,9,25.565v2.524a3.447,3.447,0,0,0-2.465-1.083L3.5,19.1A7.425,7.425,0,0,1,3,16.434Zm9,25.342a8.818,8.818,0,0,0-.172-1.733L10.98,35.8A1,1,0,0,0,9,36a1,1,0,0,1-1,1,.615.615,0,0,1-.553-.342L5.578,32.92A5.5,5.5,0,0,1,5,30.472a1.472,1.472,0,0,1,2.789-.658l1.316,2.633A1,1,0,0,0,11,32V25.565a42.161,42.161,0,0,1,.572-6.917A1.973,1.973,0,0,1,14.141,17.1a36.936,36.936,0,0,0,11.7,1.9h3.311l.354,2.122A5.5,5.5,0,0,0,28.414,21a2.414,2.414,0,0,0-1.707,4.121l3.712,3.712a21.4,21.4,0,0,1,.164,9.156l-.975,4.873A2.667,2.667,0,0,1,27,45h-.19a20.61,20.61,0,0,1-13.17-4.768l-1.28,1.536a22.584,22.584,0,0,0,8.9,4.527,8.813,8.813,0,0,0,1.549,1.922,13.9,13.9,0,0,1-13.622,0A8.792,8.792,0,0,0,12,41.776Z"/><path d="M47.105,28.447l1.79-.894a10.075,10.075,0,0,0-7.084-5.41L41.2,22.02,40.8,23.98l.614.124A8.086,8.086,0,0,1,47.105,28.447Z"/><path d="M42.949,36.316a12.427,12.427,0,0,1,2.993-4.844l.765-.764-1.414-1.416-.765.766a14.241,14.241,0,0,0-1.568,1.9,10.346,10.346,0,0,0-3.405-3.792l-1.11,1.664A8.334,8.334,0,0,1,41.7,34.079a14.29,14.29,0,0,0-.65,1.6Z"/></svg>
