<svg id="Capa_1" enable-background="new 0 0 512 512" height="512" viewBox="0 0 512 512" width="512" xmlns="http://www.w3.org/2000/svg"><g><g><circle cx="256" cy="267" fill="#85addf" r="245"/></g><g><path d="m433.204 0h-288.51c-5.523 0-10 4.477-10 10v216.388l23.022-10.226c1.932-.858 3.983-1.293 6.097-1.293s4.165.435 6.097 1.293l87 38.645c5.42 2.407 8.922 7.795 8.922 13.726v63.367c0 13.347-1.583 25.576-4.746 36.823 2.136 1.429 4.146 3.076 6.001 4.93l8.216 8.217 8.216-8.217c7.463-7.462 17.428-11.571 28.057-11.571 10.63 0 20.594 4.109 28.058 11.571 8.498 8.498 12.317 19.923 11.479 31.06h82.089c5.523 0 10-4.477 10-10v-384.713c.002-5.523-4.475-10-9.998-10z" fill="#eaf6ff"/><path d="m157.717 216.162c1.932-.858 3.983-1.293 6.097-1.293s4.165.435 6.097 1.293l4.783 2.125v-208.287c0-5.523 4.477-10 10-10h-40c-5.523 0-10 4.477-10 10v216.388z" fill="#d8ecfe"/><g><g><path d="m381.482 152.593h-185.066c-4.142 0-7.5-3.357-7.5-7.5s3.358-7.5 7.5-7.5h185.066c4.142 0 7.5 3.357 7.5 7.5s-3.357 7.5-7.5 7.5z" fill="#017b4e"/></g><g><path d="m381.482 182.721h-185.066c-4.142 0-7.5-3.357-7.5-7.5s3.358-7.5 7.5-7.5h185.066c4.142 0 7.5 3.357 7.5 7.5s-3.357 7.5-7.5 7.5z" fill="#017b4e"/></g><g><path d="m381.482 212.849h-185.066c-4.142 0-7.5-3.357-7.5-7.5s3.358-7.5 7.5-7.5h185.066c4.142 0 7.5 3.357 7.5 7.5s-3.357 7.5-7.5 7.5z" fill="#017b4e"/></g></g><g><g><path d="m381.482 268.8h-90.812c-4.142 0-7.5-3.357-7.5-7.5s3.358-7.5 7.5-7.5h90.812c4.142 0 7.5 3.357 7.5 7.5s-3.357 7.5-7.5 7.5z" fill="#09a76d"/></g><g><path d="m381.482 85.125h-90.812c-4.142 0-7.5-3.357-7.5-7.5s3.358-7.5 7.5-7.5h90.812c4.142 0 7.5 3.357 7.5 7.5s-3.357 7.5-7.5 7.5z" fill="#09a76d"/></g><g><path d="m381.482 298.928h-90.812c-4.142 0-7.5-3.357-7.5-7.5s3.358-7.5 7.5-7.5h90.812c4.142 0 7.5 3.357 7.5 7.5s-3.357 7.5-7.5 7.5z" fill="#09a76d"/></g><g><path d="m381.482 329.056h-90.812c-4.142 0-7.5-3.357-7.5-7.5s3.358-7.5 7.5-7.5h90.812c4.142 0 7.5 3.357 7.5 7.5s-3.357 7.5-7.5 7.5z" fill="#09a76d"/></g></g><path d="m220.074 63.574h-12.762c-1.873 0-3.396-1.523-3.396-3.396v-3.729c0-1.872 1.523-3.396 3.396-3.396h21.2c4.142 0 7.5-3.357 7.5-7.5s-3.358-7.5-7.5-7.5h-7.319v-.753c0-4.143-3.358-7.5-7.5-7.5s-7.5 3.357-7.5 7.5v.81c-9.622.583-17.277 8.573-17.277 18.339v3.729c0 10.144 8.252 18.396 18.396 18.396h12.762c1.872 0 3.396 1.523 3.396 3.396v3.73c0 1.872-1.523 3.396-3.396 3.396h-21.69c-4.142 0-7.5 3.357-7.5 7.5s3.358 7.5 7.5 7.5h7.809v1.848c0 4.143 3.358 7.5 7.5 7.5s7.5-3.357 7.5-7.5v-1.904c9.622-.583 17.277-8.573 17.277-18.339v-3.729c0-10.145-8.252-18.398-18.396-18.398z" fill="#09a76d"/></g><g><path d="m210.09 428.837h-31.357c-3.584 0-6.5-2.916-6.5-6.5s2.916-6.5 6.5-6.5h23.233c-5.373-14.16-2.378-30.798 9.008-42.185 7.463-7.462 17.428-11.571 28.058-11.571 8.365 0 16.311 2.555 22.958 7.275 3.163-11.148 4.844-23.548 4.844-37.457v-63.367c0-6.332-3.73-12.07-9.517-14.64l-87-38.644c-4.14-1.839-8.866-1.839-13.006 0l-87 38.644c-5.787 2.57-9.517 8.308-9.517 14.64v63.367c0 67.467 39.455 99.487 96.548 124.822 4.116 1.827 8.829 1.827 12.945 0 16.193-7.186 30.965-14.911 43.822-23.828-1.059-1.056-2.108-2.103-3.135-3.127-.304-.303-.591-.618-.884-.929z" fill="#09a76d"/><path d="m189.557 446.864c-59.603-26.45-100.793-59.877-100.793-130.311v-66.153c0-1.746.279-3.446.79-5.056l-19.243 8.548c-5.787 2.57-9.517 8.308-9.517 14.64v63.367c0 67.467 39.455 99.487 96.548 124.822 4.116 1.827 8.829 1.827 12.945 0 6.937-3.078 13.611-6.257 19.988-9.584-.239-.092-.483-.169-.718-.273z" fill="#02905d"/><g><path d="m213.048 311.038h-28.061v-28.061c0-2.761-2.239-5-5-5h-32.347c-2.761 0-5 2.239-5 5v28.061h-28.061c-2.761 0-5 2.239-5 5v32.347c0 2.761 2.239 5 5 5h28.061v28.061c0 2.761 2.239 5 5 5h32.347c2.761 0 5-2.239 5-5v-28.061h28.061c2.761 0 5-2.239 5-5v-32.347c0-2.761-2.238-5-5-5z" fill="#fff"/></g><g><path d="m160.307 373.78c-2.761 0-5-2.239-5-5v-23.061c0-2.761-2.239-5-5-5h-23.061c-2.761 0-5-2.239-5-5v-24.681h-7.667c-2.761 0-5 2.239-5 5v32.347c0 2.761 2.239 5 5 5h28.061v28.061c0 2.761 2.239 5 5 5h32.347c2.761 0 5-2.239 5-5v-7.667h-24.68z" fill="#eaf6ff"/></g></g><g><g fill="#fb2b3a"><path d="m303.68 438.015c-2.312 0-4.467-1.243-5.625-3.243l-9.634-16.64-15.049 33.334c-1.007 2.231-3.153 3.694-5.598 3.816-.112.006-.22.009-.327.009-2.313 0-4.468-1.244-5.625-3.246l-13.418-23.208h-39.679c.498.556 1.011 1.104 1.546 1.638 22.64 22.585 50.119 49.952 60.479 60.179 1.264 1.248 2.911 1.871 4.559 1.871s3.295-.624 4.559-1.871c9.232-9.114 32.043-31.823 52.919-52.64h-29.107z"/><path d="m252.151 415.837c2.313 0 4.469 1.244 5.627 3.247l8.956 15.489 15.045-33.325c1.007-2.23 3.151-3.693 5.596-3.816.122-.007.24-.01.357-.01 2.293 0 4.437 1.243 5.596 3.244l14.098 24.349h37.484c11.098-15.858 9.583-37.918-4.567-52.069-7.652-7.651-17.867-11.865-28.764-11.865-10.898 0-21.112 4.214-28.765 11.865l-7.509 7.509-7.509-7.509c-7.652-7.651-17.867-11.865-28.764-11.865-10.898 0-21.112 4.214-28.765 11.865-11.578 11.578-14.695 28.451-9.37 42.891z"/></g><g fill="#e41f2d"><path d="m231.389 428.837h-22.667c.498.556 1.011 1.104 1.546 1.638 22.64 22.585 50.119 49.952 60.479 60.179 1.264 1.248 2.911 1.871 4.559 1.871s3.295-.624 4.559-1.871c1.785-1.762 4.087-4.042 6.775-6.708-12.918-12.815-34.965-34.776-53.704-53.471-.536-.534-1.049-1.082-1.547-1.638z"/><path d="m223.565 415.837c-5.325-14.44-2.208-31.313 9.37-42.891 4.917-4.917 10.896-8.405 17.431-10.276-3.634-1.041-7.439-1.589-11.333-1.589-10.898 0-21.112 4.214-28.765 11.865-11.578 11.578-14.695 28.451-9.37 42.891z"/></g><g><path d="m267.445 456.291c-2.667 0-5.146-1.42-6.491-3.746l-13.13-22.708h-69.091c-4.142 0-7.5-3.357-7.5-7.5s3.358-7.5 7.5-7.5h73.418c2.678 0 5.152 1.428 6.493 3.746l7.98 13.803 14.244-31.549c1.157-2.563 3.65-4.263 6.458-4.404 2.812-.154 5.459 1.299 6.869 3.732l13.809 23.85h46.628c4.142 0 7.5 3.357 7.5 7.5s-3.358 7.5-7.5 7.5h-50.952c-2.676 0-5.149-1.426-6.491-3.742l-8.659-14.954-14.248 31.559c-1.157 2.563-3.651 4.264-6.46 4.404-.126.006-.251.009-.377.009z" fill="#fff"/></g></g></g></svg>