<svg height="512" viewBox="0 0 64 64" width="512" xmlns="http://www.w3.org/2000/svg"><g id="Icons"><g><g><g><path d="m34 42c0-2.39 1.059-4.533 2.726-6-1.667-1.467-2.726-3.61-2.726-6 0-2.953 1.613-5.532 4-6.918v-3.082h-4.111c-1.242 0-2.467-.289-3.578-.845l-2.311-1.155-2.311 1.155c-1.111.556-2.336.845-3.578.845h-4.111v14.338c0 3.513 1.843 6.768 4.855 8.575l5.145 3.087 5.145-3.087c.3-.18.579-.385.855-.592z" fill="#3cc8b4"/></g><g><path d="m48 46h-12v-4c0-3.314 2.686-6 6-6 3.314 0 6 2.686 6 6z" fill="#64c8f0"/></g><g><path d="m44 36.349c-.626-.222-1.298-.349-2-.349-3.314 0-6 2.686-6 6v4h4v-4c0-2.611 1.671-4.827 4-5.651z" fill="#46aad2"/></g><g><path d="m24.855 42.913c-3.012-1.807-4.855-5.062-4.855-8.575v-14.338h-2v14.338c0 3.513 1.843 6.768 4.855 8.575l5.145 3.087 1-.6z" fill="#1eaa96"/></g><g><path d="m4 46h6v14h-6z" fill="#3cc8b4"/></g><g><path d="m4 46h2v14h-2z" fill="#1eaa96"/></g><g><path d="m46.876 52.141-14.505 1.813c-.247.031-.495.046-.744.046h-5.627c-1.105 0-2-.895-2-2l8.392-1.678c.935-.187 1.608-1.008 1.608-1.962v-.36h-24v8l15.964 3.547c1.335.297 2.724.246 4.034-.147l17.289-5.187c.424-.126.713-.515.713-.957v-.123c0-.602-.527-1.067-1.124-.992z" fill="#f0c8a0"/></g><g><path d="m54 4h6v14h-6z" fill="#3cc8b4"/></g><g><path d="m54 4h2v14h-2z" fill="#1eaa96"/></g><g><path d="m17.124 11.859 14.505-1.813c.247-.031.496-.046.744-.046h5.627c1.105 0 2 .895 2 2l-8.392 1.678c-.935.187-1.608 1.008-1.608 1.962v.36h24v-8l-15.964-3.548c-1.335-.297-2.724-.246-4.034.147l-17.289 5.187c-.423.127-.713.516-.713.958v.123c0 .602.527 1.067 1.124.992z" fill="#f0c8a0"/></g><g><path d="m42 36c-3.314 0-6-2.686-6-6 0-3.314 2.686-6 6-6 3.314 0 6 2.686 6 6 0 3.314-2.686 6-6 6z" fill="#f0c8a0"/></g><g><path d="m36 30c0-3.314 2.686-6 6-6 3.314 0 6 2.686 6 6z" fill="#fab400"/></g><g><path d="m40 30c0-2.611 1.671-4.827 4-5.651-.626-.222-1.298-.349-2-.349-3.314 0-6 2.686-6 6s2.686 6 6 6c.702 0 1.374-.127 2-.349-2.329-.824-4-3.04-4-5.651z" fill="#d2aa82"/></g><g><path d="m44 24.349c-.626-.222-1.298-.349-2-.349-3.314 0-6 2.686-6 6h4c0-2.611 1.671-4.827 4-5.651z" fill="#dc9600"/></g></g><g><path d="m32 31h-3v-3h-2v3h-3v2h3v3h2v-3h3z" fill="#f0f0f0"/></g></g></g></svg>