<svg height="512" viewBox="0 0 64 64" width="512" xmlns="http://www.w3.org/2000/svg"><g id="_03-temple" data-name="03-temple"><path d="m12 37h2 2v3h-12-3v-3z" fill="#d96117"/><path d="m48 37h2 2 11v3h-3-12z" fill="#d96117"/><path d="m13 24v9.86c-.41.5-.75.89-1 1.14v2h-11c3-2 5-13 5-13z" fill="#ff942c"/><path d="m20 24 .18.12c-2.88 4.11-5.58 7.8-7.18 9.74v-13.86h7z" fill="#ff942c"/><path d="m20 24v-9h6l.23.15c-1.89 2.9-4.01 6.04-6.05 8.97z" fill="#ff942c"/><path d="m44 20v4l-.18.12c-2.04-2.93-4.16-6.07-6.05-8.97l.23-.15h6z" fill="#ff942c"/><path d="m51 24v9.86c-1.6-1.94-4.3-5.63-7.18-9.74l.18-.12v-4h7z" fill="#ff942c"/><path d="m63 37h-11v-2c-.25-.25-.59-.64-1-1.14v-9.86h7s2 11 5 13z" fill="#ff942c"/><path d="m4 59v-19h12v19zm9-9.17a2.006 2.006 0 0 0 -.59-1.42l-2.41-2.41-2.41 2.41a2.006 2.006 0 0 0 -.59 1.42v6.17h6z" fill="#f7faff"/><path d="m57 49.83a2.006 2.006 0 0 0 -.59-1.42l-2.41-2.41-2.41 2.41a2.006 2.006 0 0 0 -.59 1.42v6.17h6zm-9 9.17v-19h12v19z" fill="#f7faff"/><path d="m24 37v22h-4v-18-4z" fill="#dce1eb"/><path d="m40 37h4v22h-4z" fill="#dce1eb"/><path d="m16 41h4v18h-4z" fill="#eef2fa"/><path d="m20 37v4h-4v-1-3z" fill="#ffdf64"/><path d="m41 31v4h-1-16-1v-4z" fill="#ffdf64"/><path d="m27 24h13.51c.67 1 1.35 2.01 2.03 3h-21.08c.68-.99 1.36-2 2.03-3z" fill="#ffce54"/><path d="m32 16 5 8h-10z" fill="#f4700c"/><path d="m32 11s4.1 6.45 8.51 13h-3.51l-5-8-5 8h-3.51c4.41-6.55 8.51-13 8.51-13z" fill="#fea740"/><path d="m48 37h-8v-2h1v-4h-18v4h1v2h-10a94.589 94.589 0 0 0 7.46-10h21.08a94.589 94.589 0 0 0 7.46 10z" fill="#fea740"/><path d="m13 33.86c1.6-1.94 4.3-5.63 7.18-9.74 2.04-2.93 4.16-6.07 6.05-8.97 3.02-4.66 5.4-8.68 5.77-10.15.37 1.47 2.75 5.49 5.77 10.15 1.89 2.9 4.01 6.04 6.05 8.97 2.88 4.11 5.58 7.8 7.18 9.74.41.5.75.89 1 1.14v2h-2a94.589 94.589 0 0 1 -7.46-10c-.68-.99-1.36-2-2.03-3-4.41-6.55-8.51-13-8.51-13s-4.1 6.45-8.51 13c-.67 1-1.35 2.01-2.03 3a94.589 94.589 0 0 1 -7.46 10h-2v-2c.25-.25.59-.64 1-1.14z" fill="#fff978"/><path d="m34 46v1h-2-2v-1l2-2z" fill="#e66718"/><path d="m12.41 48.41a2.006 2.006 0 0 1 .59 1.42v.17h-6v-.17a2.006 2.006 0 0 1 .59-1.42l2.41-2.41z" fill="#ffb844"/><path d="m32 40s3 4 5 4v3h-3v-1l-2-2-2 2v1h-3v-3c2 0 5-4 5-4z" fill="#ffb844"/><path d="m56.41 48.41a2.006 2.006 0 0 1 .59 1.42v.17h-6v-.17a2.006 2.006 0 0 1 .59-1.42l2.41-2.41z" fill="#fe792c"/><path d="m7 50h6v6h-6z" fill="#ffdf64"/><path d="m51 50h6v6h-6z" fill="#ffdf64"/><path d="m32 47v12h-4v-12h2z" fill="#ffce54"/><path d="m34 47h2v12h-4v-12z" fill="#ffdf64"/><path d="m40 37v22h-4v-12h1v-3c-2 0-5-4-5-4s-3 4-5 4v3h1v12h-4v-24h16z" fill="#f7faff"/><path d="m44 41h4v18h-4z" fill="#eef2fa"/><path d="m44 37v3 1h4v-1-3z" fill="#ffdf64"/><path d="m36 47v12h4v-1h-2a1 1 0 0 1 -1-1v-10z" fill="#bec3d2"/><path d="m1 59h62v4h-62z" fill="#afb4c8"/><path d="m35.125 24h1.875l-5-8-5 8h1.875l2.277-3.643a1 1 0 0 1 1.7 0z" fill="#d96117"/><path d="m32 40s-3 4-5 4v2c2 0 5-4 5-4s3 4 5 4v-2c-2 0-5-4-5-4z" fill="#ffdf64"/><path d="m61.394 35h-6.394a2 2 0 0 1 -2-2v-9h-2v9.86c.41.5.75.89 1 1.14v2h11a5.675 5.675 0 0 1 -1.606-2z" fill="#e66718"/><path d="m46 23.359v-3.359h-2v4l-.18.12c2.88 4.11 5.58 7.8 7.18 9.74v-2.86l-4.627-6.478a2 2 0 0 1 -.373-1.163z" fill="#f4700c"/><path d="m42.406 19.109-2.739-4.109h-1.667l-.23.15c1.89 2.9 4.01 6.04 6.05 8.97l.18-.12v-4.009a2 2 0 0 1 -1.594-.882z" fill="#fe792c"/><path d="m2.606 35h6.394a2 2 0 0 0 2-2v-9h2v9.86c-.41.5-.75.89-1 1.14v2h-11a5.675 5.675 0 0 0 1.606-2z" fill="#e66718"/><path d="m18 23.359v-3.359h2v4l.18.12c-2.88 4.11-5.58 7.8-7.18 9.74v-2.86l4.627-6.478a2 2 0 0 0 .373-1.163z" fill="#f4700c"/><path d="m21.594 19.109 2.739-4.109h1.667l.23.15c-1.89 2.9-4.01 6.04-6.05 8.97l-.18-.12v-4.009a2 2 0 0 0 1.594-.882z" fill="#fe792c"/><path d="m49.4 34.183c-2.378-3.273-11.372-16.711-17.4-26.183-6.028 9.472-15.022 22.91-17.4 26.183a1.986 1.986 0 0 1 -1.616.817h-.984v2h2a94.589 94.589 0 0 0 7.46-10c.68-.99 1.36-2 2.03-3 4.41-6.55 8.51-13 8.51-13s4.1 6.45 8.51 13c.67 1 1.35 2.01 2.03 3a94.589 94.589 0 0 0 7.46 10h2v-2h-.984a1.986 1.986 0 0 1 -1.616-.817z" fill="#ffce54"/><path d="m25.333 24h-1.843c-.67 1-1.35 2.01-2.03 3h1.873z" fill="#fea740"/><path d="m40.667 27h1.873c-.68-.99-1.36-2-2.03-3h-1.843z" fill="#fea740"/><path d="m32 14 6.667 10h1.843c-4.41-6.55-8.51-13-8.51-13s-4.1 6.45-8.51 13h1.843z" fill="#fe792c"/><path d="m42.54 27h-21.08a94.589 94.589 0 0 1 -7.46 10h10v-2h-4.132a1 1 0 0 1 -.832-1.555l3.334-5a1 1 0 0 1 .83-.445h17.6a1 1 0 0 1 .832.445l3.334 5a1 1 0 0 1 -.834 1.555h-4.132v2h10a94.589 94.589 0 0 1 -7.46-10z" fill="#fe792c"/><path d="m25 31a2 2 0 0 0 2 2h10a2 2 0 0 0 2-2h2v4h-18v-4z" fill="#ffce54"/><path d="m44 39h-1a1 1 0 0 0 -1 1v19h-2v-22h4z" fill="#afb4c8"/><path d="m20 39h1a1 1 0 0 1 1 1v19h2v-22h-4z" fill="#afb4c8"/><path d="m31 48h1v-1h-4v12h1v-9a2 2 0 0 1 2-2z" fill="#fea740"/><path d="m34 47h-2v1h1a2 2 0 0 1 2 2v9h1v-12z" fill="#ffb844"/><path d="m28 47v12h-4v-1h2a1 1 0 0 0 1-1v-10z" fill="#bec3d2"/><path d="m24 35h16v3h-16z" fill="#cdd2e1"/><path d="m48 39h-1a1 1 0 0 0 -1 1v1h-2v-4h4z" fill="#ffb844"/><path d="m48 43h-1a1 1 0 0 0 -1 1v15h-2v-18h4z" fill="#cdd2e1"/><path d="m16 39h1a1 1 0 0 1 1 1v1h2v-4h-4z" fill="#ffb844"/><path d="m16 43h1a1 1 0 0 1 1 1v15h2v-18h-4z" fill="#cdd2e1"/><path d="m57 49.83a2.006 2.006 0 0 0 -.59-1.42l-2.41-2.41-2.41 2.41a2.006 2.006 0 0 0 -.59 1.42v.17h1.13a2.278 2.278 0 0 1 .263-.59l.775-1.162a1 1 0 0 1 1.664 0l.775 1.162a2.278 2.278 0 0 1 .263.59h1.13z" fill="#e66718"/><path d="m52 56v-4a1 1 0 0 1 1-1h2a1 1 0 0 1 1 1v4h1v-6h-6v6z" fill="#ffb844"/><path d="m57.117 47.7-2.41-2.41a1 1 0 0 0 -1.414 0l-2.41 2.41a2.987 2.987 0 0 0 -.883 2.13v6.17a1 1 0 0 0 1 1h6a1 1 0 0 0 1-1v-6.17a2.987 2.987 0 0 0 -.883-2.13zm-.117 2.3v6h-6v-6.17a2.006 2.006 0 0 1 .59-1.42l2.41-2.41 2.41 2.41a2.006 2.006 0 0 1 .59 1.42z" fill="#cdd2e1"/><path d="m60 42h-8a2 2 0 0 0 -2 2v15h-2v-19h12z" fill="#e9edf5"/><path d="m7 49.83a2.006 2.006 0 0 1 .59-1.42l2.41-2.41 2.41 2.41a2.006 2.006 0 0 1 .59 1.42v.17h-1.13a2.278 2.278 0 0 0 -.263-.59l-.775-1.162a1 1 0 0 0 -1.664 0l-.775 1.162a2.278 2.278 0 0 0 -.263.59h-1.13z" fill="#e66718"/><path d="m12 56v-4a1 1 0 0 0 -1-1h-2a1 1 0 0 0 -1 1v4h-1v-6h6v6z" fill="#ffb844"/><path d="m6 49.83v6.17a1 1 0 0 0 1 1h6a1 1 0 0 0 1-1v-6.17a2.987 2.987 0 0 0 -.883-2.127l-2.41-2.41a1 1 0 0 0 -1.414 0l-2.41 2.407a2.987 2.987 0 0 0 -.883 2.13zm1 0a2.006 2.006 0 0 1 .59-1.42l2.41-2.41 2.41 2.41a2.006 2.006 0 0 1 .59 1.42v6.17h-6z" fill="#cdd2e1"/><path d="m4 42h8a2 2 0 0 1 2 2v15h2v-19h-12z" fill="#e9edf5"/><path d="m4 59a2 2 0 0 0 2 2h52a2 2 0 0 0 2-2h3v4h-62v-4z" fill="#8a90a0"/><path d="m45 13v-1.2a2.042 2.042 0 0 0 -1-1.8c.613.34 0 1.036 0 1.8v.424a1.487 1.487 0 0 0 -1.371 1.032l-.629 1.744h2v-2z" fill="#ffce54"/><path d="m52 18v-1.2a2.042 2.042 0 0 0 -1-1.8c.613.34 0 1.036 0 1.8v.424a1.487 1.487 0 0 0 -1.371 1.032l-.629 1.744h2v-2z" fill="#ffce54"/><path d="m59 22v-1.2a2.042 2.042 0 0 0 -1-1.8c.613.34 0 1.036 0 1.8v.424a1.487 1.487 0 0 0 -1.371 1.032l-.629 1.744h2v-2z" fill="#ffce54"/><path d="m19 13v-1.2a2.042 2.042 0 0 1 1-1.8c-.613.34 0 1.036 0 1.8v.424a1.487 1.487 0 0 1 1.371 1.032l.629 1.744h-2v-2z" fill="#ffce54"/><path d="m12 18v-1.2a2.042 2.042 0 0 1 1-1.8c-.613.34 0 1.036 0 1.8v.424a1.487 1.487 0 0 1 1.371 1.032l.629 1.744h-2v-2z" fill="#ffce54"/><path d="m5 22v-1.2a2.042 2.042 0 0 1 1-1.8c-.613.34 0 1.036 0 1.8v.424a1.487 1.487 0 0 1 1.371 1.032l.629 1.744h-2v-2z" fill="#ffce54"/><g fill="#fff"><rect height="8" rx="1" width="2" x="58" y="48"/><rect height="3" rx="1" width="2" x="58" y="44"/><rect height="8" rx="1" width="2" x="4" y="48"/><rect height="3" rx="1" width="2" x="4" y="44"/><rect height="8" rx="1" width="2" x="16" y="48"/><rect height="3" rx="1" width="2" x="16" y="44"/><rect height="8" rx="1" width="2" x="46" y="48"/><rect height="3" rx="1" width="2" x="46" y="44"/></g><ellipse cx="37.682" cy="32.708" fill="#f6fafd" rx=".825" ry="1.148" transform="matrix(.707 -.707 .707 .707 -12.09 36.242)"/><ellipse cx="35.427" cy="32.208" fill="#f6fafd" rx=".413" ry=".574" transform="matrix(.707 -.707 .707 .707 -12.397 34.501)"/><path d="m32.856 6.992-.856-5.992-.856 5.992a10.807 10.807 0 0 0 .856-1.992 10.807 10.807 0 0 0 .856 1.992z" fill="#fff978"/></g></svg>