<svg id="Capa_1" enable-background="new 0 0 512 512" height="512" viewBox="0 0 512 512" width="512" xmlns="http://www.w3.org/2000/svg"><g><path d="m96.401 29.44h156.157v40.217h-156.157z" fill="#ebae9d" transform="matrix(.973 -.232 .232 .973 -6.737 41.894)"/><g><path d="m41.605 113.085 118.858 141.649c3.657 4.358 10.155 4.927 14.514 1.27l62.302-52.278 1.717-49.997-101.572-121.046-49.535-6.991-44.568 37.396z" fill="#61aab8"/><g fill="#bee1e5"><path d="m41.605 113.085c1.028-.669 2.03-1.399 2.993-2.208 12.917-10.839 14.602-30.097 3.763-43.015-1.525-1.818-3.222-3.405-5.04-4.774l-17.734 14.881c-4.358 3.657-4.927 10.155-1.27 14.514z"/><path d="m91.716 31.483c10.839 12.917 30.097 14.602 43.014 3.763.963-.808 1.856-1.668 2.694-2.564l-17.287-20.602c-3.657-4.359-10.155-4.927-14.514-1.27l-17.734 14.881c1.033 2.028 2.301 3.975 3.827 5.792z"/><path d="m188.884 235.331c-10.839-12.917-30.097-14.602-43.014-3.763-.963.808-1.856 1.668-2.694 2.564l17.287 20.602c3.657 4.359 10.155 4.927 14.514 1.27l17.734-14.881c-1.034-2.028-2.302-3.974-3.827-5.792z"/><path d="m238.995 153.73c-1.028.67-2.03 1.4-2.993 2.208-12.917 10.839-14.602 30.097-3.763 43.014 1.525 1.818 3.222 3.405 5.04 4.774l17.734-14.881c4.358-3.657 4.927-10.155 1.27-14.514z"/></g></g><path d="m321.723 16.727-70.473-13.029c-5.942-1.099-12.057.635-16.538 4.689l-138.287 125.084c-2.778 2.513-2.993 6.802-.48 9.58l3.373 3.729c11.41 12.615 30.889 13.582 43.493 2.161l76.89-69.675c1.77-1.604 4.073-2.492 6.462-2.492l59.066 3.369-32.858 52.201 40.908 4.152 21.366-24.673h111.755v-95.096z" fill="#ffcdbe"/><path d="m284.302 73.082-28.465 28.465c-2.512 2.512-5.92 3.924-9.473 3.924h-49.886c-8.662 0-15.684 7.023-15.684 15.685v13.716c0 8.662 7.024 15.686 15.686 15.686h97.873c4.669 0 9.121-1.981 12.244-5.451l64.817-72.023h-87.112z" fill="#ffcdbe"/><path d="m421.249 82.195v29.627h-84.694l-29.957 33.283c-3.121 3.461-7.567 5.451-12.244 5.451h-97.873c-8.665 0-15.686-7.021-15.686-15.686v-13.716c0-2.905.793-5.624 2.173-7.952 2.72 4.626 7.757 7.726 13.516 7.726h97.867c4.677 0 9.127-1.978 12.249-5.45l26.933-29.925c1.925-2.139 4.668-3.36 7.546-3.36h80.17z" fill="#ebae9d"/><path d="m384.569 10.559v107.428c0 5.831 4.727 10.559 10.559 10.559h89.815c2.845 0 5.151-2.306 5.151-5.151v-118.244c0-2.845-2.306-5.151-5.151-5.151h-89.815c-5.832 0-10.559 4.727-10.559 10.559z" fill="#8a94db"/><path d="m384.569 89.905v28.082c0 5.831 4.727 10.559 10.559 10.559h89.815c2.845 0 5.151-2.306 5.151-5.151v-22.931h-94.966c-5.832-.001-10.559-4.728-10.559-10.559z" fill="#717ed4"/><g><path d="m358.081 333.377v158.019c0 11.384-9.23 20.604-20.604 20.604h-265.972c-11.384 0-20.604-9.22-20.604-20.604v-158.019c0-2.957 1.267-5.769 3.482-7.726l41.527-36.592c1.113-.979 1.741-2.39 1.741-3.863v-51.138h213.67v51.138c0 1.473.639 2.885 1.751 3.863l41.516 36.592c2.215 1.957 3.493 4.769 3.493 7.726z" fill="#ddebfd"/><path d="m358.081 333.377v158.019c0 11.384-9.23 20.604-20.604 20.604h-29.329c11.384 0 20.604-9.22 20.604-20.604v-158.019c0-2.957-1.267-5.769-3.492-7.726l-41.516-36.592c-1.113-.979-1.741-2.39-1.741-3.863v-51.138h29.319v51.138c0 1.473.639 2.885 1.751 3.863l41.516 36.592c2.214 1.957 3.492 4.769 3.492 7.726z" fill="#bed9fd"/></g><g><path d="m290.162 392.732-98.181 98.181-49.956 2.648-41.139-41.139 2.648-49.956 97.165-97.165 49.956-2.648 41.767 41.767c4.023 4.024 1.763 44.289-2.26 48.312z" fill="#61aab8"/><g fill="#bee1e5"><path d="m290.094 392.8c-.965-.756-1.9-1.571-2.789-2.46-11.924-11.924-11.924-31.255 0-43.179 1.678-1.678 3.507-3.111 5.437-4.317l16.37 16.37c4.023 4.023 4.023 10.546 0 14.569z"/><path d="m247.285 307.142c-11.923 11.923-31.255 11.923-43.179 0-.889-.889-1.704-1.824-2.46-2.789l19.017-19.017c4.023-4.023 10.546-4.023 14.569 0l16.37 16.37c-1.205 1.93-2.639 3.758-4.317 5.436z"/><path d="m147.29 487.176c11.923-11.923 31.255-11.923 43.179 0 .889.889 1.704 1.824 2.46 2.789l-19.017 19.017c-4.023 4.023-10.546 4.023-14.569 0l-16.37-16.37c1.206-1.929 2.639-3.758 4.317-5.436z"/><path d="m104.481 401.518c.965.757 1.9 1.571 2.789 2.46 11.923 11.923 11.923 31.255 0 43.179-1.678 1.678-3.507 3.111-5.437 4.317l-16.37-16.37c-4.023-4.023-4.023-10.546 0-14.569z"/></g></g><circle cx="148.226" cy="355.829" fill="#eec06b" r="32.013"/><circle cx="241.795" cy="479.987" fill="#eec06b" r="32.013"/><path d="m351.165 260.475h-293.354c-2.845 0-5.151-2.306-5.151-5.151v-36.994c0-2.845 2.306-5.151 5.151-5.151h293.354c2.845 0 5.151 2.306 5.151 5.151v36.994c0 2.844-2.306 5.151-5.151 5.151z" fill="#407194"/><path d="m351.165 213.179h-18.587c2.845 0 5.151 2.306 5.151 5.151v18.903c0 2.762-2.239 5.001-5.001 5.001h-274.917c-2.845 0-5.151-2.306-5.151-5.151v18.242c0 2.845 2.306 5.151 5.151 5.151h293.354c2.845 0 5.151-2.306 5.151-5.151v-36.995c0-2.845-2.306-5.151-5.151-5.151z" fill="#365f7e"/></g></svg>