<svg id="Capa_1" enable-background="new 0 0 512 512" viewBox="0 0 512 512" xmlns="http://www.w3.org/2000/svg"><g><g><g><g><path d="m512 333.52-20.62 45.49 20.62 51.27v36.93c0 5.68-4.62 10.3-10.3 10.3h-188.74l-46.69-262.47 46.69-180.55h188.74c5.68 0 10.3 4.62 10.3 10.3z" fill="#e8edf1"/></g><g><path d="m423.787 243.432c-3.208 0-6.206-2.014-7.307-5.217-1.387-4.036.761-8.432 4.796-9.818l29.378-10.095-29.378-10.095c-4.035-1.386-6.183-5.782-4.796-9.818 1.386-4.033 5.779-6.183 9.818-4.796l50.644 17.401c3.12 1.072 5.215 4.007 5.215 7.307s-2.096 6.234-5.215 7.307l-50.644 17.401c-.832.287-1.679.423-2.511.423z" fill="#5169cd"/></g><g><path d="m512 333.52-20.62 45.49 20.62 51.27v36.93c0 5.68-4.62 10.3-10.3 10.3h-41.24c5.69 0 10.3-4.62 10.3-10.3v-422.42c0-5.68-4.61-10.3-10.3-10.3h41.24c5.68 0 10.3 4.62 10.3 10.3z" fill="#c5d3dd"/></g><path d="m512 333.525v96.755h-41.484c-2.732 0-5.351-1.085-7.283-3.016l-26.004-25.996c-1.932-1.931-4.552-3.016-7.283-3.016h-20.17c-5.69 0-10.302 4.612-10.302 10.302v11.412c0 2.732-1.085 5.353-3.017 7.284l-11.386 11.386c-1.932 1.932-4.552 3.017-7.284 3.017h-58.265c-5.69 0-10.302-4.612-10.302-10.302v-251.292c0-5.69 4.612-10.302 10.302-10.302h29.941c4.433 0 8.369 2.836 9.772 7.042l13.095 39.253c.585 1.754.688 3.634.296 5.441l-7.98 36.839c-.315 1.452-.311 2.955.01 4.406l7.366 33.294c.75 3.39 3.158 6.175 6.405 7.407l1.495.567c3.184 1.208 6.758.764 9.55-1.184l35.417-24.721c1.729-1.207 3.787-1.854 5.896-1.854h10.838c5.69 0 10.302 4.612 10.302 10.302v18.097c0 2.733 1.086 5.354 3.019 7.286l18.586 18.578c1.932 1.931 4.551 3.016 7.283 3.016h31.187z" fill="#27d1b3"/><path d="m473.529 330.509-2.767-2.766v102.537h41.238v-96.755h-31.188c-2.731 0-5.351-1.085-7.283-3.016z" fill="#20b69f"/><g><path d="m312.96 477.509h-302.658c-5.69 0-10.302-4.612-10.302-10.302v-422.414c0-5.69 4.612-10.302 10.302-10.302h302.658c5.69 0 10.302 4.612 10.302 10.302v422.414c0 5.69-4.613 10.302-10.302 10.302z" fill="#5169cd"/></g><g><path d="m323.261 44.792v422.415c0 5.687-4.615 10.302-10.302 10.302h-30.926v-443.019h30.926c5.686 0 10.302 4.616 10.302 10.302z" fill="#3351c5"/></g></g><g><g><path d="m427.251 298.624c0 18.751-19.048 42.467-28.992 53.57-3.143 3.51-8.635 3.51-11.778 0-9.944-11.103-28.992-34.819-28.992-53.57 0-19.265 15.617-34.882 34.882-34.882s34.88 15.617 34.88 34.882z" fill="#fb3a82"/><path d="m427.247 298.62c0 18.76-19.048 42.474-28.989 53.569-3.142 3.513-8.633 3.513-11.775 0-2.575-2.874-5.769-6.603-9.086-10.879 10.261-12.29 24.364-32.09 24.364-48.223 0-11.991-6.057-22.582-15.278-28.855 1.916-.33 3.874-.494 5.882-.494 19.265 0 34.882 15.617 34.882 34.882z" fill="#e01058"/></g></g><path d="m255.968 354.826h-193.729c-5.69 0-10.302-4.612-10.302-10.302v-27.77c0-5.69 4.612-10.302 10.302-10.302h193.729c5.69 0 10.302 4.612 10.302 10.302v27.77c0 5.69-4.612 10.302-10.302 10.302z" fill="#27d1b3"/><path d="m266.271 316.75v27.774c0 5.687-4.615 10.302-10.302 10.302h-39.167c5.687 0 10.302-4.615 10.302-10.302v-27.774c0-5.687-4.615-10.302-10.302-10.302h39.167c5.687 0 10.302 4.615 10.302 10.302z" fill="#20b69f"/></g><g><path d="m159.108 96.107c-46.296 0-83.96 37.665-83.96 83.961s37.664 83.96 83.96 83.96 83.96-37.664 83.96-83.96-37.665-83.961-83.96-83.961zm56.514 122.626c-5.423-2.364-11.477-4.359-17.986-5.948 1.532-7.742 2.519-16.129 2.884-24.991h26.647c-1.284 11.386-5.364 21.934-11.545 30.939zm-124.574-30.939h26.647c.365 8.861 1.352 17.247 2.884 24.989-6.509 1.588-12.564 3.584-17.987 5.947-6.18-9.004-10.26-19.552-11.544-30.936zm11.545-46.393c5.422 2.364 11.477 4.359 17.986 5.948-1.532 7.743-2.519 16.13-2.884 24.992h-26.647c1.284-11.386 5.364-21.934 11.545-30.94zm75.744-6.235c-6.17.745-12.626 1.136-19.226 1.136-6.602 0-13.059-.392-19.233-1.138 5.402-15.133 13.013-23.605 19.229-23.605 6.217 0 13.829 8.473 19.23 23.607zm9.217-17.397c6.325 2.9 12.139 6.725 17.256 11.317-3.446 1.263-7.143 2.373-11.05 3.32-1.775-5.388-3.86-10.291-6.206-14.637zm-54.402 54.572c.364-8.096 1.299-15.496 2.632-22.147 7.492 1.018 15.333 1.561 23.327 1.561 7.992 0 15.83-.542 23.32-1.56 1.333 6.651 2.267 14.051 2.632 22.146zm51.911 15.453c-.364 8.096-1.299 15.495-2.632 22.147-7.492-1.018-15.333-1.561-23.327-1.561-7.991 0-15.83.542-23.32 1.56-1.333-6.651-2.267-14.05-2.632-22.146zm-60.611-55.382c-3.909-.947-7.602-2.061-11.05-3.324 5.118-4.593 10.933-8.419 17.259-11.319-2.347 4.348-4.433 9.252-6.209 14.643zm.002 95.316c1.776 5.388 3.86 10.29 6.206 14.636-6.326-2.901-12.141-6.726-17.26-11.32 3.446-1.263 7.15-2.369 11.054-3.316zm15.426-2.752c6.171-.746 12.622-1.144 19.223-1.144 6.602 0 13.059.392 19.233 1.138-5.401 15.132-13.013 23.605-19.229 23.605-6.215-.001-13.825-8.471-19.227-23.599zm53.883 2.746c3.908.946 7.602 2.061 11.05 3.324-5.118 4.593-10.932 8.419-17.258 11.319 2.346-4.348 4.432-9.252 6.208-14.643zm6.757-55.381c-.365-8.861-1.352-17.248-2.884-24.99 6.51-1.588 12.564-3.584 17.988-5.948 6.18 9.005 10.259 19.552 11.543 30.937h-26.647z" fill="#e8edf1"/><g fill="#5169cd"><path d="m472.178 91.914h-4.28v-13.993h4.28c4.268 0 7.726-3.459 7.726-7.726 0-4.268-3.459-7.726-7.726-7.726h-37.159c-10.454 0-18.959 8.505-18.959 18.959v6.982c0 10.454 8.505 18.959 18.959 18.959h37.159c4.268 0 7.726-3.459 7.726-7.726 0-4.27-3.458-7.729-7.726-7.729zm-40.665-3.506v-6.982c0-1.934 1.572-3.506 3.506-3.506h17.427v13.994h-17.427c-1.933 0-3.506-1.572-3.506-3.506z"/><path d="m472.178 169.496h-48.391c-4.268 0-7.726 3.459-7.726 7.726s3.459 7.726 7.726 7.726h48.391c4.268 0 7.726-3.459 7.726-7.726s-3.458-7.726-7.726-7.726z"/><path d="m460.08 114.732c-10.931 0-19.824 8.893-19.824 19.825v5.249c0 2.41-1.962 4.372-4.372 4.372s-4.371-1.962-4.371-4.372v-17.348c0-4.268-3.459-7.726-7.726-7.726s-7.726 3.459-7.726 7.726v17.348c0 10.932 8.893 19.825 19.824 19.825 10.932 0 19.825-8.893 19.825-19.825v-5.249c0-2.41 1.961-4.372 4.371-4.372s4.371 1.962 4.371 4.372v17.348c0 4.268 3.459 7.726 7.726 7.726s7.726-3.459 7.726-7.726v-17.348c0-10.931-8.893-19.825-19.824-19.825z"/></g><g><g fill="#3351c5"><path d="m479.9 70.19c0-4.26-3.45-7.72-7.72-7.72h-1.42v15.45h1.42c4.27 0 7.72-3.46 7.72-7.73zm-7.72 21.72h-1.42v15.46h1.42c4.27 0 7.72-3.46 7.72-7.73s-3.45-7.73-7.72-7.73z"/><path d="m479.9 177.22c0 4.27-3.45 7.73-7.72 7.73h-1.42v-15.45h1.42c4.27 0 7.72 3.45 7.72 7.72z"/><path d="m479.9 134.56v17.35c0 4.26-3.45 7.72-7.72 7.72-.49 0-.96-.04-1.42-.13v-41.62c5.49 3.51 9.14 9.68 9.14 16.68z"/></g></g><g fill="#e8edf1"><path d="m54.698 81.616h-14.884c-4.267 0-7.726-3.459-7.726-7.726s3.459-7.726 7.726-7.726h14.884c4.267 0 7.726 3.459 7.726 7.726s-3.459 7.726-7.726 7.726z"/><path d="m229.588 399.795h-140.968c-4.267 0-7.726-3.459-7.726-7.726s3.459-7.726 7.726-7.726h140.968c4.267 0 7.726 3.459 7.726 7.726s-3.459 7.726-7.726 7.726z"/><path d="m229.588 429.515h-140.968c-4.267 0-7.726-3.459-7.726-7.726s3.459-7.726 7.726-7.726h140.968c4.267 0 7.726 3.459 7.726 7.726s-3.459 7.726-7.726 7.726z"/></g></g><path d="m482.157 218.302c0-3.3-2.096-6.234-5.215-7.307l-6.182-2.124v18.862l6.182-2.124c3.119-1.073 5.215-4.007 5.215-7.307z" fill="#3351c5"/></g><g/><g/><g/><g/><g/><g/><g/><g/><g/><g/><g/><g/><g/><g/><g/></svg>